<svg width="53" height="53" viewBox="0 0 53 53" fill="none" xmlns="http://www.w3.org/2000/svg">
<g filter="url(#filter0_d_4689_38950)">
<rect x="8" y="0.140625" width="37.7188" height="37.7188" rx="18.8594" fill="#D94F00"/>
<g clip-path="url(#clip0_4689_38950)">
<path fill-rule="evenodd" clip-rule="evenodd" d="M14.5 6.64453H40.5129V32.6575H14.5V6.64453Z" fill="#D94F00"/>
<path fill-rule="evenodd" clip-rule="evenodd" d="M29.3058 11.6895H35.9743V18.2918H29.3058V11.6895ZM21.2441 21.6314V22.2773H22.3934V25.6944H23.1859V22.2512H24.2559V21.6053L21.2441 21.6319V21.6314ZM20.6522 22.4322V21.7863C20.0164 21.5023 19.2853 21.4164 18.5367 21.7863C17.309 22.3287 17.2651 25.0144 18.4932 25.5396C19.1984 25.8926 20.6692 25.7289 20.8174 25.4188V23.2926H19.3551V23.8523H19.999V24.9715C17.8834 25.9873 17.4917 21.1063 20.6522 22.4322ZM25.5449 23.8178H26.302C26.9289 23.8439 27.0945 25.0144 26.2761 25.0056H25.5449V23.8178ZM25.5449 22.1738H26.302C26.9289 22.2857 26.7028 23.2068 26.2761 23.2325H25.5449V22.1738ZM24.7614 21.5456V25.6599H26.842C27.904 25.2812 27.9479 23.6545 26.842 23.482C27.8606 23.3705 27.913 21.5195 26.1543 21.5195L24.7614 21.5456ZM28.435 22.6989V23.3099C28.992 23.1551 30.2022 22.7246 30.0889 23.6373C29.0269 23.5682 28.3043 23.7576 28.1825 24.4115C27.9824 25.8236 29.5145 25.9612 30.1588 25.264V25.5997H30.8899V23.1205C30.7072 22.3198 29.4975 22.2167 28.435 22.6989ZM29.0529 24.2916C29.2185 24.0761 29.7495 24.0845 30.1064 24.188V24.7304C29.5234 25.3498 28.5832 25.0662 29.0533 24.2911L29.0529 24.2916ZM32.405 23.4307C32.5966 23.2241 33.6152 22.8365 33.7719 23.4307V25.617H34.5899V23.3015C34.4158 22.3371 33.484 22.165 32.3526 22.8193V22.4578H31.5781V25.6342H32.3961L32.405 23.4307ZM37.1581 22.4233L36.0876 23.8434L37.2194 25.5909L38.2031 25.5652L36.9584 23.8868L38.0813 22.449L37.1585 22.4233H37.1581ZM35.1997 21.3815H36.0092V25.5909H35.1993V21.3819L35.1997 21.3815Z" fill="white"/>
<path fill-rule="evenodd" clip-rule="evenodd" d="M29.2969 11.6895H35.9653V18.2918H29.2969V11.6895Z" fill="white"/>
</g>
</g>
<defs>
<filter id="filter0_d_4689_38950" x="0.726275" y="0.140625" width="52.2662" height="52.2662" filterUnits="userSpaceOnUse" color-interpolation-filters="sRGB">
<feFlood flood-opacity="0" result="BackgroundImageFix"/>
<feColorMatrix in="SourceAlpha" type="matrix" values="0 0 0 0 0 0 0 0 0 0 0 0 0 0 0 0 0 0 127 0" result="hardAlpha"/>
<feOffset dy="7.27372"/>
<feGaussianBlur stdDeviation="3.63686"/>
<feComposite in2="hardAlpha" operator="out"/>
<feColorMatrix type="matrix" values="0 0 0 0 0.325 0 0 0 0 0.325 0 0 0 0 0.325 0 0 0 0.15 0"/>
<feBlend mode="normal" in2="BackgroundImageFix" result="effect1_dropShadow_4689_38950"/>
<feBlend mode="normal" in="SourceGraphic" in2="effect1_dropShadow_4689_38950" result="shape"/>
</filter>
<clipPath id="clip0_4689_38950">
<rect x="14.5" y="6.64453" width="26.0129" height="26.0129" rx="4.06407" fill="white"/>
</clipPath>
</defs>
</svg>
