<svg width="199" height="143" viewBox="0 0 199 143" fill="none" xmlns="http://www.w3.org/2000/svg">
<path d="M112.707 10.9104C63.1126 4.91804 17.7812 40.4759 11.7888 90.0704C6.77388 131.576 30.6724 169.848 67.597 184.938L75.9766 115.585C67.6938 111.759 62.5188 102.254 63.7525 92.0436L67.9183 57.5662C68.2227 55.0467 70.3195 53.2819 72.5738 53.5543C74.8281 53.8267 76.4442 56.0401 76.1398 58.5596L72.711 86.9372L81.1978 87.9626L84.6266 59.585C84.931 57.0655 87.0278 55.3007 89.2821 55.5731C91.5364 55.8455 93.1525 58.0589 92.8481 60.5784L89.4193 88.956L97.9061 89.9814L101.159 63.0625C101.463 60.543 103.56 58.7782 105.814 59.0506C108.068 59.323 109.685 61.5364 109.38 64.0559L105.407 96.942C104.654 103.174 101.71 108.604 97.3681 112.25C94.6607 114.614 91.3705 116.235 87.9272 116.895L79.2431 188.767C83.0246 189.762 86.9707 190.508 91.0814 191.005C97.5791 191.79 104.024 191.896 110.284 191.307L125.714 63.6077C126.13 60.1599 130.301 59.0493 131.969 61.9418L133.855 65.2641C136.742 70.3218 140.418 77.7621 142.744 87.461C145.826 99.8077 145.32 109.568 145.196 111.706C144.713 119.047 144.47 124.399 140.948 130.163C136.703 137.453 130.272 140.578 127.162 141.817L121.41 189.422C157.908 181.32 187.141 150.947 191.883 111.696C197.859 62.2342 162.434 16.9187 112.707 10.9104Z" fill="#E85666"/>
</svg>
