<svg width="1226" height="1120" viewBox="0 0 1226 1120" fill="none" xmlns="http://www.w3.org/2000/svg">
<path d="M1197.12 685.115C1128.43 814.838 1018.65 753.339 901.355 687.675C804.175 633.273 701.789 575.923 613.999 623.077L613.662 623.28C598.753 631.291 598.134 652.605 612.67 661.258C673.976 697.697 758.789 722.38 851.652 718.213C913.948 715.45 957.889 753.705 980.478 803.328C1021.33 892.981 1039.05 969.699 1032.04 1021.5C1028.57 1047.35 1017.84 1071.64 999.677 1089.56C969.832 1118.98 919.778 1131.56 848.679 1106.03L307.887 912.128L371.817 791.393L800.527 945.102C870.891 970.355 920.288 958.085 949.515 929.246L949.824 928.951C966.303 912.632 957.362 884.46 934.459 880.706C924.189 879.015 912.913 878.359 900.672 878.874C789.199 883.816 689.146 847.621 626.972 799.175C600.812 778.824 580.08 754.578 566.733 728.661C519.732 637.55 500.334 563.271 515.25 515.46C521.507 495.412 537.321 477.174 564.308 462.672C653.169 414.939 756.123 472.59 853.824 527.307C931.233 570.666 1005.37 612.181 1066.18 597.35C1095.6 590.176 1099.9 549.932 1073.17 535.78L0.59643 149.855L79.5012 0.840598L1096.26 357.212C1214.69 419.925 1259.87 566.771 1197.15 685.206L1197.12 685.115Z" fill="#240011"/>
</svg>
