<svg width="273" height="332" viewBox="0 0 273 332" fill="none" xmlns="http://www.w3.org/2000/svg">
<path d="M830.317 350.917C862.303 304.516 885.243 252.522 897.959 197.665L21.0683 9.98911C10.2176 65.245 9.86677 122.074 20.0591 177.501C30.7096 235.42 52.6638 290.674 84.668 340.108C116.672 389.542 158.1 432.189 206.586 465.612C255.072 499.036 309.666 522.583 367.252 534.907C424.837 547.232 484.287 548.094 542.206 537.443C600.124 526.793 655.378 504.839 704.812 472.834C754.247 440.83 796.893 399.402 830.317 350.917Z" fill="#E85666" stroke="white" stroke-width="15.1929"/>
<path fill-rule="evenodd" clip-rule="evenodd" d="M102.653 118.132C102.613 118.212 102.574 118.293 102.535 118.374C91.845 140.381 101.02 166.888 123.028 177.577C145.035 188.267 171.542 179.092 182.231 157.084C182.27 157.003 182.309 156.923 182.348 156.842L102.653 118.132Z" fill="white"/>
<path fill-rule="evenodd" clip-rule="evenodd" d="M146.328 128.837C146.343 128.795 146.358 128.753 146.372 128.71C150.401 117.203 144.338 104.608 132.83 100.58C121.322 96.5515 108.728 102.615 104.699 114.122C104.685 114.165 104.67 114.207 104.655 114.249L146.328 128.837Z" fill="white"/>
<path fill-rule="evenodd" clip-rule="evenodd" d="M187.738 143.321C187.753 143.279 187.768 143.237 187.783 143.195C191.811 131.687 185.748 119.093 174.24 115.064C162.732 111.036 150.138 117.099 146.11 128.607C146.095 128.649 146.08 128.691 146.066 128.734L187.738 143.321Z" fill="white"/>
</svg>
