<svg width="66" height="74" viewBox="0 0 66 74" fill="none" xmlns="http://www.w3.org/2000/svg">
<path d="M48.367 0.333984H17.6367C6.49 0.333984 0 6.86065 0 18.044V55.9207C0 67.2873 6.49 73.6673 17.6367 73.6673H48.367C59.6933 73.6673 66 67.2873 66 55.9207V18.044C66 6.86065 59.6933 0.333984 48.367 0.333984Z" fill="#F3FFF9"/>
<path d="M21.2623 48.1584H44.6759C45.8675 48.2779 46.7664 49.2933 46.7664 50.5177C46.7664 51.7093 45.8675 52.7277 44.6759 52.8471H21.2623C20.3663 52.9666 19.5003 52.5186 19.0224 51.772C18.5446 50.9956 18.5446 50.01 19.0224 49.2634C19.5003 48.4869 20.3663 48.0688 21.2623 48.1584ZM44.6759 34.5373C45.9601 34.5373 47.0054 35.5855 47.0054 36.8697C47.0054 38.1539 45.9601 39.1991 44.6759 39.1991H21.2623C19.9751 39.1991 18.9328 38.1539 18.9328 36.8697C18.9328 35.5855 19.9751 34.5373 21.2623 34.5373H44.6759ZM30.1887 21.0117C31.4759 21.0117 32.5211 22.057 32.5211 23.3382C32.5211 24.6552 31.4759 25.7004 30.1887 25.7004H21.2623C19.9751 25.7004 18.9328 24.6552 18.9328 23.371C18.9328 22.0868 19.9751 21.0416 21.2623 21.0416V21.0117H30.1887Z" fill="#06C16B"/>
</svg>
