<svg width="2826" height="143" viewBox="0 0 2826 143" fill="none" xmlns="http://www.w3.org/2000/svg">
<path opacity="0.1" d="M56.64 3.29096C75.44 3.29096 91.13 9.83966 103.71 22.937C116.42 35.9047 122.77 52.0497 122.77 71.3716C122.77 90.6935 116.42 106.903 103.71 120.001C91.13 132.968 75.44 139.452 56.64 139.452H0.22998V3.29096H56.64ZM56.64 101.716C64.55 101.716 71.03 98.928 76.09 93.3519C81.27 87.6461 83.87 80.3193 83.87 71.3716C83.87 62.4238 81.27 55.1619 76.09 49.5858C71.03 43.88 64.55 41.0271 56.64 41.0271H41.0699V101.716H56.64ZM207.59 139.258L186 96.4641H176.28V139.258H137.37V3.09645H191.84C206.75 3.09645 219.07 7.50547 228.8 16.3236C238.52 25.012 243.39 36.5531 243.39 50.9473C243.39 58.9873 241.51 66.2493 237.74 72.7332C234.11 79.2171 228.99 84.469 222.38 88.489L249.22 139.258H207.59ZM176.28 38.8874V64.1744H191.06C195.21 64.3041 198.45 63.2667 200.79 61.0621C203.25 58.8576 204.48 55.7454 204.48 51.7254C204.48 47.7054 203.25 44.5931 200.79 42.3886C198.45 40.0544 195.21 38.8874 191.06 38.8874H176.28ZM375.51 122.14C361.63 135.756 344.58 142.564 324.35 142.564C304.12 142.564 287 135.756 273 122.14C259.12 108.394 252.18 91.4716 252.18 71.3716C252.18 51.2716 259.12 34.4136 273 20.7973C287 7.05161 304.12 0.178711 324.35 0.178711C344.58 0.178711 361.63 7.05161 375.51 20.7973C389.51 34.4136 396.52 51.2716 396.52 71.3716C396.52 91.4716 389.51 108.394 375.51 122.14ZM300.42 95.1025C306.78 101.327 314.75 104.439 324.35 104.439C333.95 104.439 341.86 101.327 348.08 95.1025C354.44 88.7483 357.61 80.838 357.61 71.3716C357.61 61.9051 354.44 54.0597 348.08 47.8352C341.86 41.481 333.95 38.3039 324.35 38.3039C314.75 38.3039 306.78 41.481 300.42 47.8352C294.2 54.0597 291.09 61.9051 291.09 71.3716C291.09 80.838 294.2 88.7483 300.42 95.1025ZM465.57 3.29096C479.7 3.29096 491.5 7.76483 500.97 16.7126C510.44 25.5307 515.17 37.3312 515.17 52.1144C515.17 66.8976 510.44 78.7632 500.97 87.7109C491.5 96.529 479.7 100.938 465.57 100.938H450.01V139.452H411.1V3.29096H465.57ZM465.57 63.2019C468.55 63.2019 471.08 62.2292 473.15 60.2841C475.23 58.2092 476.27 55.486 476.27 52.1144C476.27 48.7428 475.23 46.0845 473.15 44.1394C471.08 42.0645 468.55 41.0271 465.57 41.0271H450.01V63.2019H465.57ZM581.251 3.29096C595.386 3.29096 607.186 7.76483 616.653 16.7126C626.119 25.5307 630.852 37.3312 630.852 52.1144C630.852 66.8976 626.119 78.7632 616.653 87.7109C607.186 96.529 595.386 100.938 581.251 100.938H565.69V139.452H526.79V3.29096H581.251ZM581.251 63.2019C584.233 63.2019 586.762 62.2292 588.837 60.2841C590.912 58.2092 591.949 55.486 591.949 52.1144C591.949 48.7428 590.912 46.0845 588.837 44.1394C586.762 42.0645 584.233 41.0271 581.251 41.0271H565.69V63.2019H581.251ZM658.302 135.951C654.023 140.23 648.771 142.37 642.546 142.37C636.322 142.37 631.005 140.23 626.596 135.951C622.317 131.542 620.177 126.225 620.177 120.001C620.177 113.776 622.317 108.524 626.596 104.245C631.005 99.8357 636.322 97.6312 642.546 97.6312C648.771 97.6312 654.023 99.8357 658.302 104.245C662.711 108.524 664.915 113.776 664.915 120.001C664.915 126.225 662.711 131.542 658.302 135.951ZM776.762 3.29096C795.565 3.29096 811.256 9.83966 823.835 22.937C836.543 35.9047 842.898 52.0497 842.898 71.3716C842.898 90.6935 836.543 106.903 823.835 120.001C811.256 132.968 795.565 139.452 776.762 139.452H720.353V3.29096H776.762ZM776.762 101.716C784.672 101.716 791.156 98.928 796.214 93.3519C801.401 87.6461 803.994 80.3193 803.994 71.3716C803.994 62.4238 801.401 55.1619 796.214 49.5858C791.156 43.88 784.672 41.0271 776.762 41.0271H761.201V101.716H776.762ZM927.722 139.258L906.13 96.4641H896.405V139.258H857.501V3.09645H911.966C926.879 3.09645 939.198 7.50547 948.924 16.3236C958.65 25.012 963.513 36.5531 963.513 50.9473C963.513 58.9873 961.632 66.2493 957.872 72.7332C954.241 79.2171 949.118 84.469 942.505 88.489L969.348 139.258H927.722ZM896.405 38.8874V64.1744H911.188C915.337 64.3041 918.579 63.2667 920.914 61.0621C923.377 58.8576 924.609 55.7454 924.609 51.7254C924.609 47.7054 923.377 44.5931 920.914 42.3886C918.579 40.0544 915.337 38.8874 911.188 38.8874H896.405ZM1095.63 122.14C1081.76 135.756 1064.71 142.564 1044.48 142.564C1024.25 142.564 1007.13 135.756 993.125 122.14C979.249 108.394 972.311 91.4716 972.311 71.3716C972.311 51.2716 979.249 34.4136 993.125 20.7973C1007.13 7.05161 1024.25 0.178711 1044.48 0.178711C1064.71 0.178711 1081.76 7.05161 1095.63 20.7973C1109.64 34.4136 1116.64 51.2716 1116.64 71.3716C1116.64 91.4716 1109.64 108.394 1095.63 122.14ZM1020.55 95.1025C1026.91 101.327 1034.88 104.439 1044.48 104.439C1054.07 104.439 1061.98 101.327 1068.21 95.1025C1074.56 88.7483 1077.74 80.838 1077.74 71.3716C1077.74 61.9051 1074.56 54.0597 1068.21 47.8352C1061.98 41.481 1054.07 38.3039 1044.48 38.3039C1034.88 38.3039 1026.91 41.481 1020.55 47.8352C1014.33 54.0597 1011.22 61.9051 1011.22 71.3716C1011.22 80.838 1014.33 88.7483 1020.55 95.1025ZM1185.69 3.29096C1199.83 3.29096 1211.63 7.76483 1221.1 16.7126C1230.56 25.5307 1235.3 37.3312 1235.3 52.1144C1235.3 66.8976 1230.56 78.7632 1221.1 87.7109C1211.63 96.529 1199.83 100.938 1185.69 100.938H1170.13V139.452H1131.23V3.29096H1185.69ZM1185.69 63.2019C1188.68 63.2019 1191.21 62.2292 1193.28 60.2841C1195.36 58.2092 1196.39 55.486 1196.39 52.1144C1196.39 48.7428 1195.36 46.0845 1193.28 44.1394C1191.21 42.0645 1188.68 41.0271 1185.69 41.0271H1170.13V63.2019H1185.69ZM1301.38 3.29096C1315.51 3.29096 1327.31 7.76483 1336.78 16.7126C1346.25 25.5307 1350.98 37.3312 1350.98 52.1144C1350.98 66.8976 1346.25 78.7632 1336.78 87.7109C1327.31 96.529 1315.51 100.938 1301.38 100.938H1285.82V139.452H1246.91V3.29096H1301.38ZM1301.38 63.2019C1304.36 63.2019 1306.89 62.2292 1308.96 60.2841C1311.04 58.2092 1312.08 55.486 1312.08 52.1144C1312.08 48.7428 1311.04 46.0845 1308.96 44.1394C1306.89 42.0645 1304.36 41.0271 1301.38 41.0271H1285.82V63.2019H1301.38ZM1378.43 135.951C1374.15 140.23 1368.9 142.37 1362.67 142.37C1356.45 142.37 1351.13 140.23 1346.72 135.951C1342.44 131.542 1340.3 126.225 1340.3 120.001C1340.3 113.776 1342.44 108.524 1346.72 104.245C1351.13 99.8357 1356.45 97.6312 1362.67 97.6312C1368.9 97.6312 1374.15 99.8357 1378.43 104.245C1382.84 108.524 1385.04 113.776 1385.04 120.001C1385.04 126.225 1382.84 131.542 1378.43 135.951ZM1496.89 3.29096C1515.69 3.29096 1531.38 9.83966 1543.96 22.937C1556.67 35.9047 1563.02 52.0497 1563.02 71.3716C1563.02 90.6935 1556.67 106.903 1543.96 120.001C1531.38 132.968 1515.69 139.452 1496.89 139.452H1440.48V3.29096H1496.89ZM1496.89 101.716C1504.8 101.716 1511.28 98.928 1516.34 93.3519C1521.53 87.6461 1524.12 80.3193 1524.12 71.3716C1524.12 62.4238 1521.53 55.1619 1516.34 49.5858C1511.28 43.88 1504.8 41.0271 1496.89 41.0271H1481.33V101.716H1496.89ZM1647.85 139.258L1626.26 96.4641H1616.53V139.258H1577.63V3.09645H1632.09C1647.01 3.09645 1659.32 7.50547 1669.05 16.3236C1678.78 25.012 1683.64 36.5531 1683.64 50.9473C1683.64 58.9873 1681.76 66.2493 1678 72.7332C1674.37 79.2171 1669.25 84.469 1662.63 88.489L1689.47 139.258H1647.85ZM1616.53 38.8874V64.1744H1631.31C1635.46 64.3041 1638.71 63.2667 1641.04 61.0621C1643.5 58.8576 1644.74 55.7454 1644.74 51.7254C1644.74 47.7054 1643.5 44.5931 1641.04 42.3886C1638.71 40.0544 1635.46 38.8874 1631.31 38.8874H1616.53ZM1815.76 122.14C1801.89 135.756 1784.83 142.564 1764.6 142.564C1744.37 142.564 1727.26 135.756 1713.25 122.14C1699.38 108.394 1692.44 91.4716 1692.44 71.3716C1692.44 51.2716 1699.38 34.4136 1713.25 20.7973C1727.26 7.05161 1744.37 0.178711 1764.6 0.178711C1784.83 0.178711 1801.89 7.05161 1815.76 20.7973C1829.77 34.4136 1836.77 51.2716 1836.77 71.3716C1836.77 91.4716 1829.77 108.394 1815.76 122.14ZM1740.68 95.1025C1747.03 101.327 1755.01 104.439 1764.6 104.439C1774.2 104.439 1782.11 101.327 1788.33 95.1025C1794.69 88.7483 1797.87 80.838 1797.87 71.3716C1797.87 61.9051 1794.69 54.0597 1788.33 47.8352C1782.11 41.481 1774.2 38.3039 1764.6 38.3039C1755.01 38.3039 1747.03 41.481 1740.68 47.8352C1734.45 54.0597 1731.34 61.9051 1731.34 71.3716C1731.34 80.838 1734.45 88.7483 1740.68 95.1025ZM1905.82 3.29096C1919.96 3.29096 1931.76 7.76483 1941.22 16.7126C1950.69 25.5307 1955.42 37.3312 1955.42 52.1144C1955.42 66.8976 1950.69 78.7632 1941.22 87.7109C1931.76 96.529 1919.96 100.938 1905.82 100.938H1890.26V139.452H1851.36V3.29096H1905.82ZM1905.82 63.2019C1908.8 63.2019 1911.33 62.2292 1913.41 60.2841C1915.48 58.2092 1916.52 55.486 1916.52 52.1144C1916.52 48.7428 1915.48 46.0845 1913.41 44.1394C1911.33 42.0645 1908.8 41.0271 1905.82 41.0271H1890.26V63.2019H1905.82ZM2021.5 3.29096C2035.64 3.29096 2047.44 7.76483 2056.91 16.7126C2066.37 25.5307 2071.11 37.3312 2071.11 52.1144C2071.11 66.8976 2066.37 78.7632 2056.91 87.7109C2047.44 96.529 2035.64 100.938 2021.5 100.938H2005.94V139.452H1967.04V3.29096H2021.5ZM2021.5 63.2019C2024.49 63.2019 2027.02 62.2292 2029.09 60.2841C2031.16 58.2092 2032.2 55.486 2032.2 52.1144C2032.2 48.7428 2031.16 46.0845 2029.09 44.1394C2027.02 42.0645 2024.49 41.0271 2021.5 41.0271H2005.94V63.2019H2021.5ZM2098.55 135.951C2094.28 140.23 2089.02 142.37 2082.8 142.37C2076.58 142.37 2071.26 140.23 2066.85 135.951C2062.57 131.542 2060.43 126.225 2060.43 120.001C2060.43 113.776 2062.57 108.524 2066.85 104.245C2071.26 99.8357 2076.58 97.6312 2082.8 97.6312C2089.02 97.6312 2094.28 99.8357 2098.55 104.245C2102.96 108.524 2105.17 113.776 2105.17 120.001C2105.17 126.225 2102.96 131.542 2098.55 135.951ZM2217.02 3.29096C2235.82 3.29096 2251.51 9.83966 2264.09 22.937C2276.8 35.9047 2283.15 52.0497 2283.15 71.3716C2283.15 90.6935 2276.8 106.903 2264.09 120.001C2251.51 132.968 2235.82 139.452 2217.02 139.452H2160.61V3.29096H2217.02ZM2217.02 101.716C2224.93 101.716 2231.41 98.928 2236.47 93.3519C2241.65 87.6461 2244.25 80.3193 2244.25 71.3716C2244.25 62.4238 2241.65 55.1619 2236.47 49.5858C2231.41 43.88 2224.93 41.0271 2217.02 41.0271H2201.45V101.716H2217.02ZM2367.98 139.258L2346.38 96.4641H2336.66V139.258H2297.75V3.09645H2352.22C2367.13 3.09645 2379.45 7.50547 2389.18 16.3236C2398.9 25.012 2403.77 36.5531 2403.77 50.9473C2403.77 58.9873 2401.89 66.2493 2398.12 72.7332C2394.49 79.2171 2389.37 84.469 2382.76 88.489L2409.6 139.258H2367.98ZM2336.66 38.8874V64.1744H2351.44C2355.59 64.3041 2358.83 63.2667 2361.17 61.0621C2363.63 58.8576 2364.86 55.7454 2364.86 51.7254C2364.86 47.7054 2363.63 44.5931 2361.17 42.3886C2358.83 40.0544 2355.59 38.8874 2351.44 38.8874H2336.66ZM2535.89 122.14C2522.01 135.756 2504.96 142.564 2484.73 142.564C2464.5 142.564 2447.38 135.756 2433.38 122.14C2419.5 108.394 2412.56 91.4716 2412.56 71.3716C2412.56 51.2716 2419.5 34.4136 2433.38 20.7973C2447.38 7.05161 2464.5 0.178711 2484.73 0.178711C2504.96 0.178711 2522.01 7.05161 2535.89 20.7973C2549.89 34.4136 2556.9 51.2716 2556.9 71.3716C2556.9 91.4716 2549.89 108.394 2535.89 122.14ZM2460.8 95.1025C2467.16 101.327 2475.13 104.439 2484.73 104.439C2494.33 104.439 2502.24 101.327 2508.46 95.1025C2514.81 88.7483 2517.99 80.838 2517.99 71.3716C2517.99 61.9051 2514.81 54.0597 2508.46 47.8352C2502.24 41.481 2494.33 38.3039 2484.73 38.3039C2475.13 38.3039 2467.16 41.481 2460.8 47.8352C2454.58 54.0597 2451.47 61.9051 2451.47 71.3716C2451.47 80.838 2454.58 88.7483 2460.8 95.1025ZM2625.95 3.29096C2640.08 3.29096 2651.88 7.76483 2661.35 16.7126C2670.82 25.5307 2675.55 37.3312 2675.55 52.1144C2675.55 66.8976 2670.82 78.7632 2661.35 87.7109C2651.88 96.529 2640.08 100.938 2625.95 100.938H2610.39V139.452H2571.48V3.29096H2625.95ZM2625.95 63.2019C2628.93 63.2019 2631.46 62.2292 2633.53 60.2841C2635.61 58.2092 2636.65 55.486 2636.65 52.1144C2636.65 48.7428 2635.61 46.0845 2633.53 44.1394C2631.46 42.0645 2628.93 41.0271 2625.95 41.0271H2610.39V63.2019H2625.95ZM2741.63 3.29096C2755.77 3.29096 2767.57 7.76483 2777.03 16.7126C2786.5 25.5307 2791.23 37.3312 2791.23 52.1144C2791.23 66.8976 2786.5 78.7632 2777.03 87.7109C2767.57 96.529 2755.77 100.938 2741.63 100.938H2726.07V139.452H2687.17V3.29096H2741.63ZM2741.63 63.2019C2744.61 63.2019 2747.14 62.2292 2749.22 60.2841C2751.29 58.2092 2752.33 55.486 2752.33 52.1144C2752.33 48.7428 2751.29 46.0845 2749.22 44.1394C2747.14 42.0645 2744.61 41.0271 2741.63 41.0271H2726.07V63.2019H2741.63ZM2818.68 135.951C2814.4 140.23 2809.15 142.37 2802.93 142.37C2796.7 142.37 2791.39 140.23 2786.98 135.951C2782.7 131.542 2780.56 126.225 2780.56 120.001C2780.56 113.776 2782.7 108.524 2786.98 104.245C2791.39 99.8357 2796.7 97.6312 2802.93 97.6312C2809.15 97.6312 2814.4 99.8357 2818.68 104.245C2823.09 108.524 2825.3 113.776 2825.3 120.001C2825.3 126.225 2823.09 131.542 2818.68 135.951Z" fill="white"/>
</svg>
