<svg width="83" height="78" viewBox="0 0 83 78" fill="none" xmlns="http://www.w3.org/2000/svg">
<path d="M0.754515 39.3584L9.96748 39.1891L29.6613 38.8505L82.995 37.9193C82.2349 59.6417 64.5701 77.3074 42.5942 77.646C42.3407 77.646 42.0871 77.646 41.8335 77.646C32.9587 77.6463 24.5908 74.8572 17.5753 69.7015C16.0539 68.6028 14.617 67.4195 13.2646 66.0672C6.33354 59.3901 2.10717 50.7689 1.00813 41.3869C0.839069 40.7107 0.839059 40.0345 0.754515 39.3584Z" fill="#E85666"/>
<path d="M27.7669 51.4636L30.9275 51.4055L37.6836 51.2893L55.9801 50.9699C55.7193 58.4219 49.6593 64.4823 42.1203 64.5984C42.0333 64.5985 41.9463 64.5985 41.8594 64.5985C38.8148 64.5985 35.9441 63.6417 33.5374 61.873C33.0155 61.4961 32.5225 61.0902 32.0586 60.6262C29.6808 58.3356 28.2309 55.378 27.8539 52.1595C27.7959 51.9275 27.7959 51.6956 27.7669 51.4636Z" fill="#17020C"/>
<circle cx="24.5766" cy="9.6841" r="8.79907" fill="#E85666"/>
<circle cx="59.1743" cy="9.68324" r="8.79907" fill="#E85666"/>
</svg>
