<svg width="20" height="20" viewBox="0 0 20 20" fill="none" xmlns="http://www.w3.org/2000/svg">
<g clip-path="url(#clip0_12748_14083)">
<path d="M10.7159 1.42236C5.60311 1.42236 1.43359 5.59473 1.43359 10.711C1.43359 14.9928 4.33175 18.5906 8.26886 19.6713V12.5168C7.38028 12.2295 6.73776 11.3266 6.73776 10.2733V6.71648C6.73776 6.45656 6.92915 6.25136 7.16155 6.25136C7.39395 6.25136 7.58534 6.45656 7.58534 6.71648V9.64398H8.46025V6.71648C8.46025 6.45656 8.65164 6.25136 8.88404 6.25136C9.11644 6.25136 9.30782 6.45656 9.30782 6.71648V9.64398H10.1827V6.86696C10.1827 6.60704 10.3741 6.40184 10.6065 6.40184C10.8389 6.40184 11.0303 6.60704 11.0303 6.86696V10.2596C11.0303 10.9025 10.7979 11.4908 10.4015 11.9148C10.1554 12.1884 9.84098 12.3936 9.49921 12.5031V19.9176C9.89566 19.9723 10.3058 19.9997 10.7296 19.9997C11.3994 19.9997 12.0556 19.9313 12.6844 19.7945V6.62072C12.6844 6.26504 13.0946 6.10088 13.2996 6.37448L13.532 6.68912C13.8875 7.16792 14.3523 7.87927 14.7077 8.83686C15.1725 10.0544 15.2408 11.053 15.2545 11.2719C15.2955 12.0243 15.3365 12.5715 15.0495 13.2007C14.7077 13.9942 14.0925 14.3909 13.7918 14.5551V19.4661C17.4008 18.1939 19.9982 14.7466 19.9982 10.6973C19.9982 5.59473 15.8423 1.42236 10.7159 1.42236Z" fill="#E85666"/>
<path d="M0.820312 6.10124C1.85927 3.65254 3.86884 1.72367 6.38422 0.820801L0.820312 6.10124Z" fill="#4E0B2B"/>
<path d="M0.820312 6.10124C1.85927 3.65254 3.86884 1.72367 6.38422 0.820801" stroke="#4E0B2B" stroke-width="2" stroke-miterlimit="10" stroke-linecap="round"/>
</g>
<defs>
<clipPath id="clip0_12748_14083">
<rect width="20" height="20" fill="white"/>
</clipPath>
</defs>
</svg>
