<svg width="359" height="366" viewBox="0 0 359 366" fill="none" xmlns="http://www.w3.org/2000/svg">
<path d="M400.091 228.288C419.413 270.903 423.224 318.446 410.686 360.459C398.149 402.471 370.29 435.512 333.237 452.311C296.184 469.111 252.974 468.294 213.111 450.04C173.249 431.786 139.999 397.59 120.677 354.975L260.384 291.631L400.091 228.288Z" fill="#06c167"/>
<g clip-path="url(#clip0_12737_6828)">
<path d="M154.379 129.786C159.587 127.487 165.677 129.95 168.052 135.103L177.138 155.258C179.513 160.411 177.063 166.394 171.855 168.694C166.646 170.993 160.556 168.53 158.181 163.377L149.138 143.059C146.763 137.906 149.213 131.923 154.379 129.786Z" fill="#06c167"/>
<path d="M168.3 74.503L168.675 74.4266C173.841 72.2904 179.807 74.5471 182.059 79.4934L205.511 131.467C207.72 136.577 205.479 142.441 200.479 144.62L200.062 144.86C194.896 146.996 188.929 144.739 186.678 139.793L163.059 87.7756C160.851 82.6662 163.092 76.8024 168.3 74.503Z" fill="#06c167"/>
<path d="M219.129 101.731C224.337 99.4316 230.428 101.895 232.802 107.048L241.888 127.202C244.263 132.355 241.813 138.339 236.605 140.638C231.396 142.937 225.306 140.474 222.932 135.321L213.846 115.167C211.679 109.894 213.963 103.867 219.129 101.731Z" fill="#06c167"/>
<path d="M201.315 161.117C130.601 193.179 97.698 274.546 126.065 344.807L389.276 225.467C355.005 158.128 272.028 129.055 201.315 161.117ZM266.172 203.554C268.248 209.233 268.073 215.443 265.39 221.072L248.61 256.633L247.099 260.996L246.593 260.981L246.272 261.371L241.695 259.523L204.188 248.822C192.092 245.234 185.156 232.685 188.841 220.471L189.529 218.688C193.214 206.474 206.078 199.661 218.381 203.155L220.979 203.938L222.102 201.467C227.581 189.911 241.275 184.928 252.798 190.002L254.592 190.659C259.837 193.431 264.096 197.875 266.172 203.554Z" fill="#4E0B2B"/>
<path d="M255.456 207.428C256.541 210.369 256.499 213.575 255.054 216.437L240.727 246.963L240.129 246.743L239.9 247.338L207.292 238.093C200.991 236.291 197.534 229.767 199.526 223.714L200.213 221.931C202.113 215.676 208.752 212.175 214.846 214.071L226.942 217.659L232.307 206.399C233.751 203.538 235.978 201.302 238.965 200.193C241.952 199.084 244.986 199.179 248.068 200.479L249.862 201.137C252.346 202.217 254.464 204.69 255.456 207.428Z" fill="#4E0B2B"/>
<path d="M428.1 245.132L433.633 257.335L120.592 399.269L115.059 387.066C111.001 378.117 112.987 367.653 119.576 360.743C121.596 358.601 124.214 356.678 127.108 355.366L396.109 233.4C399.003 232.088 402.175 231.385 405.117 231.277C414.863 230.782 423.95 235.979 428.1 245.132Z" fill="#4E0B2B"/>
</g>
<defs>
<clipPath id="clip0_12737_6828">
<rect width="343.715" height="303.075" fill="white" transform="translate(0.460938 134.316) rotate(-24.3897)"/>
</clipPath>
</defs>
</svg>
