<svg width="723" height="723" viewBox="0 0 723 723" fill="none" xmlns="http://www.w3.org/2000/svg">
<rect width="723" height="723" fill="#E85666"/>
<path fill-rule="evenodd" clip-rule="evenodd" d="M80.1928 336.453C80.1893 337.045 80.1875 337.638 80.1875 338.231C80.1875 498.266 209.921 627.999 369.956 627.999C529.99 627.999 659.724 498.266 659.724 338.231C659.724 337.638 659.722 337.045 659.718 336.453H80.1928Z" fill="white"/>
<path fill-rule="evenodd" clip-rule="evenodd" d="M368.174 274.364C368.142 274.07 368.109 273.776 368.075 273.482C358.889 194.263 287.222 137.489 208.003 146.674C128.783 155.86 72.0088 227.527 81.1944 306.746C81.2285 307.04 81.2634 307.334 81.2992 307.627L368.174 274.364Z" fill="white"/>
<path fill-rule="evenodd" clip-rule="evenodd" d="M653.144 241.321C653.112 241.027 653.078 240.734 653.044 240.44C643.859 161.22 572.192 104.446 492.972 113.632C413.753 122.817 356.979 194.484 366.164 273.704C366.198 273.998 366.233 274.291 366.269 274.584L653.144 241.321Z" fill="white"/>
</svg>
