<svg width="639" height="268" viewBox="0 0 639 268" fill="none" xmlns="http://www.w3.org/2000/svg">
<path d="M91.698 100.435C72.3144 46.7024 14.4676 53.4531 -13.9463 123.783C-14.0904 106.521 -13.4107 89.0068 -11.9013 71.5668C28.111 6.80474 89.856 27.751 101.165 87.2917C99.4415 90.8185 96.3082 97.6911 91.7005 100.434L91.698 100.435Z" fill="#580E31"/>
<path d="M97.652 83.2012C96.8523 84.8374 94.5277 87.6879 92.8368 88.7338C89.0055 80.6662 84.2277 77.0322 81.1896 77.2105C61.0465 52.5439 27.5863 56.3148 2.27651 89.6095C1.04933 86.975 -3.1295 88.7063 -8.33704 96.2398C-7.97815 90.1945 -7.51913 84.1488 -6.95547 78.1122C-0.926154 67.322 4.88222 58.0114 8.01547 51.0771C38.6062 22.8325 75.055 28.3247 93.5266 65.5351C93.2423 69.3863 95.1061 73.4117 97.652 83.2012Z" fill="#F3AD85" fill-opacity="0.42"/>
<path d="M89.3613 73.9651C88.267 74.8534 85.0358 71.6756 81.6613 67.7981C78.3019 63.8942 76.159 60.1814 77.3239 58.5591C78.4726 56.9581 82.4848 58.6192 85.7791 63.2585C89.084 67.8751 90.4435 73.1051 89.3618 73.9676L89.3613 73.9651Z" fill="#580E31"/>
<path d="M17.2223 58.7909C16.4956 62.0355 12.2693 67.4968 7.94142 72.039C3.61228 76.5506 0.619416 78.1787 1.0465 74.606C1.47133 71.0595 5.43178 63.8784 10.0684 59.6958C14.6999 55.4885 17.9581 55.5778 17.2223 58.7909Z" fill="#580E31"/>
<path d="M70.0534 53.1543C67.0199 57.7685 56.1095 57.7836 44.4264 59.6013C32.8306 61.1723 24.7623 61.1784 26.8714 52.8056C28.8761 44.5855 41.7717 33.4334 54.4432 35.5947C67.0777 37.6404 73.1103 48.7511 70.0553 53.1513L70.0534 53.1543Z" fill="#580E31"/>
<path d="M58.0522 49.4038C58.4172 45.4099 40.1694 45.7695 47.5624 42.3871C56.533 40.8057 53.4734 44.8755 56.9772 45.638C63.2742 46.2553 58.3618 40.7791 54.0202 40.3607C54.3251 39.7037 54.6306 39.0491 54.9396 38.399C53.8298 38.2141 52.7114 38.0746 51.5913 37.9637C51.2904 38.6404 50.9876 39.3201 50.6883 40.0042C42.7928 39.4091 36.8144 46.8437 43.6296 47.4327C46.2365 48.0456 53.6782 47.9671 52.9286 50.6204C51.8099 52.6493 44.5536 53.0257 43.2031 51.686C42.6813 51.2655 42.6602 50.1781 41.9257 49.8584C40.8742 49.2631 38.1089 50.479 37.8158 51.6371C37.173 54.2116 40.5998 54.9003 44.6798 54.6796C44.3987 55.4267 44.1211 56.1782 43.8435 56.9297C44.9075 56.8082 45.9644 56.7267 47.0124 56.701C47.2971 55.9712 47.5822 55.2438 47.8709 54.5208C53.6228 54.3345 59.1537 52.6066 58.0473 49.4049L58.0522 49.4038Z" fill="#F3AD85" fill-opacity="0.42"/>
<path d="M165.253 -21.914C138.526 -52.9382 126.297 15.6768 100.287 -9.63872C96.0636 -26.421 92.7208 -39.5518 90.8548 -46.8759C98.3555 -38.0481 105.308 -35.9168 112.607 -39.4671C119.035 -42.5792 124.962 -49.6125 130.893 -55.2675C139.812 -63.7789 148.986 -69.2255 159.957 -57.9525C160.22 -56.215 162.443 -41.4941 165.254 -21.9142L165.253 -21.914Z" fill="#580E31"/>
<path d="M333.585 3.39959C331.536 -13.055 330.126 -29.7865 326.738 -45.9338C323.22 -40.0678 319.402 -34.3266 315.28 -28.7098C311.103 -28.4331 306.937 -28.2561 302.781 -28.1788C306.149 -17.1963 307.654 -7.78851 308.41 3.75613C313.623 7.7388 329.235 12.5219 333.587 3.39907L333.585 3.39959Z" fill="#580E31"/>
<path d="M324.14 1.69144C329.527 1.12138 332.377 1.63221 332.887 -2.50247C330.956 -15.074 330.815 -28.427 327.824 -40.734C322.481 -39.0658 322.847 -33.377 319.761 -28.1019C318.615 -23.1359 311.864 -22.7029 310.063 -21.0612C310.531 -19.0855 312.143 -12.0171 312.301 -6.80907C314.452 -6.03713 320.572 -3.67176 324.138 1.69195L324.14 1.69144Z" fill="#F3AD85" fill-opacity="0.42"/>
<path d="M326.307 -46.8563C316.407 -62.9158 301.749 -70.8136 278.853 -67.1528C255.117 -63.3579 243.214 -56.3152 229.997 -37.8306C226.791 -15.834 228.687 3.11868 231.804 24.4401C243.514 7.68266 256.627 -7.7769 279.154 -13.1824C302.853 -18.8706 321.63 -12.9306 333.545 3.41564C331.689 -12.1339 332.819 -32.6163 326.307 -46.8563Z" fill="#580E31"/>
<path d="M327.144 -44.8454C309.382 -70.748 274.547 -71.1712 243.912 -48.9829C240.97 -40.1925 239.682 -36.4763 233.786 -28.6966C232.625 -20.5933 233.231 -13.8987 234.224 -6.01301C240.355 -9.374 246.485 -5.48749 248.664 -1.3966C276.394 -20.7934 313.493 -24.806 333.053 -1.65694C331.973 -15.246 332.255 -32.8928 327.144 -44.8454Z" fill="#F3AD85" fill-opacity="0.42"/>
<path d="M55.9156 211.182C125.472 214.744 171.603 163.047 173.275 102.921C179.226 108.964 195.138 125.118 212.997 142.94C211.433 150.555 208.618 160.924 203.011 172.089C197.367 183.308 187.444 198.14 170.707 209.379C140.307 229.794 106.931 223.986 100.181 222.178C91.3502 219.733 76.0309 215.641 55.9175 211.18L55.9156 211.182Z" fill="#580E31"/>
<path d="M78.885 214.406C85.3625 216.221 91.7457 218.097 98.0731 220.047C106.246 220.54 115.322 221.101 118.841 222.594C157.411 221.24 188.742 196.234 202.599 160.292C199.226 156.878 198.658 148.408 200.314 140.853C194.447 134.9 188.661 129.014 182.915 123.159C181.714 131.087 177.183 134.487 173.937 131.192C163.688 171.768 132.036 204.089 87.8495 210.975C91.4653 212.271 87.7428 214.412 78.8871 214.401L78.885 214.406Z" fill="#F3AD85" fill-opacity="0.42"/>
<path d="M137.541 206.757C130.963 202.903 135.67 194.615 145.538 185.17C155.398 175.795 166.221 170.862 172.542 176.833C178.827 182.692 177.821 195.63 168.115 202.889C158.524 210.217 144.034 210.561 137.543 206.755L137.541 206.757Z" fill="#580E31"/>
<path d="M146.486 200.344C151.077 202.03 166.789 187.079 164.635 194.53C159.1 202.343 156.444 198.244 152.567 200.817C147.461 205.637 158.292 203.723 161.974 200.521C162.629 201.036 163.284 201.55 163.939 202.068C164.978 201.275 166.004 200.46 167.024 199.636C166.37 199.104 165.716 198.572 165.062 198.04C172.214 192.168 169.761 183.868 161.927 189.186C158.35 191.076 151.818 197.26 148.927 195.685C146.913 194.068 153.709 187.681 156.971 187.07C158.059 186.797 159.451 187.226 160.623 186.749C162.448 186.127 163.945 183.306 162.894 182.545C160.534 180.853 155.659 183.528 151.561 187.171C150.894 186.647 150.224 186.123 149.557 185.603C148.539 186.585 147.5 187.547 146.425 188.477C147.095 188.982 147.766 189.488 148.436 189.996C142.664 195.084 141.036 200.177 146.484 200.342L146.486 200.344Z" fill="#F3AD85" fill-opacity="0.42"/>
<path d="M105.599 216.376C103.119 215.438 105.644 214.094 110.98 212.784C116.31 211.484 122.225 210.941 124.491 212.145C126.762 213.34 124.65 215.601 119.528 216.632C114.407 217.675 108.074 217.302 105.597 216.375L105.599 216.376Z" fill="#580E31"/>
<path d="M187.528 147.527C185.227 145.192 182.141 147.506 180.113 152.424C178.101 157.357 177.831 162.815 180.01 164.919C182.161 167.007 186.01 165.147 188.149 160.448C190.311 155.762 189.816 149.851 187.53 147.529L187.528 147.527Z" fill="#580E31"/>
<path d="M456.197 147.642C397.741 109.779 331.942 131.484 300.431 182.719C298.299 174.51 292.596 152.564 286.039 128.201C291.202 122.388 298.824 114.816 309.263 107.95C319.76 101.056 335.769 93.1728 355.884 91.8077C392.418 89.3282 418.418 111.045 423.361 115.986C429.786 122.519 441.006 133.723 456.195 147.643L456.197 147.642Z" fill="#580E31"/>
<path d="M437.914 133.364C433.212 128.553 428.622 123.737 424.117 118.885C417.285 114.371 409.705 109.348 407.405 106.295C373.326 88.1826 333.689 94.1729 303.717 118.371C304.931 123.014 301.188 130.633 295.977 136.349C298.081 144.437 300.149 152.428 302.197 160.371C307.202 154.105 312.825 153.427 313.989 157.904C343.153 127.888 386.725 115.724 428.435 131.853C425.951 128.923 430.246 128.93 437.909 133.368L437.914 133.364Z" fill="#F3AD85" fill-opacity="0.42"/>
<path d="M383.3 110.662C387.07 117.288 378.85 122.112 365.581 125.357C352.355 128.547 340.515 127.407 338.026 119.075C335.513 110.859 342.853 100.158 354.888 98.724C366.858 97.1728 379.579 104.12 383.298 110.662L383.3 110.662Z" fill="#580E31"/>
<path d="M372.346 111.744C369.213 107.988 348.131 113.08 353.721 107.704C362.422 103.705 362.672 108.583 367.316 108.293C374.149 106.672 363.811 102.914 359.021 103.846C358.711 103.073 358.401 102.3 358.093 101.524C356.797 101.691 355.501 101.884 354.205 102.087C354.506 102.875 354.806 103.663 355.106 104.451C345.977 105.96 343.951 114.374 353.395 113.686C357.437 113.838 366.186 111.748 367.902 114.558C368.838 116.966 359.759 119.099 356.629 117.996C355.55 117.689 354.559 116.621 353.305 116.449C351.414 116.075 348.707 117.769 349.236 118.953C350.435 121.599 355.994 121.72 361.364 120.614C361.68 121.401 361.998 122.19 362.316 122.975C363.688 122.632 365.07 122.319 366.465 122.051C366.137 121.279 365.809 120.505 365.483 119.73C373.025 118.21 376.983 114.613 372.347 111.746L372.346 111.744Z" fill="#F3AD85" fill-opacity="0.42"/>
<path d="M415.77 118.3C417.449 120.353 414.589 120.255 409.314 118.721C404.048 117.182 398.653 114.694 397.293 112.519C395.924 110.348 398.883 109.446 403.834 111.115C408.791 112.772 414.089 116.261 415.77 118.303L415.77 118.3Z" fill="#580E31"/>
<path d="M310.386 136.962C311.212 140.135 315.041 139.673 319.257 136.429C323.465 133.163 326.429 128.571 325.593 125.659C324.774 122.775 320.511 122.461 316.309 125.462C312.094 128.439 309.567 133.806 310.386 136.959L310.386 136.962Z" fill="#580E31"/>
<path d="M523.089 56.3844C503.705 2.65214 445.858 9.40278 417.444 79.7329C417.3 62.4703 417.98 44.9566 419.489 27.5165C459.502 -37.2456 521.247 -16.2993 532.556 43.2414C530.832 46.7682 527.699 53.6408 523.091 56.3839L523.089 56.3844Z" fill="#580E31"/>
<path d="M529.043 39.1509C528.243 40.7871 525.918 43.6376 524.227 44.6835C520.396 36.6159 515.618 32.982 512.58 33.1602C492.437 8.49364 458.977 12.2645 433.667 45.5592C432.44 42.9247 428.261 44.656 423.054 52.1895C423.412 46.1442 423.871 40.0985 424.435 34.0619C430.464 23.2717 436.273 13.9611 439.406 7.02684C469.997 -21.2178 506.446 -15.7255 524.917 21.4848C524.633 25.336 526.497 29.3614 529.043 39.1509Z" fill="#F3AD85" fill-opacity="0.42"/>
<path d="M520.752 29.9148C519.658 30.8031 516.426 27.6253 513.052 23.7478C509.693 19.8439 507.55 16.1311 508.714 14.5088C509.863 12.9078 513.875 14.5689 517.17 19.2082C520.475 23.8248 521.834 29.0548 520.752 29.9173L520.752 29.9148Z" fill="#580E31"/>
<path d="M448.613 14.7406C447.886 17.9852 443.66 23.4465 439.332 27.9887C435.003 32.5003 432.01 34.1284 432.437 30.5557C432.862 27.0092 436.822 19.8281 441.459 15.6455C446.091 11.4383 449.349 11.5275 448.613 14.7406Z" fill="#580E31"/>
<path d="M501.444 9.10402C498.41 13.7182 487.5 13.7333 475.817 15.551C464.221 17.122 456.153 17.1281 458.262 8.75527C460.267 0.535234 473.162 -10.6169 485.834 -8.45556C498.468 -6.40985 504.501 4.70078 501.446 9.10104L501.444 9.10402Z" fill="#580E31"/>
<path d="M489.443 5.35355C489.808 1.35964 471.56 1.71925 478.953 -1.66322C487.924 -3.24463 484.864 0.825178 488.368 1.58774C494.665 2.20505 489.752 -3.27116 485.411 -3.6896C485.716 -4.34661 486.021 -5.00115 486.33 -5.65129C485.22 -5.83623 484.102 -5.97572 482.982 -6.08659C482.681 -5.40988 482.378 -4.7302 482.079 -4.04611C474.183 -4.64121 468.205 2.79339 475.02 3.38237C477.627 3.99528 485.069 3.91678 484.319 6.57014C483.2 8.59903 475.944 8.97545 474.594 7.63574C474.072 7.21523 474.051 6.12776 473.316 5.80811C472.265 5.2128 469.499 6.4287 469.206 7.58676C468.564 10.1613 471.99 10.85 476.07 10.6293C475.789 11.3764 475.512 12.1279 475.234 12.8794C476.298 12.7579 477.355 12.6764 478.403 12.6507C478.688 11.9209 478.973 11.1935 479.262 10.4705C485.013 10.2842 490.544 8.55633 489.438 5.35457L489.443 5.35355Z" fill="#F3AD85" fill-opacity="0.42"/>
<path d="M487.306 167.132C556.863 170.693 602.993 118.997 604.666 58.8708C610.616 64.9137 626.528 81.0681 644.388 98.8893C642.824 106.505 640.008 116.873 634.401 128.039C628.758 139.257 618.834 154.089 602.098 165.329C571.697 185.743 538.322 179.936 531.571 178.128C522.741 175.683 507.421 171.591 487.308 167.13L487.306 167.132Z" fill="#580E31"/>
<path d="M510.276 170.356C516.753 172.171 523.136 174.047 529.464 175.997C537.637 176.49 546.713 177.05 550.232 178.544C588.801 177.19 620.132 152.184 633.99 116.242C630.616 112.828 630.049 104.358 631.704 96.8025C625.838 90.8498 620.051 84.9639 614.306 79.1089C613.105 87.0372 608.574 90.4366 605.328 87.1416C595.079 127.717 563.426 160.038 519.24 166.925C522.856 168.221 519.133 170.362 510.278 170.35L510.276 170.356Z" fill="#F3AD85" fill-opacity="0.42"/>
<path d="M568.931 162.707C562.353 158.853 567.06 150.565 576.929 141.12C586.788 131.744 597.612 126.812 603.933 132.783C610.218 138.642 609.212 151.579 599.506 158.839C589.915 166.167 575.425 166.511 568.933 162.705L568.931 162.707Z" fill="#580E31"/>
<path d="M577.876 156.293C582.468 157.979 598.18 143.029 596.026 150.479C590.491 158.293 587.834 154.194 583.958 156.767C578.851 161.587 589.682 159.673 593.365 156.471C594.02 156.985 594.675 157.5 595.33 158.018C596.368 157.225 597.394 156.41 598.415 155.586C597.761 155.054 597.107 154.522 596.453 153.989C603.605 148.118 601.152 139.818 593.317 145.136C589.741 147.025 583.209 153.21 580.318 151.634C578.304 150.017 585.1 143.63 588.362 143.02C589.45 142.746 590.841 143.176 592.014 142.699C593.839 142.077 595.336 139.256 594.285 138.495C591.924 136.803 587.049 139.478 582.952 143.121C582.285 142.597 581.614 142.073 580.947 141.552C579.93 142.535 578.891 143.497 577.816 144.427C578.486 144.931 579.157 145.438 579.827 145.946C574.055 151.033 572.426 156.127 577.875 156.292L577.876 156.293Z" fill="#F3AD85" fill-opacity="0.42"/>
<path d="M536.99 172.326C534.51 171.388 537.035 170.043 542.37 168.734C547.7 167.434 553.616 166.891 555.882 168.095C558.153 169.29 556.041 171.551 550.919 172.581C545.798 173.625 539.465 173.251 536.988 172.324L536.99 172.326Z" fill="#580E31"/>
<path d="M618.919 103.477C616.617 101.142 613.532 103.456 611.503 108.373C609.492 113.306 609.221 118.765 611.4 120.869C613.552 122.956 617.401 121.097 619.54 116.397C621.701 111.712 621.207 105.8 618.921 103.479L618.919 103.477Z" fill="#580E31"/>
</svg>
