<svg width="1493" height="279" viewBox="0 0 1493 279" fill="none" xmlns="http://www.w3.org/2000/svg">
<path d="M87.3414 38.6C73.5414 38.6 72.9414 39.2 72.9414 54.2V62.6H116.141V101H72.9414V221H24.9414V101H0.941406V62.6H24.9414V48.8C24.9414 10.7 39.9414 0.199982 71.7414 0.199982H116.141V38.6H87.3414ZM202.534 57.8C254.734 57.8 286.534 95.6 286.534 141.8C286.534 188 254.734 225.8 202.534 225.8C150.334 225.8 118.534 188 118.534 141.8C118.534 95.6 150.334 57.8 202.534 57.8ZM202.534 185C226.234 185 238.534 165.2 238.534 141.8C238.534 118.4 226.234 98.6 202.534 98.6C178.834 98.6 166.534 118.4 166.534 141.8C166.534 165.2 178.834 185 202.534 185ZM381.245 57.8C433.445 57.8 465.245 95.6 465.245 141.8C465.245 188 433.445 225.8 381.245 225.8C329.045 225.8 297.245 188 297.245 141.8C297.245 95.6 329.045 57.8 381.245 57.8ZM381.245 185C404.945 185 417.245 165.2 417.245 141.8C417.245 118.4 404.945 98.6 381.245 98.6C357.545 98.6 345.245 118.4 345.245 141.8C345.245 165.2 357.545 185 381.245 185ZM597.128 4.99999H645.128V221H597.128V215.3C597.128 210.8 598.628 206.9 600.728 202.4C603.128 197.3 605.828 192.2 601.328 190.7C598.328 189.8 596.828 193.1 595.928 194.9C586.328 214.1 569.828 225.8 546.128 225.8C502.628 225.8 477.128 188.6 477.128 141.8C477.128 95 502.628 57.8 546.128 57.8C570.128 57.8 585.728 70.4 595.928 88.4C597.128 90.5 599.228 94.7 602.828 92.9C606.728 91.1 602.828 85.7 600.428 80.6C598.328 76.4 597.128 71.9 597.128 67.4V4.99999ZM559.928 185C582.728 185 597.128 164.9 597.128 141.8C597.128 118.7 582.728 98.6 559.928 98.6C535.928 98.6 525.128 118.7 525.128 141.8C525.128 164.9 535.928 185 559.928 185ZM669.135 167.6H697.335C697.635 179.3 707.235 198.2 737.235 198.2C766.635 198.2 774.735 186.5 774.735 176.6C774.735 162.8 761.835 158.6 726.735 155C686.535 150.8 673.935 132.5 673.935 112.4C673.935 89.3 694.935 65 736.935 65C775.635 65 796.635 87.2 798.735 116H770.535C769.635 106.1 763.035 90.2 736.035 90.2C711.735 90.2 702.735 100.1 702.735 110.3C702.735 120.2 708.435 126.8 741.735 130.4C783.135 134.9 803.535 146.9 803.535 172.1C803.535 203.3 778.035 223.4 736.035 223.4C694.335 223.4 670.635 201.5 669.135 167.6ZM822.651 178.1C822.651 143 848.451 132.2 877.851 130.1C905.451 128 933.351 131.3 933.051 115.4C932.751 102.8 925.551 90.2 894.051 90.2C867.051 90.2 857.751 100.4 855.651 115.4H827.451C832.851 80.3 859.851 65 895.251 65C929.751 65 961.851 77 961.851 133.4V221H933.051V206.3C933.051 200.6 933.651 196.1 936.351 188.3C936.951 185.6 938.151 183.2 936.051 182.3C933.651 181.4 933.051 183.8 932.451 185.3C923.751 208.1 903.351 223.4 875.451 223.4C846.351 223.4 822.651 204.2 822.651 178.1ZM933.051 138.2C923.751 149.6 903.051 149.9 879.651 153.2C861.051 155.9 851.451 162.5 851.451 176.6C851.451 188.9 861.651 200.3 886.551 197C909.951 194 932.751 176.9 933.051 138.2ZM1056.58 30.2C1039.78 30.2 1036.18 35.6 1036.18 53V67.4H1079.38V92.6H1036.18V221H1007.38V92.6H983.378V67.4H1007.38V50C1007.38 16.7 1022.38 4.99999 1054.18 4.99999H1079.38V30.2H1056.58ZM1232.96 142.1C1232.96 146.3 1232.66 149.3 1232.06 152.6H1117.46C1119.56 177.2 1136.36 197 1164.26 197C1184.96 197 1195.16 186.8 1200.56 169.1H1230.26C1223.96 197.6 1202.96 223.4 1163.66 223.4C1115.36 223.4 1088.96 187.7 1088.96 144.2C1088.96 98 1118.96 65 1163.06 65C1197.26 65 1232.96 87.5 1232.96 142.1ZM1118.96 128.6H1204.16C1202.36 106.1 1187.96 90.2 1164.56 90.2C1135.76 90.2 1123.16 107.9 1118.96 128.6ZM1338.48 92.6H1295.28V173C1295.28 190.4 1298.88 195.8 1315.68 195.8H1338.48V221H1313.28C1281.48 221 1266.48 209.3 1266.48 176V92.6H1237.68V67.4H1266.48V24.2H1295.28V67.4H1338.48V92.6ZM1352.99 67.4H1384.19L1425.59 180.8C1427.69 186.2 1427.99 191.9 1427.99 197C1427.99 198.8 1427.99 200.9 1430.39 200.9C1432.79 200.9 1432.79 198.8 1432.79 197C1432.79 191.9 1433.69 186.2 1435.49 180.8L1475.39 67.4H1506.59L1439.99 239.3C1429.19 267.5 1414.19 278.6 1386.59 278.6H1366.79V253.4H1380.59C1403.39 253.4 1407.29 248.3 1411.79 237.2L1415.99 227L1352.99 67.4Z" fill="#FEC5CB"/>
</svg>
