<svg width="75" height="45" viewBox="0 0 75 45" fill="none" xmlns="http://www.w3.org/2000/svg">
<path fill-rule="evenodd" clip-rule="evenodd" d="M23.1627 0.246665C24.0507 0.756561 24.3572 1.88983 23.8471 2.77797C23.6613 3.10153 23.3489 3.76161 23.1149 4.54852C22.8768 5.34896 22.7647 6.1329 22.8418 6.76202C22.8867 7.12637 22.9757 7.31994 23.0535 7.44843C23.1514 7.60993 23.2773 7.75029 23.5597 8.04381C23.5697 8.05437 23.5801 8.06513 23.5907 8.07607C23.8454 8.34066 24.2359 8.74635 24.5636 9.28665C24.9249 9.88277 25.1788 10.581 25.2848 11.4436C25.4486 12.7775 25.1984 14.1138 24.8856 15.166C24.5686 16.232 24.1417 17.1569 23.8145 17.7266C23.3046 18.6146 22.1711 18.9211 21.2832 18.411C20.3952 17.9011 20.0887 16.7678 20.5988 15.8797C20.7846 15.5561 21.097 14.8959 21.331 14.1092C21.5691 13.3087 21.6813 12.5248 21.6041 11.8957C21.5593 11.5313 21.4703 11.3377 21.3924 11.2092C21.2945 11.0477 21.1686 10.9074 20.8862 10.6139C20.8762 10.6033 20.8658 10.5925 20.8552 10.5816C20.6005 10.317 20.21 9.91132 19.8824 9.37083C19.521 8.7749 19.2671 8.07663 19.1611 7.21407C18.9974 5.88018 19.2475 4.54388 19.5603 3.49164C19.8773 2.42568 20.3042 1.50064 20.6314 0.931038C21.1413 0.0430772 22.2748 -0.263416 23.1627 0.246665Z" fill="white"/>
<path fill-rule="evenodd" clip-rule="evenodd" d="M37.9987 0.246665C38.8866 0.756561 39.1931 1.88983 38.6831 2.77797C38.4973 3.10153 38.1848 3.76161 37.9508 4.54852C37.7128 5.34896 37.6006 6.1329 37.6777 6.76202C37.7226 7.12637 37.8116 7.31994 37.8895 7.44843C37.9874 7.60993 38.1133 7.75029 38.3957 8.04381C38.4057 8.05437 38.4161 8.06513 38.4266 8.07607C38.6814 8.34066 39.0719 8.74635 39.3995 9.28666C39.7609 9.88277 40.0147 10.581 40.1208 11.4436C40.2845 12.7775 40.0344 14.1138 39.7216 15.166C39.4045 16.232 38.9777 17.1569 38.6504 17.7266C38.1405 18.6146 37.0071 18.9211 36.1191 18.411C35.2312 17.9011 34.9247 16.7677 35.4347 15.8797C35.6205 15.5561 35.933 14.8959 36.167 14.1092C36.405 13.3087 36.5172 12.5248 36.4401 11.8957C36.3952 11.5313 36.3062 11.3377 36.2283 11.2092C36.1304 11.0477 36.0045 10.9074 35.7221 10.6139C35.7121 10.6033 35.7017 10.5925 35.6912 10.5816C35.4364 10.317 35.0459 9.91132 34.7183 9.37083C34.3569 8.7749 34.1031 8.07663 33.997 7.21407C33.8333 5.88018 34.0834 4.54388 34.3962 3.49164C34.7133 2.42568 35.1401 1.50064 35.4674 0.931038C35.9773 0.0430772 37.1107 -0.263416 37.9987 0.246665Z" fill="white"/>
<path fill-rule="evenodd" clip-rule="evenodd" d="M52.8268 0.246665C53.7148 0.756561 54.0213 1.88983 53.5112 2.77797C53.3254 3.10153 53.013 3.76161 52.779 4.54852C52.5409 5.34896 52.4287 6.1329 52.5059 6.76202C52.5507 7.12637 52.6397 7.31994 52.7176 7.44843C52.8155 7.60993 52.9414 7.75029 53.2238 8.04381C53.2338 8.05437 53.2442 8.06513 53.2548 8.07607C53.5095 8.34066 53.9 8.74635 54.2276 9.28665C54.589 9.88277 54.8428 10.581 54.9489 11.4436C55.1126 12.7775 54.8625 14.1138 54.5497 15.166C54.2326 16.232 53.8058 17.1569 53.4785 17.7266C52.9687 18.6146 51.8352 18.9211 50.9472 18.411C50.0593 17.9011 49.7528 16.7678 50.2629 15.8797C50.4487 15.5561 50.7611 14.8959 50.9951 14.1092C51.2332 13.3087 51.3453 12.5248 51.2682 11.8957C51.2233 11.5313 51.1343 11.3377 51.0565 11.2092C50.9586 11.0477 50.8327 10.9074 50.5503 10.6139C50.5403 10.6033 50.5299 10.5925 50.5193 10.5816C50.2645 10.317 49.874 9.91132 49.5464 9.37083C49.185 8.7749 48.9312 8.07663 48.8251 7.21407C48.6614 5.88018 48.9116 4.54388 49.2244 3.49164C49.5414 2.42568 49.9682 1.50064 50.2955 0.931038C50.8054 0.0430772 51.9389 -0.263416 52.8268 0.246665Z" fill="white"/>
<path d="M1.85417 26.0156C0.830147 26.0156 0 26.8457 0 27.8698C0 28.8937 0.830147 29.724 1.85417 29.724H7.41667C7.41667 37.916 14.0577 44.5573 22.25 44.5573H51.9167C60.1089 44.5573 66.75 37.916 66.75 29.724H72.3125C73.3366 29.724 74.1667 28.8937 74.1667 27.8698C74.1667 26.8457 73.3366 26.0156 72.3125 26.0156H1.85417Z" fill="white"/>
</svg>
