<svg width="112" height="112" viewBox="0 0 112 112" fill="none" xmlns="http://www.w3.org/2000/svg">
<rect width="111.394" height="111.394" rx="55.6969" fill="#EDFAE3"/>
<path d="M85.1665 52.9965V59.0048C85.1665 60.609 83.8832 61.9215 82.2498 61.9798H76.5332C73.3832 61.9798 70.4957 59.6757 70.2332 56.5257C70.0582 54.6882 70.7582 52.9673 71.9832 51.7715C73.0623 50.6632 74.5498 50.0215 76.1832 50.0215H82.2498C83.8832 50.0798 85.1665 51.3923 85.1665 52.9965Z" fill="#06C167"/>
<path d="M80.7043 66.3548H76.5335C70.9918 66.3548 66.3252 62.184 65.8585 56.8757C65.596 53.8423 66.7043 50.809 68.921 48.6507C70.7877 46.7256 73.3835 45.6465 76.1835 45.6465H80.7043C81.5502 45.6465 82.2502 44.9465 82.1627 44.1007C81.521 37.0132 76.8252 32.1715 69.8543 31.3548C69.1543 31.2382 68.4252 31.209 67.6668 31.209H41.4168C40.6002 31.209 39.8127 31.2673 39.0543 31.384C31.6168 32.3173 26.8335 37.859 26.8335 45.7923V66.209C26.8335 74.259 33.3668 80.7923 41.4168 80.7923H67.6668C75.8335 80.7923 81.4627 75.6882 82.1627 67.9007C82.2502 67.0548 81.5502 66.3548 80.7043 66.3548ZM58.9168 49.4382H41.4168C40.221 49.4382 39.2293 48.4465 39.2293 47.2507C39.2293 46.0548 40.221 45.0632 41.4168 45.0632H58.9168C60.1127 45.0632 61.1043 46.0548 61.1043 47.2507C61.1043 48.4465 60.1127 49.4382 58.9168 49.4382Z" fill="#06C167"/>
</svg>
