<svg width="112" height="112" viewBox="0 0 112 112" fill="none" xmlns="http://www.w3.org/2000/svg">
<rect width="111.394" height="111.394" rx="55.6969" fill="#EDFAE3"/>
<path d="M68.221 26.834H43.7793C33.1627 26.834 26.8335 33.1632 26.8335 43.7798V68.1923C26.8335 78.8382 33.1627 85.1673 43.7793 85.1673H68.1918C78.8085 85.1673 85.1377 78.8382 85.1377 68.2215V43.7798C85.1668 33.1632 78.8377 26.834 68.221 26.834ZM43.2543 73.9381C43.2543 75.134 42.2627 76.1256 41.0668 76.1256C39.871 76.1256 38.8793 75.134 38.8793 73.9381V67.9007C38.8793 66.7048 39.871 65.7132 41.0668 65.7132C42.2627 65.7132 43.2543 66.7048 43.2543 67.9007V73.9381ZM58.1877 73.9381C58.1877 75.134 57.196 76.1256 56.0002 76.1256C54.8043 76.1256 53.8127 75.134 53.8127 73.9381V61.834C53.8127 60.6381 54.8043 59.6465 56.0002 59.6465C57.196 59.6465 58.1877 60.6381 58.1877 61.834V73.9381ZM73.121 73.9381C73.121 75.134 72.1293 76.1256 70.9335 76.1256C69.7377 76.1256 68.746 75.134 68.746 73.9381V55.7965C68.746 54.6007 69.7377 53.609 70.9335 53.609C72.1293 53.609 73.121 54.6007 73.121 55.7965V73.9381ZM73.121 46.5798C73.121 47.7757 72.1293 48.7673 70.9335 48.7673C69.7377 48.7673 68.746 47.7757 68.746 46.5798V43.7507C61.3085 51.3923 52.0043 56.7881 41.5918 59.384C41.4168 59.4423 41.2418 59.4423 41.0668 59.4423C40.0752 59.4423 39.2002 58.7715 38.9377 57.7798C38.646 56.6131 39.346 55.4173 40.5418 55.1256C50.371 52.6756 59.121 47.5132 66.0627 40.2215H62.4168C61.221 40.2215 60.2293 39.2298 60.2293 38.034C60.2293 36.8382 61.221 35.8465 62.4168 35.8465H70.9627C71.0793 35.8465 71.1668 35.9048 71.2835 35.9048C71.4293 35.934 71.5752 35.934 71.721 35.9923C71.8668 36.0507 71.9835 36.1382 72.1293 36.2256C72.2168 36.284 72.3043 36.3132 72.3918 36.3715C72.421 36.4007 72.421 36.4298 72.4502 36.4298C72.5668 36.5465 72.6543 36.6631 72.7418 36.7798C72.8293 36.8965 72.9168 36.984 72.946 37.1007C73.0043 37.2173 73.0043 37.334 73.0335 37.4798C73.0627 37.6257 73.121 37.7715 73.121 37.9465C73.121 37.9756 73.1502 38.0048 73.1502 38.034V46.5798H73.121Z" fill="#06C16B"/>
</svg>
