<svg width="274" height="42" viewBox="0 0 274 42" fill="none" xmlns="http://www.w3.org/2000/svg">
<path fill-rule="evenodd" clip-rule="evenodd" d="M1.21135 18.5059C1.21107 18.5515 1.21094 18.5971 1.21094 18.6428C1.21094 30.9995 11.228 41.0166 23.5848 41.0166C35.9415 41.0166 45.9586 30.9995 45.9586 18.6428C45.9586 18.5971 45.9585 18.5515 45.9582 18.5059H1.21135Z" fill="#E85666"/>
<path fill-rule="evenodd" clip-rule="evenodd" d="M23.4451 13.711C23.4427 13.6889 23.4402 13.6668 23.4376 13.6447C22.7284 7.52794 17.1948 3.14426 11.078 3.85351C4.96122 4.56275 0.577542 10.0963 1.28679 16.2131C1.28935 16.2352 1.29197 16.2573 1.29466 16.2793L23.4451 13.711Z" fill="#E85666"/>
<path fill-rule="evenodd" clip-rule="evenodd" d="M45.4529 11.1602C45.4505 11.1381 45.448 11.116 45.4454 11.0939C44.7362 4.97716 39.2026 0.59348 33.0858 1.30272C26.969 2.01197 22.5854 7.54556 23.2946 13.6624C23.2972 13.6844 23.2998 13.7065 23.3025 13.7285L45.4529 11.1602Z" fill="#E85666"/>
<path d="M66.0953 14.4615C67.9806 14.4615 69.5325 15.0938 70.7511 16.3583C71.9926 17.6228 72.6134 19.3702 72.6134 21.6004V32.188H68.1645V22.1522C68.1645 21.0026 67.8541 20.1289 67.2334 19.5311C66.6126 18.9104 65.7849 18.6 64.7503 18.6C63.6007 18.6 62.681 18.9563 61.9913 19.6691C61.3016 20.3818 60.9567 21.4509 60.9567 22.8764V32.188H56.5078V8.04688H60.9567V16.8756C62.0373 15.2662 63.7501 14.4615 66.0953 14.4615ZM89.2069 30.0498C87.4365 31.7971 85.2753 32.6708 82.7232 32.6708C80.1712 32.6708 78.01 31.7971 76.2396 30.0498C74.4923 28.2794 73.6186 26.1182 73.6186 23.5661C73.6186 21.0141 74.4923 18.8644 76.2396 17.117C78.01 15.3467 80.1712 14.4615 82.7232 14.4615C85.2753 14.4615 87.4365 15.3467 89.2069 17.117C90.9772 18.8644 91.8624 21.0141 91.8624 23.5661C91.8624 26.1182 90.9772 28.2794 89.2069 30.0498ZM79.378 26.9804C80.2746 27.8771 81.3897 28.3254 82.7232 28.3254C84.0568 28.3254 85.1718 27.8771 86.0685 26.9804C86.9652 26.0837 87.4135 24.9456 87.4135 23.5661C87.4135 22.1867 86.9652 21.0486 86.0685 20.1519C85.1718 19.2552 84.0568 18.8069 82.7232 18.8069C81.3897 18.8069 80.2746 19.2552 79.378 20.1519C78.5043 21.0486 78.0675 22.1867 78.0675 23.5661C78.0675 24.9456 78.5043 26.0837 79.378 26.9804ZM112.167 14.4615C114.144 14.4615 115.719 15.1053 116.892 16.3928C118.087 17.6803 118.685 19.4047 118.685 21.5659V32.188H114.236V21.8763C114.236 20.8417 113.983 20.0369 113.477 19.4622C112.972 18.8874 112.259 18.6 111.339 18.6C110.328 18.6 109.534 18.9334 108.96 19.6001C108.408 20.2669 108.132 21.2325 108.132 22.497V32.188H103.683V21.8763C103.683 20.8417 103.43 20.0369 102.924 19.4622C102.419 18.8874 101.706 18.6 100.786 18.6C99.7975 18.6 99.0043 18.9334 98.4065 19.6001C97.8317 20.2669 97.5443 21.2325 97.5443 22.497V32.188H93.0953V14.9443H97.5443V16.7722C98.579 15.2317 100.177 14.4615 102.338 14.4615C104.453 14.4615 106.017 15.2892 107.028 16.9446C108.178 15.2892 109.891 14.4615 112.167 14.4615ZM124.326 25.394C124.923 27.5552 126.544 28.6358 129.188 28.6358C130.89 28.6358 132.177 28.061 133.051 26.9114L136.638 28.9806C134.936 31.4407 132.43 32.6708 129.119 32.6708C126.268 32.6708 123.981 31.8086 122.256 30.0842C120.532 28.3599 119.67 26.1872 119.67 23.5661C119.67 20.9681 120.521 18.8069 122.222 17.0825C123.923 15.3352 126.107 14.4615 128.774 14.4615C131.304 14.4615 133.384 15.3352 135.017 17.0825C136.672 18.8299 137.5 20.9911 137.5 23.5661C137.5 24.1409 137.442 24.7502 137.327 25.394H124.326ZM124.257 21.9452H133.051C132.798 20.7727 132.269 19.899 131.464 19.3242C130.683 18.7494 129.786 18.462 128.774 18.462C127.579 18.462 126.59 18.7724 125.809 19.3932C125.027 19.991 124.51 20.8417 124.257 21.9452ZM157.573 14.496C159.505 14.496 161.068 15.1283 162.264 16.3928C163.459 17.6343 164.057 19.3242 164.057 21.4624V32.188H161.056V21.5659C161.056 20.2324 160.712 19.1978 160.022 18.462C159.332 17.7263 158.412 17.3584 157.263 17.3584C155.975 17.3584 154.941 17.7953 154.159 18.669C153.4 19.5196 153.021 20.8302 153.021 22.6005V32.188H150.021V21.5659C150.021 20.2324 149.687 19.1978 149.02 18.462C148.377 17.7263 147.491 17.3584 146.365 17.3584C145.1 17.3584 144.043 17.7953 143.192 18.669C142.364 19.5426 141.951 20.8531 141.951 22.6005V32.188H138.95V14.9443H141.951V17.255C143.123 15.4157 144.836 14.496 147.089 14.496C149.411 14.496 151.101 15.4731 152.159 17.4274C153.354 15.4731 155.159 14.496 157.573 14.496ZM180.598 14.9443H183.599V32.188H180.598V29.2221C179.104 31.4982 176.931 32.6363 174.08 32.6363C171.666 32.6363 169.608 31.7626 167.907 30.0153C166.205 28.2449 165.355 26.0952 165.355 23.5661C165.355 21.0371 166.205 18.8989 167.907 17.1515C169.608 15.3812 171.666 14.496 174.08 14.496C176.931 14.496 179.104 15.6341 180.598 17.9102V14.9443ZM174.459 29.7394C176.207 29.7394 177.667 29.1531 178.839 27.9805C180.012 26.785 180.598 25.3135 180.598 23.5661C180.598 21.8188 180.012 20.3588 178.839 19.1863C177.667 17.9907 176.207 17.3929 174.459 17.3929C172.735 17.3929 171.287 17.9907 170.114 19.1863C168.941 20.3588 168.355 21.8188 168.355 23.5661C168.355 25.3135 168.941 26.785 170.114 27.9805C171.287 29.1531 172.735 29.7394 174.459 29.7394ZM200.525 8.04688H203.526V32.188H200.525V29.2221C199.031 31.4982 196.858 32.6363 194.007 32.6363C191.593 32.6363 189.535 31.7626 187.834 30.0153C186.133 28.2449 185.282 26.0952 185.282 23.5661C185.282 21.0371 186.133 18.8989 187.834 17.1515C189.535 15.3812 191.593 14.496 194.007 14.496C196.858 14.496 199.031 15.6341 200.525 17.9102V8.04688ZM194.387 29.7394C196.134 29.7394 197.594 29.1531 198.766 27.9805C199.939 26.785 200.525 25.3135 200.525 23.5661C200.525 21.8188 199.939 20.3588 198.766 19.1863C197.594 17.9907 196.134 17.3929 194.387 17.3929C192.662 17.3929 191.214 17.9907 190.041 19.1863C188.869 20.3588 188.282 21.8188 188.282 23.5661C188.282 25.3135 188.869 26.785 190.041 27.9805C191.214 29.1531 192.662 29.7394 194.387 29.7394ZM208.278 24.9456C208.577 26.4861 209.279 27.6816 210.382 28.5323C211.509 29.383 212.888 29.8083 214.521 29.8083C216.797 29.8083 218.452 28.9692 219.487 27.2908L222.039 28.7392C220.36 31.3373 217.831 32.6363 214.452 32.6363C211.716 32.6363 209.485 31.7856 207.761 30.0842C206.06 28.3599 205.209 26.1872 205.209 23.5661C205.209 20.9681 206.048 18.8069 207.727 17.0825C209.405 15.3582 211.578 14.496 214.245 14.496C216.774 14.496 218.831 15.3927 220.418 17.186C222.027 18.9563 222.832 21.0946 222.832 23.6006C222.832 24.0375 222.798 24.4858 222.729 24.9456H208.278ZM214.245 17.3239C212.635 17.3239 211.302 17.7838 210.244 18.7034C209.187 19.6001 208.531 20.8072 208.278 22.3246H219.797C219.544 20.6922 218.9 19.4507 217.866 18.6C216.831 17.7493 215.624 17.3239 214.245 17.3239ZM224.9 32.5673C224.279 32.5673 223.751 32.3489 223.314 31.9121C222.877 31.4752 222.658 30.9464 222.658 30.3257C222.658 29.7049 222.877 29.1761 223.314 28.7392C223.751 28.3024 224.279 28.084 224.9 28.084C225.544 28.084 226.073 28.3024 226.487 28.7392C226.923 29.1761 227.142 29.7049 227.142 30.3257C227.142 30.9464 226.923 31.4752 226.487 31.9121C226.073 32.3489 225.544 32.5673 224.9 32.5673Z" fill="#4E0B2B"/>
<rect x="230" y="11" width="44" height="23" rx="11.5" fill="#4E0B2B"/>
<path d="M242.807 22.033C243.359 22.351 243.635 22.831 243.635 23.473C243.635 24.007 243.446 24.445 243.068 24.787C242.69 25.129 242.225 25.3 241.673 25.3H239V19H241.484C242.024 19 242.477 19.168 242.843 19.504C243.215 19.834 243.401 20.257 243.401 20.773C243.401 21.295 243.203 21.715 242.807 22.033ZM241.484 20.161H240.242V21.547H241.484C241.676 21.547 241.835 21.481 241.961 21.349C242.093 21.217 242.159 21.052 242.159 20.854C242.159 20.656 242.096 20.491 241.97 20.359C241.844 20.227 241.682 20.161 241.484 20.161ZM241.673 24.139C241.883 24.139 242.057 24.07 242.195 23.932C242.333 23.788 242.402 23.608 242.402 23.392C242.402 23.182 242.333 23.008 242.195 22.87C242.057 22.726 241.883 22.654 241.673 22.654H240.242V24.139H241.673Z" fill="white"/>
<path d="M247.941 24.112H250.596V25.3H246.699V19H250.551V20.188H247.941V21.529H250.326V22.699H247.941V24.112Z" fill="white"/>
<path d="M257.889 19V20.188H256.188V25.3H254.946V20.188H253.254V19H257.889Z" fill="white"/>
<path d="M264.425 25.3L264.047 24.166H261.536L261.158 25.3H259.817L262.022 19H263.561L265.775 25.3H264.425ZM261.932 23.005H263.66L262.796 20.431L261.932 23.005Z" fill="white"/>
</svg>
