<svg width="245" height="44" viewBox="0 0 245 44" fill="none" xmlns="http://www.w3.org/2000/svg">
<path fill-rule="evenodd" clip-rule="evenodd" d="M2.2895 19.8438C2.28921 19.8924 2.28906 19.9411 2.28906 19.9898C2.28906 33.2508 13.0392 44.001 26.3002 44.001C39.5612 44.001 50.3114 33.2508 50.3114 19.9898C50.3114 19.9411 50.3113 19.8924 50.311 19.8438H2.2895Z" fill="#06c167"/>
<path fill-rule="evenodd" clip-rule="evenodd" d="M26.0545 14.7149C26.0518 14.6902 26.049 14.6655 26.0461 14.6408C25.285 8.07638 19.3464 3.3719 12.782 4.13305C6.21757 4.89419 1.51309 10.8327 2.27423 17.3972C2.2771 17.4219 2.28004 17.4465 2.28304 17.4712L26.0545 14.7149Z" fill="#06c167"/>
<path fill-rule="evenodd" clip-rule="evenodd" d="M49.6638 11.9766C49.6611 11.9519 49.6583 11.9272 49.6555 11.9025C48.8943 5.3381 42.9558 0.633618 36.3914 1.39477C29.8269 2.15591 25.1225 8.09446 25.8836 14.6589C25.8865 14.6836 25.8894 14.7083 25.8924 14.7329L49.6638 11.9766Z" fill="#06c167"/>
<path d="M71.9219 15.5208C73.9452 15.5208 75.6107 16.1993 76.9184 17.5564C78.2508 18.9135 78.917 20.7887 78.917 23.1821V34.5445H74.1426V23.7742C74.1426 22.5405 73.8095 21.6029 73.1433 20.9614C72.4771 20.2952 71.5888 19.9621 70.4785 19.9621C69.2448 19.9621 68.2578 20.3446 67.5176 21.1095C66.7774 21.8743 66.4072 23.0217 66.4072 24.5515V34.5445H61.6328V8.63672H66.4072V18.1116C67.5669 16.3844 69.4051 15.5208 71.9219 15.5208ZM96.7248 32.2498C94.8249 34.125 92.5055 35.0626 89.7667 35.0626C87.0279 35.0626 84.7085 34.125 82.8086 32.2498C80.9334 30.3499 79.9958 28.0305 79.9958 25.2917C79.9958 22.5529 80.9334 20.2459 82.8086 18.3706C84.7085 16.4707 87.0279 15.5208 89.7667 15.5208C92.5055 15.5208 94.8249 16.4707 96.7248 18.3706C98.6247 20.2459 99.5746 22.5529 99.5746 25.2917C99.5746 28.0305 98.6247 30.3499 96.7248 32.2498ZM86.1766 28.9558C87.1389 29.9181 88.3356 30.3992 89.7667 30.3992C91.1978 30.3992 92.3945 29.9181 93.3568 28.9558C94.3191 27.9935 94.8002 26.7721 94.8002 25.2917C94.8002 23.8113 94.3191 22.5899 93.3568 21.6276C92.3945 20.6653 91.1978 20.1842 89.7667 20.1842C88.3356 20.1842 87.1389 20.6653 86.1766 21.6276C85.239 22.5899 84.7702 23.8113 84.7702 25.2917C84.7702 26.7721 85.239 27.9935 86.1766 28.9558ZM121.365 15.5208C123.487 15.5208 125.177 16.2116 126.436 17.5934C127.719 18.9751 128.36 20.8257 128.36 23.1451V34.5445H123.586V23.4782C123.586 22.3678 123.314 21.5042 122.772 20.8874C122.229 20.2705 121.464 19.9621 120.477 19.9621C119.391 19.9621 118.54 20.3199 117.923 21.0354C117.331 21.751 117.035 22.7873 117.035 24.1444V34.5445H112.26V23.4782C112.26 22.3678 111.989 21.5042 111.446 20.8874C110.903 20.2705 110.138 19.9621 109.151 19.9621C108.09 19.9621 107.239 20.3199 106.598 21.0354C105.981 21.751 105.672 22.7873 105.672 24.1444V34.5445H100.898V16.0389H105.672V18.0005C106.783 16.3474 108.498 15.5208 110.817 15.5208C113.087 15.5208 114.765 16.409 115.85 18.1856C117.084 16.409 118.922 15.5208 121.365 15.5208ZM134.414 27.2533C135.055 29.5727 136.795 30.7323 139.632 30.7323C141.458 30.7323 142.84 30.1155 143.777 28.8818L147.627 31.1024C145.801 33.7426 143.111 35.0626 139.558 35.0626C136.499 35.0626 134.043 34.1374 132.193 32.2868C130.342 30.4362 129.417 28.1045 129.417 25.2917C129.417 22.5035 130.33 20.1842 132.156 18.3336C133.982 16.4584 136.326 15.5208 139.188 15.5208C141.902 15.5208 144.135 16.4584 145.887 18.3336C147.664 20.2088 148.552 22.5282 148.552 25.2917C148.552 25.9086 148.49 26.5624 148.367 27.2533H134.414ZM134.34 23.5522H143.777C143.506 22.2938 142.938 21.3562 142.075 20.7393C141.236 20.1225 140.274 19.8141 139.188 19.8141C137.905 19.8141 136.844 20.1472 136.005 20.8134C135.166 21.4549 134.611 22.3678 134.34 23.5522ZM170.094 15.5578C172.167 15.5578 173.845 16.2363 175.128 17.5934C176.411 18.9258 177.052 20.7393 177.052 23.034V34.5445H173.832V23.1451C173.832 21.714 173.462 20.6036 172.722 19.8141C171.982 19.0245 170.995 18.6297 169.761 18.6297C168.379 18.6297 167.269 19.0985 166.43 20.0361C165.616 20.9491 165.209 22.3555 165.209 24.2554V34.5445H161.989V23.1451C161.989 21.714 161.631 20.6036 160.916 19.8141C160.225 19.0245 159.275 18.6297 158.066 18.6297C156.709 18.6297 155.574 19.0985 154.661 20.0361C153.772 20.9737 153.328 22.3802 153.328 24.2554V34.5445H150.108V16.0389H153.328V18.5187C154.587 16.5447 156.425 15.5578 158.843 15.5578C161.335 15.5578 163.149 16.6064 164.284 18.7037C165.567 16.6064 167.504 15.5578 170.094 15.5578ZM194.804 16.0389H198.024V34.5445H194.804V31.3615C193.2 33.8043 190.869 35.0256 187.809 35.0256C185.218 35.0256 183.01 34.088 181.184 32.2128C179.358 30.3129 178.445 28.0058 178.445 25.2917C178.445 22.5776 179.358 20.2829 181.184 18.4076C183.01 16.5077 185.218 15.5578 187.809 15.5578C190.869 15.5578 193.2 16.7792 194.804 19.2219V16.0389ZM188.216 31.9167C190.091 31.9167 191.658 31.2875 192.917 30.0291C194.175 28.7461 194.804 27.1669 194.804 25.2917C194.804 23.4165 194.175 21.8497 192.917 20.5913C191.658 19.3082 190.091 18.6667 188.216 18.6667C186.366 18.6667 184.811 19.3082 183.553 20.5913C182.294 21.8497 181.665 23.4165 181.665 25.2917C181.665 27.1669 182.294 28.7461 183.553 30.0291C184.811 31.2875 186.366 31.9167 188.216 31.9167ZM216.19 8.63672H219.41V34.5445H216.19V31.3615C214.586 33.8043 212.254 35.0256 209.194 35.0256C206.604 35.0256 204.395 34.088 202.57 32.2128C200.744 30.3129 199.831 28.0058 199.831 25.2917C199.831 22.5776 200.744 20.2829 202.57 18.4076C204.395 16.5077 206.604 15.5578 209.194 15.5578C212.254 15.5578 214.586 16.7792 216.19 19.2219V8.63672ZM209.602 31.9167C211.477 31.9167 213.044 31.2875 214.302 30.0291C215.56 28.7461 216.19 27.1669 216.19 25.2917C216.19 23.4165 215.56 21.8497 214.302 20.5913C213.044 19.3082 211.477 18.6667 209.602 18.6667C207.751 18.6667 206.197 19.3082 204.938 20.5913C203.68 21.8497 203.051 23.4165 203.051 25.2917C203.051 27.1669 203.68 28.7461 204.938 30.0291C206.197 31.2875 207.751 31.9167 209.602 31.9167ZM224.51 26.7721C224.831 28.4253 225.583 29.7084 226.768 30.6213C227.977 31.5342 229.457 31.9907 231.209 31.9907C233.652 31.9907 235.428 31.0901 236.539 29.2889L239.277 30.8434C237.476 33.6315 234.762 35.0256 231.135 35.0256C228.199 35.0256 225.805 34.1127 223.955 32.2868C222.129 30.4362 221.216 28.1045 221.216 25.2917C221.216 22.5035 222.117 20.1842 223.918 18.3336C225.719 16.4831 228.051 15.5578 230.913 15.5578C233.627 15.5578 235.835 16.5201 237.538 18.4447C239.265 20.3446 240.129 22.6392 240.129 25.3287C240.129 25.7975 240.092 26.2787 240.018 26.7721H224.51ZM230.913 18.5927C229.186 18.5927 227.755 19.0862 226.62 20.0731C225.485 21.0354 224.782 22.3308 224.51 23.9593H236.872C236.6 22.2074 235.91 20.875 234.799 19.9621C233.689 19.0492 232.393 18.5927 230.913 18.5927ZM242.348 34.9516C241.682 34.9516 241.115 34.7172 240.646 34.2484C240.177 33.7796 239.942 33.2121 239.942 32.5459C239.942 31.8797 240.177 31.3122 240.646 30.8434C241.115 30.3746 241.682 30.1402 242.348 30.1402C243.039 30.1402 243.607 30.3746 244.051 30.8434C244.52 31.3122 244.754 31.8797 244.754 32.5459C244.754 33.2121 244.52 33.7796 244.051 34.2484C243.607 34.7172 243.039 34.9516 242.348 34.9516Z" fill="white"/>
</svg>
