<svg width="276" height="57" viewBox="0 0 276 57" fill="none" xmlns="http://www.w3.org/2000/svg">
<path fill-rule="evenodd" clip-rule="evenodd" d="M80.1465 8.75231C84.4762 13.58 86.9492 19.3783 86.9492 25.7759C86.9492 35.5241 81.2015 43.8882 71.909 49.5345C64.4059 54.0921 54.3285 56.9111 43.4746 56.9111C32.6207 56.9111 22.5433 54.0921 15.0401 49.5345C5.74767 43.8882 0 35.5241 0 25.7759C0 16.0276 5.74767 7.66355 15.0401 2.01717C15.6309 1.66269 16.2302 1.31663 16.8463 0.979034C12.1958 4.39725 9.45282 8.727 9.45282 13.5378C9.45282 19.5893 13.7826 24.8728 20.7878 28.5357C27.1263 31.8527 35.7857 33.9036 45.2723 33.9036C54.7589 33.9036 63.4268 31.8527 69.7568 28.5357C76.7621 24.8728 81.0918 19.5809 81.0918 13.5378C81.0918 11.8751 80.7711 10.2715 80.1465 8.75231ZM25.8687 23.5224C28.1053 19.6737 35.2202 15.9348 44.0401 14.3818C55.2062 12.4068 64.8785 14.6772 65.6381 19.4543C65.8491 20.7878 65.3427 22.1635 64.2708 23.5139C65.3258 23.1088 66.1614 22.7543 66.6256 22.5095C71.352 20.0366 74.2807 16.8463 74.2807 13.5378C74.2807 10.2209 71.3605 7.03897 66.6256 4.56605C61.2324 1.74708 53.6955 0 45.2892 0C36.8829 0 29.3375 1.74708 23.9528 4.56605C19.2264 7.03897 16.3061 10.2293 16.3061 13.5378C16.3061 16.8547 19.2264 20.0366 23.9528 22.5095C24.2313 22.6615 24.9909 23.0582 25.8687 23.5224Z" fill="#06C167"/>
<path fill-rule="evenodd" clip-rule="evenodd" d="M119.587 45.1627C122.203 45.1627 125.63 44.5128 127.757 41.947V44.4537H136.796V3.07227H127.537V16.7367C125.36 14.6098 122.093 13.7995 119.207 13.7995C110.986 13.7995 105.433 19.9523 105.433 29.5317C105.433 39.0099 110.936 45.1627 119.587 45.1627ZM121.984 36.9421C117.679 36.9421 115.122 34.1147 115.122 29.4811C115.122 24.6365 117.899 22.0792 121.764 22.0792C124.271 22.0792 126.668 23.2186 127.757 25.2358V33.6167C126.558 35.963 124.38 36.9421 121.984 36.9421ZM141.353 44.4537H150.722V30.7302C150.722 25.6662 153.608 23.649 157.524 23.649C158.504 23.649 159.542 23.8094 160.681 24.0289V13.9599C160.301 13.9093 159.862 13.8502 159.373 13.8502C155.617 13.8502 152.57 15.4876 150.334 18.0955V14.6098H141.353V44.4537ZM177.873 45.1627C187.841 45.1627 194.374 39.1703 194.374 29.5317C194.374 19.9523 187.841 13.8502 177.873 13.8502C167.855 13.8502 161.322 19.9523 161.322 29.5317C161.314 39.1703 167.855 45.1627 177.873 45.1627ZM177.873 36.7226C173.738 36.7226 171.012 33.9459 171.012 29.5317C171.012 25.1767 173.738 22.2902 177.873 22.2902C181.958 22.2902 184.676 25.1767 184.676 29.5317C184.676 33.9459 181.95 36.7226 177.873 36.7226ZM197.674 54.0922H206.873V41.947C208.941 44.5044 212.267 45.1627 214.874 45.1627C223.475 45.1627 228.978 39.0099 228.978 29.5317C228.978 19.9523 223.424 13.7995 215.254 13.7995C212.368 13.7995 209.102 14.6182 206.865 16.7367V14.6098H197.665V54.0922H197.674ZM212.478 36.9421C210.03 36.9421 207.903 35.963 206.705 33.6167V25.2358C207.793 23.2186 210.19 22.0792 212.638 22.0792C216.554 22.0792 219.28 24.6365 219.28 29.4811C219.289 34.1147 216.731 36.9421 212.478 36.9421ZM232.286 54.0922H241.486V41.947C243.554 44.5044 246.879 45.1627 249.487 45.1627C258.087 45.1627 263.59 39.0099 263.59 29.5317C263.59 19.9523 258.037 13.7995 249.867 13.7995C246.98 13.7995 243.714 14.6182 241.477 16.7367V14.6098H232.278V54.0922H232.286ZM247.09 36.9421C244.642 36.9421 242.516 35.963 241.317 33.6167V25.2358C242.406 23.2186 244.803 22.0792 247.25 22.0792C251.175 22.0792 253.893 24.6365 253.893 29.4811C253.901 34.1147 251.344 36.9421 247.09 36.9421ZM270.165 45.2724C273.102 45.2724 275.499 42.8754 275.499 39.8792C275.499 36.9421 273.102 34.486 270.165 34.486C267.228 34.486 264.772 36.9337 264.772 39.8792C264.772 42.8754 267.22 45.2724 270.165 45.2724Z" fill="white"/>
</svg>
