<svg width="465" height="176" viewBox="0 0 465 176" fill="none" xmlns="http://www.w3.org/2000/svg">
<path d="M399.09 54.0785C436.523 82.1517 462.727 122.005 471.937 164.87C481.147 207.735 472.608 250.101 448.199 282.649C423.79 315.196 385.511 335.258 341.782 338.422C298.052 341.586 252.456 327.592 215.022 299.519L307.056 176.799L399.09 54.0785Z" fill="#FFD5DB"/>
<g clip-path="url(#clip0_14019_38530)">
<path d="M132.772 81.9936C136.233 77.473 142.757 76.7043 147.317 80.0803L164.975 93.3825C169.535 96.7586 170.264 103.183 166.804 107.704C163.343 112.224 156.818 112.993 152.258 109.617L134.559 96.1511C129.999 92.7751 129.27 86.3506 132.772 81.9936Z" fill="#FFD5DB"/>
<path d="M118.396 26.8264L118.688 26.5793C122.19 22.2223 128.507 21.3317 132.859 24.5859L178.415 58.8786C182.809 62.2964 183.663 68.5156 180.327 72.8308L180.077 73.2415C176.575 77.5985 170.258 78.4891 165.905 75.2349L120.183 40.9839C115.79 37.5661 114.935 31.347 118.396 26.8264Z" fill="#FFD5DB"/>
<path d="M176.057 26.2574C179.518 21.7368 186.042 20.968 190.602 24.344L208.26 37.6463C212.82 41.0223 213.55 47.4468 210.089 51.9674C206.628 56.488 200.104 57.2567 195.544 53.8807L177.885 40.5785C173.45 36.9971 172.555 30.6144 176.057 26.2574Z" fill="#FFD5DB"/>
<path d="M188.992 86.8943C142.409 149.01 152.687 236.174 211.345 284.138L384.739 52.9304C322.309 10.368 235.575 24.7789 188.992 86.8943ZM266.265 92.9146C270.816 96.8954 273.648 102.425 274.004 108.65L276.391 147.899L277.164 152.452L276.713 152.681L276.62 153.178L271.718 153.759L233.686 162.411C221.355 165.082 209.24 157.415 206.597 144.934L206.343 143.04C203.7 130.558 211.703 118.399 224.17 115.546L226.825 114.983L226.622 112.277C225.868 99.5097 235.479 88.5557 248.022 87.4629L249.912 87.1771C255.843 87.0848 261.714 88.9338 266.265 92.9146Z" fill="#FFD5DB"/>
<path d="M258.731 101.464C261.096 103.521 262.601 106.353 262.71 109.556L264.827 143.21L264.198 143.306L264.283 143.937L231.246 151.512C224.855 152.962 218.687 148.903 217.523 142.639L217.268 140.745C215.926 134.347 220.064 128.085 226.318 126.817L238.65 124.146L237.939 111.694C237.829 108.491 238.706 105.46 240.792 103.051C242.878 100.642 245.584 99.2664 248.911 98.924L250.801 98.6382C253.498 98.391 256.544 99.5403 258.731 101.464Z" fill="#FFD5DB"/>
<path d="M428.235 51.5035L438.954 59.5426L232.734 334.521L222.015 326.482C214.154 320.587 210.864 310.458 213.317 301.231C214.059 298.381 215.43 295.437 217.337 292.894L394.544 56.6009C396.451 54.0582 398.894 51.9174 401.422 50.4079C409.728 45.2866 420.195 45.4742 428.235 51.5035Z" fill="#FFD5DB"/>
</g>
<defs>
<clipPath id="clip0_14019_38530">
<rect width="343.715" height="303.075" fill="white" transform="translate(0 159.979) rotate(-53.132)"/>
</clipPath>
</defs>
</svg>
