<svg width="18" height="18" viewBox="0 0 18 18" fill="none" xmlns="http://www.w3.org/2000/svg">
<g clip-path="url(#clip0_9525_7718)">
<mask id="mask0_9525_7718" style="mask-type:luminance" maskUnits="userSpaceOnUse" x="0" y="0" width="18" height="18">
<path d="M0.222656 0.078125H17.505V17.0781H0.222656V0.078125Z" fill="white"/>
</mask>
<g mask="url(#mask0_9525_7718)">
<path d="M15.7095 0.078125H1.12044C0.626646 0.078125 0.222656 0.482877 0.222656 0.9776V2.59664C0.222656 3.09136 0.626646 3.49611 1.12044 3.49611H15.6646C16.1584 3.49611 16.5624 3.09136 16.5624 2.59664V0.9776C16.6073 0.482877 16.2032 0.078125 15.7095 0.078125ZM15.7095 9.1178H1.12044C0.626646 9.1178 0.222656 9.52256 0.222656 10.0173V11.6363C0.222656 12.131 0.626646 12.5358 1.12044 12.5358H15.6646C16.1584 12.5358 16.5624 12.131 16.5624 11.6363V10.0173C16.6073 9.52256 16.2032 9.1178 15.7095 9.1178ZM9.33519 13.6601H1.12044C0.626646 13.6601 0.222656 14.0649 0.222656 14.5596V16.1786C0.222656 16.6734 0.626646 17.0781 1.12044 17.0781H9.33519C9.82898 17.0781 10.233 16.6734 10.233 16.1786V14.5596C10.233 14.0649 9.82898 13.6601 9.33519 13.6601ZM16.6073 4.62046H1.12044C0.626646 4.62046 0.222656 5.02521 0.222656 5.5199V7.13897C0.222656 7.63366 0.626646 8.03845 1.12044 8.03845H16.6073C17.1011 8.03845 17.505 7.63366 17.505 7.13897V5.5199C17.505 5.02521 17.1011 4.62046 16.6073 4.62046Z" fill="white"/>
</g>
</g>
<defs>
<clipPath id="clip0_9525_7718">
<rect width="17.2824" height="17" fill="white" transform="translate(0.21875 0.078125)"/>
</clipPath>
</defs>
</svg>
