<svg width="71" height="71" viewBox="0 0 71 71" fill="none" xmlns="http://www.w3.org/2000/svg">
<g clip-path="url(#clip0_9606_10915)">
<path d="M37.9321 5C19.9477 5 5.28125 19.6664 5.28125 37.6509C5.28125 52.702 15.4756 65.3488 29.3246 69.1476V43.9983C26.199 42.9885 23.9389 39.8148 23.9389 36.1121V23.6095C23.9389 22.6959 24.6121 21.9746 25.4296 21.9746C26.247 21.9746 26.9203 22.6959 26.9203 23.6095V33.9001H29.9978V23.6095C29.9978 22.6959 30.671 21.9746 31.4885 21.9746C32.306 21.9746 32.9792 22.6959 32.9792 23.6095V33.9001H36.0567V24.1385C36.0567 23.2249 36.7299 22.5036 37.5474 22.5036C38.3649 22.5036 39.0381 23.2249 39.0381 24.1385V36.064C39.0381 38.3241 38.2206 40.3918 36.8261 41.8825C35.9606 42.8442 34.8546 43.5655 33.6524 43.9502V70.0132C35.0469 70.2056 36.4895 70.3017 37.9802 70.3017C40.3364 70.3017 42.6446 70.0613 44.8566 69.5804V23.2729C44.8566 22.0227 46.2992 21.4456 47.0205 22.4074L47.838 23.5134C49.0882 25.1964 50.7232 27.6969 51.9734 31.063C53.6084 35.3427 53.8488 38.853 53.8969 39.6224C54.0411 42.2672 54.1854 44.1906 53.1756 46.4026C51.9734 49.1917 49.8095 50.5862 48.7516 51.1632V68.4263C61.4465 63.9543 70.583 51.8364 70.583 37.6028C70.583 19.6664 55.9646 5 37.9321 5Z" fill="white"/>
<path d="M3.11719 21.4462C6.77178 12.8387 13.8405 6.05849 22.6885 2.88477" stroke="#FFB0BB" stroke-width="5.7704" stroke-miterlimit="10" stroke-linecap="round"/>
</g>
<defs>
<clipPath id="clip0_9606_10915">
<rect width="70.3508" height="70.3027" fill="white" transform="translate(0.234375)"/>
</clipPath>
</defs>
</svg>
