<svg width="1512" height="725" viewBox="0 0 1512 725" fill="none" xmlns="http://www.w3.org/2000/svg">
<path d="M63.0999 230.294L100.815 227.76L110.385 370.239C111.94 393.387 105.443 411.563 90.8953 424.768C76.5471 437.959 58.5972 445.279 37.0458 446.726C20.8822 447.812 6.40659 445.677 -6.38104 440.322C-18.9691 434.954 -28.9578 426.504 -36.3472 414.973L-4.68796 393.904C3.83318 407.363 17.3728 413.47 35.931 412.223C48.1036 411.406 57.4676 407.57 64.0229 400.715C70.5783 393.86 73.4606 384.546 72.6698 372.772L71.5841 356.609C61.2284 372.539 45.7737 381.194 25.22 382.574C4.06766 383.995 -14.1882 377.805 -29.5477 364.003C-44.721 349.988 -53.0248 332.305 -54.4589 310.953C-55.8796 289.801 -49.9088 271.259 -36.5464 255.328C-23.184 239.396 -6.02644 230.727 14.9264 229.32C35.48 227.939 51.9534 234.45 64.3464 248.852L63.0999 230.294ZM-2.18182 337.209C6.30952 344.256 16.6415 347.37 28.814 346.553C40.9866 345.735 50.7095 341.273 57.9826 333.168C65.4419 324.849 68.7695 314.703 67.9653 302.73C67.1745 290.957 62.5334 281.547 54.0421 274.5C45.7369 267.24 35.498 264.019 23.3254 264.837C11.1529 265.654 1.33693 270.222 -6.12236 278.541C-13.3955 286.647 -16.6367 296.586 -15.8459 308.36C-15.0417 320.333 -10.487 329.949 -2.18182 337.209ZM164.198 249.361C167.147 239.542 172.551 231.962 180.411 226.624C188.47 221.271 197.588 218.254 207.765 217.57L210.661 260.673C198.793 260.067 188.378 263.172 179.415 269.988C170.651 276.79 166.751 287.376 167.716 301.743L172.521 373.282L133.908 375.876L123.856 226.213L162.469 223.619L164.198 249.361ZM349.341 342.764C334.994 358.962 316.746 367.804 294.596 369.292C272.446 370.78 253.178 364.457 236.794 350.323C220.597 335.976 211.754 317.728 210.266 295.578C208.778 273.428 215.108 254.26 229.255 238.076C243.588 221.679 261.83 212.736 283.98 211.248C306.13 209.76 325.404 216.183 341.802 230.517C358.186 244.65 367.121 262.792 368.609 284.942C370.097 307.092 363.674 326.366 349.341 342.764ZM262.244 321.854C270.549 329.113 280.488 332.354 292.062 331.577C303.636 330.8 313.053 326.258 320.313 317.953C327.573 309.648 330.8 299.509 329.996 287.536C329.192 275.563 324.637 265.947 316.332 258.687C308.027 251.427 298.087 248.186 286.513 248.963C274.94 249.741 265.523 254.282 258.263 262.587C251.203 270.879 248.075 281.011 248.879 292.984C249.683 304.957 254.138 314.58 262.244 321.854ZM541.448 198.164L582.456 195.41L544.915 348.269L508.098 350.742L474.468 261.896L453.022 354.442L416.205 356.915L358.56 210.448L399.568 207.694L431.182 297.878L452.249 204.156L488.767 201.703L522.197 292.066L541.448 198.164ZM679.395 226.183L645.571 228.455L649.753 290.714C650.102 295.903 651.653 299.607 654.408 301.827C657.163 304.048 661.049 305.19 666.064 305.254C671.066 305.118 677.246 304.603 684.602 303.708L686.954 338.729C660.615 343.505 641.69 342.271 630.179 335.026C618.867 327.767 612.521 313.861 611.14 293.308L606.958 231.048L580.917 232.797L578.424 195.681L604.465 193.932L602.435 163.7L640.264 149.433L643.078 191.338L676.902 189.066L679.395 226.183ZM775.085 178.262C791.448 177.163 805.286 181.746 816.599 192.011C828.112 202.263 834.519 217.066 835.819 236.423L841.991 328.316L803.378 330.909L797.528 243.806C796.857 233.828 793.654 226.426 787.918 221.6C782.168 216.574 774.803 214.362 765.824 214.965C755.846 215.636 748.072 219.265 742.501 225.853C736.93 232.441 734.56 241.921 735.391 254.293L740.819 335.111L702.206 337.705L688.133 128.177L726.746 125.583L731.893 202.211C740.333 187.612 754.731 179.629 775.085 178.262ZM954.513 261.525C960.961 279.934 975.659 288.368 998.607 286.827C1013.37 285.835 1024.21 280.096 1031.13 269.609L1063.46 285.477C1050.13 307.821 1029.1 319.958 1000.36 321.888C975.617 323.55 955.259 317.401 939.287 303.439C923.316 289.478 914.566 271.124 913.038 248.375C911.523 225.826 917.647 206.572 931.408 190.614C945.156 174.456 963.604 165.6 986.752 164.045C1008.7 162.571 1027.27 168.941 1042.46 183.155C1057.84 197.356 1066.29 215.631 1067.79 237.981C1068.12 242.969 1067.98 248.291 1067.36 253.945L954.513 261.525ZM951.903 231.633L1028.23 226.506C1025.35 216.476 1020.25 209.202 1012.93 204.682C1005.81 200.149 997.865 198.177 989.084 198.767C978.708 199.464 970.308 202.734 963.885 208.578C957.449 214.222 953.455 221.907 951.903 231.633ZM1190.32 154.582L1228.93 151.988L1238.99 301.651L1200.37 304.244L1199.19 286.584C1188.59 301.929 1172.82 310.305 1151.86 311.712C1131.91 313.052 1114.24 306.622 1098.85 292.421C1083.65 278.008 1075.31 259.726 1073.82 237.576C1072.33 215.425 1078.16 196.292 1091.31 180.174C1104.65 163.844 1121.29 155.008 1141.25 153.668C1162.2 152.261 1178.95 158.452 1191.51 172.242L1190.32 154.582ZM1126.16 264.729C1134.46 271.989 1144.6 275.217 1156.57 274.412C1168.55 273.608 1178.16 269.054 1185.42 260.748C1192.87 252.23 1196.18 241.785 1195.35 229.413C1194.52 217.041 1189.85 207.232 1181.34 199.985C1173.02 192.526 1162.88 189.198 1150.91 190.003C1138.93 190.807 1129.32 195.461 1122.08 203.966C1114.82 212.271 1111.6 222.61 1112.43 234.982C1113.26 247.354 1117.84 257.27 1126.16 264.729ZM1289.28 190.631C1289.55 194.622 1292.36 197.74 1297.73 199.986C1303.27 202.019 1309.91 203.778 1317.62 205.264C1325.33 206.551 1333.07 208.436 1340.86 210.92C1348.63 213.204 1355.33 217.565 1360.98 224.001C1366.82 230.424 1370.08 238.724 1370.77 248.901C1371.8 264.266 1366.81 276.528 1355.8 285.687C1344.97 294.632 1330.98 299.681 1313.82 300.834C1283.09 302.898 1261.34 292.432 1248.57 269.436L1280.83 248.327C1286.09 261.003 1296.3 266.831 1311.47 265.813C1325.24 264.888 1331.83 260.135 1331.26 251.555C1330.99 247.564 1328.08 244.552 1322.53 242.519C1317.17 240.273 1310.63 238.407 1302.91 236.921C1295.2 235.435 1287.45 233.45 1279.66 230.966C1271.88 228.482 1265.08 224.228 1259.26 218.205C1253.63 211.968 1250.49 203.961 1249.83 194.183C1248.84 179.416 1253.45 167.48 1263.66 158.375C1274.06 149.057 1287.34 143.856 1303.5 142.77C1315.68 141.952 1326.94 144.002 1337.29 148.919C1347.63 153.637 1356.04 160.89 1362.51 170.679L1330.79 190.85C1325.31 180.994 1316.99 176.442 1305.82 177.192C1300.83 177.527 1296.71 178.906 1293.47 181.329C1290.42 183.739 1289.03 186.839 1289.28 190.631ZM1467.95 135.934L1509.26 133.16L1464.83 286.481C1458.5 308.556 1449.17 324.817 1436.84 335.267C1424.73 345.903 1409.06 351.365 1389.83 351.654L1387.42 315.735C1397.81 315.238 1405.84 312.493 1411.52 307.501C1417.4 302.496 1421.79 294.784 1424.7 284.366L1353.61 143.614L1395.81 140.779L1441.48 238.739L1467.95 135.934ZM1657.23 96.16C1635.97 95.9843 1625.96 105.176 1627.21 123.734L1627.31 125.23L1659.04 123.099L1661.53 160.216L1629.8 162.347L1637.36 274.893L1598.75 277.487L1591.19 164.94L1569.64 166.388L1567.15 129.271L1588.7 127.824L1588.6 126.327C1587.18 105.175 1591.98 88.7157 1603.02 76.9497C1614.06 65.1836 1631.29 59.2149 1654.74 59.0436L1657.23 96.16ZM1795.53 245.628C1781.18 261.826 1762.93 270.668 1740.78 272.156C1718.63 273.644 1699.37 267.321 1682.98 253.187C1666.78 238.84 1657.94 220.592 1656.45 198.442C1654.97 176.292 1661.29 157.125 1675.44 140.94C1689.78 124.543 1708.02 115.6 1730.17 114.112C1752.32 112.625 1771.59 119.047 1787.99 133.381C1804.37 147.514 1813.31 165.656 1814.8 187.807C1816.28 209.957 1809.86 229.23 1795.53 245.628ZM1708.43 224.718C1716.74 231.977 1726.68 235.219 1738.25 234.441C1749.82 233.664 1759.24 229.123 1766.5 220.817C1773.76 212.512 1776.99 202.373 1776.18 190.4C1775.38 178.427 1770.82 168.811 1762.52 161.551C1754.21 154.291 1744.27 151.05 1732.7 151.827C1721.13 152.605 1711.71 157.146 1704.45 165.451C1697.39 173.743 1694.26 183.875 1695.07 195.848C1695.87 207.821 1700.32 217.445 1708.43 224.718ZM1865.3 135.103C1868.25 125.284 1873.66 117.704 1881.52 112.366C1889.57 107.013 1898.69 103.996 1908.87 103.312L1911.77 146.415C1899.9 145.809 1889.48 148.914 1880.52 155.73C1871.76 162.533 1867.86 173.118 1868.82 187.485L1873.63 259.024L1835.01 261.618L1824.96 111.955L1863.57 109.361L1865.3 135.103Z" fill="#172A1C"/>
<path d="M-93.2373 444.082C-114.497 443.907 -124.503 453.098 -123.257 471.656L-123.156 473.153L-91.4279 471.022L-88.9349 508.138L-120.663 510.269L-113.104 622.815L-151.717 625.409L-159.276 512.863L-180.828 514.31L-183.321 477.194L-161.769 475.746L-161.87 474.25C-163.291 453.097 -158.483 436.638 -147.447 424.872C-136.41 413.106 -119.172 407.137 -95.7303 406.966L-93.2373 444.082ZM45.0614 593.55C30.7146 609.748 12.4662 618.591 -9.68386 620.079C-31.834 621.566 -51.101 615.243 -67.485 601.109C-83.6829 586.763 -92.5257 568.514 -94.0135 546.364C-95.5012 524.214 -89.1715 505.047 -75.0243 488.862C-60.691 472.465 -42.4493 463.522 -20.2992 462.035C1.85091 460.547 21.1247 466.97 37.5221 481.303C53.9061 495.437 62.842 513.579 64.3298 535.729C65.8175 557.879 59.3947 577.153 45.0614 593.55ZM-42.0357 572.64C-33.7305 579.9 -23.791 583.141 -12.2171 582.364C-0.64314 581.586 8.77369 577.045 16.0334 568.74C23.2932 560.434 26.5209 550.295 25.7168 538.322C24.9126 526.349 20.3579 516.733 12.0527 509.473C3.7475 502.213 -6.19206 498.972 -17.766 499.75C-29.3399 500.527 -38.7567 505.068 -46.0165 513.374C-53.0767 521.665 -56.2047 531.798 -55.4005 543.771C-54.5963 555.744 -50.1414 565.367 -42.0357 572.64ZM114.836 483.026C117.785 473.206 123.189 465.627 131.049 460.288C139.108 454.936 148.227 451.918 158.404 451.234L161.299 494.337C149.432 493.731 139.016 496.836 130.053 503.652C121.289 510.455 117.39 521.04 118.355 535.408L123.16 606.946L84.5467 609.54L74.4943 459.877L113.107 457.284L114.836 483.026ZM272.415 472.442C275.363 462.622 280.768 455.043 288.628 449.704C296.687 444.352 305.805 441.334 315.982 440.65L318.877 483.753C307.01 483.147 296.595 486.252 287.631 493.068C278.868 499.871 274.968 510.456 275.933 524.823L280.738 596.362L242.125 598.956L232.073 449.293L270.686 446.7L272.415 472.442ZM359.957 531.808C366.406 550.217 381.104 558.651 404.052 557.11C418.819 556.118 429.659 550.379 436.571 539.892L468.908 555.761C455.575 578.104 434.541 590.241 405.806 592.171C381.062 593.833 360.704 587.684 344.732 573.723C328.761 559.762 320.011 541.407 318.483 518.658C316.968 496.109 323.092 476.855 336.853 460.897C350.601 444.74 369.049 435.883 392.197 434.329C414.148 432.854 432.716 439.224 447.903 453.438C463.289 467.639 471.733 485.914 473.234 508.264C473.569 513.253 473.426 518.574 472.803 524.229L359.957 531.808ZM357.348 501.916L433.676 496.789C430.798 486.76 425.699 479.485 418.379 474.965C411.26 470.432 403.31 468.461 394.529 469.05C384.153 469.747 375.753 473.018 369.33 478.861C362.894 484.505 358.9 492.19 357.348 501.916ZM515.819 472.931C516.087 476.922 518.902 480.04 524.265 482.286C529.814 484.318 536.447 486.078 544.163 487.564C551.867 488.851 559.611 490.736 567.395 493.22C575.165 495.504 581.873 499.865 587.517 506.301C593.36 512.724 596.624 521.024 597.307 531.201C598.339 546.566 593.35 558.828 582.339 567.986C571.514 576.932 557.521 581.981 540.36 583.134C509.629 585.198 487.879 574.732 475.109 551.736L507.367 530.627C512.628 543.303 522.842 549.131 538.007 548.113C551.776 547.188 558.373 542.435 557.796 533.854C557.528 529.863 554.62 526.852 549.071 524.819C543.709 522.573 537.169 520.707 529.452 519.221C521.735 517.735 513.985 515.75 506.201 513.266C498.417 510.782 491.616 506.528 485.799 500.504C480.169 494.268 477.025 486.26 476.368 476.482C475.377 461.716 479.987 449.78 490.2 440.675C500.599 431.357 513.88 426.155 530.044 425.07C542.216 424.252 553.479 426.302 563.832 431.219C574.171 435.937 582.576 443.19 589.047 452.978L557.327 473.149C551.854 463.294 543.53 458.742 532.356 459.492C527.367 459.827 523.25 461.206 520.005 463.629C516.96 466.039 515.564 469.139 515.819 472.931ZM686.765 456.037L652.941 458.308L657.123 520.568C657.471 525.756 659.023 529.461 661.778 531.681C664.533 533.902 668.418 535.044 673.434 535.108C678.436 534.972 684.616 534.457 691.972 533.562L694.324 568.583C667.985 573.359 649.06 572.124 637.549 564.88C626.237 557.621 619.89 543.715 618.51 523.162L614.328 460.902L588.287 462.651L585.794 425.535L611.835 423.786L609.805 393.554L647.633 379.286L650.448 421.192L684.272 418.92L686.765 456.037ZM808.59 410.57L847.203 407.977L857.256 557.639L818.643 560.233L817.456 542.573C806.861 557.917 791.087 566.293 770.134 567.701C750.179 569.041 732.508 562.611 717.122 548.41C701.922 533.996 693.578 515.714 692.09 493.564C690.603 471.414 696.433 452.28 709.583 436.163C722.918 419.832 739.564 410.997 759.519 409.657C780.472 408.249 797.224 414.441 809.776 428.23L808.59 410.57ZM744.428 520.718C752.733 527.977 762.872 531.205 774.845 530.401C786.818 529.597 796.434 525.042 803.694 516.737C811.14 508.219 814.447 497.774 813.616 485.402C812.785 473.029 808.118 463.22 799.613 455.974C791.294 448.515 781.148 445.187 769.175 445.991C757.202 446.795 747.593 451.45 740.346 459.955C733.087 468.26 729.872 478.598 730.703 490.971C731.534 503.343 736.109 513.258 744.428 520.718ZM969.022 399.794L1007.63 397.201L1017.69 546.864L979.074 549.457L977.948 532.695C969.508 547.293 955.11 555.276 934.756 556.643C918.393 557.742 904.455 553.166 892.942 542.915C881.629 532.65 875.322 517.839 874.022 498.483L867.85 406.59L906.463 403.996L912.313 491.1C912.983 501.078 916.193 508.579 921.943 513.605C927.679 518.432 935.037 520.543 944.017 519.94C953.995 519.27 961.769 515.641 967.34 509.053C972.911 502.465 975.281 492.984 974.45 480.612L969.022 399.794ZM1071.37 418.778C1074.32 408.959 1079.72 401.379 1087.58 396.041C1095.64 390.688 1104.76 387.671 1114.94 386.987L1117.83 430.09C1105.96 429.484 1095.55 432.589 1086.59 439.405C1077.82 446.207 1073.92 456.793 1074.89 471.16L1079.69 542.699L1041.08 545.293L1031.03 395.63L1069.64 393.036L1071.37 418.778ZM1233.94 382.001L1272.55 379.407L1282.6 529.07L1243.99 531.664L1242.8 514.004C1232.21 529.348 1216.43 537.724 1195.48 539.131C1175.53 540.472 1157.85 534.041 1142.47 519.841C1127.27 505.427 1118.92 487.145 1117.44 464.995C1115.95 442.845 1121.78 423.711 1134.93 407.594C1148.26 391.263 1164.91 382.428 1184.87 381.087C1205.82 379.68 1222.57 385.871 1235.12 399.661L1233.94 382.001ZM1169.77 492.148C1178.08 499.408 1188.22 502.636 1200.19 501.832C1212.16 501.028 1221.78 496.473 1229.04 488.168C1236.49 479.65 1239.79 469.204 1238.96 456.832C1238.13 444.46 1233.46 434.651 1224.96 427.405C1216.64 419.945 1206.49 416.618 1194.52 417.422C1182.55 418.226 1172.94 422.881 1165.69 431.385C1158.43 439.691 1155.22 450.029 1156.05 462.401C1156.88 474.773 1161.46 484.689 1169.77 492.148ZM1378.52 368.08C1394.88 366.981 1408.72 371.564 1420.04 381.829C1431.55 392.08 1437.96 406.884 1439.26 426.241L1445.43 518.134L1406.82 520.727L1400.96 433.623C1400.29 423.646 1397.09 416.244 1391.35 411.418C1385.61 406.392 1378.24 404.18 1369.26 404.783C1359.28 405.453 1351.51 409.083 1345.94 415.671C1340.37 422.259 1338 431.739 1338.83 444.111L1344.26 524.929L1305.64 527.523L1295.59 377.86L1334.2 375.266L1335.33 392.029C1343.77 377.43 1358.17 369.447 1378.52 368.08ZM1544.47 398.427L1510.65 400.699L1514.83 462.959C1515.18 468.147 1516.73 471.851 1519.49 474.072C1522.24 476.292 1526.13 477.434 1531.14 477.498C1536.14 477.363 1542.32 476.847 1549.68 475.952L1552.03 510.973C1525.69 515.749 1506.77 514.515 1495.26 507.27C1483.94 500.012 1477.6 486.106 1476.22 465.552L1472.04 403.292L1445.99 405.041L1443.5 367.925L1469.54 366.176L1467.51 335.944L1505.34 321.677L1508.16 363.582L1541.98 361.311L1544.47 398.427ZM1592.49 400.614C1592.76 404.605 1595.57 407.723 1600.94 409.969C1606.49 412.002 1613.12 413.761 1620.84 415.247C1628.54 416.534 1636.28 418.419 1644.07 420.903C1651.84 423.188 1658.54 427.548 1664.19 433.984C1670.03 440.407 1673.3 448.707 1673.98 458.884C1675.01 474.249 1670.02 486.511 1659.01 495.67C1648.19 504.615 1634.19 509.664 1617.03 510.817C1586.3 512.881 1564.55 502.415 1551.78 479.419L1584.04 458.31C1589.3 470.986 1599.51 476.815 1614.68 475.796C1628.45 474.871 1635.04 470.118 1634.47 461.538C1634.2 457.547 1631.29 454.535 1625.74 452.502C1620.38 450.257 1613.84 448.391 1606.12 446.904C1598.41 445.418 1590.66 443.433 1582.87 440.949C1575.09 438.465 1568.29 434.211 1562.47 428.188C1556.84 421.951 1553.7 413.944 1553.04 404.166C1552.05 389.399 1556.66 377.463 1566.87 368.358C1577.27 359.041 1590.55 353.839 1606.72 352.753C1618.89 351.936 1630.15 353.985 1640.5 358.903C1650.84 363.62 1659.25 370.873 1665.72 380.662L1634 400.833C1628.53 390.977 1620.2 386.425 1609.03 387.176C1604.04 387.511 1599.92 388.89 1596.68 391.313C1593.63 393.722 1592.24 396.823 1592.49 400.614Z" fill="#172A1C"/>
</svg>
