<svg width="1472" height="222" viewBox="0 0 1472 222" fill="none" xmlns="http://www.w3.org/2000/svg">
<path d="M-290.252 40C-311.452 38.4 -322.052 46.9 -322.052 65.5V67H-290.252V104.2H-322.052V217H-360.752V104.2H-382.352V67H-360.752V65.5C-360.752 44.3 -354.852 28.2 -343.052 17.2C-331.252 6.2 -313.652 1.39999 -290.252 2.79999V40ZM-162.281 198.4C-177.681 213.6 -196.481 221.2 -218.681 221.2C-240.881 221.2 -259.681 213.6 -275.081 198.4C-290.281 183 -297.881 164.2 -297.881 142C-297.881 119.8 -290.281 101.1 -275.081 85.9C-259.681 70.5 -240.881 62.8 -218.681 62.8C-196.481 62.8 -177.681 70.5 -162.281 85.9C-146.881 101.1 -139.181 119.8 -139.181 142C-139.181 164.2 -146.881 183 -162.281 198.4ZM-247.781 171.7C-239.981 179.5 -230.281 183.4 -218.681 183.4C-207.081 183.4 -197.381 179.5 -189.581 171.7C-181.781 163.9 -177.881 154 -177.881 142C-177.881 130 -181.781 120.1 -189.581 112.3C-197.381 104.5 -207.081 100.6 -218.681 100.6C-230.281 100.6 -239.981 104.5 -247.781 112.3C-255.381 120.1 -259.181 130 -259.181 142C-259.181 154 -255.381 163.9 -247.781 171.7ZM-85.2562 92.8C-81.6562 83.2 -75.7562 76 -67.5562 71.2C-59.1562 66.4 -49.8562 64 -39.6562 64V107.2C-51.4562 105.8 -62.0562 108.2 -71.4562 114.4C-80.6562 120.6 -85.2562 130.9 -85.2562 145.3V217H-123.956V67H-85.2562V92.8ZM72.6773 92.8C76.2773 83.2 82.1773 76 90.3773 71.2C98.7773 66.4 108.077 64 118.277 64V107.2C106.477 105.8 95.8773 108.2 86.4773 114.4C77.2773 120.6 72.6773 130.9 72.6773 145.3V217H33.9773V67H72.6773V92.8ZM156.045 157.9C161.245 176.7 175.345 186.1 198.345 186.1C213.145 186.1 224.345 181.1 231.945 171.1L263.145 189.1C248.345 210.5 226.545 221.2 197.745 221.2C172.945 221.2 153.045 213.7 138.045 198.7C123.045 183.7 115.545 164.8 115.545 142C115.545 119.4 122.945 100.6 137.745 85.6C152.545 70.4 171.545 62.8 194.745 62.8C216.745 62.8 234.845 70.4 249.045 85.6C263.445 100.8 270.645 119.6 270.645 142C270.645 147 270.145 152.3 269.145 157.9H156.045ZM155.445 127.9H231.945C229.745 117.7 225.145 110.1 218.145 105.1C211.345 100.1 203.545 97.6 194.745 97.6C184.345 97.6 175.745 100.3 168.945 105.7C162.145 110.9 157.645 118.3 155.445 127.9ZM315.502 109.6C315.502 113.6 318.102 116.9 323.302 119.5C328.702 121.9 335.202 124.1 342.802 126.1C350.402 127.9 358.002 130.3 365.602 133.3C373.202 136.1 379.602 140.9 384.802 147.7C390.202 154.5 392.902 163 392.902 173.2C392.902 188.6 387.102 200.5 375.502 208.9C364.102 217.1 349.802 221.2 332.602 221.2C301.802 221.2 280.802 209.3 269.602 185.5L303.202 166.6C307.602 179.6 317.402 186.1 332.602 186.1C346.402 186.1 353.302 181.8 353.302 173.2C353.302 169.2 350.602 166 345.202 163.6C340.002 161 333.602 158.7 326.002 156.7C318.402 154.7 310.802 152.2 303.202 149.2C295.602 146.2 289.102 141.5 283.702 135.1C278.502 128.5 275.902 120.3 275.902 110.5C275.902 95.7 281.302 84.1 292.102 75.7C303.102 67.1 316.702 62.8 332.902 62.8C345.102 62.8 356.202 65.6 366.202 71.2C376.202 76.6 384.102 84.4 389.902 94.6L356.902 112.6C352.102 102.4 344.102 97.3 332.902 97.3C327.902 97.3 323.702 98.4 320.302 100.6C317.102 102.8 315.502 105.8 315.502 109.6ZM487.195 104.2H453.295V166.6C453.295 171.8 454.595 175.6 457.195 178C459.795 180.4 463.595 181.8 468.595 182.2C473.595 182.4 479.795 182.3 487.195 181.9V217C460.595 220 441.795 217.5 430.795 209.5C419.995 201.5 414.595 187.2 414.595 166.6V104.2H388.495V67H414.595V36.7L453.295 25V67H487.195V104.2ZM611.794 67H650.494V217H611.794V199.3C600.194 213.9 583.894 221.2 562.894 221.2C542.894 221.2 525.694 213.6 511.294 198.4C497.094 183 489.994 164.2 489.994 142C489.994 119.8 497.094 101.1 511.294 85.9C525.694 70.5 542.894 62.8 562.894 62.8C583.894 62.8 600.194 70.1 611.794 84.7V67ZM540.394 172.6C548.194 180.4 558.094 184.3 570.094 184.3C582.094 184.3 591.994 180.4 599.794 172.6C607.794 164.6 611.794 154.4 611.794 142C611.794 129.6 607.794 119.5 599.794 111.7C591.994 103.7 582.094 99.7 570.094 99.7C558.094 99.7 548.194 103.7 540.394 111.7C532.594 119.5 528.694 129.6 528.694 142C528.694 154.4 532.594 164.6 540.394 172.6ZM772.587 67H811.287V217H772.587V200.2C763.187 214.2 748.287 221.2 727.887 221.2C711.487 221.2 697.887 215.7 687.087 204.7C676.487 193.7 671.187 178.5 671.187 159.1V67H709.887V154.3C709.887 164.3 712.587 172 717.987 177.4C723.387 182.6 730.587 185.2 739.587 185.2C749.587 185.2 757.587 182.1 763.587 175.9C769.587 169.7 772.587 160.4 772.587 148V67ZM873.431 92.8C877.031 83.2 882.931 76 891.131 71.2C899.531 66.4 908.831 64 919.031 64V107.2C907.231 105.8 896.631 108.2 887.231 114.4C878.031 120.6 873.431 130.9 873.431 145.3V217H834.731V67H873.431V92.8ZM1038.1 67H1076.8V217H1038.1V199.3C1026.5 213.9 1010.2 221.2 989.198 221.2C969.198 221.2 951.998 213.6 937.598 198.4C923.398 183 916.298 164.2 916.298 142C916.298 119.8 923.398 101.1 937.598 85.9C951.998 70.5 969.198 62.8 989.198 62.8C1010.2 62.8 1026.5 70.1 1038.1 84.7V67ZM966.698 172.6C974.498 180.4 984.398 184.3 996.398 184.3C1008.4 184.3 1018.3 180.4 1026.1 172.6C1034.1 164.6 1038.1 154.4 1038.1 142C1038.1 129.6 1034.1 119.5 1026.1 111.7C1018.3 103.7 1008.4 99.7 996.398 99.7C984.398 99.7 974.498 103.7 966.698 111.7C958.898 119.5 954.998 129.6 954.998 142C954.998 154.4 958.898 164.6 966.698 172.6ZM1183.29 62.8C1199.69 62.8 1213.19 68.3 1223.79 79.3C1234.59 90.3 1239.99 105.5 1239.99 124.9V217H1201.29V129.7C1201.29 119.7 1198.59 112.1 1193.19 106.9C1187.79 101.5 1180.59 98.8 1171.59 98.8C1161.59 98.8 1153.59 101.9 1147.59 108.1C1141.59 114.3 1138.59 123.6 1138.59 136V217H1099.89V67H1138.59V83.8C1147.99 69.8 1162.89 62.8 1183.29 62.8ZM1346.84 104.2H1312.94V166.6C1312.94 171.8 1314.24 175.6 1316.84 178C1319.44 180.4 1323.24 181.8 1328.24 182.2C1333.24 182.4 1339.44 182.3 1346.84 181.9V217C1320.24 220 1301.44 217.5 1290.44 209.5C1279.64 201.5 1274.24 187.2 1274.24 166.6V104.2H1248.14V67H1274.24V36.7L1312.94 25V67H1346.84V104.2ZM1394.6 109.6C1394.6 113.6 1397.2 116.9 1402.4 119.5C1407.8 121.9 1414.3 124.1 1421.9 126.1C1429.5 127.9 1437.1 130.3 1444.7 133.3C1452.3 136.1 1458.7 140.9 1463.9 147.7C1469.3 154.5 1472 163 1472 173.2C1472 188.6 1466.2 200.5 1454.6 208.9C1443.2 217.1 1428.9 221.2 1411.7 221.2C1380.9 221.2 1359.9 209.3 1348.7 185.5L1382.3 166.6C1386.7 179.6 1396.5 186.1 1411.7 186.1C1425.5 186.1 1432.4 181.8 1432.4 173.2C1432.4 169.2 1429.7 166 1424.3 163.6C1419.1 161 1412.7 158.7 1405.1 156.7C1397.5 154.7 1389.9 152.2 1382.3 149.2C1374.7 146.2 1368.2 141.5 1362.8 135.1C1357.6 128.5 1355 120.3 1355 110.5C1355 95.7 1360.4 84.1 1371.2 75.7C1382.2 67.1 1395.8 62.8 1412 62.8C1424.2 62.8 1435.3 65.6 1445.3 71.2C1455.3 76.6 1463.2 84.4 1469 94.6L1436 112.6C1431.2 102.4 1423.2 97.3 1412 97.3C1407 97.3 1402.8 98.4 1399.4 100.6C1396.2 102.8 1394.6 105.8 1394.6 109.6Z" fill="#172A1C"/>
</svg>
