<svg width="27" height="27" viewBox="0 0 27 27" fill="none" xmlns="http://www.w3.org/2000/svg">
<path d="M3.375 19.125H23.625C24.2438 19.125 24.75 19.6312 24.75 20.25C24.75 20.8688 24.2438 21.375 23.625 21.375H3.375C2.75625 21.375 2.25 20.8688 2.25 20.25C2.25 19.6312 2.75625 19.125 3.375 19.125ZM15.57 8.76375C15.6825 8.49375 15.75 8.19 15.75 7.875C15.75 6.6375 14.7375 5.625 13.5 5.625C12.2625 5.625 11.25 6.6375 11.25 7.875C11.25 8.19 11.3175 8.49375 11.43 8.76375C7.03125 9.675 3.67875 13.4212 3.375 18H23.625C23.3212 13.4212 19.9688 9.675 15.57 8.76375Z" fill="black" fill-opacity="0.54"/>
</svg>
