<svg width="112" height="112" viewBox="0 0 112 112" fill="none" xmlns="http://www.w3.org/2000/svg">
<rect width="111.394" height="111.394" rx="55.6969" fill="#EDFAE3"/>
<path d="M56.0002 26.834C39.9293 26.834 26.8335 39.9298 26.8335 56.0006C26.8335 72.0715 39.9293 85.1673 56.0002 85.1673C72.071 85.1673 85.1668 72.0715 85.1668 56.0006C85.1668 39.9298 72.071 26.834 56.0002 26.834ZM68.6877 66.4131C68.2793 67.1131 67.5502 67.4923 66.7918 67.4923C66.4127 67.4923 66.0335 67.4048 65.6835 67.1715L56.6418 61.7756C54.396 60.434 52.7335 57.4881 52.7335 54.8923V42.934C52.7335 41.7382 53.7252 40.7465 54.921 40.7465C56.1168 40.7465 57.1085 41.7382 57.1085 42.934V54.8923C57.1085 55.9423 57.9835 57.4881 58.8877 58.0131L67.9293 63.409C68.9793 64.0215 69.3293 65.3631 68.6877 66.4131Z" fill="#06C167"/>
</svg>
