<svg width="81" height="63" viewBox="0 0 81 63" fill="none" xmlns="http://www.w3.org/2000/svg">
<path d="M1.35933 18.7799C2.75035 17.6587 4.78337 17.9257 5.90689 19.3138L10.2404 24.7596C11.364 26.1477 11.0965 28.1765 9.70543 29.2977C8.31442 30.4189 6.28139 30.1519 5.15788 28.7638L0.824323 23.2647C-0.299191 21.8765 -0.0316877 19.8477 1.35933 18.7799Z" fill="#FACED8"/>
<path d="M1.19609 0.732827L1.30309 0.679437C2.69411 -0.38836 4.67363 -0.1748 5.74365 1.15995L16.9253 15.2015C17.9953 16.5896 17.7813 18.565 16.4438 19.6328L16.3368 19.7396C14.9458 20.8074 12.9662 20.5938 11.8962 19.2591L0.661082 5.21757C-0.408931 3.82944 -0.194928 1.85401 1.19609 0.732827Z" fill="#FACED8"/>
<path d="M18.6883 5.00451C20.0793 3.88333 22.1123 4.15028 23.2358 5.53841L27.5694 10.9842C28.6929 12.3723 28.4254 14.4011 27.0344 15.5223C25.6434 16.6435 23.6103 16.3765 22.4868 14.9884L18.1533 9.54265C17.0833 8.10113 17.2973 6.07231 18.6883 5.00451Z" fill="#FACED8"/>
<path d="M40.6749 19.6816C22.3776 19.6816 7.39745 34.1503 6.64844 52.2494H74.7548C73.9523 34.2037 58.9721 19.6816 40.6749 19.6816ZM50.4655 35.3249C50.3585 36.7664 49.7165 38.1011 48.593 39.0621L41.5309 45.1486L40.7819 45.9494L40.6749 45.896L40.5679 45.9494L39.7654 45.0952L32.7568 39.0621C30.5097 37.0867 30.2422 33.6698 32.2218 31.374L32.5428 31.0537C34.5223 28.7579 37.9463 28.5444 40.2469 30.5198L40.7284 30.9469L41.2099 30.5198C43.5104 28.5444 46.9344 28.8113 48.914 31.0537L49.235 31.374C50.091 32.4952 50.5725 33.8833 50.4655 35.3249Z" fill="white"/>
<path d="M47.784 35.1115C47.7305 35.859 47.4095 36.5531 46.821 37.0336L40.7754 42.2658L40.6684 42.159L40.5614 42.2658L34.4623 37.0336C33.2853 36.0192 33.1783 34.2573 34.1948 33.1361L34.5158 32.8158C35.5323 31.6412 37.2979 31.5344 38.4214 32.5488L40.6684 34.5243L42.9154 32.6022C43.5039 32.1217 44.1994 31.8548 44.9484 31.9082C45.6975 31.9616 46.3395 32.2819 46.8745 32.8692L47.1955 33.1895C47.6235 33.67 47.8375 34.4175 47.784 35.1115Z" fill="white"/>
<path d="M81.1719 60.3651V63.5684H0.171875V60.3651C0.171875 58.0159 1.61639 55.9337 3.70292 55.0795C4.34493 54.8125 5.09394 54.6523 5.84295 54.6523H75.4473C76.1963 54.6523 76.9453 54.8125 77.5873 55.0795C79.7274 55.9337 81.1719 57.9625 81.1719 60.3651Z" fill="white"/>
</svg>
