<svg width="60" height="62" viewBox="0 0 60 62" fill="none" xmlns="http://www.w3.org/2000/svg">
<g clip-path="url(#clip0_12738_15820)">
<rect x="0.386719" y="0.128906" width="59.2216" height="60.9634" rx="29.6108" fill="#6B2B32"/>
<path d="M32.9892 60.9041C25.0742 61.7554 17.3004 59.4853 11.1286 54.472C5.28652 49.7425 1.51744 43.1211 0.386719 35.7431L16.4995 33.9932L20.1273 37.5403L18.8081 45.2494C18.6196 46.2899 18.9965 47.3777 19.8917 48.0398C20.4099 48.4182 21.0224 48.6547 21.6349 48.6547C22.106 48.6547 22.53 48.5601 22.9541 48.3236L29.8797 44.6346L36.8525 48.3236C37.2294 48.5128 37.7006 48.6074 38.1246 48.6074C38.7371 48.6074 39.3495 48.4182 39.8678 47.9925C40.7158 47.3304 41.0927 46.3372 40.9514 45.2494L39.6322 37.493L45.2858 31.9595C45.6156 31.6284 45.8983 31.2028 45.9925 30.7298L59.5141 29.2637C60.5035 45.2021 48.8665 59.2015 32.9892 60.9041Z" fill="#E85666"/>
<path d="M43.4933 30.2107L42.5039 31.1566L37.7454 35.8389C37.2272 36.3591 36.9916 37.0685 37.1329 37.778L38.4992 45.7235C38.5463 45.9127 38.4521 46.0073 38.3579 46.0546C38.3108 46.1019 38.1694 46.1492 38.0281 46.1019L30.914 42.3656C30.3015 42.0345 29.5477 42.0345 28.8881 42.3656L21.774 46.1019C21.6326 46.1965 21.4913 46.1019 21.4442 46.0546C21.3971 46.0073 21.3028 45.9127 21.3028 45.7235L22.6691 37.778C22.8105 37.0685 22.5749 36.3591 22.0566 35.8389L19.7952 33.616L18.5231 32.3863L17.2511 31.1566L16.3088 30.2107C16.1675 30.0688 16.2146 29.9743 16.2146 29.8797C16.2146 29.8324 16.3088 29.6905 16.4501 29.6905L24.4123 28.5554C25.119 28.4608 25.7315 27.9879 26.0613 27.373L29.5948 20.0896C29.689 19.9477 29.7832 19.9004 29.8775 19.9004C29.9246 19.9004 30.0659 19.9477 30.1602 20.0896L33.7408 27.3257C34.0706 27.9879 34.683 28.4135 35.3897 28.5081L38.0752 28.8865L43.3519 29.6432C43.399 29.6432 43.399 29.6432 43.4461 29.6905C43.5404 29.7378 43.5875 29.8324 43.5875 29.8797C43.5875 29.9743 43.6346 30.1161 43.4933 30.2107Z" fill="#E85666"/>
<path d="M29.8802 17.3061C28.642 17.3061 27.6445 16.3048 27.6445 15.0618V7.56946C27.6445 6.32648 28.642 5.3252 29.8802 5.3252C31.1184 5.3252 32.1158 6.32648 32.1158 7.56946V15.0618C32.1158 16.3048 31.1184 17.3061 29.8802 17.3061Z" fill="#FEC5CB"/>
<path d="M40.6106 13.0596C41.8488 13.0596 42.8463 14.0609 42.8463 15.3038V19.8959C42.8463 21.1389 41.8488 22.1402 40.6106 22.1402C39.3724 22.1402 38.375 21.1389 38.375 19.8959V15.3038C38.375 14.0609 39.3724 13.0596 40.6106 13.0596Z" fill="#FEC5CB"/>
<path d="M19.3888 13.0596C20.627 13.0596 21.6245 14.0609 21.6245 15.3038V19.8959C21.6245 21.1389 20.627 22.1402 19.3888 22.1402C18.1506 22.1402 17.1532 21.1389 17.1532 19.8959V15.3038C17.1188 14.0609 18.1506 13.0596 19.3888 13.0596Z" fill="#FEC5CB"/>
</g>
<defs>
<clipPath id="clip0_12738_15820">
<rect x="0.386719" y="0.128906" width="59.2216" height="60.9634" rx="29.6108" fill="white"/>
</clipPath>
</defs>
</svg>
