<svg width="1513" height="221" viewBox="0 0 1513 221" fill="none" xmlns="http://www.w3.org/2000/svg">
<path d="M-9.70781 160.8H37.6922C37.9922 173.1 45.1922 184.8 67.9922 184.8C88.6922 184.8 95.8922 178.5 95.8922 170.4C95.8922 160.8 81.4922 158.1 54.7922 155.1C-0.407812 148.8 -4.90781 120.9 -4.90781 104.4C-4.90781 77.7 20.2922 52.8 67.6922 52.8C105.792 52.8 136.692 70.2 139.092 108H91.6922C91.0922 96.3 84.1922 88.8 66.7922 88.8C49.6922 88.8 43.0922 94.5 43.0922 102.3C43.0922 107.7 46.3922 112.8 72.4922 115.2C116.292 119.4 143.892 133.2 143.892 167.4C143.892 197.7 115.092 220.8 66.7922 220.8C18.1922 220.8 -7.60781 198 -9.70781 160.8ZM266.332 96H223.132V162C223.132 177 223.732 177.6 237.532 177.6H266.332V216H221.932C190.132 216 175.132 205.5 175.132 167.4V96H146.332V57.6H175.132V14.4H223.132V57.6H266.332V96ZM331.98 91.5C334.68 92.1 336.18 89.4 337.08 87.3C346.38 66.3 355.38 55.2 393.48 55.2V101.4C349.98 98.4 335.88 114.3 335.88 154.5V216H287.88V57.6H335.88V64.8C335.88 70.2 334.08 75.6 331.68 80.4C329.28 85.2 327.48 90.6 331.98 91.5ZM557.789 132C557.789 136.5 557.489 144.3 556.889 148.8H441.989C445.289 168.9 458.789 182.4 478.889 182.4C493.889 182.4 503.189 174.9 507.089 163.2H554.789C548.489 193.2 523.889 220.8 479.189 220.8C423.989 220.8 394.589 183.6 394.589 136.8C394.589 87.6 425.189 52.8 478.289 52.8C518.489 52.8 557.789 77.4 557.789 132ZM479.189 90C456.389 90 446.789 102.9 443.189 120H510.689C508.889 100.8 496.889 90 479.189 90ZM731.813 132C731.813 136.5 731.513 144.3 730.913 148.8H616.013C619.313 168.9 632.813 182.4 652.913 182.4C667.913 182.4 677.213 174.9 681.113 163.2H728.813C722.513 193.2 697.913 220.8 653.213 220.8C598.013 220.8 568.613 183.6 568.613 136.8C568.613 87.6 599.213 52.8 652.313 52.8C692.513 52.8 731.813 77.4 731.813 132ZM653.213 90C630.413 90 620.813 102.9 617.213 120H684.713C682.913 100.8 670.913 90 653.213 90ZM849.34 96H806.14V162C806.14 177 806.74 177.6 820.54 177.6H849.34V216H804.94C773.14 216 758.14 205.5 758.14 167.4V96H729.34V57.6H758.14V14.4H806.14V57.6H849.34V96ZM959.658 -8.58307e-06H1007.66V216H959.658V-8.58307e-06ZM1106.13 52.8C1158.33 52.8 1190.13 90.6 1190.13 136.8C1190.13 183 1158.33 220.8 1106.13 220.8C1053.93 220.8 1022.13 183 1022.13 136.8C1022.13 90.6 1053.93 52.8 1106.13 52.8ZM1106.13 180C1129.83 180 1142.13 160.2 1142.13 136.8C1142.13 113.4 1129.83 93.6 1106.13 93.6C1082.43 93.6 1070.13 113.4 1070.13 136.8C1070.13 160.2 1082.43 180 1106.13 180ZM1185.38 57.6H1236.38L1264.88 159.6C1266.38 165.3 1266.98 174 1266.98 180.9C1266.98 183.9 1267.58 187.5 1271.78 187.5C1275.98 187.5 1276.58 183.9 1276.58 180.9C1276.58 174 1277.18 165.3 1278.68 159.6L1307.18 57.6H1358.18L1305.38 216H1238.18L1185.38 57.6ZM1516.68 132C1516.68 136.5 1516.38 144.3 1515.78 148.8H1400.88C1404.18 168.9 1417.68 182.4 1437.78 182.4C1452.78 182.4 1462.08 174.9 1465.98 163.2H1513.68C1507.38 193.2 1482.78 220.8 1438.08 220.8C1382.88 220.8 1353.48 183.6 1353.48 136.8C1353.48 87.6 1384.08 52.8 1437.18 52.8C1477.38 52.8 1516.68 77.4 1516.68 132ZM1438.08 90C1415.28 90 1405.68 102.9 1402.08 120H1469.58C1467.78 100.8 1455.78 90 1438.08 90Z" fill="#4E0B2B"/>
</svg>
