<svg width="201" height="162" viewBox="0 0 201 162" fill="none" xmlns="http://www.w3.org/2000/svg">
<path d="M21.566 122.192L23.0443 127.427L26.1617 126.551L24.7256 121.465L27.2045 120.769L28.6405 125.854L33.711 124.43L34.4396 127.01L21.294 130.703L19.0871 122.888L21.566 122.192Z" fill="#FBF6F6"/>
<path d="M28.8121 103.469C30.285 104.725 31.1017 106.334 31.2621 108.296C31.4226 110.258 30.8783 111.979 29.6292 113.459C28.366 114.927 26.7429 115.743 24.7597 115.906C22.7765 116.068 21.049 115.528 19.5771 114.284C18.0913 113.029 17.2681 111.42 17.1076 109.458C16.9472 107.496 17.498 105.775 18.76 104.294C20.0092 102.814 21.6253 101.993 23.6085 101.83C25.5917 101.667 27.3262 102.213 28.8121 103.469ZM27.6479 111.731C28.4089 110.824 28.7387 109.751 28.6373 108.512C28.536 107.273 28.0362 106.268 27.138 105.497C26.2269 104.727 25.1232 104.395 23.827 104.502C22.5308 104.608 21.4958 105.115 20.7218 106.023C19.9479 106.932 19.6117 108.005 19.713 109.244C19.8143 110.484 20.3206 111.488 21.2317 112.258C22.1429 113.028 23.2466 113.359 24.5428 113.253C25.839 113.147 26.874 112.639 27.6479 111.731Z" fill="#FBF6F6"/>
<path d="M30.7379 87.2358C31.9086 88.7756 32.363 90.5213 32.1009 92.4728C31.8388 94.4243 30.9397 95.991 29.4035 97.1729C27.8561 98.3404 26.0963 98.7937 24.1241 98.5329C22.1519 98.2722 20.5796 97.3783 19.4072 95.8513C18.2236 94.3097 17.7628 92.5632 18.0249 90.6117C18.2869 88.6602 19.1925 87.0943 20.7416 85.9141C22.2778 84.7321 24.032 84.2715 26.0042 84.5323C27.9764 84.793 29.5543 85.6942 30.7379 87.2358ZM27.8368 95.0646C28.7739 94.3392 29.3251 93.3602 29.4906 92.1277C29.6562 90.8951 29.3825 89.8071 28.6695 88.8635C27.9438 87.9182 26.9364 87.3603 25.6473 87.1899C24.3583 87.0195 23.2389 87.2961 22.2889 88.0199C21.339 88.7436 20.7813 89.7217 20.6158 90.9542C20.4503 92.1868 20.7304 93.2757 21.4562 94.221C22.182 95.1663 23.1894 95.7241 24.4784 95.8946C25.7674 96.065 26.8869 95.7883 27.8368 95.0646Z" fill="#FBF6F6"/>
<path d="M22.8096 73.492C23.4342 71.7332 24.5738 70.485 26.2285 69.7476C27.8875 68.9979 29.6243 68.9418 31.4388 69.5793C33.2533 70.2169 34.5694 71.3455 35.3869 72.9654C36.2088 74.573 36.3074 76.2562 35.6828 78.015L33.8741 83.1083L21.0008 78.5853L22.8096 73.492ZM33.2553 77.1621C33.65 76.0506 33.6032 75.0176 33.1148 74.0629C32.6142 73.1039 31.7692 72.4155 30.58 71.9977C29.3907 71.5799 28.3047 71.5898 27.3218 72.0276C26.3267 72.461 25.6318 73.2334 25.2371 74.3449L24.3262 76.9099L32.3444 79.7271L33.2553 77.1621Z" fill="#FBF6F6"/>
<path d="M47.0467 58.463C46.239 59.5442 45.3195 60.2762 44.2883 60.659C43.2466 61.0341 42.1959 61.0635 41.1362 60.747L41.4311 58.1075C42.8657 58.5077 44.0489 58.084 44.9809 56.8365C45.4313 56.2335 45.6518 55.7106 45.6425 55.2677C45.6331 54.8248 45.4615 54.4798 45.1277 54.2326C44.7417 53.9468 44.3163 53.8982 43.8514 54.0868C43.376 54.2677 42.6831 54.7073 41.7726 55.4056C41.2616 55.7861 40.8049 56.0938 40.4026 56.3287C40.008 56.5533 39.5627 56.7482 39.0665 56.9137C38.5676 57.061 38.0644 57.084 37.5568 56.9826C37.0493 56.8813 36.5451 56.6453 36.0444 56.2745C35.0534 55.5408 34.526 54.6094 34.4622 53.4803C34.3957 52.3331 34.7313 51.2657 35.4691 50.278C36.1292 49.3943 36.9268 48.782 37.862 48.4411C38.7945 48.082 39.7865 48.0011 40.838 48.1984L40.535 50.7836C39.27 50.5251 38.2803 50.8741 37.5658 51.8305C37.2319 52.2776 37.0721 52.7083 37.0866 53.1226C37.0984 53.5189 37.266 53.8368 37.5894 54.0762C37.9336 54.3311 38.3201 54.3993 38.7489 54.2808C39.175 54.1442 39.8161 53.7631 40.6722 53.1376C41.025 52.8821 41.2948 52.6944 41.4817 52.5744C41.6659 52.4363 41.9293 52.268 42.2719 52.0696C42.6118 51.8531 42.8922 51.7055 43.113 51.6268C43.3416 51.5377 43.6222 51.4548 43.9549 51.3782C44.2875 51.3016 44.5866 51.2808 44.852 51.3159C45.1252 51.3406 45.4246 51.4169 45.7502 51.545C46.0731 51.6549 46.391 51.8257 46.704 52.0574C47.7158 52.8066 48.2433 53.7704 48.2865 54.9488C48.3375 56.1168 47.9242 57.2882 47.0467 58.463Z" fill="#FBF6F6"/>
<path d="M58.5258 46.2744L56.2569 45.0308L52.2568 48.7102L53.3213 51.0615L51.185 53.0264L45.4381 39.8097L47.8898 37.5547L60.6764 44.2962L58.5258 46.2744ZM51.1812 46.2897L53.934 43.7577L48.7744 40.9438L51.1812 46.2897Z" fill="#FBF6F6"/>
<path d="M64.6343 28.9827L60.0051 31.8744L61.7239 34.6058L66.2208 31.7967L67.5875 33.9687L63.0906 36.7778L65.8862 41.2206L63.6047 42.6458L56.3569 31.1276L63.2676 26.8107L64.6343 28.9827Z" fill="#FBF6F6"/>
<path d="M76.2827 33.0229L81.6093 30.8487L82.5838 33.2214L74.7654 36.4127L69.5975 23.8303L77.3256 20.6759L78.3001 23.0486L73.0638 25.1859L74.1638 27.8642L78.9487 25.9111L79.9085 28.2478L75.1236 30.2009L76.2827 33.0229Z" fill="#FBF6F6"/>
<path d="M92.7071 16.9395L93.2609 19.4433L89.6603 20.2364L92.0432 31.0105L89.4141 31.5896L87.0312 20.8156L83.4497 21.6046L82.8959 19.1007L92.7071 16.9395Z" fill="#FBF6F6"/>
<path d="M109.662 15.9885L105.303 24.4603L105.506 29.7598L102.835 29.8642L102.632 24.5647L97.6547 16.4577L100.696 16.3389L103.876 21.8915L106.622 16.1074L109.662 15.9885Z" fill="#FBF6F6"/>
<path d="M127.81 33.402C125.829 32.8604 124.374 31.7574 123.446 30.093C122.517 28.4285 122.319 26.6346 122.851 24.7112C123.386 22.7753 124.479 21.3344 126.13 20.3886C127.784 19.4302 129.601 19.2218 131.582 19.7634C132.773 20.089 133.793 20.6699 134.64 21.5061C135.504 22.3333 136.086 23.2986 136.388 24.4021L133.793 25.0829C133.629 24.4068 133.291 23.8241 132.779 23.3349C132.271 22.8331 131.64 22.4794 130.888 22.2738C129.609 21.9241 128.464 22.041 127.453 22.6244C126.455 23.2113 125.779 24.1416 125.427 25.4156C125.078 26.677 125.182 27.8137 125.738 28.8255C126.307 29.8408 127.231 30.5232 128.51 30.8728C129.262 31.0785 129.984 31.1012 130.676 30.941C131.383 30.7718 131.973 30.4427 132.445 29.9539L134.326 31.8584C133.499 32.6533 132.507 33.1947 131.348 33.4826C130.193 33.7579 129.014 33.731 127.81 33.402Z" fill="#FBF6F6"/>
<path d="M139.436 34.9945L144.606 37.5053L143.476 39.8105L135.887 36.1251L141.881 23.9008L149.383 27.5436L148.252 29.8488L143.17 27.3805L141.894 29.9825L146.538 32.238L145.425 34.5083L140.78 32.2528L139.436 34.9945Z" fill="#FBF6F6"/>
<path d="M153.105 46.6223L153.692 41.1951L152.04 39.99L149.236 43.7989L147.066 42.2151L155.144 31.243L159.548 34.4566C160.565 35.1988 161.168 36.1853 161.358 37.4162C161.548 38.647 161.273 39.764 160.535 40.7672C160.035 41.4464 159.375 41.9371 158.557 42.2392C157.745 42.5308 156.912 42.5895 156.057 42.4154L155.449 48.3324L153.105 46.6223ZM155.826 34.8488L153.437 38.0934L155.67 39.7232C156.079 40.0216 156.546 40.1212 157.07 40.0219C157.602 39.9122 158.034 39.6327 158.364 39.1834C158.695 38.734 158.829 38.2455 158.766 37.7178C158.704 37.1901 158.468 36.777 158.059 36.4786L155.826 34.8488Z" fill="#FBF6F6"/>
<path d="M173.958 48.0885L172.091 49.8556L169.553 47.1949L161.516 54.7988L159.662 52.856L167.699 45.2521L165.175 42.6054L167.043 40.8383L173.958 48.0885Z" fill="#FBF6F6"/>
<path d="M177.406 52.9222L178.947 55.1192L167.749 62.9129L166.209 60.7159L177.406 52.9222Z" fill="#FBF6F6"/>
<path d="M184.823 71.0551L182.401 66.1817L179.498 67.6144L181.851 72.3485L179.543 73.4877L177.19 68.7536L172.469 71.0838L171.276 68.682L183.515 62.6407L187.131 69.9159L184.823 71.0551Z" fill="#FBF6F6"/>
<path d="M189.388 76.3312L190.207 78.8841L177.201 83.0374L176.381 80.4846L189.388 76.3312Z" fill="#FBF6F6"/>
<path d="M181.823 91.8255L182.737 97.4829L180.195 97.8925L178.854 89.5886L192.336 87.4164L193.661 95.6244L191.119 96.034L190.221 90.4725L187.351 90.9349L188.172 96.017L185.668 96.4204L184.847 91.3383L181.823 91.8255Z" fill="#FBF6F6"/>
<path d="M193.83 107.905C193.781 109.769 193.084 111.306 191.738 112.516C190.392 113.739 188.757 114.326 186.833 114.278C184.909 114.229 183.307 113.561 182.027 112.272C180.746 110.996 180.131 109.426 180.18 107.561L180.322 102.162L193.972 102.506L193.83 107.905ZM182.754 107.626C182.723 108.804 183.088 109.772 183.848 110.53C184.622 111.288 185.639 111.683 186.9 111.714C188.161 111.746 189.191 111.403 189.991 110.684C190.803 109.966 191.225 109.018 191.256 107.84L191.328 105.121L182.825 104.907L182.754 107.626Z" fill="#FBF6F6"/>
<path d="M157.693 98.951C161.189 128.624 140.217 155.467 110.873 158.924C81.5291 162.381 54.8928 141.147 51.397 111.474C47.9011 81.8008 68.8734 54.958 98.2173 51.501C127.561 48.0439 154.197 69.2779 157.693 98.951Z" fill="#FBF6F6" stroke="#FBF6F6" stroke-width="1.86983"/>
<path d="M109.402 122.848C108.064 124.384 105.759 124.656 104.099 123.453L103.859 123.281C92.4122 115.141 84.932 109.809 84.2875 102.134C84.0111 98.7708 85.3469 95.3572 87.9023 93.1384C92.6862 88.9789 99.3045 89.8773 103.25 93.5276C106.24 89.0602 112.466 86.6287 118.088 89.5822C121.089 91.1464 123.182 94.1561 123.694 97.4917C124.871 105.104 118.815 112.03 109.578 122.648L109.402 122.848Z" fill="#4E0B2B"/>
<path d="M15.0011 140.278L36.2649 137.985L81.7236 133.137L204.83 119.977C207.556 170.352 170.364 214.838 119.63 220.156C119.043 220.209 118.457 220.261 117.871 220.313C97.3538 222.146 77.4332 217.425 60.1505 206.954C56.4064 204.728 52.8403 202.289 49.4347 199.442C32.0332 185.436 20.4833 166.377 16.0061 144.915C15.4757 143.387 15.3361 141.823 15.0011 140.278Z" fill="#4E0B2B"/>
</svg>
