<svg width="21" height="22" viewBox="0 0 21 22" fill="none" xmlns="http://www.w3.org/2000/svg">
<g clip-path="url(#clip0_12748_14087)">
<rect y="0.705078" width="20.0664" height="20.6566" rx="10.0332" fill="#6B2B32"/>
<path d="M11.0469 21.2971C8.36499 21.5855 5.73098 20.8163 3.63973 19.1177C1.66023 17.5151 0.383129 15.2716 0 12.7716L5.45959 12.1787L6.6888 13.3806L6.24182 15.9927C6.17796 16.3453 6.30567 16.7139 6.60898 16.9382C6.78458 17.0664 6.99211 17.1465 7.19964 17.1465C7.35928 17.1465 7.50295 17.1145 7.64663 17.0344L9.99329 15.7844L12.3559 17.0344C12.4836 17.0985 12.6433 17.1305 12.7869 17.1305C12.9945 17.1305 13.202 17.0664 13.3776 16.9222C13.665 16.6978 13.7927 16.3613 13.7448 15.9927L13.2978 13.3646L15.2134 11.4896C15.3252 11.3774 15.421 11.2332 15.4529 11.073L20.0345 10.5762C20.3697 15.9767 16.4267 20.7202 11.0469 21.2971Z" fill="#E85666"/>
<path d="M14.6088 10.8978L14.2736 11.2183L12.6613 12.8048C12.4857 12.9811 12.4058 13.2215 12.4537 13.4619L12.9167 16.1541C12.9326 16.2182 12.9007 16.2503 12.8688 16.2663C12.8528 16.2823 12.8049 16.2983 12.757 16.2823L10.3465 15.0163C10.139 14.9041 9.88357 14.9041 9.66008 15.0163L7.24956 16.2823C7.20166 16.3144 7.15377 16.2823 7.13781 16.2663C7.12185 16.2503 7.08992 16.2182 7.08992 16.1541L7.55287 13.4619C7.60076 13.2215 7.52094 12.9811 7.34534 12.8048L6.57908 12.0516L6.14806 11.635L5.71704 11.2183L5.39776 10.8978C5.34987 10.8497 5.36584 10.8177 5.36584 10.7856C5.36584 10.7696 5.39776 10.7215 5.44565 10.7215L8.14352 10.3369C8.38298 10.3049 8.59051 10.1446 8.70225 9.93629L9.89953 7.4684C9.93146 7.42032 9.96339 7.4043 9.99532 7.4043C10.0113 7.4043 10.0592 7.42032 10.0911 7.4684L11.3043 9.92027C11.4161 10.1446 11.6236 10.2888 11.8631 10.3209L12.773 10.4491L14.5609 10.7055C14.5769 10.7055 14.5769 10.7055 14.5929 10.7215C14.6248 10.7376 14.6408 10.7696 14.6408 10.7856C14.6408 10.8177 14.6567 10.8658 14.6088 10.8978Z" fill="#E85666"/>
<path d="M9.99189 6.52538C9.57234 6.52538 9.23438 6.18611 9.23438 5.76494V3.22626C9.23438 2.80509 9.57234 2.46582 9.99189 2.46582C10.4114 2.46582 10.7494 2.80509 10.7494 3.22626V5.76494C10.7494 6.18611 10.4114 6.52538 9.99189 6.52538Z" fill="#FEC5CB"/>
<path d="M13.6286 5.08643C14.0482 5.08643 14.3861 5.4257 14.3861 5.84686V7.40283C14.3861 7.824 14.0482 8.16327 13.6286 8.16327C13.2091 8.16327 12.8711 7.824 12.8711 7.40283V5.84686C12.8711 5.4257 13.2091 5.08643 13.6286 5.08643Z" fill="#FEC5CB"/>
<path d="M6.43749 5.08643C6.85703 5.08643 7.195 5.4257 7.195 5.84686V7.40283C7.195 7.824 6.85703 8.16327 6.43749 8.16327C6.01794 8.16327 5.67997 7.824 5.67997 7.40283V5.84686C5.66832 5.4257 6.01794 5.08643 6.43749 5.08643Z" fill="#FEC5CB"/>
</g>
<defs>
<clipPath id="clip0_12748_14087">
<rect y="0.705078" width="20.0664" height="20.6566" rx="10.0332" fill="white"/>
</clipPath>
</defs>
</svg>
