<svg width="284" height="52" viewBox="0 0 284 52" fill="none" xmlns="http://www.w3.org/2000/svg">
<path d="M11.4107 17.5291L12.501 16.4178C13.7171 15.2017 15.73 15.2017 16.9881 16.5017L17.03 16.5646C18.0574 17.613 19.4203 18.1162 20.909 18.263C22.9428 18.4517 24.9138 19.542 26.2138 21.5129C27.6396 23.7774 27.6186 26.7967 26.1299 29.0403C25.5684 29.9282 24.8133 30.6776 23.9212 31.2324C23.029 31.7872 22.023 32.133 20.9783 32.244C19.9335 32.3549 18.8773 32.2281 17.8885 31.873C16.8998 31.5179 16.0042 30.9437 15.2687 30.1935C14.0945 29.0403 13.4236 27.5516 13.2558 26C13.0881 24.4694 12.48 23.0226 11.4107 21.9533C10.1946 20.7581 10.1946 18.7452 11.4107 17.5291ZM20.2171 34.387C17.7639 34.387 15.4784 33.4434 13.78 31.7031C12.3123 30.1935 11.3897 28.3064 11.1591 26.2516C11.0962 25.6226 10.9075 24.8048 10.4043 24.05C9.14622 25.7903 8.39139 27.8871 8.39139 30.1935C8.39139 33.6322 10.0688 36.6724 12.6478 38.5805H39.8426V36.4837C39.8426 28.9354 34.8314 22.5403 27.975 20.4436C29.8411 23.379 29.7992 27.3 27.8912 30.1935C26.2138 32.8144 23.3203 34.387 20.2171 34.387ZM30.9944 16.6904H33.6572C35.4814 16.6904 37.0749 17.9694 37.0749 20.2549V21.8065H39.6959V19.7097C39.6959 16.5646 36.9072 14.1743 33.6572 14.1743H30.9944C29.2541 14.1743 27.7654 12.455 27.7654 10.6937C27.7654 8.93243 29.2541 7.63244 30.9944 7.63244V5.03247C27.7654 5.03247 25.1654 7.63244 25.1654 10.8614C25.1654 14.0904 27.7654 16.6904 30.9944 16.6904ZM9.43976 16.6694C9.56557 16.4598 9.73331 16.2501 9.92201 16.0404L11.0123 14.9501C11.201 14.7614 11.4107 14.6146 11.6204 14.4678L8.66396 11.4695C8.95751 10.9034 8.85267 10.1695 8.39139 9.68726C8.09113 9.39498 7.68865 9.23143 7.26962 9.23143C6.8506 9.23143 6.44812 9.39498 6.14786 9.68726C5.85432 9.9808 5.70754 10.3373 5.68658 10.7147C5.30916 10.7356 4.95271 10.8824 4.65917 11.176C4.05111 11.784 4.05111 12.7904 4.65917 13.4195C5.14142 13.8808 5.85432 13.9856 6.44141 13.6921L9.43976 16.6694ZM38.5636 10.0437C39.633 8.97436 40.3039 7.5276 40.3039 5.91311H37.683C37.683 7.65341 36.2153 9.12114 34.475 9.12114V11.7211C38.3749 11.7211 41.4362 14.9082 41.4362 18.8081V23.9032H44.0362V18.8081C44.0466 16.9791 43.538 15.1847 42.5693 13.6333C41.6006 12.0819 40.2116 10.8372 38.5636 10.0437ZM10.4881 44.8707H39.8426C42.17 44.8707 44.0362 43.0046 44.0362 40.6772H6.29463C6.29463 41.7894 6.73645 42.8561 7.52288 43.6425C8.30932 44.4289 9.37595 44.8707 10.4881 44.8707Z" fill="#580A2E"/>
<path d="M105.292 27.6771C105.292 28.5669 104.939 29.4202 104.31 30.0494C103.68 30.6785 102.827 31.0319 101.937 31.0319H65.0345C64.1447 31.0319 63.2914 30.6785 62.6623 30.0494C62.0331 29.4202 61.6797 28.5669 61.6797 27.6771C61.6797 26.7874 62.0331 25.9341 62.6623 25.3049C63.2914 24.6758 64.1447 24.3223 65.0345 24.3223H101.937C102.827 24.3223 103.68 24.6758 104.31 25.3049C104.939 25.9341 105.292 26.7874 105.292 27.6771ZM70.0667 34.3868H65.0345C65.0345 37.056 66.0948 39.6159 67.9823 41.5034C69.8697 43.3908 72.4296 44.4512 75.0989 44.4512H91.8729C94.5421 44.4512 97.1021 43.3908 98.9895 41.5034C100.877 39.6159 101.937 37.056 101.937 34.3868H70.0667ZM68.3893 20.9675H65.0345V14.2579C65.0345 12.4784 65.7414 10.7718 66.9997 9.51354C68.258 8.25524 69.9646 7.54834 71.7441 7.54834H95.2277C97.0072 7.54834 98.7138 8.25524 99.9721 9.51354C101.23 10.7718 101.937 12.4784 101.937 14.2579V20.9675H68.3893ZM95.2277 15.9353C95.2277 16.3802 95.4044 16.8069 95.719 17.1214C96.0336 17.436 96.4602 17.6127 96.9051 17.6127C97.35 17.6127 97.7766 17.436 98.0912 17.1214C98.4058 16.8069 98.5825 16.3802 98.5825 15.9353C98.5825 15.4905 98.4058 15.0638 98.0912 14.7492C97.7766 14.4347 97.35 14.2579 96.9051 14.2579C96.4602 14.2579 96.0336 14.4347 95.719 14.7492C95.4044 15.0638 95.2277 15.4905 95.2277 15.9353ZM88.5181 12.5805C88.5181 13.0254 88.6948 13.4521 89.0094 13.7666C89.324 14.0812 89.7506 14.2579 90.1955 14.2579C90.6404 14.2579 91.067 14.0812 91.3816 13.7666C91.6962 13.4521 91.8729 13.0254 91.8729 12.5805C91.8729 12.1357 91.6962 11.709 91.3816 11.3944C91.067 11.0799 90.6404 10.9031 90.1955 10.9031C89.7506 10.9031 89.324 11.0799 89.0094 11.3944C88.6948 11.709 88.5181 12.1357 88.5181 12.5805ZM81.8085 15.9353C81.8085 16.3802 81.9852 16.8069 82.2998 17.1214C82.6144 17.436 83.041 17.6127 83.4859 17.6127C83.9308 17.6127 84.3574 17.436 84.672 17.1214C84.9866 16.8069 85.1633 16.3802 85.1633 15.9353C85.1633 15.4905 84.9866 15.0638 84.672 14.7492C84.3574 14.4347 83.9308 14.2579 83.4859 14.2579C83.041 14.2579 82.6144 14.4347 82.2998 14.7492C81.9852 15.0638 81.8085 15.4905 81.8085 15.9353ZM75.0989 12.5805C75.0989 13.0254 75.2756 13.4521 75.5902 13.7666C75.9048 14.0812 76.3314 14.2579 76.7763 14.2579C77.2212 14.2579 77.6478 14.0812 77.9624 13.7666C78.277 13.4521 78.4537 13.0254 78.4537 12.5805C78.4537 12.1357 78.277 11.709 77.9624 11.3944C77.6478 11.0799 77.2212 10.9031 76.7763 10.9031C76.3314 10.9031 75.9048 11.0799 75.5902 11.3944C75.2756 11.709 75.0989 12.1357 75.0989 12.5805ZM68.3893 15.9353C68.3893 16.3802 68.566 16.8069 68.8806 17.1214C69.1952 17.436 69.6218 17.6127 70.0667 17.6127C70.5116 17.6127 70.9382 17.436 71.2528 17.1214C71.5674 16.8069 71.7441 16.3802 71.7441 15.9353C71.7441 15.4905 71.5674 15.0638 71.2528 14.7492C70.9382 14.4347 70.5116 14.2579 70.0667 14.2579C69.6218 14.2579 69.1952 14.4347 68.8806 14.7492C68.566 15.0638 68.3893 15.4905 68.3893 15.9353Z" fill="#E35362"/>
<path d="M131.896 21.2822C131.896 20.8651 132.062 20.4652 132.357 20.1702C132.651 19.8753 133.051 19.7097 133.469 19.7097H143.533C143.95 19.7097 144.35 19.8753 144.645 20.1702C144.94 20.4652 145.106 20.8651 145.106 21.2822V30.7176C145.106 31.1347 144.94 31.5347 144.645 31.8296C144.35 32.1245 143.95 32.2902 143.533 32.2902H133.469C133.051 32.2902 132.651 32.1245 132.357 31.8296C132.062 31.5347 131.896 31.1347 131.896 30.7176V21.2822ZM135.041 29.145H141.96V22.8548H135.041V29.145ZM120.63 13.4509C122.171 9.96605 125.659 7.12915 129.852 7.12915H154.384C158.903 7.12915 163.819 10.8593 163.819 16.5645C163.819 19.8858 161.963 22.7007 160.661 24.1348C160.639 25.8584 160.708 28.1417 160.793 30.5855L160.819 31.3246C160.903 33.8155 160.992 36.404 160.992 38.5804C160.992 40.5933 160.784 42.4772 159.438 43.6598C158.771 44.2479 157.96 44.5341 157.142 44.6851C156.23 44.8278 155.307 44.8899 154.384 44.8707H129.223C126.257 44.8707 124.338 43.9806 123.354 42.3388C122.574 41.0399 122.602 39.524 122.615 38.7943L122.618 38.5804V24.1757C119.385 21.0306 119.136 16.8319 120.63 13.4509ZM129.852 10.2743C127.125 10.2743 124.64 12.1582 123.508 14.7215C122.407 17.2156 122.674 20.1311 125.209 22.2855C125.383 22.4332 125.522 22.6169 125.618 22.8238C125.714 23.0307 125.763 23.2559 125.763 23.4838V38.7911C125.763 39.6435 125.763 40.2379 126.049 40.7191C126.244 41.043 126.845 41.7255 129.226 41.7255H148.097C149.078 41.7255 149.745 41.6847 150.219 41.5934C150.676 41.5054 150.811 41.3953 150.849 41.3544C150.889 41.3167 151.003 41.1877 151.097 40.7317C151.191 40.2599 151.239 39.5837 151.239 38.5804C151.239 37.0487 151.226 35.3535 151.216 33.6426C151.174 30.4514 151.182 27.2598 151.239 24.0688C151.25 23.6663 151.416 23.2836 151.701 22.9995C151.952 22.7478 152.191 22.5214 152.424 22.3012C153.034 21.7225 153.569 21.2162 154.057 20.5022C154.654 19.6216 155.145 18.4359 155.145 16.5645C155.145 14.5013 154.208 12.9728 152.855 11.916C151.485 10.8716 149.816 10.296 148.093 10.2743H129.852Z" fill="#580A2E"/>
<path d="M201.302 25.0161C201.632 25.0638 201.968 24.9783 202.235 24.7785C202.502 24.5786 202.679 24.2808 202.727 23.9505C202.775 23.6202 202.689 23.2844 202.489 23.0171C202.29 22.7498 201.992 22.5728 201.661 22.5251C198.954 22.1351 195.739 24.3417 195.739 27.9674C195.739 28.3011 195.871 28.6211 196.107 28.857C196.343 29.093 196.663 29.2255 196.997 29.2255C197.33 29.2255 197.65 29.093 197.886 28.857C198.122 28.6211 198.255 28.3011 198.255 27.9674C198.255 25.9546 200.034 24.8324 201.302 25.0161ZM185.007 18.7887C178.926 23.5894 178.767 31.7265 181.618 37.2066C183.533 40.8901 187.217 44.1686 192.742 44.1686C194.113 44.1686 195.102 44.1309 195.882 44.1032C198.24 44.0126 198.667 43.9975 201.951 45.3109C206.319 47.0571 210.963 46.5388 214.843 44.1133C218.336 41.9293 220.341 36.8619 220.001 32.748C219.798 30.2772 219.981 29.311 220.218 28.0631C220.444 26.9473 220.593 25.8175 220.666 24.6814C220.935 20.6682 219.043 16.9016 218.014 15.1051C216.982 13.3086 215.246 10.5007 211.16 7.92167C207.806 5.80311 201.453 4.78912 196.425 7.55431C192.742 9.57978 190.9 11.4216 188.691 15.1026C187.853 16.4991 187.05 17.1734 185.007 18.7887ZM212.45 27.1698C212.45 28.6551 212.158 30.1258 211.59 31.4979C211.021 32.8701 210.188 34.1169 209.138 35.1671C208.088 36.2173 206.841 37.0504 205.469 37.6188C204.097 38.1872 202.626 38.4797 201.141 38.4797C199.655 38.4797 198.185 38.1872 196.813 37.6188C195.44 37.0504 194.194 36.2173 193.143 35.1671C192.093 34.1169 191.26 32.8701 190.692 31.4979C190.123 30.1258 189.831 28.6551 189.831 27.1698C189.831 24.1703 191.022 21.2936 193.143 19.1726C195.264 17.0515 198.141 15.86 201.141 15.86C204.14 15.86 207.017 17.0515 209.138 19.1726C211.259 21.2936 212.45 24.1703 212.45 27.1698Z" fill="#E35362"/>
<path d="M277.322 21.2824H275.677C275.281 16.9871 273.296 12.9944 270.109 10.0874C266.922 7.1804 262.765 5.56885 258.451 5.56885C254.138 5.56885 249.98 7.1804 246.793 10.0874C243.606 12.9944 241.621 16.9871 241.226 21.2824H239.58C239.163 21.2824 238.763 21.4481 238.468 21.743C238.173 22.038 238.008 22.4379 238.008 22.855C238.015 26.5948 239.044 30.2615 240.984 33.4587C242.924 36.6558 245.702 39.2617 249.016 40.9945V41.7258C249.016 42.5599 249.347 43.3599 249.937 43.9497C250.527 44.5395 251.327 44.8709 252.161 44.8709H264.741C265.576 44.8709 266.375 44.5395 266.965 43.9497C267.555 43.3599 267.887 42.5599 267.887 41.7258V40.9945C271.201 39.2617 273.978 36.6558 275.918 33.4587C277.858 30.2615 278.888 26.5948 278.894 22.855C278.894 22.4379 278.729 22.038 278.434 21.743C278.139 21.4481 277.739 21.2824 277.322 21.2824ZM267.391 11.8923C267.752 12.1871 268.097 12.4984 268.427 12.826C264.241 14.2986 260.781 17.3251 258.766 21.2785H252.967C253.95 18.5234 255.759 16.139 258.148 14.4509C260.537 12.7629 263.389 11.8535 266.314 11.8471C266.674 11.8471 267.033 11.8648 267.391 11.8923ZM262.406 21.2824C264.313 18.4221 267.197 16.3554 270.519 15.4699C271.605 17.2363 272.286 19.2214 272.514 21.2824H262.406ZM258.451 8.70194C259.713 8.70278 260.969 8.87268 262.186 9.20713C259.223 9.94225 256.505 11.4456 254.308 13.5655C252.111 15.6855 250.511 18.3472 249.67 21.2824H244.388C244.779 17.8245 246.428 14.631 249.021 12.3109C251.615 9.99069 254.971 8.70608 258.451 8.70194Z" fill="#580A2E"/>
</svg>
