<svg width="538" height="608" viewBox="0 0 538 608" fill="none" xmlns="http://www.w3.org/2000/svg">
<path d="M161.603 221.639C118.82 -51.3679 353.666 -82.5041 604.524 -115.828C812.363 -143.441 1031.37 -172.484 1110.51 -342.578L1110.79 -343.265C1124.23 -372.157 1101.12 -404.981 1069.45 -401.627C935.944 -387.402 780.266 -328.943 644.995 -217.92C554.214 -143.489 444.834 -151.588 354.814 -200.905C192.117 -289.959 78.8685 -385.602 31.0077 -471.596C7.09696 -514.468 -4.14417 -563.189 3.03087 -610.674C14.8215 -688.696 76.0874 -764.103 212.045 -805.822L1245.88 -1123.53L1285.7 -869.442L466.14 -617.571C331.598 -576.268 270.982 -502.056 259.458 -425.622L259.324 -424.829C252.892 -381.646 298.145 -349.266 336.902 -369.441C354.288 -378.476 372.025 -390.206 389.893 -404.789C552.341 -537.972 743.974 -596.27 892.332 -593.377C954.717 -592.207 1013.31 -579.047 1062.66 -555.037C1236.27 -470.719 1349.29 -380.641 1380.74 -291.752C1393.92 -254.475 1390.66 -209.149 1366.34 -156.851C1286.24 15.3247 1066.03 44.5534 857.051 72.2807C691.467 94.2376 532.889 115.29 457.96 206.233C421.713 250.225 460.632 315.729 516.88 306.914L1447.2 161.121L1496.35 474.726L683.487 602.112C434.236 641.172 200.519 470.784 161.458 221.533L161.603 221.639Z" fill="#E85666"/>
</svg>
