<svg width="86" height="86" viewBox="0 0 86 86" fill="none" xmlns="http://www.w3.org/2000/svg">
<g clip-path="url(#clip0_2089_36213)">
<rect x="0.418457" y="0.0615234" width="84.9618" height="84.9618" rx="42.4809" fill="#FFF7E7"/>
<path d="M68.164 53.3146C67.7065 46.3988 60.3774 39.1307 42.07 38.8395V38.8368C42.0229 38.8368 41.9785 38.8368 41.9341 38.8368C41.887 38.8368 41.8426 38.834 41.7982 38.834V38.8368C23.4908 38.6898 15.9899 45.7832 15.3659 52.6852C14.7392 59.6205 20.7095 61.2205 20.7095 61.2205C20.7095 61.2205 18.8904 76.8908 18.1528 81.6049C17.4152 86.3162 19.6752 90.9277 26.2195 89.8934C31.8043 89.0144 40.1899 88.9645 41.3379 88.9645C42.4832 88.995 50.8688 89.239 56.4287 90.2539C62.948 91.4435 65.3161 86.8902 64.6922 82.1623C64.0683 77.4343 62.6208 61.7224 62.6208 61.7224C62.6208 61.7224 68.6243 60.261 68.164 53.3146Z" fill="white"/>
<path d="M65.8101 53.6668C65.3913 47.3499 58.7555 41.3241 42.0315 41.0607C41.9899 41.0607 41.9483 41.0607 41.9067 41.0607C41.8651 41.0607 41.8235 41.0579 41.7819 41.0579C25.0579 40.9248 18.3001 46.6677 17.7316 52.9736C17.1576 59.3099 22.992 60.1612 22.992 60.1612C22.992 60.1612 20.854 75.8232 20.1802 80.1269C19.5064 84.4333 21.5695 88.6428 27.5481 87.7027C32.6504 86.8958 40.3123 86.8542 41.3604 86.8514C42.4086 86.8764 50.0649 87.1038 55.1478 88.0299C61.1043 89.1142 63.2672 84.9547 62.696 80.6343C62.1247 76.314 59.9951 60.6021 59.9951 60.6021C59.9951 60.6021 66.2316 60.0142 65.8101 53.6668Z" fill="#FFB74E"/>
<path d="M27.9715 50.1705C27.9632 51.0523 27.2366 51.7594 26.3548 51.7483C25.473 51.7373 24.7659 51.0135 24.777 50.1317C24.7853 49.2499 25.5118 48.5427 26.3936 48.5538C27.2755 48.5622 27.9826 49.2887 27.9715 50.1705Z" fill="white"/>
<path d="M25.8228 54.5409C25.8145 55.1482 25.3181 55.6307 24.7108 55.6252C24.1035 55.6169 23.6183 55.1205 23.6266 54.516C23.6321 53.9087 24.1313 53.4234 24.7358 53.4317C25.3458 53.4373 25.8283 53.9337 25.8228 54.5409Z" fill="white"/>
<path d="M33.8503 53.537C33.842 54.1416 33.3456 54.6296 32.7411 54.6213C32.1338 54.6157 31.6485 54.1166 31.6568 53.5121C31.6652 52.9048 32.1615 52.4195 32.766 52.4278C33.3706 52.4334 33.8558 52.9298 33.8503 53.537Z" fill="white"/>
<path d="M30.7444 64.1323C29.8625 64.0824 29.1915 63.3253 29.2414 62.4463C29.2913 61.5645 30.0483 60.8906 30.9302 60.9433C31.812 60.9932 32.483 61.7503 32.4331 62.6321C32.3804 63.5084 31.6234 64.1822 30.7444 64.1323Z" fill="white"/>
<path d="M27.1092 69.8476C26.5047 69.8116 26.0416 69.293 26.0777 68.6885C26.1137 68.084 26.6323 67.6237 27.2368 67.657C27.8413 67.693 28.3044 68.2116 28.2683 68.8161C28.2351 69.4206 27.7165 69.8837 27.1092 69.8476Z" fill="white"/>
<path d="M27.6922 78.0945C27.6811 78.9763 26.9573 79.6834 26.0755 79.6751C25.1909 79.664 24.4866 78.9403 24.4977 78.0584C24.5088 77.1766 25.2325 76.4695 26.1143 76.4806C26.9989 76.4861 27.7033 77.2099 27.6922 78.0945Z" fill="white"/>
<path d="M33.5699 81.4608C33.5615 82.0681 33.0652 82.5506 32.4579 82.5451C31.8506 82.5395 31.3653 82.0404 31.3736 81.4359C31.382 80.8313 31.8783 80.3461 32.4828 80.3516C33.0901 80.3572 33.5754 80.8535 33.5699 81.4608Z" fill="white"/>
<path d="M32.5298 76.5527C32.5215 77.1572 32.0251 77.6425 31.4178 77.6369C30.8133 77.6286 30.328 77.1322 30.3335 76.5277C30.3419 75.9204 30.8382 75.4351 31.4427 75.4435C32.05 75.449 32.5381 75.9454 32.5298 76.5527Z" fill="white"/>
<path d="M42.6461 81.067C42.6572 80.1852 43.381 79.4781 44.2628 79.4864C45.1446 79.4975 45.8517 80.2212 45.8406 81.1031C45.8295 81.9849 45.1085 82.692 44.224 82.6809C43.3421 82.6754 42.635 81.9488 42.6461 81.067Z" fill="white"/>
<path d="M44.7984 76.6996C44.804 76.0923 45.3031 75.607 45.9104 75.6153C46.5177 75.6209 47.0002 76.1173 46.9947 76.7245C46.9864 77.3318 46.49 77.8171 45.8855 77.8088C45.2754 77.8005 44.7901 77.3041 44.7984 76.6996Z" fill="white"/>
<path d="M36.7701 77.7006C36.7784 77.0933 37.2748 76.608 37.8821 76.6163C38.4866 76.6246 38.9747 77.1182 38.9663 77.7255C38.958 78.3328 38.4617 78.8181 37.8544 78.8098C37.2471 78.8042 36.7618 78.3079 36.7701 77.7006Z" fill="white"/>
<path d="M39.8757 67.1052C40.7576 67.1551 41.4314 67.9121 41.3787 68.7911C41.3288 69.673 40.5718 70.344 39.6899 70.2941C38.8081 70.2414 38.1343 69.4872 38.187 68.6054C38.2397 67.7263 38.9939 67.0552 39.8757 67.1052Z" fill="white"/>
<path d="M43.5083 61.3897C44.1128 61.4257 44.5759 61.9443 44.5398 62.5488C44.5038 63.1533 43.9852 63.6164 43.3807 63.5803C42.7762 63.5443 42.3131 63.0257 42.3491 62.4212C42.3852 61.8167 42.9037 61.3536 43.5083 61.3897Z" fill="white"/>
<path d="M42.9284 53.1454C42.9367 52.2635 43.6632 51.5564 44.545 51.5675C45.4268 51.5786 46.1339 52.3024 46.1229 53.1842C46.1118 54.066 45.388 54.7731 44.5062 54.762C43.6216 54.7509 42.9173 54.0272 42.9284 53.1454Z" fill="white"/>
<path d="M37.0504 49.7767C37.0587 49.1722 37.5551 48.6869 38.1596 48.6924C38.7669 48.7007 39.2522 49.1971 39.2438 49.8016C39.2355 50.4089 38.7392 50.8942 38.1346 50.8859C37.5274 50.8803 37.0421 50.384 37.0504 49.7767Z" fill="white"/>
<path d="M38.0865 54.6849C38.0948 54.0776 38.5912 53.5951 39.1984 53.6006C39.803 53.609 40.2882 54.1053 40.2827 54.7098C40.2744 55.3144 39.778 55.8024 39.1707 55.7941C38.5662 55.7885 38.0809 55.2922 38.0865 54.6849Z" fill="white"/>
<path d="M53.943 50.4781C53.9319 51.3599 53.2081 52.0671 52.3263 52.056C51.4417 52.0449 50.7374 51.3211 50.7457 50.4393C50.7568 49.5575 51.4805 48.8504 52.3623 48.8615C53.2469 48.8725 53.9541 49.5963 53.943 50.4781Z" fill="white"/>
<path d="M51.7917 54.8484C51.7862 55.4529 51.287 55.941 50.6825 55.9327C50.0752 55.9243 49.5899 55.428 49.5982 54.8207C49.6066 54.2134 50.1029 53.7281 50.7075 53.7364C51.3147 53.7448 51.8 54.2411 51.7917 54.8484Z" fill="white"/>
<path d="M59.8189 53.8476C59.8106 54.4521 59.3142 54.9374 58.7069 54.9318C58.0996 54.9235 57.6143 54.4272 57.6227 53.8226C57.6282 53.2153 58.1274 52.7301 58.7319 52.7384C59.3419 52.7439 59.8272 53.2403 59.8189 53.8476Z" fill="white"/>
<path d="M56.7131 64.4406C55.8313 64.3907 55.1602 63.6337 55.2101 62.7546C55.26 61.8728 56.0171 61.2017 56.8989 61.2516C57.7807 61.3016 58.4518 62.0586 58.4019 62.9404C58.3492 63.8194 57.5949 64.4933 56.7131 64.4406Z" fill="white"/>
<path d="M53.0809 70.1585C52.4764 70.1224 52.0133 69.6039 52.0493 68.9994C52.0854 68.3948 52.6039 67.9317 53.2085 67.9678C53.8157 68.0011 54.2761 68.5224 54.24 69.1269C54.204 69.7314 53.6854 70.1917 53.0809 70.1585Z" fill="white"/>
<path d="M53.6629 78.4019C53.6518 79.2838 52.9281 79.9909 52.0462 79.9798C51.1644 79.9687 50.4573 79.2449 50.4684 78.3631C50.4795 77.4813 51.2032 76.7742 52.0851 76.7853C52.9669 76.7964 53.6712 77.5201 53.6629 78.4019Z" fill="white"/>
<path d="M59.5397 81.7714C59.5341 82.3759 59.0378 82.8612 58.4305 82.8557C57.8232 82.8473 57.3407 82.351 57.3462 81.7465C57.3546 81.1392 57.8509 80.6539 58.4554 80.6622C59.0627 80.6678 59.548 81.1641 59.5397 81.7714Z" fill="white"/>
<path d="M58.4995 76.8612C58.4939 77.4685 57.9948 77.9538 57.3875 77.9455C56.783 77.9399 56.2977 77.4435 56.3033 76.8362C56.3116 76.229 56.808 75.7465 57.4152 75.752C58.0225 75.7603 58.5078 76.2567 58.4995 76.8612Z" fill="white"/>
<path d="M61.4399 119.639C57.3802 119.639 53.876 115.951 53.876 111.221V28.8586C53.876 24.1284 57.3802 20.4409 61.4399 20.4409C65.4996 20.4409 69.0038 24.1284 69.0038 28.8586V111.221C69.0038 115.951 65.4996 119.639 61.4399 119.639Z" fill="#FFB74E" stroke="white" stroke-width="2.28815"/>
<path d="M67.0162 80C67.0162 80 57.6821 81.366 55.8608 91.9521C55.8608 91.9521 63.6217 90.5862 67.0162 80Z" fill="#FCC172"/>
<path d="M55.8608 91.9521L67.0162 80C67.0162 80 57.6821 81.366 55.8608 91.9521Z" fill="#FCAA3D"/>
<path d="M67.0162 48.1279C67.0162 48.1279 57.6821 49.4939 55.8608 60.08C55.8608 60.08 63.6217 58.7141 67.0162 48.1279Z" fill="#FCC172"/>
<path d="M55.8608 60.08L67.0162 48.1279C67.0162 48.1279 57.6821 49.4939 55.8608 60.08Z" fill="#FCAA3D"/>
<path d="M67.0162 64.0635C67.0162 64.0635 57.6821 65.4294 55.8608 76.0156C55.8608 76.0156 63.6217 74.6496 67.0162 64.0635Z" fill="#FCC172"/>
<path d="M55.8608 76.0156L67.0162 64.0635C67.0162 64.0635 57.6821 65.4294 55.8608 76.0156Z" fill="#FCAA3D"/>
<path d="M67.0162 32.1914C67.0162 32.1914 57.6821 33.5574 55.8608 44.1435C55.8608 44.1435 63.6217 42.7776 67.0162 32.1914Z" fill="#FCC172"/>
<path d="M55.8608 44.1435L67.0162 32.1914C67.0162 32.1914 57.6821 33.5574 55.8608 44.1435Z" fill="#FCAA3D"/>
</g>
<defs>
<clipPath id="clip0_2089_36213">
<rect x="0.418457" y="0.0615234" width="84.9618" height="84.9618" rx="42.4809" fill="white"/>
</clipPath>
</defs>
</svg>
