<svg width="86" height="86" viewBox="0 0 86 86" fill="none" xmlns="http://www.w3.org/2000/svg">
<g clip-path="url(#clip0_2089_36079)">
<rect x="0.379883" y="0.44043" width="84.9618" height="84.9618" rx="42.4809" fill="#F5E6C9"/>
<path d="M71.1743 42.7383H35.0518V92.3236H71.1743V42.7383Z" fill="#CA9D8B" stroke="white" stroke-width="1.52543"/>
<path d="M35.0518 64.2812C35.0518 64.2812 39.8297 66.6871 53.2664 66.5855C67.5199 66.4773 71.1735 64.2812 71.1735 64.2812V92.4323L52.3894 95.0171L35.0518 90.5908V64.2812Z" fill="#794A37" stroke="white" stroke-width="1.52543"/>
<path d="M35.3998 40.728C35.3998 40.728 33.4465 40.4767 33.4473 42.7378C33.4481 44.5825 37.1082 47.5749 53.1577 47.5749C71.4145 47.5749 72.7927 44.454 72.7935 42.9265C72.7935 41.1046 71.2303 41.1469 71.2303 41.1469C71.2303 41.1469 72.289 45.2511 53.3727 44.6232C34.5326 43.9969 35.3998 40.728 35.3998 40.728Z" fill="#962121"/>
<path d="M34.2618 41.105C33.7572 44.2877 43.576 45.1881 54.1856 45.1881C65.4628 45.1881 72.7904 43.8916 72.0222 41.5239C70.9627 38.2575 34.682 38.4568 34.2618 41.105Z" fill="#794A37"/>
<path d="M36.0336 41.108C35.5736 43.1016 44.5276 43.666 54.2019 43.666C64.4863 43.666 71.1681 42.8535 70.4672 41.3708C69.5011 39.3244 36.4165 39.4496 36.0336 41.108Z" fill="#794A37"/>
<path d="M52.0575 40.8709C50.1236 40.0152 47.9926 40.3397 45.9492 40.6228C44.4233 40.8334 42.8951 41.0148 41.3643 41.1669C41.0301 41.2003 39.7525 41.1889 39.6276 41.6923C39.4726 42.3178 40.4079 42.4341 40.6862 42.4553C42.1017 42.5602 43.5213 42.526 44.9376 42.4789C46.1585 42.4382 47.3785 42.387 48.5986 42.326C49.7821 42.2666 50.9754 42.1958 52.12 41.8266C52.27 41.7786 52.438 41.7037 52.4939 41.5264C52.5864 41.2312 52.2992 40.9782 52.0575 40.8709ZM50.4457 41.3133C50.4286 41.3572 50.3905 41.3833 50.3548 41.4044C49.7091 41.7802 47.3331 41.8745 46.8845 41.7891C46.7807 41.7696 46.6744 41.7338 46.599 41.6444C46.5243 41.5549 46.4943 41.3979 46.5584 41.2962C46.5917 41.2434 46.6428 41.2141 46.6923 41.1873C47.5059 40.7513 48.3414 40.7578 49.2102 40.7432C49.6199 40.7358 50.0741 40.7489 50.3751 41.0888C50.4278 41.1466 50.4765 41.2352 50.4457 41.3133Z" fill="white" stroke="white" stroke-width="0.923517"/>
<path d="M70.6031 40.3055L53.1202 42.0086L35.7314 40.3055V29.627H70.6031V40.3055Z" fill="#64E0CA" stroke="white" stroke-width="0.923517"/>
<path d="M42.9408 35.5248C43.58 35.4581 44.2257 35.4427 44.8658 35.5061C46.1539 35.633 47.4097 36.0852 48.4845 36.8091C48.9193 36.5724 49.3225 36.2796 49.6826 35.9396C49.7897 36.7652 49.8214 37.6013 49.7776 38.4325C49.3379 38.2154 48.9201 37.9551 48.5299 37.6582C48.0951 38.2918 47.3999 38.7107 46.6658 38.9328C45.9317 39.1548 45.1562 39.1955 44.3896 39.1955C43.4608 39.1955 42.5198 39.1361 41.6396 38.8384C40.9574 38.6074 39.1436 37.7355 39.7455 36.8067C40.332 35.9006 41.9722 35.6257 42.9408 35.5248Z" fill="#794A37"/>
<path d="M52.6323 34.2674C53.0987 34.2853 53.5644 34.3406 54.017 34.4512C54.9296 34.6749 55.7854 35.1287 56.4847 35.7591C56.8213 35.6338 57.1409 35.4646 57.4346 35.2572C57.4273 35.8616 57.3648 36.4651 57.248 37.0588C56.9543 36.8571 56.6802 36.6277 56.4303 36.374C56.0531 36.7847 55.5104 37.0141 54.9604 37.0979C54.4104 37.1816 53.8483 37.1312 53.2975 37.0531C52.6307 36.958 51.9598 36.8181 51.3579 36.5139C50.8915 36.278 49.6771 35.4655 50.2044 34.8595C50.7187 34.269 51.9257 34.2405 52.6323 34.2674Z" fill="#794A37"/>
<path d="M60.5287 36.0502C60.9611 35.8745 61.408 35.733 61.8672 35.6476C62.7911 35.476 63.7572 35.537 64.652 35.8249C64.9075 35.5719 65.1298 35.2865 65.3131 34.9766C65.554 35.5305 65.7439 36.1071 65.8801 36.696C65.5305 36.6334 65.1858 36.5366 64.8548 36.4081C64.6788 36.9376 64.278 37.3703 63.8108 37.6736C63.3435 37.977 62.8106 38.1617 62.276 38.317C61.6287 38.5049 60.9602 38.6537 60.287 38.6236C59.7645 38.6009 58.3247 38.3593 58.5575 37.5899C58.7854 36.8391 59.8741 36.317 60.5287 36.0502Z" fill="#794A37"/>
<path d="M35.7409 38.4561C35.7409 38.4561 34.4957 38.6983 34.4146 39.764C34.3334 40.8296 37.5425 42.9615 53.0494 42.9615C68.5562 42.9615 71.3824 40.9268 71.3824 40.0425C71.3824 38.9471 70.5631 38.6711 70.5631 38.6711C70.5631 38.6711 71.3913 40.7085 53.1053 40.7085C34.413 40.7091 35.7409 38.4561 35.7409 38.4561Z" fill="white"/>
<path d="M35.9993 27.7697C35.9993 27.7697 34.1117 27.5875 34.1133 29.2296C34.1141 30.5692 37.6501 32.7425 53.1569 32.7425C70.7964 32.7425 72.1275 30.4757 72.1284 29.3663C72.1284 28.043 70.6179 28.0739 70.6179 28.0739C70.6179 28.0739 71.6408 31.0548 53.3646 30.5985C35.1613 30.1439 35.9993 27.7697 35.9993 27.7697Z" fill="white"/>
<path d="M34.9008 28.0435C34.4133 30.355 43.9002 31.009 54.1505 31.009C65.0465 31.009 72.1258 30.0671 71.3836 28.3477C70.3598 25.9751 35.3064 26.1199 34.9008 28.0435Z" fill="#962121" stroke="white" stroke-width="0.923517"/>
<path d="M36.6121 28.0453C36.1676 29.4931 44.8182 29.903 54.1656 29.903C64.1019 29.903 70.5574 29.3133 69.8809 28.2356C68.9464 26.7496 36.9812 26.8399 36.6121 28.0453Z" fill="#962121"/>
<path opacity="0.2" d="M37.014 33.3329C37.1657 34.1992 37.2289 35.0808 37.2022 35.9593C37.19 36.348 37.1616 36.7425 37.2452 37.1215C37.3295 37.5014 37.5485 37.8739 37.9022 38.0333C38.2559 38.1927 38.7451 38.0626 38.8903 37.7023C38.9495 37.5551 38.9487 37.3924 38.9462 37.2338C38.9316 36.0764 38.917 34.919 38.9024 33.7608C38.8943 33.0962 38.6112 32.1576 37.839 32.0088C37.0148 31.851 36.9093 32.7343 37.014 33.3329Z" fill="white" stroke="white" stroke-width="0.923517"/>
<path d="M50.2301 56.806C49.4789 53.7364 45.8975 54.0585 45.1601 52.9556C44.5793 52.0861 44.7991 49.8738 44.7991 49.8738L32.1704 48.0234L18.2438 49.8738C18.2438 49.8738 18.1716 51.9828 17.5908 52.8531C16.8542 53.956 13.5648 53.7364 12.8137 56.806C12.241 59.1469 11.2107 92.6668 12.5825 94.775C15.9335 99.9252 48.2548 99.8447 50.4613 94.775C51.5199 92.3423 50.8028 59.1469 50.2301 56.806Z" fill="#B8836F" stroke="white" stroke-width="1.52543"/>
<path d="M44.6157 67.2167C44.7597 66.5576 44.4904 65.8306 43.9203 65.3094C43.1041 64.5629 41.7985 64.2029 40.5258 64.1686C39.9479 64.1531 39.2228 64.1311 38.9994 63.7238C38.907 63.5562 38.9361 63.3658 38.927 63.1839C38.8935 62.5184 38.3188 61.9214 37.5937 61.5511C36.8692 61.1808 36.0072 61.0027 35.1548 60.8623C33.9629 60.6654 32.7541 60.5308 31.5383 60.4563V60.4453C31.5099 60.4466 31.4821 60.4492 31.4537 60.4505C31.4253 60.4485 31.3975 60.4466 31.3691 60.4453V60.4563C30.1539 60.5308 28.9445 60.6654 27.7525 60.8623C26.9002 61.0027 26.0382 61.1801 25.3137 61.5511C24.5892 61.9214 24.0139 62.5184 23.9803 63.1839C23.9713 63.3658 24.0003 63.5555 23.908 63.7238C23.6846 64.1311 22.9595 64.1524 22.3815 64.1686C21.1089 64.2029 19.8033 64.5636 18.9871 65.3094C18.4169 65.8312 18.1477 66.5576 18.2917 67.2167H18.2529L20.8377 80.9329H31.3691H31.5383H42.0697L44.6544 67.2167H44.6157Z" fill="#794A37"/>
<path d="M16.3477 39.9775V49.9802H16.4158C17.1361 50.5276 23.5592 50.9554 31.3775 50.9554C39.1958 50.9554 45.618 50.5267 46.3392 49.9802H46.4073V39.9775H16.3477Z" fill="#794A37" stroke="white" stroke-width="1.52543"/>
<path d="M31.3775 41.0632C39.6782 41.0632 46.4073 40.5344 46.4073 39.8822C46.4073 39.2299 39.6782 38.7012 31.3775 38.7012C23.0767 38.7012 16.3477 39.2299 16.3477 39.8822C16.3477 40.5344 23.0767 41.0632 31.3775 41.0632Z" fill="#160A00" stroke="white" stroke-width="0.923517"/>
</g>
<defs>
<clipPath id="clip0_2089_36079">
<rect x="0.379883" y="0.44043" width="84.9618" height="84.9618" rx="42.4809" fill="white"/>
</clipPath>
</defs>
</svg>
