<svg width="112" height="112" viewBox="0 0 112 112" fill="none" xmlns="http://www.w3.org/2000/svg">
<g clip-path="url(#clip0_1881_23950)">
<rect x="0.488281" width="111.394" height="111.394" rx="55.6969" fill="#F2F4F5"/>
<path d="M99.3875 77.0048L99.3875 77.0048C99.6189 77.8357 99.7615 79.2302 99.7942 81.1205C99.8265 82.9875 99.7512 85.2642 99.5806 87.8166C99.2395 92.92 98.5205 99.0805 97.5418 105.186C96.5628 111.294 95.3277 117.323 93.9593 122.17C93.2748 124.595 92.5625 126.703 91.8405 128.369C91.1056 130.066 90.4059 131.194 89.7929 131.765L89.7929 131.765C86.96 134.402 84.6444 135.945 81.9983 136.852C79.3324 137.765 76.2486 138.061 71.8184 138.061C65.9187 138.061 59.3663 136.906 53.8431 131.765C53.2303 131.194 52.5306 130.066 51.7957 128.369C51.0738 126.703 50.3615 124.595 49.677 122.17C48.3087 117.323 47.0736 111.294 46.0945 105.186C45.1158 99.0805 44.3967 92.92 44.0555 87.8165C43.8848 85.2642 43.8095 82.9875 43.8418 81.1204C43.8745 79.2302 44.0171 77.8356 44.2485 77.0048L44.2485 77.0048C45.4346 72.7463 48.9435 69.1352 52.2983 66.5396C53.9584 65.2551 55.5433 64.2479 56.7132 63.5621C57.2974 63.2197 57.7764 62.9583 58.1072 62.7837C58.2726 62.6964 58.4008 62.6308 58.4865 62.5876C58.5293 62.566 58.5615 62.55 58.5824 62.5397L58.6051 62.5286L58.61 62.5262L58.6104 62.526L58.6107 62.5259L58.6107 62.5259L59.1573 62.262L59.1752 61.6549L58.1756 61.6255L59.1752 61.6549L59.1752 61.6546L59.1752 61.6537L59.1753 61.6502L59.1757 61.6361L59.1773 61.5813L59.1835 61.373L59.2053 60.6265C59.2234 60.0069 59.2474 59.1765 59.2715 58.3333C59.2989 57.3751 59.3267 56.3873 59.3454 55.6765H71.6735H71.9625H85.2546C85.2734 56.3873 85.3011 57.3751 85.3285 58.3333C85.3526 59.1765 85.3767 60.0069 85.3947 60.6265L85.4166 61.373L85.4227 61.5813L85.4243 61.6361L85.4247 61.6502L85.4248 61.6537L85.4248 61.6546L85.4248 61.6549L86.4244 61.6255L85.4249 61.6549L85.4421 62.2399L85.9601 62.5111L85.9602 62.5112L85.9605 62.5114L85.9607 62.5115L85.965 62.5137L85.9856 62.5247C86.0046 62.5349 86.034 62.5507 86.0733 62.5722C86.1518 62.6151 86.2696 62.6804 86.4217 62.7674C86.7261 62.9415 87.1673 63.2022 87.7064 63.544C88.7858 64.2284 90.2509 65.2341 91.7918 66.5171C94.9 69.1052 98.1944 72.7212 99.3875 77.0048Z" fill="#D8E1EA" stroke="white" stroke-width="2"/>
<path opacity="0.55" d="M95.944 73.0986H47.6262C46.537 74.6169 45.6962 76.2552 45.2876 77.9803C43.5304 85.3979 49.4724 124.629 54.5376 130.173C59.285 135.37 66.8716 136.464 71.818 136.464C79.139 136.464 84.8856 134.412 89.6321 129.215C94.6973 123.671 100.081 85.5537 98.325 78.1361C97.9037 76.3573 97.0458 74.6667 95.944 73.0986Z" fill="#8C8C20"/>
<path d="M57.0138 52.5608C56.9789 52.621 56.9414 52.6923 56.9034 52.7754C56.7163 53.1841 56.5011 53.9128 56.5568 55.0686L57.0138 52.5608ZM57.0138 52.5608H86.3031C86.4335 52.7072 86.6019 52.9256 86.7589 53.2165C87.0888 53.8276 87.3896 54.7946 87.1305 56.1703C87.0187 56.7629 86.8485 57.279 86.5123 57.747C86.1789 58.211 85.6313 58.6979 84.6565 59.1407C82.6585 60.0482 79.013 60.707 72.2911 60.6523C71.6681 60.6471 70.9778 60.6583 70.2423 60.6701C67.8261 60.7091 64.9245 60.7559 62.3347 60.2588C60.6633 59.9381 59.2469 59.4082 58.2425 58.5885C57.2763 57.8002 56.6359 56.7015 56.5568 55.0688L57.0138 52.5608Z" fill="#2E2A29" stroke="white" stroke-width="2"/>
<path d="M57.227 52.6556L57.227 52.6555C57.2977 52.1542 57.6012 51.6395 58.292 51.1303C58.9936 50.6131 60.0379 50.1483 61.434 49.7752C64.2224 49.0299 68.1808 48.7107 72.9527 48.8827C76.2474 49.0015 79.2385 49.2089 81.6568 49.8291C84.0755 50.4495 85.7434 51.4378 86.6222 52.9814L86.6224 52.9816C86.8216 53.3313 86.8246 53.5176 86.8143 53.5894C86.8063 53.6457 86.7755 53.747 86.5949 53.8963C86.171 54.2465 85.2697 54.5742 83.8479 54.8176C81.3089 55.252 77.7784 55.3226 74.3438 55.3914C74.0242 55.3977 73.7053 55.4041 73.3882 55.4108C68.9479 55.5037 64.6165 55.3702 61.4783 54.8123C59.896 54.531 58.7153 54.1577 57.9829 53.716C57.2735 53.2882 57.1864 52.9432 57.227 52.6556Z" fill="#423D3C" stroke="white" stroke-width="2"/>
<rect x="25.5566" y="40.9507" width="24.8423" height="79.6997" fill="#D8E1EA" stroke="white" stroke-width="2"/>
<path d="M50.9561 40.5384C50.9561 40.8653 50.7361 41.2747 50.1024 41.7296C49.4807 42.1759 48.5488 42.5985 47.3522 42.9618C44.9653 43.6865 41.6376 44.1422 37.9404 44.1422C34.2433 44.1422 30.9156 43.6865 28.5287 42.9618C27.3321 42.5985 26.4002 42.1759 25.7785 41.7296C25.1448 41.2747 24.9248 40.8653 24.9248 40.5384C24.9248 40.2114 25.1448 39.8021 25.7785 39.3472C26.4002 38.9009 27.3321 38.4783 28.5287 38.115C30.9156 37.3902 34.2433 36.9346 37.9404 36.9346C41.6376 36.9346 44.9653 37.3902 47.3522 38.115C48.5488 38.4783 49.4807 38.9009 50.1024 39.3472C50.7361 39.8021 50.9561 40.2114 50.9561 40.5384Z" fill="#423D3C" stroke="white"/>
<circle cx="27.6651" cy="40.0706" r="0.307695" fill="#D8E1EA"/>
<circle cx="29.0494" cy="39.64" r="0.307695" fill="#D8E1EA"/>
<circle cx="30.5875" cy="39.2095" r="0.307695" fill="#D8E1EA"/>
<circle cx="32.1256" cy="38.7789" r="0.307695" fill="#D8E1EA"/>
<circle cx="33.6329" cy="38.4713" r="0.307695" fill="#D8E1EA"/>
<circle cx="35.5401" cy="38.1329" r="0.307695" fill="#D8E1EA"/>
<circle cx="28.71" cy="41.3646" r="0.307695" fill="#D8E1EA"/>
<circle cx="30.0943" cy="40.9339" r="0.307695" fill="#D8E1EA"/>
<circle cx="31.6324" cy="40.5035" r="0.307695" fill="#D8E1EA"/>
<circle cx="33.1705" cy="40.0728" r="0.307695" fill="#D8E1EA"/>
<circle cx="34.6778" cy="39.7652" r="0.307695" fill="#D8E1EA"/>
<circle cx="36.585" cy="39.4268" r="0.307695" fill="#D8E1EA"/>
<circle cx="31.0391" cy="42.2279" r="0.307695" fill="#D8E1EA"/>
<circle cx="32.5772" cy="41.7974" r="0.307695" fill="#D8E1EA"/>
<circle cx="34.1153" cy="41.3668" r="0.307695" fill="#D8E1EA"/>
<circle cx="35.6226" cy="41.0592" r="0.307695" fill="#D8E1EA"/>
<circle cx="37.5299" cy="40.7208" r="0.307695" fill="#D8E1EA"/>
<circle r="0.307695" transform="matrix(1 0 0 -1 40.0836 38.133)" fill="#D8E1EA"/>
<circle r="0.307695" transform="matrix(1 0 0 -1 41.4679 38.5636)" fill="#D8E1EA"/>
<circle r="0.307695" transform="matrix(1 0 0 -1 43.0059 38.9941)" fill="#D8E1EA"/>
<circle r="0.307695" transform="matrix(1 0 0 -1 44.544 39.4247)" fill="#D8E1EA"/>
<circle r="0.307695" transform="matrix(1 0 0 -1 46.0513 39.7323)" fill="#D8E1EA"/>
<circle r="0.307695" transform="matrix(1 0 0 -1 47.9586 40.0707)" fill="#D8E1EA"/>
<circle r="0.307695" transform="matrix(1 0 0 -1 38.7896 39.4767)" fill="#D8E1EA"/>
<circle r="0.307695" transform="matrix(1 0 0 -1 40.1739 39.9074)" fill="#D8E1EA"/>
<circle r="0.307695" transform="matrix(1 0 0 -1 41.712 40.3378)" fill="#D8E1EA"/>
<circle r="0.307695" transform="matrix(1 0 0 -1 43.2501 40.7685)" fill="#D8E1EA"/>
<circle r="0.307695" transform="matrix(1 0 0 -1 44.7574 41.0761)" fill="#D8E1EA"/>
<circle r="0.307695" transform="matrix(1 0 0 -1 46.6646 41.4145)" fill="#D8E1EA"/>
<circle r="0.307695" transform="matrix(1 0 0 -1 37.4957 40.8205)" fill="#D8E1EA"/>
<circle r="0.307695" transform="matrix(1 0 0 -1 38.88 41.2509)" fill="#D8E1EA"/>
<circle r="0.307695" transform="matrix(1 0 0 -1 40.418 41.6816)" fill="#D8E1EA"/>
<circle r="0.307695" transform="matrix(1 0 0 -1 41.9561 42.1122)" fill="#D8E1EA"/>
<circle r="0.307695" transform="matrix(1 0 0 -1 43.4635 42.4198)" fill="#D8E1EA"/>
</g>
<defs>
<clipPath id="clip0_1881_23950">
<rect x="0.488281" width="111.394" height="111.394" rx="55.6969" fill="white"/>
</clipPath>
</defs>
</svg>
