<svg width="86" height="86" viewBox="0 0 86 86" fill="none" xmlns="http://www.w3.org/2000/svg">
<g clip-path="url(#clip0_2089_36428)">
<rect x="0.9375" y="0.682617" width="84.9618" height="84.9618" rx="42.4809" fill="#F2F4F5"/>
<path d="M65.7197 47.7083L65.7328 48.1544L66.1279 48.3613L66.128 48.3614L66.1282 48.3615L66.1284 48.3616L66.1317 48.3633L66.1474 48.3717C66.1619 48.3794 66.1843 48.3915 66.2143 48.4079C66.2742 48.4406 66.364 48.4904 66.4801 48.5568C66.7122 48.6896 67.0487 48.8884 67.4599 49.1491C68.2831 49.6711 69.4006 50.4382 70.5758 51.4168C72.9466 53.3908 75.4592 56.1487 76.3692 59.4159L77.104 59.2112L76.3692 59.4159C76.5457 60.0496 76.6545 61.1132 76.6795 62.555C76.7041 63.979 76.6466 65.7154 76.5165 67.6622C76.2563 71.5547 75.708 76.2534 74.9615 80.9103C74.2148 85.5689 73.2727 90.1676 72.2291 93.8642C71.707 95.7134 71.1637 97.3216 70.613 98.5925C70.0525 99.8861 69.5188 100.747 69.0513 101.182L69.0512 101.182C66.8906 103.194 65.1245 104.371 63.1062 105.062C61.0729 105.759 58.7209 105.985 55.3419 105.985C50.842 105.985 45.8444 105.104 41.6318 101.182C41.1644 100.747 40.6307 99.8861 40.0703 98.5925C39.5196 97.3216 38.9764 95.7134 38.4543 93.8642C37.4106 90.1676 36.4686 85.5689 35.7218 80.9103C34.9753 76.2534 34.4269 71.5547 34.1666 67.6622C34.0365 65.7154 33.979 63.979 34.0036 62.5549C34.0286 61.1132 34.1373 60.0496 34.3139 59.4159L34.3139 59.4159C35.2185 56.1679 37.8948 53.4136 40.4536 51.4339C41.7197 50.4542 42.9286 49.686 43.8209 49.163C44.2665 48.9017 44.6318 48.7024 44.8841 48.5692C45.0103 48.5026 45.108 48.4526 45.1734 48.4197C45.2061 48.4032 45.2306 48.391 45.2465 48.3832L45.2639 48.3746L45.2676 48.3728L45.2679 48.3727L45.2681 48.3726L45.2682 48.3726L45.685 48.1713L45.6987 47.7083L44.9363 47.6858L45.6987 47.7082L45.6987 47.7081L45.6987 47.7074L45.6988 47.7047L45.6991 47.694L45.7003 47.6522L45.705 47.4933L45.7216 46.9239C45.7354 46.4513 45.7538 45.818 45.7721 45.1748C45.793 44.444 45.8142 43.6906 45.8285 43.1485H55.2313H55.4517H65.5899C65.6042 43.6906 65.6254 44.444 65.6462 45.1748C65.6646 45.818 65.683 46.4513 65.6967 46.9239L65.7134 47.4933L65.7181 47.6522L65.7193 47.694L65.7196 47.7047L65.7197 47.7074L65.7197 47.7081L65.7197 47.7083Z" fill="#D8E1EA" stroke="white" stroke-width="1.52543"/>
<path opacity="0.55" d="M73.7429 56.4365H36.8901C36.0593 57.5945 35.4181 58.8441 35.1064 60.1598C33.7662 65.8174 38.2982 95.7392 42.1615 99.968C45.7825 103.932 51.5689 104.766 55.3415 104.766C60.9254 104.766 65.3084 103.201 68.9287 99.2375C72.792 95.0088 76.8983 65.9362 75.5589 60.2787C75.2375 58.922 74.5832 57.6325 73.7429 56.4365Z" fill="#8C8C20"/>
<path d="M44.0507 40.7715C44.0241 40.8174 43.9955 40.8718 43.9665 40.9352C43.8238 41.2469 43.6597 41.8027 43.7022 42.6843L44.0507 40.7715ZM44.0507 40.7715H66.3902C66.4896 40.8832 66.618 41.0498 66.7378 41.2716C66.9894 41.7378 67.2188 42.4753 67.0211 43.5247C66.9359 43.9766 66.8061 44.3702 66.5497 44.7271C66.2954 45.081 65.8778 45.4524 65.1342 45.7901C63.6103 46.4823 60.8298 46.9847 55.7029 46.943C55.2278 46.9391 54.7012 46.9476 54.1403 46.9566C52.2975 46.9863 50.0844 47.022 48.1091 46.6429C46.8343 46.3983 45.7539 45.9941 44.9878 45.369C44.251 44.7677 43.7625 43.9297 43.7022 42.6844L44.0507 40.7715Z" fill="#2E2A29" stroke="white" stroke-width="1.52543"/>
<path d="M56.5392 42.9455C53.1525 43.0163 49.8488 42.9145 47.4552 42.489C46.2484 42.2744 45.3479 41.9897 44.7892 41.6528C44.2482 41.3266 44.1818 41.0634 44.2127 40.8441L44.2128 40.844C44.2666 40.4616 44.4982 40.0691 45.025 39.6807C45.5601 39.2862 46.3566 38.9317 47.4215 38.6471C49.5482 38.0787 52.5674 37.8352 56.207 37.9664C58.7199 38.057 61.0013 38.2152 62.8457 38.6883C64.6905 39.1614 65.9627 39.9152 66.6329 41.0925L66.633 41.0927C66.785 41.3594 66.7873 41.5015 66.7795 41.5563C66.7733 41.5992 66.7498 41.6765 66.6121 41.7903C66.2888 42.0574 65.6014 42.3074 64.5169 42.493C62.5804 42.8244 59.8876 42.8782 57.268 42.9306C57.0242 42.9355 56.7811 42.9404 56.5392 42.9455ZM56.5392 42.9455L56.5551 43.708L56.5392 42.9455Z" fill="#423D3C" stroke="white" stroke-width="1.52543"/>
<rect x="20.0576" y="31.916" width="18.9476" height="60.7882" fill="#D8E1EA" stroke="white" stroke-width="1.52543"/>
<path d="M39.4302 31.6017C39.4302 31.8511 39.2624 32.1633 38.779 32.5103C38.3048 32.8507 37.5941 33.173 36.6814 33.4501C34.8609 34.0029 32.3228 34.3504 29.5029 34.3504C26.6831 34.3504 24.145 34.0029 22.3245 33.4501C21.4118 33.173 20.701 32.8507 20.2268 32.5103C19.7435 32.1633 19.5757 31.8511 19.5757 31.6017C19.5757 31.3523 19.7435 31.0401 20.2268 30.6932C20.701 30.3528 21.4118 30.0305 22.3245 29.7534C24.145 29.2006 26.6831 28.853 29.5029 28.853C32.3228 28.853 34.8609 29.2006 36.6814 29.7534C37.5941 30.0305 38.3048 30.3528 38.779 30.6932C39.2624 31.0401 39.4302 31.3523 39.4302 31.6017Z" fill="#423D3C" stroke="white" stroke-width="0.762716"/>
<circle cx="21.6663" cy="31.2444" r="0.234684" fill="#D8E1EA"/>
<circle cx="22.723" cy="30.9163" r="0.234684" fill="#D8E1EA"/>
<circle cx="23.8948" cy="30.5882" r="0.234684" fill="#D8E1EA"/>
<circle cx="25.0687" cy="30.2601" r="0.234684" fill="#D8E1EA"/>
<circle cx="26.2181" cy="30.0247" r="0.234684" fill="#D8E1EA"/>
<circle cx="27.6732" cy="29.7669" r="0.234684" fill="#D8E1EA"/>
<circle cx="22.4622" cy="32.2318" r="0.234684" fill="#D8E1EA"/>
<circle cx="23.5189" cy="31.9036" r="0.234684" fill="#D8E1EA"/>
<circle cx="24.6907" cy="31.5755" r="0.234684" fill="#D8E1EA"/>
<circle cx="25.8646" cy="31.2474" r="0.234684" fill="#D8E1EA"/>
<circle cx="27.014" cy="31.012" r="0.234684" fill="#D8E1EA"/>
<circle cx="28.4691" cy="30.7542" r="0.234684" fill="#D8E1EA"/>
<circle cx="24.2386" cy="32.89" r="0.234684" fill="#D8E1EA"/>
<circle cx="25.4114" cy="32.5618" r="0.234684" fill="#D8E1EA"/>
<circle cx="26.5853" cy="32.2327" r="0.234684" fill="#D8E1EA"/>
<circle cx="27.7337" cy="31.9984" r="0.234684" fill="#D8E1EA"/>
<circle cx="29.1898" cy="31.7405" r="0.234684" fill="#D8E1EA"/>
<circle r="0.234684" transform="matrix(1 0 0 -1 31.137 29.7673)" fill="#D8E1EA"/>
<circle r="0.234684" transform="matrix(1 0 0 -1 32.1937 30.0954)" fill="#D8E1EA"/>
<circle r="0.234684" transform="matrix(1 0 0 -1 33.3655 30.4235)" fill="#D8E1EA"/>
<circle r="0.234684" transform="matrix(1 0 0 -1 34.5394 30.7526)" fill="#D8E1EA"/>
<circle r="0.234684" transform="matrix(1 0 0 -1 35.6888 30.987)" fill="#D8E1EA"/>
<circle r="0.234684" transform="matrix(1 0 0 -1 37.1439 31.2448)" fill="#D8E1EA"/>
<circle r="0.234684" transform="matrix(1 0 0 -1 30.1517 30.7927)" fill="#D8E1EA"/>
<circle r="0.234684" transform="matrix(1 0 0 -1 31.2083 31.1208)" fill="#D8E1EA"/>
<circle r="0.234684" transform="matrix(1 0 0 -1 32.3802 31.4489)" fill="#D8E1EA"/>
<circle r="0.234684" transform="matrix(1 0 0 -1 33.554 31.777)" fill="#D8E1EA"/>
<circle r="0.234684" transform="matrix(1 0 0 -1 34.7034 32.0124)" fill="#D8E1EA"/>
<circle r="0.234684" transform="matrix(1 0 0 -1 36.1585 32.2702)" fill="#D8E1EA"/>
<circle r="0.234684" transform="matrix(1 0 0 -1 29.1634 31.8171)" fill="#D8E1EA"/>
<circle r="0.234684" transform="matrix(1 0 0 -1 30.2191 32.1452)" fill="#D8E1EA"/>
<circle r="0.234684" transform="matrix(1 0 0 -1 31.3919 32.4733)" fill="#D8E1EA"/>
<circle r="0.234684" transform="matrix(1 0 0 -1 32.5657 32.8024)" fill="#D8E1EA"/>
<circle r="0.234684" transform="matrix(1 0 0 -1 33.7152 33.0368)" fill="#D8E1EA"/>
</g>
<defs>
<clipPath id="clip0_2089_36428">
<rect x="0.9375" y="0.682617" width="84.9618" height="84.9618" rx="42.4809" fill="white"/>
</clipPath>
</defs>
</svg>
