<svg width="86" height="86" viewBox="0 0 86 86" fill="none" xmlns="http://www.w3.org/2000/svg">
<g clip-path="url(#clip0_2089_36035)">
<rect x="0.899414" y="0.44043" width="84.9618" height="84.9618" rx="42.4809" fill="#F7DBEF"/>
<path d="M56.548 32.2869H57.3107V31.5242V31.517C57.3107 31.3542 57.3107 31.1799 57.302 30.9947C57.2934 27.8205 57.2847 24.6537 57.2675 21.4867C57.2675 21.4289 57.2675 20.9612 57.2664 20.5048C57.2659 20.2739 57.2651 20.0447 57.2638 19.8727C57.2632 19.7872 57.2625 19.7136 57.2616 19.6604C57.2612 19.6347 57.2606 19.6093 57.2599 19.5886C57.2596 19.5798 57.2589 19.5628 57.2575 19.5443L57.2575 19.544C57.257 19.5373 57.2552 19.5129 57.2507 19.4829L57.2506 19.4823C57.2489 19.4713 57.2422 19.4272 57.2258 19.3734C57.2192 19.3517 57.1968 19.2793 57.1465 19.1973C57.1463 19.1969 57.146 19.1964 57.1456 19.1958C57.1231 19.1588 56.9282 18.839 56.5079 18.8331L50.9363 18.7208L50.1582 18.7052V19.4834V19.5025V19.5217V19.5408V19.56V19.5791V19.5983V19.6174V19.6366V19.6557V19.6748V19.694V19.7131V19.7323V19.7514V19.7706V19.7897V19.8089V19.828V19.8471V19.8663V19.8854V19.9046V19.9237V19.9429V19.962V19.9812V20.0003V20.0194V20.0386V20.0577V20.0769V20.096V20.1152V20.1343V20.1535V20.1726V20.1917V20.2109V20.23V20.2492V20.2683V20.2875V20.3066V20.3258V20.3449V20.364V20.3832V20.4023V20.4215V20.4406V20.4598V20.4789V20.4981V20.5172V20.5364V20.5555V20.5746V20.5938V20.6129V20.6321V20.6512V20.6704V20.6895V20.7087V20.7278V20.7469V20.7661V20.7852V20.8044V20.8235V20.8427V20.8618V20.881V20.9001V20.9192V20.9384V20.9575V20.9767V20.9958V21.015V21.0341V21.0533V21.0724V21.0915V21.1107V21.1298V21.149V21.1681V21.1873V21.2064V21.2256V21.2447V21.2638V21.283V21.3021V21.3213V21.3404V21.3596V21.3787V21.3979V21.417V21.4361V21.4553V21.4744V21.4936V21.5127V21.5319V21.551V21.5702V21.5893V21.6084V21.6276V21.6467V21.6659V21.685V21.7042V21.7233V21.7425V21.7616V21.7807V21.7999V21.819V21.8382V21.8573V21.8765V21.8956V21.9148V21.9339V21.9531V21.9722V21.9913V22.0105V22.0296V22.0488V22.0679V22.0871V22.1062V22.1254V22.1445V22.1636V22.1828V22.2019V22.2211V22.2402V22.2594V22.2785V22.2977V22.3168V22.3359V22.3551V22.3742V22.3934V22.4125V22.4317V22.4508V22.47V22.4891V22.5082V22.5274V22.5465V22.5657V22.5848V22.604V22.6231V22.6423V22.6614V22.6805V22.6997V22.7188V22.738V22.7571V22.7763V22.7954V22.8146V22.8337V22.8528V22.872V22.8911V22.9103V22.9294V22.9486V22.9677V22.9869V23.006V23.0251V23.0443V23.0634V23.0826V23.1017V23.1209V23.14V23.1592V23.1783V23.1974V23.2166V23.2357V23.2549V23.274V23.2932V23.3123V23.3315V23.3506V23.3697V23.3889V23.408V23.4272V23.4463V23.4655V23.4846V23.5038V23.5229V23.5421V23.5612V23.5803V23.5995V23.6186V23.6378V23.6569V23.6761V23.6952V23.7144V23.7335V23.7526V23.7718V23.7909V23.8101V23.8292V23.8484V23.8675V23.8867V23.9058V23.9249V23.9441V23.9632V23.9824V24.0015V24.0207V24.0398V24.059V24.0781V24.0972V24.1164V24.1355V24.1547V24.1738V24.193V24.2121V24.2313V24.2504V24.2695V24.2887V24.3078V24.327V24.3461V24.3653V24.3844V24.4036V24.4227V24.4418V24.461V24.4801V24.4993V24.5184V24.5376V24.5567V24.5759V24.595V24.6141V24.6333V24.6524V24.6716V24.6907V24.7099V24.729V24.7482V24.7673V24.7864V24.8056V24.8247V24.8439V24.863V24.8822V24.9013V24.9205V24.9396V24.9587V24.9779V24.997V25.0162V25.0353V25.0545V25.0736V25.0928V25.1119V25.1311V25.1502V25.1693V25.1885V25.2076V25.2268V25.2459V25.2651V25.2842V25.3034V25.3225V25.3416V25.3608V25.3799V25.3991V25.4182V25.4374V25.4565V25.4757V25.4948V25.5139V25.5331V25.5522V25.5714V25.5905V25.6097V25.6288V25.648V25.6671V25.6862V25.7054V25.7245V25.7437V25.7628V25.782V25.8011V25.8203V25.8394V25.8585V25.8777V25.8968V25.916V25.9351V25.9543V25.9734V25.9926V26.0117V26.0308V26.05V26.0691V26.0883V26.1074V26.1266V26.1457V26.1649V26.184V26.2031V26.2223V26.2414V26.2606V26.2797V26.2989V26.318V26.3372V26.3563V26.3754V26.3946V26.4137V26.4329V26.452V26.4712V26.4903V26.5095V26.5286V26.5477V26.5669V26.586V26.6052V26.6243V26.6435V26.6626V26.6818V26.7009V26.7201V26.7392V26.7583V26.7775V26.7966V26.8158V26.8349V26.8541V26.8732V26.8924V26.9115V26.9306V26.9498V26.9689V26.9881V27.0072V27.0264V27.0455V27.0647V27.0838V27.1029V27.1221V27.1412V27.1604V27.1795V27.1987V27.2178V27.237V27.2561V27.2752V27.2944V27.3135V27.3327V27.3518V27.371V27.3901V27.4093V27.4284V27.4475V27.4667V27.4858V27.505V27.5241V27.5433V27.5624V27.5816V27.6007V27.6198V27.639V27.6581V27.6773V27.6964V27.7156V27.7347V27.7539V27.773V27.7921V27.8113V27.8304V27.8496V27.8687V27.8879V27.907V27.9262V27.9453V27.9644V27.9836V28.0027V28.0219V28.041V28.0602V28.0793V28.0985V28.1176V28.1368V28.1559V28.175V28.1942V28.2133V28.2325V28.2516V28.2708V28.2899V28.3091V28.3282V28.3473V28.3665V28.3856V28.4048V28.4239V28.4431V28.4622V28.4814V28.5005V28.5196V28.5388V28.5579V28.5771V28.5962V28.6154V28.6345V28.6537V28.6728V28.6919V28.7111V28.7302V28.7494V28.7685V28.7877V28.8068V28.826V28.8451V28.8642V28.8834V28.9025V28.9217V28.9408V28.96V28.9791V28.9983V29.0174V29.0365V29.0557V29.0748V29.094V29.1131V29.1323V29.1514V29.1706V29.1897V29.2088V29.228V29.2471V29.2663V29.2854C50.1582 29.6551 50.1625 30.0283 50.1668 30.3985L50.1669 30.4071C50.1712 30.7816 50.1755 31.1533 50.1755 31.5242V32.2869H50.9382H56.548Z" fill="#2C4D7F" stroke="white" stroke-width="1.52543"/>
<path d="M65.805 105.12H66.7584V104.167V50.8173C66.7584 47.4465 65.6718 44.1237 63.7363 41.7372L63.7363 41.7372L63.7327 41.7329C63.1773 41.0562 62.552 40.5659 61.9505 40.1467L61.9496 40.1461C61.6787 39.9577 61.4209 39.788 61.1758 39.6267C60.3044 39.053 59.5943 38.5856 59.0274 37.761L59.0251 37.7577C57.94 36.1936 57.5604 33.8431 57.5094 31.5036L57.489 30.571H56.5562H50.9464H49.993V31.5244C49.993 33.1106 49.9119 34.5732 49.4655 35.8739L49.4654 35.8742C48.8298 37.728 47.4524 39.1123 46.0095 40.0291L45.9739 40.0517L45.9405 40.0773C42.8747 42.429 40.9948 46.6617 40.9948 51.3791V104.167V105.12H41.9482H65.805Z" fill="#E381C8" stroke="white" stroke-width="1.90679"/>
<path d="M63.5484 53.1592H44.5234V89.8866H63.5484V53.1592Z" fill="white"/>
<path d="M61.1203 55.917H46.9531V87.1296H61.1203V55.917Z" fill="#2C4D7F"/>
<path d="M54.5514 66.2456C54.6378 66.5049 54.1192 66.9198 54.1624 67.1618C54.2143 67.4384 54.8539 67.6459 54.8539 67.8879C54.8539 68.1818 54.2143 68.346 54.1365 68.5621C54.0328 68.856 54.2661 69.4524 54.0328 69.5302C53.808 69.608 53.6092 69.003 53.3499 68.8387C53.1597 68.7177 52.5547 68.9857 52.3732 68.7609C52.2176 68.5708 52.5892 68.0089 52.4596 67.7669C52.3386 67.5422 51.673 67.5508 51.5779 67.2915C51.4915 67.0322 52.0101 66.6173 51.9669 66.3753C51.915 66.0987 51.2754 65.8912 51.2754 65.6492C51.2754 65.3553 51.915 65.1911 51.9928 64.975C52.0966 64.6811 51.8718 64.0847 52.0965 64.0069C52.3213 63.9291 52.5201 64.5341 52.7794 64.6984C52.9696 64.8194 53.5746 64.5514 53.7561 64.7762C53.9117 64.9663 53.5401 65.5282 53.6697 65.7702C53.7907 65.9949 54.4649 65.9863 54.5514 66.2456Z" fill="#F4D75F"/>
<path d="M56.7637 68.5359C56.5995 68.6742 56.1586 68.3976 55.9858 68.5013C55.7956 68.6136 55.8215 69.1323 55.64 69.2014C55.4239 69.2792 55.13 68.8557 54.9571 68.8557C54.7151 68.8557 54.3434 69.1841 54.2224 69.0458C54.1014 68.8989 54.4904 68.5964 54.5422 68.3543C54.5768 68.1815 54.2224 67.8184 54.3348 67.6196C54.4299 67.4554 54.9399 67.5764 55.0868 67.4122C55.2165 67.2652 55.035 66.7812 55.1992 66.6429C55.3634 66.5046 55.8042 66.7812 55.9771 66.6775C56.1673 66.5651 56.1413 66.0465 56.3229 65.9773C56.539 65.8995 56.8329 66.3231 57.0057 66.3231C57.2478 66.3144 57.6194 65.9946 57.7404 66.1329C57.8615 66.2798 57.4725 66.5824 57.4206 66.8244C57.386 66.9973 57.7404 67.3603 57.6281 67.5591C57.533 67.7233 57.023 67.6023 56.8761 67.7666C56.7464 67.9135 56.9279 68.3976 56.7637 68.5359Z" fill="#F4D75F"/>
<path d="M51.0845 72.296C52.0297 72.296 52.796 71.5297 52.796 70.5845C52.796 69.6393 52.0297 68.873 51.0845 68.873C50.1393 68.873 49.373 69.6393 49.373 70.5845C49.373 71.5297 50.1393 72.296 51.0845 72.296Z" fill="#E381C8"/>
<path d="M51.0847 72.3999C50.082 72.3999 49.2695 71.5874 49.2695 70.5847C49.2695 69.5821 50.082 68.7695 51.0847 68.7695C52.0874 68.7695 52.8999 69.5821 52.8999 70.5847C52.8999 71.5874 52.0874 72.3999 51.0847 72.3999ZM51.0847 68.9683C50.1944 68.9683 49.477 69.6944 49.477 70.5761C49.477 71.4664 50.2031 72.1838 51.0847 72.1838C51.975 72.1838 52.6925 71.4577 52.6925 70.5761C52.6925 69.6944 51.975 68.9683 51.0847 68.9683Z" fill="#2C4D7F"/>
<path d="M55.9161 70.5845C55.9161 71.5353 55.1468 72.296 54.2046 72.296C53.2538 72.296 52.4932 71.5267 52.4932 70.5845C52.4932 69.6337 53.2625 68.873 54.2046 68.873C55.1468 68.873 55.9161 69.6337 55.9161 70.5845Z" fill="#E381C8"/>
<path d="M54.2048 72.3999C53.2022 72.3999 52.3896 71.5874 52.3896 70.5847C52.3896 69.5821 53.2022 68.7695 54.2048 68.7695C55.2075 68.7695 56.02 69.5821 56.02 70.5847C56.02 71.5874 55.2075 72.3999 54.2048 72.3999ZM54.2048 68.9683C53.3145 68.9683 52.5971 69.6944 52.5971 70.5761C52.5971 71.4664 53.3232 72.1838 54.2048 72.1838C55.0951 72.1838 55.8126 71.4577 55.8126 70.5761C55.8126 69.6944 55.0865 68.9683 54.2048 68.9683Z" fill="#2C4D7F"/>
<path d="M57.4107 72.296C58.3559 72.296 59.1222 71.5297 59.1222 70.5845C59.1222 69.6393 58.3559 68.873 57.4107 68.873C56.4655 68.873 55.6992 69.6393 55.6992 70.5845C55.6992 71.5297 56.4655 72.296 57.4107 72.296Z" fill="#E381C8"/>
<path d="M57.4109 72.3999C56.4082 72.3999 55.5957 71.5874 55.5957 70.5847C55.5957 69.5821 56.4082 68.7695 57.4109 68.7695C58.4136 68.7695 59.2261 69.5821 59.2261 70.5847C59.2261 71.5874 58.4136 72.3999 57.4109 72.3999ZM57.4109 68.9683C56.5206 68.9683 55.8032 69.6944 55.8032 70.5761C55.8032 71.4664 56.5292 72.1838 57.4109 72.1838C58.3012 72.1838 59.0186 71.4577 59.0186 70.5761C59.0186 69.6944 58.3012 68.9683 57.4109 68.9683Z" fill="#2C4D7F"/>
<path d="M52.649 74.6036C53.5942 74.6036 54.3604 73.8374 54.3604 72.8921C54.3604 71.9469 53.5942 71.1807 52.649 71.1807C51.7037 71.1807 50.9375 71.9469 50.9375 72.8921C50.9375 73.8374 51.7037 74.6036 52.649 74.6036Z" fill="#E381C8"/>
<path d="M52.6492 74.7163C51.6465 74.7163 50.834 73.9038 50.834 72.9011C50.834 71.8984 51.6465 71.0859 52.6492 71.0859C53.6518 71.0859 54.4644 71.8984 54.4644 72.9011C54.4644 73.8951 53.6518 74.7163 52.6492 74.7163ZM52.6492 71.2847C51.7589 71.2847 51.0414 72.0108 51.0414 72.8925C51.0414 73.7828 51.7675 74.5002 52.6492 74.5002C53.5395 74.5002 54.2569 73.7741 54.2569 72.8925C54.2569 72.0108 53.5395 71.2847 52.6492 71.2847Z" fill="#2C4D7F"/>
<path d="M55.857 74.6036C56.8022 74.6036 57.5684 73.8374 57.5684 72.8921C57.5684 71.9469 56.8022 71.1807 55.857 71.1807C54.9118 71.1807 54.1455 71.9469 54.1455 72.8921C54.1455 73.8374 54.9118 74.6036 55.857 74.6036Z" fill="#E381C8"/>
<path d="M55.8562 74.7163C54.8535 74.7163 54.041 73.9038 54.041 72.9011C54.041 71.8984 54.8535 71.0859 55.8562 71.0859C56.8589 71.0859 57.6714 71.8984 57.6714 72.9011C57.6714 73.8951 56.8589 74.7163 55.8562 74.7163ZM55.8562 71.2847C54.9659 71.2847 54.2485 72.0108 54.2485 72.8925C54.2485 73.7828 54.9745 74.5002 55.8562 74.5002C56.7465 74.5002 57.464 73.7741 57.464 72.8925C57.464 72.0108 56.7465 71.2847 55.8562 71.2847Z" fill="#2C4D7F"/>
<path d="M54.3882 76.9034C55.3334 76.9034 56.0997 76.1372 56.0997 75.1919C56.0997 74.2467 55.3334 73.4805 54.3882 73.4805C53.443 73.4805 52.6768 74.2467 52.6768 75.1919C52.6768 76.1372 53.443 76.9034 54.3882 76.9034Z" fill="#E381C8"/>
<path d="M54.3875 77.0073C53.3848 77.0073 52.5723 76.1948 52.5723 75.1921C52.5723 74.1895 53.3848 73.377 54.3875 73.377C55.3901 73.377 56.2026 74.1895 56.2026 75.1921C56.2026 76.1948 55.3901 77.0073 54.3875 77.0073ZM54.3875 73.5844C53.4972 73.5844 52.7797 74.3105 52.7797 75.1921C52.7797 76.0825 53.5058 76.7999 54.3875 76.7999C55.2778 76.7999 55.9952 76.0738 55.9952 75.1921C55.9952 74.3018 55.2778 73.5844 54.3875 73.5844Z" fill="#2C4D7F"/>
<path d="M40.6132 46.8059H28.4082V43.2101C28.4082 41.9308 29.3936 40.8936 30.5864 40.8936H38.4263C39.6278 40.8936 40.6046 41.9394 40.6046 43.2101V46.6762C40.6132 46.7195 40.6132 46.7627 40.6132 46.8059Z" fill="white"/>
<path d="M47.9601 66.2804V101.746C47.9601 103.016 46.9747 104.062 45.7819 104.062H23.2476C22.0461 104.062 21.0693 103.016 21.0693 101.746V67.0065C21.0693 63.1859 22.461 59.7025 24.7343 57.0834C26.4976 55.0608 27.6645 52.5541 28.1572 49.8832C28.1615 49.8659 28.1637 49.8507 28.1659 49.8356C28.168 49.8205 28.1702 49.8054 28.1745 49.7881H40.9327C40.937 49.8054 40.9392 49.8205 40.9414 49.8356C40.9435 49.8507 40.9457 49.8659 40.95 49.8832C41.5032 52.459 42.722 54.8447 44.4421 56.8155C46.6203 59.3049 47.9601 62.6327 47.9601 66.2804Z" fill="#962121"/>
<path d="M47.9601 66.2804V101.746C47.9601 103.016 46.9747 104.062 45.7819 104.062H23.2476C22.0461 104.062 21.0693 103.016 21.0693 101.746V67.0065C21.0693 63.1859 22.461 59.7025 24.7343 57.0834C26.4976 55.0608 27.6645 52.5541 28.1572 49.8832C28.1615 49.8659 28.1637 49.8507 28.1659 49.8356C28.168 49.8205 28.1702 49.8054 28.1745 49.7881H40.9327C40.937 49.8054 40.9392 49.8205 40.9414 49.8356C40.9435 49.8507 40.9457 49.8659 40.95 49.8832C41.5032 52.459 42.722 54.8447 44.4421 56.8155C46.6203 59.3049 47.9601 62.6327 47.9601 66.2804Z" stroke="white"/>
<path d="M25.0996 57.4119C26.8434 55.4117 28.0416 52.9527 28.5781 50.2819H40.5393C41.1337 52.8118 42.3555 55.1754 44.0773 57.1444L44.0774 57.1445C46.2624 59.6404 47.4664 62.887 47.4664 66.2804V101.746C47.4664 102.777 46.681 103.577 45.7733 103.577H23.2476C22.3399 103.577 21.5545 102.777 21.5545 101.746V67.0065C21.5545 63.4483 22.8108 60.0373 25.0996 57.4119ZM27.7055 49.601L27.6897 49.6804C27.6822 49.7126 27.6783 49.7398 27.6764 49.7535L27.676 49.7558C27.6751 49.7623 27.6746 49.7657 27.6744 49.7672L27.672 49.7765L27.6698 49.7883C27.1891 52.4031 26.0425 54.8123 24.3597 56.756C21.9214 59.5667 20.5757 63.2084 20.5757 66.9979V101.737C20.5757 103.266 21.7544 104.547 23.2476 104.547H45.7733C47.2658 104.547 48.4458 103.267 48.4366 101.736V66.2718C48.4366 62.6468 47.1515 59.1685 44.8069 56.4953C43.1297 54.5735 41.9587 52.2567 41.4276 49.7817L41.3938 49.6044L41.3348 49.2944H41.0192H28.0795H27.7669L27.7055 49.601Z" fill="white" stroke="white" stroke-width="0.762716"/>
<path d="M41.0539 50.6459H42.0127L41.7971 49.7117L41.7727 49.6059C41.5775 48.6846 41.4793 47.7448 41.4709 46.8026V46.7109V45.9482H40.7082H28.3044H27.5417V46.7109V47.0567C27.5417 47.9297 27.4675 48.7934 27.3197 49.6395L27.3183 49.6472L27.3171 49.6549L27.2999 49.7672L27.1647 50.6459H28.0537H41.0539ZM29.1488 48.9303C29.197 48.5133 29.2296 48.0935 29.2456 47.6724H39.7904C39.8158 48.0938 39.8587 48.5136 39.9176 48.9303H29.1488Z" fill="#E381C8" stroke="white" stroke-width="1.52543"/>
<path d="M26.9013 47.6616V48.2571L27.4791 48.4016C27.6142 48.4353 27.7534 48.4335 27.7876 48.433C27.7903 48.433 27.7924 48.433 27.7937 48.433C28.0266 48.433 28.231 48.3876 28.4146 48.305C28.5746 48.2331 28.6981 48.1401 28.76 48.0935C28.7635 48.0908 28.7668 48.0883 28.77 48.086C28.7997 48.0637 28.8173 48.051 28.8273 48.044C28.8284 48.044 28.8297 48.044 28.831 48.044C28.8323 48.044 28.8335 48.044 28.8346 48.044C28.8446 48.051 28.8622 48.0637 28.892 48.086C28.8951 48.0883 28.8984 48.0908 28.902 48.0935C28.9639 48.1401 29.0874 48.2331 29.2473 48.305C29.4309 48.3876 29.6353 48.433 29.8682 48.433C30.101 48.433 30.3056 48.3877 30.4894 48.3048C30.6508 48.2321 30.7745 48.1383 30.8366 48.0911C30.8399 48.0887 30.8429 48.0863 30.8458 48.0841C30.8727 48.0638 30.8897 48.0514 30.9 48.044C30.9002 48.044 30.9003 48.044 30.9005 48.044C30.9105 48.051 30.9281 48.0637 30.9578 48.086C30.961 48.0883 30.9643 48.0908 30.9678 48.0935C31.0297 48.1401 31.1532 48.2331 31.3132 48.305C31.4968 48.3876 31.7012 48.433 31.9341 48.433C32.167 48.433 32.3714 48.3876 32.555 48.305C32.7149 48.2331 32.8384 48.1401 32.9003 48.0935C32.9039 48.0908 32.9072 48.0883 32.9103 48.086C32.9401 48.0637 32.9577 48.051 32.9677 48.044C32.9688 48.044 32.97 48.044 32.9713 48.044C32.9724 48.044 32.9735 48.044 32.9744 48.044C32.9843 48.051 33.0012 48.0632 33.0288 48.0841C33.0321 48.0866 33.0357 48.0893 33.0395 48.0922C33.1 48.1382 33.2224 48.2312 33.3801 48.3032C33.5631 48.3868 33.7672 48.433 33.9999 48.433C34.2327 48.433 34.4373 48.3877 34.6212 48.3048C34.7825 48.2321 34.9062 48.1383 34.9683 48.0911C34.9716 48.0887 34.9747 48.0863 34.9776 48.0841C35.0044 48.0638 35.0214 48.0514 35.0317 48.044C35.0319 48.044 35.0321 48.044 35.0322 48.044C35.0422 48.051 35.0598 48.0637 35.0896 48.086C35.0927 48.0883 35.096 48.0908 35.0996 48.0935C35.1615 48.1401 35.285 48.2331 35.4449 48.305C35.6285 48.3876 35.8329 48.433 36.0658 48.433C36.2986 48.433 36.5032 48.3877 36.687 48.3048C36.8483 48.2321 36.972 48.1383 37.0342 48.0911C37.0374 48.0887 37.0405 48.0863 37.0434 48.0841C37.0703 48.0638 37.0872 48.0514 37.0975 48.0441C37.1074 48.051 37.1243 48.0632 37.1519 48.0841C37.1552 48.0866 37.1587 48.0893 37.1625 48.0922C37.2231 48.1382 37.3455 48.2312 37.5032 48.3032C37.6861 48.3868 37.8903 48.433 38.123 48.433C38.3558 48.433 38.5604 48.3877 38.7442 48.3048C38.9055 48.2321 39.0293 48.1383 39.0914 48.0911C39.0947 48.0887 39.0977 48.0863 39.1006 48.0841C39.1262 48.0648 39.1428 48.0527 39.1532 48.0452C39.1638 48.0526 39.1819 48.0655 39.2118 48.0878C39.2148 48.09 39.2179 48.0923 39.2211 48.0947C39.2842 48.1418 39.4082 48.2343 39.5689 48.306C39.752 48.3877 39.9561 48.433 40.1889 48.433C40.4217 48.433 40.6263 48.3877 40.8101 48.3048C40.9714 48.2321 41.0951 48.1383 41.1573 48.0911C41.1605 48.0887 41.1636 48.0863 41.1665 48.0841C41.193 48.0641 41.2098 48.0518 41.2202 48.0444L42.1099 48.2668V47.2899V46.4169V45.8205V43.0831C42.1204 41.3789 40.5949 40.1308 38.9096 40.1308H30.1102C28.4202 40.1308 26.9013 41.3823 26.9013 43.0891V46.1922V46.4256V47.6616Z" fill="#DB4E12" stroke="white" stroke-width="1.52543"/>
</g>
<defs>
<clipPath id="clip0_2089_36035">
<rect x="0.899414" y="0.44043" width="84.9618" height="84.9618" rx="42.4809" fill="white"/>
</clipPath>
</defs>
</svg>
