<svg width="86" height="86" viewBox="0 0 86 86" fill="none" xmlns="http://www.w3.org/2000/svg">
<g clip-path="url(#clip0_2089_35646)">
<rect x="0.9375" y="0.44043" width="84.9618" height="84.9618" rx="42.4809" fill="#CFEEE0"/>
<path d="M20.1366 93.4854C18.7912 93.4854 17.6943 92.4573 17.6943 91.196V53.2011L17.8701 53.117V39.1972C17.8701 37.8251 18.9862 36.7129 20.3544 36.7129H21.2029L17.9007 26.6418C17.3503 24.9563 17.5605 23.1179 18.4816 21.5891C18.9862 20.7482 19.6894 20.0411 20.5188 19.5328L20.5379 19.5137L21.0653 19.2156H21.0997C21.3482 19.1009 21.6004 18.9977 21.8642 18.9175L23.8096 18.2983C24.4134 18.1072 25.0403 18.0078 25.6747 18.0078C28.3693 18.0078 30.7427 19.7201 31.5759 22.2656L32.0384 23.6759C32.906 22.4796 34.3163 21.7152 35.8566 21.7152C36.1891 21.7152 36.5255 21.7496 36.8504 21.8222C38.0811 22.0859 39.1398 22.8159 39.8239 23.8746C40.4431 24.8301 40.6915 25.9538 40.5386 27.0699C41.2037 27.5476 41.7502 28.1783 42.1286 28.9083C42.8701 29.3134 42.8701 30.3606 42.8701 31.1059L42.8854 34.733C42.9962 35.3025 43.0229 35.8797 42.9656 36.4606C43.065 37.1371 43.237 37.504 43.3669 37.6951C43.4969 37.8862 43.7033 38.0238 44.0587 38.257C44.1122 38.2914 44.1657 38.3296 44.2231 38.364C46.6806 35.9867 49.6236 34.4349 52.708 33.9037L52.5398 27.6585C52.4481 24.2759 55.1312 21.4247 58.5175 21.3062L60.5623 21.2336C60.6273 21.2298 60.696 21.2298 60.7648 21.2298C61.1547 21.2298 61.5522 21.268 61.9497 21.3483C62.8823 21.5317 63.769 21.9292 64.5143 22.5064C65.9743 23.6339 66.8419 25.3385 66.8916 27.1769L67.2699 41.414C69.1198 44.9799 69.6817 49.2147 68.8828 53.4801V91.2036C68.8828 92.4649 67.7859 93.493 66.4406 93.493H20.1366V93.4854Z" fill="white"/>
<path d="M37.8399 28.9336C39.2224 27.8405 39.457 25.8335 38.3639 24.451C37.2708 23.0684 35.2638 22.8338 33.8813 23.9269C32.4987 25.0201 32.2641 27.027 33.3572 28.4096C34.4504 29.7921 36.4573 30.0268 37.8399 28.9336Z" fill="#487F41"/>
<path d="M33.6255 43.5015C35.3376 43.0828 36.3861 41.3553 35.9673 39.6431C35.5485 37.931 33.8211 36.8825 32.1089 37.3013C30.3968 37.7201 29.3483 39.4475 29.7671 41.1597C30.1858 42.8718 31.9133 43.9203 33.6255 43.5015Z" fill="#487F41"/>
<path d="M35.8892 31.0888C36.3994 29.1429 35.2355 27.1519 33.2897 26.6418C31.3438 26.1316 29.3528 27.2955 28.8427 29.2413C28.3325 31.1872 29.4964 33.1782 31.4422 33.6884C33.3881 34.1985 35.3791 33.0346 35.8892 31.0888Z" fill="#487F41"/>
<path d="M41.0943 32.0349C40.6701 34.0032 38.7361 35.253 36.7678 34.8326C34.7994 34.4084 33.5496 32.4744 33.97 30.5061C34.3943 28.5377 36.3282 27.2879 38.2966 27.7083C40.2649 28.1326 41.5186 30.0704 41.0943 32.0349Z" fill="#487F41"/>
<path d="M34.0622 39.4126C34.7269 37.514 33.7266 35.436 31.828 34.7714C29.9294 34.1068 27.8515 35.1071 27.1868 37.0057C26.5222 38.9042 27.5225 40.9822 29.4211 41.6468C31.3197 42.3115 33.3976 41.3111 34.0622 39.4126Z" fill="#487F41"/>
<path d="M39.3914 39.922C39.7203 37.9376 38.3782 36.0622 36.3937 35.7333C34.4092 35.4044 32.5338 36.7465 32.2049 38.731C31.876 40.7155 33.2181 42.5908 35.2026 42.9198C37.1871 43.2487 39.0625 41.9065 39.3914 39.922Z" fill="#487F41"/>
<path d="M35.0747 35.5474C35.643 33.1744 34.18 30.7899 31.807 30.2216C29.4339 29.6533 27.0495 31.1163 26.4812 33.4894C25.9129 35.8624 27.3759 38.2468 29.7489 38.8151C32.122 39.3835 34.5064 37.9204 35.0747 35.5474Z" fill="#487F41"/>
<path d="M38.1706 40.1442C40.5302 39.5227 41.9392 37.106 41.3177 34.7464C40.6962 32.3868 38.2796 30.9778 35.9199 31.5993C33.5603 32.2208 32.1513 34.6375 32.7728 36.9971C33.3943 39.3567 35.811 40.7657 38.1706 40.1442Z" fill="#487F41"/>
<path d="M31.5969 45.7327C31.5778 45.7327 31.5549 45.7289 31.5357 45.7251C31.3752 45.6907 31.272 45.5302 31.3064 45.3696L35.8126 24.402C35.847 24.2414 36.0037 24.1382 36.1681 24.1726C36.3286 24.207 36.4318 24.3676 36.3974 24.5281L31.8912 45.4958C31.8606 45.6372 31.7345 45.7327 31.5969 45.7327Z" fill="#99C446"/>
<path d="M35.6176 31.9007C35.0825 31.9007 34.5703 31.8051 34.0926 31.6179C31.4669 30.5859 30.5496 28.3347 30.5113 28.2392C30.4502 28.0863 30.5266 27.9143 30.6795 27.8531C30.8324 27.792 31.0044 27.8684 31.0655 28.0213C31.0808 28.0557 31.9408 30.1349 34.3105 31.0675C36.6495 31.9848 39.1033 29.982 39.1262 29.9629C39.2523 29.8597 39.4396 29.875 39.5466 30.0011C39.6537 30.1273 39.6345 30.3145 39.5084 30.4216C39.4817 30.4445 38.8204 30.991 37.8267 31.4153C37.07 31.7363 36.3247 31.9007 35.6176 31.9007Z" fill="#99C446"/>
<path d="M33.5043 41.7239C32.9692 41.7239 32.4571 41.6284 31.9793 41.4411C29.3536 40.4091 28.4363 38.158 28.3981 38.0624C28.3369 37.9095 28.4134 37.7375 28.5662 37.6764C28.7191 37.6152 28.8911 37.6917 28.9523 37.8445C28.9599 37.8675 29.8199 39.9543 32.1972 40.8907C34.5363 41.808 36.99 39.8053 37.0129 39.7861C37.1391 39.683 37.3263 39.6982 37.4334 39.8244C37.5404 39.9505 37.5213 40.1378 37.3951 40.2448C37.3684 40.2677 36.7072 40.8143 35.7134 41.2385C34.9567 41.5634 34.2114 41.7239 33.5043 41.7239Z" fill="#99C446"/>
<path d="M34.5857 37.5462C34.1615 37.5462 33.7487 37.5003 33.3512 37.4124C31.8606 37.0723 30.477 36.1664 29.3572 34.7943C28.5163 33.7662 28.1188 32.8451 28.1035 32.8069C28.0386 32.654 28.1074 32.482 28.2602 32.417C28.4131 32.352 28.5851 32.4208 28.6501 32.5737C28.6654 32.6081 30.1866 36.0747 33.485 36.8315C36.4394 37.508 39.4435 35.1345 39.4741 35.1077C39.604 35.0045 39.7913 35.0236 39.8945 35.1536C39.9977 35.2835 39.9786 35.4708 39.8487 35.574C39.8143 35.6008 39.0307 36.2276 37.8421 36.7741C36.7184 37.2863 35.6138 37.5462 34.5857 37.5462Z" fill="#99C446"/>
<path d="M35.5418 62.6535H20.3569C19.8294 62.6535 19.4014 62.2255 19.4014 61.698V39.1977C19.4014 38.6703 19.8294 38.2422 20.3569 38.2422H35.5418C36.0693 38.2422 36.4973 38.6703 36.4973 39.1977V61.698C36.4973 62.2255 36.0693 62.6535 35.5418 62.6535Z" fill="white"/>
<path d="M35.3772 62.314H20.521C20.0929 62.314 19.7451 61.9661 19.7451 61.5381V39.355C19.7451 38.9269 20.0929 38.5791 20.521 38.5791H35.3772C35.8053 38.5791 36.1531 38.9269 36.1531 39.355V61.5381C36.1531 61.9661 35.8053 62.314 35.3772 62.314ZM20.521 38.6364C20.1235 38.6364 19.8024 38.9613 19.8024 39.355V61.5381C19.8024 61.9356 20.1273 62.2566 20.521 62.2566H35.3772C35.7747 62.2566 36.0958 61.9318 36.0958 61.5381V39.355C36.0958 38.9575 35.7709 38.6364 35.3772 38.6364H20.521Z" fill="#080044"/>
<path d="M24.0994 46.5787C26.2335 46.5787 27.9635 44.8487 27.9635 42.7147C27.9635 40.5806 26.2335 38.8506 24.0994 38.8506C21.9654 38.8506 20.2354 40.5806 20.2354 42.7147C20.2354 44.8487 21.9654 46.5787 24.0994 46.5787Z" fill="#CC3C0E"/>
<path d="M24.0994 46.82C26.2335 46.82 27.9635 45.09 27.9635 42.9559C27.9635 40.8218 26.2335 39.0918 24.0994 39.0918C21.9654 39.0918 20.2354 40.8218 20.2354 42.9559C20.2354 45.09 21.9654 46.82 24.0994 46.82Z" fill="#DB4E12"/>
<path d="M26.469 42.8141C26.7308 42.8141 26.943 42.6019 26.943 42.3401C26.943 42.0784 26.7308 41.8662 26.469 41.8662C26.2073 41.8662 25.9951 42.0784 25.9951 42.3401C25.9951 42.6019 26.2073 42.8141 26.469 42.8141Z" fill="white"/>
<path d="M23.5102 40.0095C23.5102 40.2121 23.3459 40.3764 23.1433 40.3764C22.9407 40.3764 22.7764 40.2121 22.7764 40.0095C22.7764 39.8069 22.9407 39.6426 23.1433 39.6426C23.3459 39.6426 23.5102 39.8069 23.5102 40.0095Z" fill="white"/>
<path d="M21.7108 44.5495C21.9345 44.5495 22.1159 44.3681 22.1159 44.1444C22.1159 43.9206 21.9345 43.7393 21.7108 43.7393C21.487 43.7393 21.3057 43.9206 21.3057 44.1444C21.3057 44.3681 21.487 44.5495 21.7108 44.5495Z" fill="white"/>
<path d="M24.1799 41.607C24.1799 41.7867 24.0346 41.9357 23.8512 41.9357C23.6677 41.9357 23.5225 41.7905 23.5225 41.607C23.5225 41.4274 23.6677 41.2783 23.8512 41.2783C24.0346 41.2783 24.1799 41.4274 24.1799 41.607Z" fill="white"/>
<path d="M21.6233 42.4664C21.8851 42.4664 22.0973 42.2542 22.0973 41.9925C22.0973 41.7307 21.8851 41.5186 21.6233 41.5186C21.3616 41.5186 21.1494 41.7307 21.1494 41.9925C21.1494 42.2542 21.3616 42.4664 21.6233 42.4664Z" fill="white"/>
<path d="M25.2649 40.8004C25.5267 40.8004 25.7389 40.5882 25.7389 40.3265C25.7389 40.0647 25.5267 39.8525 25.2649 39.8525C25.0032 39.8525 24.791 40.0647 24.791 40.3265C24.791 40.5882 25.0032 40.8004 25.2649 40.8004Z" fill="white"/>
<path d="M25.3528 44.0797C25.6146 44.0797 25.8268 43.8675 25.8268 43.6058C25.8268 43.344 25.6146 43.1318 25.3528 43.1318C25.0911 43.1318 24.8789 43.344 24.8789 43.6058C24.8789 43.8675 25.0911 44.0797 25.3528 44.0797Z" fill="white"/>
<path d="M23.6369 43.9233C23.9746 43.9233 24.2484 43.6495 24.2484 43.3117C24.2484 42.974 23.9746 42.7002 23.6369 42.7002C23.2992 42.7002 23.0254 42.974 23.0254 43.3117C23.0254 43.6495 23.2992 43.9233 23.6369 43.9233Z" fill="white"/>
<path d="M25.0287 45.6961C25.1659 45.6961 25.2771 45.5849 25.2771 45.4476C25.2771 45.3104 25.1659 45.1992 25.0287 45.1992C24.8915 45.1992 24.7803 45.3104 24.7803 45.4476C24.7803 45.5849 24.8915 45.6961 25.0287 45.6961Z" fill="white"/>
<path d="M27.1806 44.458C27.1806 44.6529 27.0201 44.8134 26.8252 44.8134C26.6303 44.8134 26.4697 44.6529 26.4697 44.458C26.4697 44.2631 26.6303 44.1025 26.8252 44.1025C27.0201 44.1025 27.1806 44.2631 27.1806 44.458Z" fill="white"/>
<path d="M23.1673 46.1051C23.429 46.1051 23.6412 45.8929 23.6412 45.6312C23.6412 45.3694 23.429 45.1572 23.1673 45.1572C22.9056 45.1572 22.6934 45.3694 22.6934 45.6312C22.6934 45.8929 22.9056 46.1051 23.1673 46.1051Z" fill="white"/>
<path d="M24.0994 49.1735C26.2335 49.1735 27.9635 47.4435 27.9635 45.3094C27.9635 43.1753 26.2335 41.4453 24.0994 41.4453C21.9654 41.4453 20.2354 43.1753 20.2354 45.3094C20.2354 47.4435 21.9654 49.1735 24.0994 49.1735Z" fill="#CC3C0E"/>
<path d="M24.0994 49.4069C26.2335 49.4069 27.9635 47.6769 27.9635 45.5428C27.9635 43.4087 26.2335 41.6787 24.0994 41.6787C21.9654 41.6787 20.2354 43.4087 20.2354 45.5428C20.2354 47.6769 21.9654 49.4069 24.0994 49.4069Z" fill="#DB4E12"/>
<path d="M26.2093 47.2594C26.471 47.2594 26.6832 47.0472 26.6832 46.7855C26.6832 46.5237 26.471 46.3115 26.2093 46.3115C25.9475 46.3115 25.7354 46.5237 25.7354 46.7855C25.7354 47.0472 25.9475 47.2594 26.2093 47.2594Z" fill="white"/>
<path d="M25.5066 43.1538C25.7092 43.1538 25.8735 42.9895 25.8735 42.7868C25.8735 42.5842 25.7092 42.4199 25.5066 42.4199C25.3039 42.4199 25.1396 42.5842 25.1396 42.7868C25.1396 42.9895 25.3039 43.1538 25.5066 43.1538Z" fill="white"/>
<path d="M21.5692 45.1032C21.793 45.1032 21.9743 44.9219 21.9743 44.6981C21.9743 44.4744 21.793 44.293 21.5692 44.293C21.3455 44.293 21.1641 44.4744 21.1641 44.6981C21.1641 44.9219 21.3455 45.1032 21.5692 45.1032Z" fill="white"/>
<path d="M25.1088 44.6488C24.9827 44.7749 24.7725 44.7749 24.6464 44.6488C24.5202 44.5227 24.5202 44.3125 24.6464 44.1863C24.7763 44.0564 24.9827 44.0564 25.1088 44.1863C25.2349 44.3125 25.2349 44.5188 25.1088 44.6488Z" fill="white"/>
<path d="M23.0296 43.5856C23.2913 43.5856 23.5035 43.3734 23.5035 43.1116C23.5035 42.8499 23.2913 42.6377 23.0296 42.6377C22.7678 42.6377 22.5557 42.8499 22.5557 43.1116C22.5557 43.3734 22.7678 43.5856 23.0296 43.5856Z" fill="white"/>
<path d="M26.7825 44.985C27.0443 44.985 27.2565 44.7728 27.2565 44.511C27.2565 44.2493 27.0443 44.0371 26.7825 44.0371C26.5208 44.0371 26.3086 44.2493 26.3086 44.511C26.3086 44.7728 26.5208 44.985 26.7825 44.985Z" fill="white"/>
<path d="M24.5237 47.3658C24.7855 47.3658 24.9977 47.1536 24.9977 46.8919C24.9977 46.6302 24.7855 46.418 24.5237 46.418C24.262 46.418 24.0498 46.6302 24.0498 46.8919C24.0498 47.1536 24.262 47.3658 24.5237 47.3658Z" fill="white"/>
<path d="M23.5227 46.0815C23.8604 46.0815 24.1342 45.8077 24.1342 45.4699C24.1342 45.1322 23.8604 44.8584 23.5227 44.8584C23.1849 44.8584 22.9111 45.1322 22.9111 45.4699C22.9111 45.8077 23.1849 46.0815 23.5227 46.0815Z" fill="white"/>
<path d="M22.9906 48.2146C23.1278 48.2146 23.2391 48.1034 23.2391 47.9662C23.2391 47.829 23.1278 47.7178 22.9906 47.7178C22.8534 47.7178 22.7422 47.829 22.7422 47.9662C22.7422 48.1034 22.8534 48.2146 22.9906 48.2146Z" fill="white"/>
<path d="M25.2162 48.7836C25.0786 48.9212 24.8531 48.9212 24.7155 48.7836C24.5779 48.646 24.5779 48.4205 24.7155 48.2829C24.8531 48.1453 25.0786 48.1453 25.2162 48.2829C25.3538 48.4205 25.3538 48.646 25.2162 48.7836Z" fill="white"/>
<path d="M21.5462 47.2477C21.8079 47.2477 22.0201 47.0355 22.0201 46.7737C22.0201 46.512 21.8079 46.2998 21.5462 46.2998C21.2844 46.2998 21.0723 46.512 21.0723 46.7737C21.0723 47.0355 21.2844 47.2477 21.5462 47.2477Z" fill="white"/>
<path d="M24.0994 51.528C26.2335 51.528 27.9635 49.798 27.9635 47.6639C27.9635 45.5298 26.2335 43.7998 24.0994 43.7998C21.9654 43.7998 20.2354 45.5298 20.2354 47.6639C20.2354 49.798 21.9654 51.528 24.0994 51.528Z" fill="#CC3C0E"/>
<path d="M25.109 51.631C23.0489 52.1891 20.9277 50.9698 20.3696 48.9098C19.8116 46.8497 21.0309 44.7284 23.0909 44.1704C25.151 43.6124 27.2722 44.8316 27.8303 46.8917C28.3883 48.9518 27.169 51.073 25.109 51.631Z" fill="#DB4E12"/>
<path d="M25.4337 50.4849C25.1814 50.5537 24.9215 50.4047 24.8527 50.1524C24.7839 49.9002 24.933 49.6403 25.1852 49.5715C25.4375 49.5027 25.6974 49.6517 25.7662 49.904C25.835 50.1562 25.6859 50.4161 25.4337 50.4849Z" fill="white"/>
<path d="M26.7903 46.5629C26.5954 46.6164 26.3928 46.5017 26.3393 46.303C26.2858 46.1081 26.4005 45.9055 26.5992 45.852C26.7941 45.7985 26.9967 45.9131 27.0502 46.1119C27.0999 46.3106 26.9852 46.5094 26.7903 46.5629Z" fill="white"/>
<path d="M22.4335 46.2955C22.2195 46.3528 21.9978 46.2267 21.9367 46.0127C21.8793 45.7986 22.0055 45.5769 22.2233 45.5158C22.4373 45.4584 22.659 45.5846 22.7202 45.7986C22.7775 46.0165 22.6514 46.2381 22.4335 46.2955Z" fill="white"/>
<path d="M25.4229 47.6259C25.2471 47.6718 25.0675 47.5686 25.0216 47.3966C24.9758 47.2208 25.079 47.0411 25.251 46.9953C25.4268 46.9494 25.6064 47.0526 25.6523 47.2246C25.702 47.3966 25.5988 47.5762 25.4229 47.6259Z" fill="white"/>
<path d="M24.5089 45.7144C24.2566 45.7832 23.9967 45.6342 23.9279 45.3819C23.8591 45.1296 24.0082 44.8698 24.2604 44.801C24.5127 44.7322 24.7726 44.8812 24.8414 45.1335C24.9102 45.3857 24.7611 45.6456 24.5089 45.7144Z" fill="white"/>
<path d="M27.0655 48.7955C26.8132 48.8643 26.5533 48.7152 26.4845 48.463C26.4158 48.2107 26.5648 47.9508 26.8171 47.882C27.0693 47.8132 27.3292 47.9623 27.398 48.2145C27.4668 48.4706 27.3177 48.7305 27.0655 48.7955Z" fill="white"/>
<path d="M23.9239 49.7349C23.6716 49.8037 23.4117 49.6547 23.3429 49.4024C23.2742 49.1502 23.4232 48.8903 23.6755 48.8215C23.9277 48.7527 24.1876 48.9017 24.2564 49.154C24.3214 49.4062 24.1723 49.6661 23.9239 49.7349Z" fill="white"/>
<path d="M23.7939 48.1379C23.469 48.2258 23.1327 48.0347 23.0448 47.706C22.9569 47.3812 23.148 47.0448 23.4767 46.9569C23.8016 46.869 24.1379 47.0601 24.2258 47.3888C24.3137 47.7137 24.1226 48.05 23.7939 48.1379Z" fill="white"/>
<path d="M21.9977 49.6852C21.8639 49.7196 21.7301 49.6432 21.6957 49.5094C21.6613 49.3756 21.7378 49.2418 21.8715 49.2074C22.0053 49.173 22.1391 49.2495 22.1735 49.3832C22.2079 49.5132 22.1314 49.6508 21.9977 49.6852Z" fill="white"/>
<path d="M23.4534 51.2644C23.2662 51.3141 23.0712 51.2032 23.0177 51.0159C22.968 50.8287 23.0789 50.6337 23.2662 50.5802C23.4534 50.5305 23.6484 50.6414 23.7019 50.8287C23.7554 51.0198 23.6445 51.2147 23.4534 51.2644Z" fill="white"/>
<path d="M21.3975 48.1529C21.1453 48.2217 20.8854 48.0726 20.8166 47.8204C20.7478 47.5681 20.8968 47.3082 21.1491 47.2394C21.4014 47.1706 21.6612 47.3197 21.73 47.5719C21.7988 47.8242 21.6498 48.0841 21.3975 48.1529Z" fill="white"/>
<path d="M24.0994 54.2418C26.2335 54.2418 27.9635 52.5118 27.9635 50.3777C27.9635 48.2437 26.2335 46.5137 24.0994 46.5137C21.9654 46.5137 20.2354 48.2437 20.2354 50.3777C20.2354 52.5118 21.9654 54.2418 24.0994 54.2418Z" fill="#CC3C0E"/>
<path d="M22.9299 46.9344C24.9632 46.2884 27.1342 47.4121 27.7801 49.4493C28.426 51.4826 27.3023 53.6535 25.2652 54.2994C23.2319 54.9453 21.0609 53.8217 20.415 51.7845C19.7729 49.7512 20.8966 47.5803 22.9299 46.9344Z" fill="#DB4E12"/>
<path d="M22.6548 48.0922C22.9033 48.012 23.1708 48.1496 23.2472 48.398C23.3237 48.6464 23.1899 48.914 22.9415 48.9904C22.6931 49.0707 22.4255 48.9331 22.3491 48.6846C22.2688 48.4362 22.4064 48.1725 22.6548 48.0922Z" fill="white"/>
<path d="M21.47 52.067C21.6611 52.0059 21.8675 52.1129 21.9286 52.304C21.9898 52.4951 21.8828 52.7015 21.6917 52.7626C21.5006 52.8238 21.2942 52.7168 21.233 52.5257C21.1719 52.3346 21.2789 52.1282 21.47 52.067Z" fill="white"/>
<path d="M25.8341 52.1475C26.0481 52.0787 26.2736 52.1972 26.3424 52.4112C26.4112 52.6252 26.2927 52.8507 26.0787 52.9195C25.8646 52.9883 25.6391 52.8699 25.5703 52.6558C25.5015 52.4418 25.62 52.2163 25.8341 52.1475Z" fill="white"/>
<path d="M22.7924 50.9475C22.9644 50.894 23.1478 50.9895 23.2052 51.1615C23.2625 51.3335 23.1631 51.517 22.9911 51.5743C22.8191 51.6278 22.6357 51.5322 22.5783 51.3602C22.5248 51.1883 22.6204 51.0048 22.7924 50.9475Z" fill="white"/>
<path d="M23.7896 52.8198C24.038 52.7395 24.3056 52.8771 24.382 53.1255C24.4623 53.374 24.3247 53.6415 24.0763 53.718C23.8278 53.7982 23.5603 53.6606 23.4838 53.4122C23.4036 53.1638 23.5412 52.8962 23.7896 52.8198Z" fill="white"/>
<path d="M21.0992 49.85C21.3476 49.7698 21.6151 49.9074 21.6916 50.1558C21.7718 50.4042 21.6343 50.6718 21.3858 50.7482C21.1374 50.8247 20.8698 50.6909 20.7934 50.4425C20.7131 50.194 20.8507 49.9265 21.0992 49.85Z" fill="white"/>
<path d="M24.1988 48.7768C24.4472 48.6965 24.7148 48.8341 24.7912 49.0826C24.8715 49.331 24.7339 49.5985 24.4854 49.675C24.237 49.7552 23.9695 49.6177 23.893 49.3692C23.8128 49.1208 23.9503 48.8532 24.1988 48.7768Z" fill="white"/>
<path d="M24.3935 50.3622C24.7145 50.259 25.0585 50.4386 25.1617 50.7597C25.2649 51.0807 25.0852 51.4247 24.7642 51.5279C24.4431 51.6311 24.0992 51.4515 23.996 51.1304C23.8928 50.8094 24.0724 50.4654 24.3935 50.3622Z" fill="white"/>
<path d="M26.1217 48.7424C26.2516 48.7004 26.393 48.773 26.4313 48.9029C26.4733 49.0329 26.4007 49.1743 26.2707 49.2125C26.1408 49.2546 25.9994 49.1819 25.9612 49.052C25.9191 48.922 25.9917 48.7806 26.1217 48.7424Z" fill="white"/>
<path d="M24.6005 47.2287C24.7877 47.1714 24.9865 47.2746 25.0438 47.4581C25.1011 47.6453 24.998 47.8441 24.8145 47.9014C24.6272 47.9588 24.4285 47.8556 24.3711 47.6721C24.31 47.4848 24.4132 47.2861 24.6005 47.2287Z" fill="white"/>
<path d="M26.7901 50.2475C27.0385 50.1672 27.3061 50.3048 27.3825 50.5533C27.4628 50.8017 27.3252 51.0692 27.0768 51.1457C26.8283 51.226 26.5608 51.0884 26.4844 50.8399C26.4079 50.5915 26.5417 50.3278 26.7901 50.2475Z" fill="white"/>
<path d="M24.0994 56.6227C26.2335 56.6227 27.9635 54.8927 27.9635 52.7586C27.9635 50.6245 26.2335 48.8945 24.0994 48.8945C21.9654 48.8945 20.2354 50.6245 20.2354 52.7586C20.2354 54.8927 21.9654 56.6227 24.0994 56.6227Z" fill="#CC3C0E"/>
<path d="M26.8322 55.7286C25.3225 57.2384 22.8764 57.2384 21.3667 55.7286C19.8569 54.2189 19.8569 51.7728 21.3667 50.2631C22.8764 48.7534 25.3225 48.7534 26.8322 50.2631C28.3419 51.7728 28.3419 54.2189 26.8322 55.7286Z" fill="#DB4E12"/>
<path d="M26.2093 54.7115C26.471 54.7115 26.6832 54.4993 26.6832 54.2376C26.6832 53.9759 26.471 53.7637 26.2093 53.7637C25.9475 53.7637 25.7354 53.9759 25.7354 54.2376C25.7354 54.4993 25.9475 54.7115 26.2093 54.7115Z" fill="white"/>
<path d="M25.7655 50.4969C25.6241 50.6384 25.3909 50.6384 25.2457 50.4969C25.1043 50.3555 25.1043 50.1224 25.2457 49.9772C25.3871 49.8357 25.6203 49.8357 25.7655 49.9772C25.9107 50.1224 25.9107 50.3555 25.7655 50.4969Z" fill="white"/>
<path d="M21.8568 52.434C21.7001 52.5907 21.4441 52.5907 21.2835 52.434C21.1268 52.2773 21.1268 52.0212 21.2835 51.8607C21.4402 51.704 21.6963 51.704 21.8568 51.8607C22.0136 52.0212 22.0136 52.2773 21.8568 52.434Z" fill="white"/>
<path d="M24.8756 52.1974C25.0571 52.1974 25.2043 52.0503 25.2043 51.8687C25.2043 51.6872 25.0571 51.54 24.8756 51.54C24.694 51.54 24.5469 51.6872 24.5469 51.8687C24.5469 52.0503 24.694 52.1974 24.8756 52.1974Z" fill="white"/>
<path d="M23.0296 51.0348C23.2913 51.0348 23.5035 50.8226 23.5035 50.5608C23.5035 50.2991 23.2913 50.0869 23.0296 50.0869C22.7678 50.0869 22.5557 50.2991 22.5557 50.5608C22.5557 50.8226 22.7678 51.0348 23.0296 51.0348Z" fill="white"/>
<path d="M26.7825 52.4381C27.0443 52.4381 27.2565 52.2259 27.2565 51.9642C27.2565 51.7024 27.0443 51.4902 26.7825 51.4902C26.5208 51.4902 26.3086 51.7024 26.3086 51.9642C26.3086 52.2259 26.5208 52.4381 26.7825 52.4381Z" fill="white"/>
<path d="M24.5237 54.8151C24.7855 54.8151 24.9977 54.6029 24.9977 54.3411C24.9977 54.0794 24.7855 53.8672 24.5237 53.8672C24.262 53.8672 24.0498 54.0794 24.0498 54.3411C24.0498 54.6029 24.262 54.8151 24.5237 54.8151Z" fill="white"/>
<path d="M23.5227 53.5346C23.8604 53.5346 24.1342 53.2608 24.1342 52.9231C24.1342 52.5853 23.8604 52.3115 23.5227 52.3115C23.1849 52.3115 22.9111 52.5853 22.9111 52.9231C22.9111 53.2608 23.1849 53.5346 23.5227 53.5346Z" fill="white"/>
<path d="M22.9906 55.6639C23.1278 55.6639 23.2391 55.5526 23.2391 55.4154C23.2391 55.2782 23.1278 55.167 22.9906 55.167C22.8534 55.167 22.7422 55.2782 22.7422 55.4154C22.7422 55.5526 22.8534 55.6639 22.9906 55.6639Z" fill="white"/>
<path d="M25.2162 56.2328C25.0786 56.3704 24.8531 56.3704 24.7155 56.2328C24.5779 56.0952 24.5779 55.8697 24.7155 55.7321C24.8531 55.5945 25.0786 55.5945 25.2162 55.7321C25.3538 55.8697 25.3538 56.0952 25.2162 56.2328Z" fill="white"/>
<path d="M21.5462 54.7008C21.8079 54.7008 22.0201 54.4886 22.0201 54.2269C22.0201 53.9651 21.8079 53.7529 21.5462 53.7529C21.2844 53.7529 21.0723 53.9651 21.0723 54.2269C21.0723 54.4886 21.2844 54.7008 21.5462 54.7008Z" fill="white"/>
<path d="M24.0994 59.0768C26.2335 59.0768 27.9635 57.3468 27.9635 55.2127C27.9635 53.0786 26.2335 51.3486 24.0994 51.3486C21.9654 51.3486 20.2354 53.0786 20.2354 55.2127C20.2354 57.3468 21.9654 59.0768 24.0994 59.0768Z" fill="#CC3C0E"/>
<path d="M25.6661 51.9181C27.6153 52.7857 28.4944 55.0674 27.6306 57.0167C26.763 58.9659 24.4812 59.845 22.532 58.9812C20.5828 58.1136 19.7037 55.8318 20.5675 53.8826C21.4313 51.9334 23.7168 51.0543 25.6661 51.9181Z" fill="#DB4E12"/>
<path d="M24.6912 52.6059C24.9282 52.713 25.039 52.992 24.932 53.2289C24.825 53.4659 24.546 53.5767 24.309 53.4697C24.0721 53.3627 23.9612 53.0837 24.0682 52.8467C24.1753 52.6059 24.4543 52.4989 24.6912 52.6059Z" fill="white"/>
<path d="M21.1672 54.7921C21.3506 54.8724 21.4347 55.0903 21.3545 55.2775C21.2742 55.461 21.0563 55.5451 20.8691 55.4648C20.6856 55.3845 20.6015 55.1667 20.6818 54.9794C20.7659 54.796 20.9837 54.7119 21.1672 54.7921Z" fill="white"/>
<path d="M24.3819 57.7465C24.5845 57.8382 24.6762 58.0752 24.5883 58.2816C24.4966 58.4841 24.2596 58.5759 24.0532 58.488C23.8507 58.3962 23.7589 58.1593 23.8468 57.9529C23.9386 57.7465 24.1793 57.6548 24.3819 57.7465Z" fill="white"/>
<path d="M22.7691 55.4611C22.9507 55.4611 23.0978 55.3139 23.0978 55.1324C23.0978 54.9509 22.9507 54.8037 22.7691 54.8037C22.5876 54.8037 22.4404 54.9509 22.4404 55.1324C22.4404 55.3139 22.5876 55.4611 22.7691 55.4611Z" fill="white"/>
<path d="M22.4061 56.8908C22.643 56.9979 22.7539 57.2769 22.6469 57.5138C22.5398 57.7508 22.2608 57.8616 22.0239 57.7546C21.7869 57.6476 21.6761 57.3686 21.7831 57.1316C21.8863 56.8947 22.1653 56.7876 22.4061 56.8908Z" fill="white"/>
<path d="M22.3602 52.8852C22.5972 52.9922 22.708 53.2713 22.601 53.5082C22.494 53.7452 22.2149 53.856 21.978 53.749C21.741 53.642 21.6302 53.363 21.7372 53.126C21.8442 52.8852 22.1232 52.7782 22.3602 52.8852Z" fill="white"/>
<path d="M25.3944 54.1382C25.6313 54.2452 25.7422 54.5242 25.6352 54.7612C25.5281 54.9981 25.2491 55.109 25.0122 55.0019C24.7752 54.8949 24.6644 54.6159 24.7714 54.379C24.8784 54.1382 25.1574 54.0311 25.3944 54.1382Z" fill="white"/>
<path d="M24.4848 55.4571C24.7944 55.5946 24.932 55.9539 24.7944 56.2635C24.6568 56.5731 24.2975 56.7107 23.9879 56.5731C23.6783 56.4355 23.5407 56.0762 23.6783 55.7666C23.8159 55.4609 24.179 55.3195 24.4848 55.4571Z" fill="white"/>
<path d="M26.8581 55.3885C26.9843 55.4458 27.0378 55.591 26.9842 55.7172C26.9269 55.8433 26.7817 55.8968 26.6556 55.8433C26.5294 55.786 26.4759 55.6407 26.5294 55.5146C26.5868 55.3885 26.732 55.3312 26.8581 55.3885Z" fill="white"/>
<path d="M26.7201 53.2447C26.8997 53.325 26.98 53.5352 26.8997 53.711C26.8194 53.8907 26.6092 53.9709 26.4334 53.8907C26.2538 53.8104 26.1735 53.6002 26.2538 53.4244C26.3302 53.2486 26.5404 53.1683 26.7201 53.2447Z" fill="white"/>
<path d="M26.3573 56.9595C26.5942 57.0665 26.7051 57.3455 26.598 57.5824C26.491 57.8194 26.212 57.9303 25.9751 57.8232C25.7381 57.7162 25.6272 57.4372 25.7343 57.2002C25.8375 56.9595 26.1165 56.8524 26.3573 56.9595Z" fill="white"/>
<path d="M24.0994 61.7448C26.2335 61.7448 27.9635 60.0147 27.9635 57.8807C27.9635 55.7466 26.2335 54.0166 24.0994 54.0166C21.9654 54.0166 20.2354 55.7466 20.2354 57.8807C20.2354 60.0147 21.9654 61.7448 24.0994 61.7448Z" fill="#CC3C0E"/>
<path d="M26.8322 60.8507C25.3225 62.3604 22.8764 62.3604 21.3667 60.8507C19.8569 59.341 19.8569 56.8949 21.3667 55.3852C22.8764 53.8755 25.3225 53.8755 26.8322 55.3852C28.3419 56.8949 28.3419 59.341 26.8322 60.8507Z" fill="#DB4E12"/>
<path d="M26.2093 59.8336C26.471 59.8336 26.6832 59.6214 26.6832 59.3597C26.6832 59.0979 26.471 58.8857 26.2093 58.8857C25.9475 58.8857 25.7354 59.0979 25.7354 59.3597C25.7354 59.6214 25.9475 59.8336 26.2093 59.8336Z" fill="white"/>
<path d="M25.5066 55.726C25.7092 55.726 25.8735 55.5617 25.8735 55.3591C25.8735 55.1565 25.7092 54.9922 25.5066 54.9922C25.3039 54.9922 25.1396 55.1565 25.1396 55.3591C25.1396 55.5617 25.3039 55.726 25.5066 55.726Z" fill="white"/>
<path d="M21.5692 57.6745C21.793 57.6745 21.9743 57.4931 21.9743 57.2694C21.9743 57.0456 21.793 56.8643 21.5692 56.8643C21.3455 56.8643 21.1641 57.0456 21.1641 57.2694C21.1641 57.4931 21.3455 57.6745 21.5692 57.6745Z" fill="white"/>
<path d="M25.1088 57.2201C24.9827 57.3463 24.7725 57.3463 24.6464 57.2201C24.5202 57.094 24.5202 56.8838 24.6464 56.7577C24.7763 56.6316 24.9827 56.6316 25.1088 56.7577C25.2349 56.8838 25.2349 57.094 25.1088 57.2201Z" fill="white"/>
<path d="M23.0296 56.1568C23.2913 56.1568 23.5035 55.9447 23.5035 55.6829C23.5035 55.4212 23.2913 55.209 23.0296 55.209C22.7678 55.209 22.5557 55.4212 22.5557 55.6829C22.5557 55.9447 22.7678 56.1568 23.0296 56.1568Z" fill="white"/>
<path d="M26.7825 57.5563C27.0443 57.5563 27.2565 57.3441 27.2565 57.0823C27.2565 56.8206 27.0443 56.6084 26.7825 56.6084C26.5208 56.6084 26.3086 56.8206 26.3086 57.0823C26.3086 57.3441 26.5208 57.5563 26.7825 57.5563Z" fill="white"/>
<path d="M24.5237 59.9371C24.7855 59.9371 24.9977 59.7249 24.9977 59.4632C24.9977 59.2015 24.7855 58.9893 24.5237 58.9893C24.262 58.9893 24.0498 59.2015 24.0498 59.4632C24.0498 59.7249 24.262 59.9371 24.5237 59.9371Z" fill="white"/>
<path d="M23.5227 58.6567C23.8604 58.6567 24.1342 58.3829 24.1342 58.0451C24.1342 57.7074 23.8604 57.4336 23.5227 57.4336C23.1849 57.4336 22.9111 57.7074 22.9111 58.0451C22.9111 58.3829 23.1849 58.6567 23.5227 58.6567Z" fill="white"/>
<path d="M22.9906 60.7859C23.1278 60.7859 23.2391 60.6747 23.2391 60.5375C23.2391 60.4003 23.1278 60.2891 22.9906 60.2891C22.8534 60.2891 22.7422 60.4003 22.7422 60.5375C22.7422 60.6747 22.8534 60.7859 22.9906 60.7859Z" fill="white"/>
<path d="M25.2162 61.3549C25.0786 61.4925 24.8531 61.4925 24.7155 61.3549C24.5779 61.2173 24.5779 60.9918 24.7155 60.8542C24.8531 60.7166 25.0786 60.7166 25.2162 60.8542C25.3538 60.9918 25.3538 61.2173 25.2162 61.3549Z" fill="white"/>
<path d="M21.5462 59.8229C21.8079 59.8229 22.0201 59.6107 22.0201 59.3489C22.0201 59.0872 21.8079 58.875 21.5462 58.875C21.2844 58.875 21.0723 59.0872 21.0723 59.3489C21.0723 59.6107 21.2844 59.8229 21.5462 59.8229Z" fill="white"/>
<path d="M31.908 46.5787C34.0421 46.5787 35.7721 44.8487 35.7721 42.7147C35.7721 40.5806 34.0421 38.8506 31.908 38.8506C29.774 38.8506 28.0439 40.5806 28.0439 42.7147C28.0439 44.8487 29.774 46.5787 31.908 46.5787Z" fill="#CC3C0E"/>
<path d="M34.7627 45.5536C36.1968 43.9734 36.0783 41.5297 34.498 40.0956C32.9178 38.6615 30.4741 38.78 29.04 40.3603C27.6059 41.9406 27.7244 44.3842 29.3047 45.8183C30.885 47.2524 33.3286 47.1339 34.7627 45.5536Z" fill="#DB4E12"/>
<path d="M32.6449 45.7648C32.385 45.7763 32.1633 45.5737 32.1518 45.3138C32.1404 45.0539 32.3429 44.8322 32.6028 44.8208C32.8627 44.8093 33.0844 45.0119 33.0959 45.2718C33.1112 45.5355 32.9086 45.7534 32.6449 45.7648Z" fill="white"/>
<path d="M34.8229 42.2361C34.6203 42.2437 34.4483 42.087 34.4407 41.8844C34.4331 41.6819 34.5898 41.5099 34.7923 41.5022C34.9949 41.4946 35.1669 41.6513 35.1745 41.8539C35.1822 42.0564 35.0255 42.2246 34.8229 42.2361Z" fill="white"/>
<path d="M30.6299 41.0247C30.4083 41.0362 30.2172 40.8604 30.2095 40.6387C30.198 40.4171 30.3739 40.2259 30.5955 40.2183C30.8172 40.2068 31.0083 40.3826 31.016 40.6043C31.0274 40.826 30.8554 41.0133 30.6299 41.0247Z" fill="white"/>
<path d="M33.2565 42.9741C33.0768 42.9817 32.924 42.8403 32.9163 42.6607C32.9087 42.481 33.0501 42.3282 33.2297 42.3167C33.4094 42.3091 33.5622 42.4505 33.5699 42.6301C33.5775 42.8136 33.4399 42.9664 33.2565 42.9741Z" fill="white"/>
<path d="M32.7826 40.9103C32.5227 40.9218 32.301 40.7192 32.2895 40.4593C32.2781 40.1994 32.4806 39.9778 32.7405 39.9663C33.0004 39.9548 33.2221 40.1574 33.2336 40.4173C33.245 40.6772 33.0425 40.8989 32.7826 40.9103Z" fill="white"/>
<path d="M34.6058 44.4767C34.3459 44.4882 34.1242 44.2856 34.1128 44.0257C34.1013 43.7658 34.3039 43.5442 34.5638 43.5327C34.8237 43.5212 35.0453 43.7238 35.0568 43.9837C35.0683 44.2436 34.8695 44.4653 34.6058 44.4767Z" fill="white"/>
<path d="M31.3343 44.7062C31.0744 44.7177 30.8528 44.5151 30.8413 44.2552C30.8298 43.9953 31.0324 43.7736 31.2923 43.7622C31.5522 43.7507 31.7739 43.9533 31.7853 44.2132C31.7968 44.4731 31.5942 44.6948 31.3343 44.7062Z" fill="white"/>
<path d="M31.5598 43.1192C31.2235 43.1345 30.9368 42.8708 30.9215 42.5344C30.9062 42.1981 31.17 41.9114 31.5063 41.8961C31.8427 41.8809 32.1293 42.1446 32.1446 42.4809C32.1599 42.8211 31.8962 43.1039 31.5598 43.1192Z" fill="white"/>
<path d="M29.4683 44.2394C29.3307 44.2471 29.216 44.1401 29.2084 44.0025C29.2007 43.8649 29.3078 43.7502 29.4454 43.7426C29.583 43.7349 29.6976 43.8419 29.7053 43.9795C29.7091 44.1171 29.6059 44.2356 29.4683 44.2394Z" fill="white"/>
<path d="M30.5429 46.0969C30.348 46.1046 30.1836 45.9555 30.1722 45.7568C30.1645 45.5618 30.3136 45.3975 30.5123 45.386C30.7072 45.3784 30.8716 45.5274 30.8831 45.7262C30.8907 45.9211 30.7416 46.0893 30.5429 46.0969Z" fill="white"/>
<path d="M29.2171 42.6115C28.9572 42.623 28.7356 42.4204 28.7241 42.1605C28.7126 41.9006 28.9152 41.6789 29.1751 41.6675C29.435 41.656 29.6567 41.8586 29.6681 42.1185C29.6796 42.3784 29.477 42.6 29.2171 42.6115Z" fill="white"/>
<path d="M31.908 49.1735C34.0421 49.1735 35.7721 47.4435 35.7721 45.3094C35.7721 43.1753 34.0421 41.4453 31.908 41.4453C29.774 41.4453 28.0439 43.1753 28.0439 45.3094C28.0439 47.4435 29.774 49.1735 31.908 49.1735Z" fill="#CC3C0E"/>
<path d="M33.2594 49.1626C35.2592 48.4176 36.2764 46.1925 35.5314 44.1927C34.7864 42.1928 32.5613 41.1756 30.5615 41.9206C28.5616 42.6656 27.5444 44.8907 28.2894 46.8906C29.0344 48.8904 31.2595 49.9076 33.2594 49.1626Z" fill="#DB4E12"/>
<path d="M34.422 44.086C34.5022 44.3344 34.3646 44.602 34.1162 44.6822C33.8678 44.7625 33.6002 44.6249 33.52 44.3765C33.4397 44.1281 33.5773 43.8605 33.8257 43.7803C34.078 43.7038 34.3417 43.8376 34.422 44.086Z" fill="white"/>
<path d="M30.4436 42.9245C30.5047 43.1156 30.4015 43.3219 30.2066 43.3869C30.0155 43.4481 29.8091 43.3449 29.7441 43.15C29.683 42.9588 29.7862 42.7525 29.9811 42.6875C30.1722 42.6263 30.3786 42.7295 30.4436 42.9245Z" fill="white"/>
<path d="M30.3864 47.2853C30.4552 47.4994 30.3368 47.7249 30.1266 47.7937C29.9125 47.8625 29.687 47.744 29.6182 47.5338C29.5494 47.3197 29.6679 47.0942 29.8781 47.0255C30.0883 46.9567 30.3177 47.0751 30.3864 47.2853Z" fill="white"/>
<path d="M31.5674 44.2396C31.6247 44.4116 31.5292 44.595 31.3572 44.6524C31.1852 44.7097 31.0017 44.6141 30.9444 44.4421C30.8871 44.2701 30.9826 44.0867 31.1546 44.0294C31.3266 43.972 31.5139 44.0676 31.5674 44.2396Z" fill="white"/>
<path d="M29.7022 45.2447C29.7825 45.4931 29.6449 45.7606 29.3965 45.8409C29.148 45.9212 28.8805 45.7836 28.8002 45.5351C28.72 45.2867 28.8576 45.0192 29.106 44.9389C29.3583 44.8587 29.622 44.9962 29.7022 45.2447Z" fill="white"/>
<path d="M32.6603 42.5386C32.7405 42.7871 32.6029 43.0546 32.3545 43.1349C32.1061 43.2151 31.8385 43.0775 31.7582 42.8291C31.678 42.5807 31.8156 42.3131 32.064 42.2329C32.3125 42.1526 32.58 42.2902 32.6603 42.5386Z" fill="white"/>
<path d="M33.7491 45.6343C33.8294 45.8828 33.6918 46.1503 33.4434 46.2306C33.1949 46.3108 32.9274 46.1732 32.8471 45.9248C32.7669 45.6764 32.9045 45.4088 33.1529 45.3286C33.4013 45.2483 33.6689 45.3859 33.7491 45.6343Z" fill="white"/>
<path d="M32.1591 45.8373C32.2623 46.1583 32.0865 46.5023 31.7655 46.6093C31.4444 46.7125 31.1004 46.5367 30.9934 46.2157C30.8902 45.8946 31.066 45.5506 31.3871 45.4436C31.7119 45.3404 32.0559 45.5162 32.1591 45.8373Z" fill="white"/>
<path d="M33.7954 47.5572C33.8375 47.6872 33.7649 47.8286 33.6349 47.8706C33.505 47.9127 33.3636 47.8401 33.3215 47.7101C33.2795 47.5802 33.3521 47.4388 33.482 47.3967C33.612 47.3547 33.7534 47.4273 33.7954 47.5572Z" fill="white"/>
<path d="M35.2976 46.0282C35.3588 46.2155 35.2556 46.4142 35.0683 46.4754C34.881 46.5365 34.6823 46.4333 34.6211 46.246C34.56 46.0588 34.6632 45.86 34.8505 45.7989C35.0377 45.7377 35.2403 45.8409 35.2976 46.0282Z" fill="white"/>
<path d="M32.2892 48.2292C32.3694 48.4777 32.2318 48.7452 31.9834 48.8255C31.735 48.9057 31.4674 48.7681 31.3872 48.5197C31.3069 48.2713 31.4445 48.0037 31.6929 47.9235C31.9414 47.847 32.2089 47.9846 32.2892 48.2292Z" fill="white"/>
<path d="M31.908 51.528C34.0421 51.528 35.7721 49.798 35.7721 47.6639C35.7721 45.5298 34.0421 43.7998 31.908 43.7998C29.774 43.7998 28.0439 45.5298 28.0439 47.6639C28.0439 49.798 29.774 51.528 31.908 51.528Z" fill="#CC3C0E"/>
<path d="M35.7659 48.0122C35.8225 45.879 34.139 44.1038 32.0058 44.0473C29.8726 43.9907 28.0974 45.6742 28.0409 47.8074C27.9843 49.9406 29.6678 51.7158 31.801 51.7723C33.9342 51.8289 35.7094 50.1454 35.7659 48.0122Z" fill="#DB4E12"/>
<path d="M29.5072 46.2615C29.6983 46.0819 29.9965 46.0895 30.1761 46.2806C30.3557 46.4717 30.3481 46.7698 30.157 46.9495C29.9659 47.1291 29.6678 47.1214 29.4881 46.9303C29.3123 46.7392 29.32 46.4411 29.5072 46.2615Z" fill="white"/>
<path d="M30.1758 50.3549C30.321 50.2173 30.5542 50.2211 30.6956 50.3701C30.8332 50.5154 30.8294 50.7485 30.6803 50.8899C30.5351 51.0275 30.3019 51.0237 30.1605 50.8747C30.0229 50.7256 30.0267 50.4924 30.1758 50.3549Z" fill="white"/>
<path d="M34.1361 48.5241C34.2966 48.3712 34.5527 48.3789 34.7094 48.5394C34.8623 48.6999 34.8546 48.956 34.6941 49.1127C34.5336 49.2656 34.2775 49.2579 34.1208 49.0974C33.9679 48.9331 33.9755 48.677 34.1361 48.5241Z" fill="white"/>
<path d="M30.8753 48.773C31.0053 48.6469 31.2155 48.6546 31.3378 48.7845C31.4639 48.9145 31.4563 49.1247 31.3263 49.247C31.1964 49.3731 30.9862 49.3655 30.8639 49.2355C30.7377 49.1017 30.7454 48.8954 30.8753 48.773Z" fill="white"/>
<path d="M32.5872 50.0183C32.7783 49.8387 33.0765 49.8463 33.2561 50.0374C33.4357 50.2285 33.4281 50.5267 33.237 50.7063C33.0459 50.8859 32.7478 50.8783 32.5681 50.6872C32.3885 50.4961 32.3961 50.198 32.5872 50.0183Z" fill="white"/>
<path d="M28.8724 48.5203C29.0635 48.3406 29.3616 48.3483 29.5412 48.5394C29.7209 48.7305 29.7132 49.0286 29.5221 49.2082C29.331 49.3879 29.0329 49.3802 28.8533 49.1891C28.6737 48.998 28.6813 48.6999 28.8724 48.5203Z" fill="white"/>
<path d="M31.1928 46.2009C31.3839 46.0213 31.682 46.0289 31.8616 46.22C32.0413 46.4112 32.0336 46.7093 31.8425 46.8889C31.6514 47.0685 31.3533 47.0609 31.1737 46.8698C30.9978 46.6787 31.0055 46.3806 31.1928 46.2009Z" fill="white"/>
<path d="M32.0639 47.5459C32.3085 47.3127 32.6984 47.3242 32.9277 47.5688C33.1608 47.8134 33.1494 48.2032 32.9047 48.4326C32.6601 48.6657 32.2703 48.6542 32.041 48.4096C31.8078 48.165 31.8193 47.779 32.0639 47.5459Z" fill="white"/>
<path d="M32.909 45.333C33.0084 45.2375 33.1651 45.2413 33.2606 45.3407C33.3562 45.44 33.3524 45.5967 33.253 45.6923C33.1536 45.7878 32.9969 45.784 32.9014 45.6846C32.8058 45.5814 32.8096 45.4247 32.909 45.333Z" fill="white"/>
<path d="M30.8791 44.6332C31.0205 44.4995 31.246 44.5033 31.3798 44.6485C31.5135 44.7899 31.5097 45.0154 31.3645 45.1492C31.2192 45.283 30.9975 45.2792 30.8638 45.1339C30.7338 44.9925 30.7376 44.767 30.8791 44.6332Z" fill="white"/>
<path d="M34.1664 46.3992C34.3575 46.2195 34.6556 46.2272 34.8353 46.4183C35.0149 46.6094 35.0073 46.9075 34.8162 47.0872C34.625 47.2668 34.3269 47.2591 34.1473 47.068C33.9715 46.8769 33.9791 46.5788 34.1664 46.3992Z" fill="white"/>
<path d="M31.908 54.2418C34.0421 54.2418 35.7721 52.5118 35.7721 50.3777C35.7721 48.2437 34.0421 46.5137 31.908 46.5137C29.774 46.5137 28.0439 48.2437 28.0439 50.3777C28.0439 52.5118 29.774 54.2418 31.908 54.2418Z" fill="#CC3C0E"/>
<path d="M34.9326 53.0192C36.2636 51.351 35.9902 48.9197 34.322 47.5886C32.6538 46.2576 30.2225 46.531 28.8915 48.1992C27.5605 49.8674 27.8338 52.2987 29.502 53.6297C31.1702 54.9608 33.6016 54.6874 34.9326 53.0192Z" fill="#DB4E12"/>
<path d="M34.1135 52.5099C33.9071 52.6666 33.609 52.6246 33.4523 52.4182C33.2956 52.2118 33.3376 51.9137 33.544 51.757C33.7504 51.6003 34.0486 51.6423 34.2053 51.8487C34.362 52.0589 34.3199 52.3532 34.1135 52.5099Z" fill="white"/>
<path d="M33.9032 48.3713C33.7427 48.4936 33.5134 48.4631 33.3911 48.2987C33.2688 48.1382 33.2993 47.9089 33.4637 47.7866C33.6242 47.6643 33.8535 47.6948 33.9758 47.8592C34.0943 48.0159 34.0637 48.249 33.9032 48.3713Z" fill="white"/>
<path d="M29.7632 49.7507C29.5835 49.8844 29.3313 49.85 29.1975 49.6704C29.0638 49.4908 29.0981 49.2385 29.2778 49.1048C29.4574 48.971 29.7097 49.0054 29.8434 49.185C29.9772 49.3608 29.939 49.6169 29.7632 49.7507Z" fill="white"/>
<path d="M33.0317 49.8659C32.8864 49.9767 32.6801 49.9461 32.573 49.8009C32.466 49.6557 32.4928 49.4493 32.638 49.3423C32.7833 49.2314 32.9896 49.262 33.0967 49.4072C33.2037 49.5525 33.1731 49.755 33.0317 49.8659Z" fill="white"/>
<path d="M31.468 48.4357C31.2616 48.5924 30.9635 48.5504 30.8068 48.344C30.6501 48.1376 30.6921 47.8395 30.8985 47.6828C31.1049 47.5261 31.403 47.5681 31.5597 47.7745C31.7165 47.9809 31.6744 48.279 31.468 48.4357Z" fill="white"/>
<path d="M34.9963 50.3361C34.7899 50.4928 34.4918 50.4508 34.3351 50.2444C34.1784 50.038 34.2205 49.7399 34.4269 49.5832C34.6332 49.4265 34.9314 49.4685 35.0881 49.6749C35.2448 49.8851 35.2027 50.1794 34.9963 50.3361Z" fill="white"/>
<path d="M32.4309 52.3849C32.2245 52.5416 31.9264 52.4996 31.7697 52.2932C31.613 52.0868 31.655 51.7887 31.8614 51.632C32.0678 51.4753 32.3659 51.5173 32.5226 51.7237C32.6793 51.9301 32.6373 52.2282 32.4309 52.3849Z" fill="white"/>
<path d="M31.7173 50.951C31.446 51.1536 31.0638 51.1001 30.8612 50.8326C30.6586 50.5612 30.7121 50.179 30.9797 49.9764C31.251 49.7739 31.6332 49.8274 31.8358 50.0949C32.0384 50.3625 31.9849 50.7485 31.7173 50.951Z" fill="white"/>
<path d="M30.6281 53.0567C30.5172 53.1408 30.3644 53.1178 30.2803 53.007C30.1962 52.8961 30.2191 52.7433 30.33 52.6592C30.4408 52.5751 30.5937 52.598 30.6778 52.7089C30.758 52.8197 30.7389 52.9764 30.6281 53.0567Z" fill="white"/>
<path d="M32.569 53.9786C32.4123 54.0971 32.1906 54.0665 32.0721 53.9098C31.9537 53.7531 31.9842 53.5314 32.1409 53.413C32.2976 53.2945 32.5193 53.3251 32.6378 53.4818C32.7563 53.6346 32.7257 53.8601 32.569 53.9786Z" fill="white"/>
<path d="M29.4963 51.8605C29.2899 52.0172 28.9918 51.9752 28.8351 51.7688C28.6784 51.5624 28.7205 51.2643 28.9269 51.1076C29.1332 50.9509 29.4314 50.9929 29.5881 51.1993C29.7448 51.4057 29.7065 51.7038 29.4963 51.8605Z" fill="white"/>
<path d="M31.9071 56.6227C34.0411 56.6227 35.7711 54.8927 35.7711 52.7586C35.7711 50.6245 34.0411 48.8945 31.9071 48.8945C29.773 48.8945 28.043 50.6245 28.043 52.7586C28.043 54.8927 29.773 56.6227 31.9071 56.6227Z" fill="#CC3C0E"/>
<path d="M32.5423 56.8062C30.4363 57.154 28.4489 55.7322 28.0972 53.6263C27.7456 51.5203 29.1712 49.5328 31.2772 49.1812C33.3831 48.8296 35.3706 50.2552 35.7222 52.3612C36.0738 54.4671 34.6482 56.4584 32.5423 56.8062Z" fill="#DB4E12"/>
<path d="M32.9778 55.6977C32.7217 55.7397 32.4771 55.5677 32.435 55.3078C32.393 55.0518 32.565 54.8072 32.8249 54.7651C33.0809 54.7231 33.3256 54.8951 33.3676 55.155C33.4097 55.411 33.2377 55.6556 32.9778 55.6977Z" fill="white"/>
<path d="M34.7177 51.9327C34.5189 51.9671 34.3278 51.8295 34.2973 51.6308C34.2629 51.432 34.4005 51.2409 34.5992 51.2104C34.798 51.176 34.9891 51.3136 35.0196 51.5123C35.054 51.711 34.9164 51.8983 34.7177 51.9327Z" fill="white"/>
<path d="M30.4098 51.2335C30.1881 51.2717 29.9817 51.1227 29.9435 50.901C29.9053 50.6793 30.0543 50.4729 30.276 50.4347C30.4977 50.3965 30.7041 50.5455 30.7423 50.7672C30.7805 50.9889 30.6314 51.1953 30.4098 51.2335Z" fill="white"/>
<path d="M33.2493 52.8546C33.0697 52.8852 32.9015 52.7629 32.8709 52.5833C32.8403 52.4036 32.9626 52.2355 33.1423 52.2049C33.3219 52.1743 33.4901 52.2966 33.5206 52.4763C33.5512 52.6559 33.4289 52.8241 33.2493 52.8546Z" fill="white"/>
<path d="M32.5305 50.8588C32.2744 50.9009 32.0298 50.7289 31.9878 50.469C31.9457 50.2129 32.1177 49.9683 32.3776 49.9262C32.6337 49.8842 32.8783 50.0562 32.9203 50.3161C32.9624 50.5722 32.7866 50.8168 32.5305 50.8588Z" fill="white"/>
<path d="M34.7707 54.1801C34.5146 54.2222 34.27 54.0502 34.228 53.7903C34.186 53.5304 34.3579 53.2896 34.6178 53.2475C34.8739 53.2055 35.1185 53.3775 35.1606 53.6374C35.2026 53.8973 35.0268 54.1381 34.7707 54.1801Z" fill="white"/>
<path d="M31.5481 54.8032C31.292 54.8452 31.0474 54.6732 31.0053 54.4133C30.9633 54.1572 31.1353 53.9126 31.3952 53.8706C31.6513 53.8285 31.8959 54.0005 31.9379 54.2604C31.98 54.5165 31.8042 54.7611 31.5481 54.8032Z" fill="white"/>
<path d="M31.5823 53.2021C31.2498 53.2556 30.9326 53.0339 30.8791 52.6975C30.8255 52.365 31.0472 52.0478 31.3836 51.9943C31.7161 51.9408 32.0333 52.1625 32.0868 52.4988C32.1403 52.8313 31.9148 53.1485 31.5823 53.2021Z" fill="white"/>
<path d="M29.6417 54.567C29.508 54.5899 29.378 54.4982 29.3551 54.3644C29.3321 54.2306 29.4239 54.1007 29.5576 54.0777C29.6914 54.0548 29.8214 54.1465 29.8443 54.2803C29.8672 54.4141 29.7755 54.544 29.6417 54.567Z" fill="white"/>
<path d="M30.933 56.2791C30.738 56.3097 30.5584 56.1797 30.524 55.9886C30.4934 55.7937 30.6234 55.6141 30.8145 55.5797C31.0094 55.5491 31.189 55.679 31.2234 55.8701C31.254 56.065 31.1241 56.2485 30.933 56.2791Z" fill="white"/>
<path d="M29.1945 52.976C28.9385 53.018 28.6939 52.846 28.6518 52.5862C28.6098 52.3301 28.7818 52.0855 29.0417 52.0434C29.2977 52.0014 29.5424 52.1734 29.5844 52.4333C29.6264 52.6932 29.4506 52.934 29.1945 52.976Z" fill="white"/>
<path d="M31.9071 59.0768C34.0411 59.0768 35.7711 57.3468 35.7711 55.2127C35.7711 53.0786 34.0411 51.3486 31.9071 51.3486C29.773 51.3486 28.043 53.0786 28.043 55.2127C28.043 57.3468 29.773 59.0768 31.9071 59.0768Z" fill="#CC3C0E"/>
<path d="M33.853 58.7901C32.0108 59.8641 29.6449 59.2411 28.571 57.3989C27.497 55.5567 28.12 53.1908 29.9622 52.1169C31.8044 51.0429 34.1702 51.6658 35.2442 53.5081C36.3221 55.3503 35.6991 57.7123 33.853 58.7901Z" fill="#DB4E12"/>
<path d="M33.8684 57.598C33.6429 57.7279 33.3524 57.6515 33.2225 57.426C33.0925 57.2005 33.1689 56.91 33.3944 56.7801C33.6199 56.6501 33.9104 56.7266 34.0404 56.9521C34.1703 57.1776 34.0939 57.4642 33.8684 57.598Z" fill="white"/>
<path d="M34.1545 53.4582C33.9786 53.5613 33.757 53.5002 33.6538 53.3244C33.5506 53.1486 33.6117 52.9269 33.7875 52.8237C33.9634 52.7205 34.185 52.7817 34.2882 52.9575C34.3914 53.1333 34.3303 53.355 34.1545 53.4582Z" fill="white"/>
<path d="M29.8827 54.3336C29.6916 54.4444 29.4432 54.3794 29.3285 54.1883C29.2177 53.9972 29.2826 53.7488 29.4737 53.6342C29.6648 53.5233 29.9133 53.5883 30.0279 53.7794C30.1388 53.9743 30.0738 54.2227 29.8827 54.3336Z" fill="white"/>
<path d="M33.1112 54.8381C32.9545 54.9298 32.7557 54.8763 32.664 54.7196C32.5723 54.5629 32.6258 54.3641 32.7825 54.2724C32.9392 54.1807 33.1379 54.2342 33.2297 54.3909C33.3214 54.5476 33.2679 54.7502 33.1112 54.8381Z" fill="white"/>
<path d="M31.7317 53.2328C31.5062 53.3627 31.2157 53.2863 31.0857 53.0608C30.9558 52.8353 31.0322 52.5448 31.2577 52.4148C31.4832 52.2849 31.7737 52.3613 31.9037 52.5868C32.0336 52.8123 31.9572 53.1028 31.7317 53.2328Z" fill="white"/>
<path d="M35.0032 55.5414C34.7777 55.6713 34.4872 55.5949 34.3572 55.3694C34.2273 55.1439 34.3037 54.8534 34.5292 54.7234C34.7547 54.5935 35.0452 54.6699 35.1751 54.8954C35.3051 55.1209 35.2287 55.4114 35.0032 55.5414Z" fill="white"/>
<path d="M32.2131 57.2689C31.9876 57.3988 31.6971 57.3224 31.5672 57.0969C31.4372 56.8714 31.5137 56.5809 31.7392 56.451C31.9647 56.321 32.2552 56.3975 32.3851 56.623C32.5151 56.8485 32.4386 57.1351 32.2131 57.2689Z" fill="white"/>
<path d="M31.6743 55.7593C31.3838 55.9313 31.0093 55.8319 30.8373 55.5376C30.6653 55.2471 30.7647 54.8726 31.059 54.7006C31.3494 54.5286 31.724 54.628 31.896 54.9223C32.068 55.2166 31.9686 55.5911 31.6743 55.7593Z" fill="white"/>
<path d="M30.345 57.7239C30.2265 57.7927 30.0736 57.7545 30.0048 57.636C29.936 57.5175 29.9742 57.3646 30.0927 57.2958C30.2112 57.227 30.3641 57.2653 30.4329 57.3837C30.5055 57.5022 30.4635 57.6551 30.345 57.7239Z" fill="white"/>
<path d="M32.1592 58.8664C31.9911 58.9658 31.7732 58.9085 31.6738 58.7403C31.5745 58.5721 31.6318 58.3543 31.8 58.2549C31.9681 58.1555 32.186 58.2128 32.2854 58.381C32.3847 58.5492 32.3274 58.767 32.1592 58.8664Z" fill="white"/>
<path d="M29.3655 56.3978C29.14 56.5277 28.8495 56.4513 28.7195 56.2258C28.5896 56.0003 28.666 55.7098 28.8915 55.5799C29.117 55.4499 29.4075 55.5264 29.5374 55.7519C29.6674 55.9774 29.591 56.264 29.3655 56.3978Z" fill="white"/>
<path d="M31.9071 61.7448C34.0411 61.7448 35.7711 60.0147 35.7711 57.8807C35.7711 55.7466 34.0411 54.0166 31.9071 54.0166C29.773 54.0166 28.043 55.7466 28.043 57.8807C28.043 60.0147 29.773 61.7448 31.9071 61.7448Z" fill="#CC3C0E"/>
<path d="M31.873 54.2531C34.0057 54.234 35.7523 55.9462 35.7714 58.0789C35.7905 60.2116 34.0783 61.9583 31.9456 61.9774C29.8129 61.9965 28.0662 60.2843 28.0471 58.1516C28.0242 56.0189 29.7364 54.2722 31.873 54.2531Z" fill="#DB4E12"/>
<path d="M31.2691 55.2813C31.529 55.2775 31.743 55.4877 31.7468 55.7476C31.7507 56.0075 31.5404 56.2215 31.2805 56.2253C31.0206 56.2292 30.8066 56.019 30.8028 55.7591C30.799 55.4992 31.0054 55.2851 31.2691 55.2813Z" fill="white"/>
<path d="M28.9686 58.7324C29.1711 58.7324 29.3355 58.8929 29.3393 59.0955C29.3393 59.2981 29.1788 59.4624 28.9762 59.4662C28.7736 59.4662 28.6093 59.3057 28.6055 59.1032C28.6055 58.9006 28.766 58.7362 28.9686 58.7324Z" fill="white"/>
<path d="M33.1152 60.0889C33.3369 60.0851 33.5203 60.2647 33.5241 60.4902C33.528 60.7119 33.3483 60.8954 33.1228 60.8992C32.8973 60.903 32.7177 60.7234 32.7139 60.4979C32.7139 60.2762 32.8935 60.0927 33.1152 60.0889Z" fill="white"/>
<path d="M30.5623 58.0518C30.7419 58.0518 30.8909 58.197 30.8948 58.3766C30.8948 58.5563 30.7495 58.7053 30.5699 58.7091C30.3903 58.7091 30.2412 58.5639 30.2374 58.3843C30.2336 58.2046 30.3788 58.0518 30.5623 58.0518Z" fill="white"/>
<path d="M30.9634 60.1309C31.2233 60.1271 31.4373 60.3373 31.4412 60.5972C31.445 60.8571 31.2348 61.0711 30.9749 61.075C30.715 61.0788 30.5009 60.8686 30.4971 60.6087C30.4933 60.3449 30.7035 60.1347 30.9634 60.1309Z" fill="white"/>
<path d="M29.2622 56.504C29.5221 56.5001 29.7362 56.7103 29.74 56.9702C29.7438 57.2301 29.5336 57.4442 29.2737 57.448C29.0138 57.4518 28.7998 57.2416 28.7959 56.9817C28.7921 56.718 29.0023 56.504 29.2622 56.504Z" fill="white"/>
<path d="M32.5425 56.3858C32.8024 56.382 33.0164 56.5922 33.0203 56.8521C33.0241 57.112 32.8139 57.326 32.554 57.3298C32.2941 57.3337 32.08 57.1234 32.0762 56.8635C32.0724 56.6036 32.2826 56.3896 32.5425 56.3858Z" fill="white"/>
<path d="M32.263 57.9649C32.5993 57.9611 32.8783 58.2324 32.8821 58.5726C32.886 58.9089 32.6146 59.1879 32.2744 59.1918C31.9381 59.1956 31.6591 58.9242 31.6553 58.5841C31.6553 58.2439 31.9266 57.9687 32.263 57.9649Z" fill="white"/>
<path d="M34.3922 56.917C34.5298 56.917 34.6406 57.024 34.6406 57.1616C34.6406 57.2992 34.5336 57.41 34.396 57.41C34.2584 57.41 34.1476 57.303 34.1476 57.1654C34.1437 57.0317 34.2546 56.9208 34.3922 56.917Z" fill="white"/>
<path d="M33.3829 55.0254C33.5779 55.0254 33.7384 55.1821 33.7422 55.377C33.7422 55.5719 33.5855 55.7325 33.3906 55.7363C33.1957 55.7363 33.0351 55.5796 33.0313 55.3847C33.0275 55.1859 33.1842 55.0254 33.3829 55.0254Z" fill="white"/>
<path d="M34.5865 58.5567C34.8464 58.5529 35.0604 58.7631 35.0642 59.023C35.068 59.2829 34.8578 59.4969 34.5979 59.5007C34.338 59.5046 34.124 59.2943 34.1202 59.0344C34.1163 58.7707 34.3266 58.5567 34.5865 58.5567Z" fill="white"/>
<path d="M36.4973 48.2256H19.3975V52.6706H36.4973V48.2256Z" fill="#99C446"/>
<path d="M60.2338 84.8437L62.2748 84.7711C64.8203 84.6794 66.846 82.5276 66.7772 79.9859L65.3668 27.2112C65.298 24.6696 63.1615 22.6668 60.616 22.7547L58.5751 22.8274C56.0296 22.9191 54.0039 25.0709 54.0689 27.6125L54.1339 30.0816L54.1606 31.1365L54.2409 34.0641L54.2676 35.119L54.3479 38.0429L54.3747 39.0978L54.4511 42.0254L54.4779 43.0803L54.5543 46.008L54.5811 47.0629L54.6613 49.9906L54.6881 51.0455L54.7683 53.9693L54.7951 55.028L54.8715 57.9519L54.8983 59.0068L54.9747 61.9344L55.0015 62.9893L55.0817 65.917L55.1085 66.9719L55.1888 69.8957L55.2155 70.9544L55.2919 73.8783L55.3187 74.9332L55.3952 77.8609L55.4219 78.9158L55.4601 80.3796C55.5518 82.9289 57.6884 84.9316 60.2338 84.8437Z" fill="#F4D75F"/>
<path d="M55.4447 78.9278L61.3842 78.7175C61.6746 78.7061 61.9078 78.4615 61.9001 78.171C61.9001 78.1289 61.8925 78.0907 61.8848 78.0525C61.8237 77.8194 61.6058 77.6512 61.3574 77.6627L55.418 77.8729L55.4447 78.9278Z" fill="white"/>
<path d="M55.3373 74.9453L61.2767 74.7351C61.5672 74.7237 61.8004 74.4791 61.7927 74.1886C61.7927 74.1465 61.7851 74.1083 61.7774 74.0701C61.7163 73.837 61.5022 73.6688 61.25 73.6802L55.3105 73.8905L55.3373 74.9453Z" fill="white"/>
<path d="M55.2308 70.9619L61.1703 70.7517C61.4608 70.7402 61.6939 70.4956 61.6863 70.2052C61.6863 70.1631 61.6786 70.1249 61.671 70.0867C61.6098 69.8535 61.3958 69.6854 61.1435 69.6968L55.2041 69.907L55.2308 70.9619Z" fill="white"/>
<path d="M55.1244 66.9805L61.0639 66.7703C61.3543 66.7588 61.5875 66.5142 61.5798 66.2237C61.5798 66.1817 61.5722 66.1435 61.5645 66.1052C61.5034 65.8721 61.2894 65.7039 61.0371 65.7154L55.0977 65.9256L55.1244 66.9805Z" fill="white"/>
<path d="M55.018 62.9971L60.9574 62.7869C61.2479 62.7754 61.481 62.5308 61.4734 62.2403C61.4734 62.1983 61.4657 62.1601 61.4581 62.1219C61.3969 61.8887 61.1829 61.7205 60.9307 61.732L54.9912 61.9422L55.018 62.9971Z" fill="white"/>
<path d="M54.9145 59.0147L60.8539 58.8045C61.1444 58.793 61.3775 58.5484 61.3699 58.2579C61.3699 58.2159 61.3622 58.1776 61.3546 58.1394C61.2934 57.9063 61.0756 57.7381 60.8271 57.7496L54.8877 57.9598L54.9145 59.0147Z" fill="white"/>
<path d="M54.807 55.0322L60.7465 54.822C61.037 54.8106 61.2701 54.566 61.2624 54.2755C61.2624 54.2334 61.2548 54.1952 61.2472 54.157C61.186 53.9239 60.972 53.7557 60.7197 53.7672L54.7803 53.9774L54.807 55.0322Z" fill="white"/>
<path d="M54.7006 51.0497L60.64 50.8357C60.9305 50.8242 61.1636 50.5796 61.156 50.2892C61.156 50.2471 61.1484 50.2089 61.1407 50.1707C61.0796 49.9375 60.8655 49.7694 60.6133 49.7808L54.6738 49.991L54.7006 51.0497Z" fill="white"/>
<path d="M54.5922 47.0674L60.5316 46.8572C60.8221 46.8457 61.0552 46.6011 61.0476 46.3106C61.0476 46.2686 61.04 46.2304 61.0323 46.1922C60.9712 45.959 60.7571 45.7908 60.5049 45.8023L54.5654 46.0125L54.5922 47.0674Z" fill="white"/>
<path d="M54.4848 43.084L60.4242 42.8738C60.7147 42.8623 60.9478 42.6177 60.9402 42.3272C60.9402 42.2852 60.9325 42.247 60.9249 42.2088C60.8637 41.9756 60.6497 41.8074 60.3975 41.8189L54.458 42.0291L54.4848 43.084Z" fill="white"/>
<path d="M54.3783 39.1016L60.3178 38.8914C60.6082 38.8799 60.8414 38.6353 60.8337 38.3448C60.8337 38.3028 60.8261 38.2646 60.8184 38.2263C60.7573 37.9932 60.5433 37.825 60.291 37.8365L54.3516 38.0467L54.3783 39.1016Z" fill="white"/>
<path d="M54.2719 35.123L60.2113 34.9089C60.5018 34.8975 60.7349 34.6529 60.7273 34.3624C60.7273 34.3204 60.7196 34.2821 60.712 34.2439C60.6508 34.0108 60.4368 33.8426 60.1846 33.8541L54.2451 34.0643L54.2719 35.123Z" fill="white"/>
<path d="M54.1645 31.1406L60.1039 30.9304C60.3944 30.919 60.6275 30.6744 60.6199 30.3839C60.6199 30.3418 60.6122 30.3036 60.6046 30.2654C60.5434 30.0323 60.3294 29.8641 60.0771 29.8756L54.1377 30.0896L54.1645 31.1406Z" fill="white"/>
<path d="M58.2041 84.4462C58.8233 84.7213 59.5151 84.8666 60.2374 84.8398L62.2784 84.7672C64.8239 84.6755 66.8496 82.5237 66.7808 79.982L65.3704 27.2073C65.3016 24.6657 63.1651 22.6629 60.6196 22.7508L60.5126 22.7547C61.2273 23.5344 62.6262 25.4377 62.7065 28.461C62.7638 30.5784 63.7766 66.7922 64.1015 77.8646C64.2009 81.3197 61.5369 84.2054 58.2041 84.4462Z" fill="#EAAC29"/>
<path d="M54.2529 53.3042L54.5549 52.9679L55.3002 53.9234L56.0111 52.9296L56.7564 53.8852L57.4634 52.8914L58.2087 53.8469L58.9196 52.8532L59.6649 53.8087L60.372 52.815L61.1173 53.7705L61.8282 52.7768L62.5735 53.7323L63.2844 52.7385L64.0297 53.6941L64.7368 52.7003L65.4821 53.6558L66.193 52.6621L66.5675 53.1437L66.621 55.0815V55.1159L66.6707 56.9275L67.2823 78.9883C67.3511 81.4726 65.1419 83.5824 62.3671 83.6779L60.1465 83.7544C57.3755 83.8499 55.0517 81.8969 54.9829 79.4164L54.9447 77.9869L54.9141 76.955L54.8339 74.0961L54.8033 73.0641L54.7269 70.2053L54.6963 69.1733L54.616 66.3144L54.5893 65.2825L54.509 62.4236L54.4784 61.3916L54.3982 58.5328L54.3714 57.5008L54.3676 57.3288L54.3103 55.2955L54.2912 54.6419L54.2835 54.3438L54.2529 53.3042Z" fill="white"/>
<path d="M54.1982 54.1716L54.504 53.8315L55.2569 54.7946L55.9755 53.7894L56.7284 54.7526L57.4431 53.7474L58.1961 54.7105L58.9146 53.7053L59.6676 54.6685L60.3823 53.6633L61.1352 54.6264L61.8538 53.6213L62.6067 54.5844L63.3253 53.5792L64.0782 54.5424L64.7929 53.5372L65.5459 54.5003L66.2644 53.4951L66.6428 53.9805L66.6963 55.9412V55.9794L66.746 57.8102L67.3652 80.1118C67.4378 82.6229 65.2019 84.7556 62.3965 84.8511L60.1491 84.9275C57.3476 85.0231 54.997 83.0509 54.9283 80.5437L54.89 79.0989L54.8594 78.0555L54.7792 75.1661L54.7486 74.1227L54.6722 71.2332L54.6416 70.1898L54.5613 67.3003L54.5346 66.2569L54.4543 63.3674L54.4237 62.324L54.3435 59.4346L54.3167 58.3911L54.3129 58.2192L54.2556 56.1629L54.2365 55.5017L54.2288 55.1997L54.1982 54.1716Z" fill="#DF69AC"/>
<path d="M66.784 55.6097C64.8424 61.6409 60.2827 65.9484 55.2376 67.1905C54.5955 67.3472 53.9458 67.4581 53.296 67.5116C52.4972 67.5804 51.6908 67.5727 50.8882 67.4772C50.5098 67.4313 50.1314 67.3701 49.753 67.2899C49.4587 67.2249 49.1644 67.1485 48.8701 67.0644C48.7937 67.0414 48.7211 67.0185 48.6484 66.9956C48.3733 66.9077 48.1019 66.8083 47.8344 66.7013C47.7159 66.6554 47.6012 66.6057 47.4866 66.5522C47.0164 66.3458 46.5654 66.105 46.1297 65.8413C45.9042 65.7037 45.6864 65.5623 45.4762 65.4094C44.9717 65.054 44.4977 64.6641 44.0544 64.2361C40.0221 60.372 38.4513 53.6949 40.5496 47.1707C42.709 40.4554 48.1134 35.8804 53.8235 35.288C54.4274 35.2268 55.0351 35.2077 55.6428 35.2345C55.8186 35.2421 55.9944 35.2574 56.174 35.2727C56.7512 35.3262 57.3245 35.4217 57.894 35.5632C58.0812 35.609 58.2723 35.6625 58.4596 35.716C58.5361 35.739 58.6087 35.7619 58.6851 35.7848C58.9603 35.8727 59.2317 35.9721 59.4992 36.0791C59.5336 36.0944 59.5718 36.1097 59.6062 36.1212C59.9579 36.2664 60.298 36.4308 60.6305 36.6066C61.1886 36.9047 61.7198 37.2487 62.2243 37.6309C62.8626 38.1163 63.4474 38.6628 63.9825 39.2667C67.4873 43.211 68.7562 49.4754 66.784 55.6097Z" fill="#487F41"/>
<path d="M52.1069 57.9907C51.9999 58.8735 51.8891 59.7832 51.3425 61.4725C50.7998 63.1619 50.3603 63.9683 49.9322 64.7442C49.5882 65.3748 49.2557 65.9787 48.8658 67.0603C48.7894 67.0374 48.7168 67.0145 48.6442 66.9915C48.369 66.9036 48.0976 66.8043 47.8301 66.6973C48.2543 65.5277 48.6174 64.8627 48.969 64.2206C49.3895 63.4523 49.787 62.7262 50.2953 61.1362C50.8074 59.5462 50.9068 58.7245 51.0138 57.8569C51.1208 56.9778 51.2317 56.0643 51.7782 54.375C52.321 52.6857 52.7605 51.8792 53.1886 51.1033C53.609 50.3351 54.0065 49.6089 54.5148 48.019C55.027 46.429 55.1263 45.6072 55.2334 44.7396C55.3404 43.8606 55.455 42.9471 55.9978 41.2578C56.5405 39.5684 56.98 38.762 57.4081 37.9861C57.7483 37.3631 58.0731 36.7669 58.4592 35.7158C58.5356 35.7388 58.6082 35.7617 58.6847 35.7846C58.9598 35.8725 59.2312 35.9719 59.4988 36.0789C59.0822 37.2217 58.7229 37.8753 58.3751 38.5135C57.9547 39.2818 57.561 40.008 57.0488 41.5979C56.5367 43.1879 56.4373 44.0096 56.3303 44.8772C56.2233 45.7601 56.1124 46.6698 55.5659 48.3591C55.0231 50.0485 54.5836 50.8549 54.1555 51.6308C53.7351 52.399 53.3415 53.1252 52.8293 54.7152C52.3133 56.3051 52.214 57.1231 52.1069 57.9907Z" fill="#99C446"/>
<path d="M59.0711 55.9231C58.7271 56.7372 58.1614 57.4022 57.6149 58.0481C57.2174 58.5144 56.8428 58.9578 56.5714 59.4317C56.2619 59.9706 56.0402 60.5898 55.8261 61.1898C55.5586 61.939 55.2834 62.711 54.8286 63.3569C54.2744 64.1404 53.5482 64.7214 52.9061 65.2374C52.4513 65.6005 52.0194 65.9483 51.7175 66.3075C51.297 66.812 51.0524 67.179 50.8881 67.4809C50.5097 67.435 50.1313 67.3739 49.7529 67.2936C49.944 66.8847 50.2383 66.3687 50.8766 65.6043C51.2473 65.1609 51.7213 64.7826 52.2181 64.3812C52.8297 63.8882 53.4641 63.3799 53.9304 62.7225C54.3012 62.2027 54.5381 61.5338 54.7904 60.8229C55.0197 60.177 55.2567 59.5081 55.6159 58.8851C55.937 58.3271 56.3612 57.8264 56.774 57.341C57.29 56.7295 57.7792 56.1562 58.062 55.495C58.3525 54.8147 58.4213 54.035 58.4939 53.2094C58.5474 52.6132 58.6048 51.9978 58.7462 51.4054C58.8914 50.8015 59.1704 50.2588 59.4341 49.7352C59.7093 49.1963 59.9654 48.6918 60.038 48.1987C60.1221 47.6331 60.0113 47.0407 59.8966 46.4138C59.7972 45.8711 59.694 45.3093 59.7246 44.7512C59.7628 44.0977 59.9463 43.4938 60.1221 42.909C60.2903 42.351 60.447 41.8236 60.4355 41.3611C60.4164 40.7075 60.1833 40.0845 59.9578 39.4807C59.7705 38.98 59.5909 38.506 59.5373 38.0206C59.4265 37.0537 59.503 36.5224 59.5985 36.1211C59.9501 36.2663 60.2903 36.4307 60.6228 36.6065C60.5731 36.9008 60.5578 37.2792 60.6304 37.8945C60.6725 38.2461 60.8254 38.6589 60.9897 39.0985C61.2343 39.752 61.5133 40.4973 61.5363 41.3343C61.5554 41.9726 61.3643 42.6109 61.177 43.2301C61.0203 43.7537 60.8559 44.2926 60.8254 44.8162C60.8024 45.2405 60.8865 45.7144 60.9821 46.2189C61.1082 46.9031 61.2382 47.614 61.1273 48.3593C61.0279 49.0319 60.7183 49.6435 60.4126 50.2359C60.1642 50.7251 59.9272 51.1876 59.8125 51.6653C59.6864 52.1775 59.6367 52.7278 59.587 53.3088C59.5106 54.1802 59.4303 55.086 59.0711 55.9231Z" fill="#99C446"/>
<path d="M63.9096 56.2364C63.5886 56.6874 63.2866 57.1154 63.0344 57.5588C62.763 58.0442 62.549 58.5755 62.3235 59.1373C61.9642 60.0317 61.5896 60.9604 60.9552 61.7286C60.3398 62.4816 59.5487 63.0167 58.7843 63.5365C58.253 63.8995 57.7485 64.2397 57.3395 64.6334C56.8121 65.1379 56.3649 65.7265 55.933 66.296C55.6999 66.6055 55.4705 66.9075 55.2336 67.1865C54.5915 67.3432 53.9417 67.454 53.292 67.5076C53.3952 67.4311 53.506 67.347 53.6283 67.2515C54.129 66.8578 54.58 66.2616 55.0616 65.6309C55.5202 65.0271 55.9942 64.4002 56.5866 63.8346C57.0643 63.3797 57.6262 62.9976 58.1727 62.6268C58.8722 62.1491 59.5945 61.6598 60.1105 61.0292C60.6379 60.3871 60.9628 59.5768 61.3106 58.7207C61.5399 58.1512 61.7769 57.5626 62.0827 57.0199C62.3617 56.5192 62.6942 56.0491 63.0191 55.5943C63.5847 54.7955 64.1198 54.0425 64.3224 53.2093C64.4829 52.5519 64.3912 51.841 64.2956 51.0919C64.2268 50.5645 64.158 50.0217 64.181 49.4828C64.2077 48.8866 64.33 48.3056 64.4523 47.7438C64.6052 47.0406 64.7466 46.3717 64.6702 45.7716C64.5823 45.099 64.2536 44.4454 63.9364 43.8148C63.6879 43.3179 63.4319 42.8057 63.2828 42.2745C63.0917 41.598 63.0344 40.9024 62.9808 40.287C62.9273 39.6334 62.8738 39.0143 62.6789 38.5518C62.5069 38.139 62.3579 37.8485 62.2203 37.623C62.8585 38.1084 63.4433 38.655 63.9784 39.2589C64.0204 39.5608 64.0472 39.8704 64.074 40.1915C64.1236 40.7839 64.1772 41.3992 64.3377 41.9764C64.4562 42.4044 64.6817 42.8478 64.9148 43.3179C65.2741 44.0326 65.6448 44.7703 65.7557 45.6302C65.8588 46.4176 65.6869 47.2087 65.5225 47.9731C65.404 48.512 65.297 49.0204 65.2741 49.5249C65.255 49.9682 65.3161 50.4422 65.3811 50.9467C65.4843 51.7646 65.5951 52.6093 65.3849 53.4654C65.1327 54.5126 64.5135 55.3917 63.9096 56.2364Z" fill="#99C446"/>
<path d="M52.1499 42.1407C51.89 42.5496 51.7563 43.0962 51.6149 43.6733C51.4734 44.2504 51.3244 44.8505 51.0339 45.4123C50.774 45.913 50.3995 46.3487 50.0364 46.7691C49.6236 47.2469 49.2299 47.7017 49.0197 48.2215C48.7483 48.8904 48.7025 49.6662 48.6566 50.4842C48.6222 51.0919 48.584 51.7225 48.4464 52.334C48.3012 52.9838 48.0489 53.5991 47.8043 54.1992C47.5062 54.9292 47.2233 55.6172 47.1545 56.3051C47.0819 57.039 47.2272 57.811 47.3686 58.5601C47.4871 59.1869 47.6094 59.8367 47.6055 60.4711C47.6017 61.2738 47.4565 62.0191 47.3151 62.7414C47.1775 63.4332 47.0514 64.0868 47.0934 64.641C47.1737 65.6997 47.3151 66.1622 47.4909 66.5444C47.0208 66.338 46.5698 66.0972 46.1341 65.8335C46.0767 65.5315 46.0309 65.1684 45.9965 64.7213C45.9468 64.0218 46.0882 63.2956 46.2373 62.5312C46.3672 61.8586 46.5048 61.1629 46.5086 60.4673C46.5124 59.9361 46.4054 59.3666 46.2908 58.7627C46.1341 57.9371 45.9774 57.0848 46.0653 56.1943C46.1494 55.3496 46.4742 54.5508 46.7915 53.7788C47.0284 53.1978 47.2539 52.6513 47.3801 52.0933C47.4947 51.5696 47.5291 51.0116 47.5635 50.4192C47.6132 49.5478 47.6667 48.6458 48.0069 47.8087C48.2859 47.1169 48.756 46.5742 49.2108 46.0506C49.5471 45.6608 49.8682 45.2938 50.0669 44.9078C50.2963 44.4606 50.4224 43.9485 50.5562 43.4096C50.7129 42.7713 50.8772 42.1139 51.2327 41.5521C51.6454 40.8985 52.2417 40.4169 52.7653 39.9927C53.1551 39.6793 53.5221 39.3812 53.7667 39.0601C54.1183 38.5976 54.3591 38.0549 54.5922 37.5313C54.8521 36.9427 55.1006 36.3847 55.4942 35.9528C55.7579 35.6661 55.9834 35.4445 56.186 35.2725C56.7631 35.326 57.3364 35.4215 57.9059 35.5629C57.8524 35.5859 57.7989 35.605 57.7454 35.6241C57.3479 35.7731 57.0383 35.8916 56.3045 36.6943C56.0293 36.9962 55.8191 37.474 55.5936 37.9823C55.349 38.5365 55.07 39.1633 54.6381 39.729C54.3132 40.157 53.8737 40.5125 53.4533 40.8526C52.964 41.2387 52.4672 41.64 52.1499 42.1407Z" fill="#99C446"/>
<path d="M45.1775 64.152C45.3227 64.6565 45.4183 65.0655 45.4718 65.4094C44.9673 65.054 44.4933 64.6641 44.05 64.2361C43.9009 63.808 43.6754 63.357 43.4423 62.8831C43.0448 62.0843 42.5976 61.1746 42.4065 60.1618C42.2383 59.2827 42.3186 58.3616 42.395 57.4711C42.4485 56.8251 42.5097 56.1563 42.4677 55.5295C42.4294 54.9638 42.3109 54.3905 42.1848 53.7828C41.9899 52.8464 41.7835 51.8756 41.8982 50.8933C42.0243 49.7773 42.525 48.795 43.0104 47.8434C43.2397 47.3885 43.4614 46.9605 43.6372 46.5286C43.8207 46.0737 43.9315 45.5807 44.05 45.0609C44.2258 44.2774 44.4131 43.4709 44.8602 42.783C45.3342 42.0606 46.003 41.5599 46.6528 41.0822C47.0732 40.7726 47.4669 40.4783 47.7726 40.1496C48.1396 39.7559 48.4453 39.2744 48.7434 38.8081C49.1486 38.1736 49.569 37.5162 50.1576 37.0461C50.8723 36.4728 51.7017 36.1747 52.4317 35.911C52.9056 35.7428 53.349 35.5823 53.6892 35.3721C53.735 35.3453 53.7771 35.3147 53.8191 35.288C54.423 35.2268 55.0307 35.2077 55.6384 35.2345C55.3594 35.5249 54.9657 35.8766 54.2586 36.3046C53.8229 36.5722 53.3261 36.7518 52.8024 36.9391C52.1183 37.1837 51.415 37.4398 50.8417 37.8984C50.3946 38.2577 50.0391 38.8081 49.6645 39.3967C49.3397 39.905 49.0033 40.4286 48.5715 40.8949C48.1969 41.2962 47.7421 41.6364 47.3025 41.9612C46.7063 42.4046 46.1406 42.825 45.7737 43.383C45.4336 43.9028 45.2769 44.5832 45.1163 45.3017C44.994 45.8406 44.8679 46.4024 44.65 46.9375C44.4551 47.4153 44.2182 47.8854 43.985 48.3402C43.5225 49.246 43.0868 50.0984 42.9836 51.0157C42.8919 51.8183 43.0677 52.6629 43.255 53.5535C43.3849 54.1726 43.5187 54.8109 43.5608 55.453C43.6066 56.1639 43.5455 56.8748 43.4881 57.5628C43.4155 58.4189 43.3467 59.2254 43.4843 59.9554C43.6487 60.8192 44.0462 61.6218 44.4284 62.3939C44.7265 62.9977 45.0055 63.5672 45.1775 64.152Z" fill="#99C446"/>
<path d="M41.363 35.5552H38.8748C38.8748 35.2227 38.8672 34.8902 38.8672 34.5653C38.8672 33.1167 38.8672 31.6644 38.8672 30.2158L41.3439 30.2655C41.3477 30.2655 41.3477 31.0605 41.3477 31.1064C41.3553 32.5167 41.3592 33.9232 41.363 35.3297C41.363 35.4061 41.363 35.4788 41.363 35.5552Z" fill="#DB4E12"/>
<path d="M45.468 44.1133V67.7793H34.8848V44.3617C34.8848 42.3704 35.7141 40.6276 36.9487 39.6836H36.9143C37.6099 39.244 38.3017 38.5637 38.6227 37.6235C38.8444 36.9737 38.8826 36.2628 38.8826 35.5596H41.3708C41.3937 36.6145 41.5657 37.7649 42.1199 38.5675C42.5021 39.1217 43.0295 39.3931 43.5264 39.7332C43.7786 39.909 44.0233 40.1001 44.2335 40.36C45.0132 41.327 45.468 42.703 45.468 44.1133Z" fill="#3B6897"/>
<path d="M44.4703 45.1523H36.0312V61.4457H44.4703V45.1523Z" fill="white"/>
<path d="M43.3879 46.375H37.1045V60.2222H43.3879V46.375Z" fill="#99C446"/>
<path d="M40.4757 50.9577C40.5178 51.0724 40.2808 51.2558 40.3037 51.3667C40.3267 51.489 40.6095 51.5807 40.6095 51.6877C40.6095 51.8177 40.3267 51.8903 40.2923 51.9858C40.2464 52.1158 40.3496 52.3795 40.2464 52.4177C40.147 52.4521 40.0591 52.1846 39.9406 52.112C39.8527 52.0584 39.589 52.1808 39.5049 52.0776C39.4361 51.9935 39.6005 51.745 39.5432 51.6342C39.4897 51.5348 39.1953 51.5387 39.1533 51.424C39.1113 51.3093 39.3482 51.1259 39.3253 51.015C39.3024 50.8927 39.0195 50.801 39.0195 50.694C39.0195 50.564 39.3024 50.4914 39.3368 50.3959C39.3826 50.2659 39.2794 50.0022 39.3826 49.964C39.482 49.9296 39.5699 50.1971 39.6884 50.2697C39.7763 50.3232 40.04 50.2009 40.1241 50.3041C40.1929 50.3882 40.0286 50.6366 40.0859 50.7475C40.1394 50.8469 40.4375 50.843 40.4757 50.9577Z" fill="#F4D75F"/>
<path d="M41.4579 51.9743C41.3853 52.0355 41.1865 51.9132 41.1139 51.959C41.0298 52.0087 41.0375 52.2419 40.961 52.2686C40.8655 52.303 40.7355 52.1157 40.6553 52.1157C40.5482 52.1196 40.3801 52.261 40.3304 52.1998C40.2769 52.1349 40.4527 51.9973 40.4718 51.8941C40.4871 51.8176 40.3266 51.6533 40.3801 51.5654C40.4221 51.4928 40.6476 51.5463 40.7126 51.4736C40.7699 51.4087 40.6897 51.1908 40.7623 51.1335C40.8349 51.0723 41.0337 51.1946 41.1063 51.1488C41.1904 51.0991 41.1827 50.8659 41.2592 50.8392C41.3547 50.8048 41.4847 50.9921 41.5649 50.9921C41.6719 50.9882 41.8401 50.8468 41.8898 50.908C41.9433 50.973 41.7675 51.1105 41.7484 51.2137C41.7331 51.2902 41.8936 51.4545 41.8401 51.5424C41.7981 51.6151 41.5726 51.5616 41.5076 51.6342C41.4503 51.6991 41.5305 51.9132 41.4579 51.9743Z" fill="#F4D75F"/>
<path d="M39.6999 52.8797C39.6999 53.3002 39.3597 53.6403 38.9393 53.6403C38.5189 53.6403 38.1787 53.3002 38.1787 52.8797C38.1787 52.4593 38.5189 52.1191 38.9393 52.1191C39.3597 52.1191 39.6999 52.4631 39.6999 52.8797Z" fill="#080044"/>
<path d="M38.9394 53.6826C38.4999 53.6826 38.1406 53.3233 38.1406 52.8838C38.1406 52.4442 38.4999 52.085 38.9394 52.085C39.379 52.085 39.7382 52.4442 39.7382 52.8838C39.7382 53.3233 39.379 53.6826 38.9394 53.6826ZM38.9394 52.1614C38.5419 52.1614 38.2171 52.4863 38.2171 52.8838C38.2171 53.2813 38.5419 53.6061 38.9394 53.6061C39.3369 53.6061 39.6618 53.2813 39.6618 52.8838C39.658 52.4863 39.3369 52.1614 38.9394 52.1614Z" fill="#99C446"/>
<path d="M41.0807 52.8797C41.0807 53.3002 40.7406 53.6403 40.3202 53.6403C39.8997 53.6403 39.5596 53.3002 39.5596 52.8797C39.5596 52.4593 39.8997 52.1191 40.3202 52.1191C40.7406 52.1191 41.0807 52.4631 41.0807 52.8797Z" fill="#080044"/>
<path d="M40.3232 53.6826C39.8837 53.6826 39.5244 53.3233 39.5244 52.8838C39.5244 52.4442 39.8837 52.085 40.3232 52.085C40.7628 52.085 41.122 52.4442 41.122 52.8838C41.122 53.3233 40.7628 53.6826 40.3232 53.6826ZM40.3232 52.1614C39.9257 52.1614 39.6009 52.4863 39.6009 52.8838C39.6009 53.2813 39.9257 53.6061 40.3232 53.6061C40.7207 53.6061 41.0456 53.2813 41.0456 52.8838C41.0418 52.4863 40.7169 52.1614 40.3232 52.1614Z" fill="#99C446"/>
<path d="M42.5056 52.8797C42.5056 53.3002 42.1654 53.6403 41.745 53.6403C41.3245 53.6403 40.9844 53.3002 40.9844 52.8797C40.9844 52.4593 41.3245 52.1191 41.745 52.1191C42.1654 52.1191 42.5056 52.4631 42.5056 52.8797Z" fill="#080044"/>
<path d="M41.7451 53.6826C41.3056 53.6826 40.9463 53.3233 40.9463 52.8838C40.9463 52.4442 41.3056 52.085 41.7451 52.085C42.1846 52.085 42.5439 52.4442 42.5439 52.8838C42.5439 53.3233 42.1846 53.6826 41.7451 53.6826ZM41.7451 52.1614C41.3476 52.1614 41.0227 52.4863 41.0227 52.8838C41.0227 53.2813 41.3476 53.6061 41.7451 53.6061C42.1426 53.6061 42.4675 53.2813 42.4675 52.8838C42.4636 52.4863 42.1426 52.1614 41.7451 52.1614Z" fill="#99C446"/>
<path d="M40.3923 53.9081C40.3923 54.3285 40.0521 54.6686 39.6317 54.6686C39.2113 54.6686 38.8711 54.3285 38.8711 53.9081C38.8711 53.4876 39.2113 53.1475 39.6317 53.1475C40.0521 53.1475 40.3923 53.4876 40.3923 53.9081Z" fill="#080044"/>
<path d="M39.6318 54.707C39.1923 54.707 38.833 54.3477 38.833 53.9082C38.833 53.4687 39.1923 53.1094 39.6318 53.1094C40.0713 53.1094 40.4306 53.4687 40.4306 53.9082C40.4306 54.3477 40.0752 54.707 39.6318 54.707ZM39.6318 53.1858C39.2343 53.1858 38.9095 53.5107 38.9095 53.9082C38.9095 54.3057 39.2343 54.6306 39.6318 54.6306C40.0293 54.6306 40.3542 54.3057 40.3542 53.9082C40.3542 53.5107 40.0293 53.1858 39.6318 53.1858Z" fill="#99C446"/>
<path d="M41.8141 53.9081C41.8141 54.3285 41.474 54.6686 41.0536 54.6686C40.6331 54.6686 40.293 54.3285 40.293 53.9081C40.293 53.4876 40.6331 53.1475 41.0536 53.1475C41.474 53.1475 41.8141 53.4876 41.8141 53.9081Z" fill="#080044"/>
<path d="M41.0537 54.707C40.6142 54.707 40.2549 54.3477 40.2549 53.9082C40.2549 53.4687 40.6142 53.1094 41.0537 53.1094C41.4932 53.1094 41.8525 53.4687 41.8525 53.9082C41.8563 54.3477 41.497 54.707 41.0537 54.707ZM41.0537 53.1858C40.6562 53.1858 40.3313 53.5107 40.3313 53.9082C40.3313 54.3057 40.6562 54.6306 41.0537 54.6306C41.4512 54.6306 41.7761 54.3057 41.7761 53.9082C41.7761 53.5107 41.4512 53.1858 41.0537 53.1858Z" fill="#99C446"/>
<path d="M41.1638 54.9246C41.1638 55.3451 40.8236 55.6852 40.4032 55.6852C39.9827 55.6852 39.6426 55.3451 39.6426 54.9246C39.6426 54.5042 39.9827 54.1641 40.4032 54.1641C40.8236 54.1641 41.1638 54.508 41.1638 54.9246Z" fill="#080044"/>
<path d="M40.4033 55.7275C39.9638 55.7275 39.6045 55.3682 39.6045 54.9287C39.6045 54.4892 39.9638 54.1299 40.4033 54.1299C40.8428 54.1299 41.2021 54.4892 41.2021 54.9287C41.2021 55.3682 40.8428 55.7275 40.4033 55.7275ZM40.4033 54.2063C40.0058 54.2063 39.6809 54.5312 39.6809 54.9287C39.6809 55.3262 40.0058 55.6511 40.4033 55.6511C40.8008 55.6511 41.1257 55.3262 41.1257 54.9287C41.1218 54.5312 40.8008 54.2063 40.4033 54.2063Z" fill="#99C446"/>
<path d="M57.5002 48.5121C57.397 48.4929 57.2976 48.4662 57.1944 48.4394C56.0669 48.1337 55.119 47.4992 54.4273 46.666C52.3366 50.7823 50.9186 56.8365 53.036 65.0003L57.5002 48.5121Z" fill="#2C4D7F"/>
<path d="M53.0361 65.0122C53.0361 65.0122 61.005 58.8128 61.2305 47.9697C60.1221 48.5698 58.8112 48.7915 57.4964 48.5124L53.0322 65.0045C53.036 65.0045 53.0361 65.0084 53.0361 65.0122Z" fill="#E381C8"/>
<path d="M53.0968 64.9465C53.0968 64.9465 49.4506 64.8471 47.7383 69.2425C47.7421 69.2425 51.7438 69.0972 53.0968 64.9465Z" fill="white"/>
<path d="M55.5085 71.3489C55.5085 71.3489 52.3095 69.5946 53.051 64.9355C53.051 64.9355 56.4373 67.0797 55.5085 71.3489Z" fill="white"/>
<path d="M57.1939 48.4395C58.6043 48.8217 60.0375 48.6153 61.23 47.9694C61.2797 45.5348 60.9433 42.867 60.0337 39.9813C60.0184 39.9355 60.0069 39.8896 59.9917 39.8438C59.9917 39.8438 59.9305 39.8858 59.8158 39.9737C59.1126 40.5011 56.4524 42.6797 54.4268 46.6699C55.1185 47.4993 56.0664 48.1337 57.1939 48.4395Z" fill="white"/>
<path d="M58.5553 45.6724C58.7082 45.1068 58.5018 44.6175 58.498 44.6099C58.4751 44.5564 58.4101 44.5296 58.3566 44.5564C58.3031 44.5793 58.2763 44.6443 58.3031 44.6978C58.3222 44.7399 58.7044 45.6571 57.8444 46.3719C57.7986 46.4101 57.7909 46.4789 57.8292 46.5209C57.8674 46.5668 57.9362 46.5744 57.9782 46.5362C58.3107 46.261 58.4789 45.9553 58.5553 45.6724Z" fill="#2C4D7F"/>
<path d="M59.335 42.3509C59.3923 42.3662 59.4496 42.3318 59.4649 42.2745V42.2707L60.0344 39.9774C60.0191 39.9316 60.0076 39.8857 59.9924 39.8398C59.9924 39.8398 59.9312 39.8819 59.8165 39.9698L59.2585 42.221C59.2432 42.2783 59.2776 42.3356 59.335 42.3509Z" fill="#2C4D7F"/>
<path d="M57.9781 52.7578C57.9781 52.7578 59.5184 57.329 59.2432 58.0895C58.9642 58.8501 56.4072 58.1584 56.4072 58.1584L57.9781 52.7578Z" fill="white"/>
<path d="M43.5989 78.6983L41.6535 79.3175C39.2265 80.0896 36.5931 78.7442 35.8019 76.3287L19.3595 26.1606C18.5684 23.7451 19.9061 21.1385 22.3331 20.3664L24.2785 19.7472C26.7055 18.9752 29.3389 20.3205 30.13 22.7361L30.8983 25.0828L31.227 26.088L32.1366 28.8705L32.4653 29.8756L33.3749 32.6581L33.7036 33.6633L34.6171 36.4457L34.9458 37.4509L35.8593 40.2334L36.188 41.2386L37.0976 44.021L37.4263 45.0262L38.3359 47.8086L38.6646 48.8138L39.5781 51.5963L39.9068 52.6015L40.8203 55.3839L41.149 56.3891L42.0586 59.1716L42.3873 60.1768L43.2969 62.9592L43.6256 63.9644L44.5391 66.7468L44.8678 67.752L45.7813 70.5345L46.11 71.5397L46.5648 72.9309C47.3636 75.3197 46.0259 77.9263 43.5989 78.6983Z" fill="#F4D75F"/>
<path d="M46.1126 71.5169L40.4484 73.3171C40.1693 73.405 39.8712 73.2521 39.7795 72.9731C39.768 72.9349 39.7604 72.8967 39.7566 72.8585C39.7375 72.6215 39.8827 72.3883 40.1197 72.3119L45.7839 70.5117L46.1126 71.5169Z" fill="white"/>
<path d="M44.8743 67.7288L39.2101 69.529C38.9311 69.6169 38.6329 69.464 38.5412 69.1888C38.5297 69.1506 38.5221 69.1124 38.5183 69.0704C38.4992 68.8334 38.6444 68.6002 38.8814 68.5238L44.5456 66.7236L44.8743 67.7288Z" fill="white"/>
<path d="M43.6312 63.9456L37.9669 65.7458C37.6879 65.8337 37.3898 65.6808 37.298 65.4056C37.2866 65.3674 37.2789 65.3292 37.2751 65.2872C37.256 65.0502 37.4013 64.8171 37.6382 64.7406L43.3025 62.9404L43.6312 63.9456Z" fill="white"/>
<path d="M42.3939 60.1574L36.7296 61.9576C36.4506 62.0455 36.1525 61.8927 36.0607 61.6136C36.0493 61.5754 36.0416 61.5372 36.0378 61.4952C36.0187 61.2582 36.1639 61.0251 36.4009 60.9486L42.0652 59.1484L42.3939 60.1574Z" fill="white"/>
<path d="M41.1517 56.3742L35.4874 58.1744C35.2084 58.2623 34.9103 58.1094 34.8186 57.8304C34.8071 57.7922 34.7994 57.754 34.7956 57.712C34.7765 57.475 34.9218 57.2419 35.1587 57.1654L40.823 55.3652L41.1517 56.3742Z" fill="white"/>
<path d="M39.9085 52.5863L34.2443 54.3865C33.9652 54.4744 33.6671 54.3215 33.5754 54.0464C33.5639 54.0081 33.5563 53.9699 33.5525 53.9317C33.5334 53.6909 33.6786 53.4616 33.9156 53.3851L39.5798 51.585L39.9085 52.5863Z" fill="white"/>
<path d="M38.6712 48.8021L33.0069 50.6022C32.7279 50.6902 32.4298 50.5373 32.3381 50.2621C32.3266 50.2239 32.319 50.1857 32.3152 50.1436C32.296 49.9066 32.4413 49.6735 32.6782 49.5971L38.3425 47.7969L38.6712 48.8021Z" fill="white"/>
<path d="M37.428 45.015L31.7638 46.8151C31.4848 46.903 31.1867 46.7502 31.0949 46.475C31.0835 46.4368 31.0758 46.3985 31.072 46.3565C31.0529 46.1195 31.1981 45.8864 31.4351 45.81L37.0993 44.0098L37.428 45.015Z" fill="white"/>
<path d="M36.1859 41.2307L30.5216 43.0309C30.2426 43.1188 29.9445 42.9659 29.8527 42.6869C29.8413 42.6487 29.8336 42.6105 29.8298 42.5684C29.8107 42.3314 29.9559 42.0983 30.1929 42.0219L35.8572 40.2217L36.1859 41.2307Z" fill="white"/>
<path d="M34.9486 37.4436L29.2843 39.2438C29.0053 39.3317 28.7072 39.1788 28.6154 38.8998C28.604 38.8616 28.5963 38.8233 28.5925 38.7813C28.5734 38.5443 28.7186 38.3112 28.9556 38.2347L34.6199 36.4346L34.9486 37.4436Z" fill="white"/>
<path d="M33.7054 33.6595L28.0411 35.4597C27.7621 35.5476 27.464 35.3947 27.3723 35.1195C27.3608 35.0813 27.3532 35.0431 27.3493 35.001C27.3302 34.7641 27.4755 34.5309 27.7124 34.4545L33.3767 32.6543L33.7054 33.6595Z" fill="white"/>
<path d="M32.4681 29.8763L26.8038 31.6765C26.5248 31.7644 26.2267 31.6115 26.135 31.3363C26.1235 31.2981 26.1159 31.2599 26.112 31.2178C26.0929 30.9809 26.2382 30.7477 26.4751 30.6713L32.1394 28.8711L32.4681 29.8763Z" fill="white"/>
<path d="M31.2259 26.0881L25.5616 27.8883C25.2826 27.9762 24.9845 27.8233 24.8928 27.5443C24.8813 27.5061 24.8737 27.4679 24.8698 27.4258C24.8507 27.1889 24.996 26.9557 25.2329 26.8793L30.8972 25.0791L31.2259 26.0881Z" fill="white"/>
<path d="M45.38 77.6435C44.8907 78.1136 44.2869 78.4805 43.5989 78.6984L41.6535 79.3175C39.2265 80.0896 36.5931 78.7442 35.8019 76.3287L19.3595 26.1606C18.5684 23.7451 19.9061 21.1385 22.3331 20.3664L22.4363 20.332C22.0235 21.3105 21.3508 23.5693 22.291 26.4435C22.9484 28.4577 34.1929 62.8942 37.6136 73.4316C38.6761 76.7185 42.158 78.5378 45.38 77.6435Z" fill="#EAAC29"/>
<path d="M38.611 46.9865L38.2135 46.7725L37.8351 47.9229L36.8338 47.2273L36.4554 48.3777L35.454 47.6821L35.0756 48.8325L34.0742 48.1369L33.6959 49.2874L32.6945 48.5918L32.3161 49.7422L31.3147 49.0466L30.9364 50.197L29.935 49.5014L29.5566 50.6518L28.5552 49.9562L28.1768 51.1066L27.1755 50.411L26.9844 50.9882L27.5883 52.8304L27.5997 52.8648L28.1616 54.5885L35.0145 75.5677C35.7827 77.9297 38.5766 79.1719 41.2215 78.3272L43.3389 77.6507C45.9799 76.806 47.5125 74.1879 46.7405 71.8259L46.2933 70.4653L45.9722 69.483L45.0855 66.7655L44.7645 65.7833L43.874 63.0658L43.5529 62.0835L42.6662 59.3661L42.3451 58.3876L41.4584 55.6702L41.1374 54.6879L40.2507 51.9704L39.9296 50.9882L39.8761 50.8276L39.2455 48.8937L39.0429 48.2707L38.9512 47.9879L38.611 46.9865Z" fill="white"/>
<path d="M38.9514 47.7862L38.5501 47.5684L38.1641 48.7303L37.1512 48.027L36.7652 49.1889L35.7524 48.4857L35.3663 49.6475L34.3535 48.9443L33.9675 50.1062L32.9546 49.4029L32.5686 50.5648L31.5558 49.8616L31.1735 51.0235L30.1607 50.3202L29.7747 51.4821L28.7618 50.7789L28.3758 51.9408L27.363 51.2375L27.1719 51.8223L27.7834 53.6836L27.7949 53.718L28.3644 55.4609L35.2937 76.6655C36.0734 79.0543 38.8941 80.3079 41.5657 79.4556L43.706 78.7715C46.3776 77.9192 47.9255 75.2705 47.1458 72.8855L46.6948 71.5096L46.37 70.5197L45.4718 67.7717L45.1507 66.7779L44.2526 64.0299L43.9315 63.0361L43.0333 60.2881L42.7085 59.2982L41.8103 56.5501L41.4892 55.5564L40.5911 52.8084L40.2662 51.8185L40.2127 51.6541L39.5744 49.7011L39.368 49.0704L39.2724 48.7838L38.9514 47.7862Z" fill="#DF69AC"/>
<path d="M56.0134 56.3621L55.9331 56.1061L55.677 55.2767L55.5968 55.0206L55.3292 54.1492L55.249 53.8931L54.9929 53.0637L54.9126 52.8077L54.6795 52.0547L54.5992 51.7986L54.3202 50.889L54.2399 50.6329L53.9839 49.7997L53.9036 49.5436L53.6361 48.6722L53.5558 48.4161L53.2997 47.5829L53.2195 47.3269L52.9863 46.5739L52.9061 46.3178L52.6614 45.5267L52.5812 45.2706L52.3251 44.4412L52.2448 44.1851L51.9773 43.3137L51.897 43.0576L51.7977 42.7328C51.7518 42.5569 51.6906 42.3926 51.6104 42.2359C51.5683 42.1518 51.5263 42.0715 51.4766 41.9951C51.3811 41.8384 51.2664 41.6932 51.1441 41.5632C51.0677 41.483 50.9836 41.4065 50.8995 41.3339C50.8613 41.3033 50.8231 41.2727 50.781 41.2422C50.7275 41.2039 50.674 41.1657 50.6205 41.1313C50.5861 41.1084 50.5517 41.0893 50.5173 41.0702C50.2803 40.9326 50.0242 40.8294 49.7529 40.7682C49.6573 40.7453 49.5618 40.73 49.4624 40.7185C49.1605 40.6803 48.8471 40.6956 48.5336 40.7682C48.5031 40.7759 48.4687 40.7835 48.4343 40.7912C48.3808 40.8065 48.3273 40.8217 48.2738 40.837C47.9833 40.9326 47.7196 41.074 47.4864 41.2536C47.4062 41.3148 47.3335 41.3759 47.2609 41.4447C47.0392 41.6549 46.852 41.9034 46.7105 42.1709C46.6953 42.2015 46.68 42.2359 46.6647 42.2665C46.6303 42.3391 46.5997 42.4117 46.5729 42.4843C46.5462 42.5531 46.5233 42.6257 46.5041 42.6945C46.443 42.9047 46.4086 43.1226 46.4009 43.3443C46.3971 43.436 46.3971 43.5277 46.4048 43.6195C46.4162 43.7953 46.443 43.9673 46.4889 44.1431L46.5653 44.4756L46.6226 44.7355L46.8214 45.6222L46.8787 45.8821L47.0698 46.7306L47.1271 46.9905L47.3106 47.8008L47.3679 48.0607L47.5399 48.8289L47.5972 49.0888L47.7883 49.9373L47.8457 50.1972L48.0444 51.0839L48.1018 51.3438L48.2929 52.1923L48.3502 52.4522L48.5604 53.381L48.6177 53.6409L48.7935 54.4091L48.8509 54.669L49.042 55.5175L49.0993 55.7774L49.3019 56.6641L49.3592 56.924L49.5503 57.7725L49.6076 58.0324L50.6702 62.7297C51.0562 64.1897 53.1965 64.6445 54.6527 64.2585C56.1128 63.8724 57.7448 62.3092 57.3587 60.853L56.0134 56.3621ZM51.5722 60.6581C51.5913 60.7307 51.5492 60.8034 51.4766 60.8225C51.4078 60.8416 51.3314 60.7995 51.3123 60.7269L50.5402 57.8183L50.8001 57.7495L51.5722 60.6581ZM52.5927 60.3867C52.6118 60.4594 52.5697 60.532 52.4971 60.5511C52.4245 60.5702 52.3519 60.5282 52.3328 60.4555L51.5607 57.547L51.8206 57.4782L52.5927 60.3867ZM53.6896 60.0925C53.7087 60.1651 53.6666 60.2377 53.594 60.2568C53.5214 60.2759 53.4488 60.2339 53.4297 60.1612L52.6576 57.2527L52.9175 57.1839L53.6896 60.0925ZM54.8285 59.7905C54.8477 59.8631 54.8056 59.9357 54.733 59.9549C54.6604 59.974 54.5878 59.9319 54.5686 59.8593L53.7966 56.9507L54.0565 56.8819L54.8285 59.7905ZM55.9255 59.5C55.9446 59.5726 55.9025 59.6453 55.8299 59.6644C55.7573 59.6835 55.6847 59.6415 55.6656 59.5688L54.8935 56.6603L55.1534 56.5915L55.9255 59.5Z" fill="#F2D048"/>
<path d="M50.8009 57.75L51.573 60.6586C51.5921 60.7312 51.55 60.8038 51.4774 60.8229C51.4086 60.842 51.3322 60.8 51.3131 60.7274L50.541 57.8188L50.8009 57.75Z" fill="#F2D048"/>
<path d="M46.5932 42.4922C46.5665 42.561 46.5435 42.6336 46.5244 42.7024L46.5932 42.4922Z" fill="#EAAC29"/>
<path d="M46.6849 42.2705L50.8012 57.7498L50.5413 57.8186L46.5205 42.7024C46.5396 42.6298 46.5625 42.561 46.5893 42.4922C46.6199 42.4157 46.6505 42.3431 46.6849 42.2705Z" fill="#EAAC29"/>
<path d="M51.8175 57.4785L52.5896 60.3871C52.6087 60.4597 52.5666 60.5323 52.494 60.5514C52.4214 60.5705 52.3488 60.5285 52.3297 60.4559L51.5576 57.5473L51.8175 57.4785Z" fill="#F2D048"/>
<path d="M47.5067 41.2578L51.8179 57.4785L51.558 57.5473L47.2773 41.4489C47.3538 41.3839 47.4264 41.319 47.5067 41.2578Z" fill="#EAAC29"/>
<path d="M52.9191 57.1875L53.6911 60.0961C53.7102 60.1687 53.6682 60.2413 53.5956 60.2604C53.523 60.2795 53.4503 60.2375 53.4312 60.1649L52.6592 57.2563L52.9191 57.1875Z" fill="#F2D048"/>
<path d="M48.5538 40.7725L52.9186 57.1881L52.6587 57.2569L48.2939 40.8451C48.3475 40.826 48.401 40.8107 48.4545 40.7992C48.4889 40.7878 48.5194 40.7801 48.5538 40.7725Z" fill="#EAAC29"/>
<path d="M54.0538 56.8857L54.8259 59.7943C54.845 59.8669 54.803 59.9396 54.7303 59.9587C54.6577 59.9778 54.5851 59.9357 54.566 59.8631L53.7939 56.9545L54.0538 56.8857Z" fill="#F2D048"/>
<path d="M49.7729 40.7723L54.0574 56.8821L53.7975 56.9509L49.4824 40.7188C49.578 40.734 49.6773 40.7531 49.7729 40.7723Z" fill="#EAAC29"/>
<path d="M55.1535 56.5918L55.9255 59.5004C55.9446 59.573 55.9026 59.6456 55.83 59.6647C55.7573 59.6838 55.6847 59.6418 55.6656 59.5692L54.8936 56.6606L55.1535 56.5918Z" fill="#F2D048"/>
<path d="M50.9154 41.3417C50.9995 41.4144 51.0835 41.4908 51.16 41.571L55.154 56.5955L54.8941 56.6643L50.7969 41.25C50.8351 41.2768 50.8771 41.3073 50.9154 41.3417Z" fill="#EAAC29"/>
<path d="M50.9145 41.3412L46.5918 42.4917C46.6186 42.419 46.6491 42.3464 46.6835 42.2738C46.6988 42.2432 46.7141 42.2088 46.7294 42.1783L50.6355 41.1387C50.689 41.1731 50.7425 41.2113 50.796 41.2495C50.8343 41.2763 50.8763 41.3068 50.9145 41.3412Z" fill="#EAAC29"/>
<path d="M51.6261 42.2437L46.4243 43.6273C46.4167 43.5356 46.4167 43.4438 46.4205 43.3521L51.4961 42.0029C51.542 42.0794 51.584 42.1596 51.6261 42.2437Z" fill="#EAAC29"/>
<path d="M51.9893 43.3206L46.6423 44.7424L46.585 44.4825L51.9129 43.0684L51.9893 43.3206Z" fill="#EAAC29"/>
<path d="M52.337 44.4485L46.9021 45.8932L46.8447 45.6333L52.2606 44.1924L52.337 44.4485Z" fill="#EAAC29"/>
<path d="M52.6729 45.5344L47.1539 47.0021L47.0928 46.7422L52.5927 45.2783L52.6729 45.5344Z" fill="#EAAC29"/>
<path d="M52.9944 46.5823L47.3951 48.0728L47.334 47.8129L52.918 46.3262L52.9944 46.5823Z" fill="#EAAC29"/>
<path d="M53.3081 47.591L47.6285 49.1007L47.5674 48.8408L53.2278 47.335L53.3081 47.591Z" fill="#EAAC29"/>
<path d="M53.6441 48.6809L47.8805 50.2135L47.8193 49.9536L53.5639 48.4248L53.6441 48.6809Z" fill="#EAAC29"/>
<path d="M53.988 49.8039L48.1364 51.3595L48.0791 51.0996L53.9115 49.5479L53.988 49.8039Z" fill="#EAAC29"/>
<path d="M54.324 50.8938L48.3884 52.4685L48.3311 52.2086L54.2437 50.6377L54.324 50.8938Z" fill="#EAAC29"/>
<path d="M54.6833 52.0549L48.656 53.6563L48.5986 53.3964L54.6031 51.7988L54.6833 52.0549Z" fill="#EAAC29"/>
<path d="M54.997 53.0637L48.8894 54.6881L48.832 54.4282L54.9167 52.8076L54.997 53.0637Z" fill="#EAAC29"/>
<path d="M55.3292 54.1526L49.1413 55.796L49.084 55.5361L55.2527 53.8965L55.3292 54.1526Z" fill="#EAAC29"/>
<path d="M55.6778 55.2766L49.4021 56.9468L49.3447 56.6831L55.5976 55.0205L55.6778 55.2766Z" fill="#EAAC29"/>
<path d="M56.0138 56.3626L49.6539 58.0558L49.5928 57.7959L55.9335 56.1104L56.0138 56.3626Z" fill="#EAAC29"/>
<path d="M47.5742 52.2002C47.5742 52.2002 49.7107 62.8293 50.7351 63.7657C51.7594 64.6982 53.3073 65.6652 55.6731 64.5186C58.039 63.372 58.0084 61.3119 58.0084 61.3119C58.0084 61.3119 55.7457 51.8333 55.1419 50.5299C55.1419 50.5299 54.9011 54.8068 54.515 55.3686C54.129 55.9305 51.9466 48.875 51.9466 48.875C51.9466 48.875 51.1058 53.7557 52.0345 56.1063C52.0345 56.1063 50.0777 52.1964 49.7528 51.8256C49.4241 51.4549 49.8674 55.9955 50.3299 56.8631C50.3337 56.8669 48.9502 53.3086 47.5742 52.2002Z" fill="#487F41"/>
<path d="M65.7066 53.3965L63.9829 54.2068L62.2591 53.3965L60.5354 54.2068L58.8116 53.3965L57.0879 54.2068L55.3642 53.3965L53.6404 54.2068L51.9167 53.3965L50.193 54.2068L48.4692 53.3965L46.7455 54.2068L45.0217 53.3965L43.298 54.2068L41.5743 53.3965L39.8505 54.2068L38.1268 53.3965L36.4031 54.2068L34.6793 53.3965L32.9556 54.2068L31.2318 53.3965L29.5081 54.2068L27.7844 53.3965L26.0606 54.2068L24.3369 53.3965L22.6131 54.2068L20.8894 53.3965L19.2383 54.1724V55.2311V58.239V91.1964C19.2383 91.6169 19.6511 91.957 20.1517 91.957H66.4595C66.9602 91.957 67.373 91.613 67.373 91.1964V58.239V55.2311V54.1762L65.7066 53.3965Z" fill="#F4D75F"/>
<path d="M29.8449 64.6596V71.0664H32.3619C33.2405 71.0664 33.9727 70.7552 34.5494 70.142C35.1351 69.5196 35.428 68.76 35.428 67.863C35.428 66.9569 35.1351 66.1972 34.5494 65.584C33.9727 64.9708 33.2405 64.6596 32.3619 64.6596H29.8449ZM30.8975 70.0596V65.6664H32.3619C32.966 65.6664 33.4602 65.8769 33.8355 66.2888C34.2199 66.7006 34.4121 67.2223 34.4121 67.863C34.4121 68.4945 34.2199 69.0254 33.8355 69.4372C33.4602 69.8491 32.966 70.0596 32.3619 70.0596H30.8975ZM37.6934 66.4901H36.7049V71.0664H37.6934V68.76C37.6934 68.2932 37.8307 67.9545 38.1144 67.7532C38.3981 67.5427 38.7276 67.4511 39.1029 67.4786V66.4077C38.4164 66.4077 37.9405 66.6915 37.6934 67.2589V66.4901ZM42.1601 71.1854C42.8374 71.1854 43.4048 70.9566 43.8716 70.4898C44.3384 70.023 44.5764 69.4556 44.5764 68.7783C44.5764 68.101 44.3384 67.5335 43.8716 67.0667C43.4048 66.5999 42.8374 66.3711 42.1601 66.3711C41.4919 66.3711 40.9153 66.5999 40.4485 67.0667C39.9818 67.5335 39.7438 68.101 39.7438 68.7783C39.7438 69.4556 39.9818 70.023 40.4485 70.4898C40.9153 70.9566 41.4919 71.1854 42.1601 71.1854ZM41.1441 69.8125C40.8696 69.5379 40.7323 69.1901 40.7323 68.7783C40.7323 68.3664 40.8696 68.0186 41.1441 67.744C41.4187 67.4694 41.7574 67.3322 42.1601 67.3322C42.5628 67.3322 42.9014 67.4694 43.176 67.744C43.4506 68.0186 43.5879 68.3664 43.5879 68.7783C43.5879 69.1901 43.4506 69.5379 43.176 69.8125C42.9014 70.0871 42.5628 70.2244 42.1601 70.2244C41.7574 70.2244 41.4187 70.0871 41.1441 69.8125ZM48.4417 66.3711C47.7461 66.3711 47.2153 66.6274 46.84 67.1491V66.4901H45.8515V72.8969H46.84V70.4166C47.2153 70.9291 47.7461 71.1854 48.4417 71.1854C49.0732 71.1854 49.6041 70.9566 50.0526 70.4898C50.501 70.023 50.7207 69.4556 50.7207 68.7783C50.7207 68.1101 50.501 67.5427 50.0526 67.0759C49.6041 66.6091 49.0732 66.3711 48.4417 66.3711ZM47.2519 69.8308C46.9773 69.5471 46.84 69.1993 46.84 68.7783C46.84 68.3572 46.9773 68.0094 47.2519 67.7349C47.5264 67.4511 47.8742 67.3138 48.2861 67.3138C48.698 67.3138 49.0458 67.4511 49.3204 67.7349C49.5949 68.0094 49.7322 68.3572 49.7322 68.7783C49.7322 69.1993 49.5949 69.5471 49.3204 69.8308C49.0458 70.1054 48.698 70.2427 48.2861 70.2427C47.8742 70.2427 47.5264 70.1054 47.2519 69.8308ZM54.5881 66.3711C53.8925 66.3711 53.3617 66.6274 52.9864 67.1491V66.4901H51.9979V72.8969H52.9864V70.4166C53.3617 70.9291 53.8925 71.1854 54.5881 71.1854C55.2196 71.1854 55.7505 70.9566 56.199 70.4898C56.6474 70.023 56.8671 69.4556 56.8671 68.7783C56.8671 68.1101 56.6474 67.5427 56.199 67.0759C55.7505 66.6091 55.2196 66.3711 54.5881 66.3711ZM53.3983 69.8308C53.1237 69.5471 52.9864 69.1993 52.9864 68.7783C52.9864 68.3572 53.1237 68.0094 53.3983 67.7349C53.6729 67.4511 54.0207 67.3138 54.4325 67.3138C54.8444 67.3138 55.1922 67.4511 55.4668 67.7349C55.7413 68.0094 55.8786 68.3572 55.8786 68.7783C55.8786 69.1993 55.7413 69.5471 55.4668 69.8308C55.1922 70.1054 54.8444 70.2427 54.4325 70.2427C54.0207 70.2427 53.6729 70.1054 53.3983 69.8308Z" fill="#CC3C0E"/>
</g>
<defs>
<clipPath id="clip0_2089_35646">
<rect x="0.9375" y="0.44043" width="84.9618" height="84.9618" rx="42.4809" fill="white"/>
</clipPath>
</defs>
</svg>
