<svg width="112" height="112" viewBox="0 0 112 112" fill="none" xmlns="http://www.w3.org/2000/svg">
<g clip-path="url(#clip0_1881_23170)">
<rect width="111.394" height="111.394" rx="55.6969" fill="#CFEEE0"/>
<path d="M25.172 121.991C23.4081 121.991 21.9699 120.643 21.9699 118.99V69.1746L22.2004 69.0643V50.8139C22.2004 49.015 23.6636 47.5567 25.4576 47.5567H26.57L22.2405 34.3525C21.5189 32.1426 21.7945 29.7323 23.0021 27.7279C23.6636 26.6254 24.5857 25.6984 25.6731 25.0319L25.6981 25.0068L26.3896 24.616H26.4347C26.7605 24.4656 27.0912 24.3303 27.437 24.2251L29.9876 23.4133C30.7794 23.1628 31.6012 23.0325 32.433 23.0325C35.9658 23.0325 39.0777 25.2774 40.1701 28.6148L40.7765 30.4639C41.914 28.8954 43.7631 27.8932 45.7826 27.8932C46.2185 27.8932 46.6595 27.9383 47.0854 28.0335C48.699 28.3793 50.0871 29.3364 50.9841 30.7245C51.7959 31.9773 52.1216 33.4505 51.9211 34.9138C52.7931 35.5402 53.5097 36.367 54.0058 37.3241C54.9779 37.8553 54.9779 39.2283 54.9779 40.2055L54.998 44.961C55.1433 45.7077 55.1784 46.4643 55.1032 47.226C55.2335 48.113 55.459 48.594 55.6294 48.8446C55.7997 49.0951 56.0703 49.2755 56.5364 49.5812C56.6065 49.6263 56.6767 49.6764 56.7518 49.7215C59.974 46.6046 63.8325 44.5701 67.8765 43.8736L67.656 35.6855C67.5357 31.2507 71.0535 27.5124 75.4933 27.357L78.1743 27.2618C78.2594 27.2568 78.3496 27.2568 78.4398 27.2568C78.951 27.2568 79.4721 27.3069 79.9933 27.4122C81.216 27.6527 82.3786 28.1739 83.3557 28.9305C85.27 30.4088 86.4075 32.6437 86.4726 35.0541L86.9687 53.7204C89.3941 58.3957 90.1307 63.948 89.0834 69.5404V119C89.0834 120.654 87.6452 122.001 85.8813 122.001H25.172V121.991Z" fill="white"/>
<path d="M48.3863 37.3569C50.199 35.9237 50.5066 33.2924 49.0734 31.4797C47.6402 29.667 45.0089 29.3594 43.1962 30.7926C41.3835 32.2258 41.0759 34.8572 42.5091 36.6698C43.9424 38.4825 46.5737 38.7901 48.3863 37.3569Z" fill="#487F41"/>
<path d="M42.8606 56.457C45.1054 55.9079 46.48 53.6431 45.931 51.3982C45.3819 49.1534 43.117 47.7788 40.8722 48.3278C38.6274 48.8769 37.2527 51.1418 37.8018 53.3866C38.3509 55.6314 40.6158 57.0061 42.8606 56.457Z" fill="#487F41"/>
<path d="M45.8288 40.1834C46.4977 37.6321 44.9717 35.0217 42.4205 34.3529C39.8693 33.684 37.2589 35.21 36.59 37.7612C35.9211 40.3124 37.4471 42.9228 39.9983 43.5917C42.5495 44.2606 45.1599 42.7346 45.8288 40.1834Z" fill="#487F41"/>
<path d="M52.6534 41.4233C52.0972 44.004 49.5616 45.6426 46.9809 45.0914C44.4002 44.5352 42.7615 41.9996 43.3127 39.4189C43.869 36.8381 46.4046 35.1995 48.9853 35.7507C51.566 36.307 53.2097 38.8476 52.6534 41.4233Z" fill="#487F41"/>
<path d="M43.433 51.0958C44.3045 48.6065 42.9929 45.8822 40.5037 45.0107C38.0145 44.1393 35.2901 45.4508 34.4187 47.9401C33.5472 50.4293 34.8588 53.1537 37.348 54.0251C39.8372 54.8965 42.5616 53.585 43.433 51.0958Z" fill="#487F41"/>
<path d="M50.4208 51.7641C50.852 49.1622 49.0924 46.7034 46.4905 46.2722C43.8886 45.8409 41.4298 47.6006 40.9986 50.2025C40.5674 52.8043 42.327 55.2632 44.9289 55.6944C47.5307 56.1256 49.9896 54.3659 50.4208 51.7641Z" fill="#487F41"/>
<path d="M44.7607 46.0291C45.5058 42.9178 43.5876 39.7916 40.4763 39.0465C37.365 38.3014 34.2388 40.2195 33.4937 43.3308C32.7486 46.4421 34.6667 49.5684 37.778 50.3135C40.8894 51.0586 44.0156 49.1404 44.7607 46.0291Z" fill="#487F41"/>
<path d="M48.8201 52.0555C51.9138 51.2407 53.7612 48.0721 52.9463 44.9784C52.1315 41.8847 48.9629 40.0373 45.8692 40.8522C42.7755 41.6671 40.9282 44.8356 41.743 47.9293C42.5579 51.023 45.7264 52.8704 48.8201 52.0555Z" fill="#487F41"/>
<path d="M40.201 59.3829C40.176 59.3829 40.1459 59.3779 40.1209 59.3729C39.9104 59.3278 39.7751 59.1173 39.8202 58.9069L45.7283 31.416C45.7734 31.2056 45.9788 31.0703 46.1943 31.1154C46.4048 31.1605 46.5401 31.3709 46.495 31.5814L40.5869 59.0722C40.5468 59.2576 40.3814 59.3829 40.201 59.3829Z" fill="#99C446"/>
<path d="M45.4725 41.2478C44.7709 41.2478 44.0995 41.1225 43.4731 40.8769C40.0304 39.5239 38.8278 36.5724 38.7777 36.4471C38.6975 36.2467 38.7977 36.0212 38.9982 35.941C39.1986 35.8608 39.4241 35.9611 39.5043 36.1615C39.5243 36.2066 40.6518 38.9326 43.7587 40.1553C46.8255 41.358 50.0426 38.7322 50.0727 38.7071C50.238 38.5718 50.4836 38.5919 50.6239 38.7572C50.7642 38.9226 50.7391 39.1682 50.5738 39.3085C50.5387 39.3385 49.6718 40.0551 48.3689 40.6113C47.3767 41.0323 46.3995 41.2478 45.4725 41.2478Z" fill="#99C446"/>
<path d="M42.702 54.1264C42.0004 54.1264 41.3289 54.0011 40.7026 53.7556C37.2599 52.4026 36.0573 49.4511 36.0072 49.3258C35.927 49.1253 36.0272 48.8998 36.2277 48.8197C36.4281 48.7395 36.6536 48.8397 36.7338 49.0401C36.7438 49.0702 37.8713 51.8063 40.9882 53.034C44.055 54.2366 47.2721 51.6108 47.3022 51.5858C47.4675 51.4505 47.7131 51.4705 47.8534 51.6359C47.9937 51.8013 47.9686 52.0468 47.8033 52.1871C47.7682 52.2172 46.9013 52.9338 45.5984 53.49C44.6062 53.9159 43.629 54.1264 42.702 54.1264Z" fill="#99C446"/>
<path d="M44.1197 48.6492C43.5635 48.6492 43.0223 48.5891 42.5011 48.4739C40.5468 48.0279 38.7328 46.8402 37.2645 45.0413C36.1621 43.6933 35.6409 42.4856 35.6209 42.4355C35.5357 42.2351 35.6259 42.0096 35.8264 41.9244C36.0268 41.8392 36.2523 41.9294 36.3375 42.1298C36.3575 42.1749 38.352 46.72 42.6765 47.7122C46.5501 48.5991 50.4888 45.4873 50.5289 45.4522C50.6993 45.3169 50.9448 45.3419 51.0801 45.5123C51.2154 45.6827 51.1904 45.9282 51.02 46.0635C50.9749 46.0986 49.9476 46.9204 48.3892 47.637C46.9159 48.3085 45.4677 48.6492 44.1197 48.6492Z" fill="#99C446"/>
<path d="M45.3718 81.5671H25.4627C24.7712 81.5671 24.21 81.0059 24.21 80.3143V50.8141C24.21 50.1225 24.7712 49.5613 25.4627 49.5613H45.3718C46.0633 49.5613 46.6246 50.1225 46.6246 50.8141V80.3143C46.6246 81.0059 46.0633 81.5671 45.3718 81.5671Z" fill="white"/>
<path d="M45.1565 81.1213H25.6784C25.1171 81.1213 24.6611 80.6653 24.6611 80.1041V51.0197C24.6611 50.4584 25.1171 50.0024 25.6784 50.0024H45.1565C45.7177 50.0024 46.1737 50.4584 46.1737 51.0197V80.1041C46.1737 80.6653 45.7177 81.1213 45.1565 81.1213ZM25.6784 50.0776C25.1572 50.0776 24.7363 50.5035 24.7363 51.0197V80.1041C24.7363 80.6252 25.1622 81.0462 25.6784 81.0462H45.1565C45.6776 81.0462 46.0986 80.6202 46.0986 80.1041V51.0197C46.0986 50.4985 45.6726 50.0776 45.1565 50.0776H25.6784Z" fill="#080044"/>
<path d="M30.369 60.4906C33.1669 60.4906 35.4352 58.2224 35.4352 55.4244C35.4352 52.6264 33.1669 50.3582 30.369 50.3582C27.571 50.3582 25.3027 52.6264 25.3027 55.4244C25.3027 58.2224 27.571 60.4906 30.369 60.4906Z" fill="#CC3C0E"/>
<path d="M30.369 60.8063C33.1669 60.8063 35.4352 58.538 35.4352 55.74C35.4352 52.9421 33.1669 50.6738 30.369 50.6738C27.571 50.6738 25.3027 52.9421 25.3027 55.74C25.3027 58.538 27.571 60.8063 30.369 60.8063Z" fill="#DB4E12"/>
<path d="M33.4759 55.5545C33.819 55.5545 34.0972 55.2763 34.0972 54.9331C34.0972 54.59 33.819 54.3118 33.4759 54.3118C33.1327 54.3118 32.8545 54.59 32.8545 54.9331C32.8545 55.2763 33.1327 55.5545 33.4759 55.5545Z" fill="white"/>
<path d="M29.5969 51.8766C29.5969 52.1422 29.3814 52.3576 29.1158 52.3576C28.8503 52.3576 28.6348 52.1422 28.6348 51.8766C28.6348 51.611 28.8503 51.3955 29.1158 51.3955C29.3814 51.3955 29.5969 51.611 29.5969 51.8766Z" fill="white"/>
<path d="M27.2372 57.8297C27.5306 57.8297 27.7684 57.5919 27.7684 57.2985C27.7684 57.0051 27.5306 56.7673 27.2372 56.7673C26.9439 56.7673 26.7061 57.0051 26.7061 57.2985C26.7061 57.5919 26.9439 57.8297 27.2372 57.8297Z" fill="white"/>
<path d="M30.4742 53.9712C30.4742 54.2068 30.2838 54.4022 30.0433 54.4022C29.8027 54.4022 29.6123 54.2118 29.6123 53.9712C29.6123 53.7357 29.8027 53.5403 30.0433 53.5403C30.2838 53.5403 30.4742 53.7357 30.4742 53.9712Z" fill="white"/>
<path d="M27.1223 55.0987C27.4655 55.0987 27.7437 54.8205 27.7437 54.4773C27.7437 54.1342 27.4655 53.856 27.1223 53.856C26.7792 53.856 26.501 54.1342 26.501 54.4773C26.501 54.8205 26.7792 55.0987 27.1223 55.0987Z" fill="white"/>
<path d="M31.8977 52.9139C32.2409 52.9139 32.5191 52.6357 32.5191 52.2925C32.5191 51.9494 32.2409 51.6711 31.8977 51.6711C31.5546 51.6711 31.2764 51.9494 31.2764 52.2925C31.2764 52.6357 31.5546 52.9139 31.8977 52.9139Z" fill="white"/>
<path d="M32.013 57.2132C32.3562 57.2132 32.6344 56.935 32.6344 56.5918C32.6344 56.2487 32.3562 55.9705 32.013 55.9705C31.6698 55.9705 31.3916 56.2487 31.3916 56.5918C31.3916 56.935 31.6698 57.2132 32.013 57.2132Z" fill="white"/>
<path d="M29.7627 57.0079C30.2055 57.0079 30.5645 56.6489 30.5645 56.2061C30.5645 55.7633 30.2055 55.4043 29.7627 55.4043C29.3199 55.4043 28.9609 55.7633 28.9609 56.2061C28.9609 56.6489 29.3199 57.0079 29.7627 57.0079Z" fill="white"/>
<path d="M31.5874 59.3331C31.7673 59.3331 31.9132 59.1872 31.9132 59.0074C31.9132 58.8275 31.7673 58.6816 31.5874 58.6816C31.4075 58.6816 31.2617 58.8275 31.2617 59.0074C31.2617 59.1872 31.4075 59.3331 31.5874 59.3331Z" fill="white"/>
<path d="M34.4086 57.7094C34.4086 57.965 34.1982 58.1755 33.9426 58.1755C33.687 58.1755 33.4766 57.965 33.4766 57.7094C33.4766 57.4539 33.687 57.2434 33.9426 57.2434C34.1982 57.2434 34.4086 57.4539 34.4086 57.7094Z" fill="white"/>
<path d="M29.1468 59.8692C29.49 59.8692 29.7681 59.591 29.7681 59.2479C29.7681 58.9047 29.49 58.6265 29.1468 58.6265C28.8036 58.6265 28.5254 58.9047 28.5254 59.2479C28.5254 59.591 28.8036 59.8692 29.1468 59.8692Z" fill="white"/>
<path d="M30.369 63.8932C33.1669 63.8932 35.4352 61.625 35.4352 58.827C35.4352 56.029 33.1669 53.7607 30.369 53.7607C27.571 53.7607 25.3027 56.029 25.3027 58.827C25.3027 61.625 27.571 63.8932 30.369 63.8932Z" fill="#CC3C0E"/>
<path d="M30.369 64.1988C33.1669 64.1988 35.4352 61.9306 35.4352 59.1326C35.4352 56.3346 33.1669 54.0664 30.369 54.0664C27.571 54.0664 25.3027 56.3346 25.3027 59.1326C25.3027 61.9306 27.571 64.1988 30.369 64.1988Z" fill="#DB4E12"/>
<path d="M33.135 61.3826C33.4782 61.3826 33.7564 61.1044 33.7564 60.7613C33.7564 60.4181 33.4782 60.1399 33.135 60.1399C32.7919 60.1399 32.5137 60.4181 32.5137 60.7613C32.5137 61.1044 32.7919 61.3826 33.135 61.3826Z" fill="white"/>
<path d="M32.2135 56.0007C32.4792 56.0007 32.6945 55.7853 32.6945 55.5196C32.6945 55.254 32.4792 55.0386 32.2135 55.0386C31.9478 55.0386 31.7324 55.254 31.7324 55.5196C31.7324 55.7853 31.9478 56.0007 32.2135 56.0007Z" fill="white"/>
<path d="M27.0517 58.5562C27.3451 58.5562 27.5829 58.3184 27.5829 58.0251C27.5829 57.7317 27.3451 57.4939 27.0517 57.4939C26.7583 57.4939 26.5205 57.7317 26.5205 58.0251C26.5205 58.3184 26.7583 58.5562 27.0517 58.5562Z" fill="white"/>
<path d="M31.6923 57.96C31.5269 58.1253 31.2513 58.1253 31.0859 57.96C30.9206 57.7946 30.9206 57.519 31.0859 57.3536C31.2563 57.1832 31.5269 57.1832 31.6923 57.3536C31.8576 57.519 31.8576 57.7896 31.6923 57.96Z" fill="white"/>
<path d="M28.9661 56.567C29.3093 56.567 29.5875 56.2888 29.5875 55.9456C29.5875 55.6024 29.3093 55.3242 28.9661 55.3242C28.6229 55.3242 28.3447 55.6024 28.3447 55.9456C28.3447 56.2888 28.6229 56.567 28.9661 56.567Z" fill="white"/>
<path d="M33.887 58.401C34.2302 58.401 34.5084 58.1227 34.5084 57.7796C34.5084 57.4364 34.2302 57.1582 33.887 57.1582C33.5438 57.1582 33.2656 57.4364 33.2656 57.7796C33.2656 58.1227 33.5438 58.401 33.887 58.401Z" fill="white"/>
<path d="M30.9251 61.523C31.2683 61.523 31.5465 61.2448 31.5465 60.9016C31.5465 60.5585 31.2683 60.2803 30.9251 60.2803C30.5819 60.2803 30.3037 60.5585 30.3037 60.9016C30.3037 61.2448 30.5819 61.523 30.9251 61.523Z" fill="white"/>
<path d="M29.6123 59.8392C30.0551 59.8392 30.4141 59.4802 30.4141 59.0374C30.4141 58.5946 30.0551 58.2356 29.6123 58.2356C29.1695 58.2356 28.8105 58.5946 28.8105 59.0374C28.8105 59.4802 29.1695 59.8392 29.6123 59.8392Z" fill="white"/>
<path d="M28.9156 62.6353C29.0955 62.6353 29.2413 62.4895 29.2413 62.3096C29.2413 62.1297 29.0955 61.9839 28.9156 61.9839C28.7357 61.9839 28.5898 62.1297 28.5898 62.3096C28.5898 62.4895 28.7357 62.6353 28.9156 62.6353Z" fill="white"/>
<path d="M31.8328 63.3821C31.6524 63.5625 31.3567 63.5625 31.1763 63.3821C30.9959 63.2017 30.9959 62.906 31.1763 62.7256C31.3567 62.5452 31.6524 62.5452 31.8328 62.7256C32.0132 62.906 32.0132 63.2017 31.8328 63.3821Z" fill="white"/>
<path d="M27.0218 61.3675C27.3649 61.3675 27.6431 61.0893 27.6431 60.7461C27.6431 60.403 27.3649 60.1248 27.0218 60.1248C26.6786 60.1248 26.4004 60.403 26.4004 60.7461C26.4004 61.0893 26.6786 61.3675 27.0218 61.3675Z" fill="white"/>
<path d="M30.369 66.9798C33.1669 66.9798 35.4352 64.7116 35.4352 61.9136C35.4352 59.1156 33.1669 56.8474 30.369 56.8474C27.571 56.8474 25.3027 59.1156 25.3027 61.9136C25.3027 64.7116 27.571 66.9798 30.369 66.9798Z" fill="#CC3C0E"/>
<path d="M31.6919 67.115C28.9909 67.8466 26.2098 66.2481 25.4781 63.5471C24.7465 60.8461 26.3451 58.065 29.046 57.3334C31.747 56.6017 34.5282 58.2003 35.2598 60.9013C35.9914 63.6022 34.3929 66.3834 31.6919 67.115Z" fill="#DB4E12"/>
<path d="M32.1177 65.6117C31.7869 65.7019 31.4462 65.5065 31.356 65.1758C31.2658 64.845 31.4612 64.5043 31.7919 64.4141C32.1227 64.3239 32.4634 64.5193 32.5536 64.85C32.6438 65.1808 32.4484 65.5215 32.1177 65.6117Z" fill="white"/>
<path d="M33.8966 60.4703C33.641 60.5404 33.3755 60.3901 33.3053 60.1295C33.2351 59.874 33.3855 59.6084 33.6461 59.5382C33.9016 59.4681 34.1672 59.6184 34.2374 59.879C34.3025 60.1395 34.1522 60.4001 33.8966 60.4703Z" fill="white"/>
<path d="M28.1842 60.1195C27.9036 60.1947 27.6129 60.0293 27.5328 59.7487C27.4576 59.4681 27.623 59.1774 27.9086 59.0972C28.1892 59.0221 28.4798 59.1874 28.56 59.4681C28.6352 59.7537 28.4698 60.0443 28.1842 60.1195Z" fill="white"/>
<path d="M32.1029 61.8633C31.8724 61.9235 31.6369 61.7882 31.5768 61.5627C31.5167 61.3322 31.6519 61.0966 31.8774 61.0365C32.108 60.9764 32.3435 61.1117 32.4036 61.3372C32.4688 61.5627 32.3335 61.7982 32.1029 61.8633Z" fill="white"/>
<path d="M30.9048 59.3578C30.574 59.448 30.2333 59.2526 30.1431 58.9219C30.0529 58.5911 30.2483 58.2504 30.5791 58.1602C30.9098 58.07 31.2505 58.2654 31.3407 58.5961C31.4309 58.9269 31.2355 59.2676 30.9048 59.3578Z" fill="white"/>
<path d="M34.2573 63.3969C33.9266 63.4871 33.5858 63.2917 33.4956 62.9609C33.4054 62.6302 33.6009 62.2894 33.9316 62.1992C34.2623 62.109 34.6031 62.3045 34.6933 62.6352C34.7835 62.9709 34.588 63.3117 34.2573 63.3969Z" fill="white"/>
<path d="M30.1382 64.6296C29.8074 64.7198 29.4667 64.5243 29.3765 64.1936C29.2863 63.8629 29.4817 63.5221 29.8124 63.4319C30.1432 63.3417 30.4839 63.5372 30.5741 63.8679C30.6593 64.1986 30.4639 64.5394 30.1382 64.6296Z" fill="white"/>
<path d="M29.9682 62.5349C29.5422 62.6502 29.1013 62.3996 28.986 61.9687C28.8708 61.5427 29.1213 61.1018 29.5523 60.9865C29.9782 60.8712 30.4192 61.1218 30.5344 61.5527C30.6497 61.9787 30.3991 62.4197 29.9682 62.5349Z" fill="white"/>
<path d="M27.6127 64.5644C27.4373 64.6095 27.2619 64.5093 27.2168 64.3339C27.1717 64.1585 27.2719 63.9831 27.4473 63.938C27.6227 63.8929 27.7981 63.9931 27.8432 64.1685C27.8883 64.3389 27.7881 64.5193 27.6127 64.5644Z" fill="white"/>
<path d="M29.5214 66.634C29.2759 66.6991 29.0203 66.5538 28.9501 66.3083C28.885 66.0627 29.0303 65.8071 29.2758 65.737C29.5214 65.6719 29.777 65.8172 29.8471 66.0627C29.9173 66.3133 29.772 66.5688 29.5214 66.634Z" fill="white"/>
<path d="M26.8257 62.5548C26.4949 62.645 26.1542 62.4496 26.064 62.1189C25.9738 61.7881 26.1692 61.4474 26.4999 61.3572C26.8307 61.267 27.1714 61.4624 27.2616 61.7932C27.3518 62.1239 27.1564 62.4646 26.8257 62.5548Z" fill="white"/>
<path d="M30.369 70.5379C33.1669 70.5379 35.4352 68.2697 35.4352 65.4717C35.4352 62.6737 33.1669 60.4055 30.369 60.4055C27.571 60.4055 25.3027 62.6737 25.3027 65.4717C25.3027 68.2697 27.571 70.5379 30.369 70.5379Z" fill="#CC3C0E"/>
<path d="M28.8359 60.9567C31.5018 60.1098 34.3481 61.5831 35.195 64.254C36.0418 66.9199 34.5686 69.7662 31.8977 70.6131C29.2318 71.4599 26.3855 69.9867 25.5386 67.3157C24.6967 64.6498 26.17 61.8036 28.8359 60.9567Z" fill="#DB4E12"/>
<path d="M28.4749 62.4751C28.8006 62.3699 29.1514 62.5502 29.2516 62.876C29.3518 63.2017 29.1764 63.5525 28.8507 63.6527C28.525 63.7579 28.1742 63.5775 28.074 63.2518C27.9687 62.9261 28.1491 62.5803 28.4749 62.4751Z" fill="white"/>
<path d="M26.9212 67.6866C27.1717 67.6065 27.4423 67.7468 27.5225 67.9973C27.6027 68.2479 27.4623 68.5185 27.2118 68.5987C26.9612 68.6788 26.6906 68.5385 26.6105 68.288C26.5303 68.0374 26.6706 67.7668 26.9212 67.6866Z" fill="white"/>
<path d="M32.6439 67.7918C32.9245 67.7016 33.2202 67.8569 33.3104 68.1375C33.4006 68.4182 33.2452 68.7138 32.9646 68.804C32.684 68.8942 32.3883 68.7389 32.2981 68.4582C32.2079 68.1776 32.3633 67.882 32.6439 67.7918Z" fill="white"/>
<path d="M28.6556 66.2182C28.8811 66.1481 29.1216 66.2733 29.1968 66.4988C29.2719 66.7243 29.1416 66.9649 28.9161 67.04C28.6906 67.1102 28.4501 66.9849 28.3749 66.7594C28.3048 66.5339 28.4301 66.2934 28.6556 66.2182Z" fill="white"/>
<path d="M29.9631 68.6738C30.2889 68.5686 30.6396 68.749 30.7399 69.0747C30.8451 69.4004 30.6647 69.7512 30.339 69.8514C30.0133 69.9567 29.6625 69.7763 29.5622 69.4505C29.457 69.1248 29.6374 68.774 29.9631 68.6738Z" fill="white"/>
<path d="M26.4358 64.78C26.7615 64.6748 27.1123 64.8552 27.2125 65.1809C27.3177 65.5066 27.1374 65.8574 26.8116 65.9576C26.4859 66.0579 26.1351 65.8825 26.0349 65.5567C25.9297 65.231 26.1101 64.8802 26.4358 64.78Z" fill="white"/>
<path d="M30.4993 63.3721C30.825 63.2668 31.1758 63.4472 31.276 63.773C31.3812 64.0987 31.2008 64.4494 30.8751 64.5497C30.5494 64.6549 30.1986 64.4745 30.0984 64.1488C29.9931 63.8231 30.1735 63.4723 30.4993 63.3721Z" fill="white"/>
<path d="M30.7547 65.4516C31.1756 65.3163 31.6266 65.5518 31.7619 65.9727C31.8972 66.3937 31.6617 66.8447 31.2408 66.98C30.8198 67.1153 30.3688 66.8797 30.2335 66.4588C30.0982 66.0379 30.3338 65.5869 30.7547 65.4516Z" fill="white"/>
<path d="M33.0201 63.3269C33.1904 63.2718 33.3758 63.367 33.426 63.5374C33.4811 63.7078 33.3859 63.8932 33.2155 63.9433C33.0451 63.9984 32.8597 63.9032 32.8096 63.7328C32.7545 63.5625 32.8497 63.377 33.0201 63.3269Z" fill="white"/>
<path d="M31.0259 61.3426C31.2715 61.2674 31.532 61.4027 31.6072 61.6432C31.6824 61.8888 31.5471 62.1493 31.3065 62.2245C31.061 62.2997 30.8004 62.1644 30.7253 61.9238C30.6451 61.6783 30.7804 61.4177 31.0259 61.3426Z" fill="white"/>
<path d="M33.8968 65.3013C34.2225 65.196 34.5733 65.3764 34.6735 65.7021C34.7788 66.0279 34.5983 66.3786 34.2726 66.4789C33.9469 66.5841 33.5961 66.4037 33.4959 66.078C33.3957 65.7523 33.5711 65.4065 33.8968 65.3013Z" fill="white"/>
<path d="M30.369 73.6598C33.1669 73.6598 35.4352 71.3916 35.4352 68.5936C35.4352 65.7956 33.1669 63.5273 30.369 63.5273C27.571 63.5273 25.3027 65.7956 25.3027 68.5936C25.3027 71.3916 27.571 73.6598 30.369 73.6598Z" fill="#CC3C0E"/>
<path d="M33.9522 72.4871C31.9728 74.4664 28.7657 74.4664 26.7863 72.4871C24.8069 70.5077 24.8069 67.3006 26.7863 65.3212C28.7657 63.3418 31.9728 63.3418 33.9522 65.3212C35.9315 67.3006 35.9315 70.5077 33.9522 72.4871Z" fill="#DB4E12"/>
<path d="M33.135 71.1541C33.4782 71.1541 33.7564 70.8759 33.7564 70.5327C33.7564 70.1896 33.4782 69.9114 33.135 69.9114C32.7919 69.9114 32.5137 70.1896 32.5137 70.5327C32.5137 70.8759 32.7919 71.1541 33.135 71.1541Z" fill="white"/>
<path d="M32.554 65.627C32.3685 65.8124 32.0629 65.8124 31.8725 65.627C31.687 65.4415 31.687 65.1359 31.8725 64.9455C32.0579 64.76 32.3635 64.76 32.554 64.9455C32.7444 65.1359 32.7444 65.4415 32.554 65.627Z" fill="white"/>
<path d="M27.4282 68.1675C27.2228 68.3729 26.887 68.3729 26.6766 68.1675C26.4711 67.962 26.4711 67.6263 26.6766 67.4158C26.882 67.2104 27.2177 67.2104 27.4282 67.4158C27.6337 67.6263 27.6337 67.962 27.4282 68.1675Z" fill="white"/>
<path d="M31.387 67.8568C31.625 67.8568 31.818 67.6638 31.818 67.4258C31.818 67.1878 31.625 66.9949 31.387 66.9949C31.149 66.9949 30.9561 67.1878 30.9561 67.4258C30.9561 67.6638 31.149 67.8568 31.387 67.8568Z" fill="white"/>
<path d="M28.9661 66.3333C29.3093 66.3333 29.5875 66.0551 29.5875 65.7119C29.5875 65.3688 29.3093 65.0906 28.9661 65.0906C28.6229 65.0906 28.3447 65.3688 28.3447 65.7119C28.3447 66.0551 28.6229 66.3333 28.9661 66.3333Z" fill="white"/>
<path d="M33.887 68.1724C34.2302 68.1724 34.5084 67.8942 34.5084 67.5511C34.5084 67.2079 34.2302 66.9297 33.887 66.9297C33.5438 66.9297 33.2656 67.2079 33.2656 67.5511C33.2656 67.8942 33.5438 68.1724 33.887 68.1724Z" fill="white"/>
<path d="M30.9251 71.2894C31.2683 71.2894 31.5465 71.0112 31.5465 70.668C31.5465 70.3248 31.2683 70.0466 30.9251 70.0466C30.5819 70.0466 30.3037 70.3248 30.3037 70.668C30.3037 71.0112 30.5819 71.2894 30.9251 71.2894Z" fill="white"/>
<path d="M29.6123 69.6106C30.0551 69.6106 30.4141 69.2517 30.4141 68.8089C30.4141 68.366 30.0551 68.0071 29.6123 68.0071C29.1695 68.0071 28.8105 68.366 28.8105 68.8089C28.8105 69.2517 29.1695 69.6106 29.6123 69.6106Z" fill="white"/>
<path d="M28.9156 72.4019C29.0955 72.4019 29.2413 72.2561 29.2413 72.0762C29.2413 71.8963 29.0955 71.7505 28.9156 71.7505C28.7357 71.7505 28.5898 71.8963 28.5898 72.0762C28.5898 72.2561 28.7357 72.4019 28.9156 72.4019Z" fill="white"/>
<path d="M31.8328 73.1484C31.6524 73.3288 31.3567 73.3288 31.1763 73.1484C30.9959 72.968 30.9959 72.6724 31.1763 72.492C31.3567 72.3116 31.6524 72.3116 31.8328 72.492C32.0132 72.6724 32.0132 72.968 31.8328 73.1484Z" fill="white"/>
<path d="M27.0218 71.139C27.3649 71.139 27.6431 70.8608 27.6431 70.5176C27.6431 70.1744 27.3649 69.8962 27.0218 69.8962C26.6786 69.8962 26.4004 70.1744 26.4004 70.5176C26.4004 70.8608 26.6786 71.139 27.0218 71.139Z" fill="white"/>
<path d="M30.369 76.8768C33.1669 76.8768 35.4352 74.6086 35.4352 71.8106C35.4352 69.0126 33.1669 66.7444 30.369 66.7444C27.571 66.7444 25.3027 69.0126 25.3027 71.8106C25.3027 74.6086 27.571 76.8768 30.369 76.8768Z" fill="#CC3C0E"/>
<path d="M32.424 67.4911C34.9796 68.6286 36.1322 71.6203 34.9997 74.1759C33.8621 76.7316 30.8705 77.8841 28.3149 76.7516C25.7592 75.6141 24.6067 72.6225 25.7392 70.0668C26.8717 67.5112 29.8683 66.3586 32.424 67.4911Z" fill="#DB4E12"/>
<path d="M31.1458 68.393C31.4565 68.5333 31.6018 68.8991 31.4615 69.2098C31.3212 69.5205 30.9554 69.6658 30.6447 69.5255C30.334 69.3852 30.1887 69.0194 30.329 68.7087C30.4693 68.393 30.8351 68.2527 31.1458 68.393Z" fill="white"/>
<path d="M26.5259 71.2594C26.7664 71.3646 26.8767 71.6502 26.7714 71.8958C26.6662 72.1363 26.3806 72.2465 26.135 72.1413C25.8945 72.0361 25.7843 71.7504 25.8895 71.5049C25.9997 71.2644 26.2854 71.1541 26.5259 71.2594Z" fill="white"/>
<path d="M30.7404 75.133C31.006 75.2533 31.1262 75.564 31.011 75.8346C30.8907 76.1002 30.58 76.2205 30.3094 76.1052C30.0439 75.9849 29.9236 75.6742 30.0388 75.4036C30.1591 75.133 30.4748 75.0128 30.7404 75.133Z" fill="white"/>
<path d="M28.6253 72.1363C28.8633 72.1363 29.0562 71.9434 29.0562 71.7054C29.0562 71.4674 28.8633 71.2744 28.6253 71.2744C28.3873 71.2744 28.1943 71.4674 28.1943 71.7054C28.1943 71.9434 28.3873 72.1363 28.6253 72.1363Z" fill="white"/>
<path d="M28.1497 74.0105C28.4604 74.1508 28.6057 74.5166 28.4654 74.8273C28.3251 75.138 27.9593 75.2833 27.6486 75.143C27.3379 75.0027 27.1926 74.6369 27.3329 74.3262C27.4682 74.0155 27.834 73.8752 28.1497 74.0105Z" fill="white"/>
<path d="M28.0892 68.759C28.3999 68.8993 28.5452 69.2651 28.4049 69.5758C28.2646 69.8865 27.8988 70.0318 27.5881 69.8915C27.2774 69.7512 27.1321 69.3854 27.2724 69.0747C27.4127 68.759 27.7785 68.6187 28.0892 68.759Z" fill="white"/>
<path d="M32.0677 70.4025C32.3784 70.5428 32.5237 70.9087 32.3834 71.2193C32.2431 71.53 31.8773 71.6754 31.5666 71.535C31.2559 71.3947 31.1106 71.0289 31.2509 70.7182C31.3912 70.4025 31.757 70.2622 32.0677 70.4025Z" fill="white"/>
<path d="M30.8753 72.1314C31.2812 72.3118 31.4616 72.7829 31.2812 73.1888C31.1008 73.5947 30.6298 73.7751 30.2239 73.5947C29.818 73.4143 29.6376 72.9432 29.818 72.5373C29.9984 72.1364 30.4744 71.951 30.8753 72.1314Z" fill="white"/>
<path d="M33.9873 72.0412C34.1527 72.1163 34.2228 72.3067 34.1527 72.4721C34.0775 72.6375 33.8871 72.7076 33.7217 72.6375C33.5564 72.5623 33.4862 72.3719 33.5564 72.2065C33.6315 72.0412 33.822 71.966 33.9873 72.0412Z" fill="white"/>
<path d="M33.8065 69.2301C34.042 69.3353 34.1472 69.6109 34.042 69.8414C33.9368 70.0769 33.6611 70.1822 33.4306 70.0769C33.1951 69.9717 33.0899 69.6961 33.1951 69.4656C33.2953 69.2351 33.5709 69.1298 33.8065 69.2301Z" fill="white"/>
<path d="M33.3304 74.1008C33.6411 74.2411 33.7864 74.6069 33.6461 74.9176C33.5058 75.2283 33.14 75.3736 32.8293 75.2333C32.5186 75.093 32.3733 74.7272 32.5136 74.4165C32.6489 74.1008 33.0147 73.9605 33.3304 74.1008Z" fill="white"/>
<path d="M30.369 80.3746C33.1669 80.3746 35.4352 78.1064 35.4352 75.3084C35.4352 72.5104 33.1669 70.2422 30.369 70.2422C27.571 70.2422 25.3027 72.5104 25.3027 75.3084C25.3027 78.1064 27.571 80.3746 30.369 80.3746Z" fill="#CC3C0E"/>
<path d="M33.9522 79.2019C31.9728 81.1813 28.7657 81.1813 26.7863 79.2019C24.8069 77.2225 24.8069 74.0154 26.7863 72.036C28.7657 70.0567 31.9728 70.0567 33.9522 72.036C35.9315 74.0154 35.9315 77.2225 33.9522 79.2019Z" fill="#DB4E12"/>
<path d="M33.135 77.869C33.4782 77.869 33.7564 77.5908 33.7564 77.2476C33.7564 76.9044 33.4782 76.6262 33.135 76.6262C32.7919 76.6262 32.5137 76.9044 32.5137 77.2476C32.5137 77.5908 32.7919 77.869 33.135 77.869Z" fill="white"/>
<path d="M32.2135 72.4822C32.4792 72.4822 32.6945 72.2668 32.6945 72.0011C32.6945 71.7354 32.4792 71.52 32.2135 71.52C31.9478 71.52 31.7324 71.7354 31.7324 72.0011C31.7324 72.2668 31.9478 72.4822 32.2135 72.4822Z" fill="white"/>
<path d="M27.0517 75.0377C27.3451 75.0377 27.5829 74.7999 27.5829 74.5065C27.5829 74.2132 27.3451 73.9753 27.0517 73.9753C26.7583 73.9753 26.5205 74.2132 26.5205 74.5065C26.5205 74.7999 26.7583 75.0377 27.0517 75.0377Z" fill="white"/>
<path d="M31.6923 74.4413C31.5269 74.6067 31.2513 74.6067 31.0859 74.4413C30.9206 74.2759 30.9206 74.0003 31.0859 73.835C31.2563 73.6696 31.5269 73.6696 31.6923 73.835C31.8576 74.0003 31.8576 74.2759 31.6923 74.4413Z" fill="white"/>
<path d="M28.9661 73.0482C29.3093 73.0482 29.5875 72.77 29.5875 72.4268C29.5875 72.0836 29.3093 71.8054 28.9661 71.8054C28.6229 71.8054 28.3447 72.0836 28.3447 72.4268C28.3447 72.77 28.6229 73.0482 28.9661 73.0482Z" fill="white"/>
<path d="M33.887 74.8824C34.2302 74.8824 34.5084 74.6042 34.5084 74.261C34.5084 73.9178 34.2302 73.6396 33.887 73.6396C33.5438 73.6396 33.2656 73.9178 33.2656 74.261C33.2656 74.6042 33.5438 74.8824 33.887 74.8824Z" fill="white"/>
<path d="M30.9251 78.0042C31.2683 78.0042 31.5465 77.726 31.5465 77.3829C31.5465 77.0397 31.2683 76.7615 30.9251 76.7615C30.5819 76.7615 30.3037 77.0397 30.3037 77.3829C30.3037 77.726 30.5819 78.0042 30.9251 78.0042Z" fill="white"/>
<path d="M29.6123 76.3255C30.0551 76.3255 30.4141 75.9665 30.4141 75.5237C30.4141 75.0809 30.0551 74.7219 29.6123 74.7219C29.1695 74.7219 28.8105 75.0809 28.8105 75.5237C28.8105 75.9665 29.1695 76.3255 29.6123 76.3255Z" fill="white"/>
<path d="M28.9156 79.1168C29.0955 79.1168 29.2413 78.971 29.2413 78.7911C29.2413 78.6112 29.0955 78.4653 28.9156 78.4653C28.7357 78.4653 28.5898 78.6112 28.5898 78.7911C28.5898 78.971 28.7357 79.1168 28.9156 79.1168Z" fill="white"/>
<path d="M31.8328 79.8633C31.6524 80.0437 31.3567 80.0437 31.1763 79.8633C30.9959 79.6829 30.9959 79.3872 31.1763 79.2068C31.3567 79.0264 31.6524 79.0264 31.8328 79.2068C32.0132 79.3872 32.0132 79.6829 31.8328 79.8633Z" fill="white"/>
<path d="M27.0218 77.8538C27.3649 77.8538 27.6431 77.5756 27.6431 77.2325C27.6431 76.8893 27.3649 76.6111 27.0218 76.6111C26.6786 76.6111 26.4004 76.8893 26.4004 77.2325C26.4004 77.5756 26.6786 77.8538 27.0218 77.8538Z" fill="white"/>
<path d="M40.6063 60.4906C43.4043 60.4906 45.6725 58.2224 45.6725 55.4244C45.6725 52.6264 43.4043 50.3582 40.6063 50.3582C37.8083 50.3582 35.54 52.6264 35.54 55.4244C35.54 58.2224 37.8083 60.4906 40.6063 60.4906Z" fill="#CC3C0E"/>
<path d="M44.3499 59.1471C46.2302 57.0751 46.0748 53.8713 44.0029 51.991C41.931 50.1108 38.7271 50.2662 36.8469 52.3381C34.9666 54.41 35.122 57.6138 37.1939 59.4941C39.2658 61.3743 42.4697 61.219 44.3499 59.1471Z" fill="#DB4E12"/>
<path d="M41.5728 59.4232C41.2321 59.4382 40.9414 59.1726 40.9264 58.8319C40.9114 58.4911 41.177 58.2005 41.5177 58.1854C41.8585 58.1704 42.1491 58.436 42.1641 58.7767C42.1842 59.1225 41.9186 59.4081 41.5728 59.4232Z" fill="white"/>
<path d="M44.4292 54.7979C44.1636 54.808 43.9381 54.6025 43.9281 54.3369C43.9181 54.0713 44.1235 53.8458 44.3891 53.8358C44.6547 53.8258 44.8802 54.0312 44.8902 54.2968C44.9002 54.5624 44.6948 54.7829 44.4292 54.7979Z" fill="white"/>
<path d="M38.9318 53.2094C38.6412 53.2244 38.3906 52.9939 38.3806 52.7033C38.3655 52.4126 38.5961 52.1621 38.8867 52.1521C39.1773 52.137 39.4279 52.3675 39.4379 52.6582C39.4529 52.9488 39.2275 53.1944 38.9318 53.2094Z" fill="white"/>
<path d="M42.3751 55.7651C42.1396 55.7752 41.9391 55.5897 41.9291 55.3542C41.9191 55.1187 42.1045 54.9183 42.34 54.9032C42.5755 54.8932 42.776 55.0786 42.786 55.3141C42.796 55.5547 42.6156 55.7551 42.3751 55.7651Z" fill="white"/>
<path d="M41.7535 53.0591C41.4127 53.0742 41.1221 52.8086 41.1071 52.4678C41.092 52.1271 41.3576 51.8364 41.6984 51.8214C42.0391 51.8064 42.3298 52.072 42.3448 52.4127C42.3598 52.7535 42.0942 53.0441 41.7535 53.0591Z" fill="white"/>
<path d="M44.1441 57.7344C43.8034 57.7495 43.5127 57.4839 43.4977 57.1431C43.4826 56.8024 43.7482 56.5117 44.089 56.4967C44.4298 56.4817 44.7204 56.7473 44.7354 57.088C44.7505 57.4288 44.4899 57.7194 44.1441 57.7344Z" fill="white"/>
<path d="M39.8551 58.0352C39.5143 58.0503 39.2236 57.7847 39.2086 57.4439C39.1936 57.1032 39.4592 56.8125 39.7999 56.7975C40.1407 56.7824 40.4313 57.048 40.4464 57.3888C40.4614 57.7295 40.1958 58.0202 39.8551 58.0352Z" fill="white"/>
<path d="M40.1502 55.9555C39.7092 55.9755 39.3334 55.6297 39.3133 55.1888C39.2933 54.7478 39.6391 54.3719 40.08 54.3519C40.521 54.3319 40.8968 54.6776 40.9169 55.1186C40.9369 55.5646 40.5912 55.9354 40.1502 55.9555Z" fill="white"/>
<path d="M37.4086 57.4237C37.2282 57.4337 37.0779 57.2934 37.0679 57.113C37.0579 56.9326 37.1982 56.7823 37.3786 56.7722C37.559 56.7622 37.7093 56.9025 37.7193 57.0829C37.7243 57.2633 37.589 57.4187 37.4086 57.4237Z" fill="white"/>
<path d="M38.8175 59.8592C38.5619 59.8692 38.3465 59.6738 38.3314 59.4132C38.3214 59.1576 38.5168 58.9422 38.7774 58.9271C39.033 58.9171 39.2485 59.1125 39.2635 59.3731C39.2735 59.6287 39.0781 59.8492 38.8175 59.8592Z" fill="white"/>
<path d="M37.0787 55.2891C36.7379 55.3042 36.4473 55.0386 36.4322 54.6978C36.4172 54.3571 36.6828 54.0664 37.0236 54.0514C37.3643 54.0364 37.655 54.302 37.67 54.6427C37.685 54.9835 37.4194 55.2741 37.0787 55.2891Z" fill="white"/>
<path d="M40.6063 63.8929C43.4043 63.8929 45.6725 61.6247 45.6725 58.8267C45.6725 56.0287 43.4043 53.7605 40.6063 53.7605C37.8083 53.7605 35.54 56.0287 35.54 58.8267C35.54 61.6247 37.8083 63.8929 40.6063 63.8929Z" fill="#CC3C0E"/>
<path d="M42.3785 63.8781C45.0005 62.9013 46.3342 59.9839 45.3575 57.3619C44.3807 54.7399 41.4633 53.4062 38.8413 54.383C36.2193 55.3598 34.8856 58.2772 35.8624 60.8992C36.8391 63.5211 39.7565 64.8549 42.3785 63.8781Z" fill="#DB4E12"/>
<path d="M43.9031 57.2232C44.0083 57.5489 43.8279 57.8997 43.5022 58.0049C43.1765 58.1102 42.8257 57.9298 42.7205 57.6041C42.6152 57.2783 42.7956 56.9276 43.1213 56.8223C43.4521 56.7221 43.7978 56.8975 43.9031 57.2232Z" fill="white"/>
<path d="M38.6871 55.6999C38.7673 55.9505 38.632 56.2211 38.3764 56.3063C38.1259 56.3864 37.8553 56.2511 37.7701 55.9956C37.6899 55.745 37.8252 55.4744 38.0808 55.3892C38.3313 55.3091 38.6019 55.4444 38.6871 55.6999Z" fill="white"/>
<path d="M38.612 61.4175C38.7022 61.6981 38.5469 61.9937 38.2713 62.0839C37.9906 62.1741 37.695 62.0188 37.6048 61.7432C37.5146 61.4626 37.6699 61.1669 37.9455 61.0767C38.2211 60.9865 38.5218 61.1419 38.612 61.4175Z" fill="white"/>
<path d="M40.1599 57.4237C40.2351 57.6492 40.1098 57.8897 39.8843 57.9649C39.6588 58.0401 39.4183 57.9148 39.3431 57.6893C39.268 57.4638 39.3932 57.2232 39.6187 57.1481C39.8442 57.0729 40.0898 57.1982 40.1599 57.4237Z" fill="white"/>
<path d="M37.7146 58.7417C37.8198 59.0674 37.6394 59.4182 37.3137 59.5234C36.988 59.6287 36.6372 59.4483 36.532 59.1225C36.4267 58.7968 36.6071 58.446 36.9329 58.3408C37.2636 58.2356 37.6094 58.416 37.7146 58.7417Z" fill="white"/>
<path d="M41.5935 55.1939C41.6987 55.5196 41.5183 55.8704 41.1926 55.9756C40.8669 56.0808 40.5161 55.9004 40.4109 55.5747C40.3056 55.249 40.4861 54.8982 40.8118 54.793C41.1375 54.6877 41.4883 54.8681 41.5935 55.1939Z" fill="white"/>
<path d="M43.0212 59.2527C43.1265 59.5784 42.9461 59.9292 42.6203 60.0344C42.2946 60.1396 41.9438 59.9592 41.8386 59.6335C41.7334 59.3078 41.9138 58.957 42.2395 58.8518C42.5652 58.7466 42.916 58.927 43.0212 59.2527Z" fill="white"/>
<path d="M40.9363 59.5182C41.0716 59.9392 40.841 60.3902 40.4201 60.5305C39.9992 60.6658 39.5482 60.4353 39.4079 60.0144C39.2726 59.5934 39.5031 59.1424 39.924 59.0021C40.3499 58.8668 40.801 59.0973 40.9363 59.5182Z" fill="white"/>
<path d="M43.0814 61.7732C43.1365 61.9436 43.0413 62.129 42.8709 62.1841C42.7005 62.2393 42.5151 62.1441 42.46 61.9737C42.4049 61.8033 42.5001 61.6179 42.6705 61.5628C42.8408 61.5077 43.0262 61.6029 43.0814 61.7732Z" fill="white"/>
<path d="M45.0507 59.7688C45.1309 60.0144 44.9956 60.275 44.75 60.3551C44.5045 60.4353 44.2439 60.3 44.1637 60.0545C44.0836 59.8089 44.2189 59.5484 44.4644 59.4682C44.7099 59.388 44.9755 59.5233 45.0507 59.7688Z" fill="white"/>
<path d="M41.1072 62.6551C41.2124 62.9809 41.032 63.3316 40.7063 63.4369C40.3806 63.5421 40.0298 63.3617 39.9246 63.036C39.8193 62.7103 39.9997 62.3595 40.3254 62.2543C40.6512 62.154 41.0019 62.3344 41.1072 62.6551Z" fill="white"/>
<path d="M40.6063 66.9798C43.4043 66.9798 45.6725 64.7116 45.6725 61.9136C45.6725 59.1156 43.4043 56.8474 40.6063 56.8474C37.8083 56.8474 35.54 59.1156 35.54 61.9136C35.54 64.7116 37.8083 66.9798 40.6063 66.9798Z" fill="#CC3C0E"/>
<path d="M45.665 62.3691C45.7391 59.5722 43.5319 57.2448 40.735 57.1707C37.9382 57.0965 35.6107 59.3037 35.5366 62.1006C35.4625 64.8975 37.6697 67.2249 40.4665 67.299C43.2634 67.3732 45.5908 65.166 45.665 62.3691Z" fill="#DB4E12"/>
<path d="M37.4589 60.0745C37.7094 59.839 38.1003 59.849 38.3358 60.0996C38.5713 60.3501 38.5613 60.741 38.3107 60.9765C38.0602 61.212 37.6693 61.202 37.4338 60.9515C37.2033 60.7009 37.2133 60.3101 37.4589 60.0745Z" fill="white"/>
<path d="M38.3357 65.4414C38.5261 65.261 38.8318 65.266 39.0172 65.4614C39.1976 65.6518 39.1926 65.9575 38.9972 66.1429C38.8067 66.3233 38.501 66.3183 38.3156 66.1229C38.1352 65.9275 38.1403 65.6218 38.3357 65.4414Z" fill="white"/>
<path d="M43.5276 63.041C43.7381 62.8406 44.0738 62.8506 44.2793 63.0611C44.4797 63.2715 44.4697 63.6073 44.2592 63.8127C44.0488 64.0132 43.713 64.0031 43.5076 63.7927C43.3071 63.5772 43.3171 63.2414 43.5276 63.041Z" fill="white"/>
<path d="M39.2527 63.3669C39.4231 63.2015 39.6987 63.2115 39.8591 63.3819C40.0245 63.5523 40.0144 63.8279 39.8441 63.9882C39.6737 64.1536 39.3981 64.1436 39.2377 63.9732C39.0723 63.7978 39.0824 63.5272 39.2527 63.3669Z" fill="white"/>
<path d="M41.4978 65.0006C41.7483 64.765 42.1392 64.7751 42.3747 65.0256C42.6102 65.2762 42.6002 65.667 42.3497 65.9026C42.0991 66.1381 41.7082 66.128 41.4727 65.8775C41.2372 65.6269 41.2472 65.2361 41.4978 65.0006Z" fill="white"/>
<path d="M36.6267 63.0362C36.8772 62.8007 37.2681 62.8107 37.5036 63.0613C37.7391 63.3118 37.7291 63.7027 37.4786 63.9382C37.228 64.1737 36.8372 64.1637 36.6016 63.9131C36.3661 63.6626 36.3761 63.2717 36.6267 63.0362Z" fill="white"/>
<path d="M39.6688 59.9945C39.9194 59.7589 40.3103 59.7689 40.5458 60.0195C40.7813 60.2701 40.7713 60.6609 40.5207 60.8964C40.2702 61.132 39.8793 61.1219 39.6438 60.8714C39.4133 60.6208 39.4233 60.23 39.6688 59.9945Z" fill="white"/>
<path d="M40.8118 61.7583C41.1325 61.4526 41.6436 61.4676 41.9443 61.7883C42.2499 62.109 42.2349 62.6202 41.9142 62.9208C41.5935 63.2265 41.0824 63.2115 40.7817 62.8908C40.476 62.5701 40.491 62.0639 40.8118 61.7583Z" fill="white"/>
<path d="M41.9193 58.8568C42.0496 58.7315 42.255 58.7365 42.3803 58.8668C42.5056 58.9971 42.5006 59.2025 42.3703 59.3278C42.24 59.4531 42.0345 59.4481 41.9093 59.3178C41.784 59.1825 41.789 58.977 41.9193 58.8568Z" fill="white"/>
<path d="M39.2579 57.9398C39.4433 57.7644 39.7389 57.7694 39.9143 57.9599C40.0897 58.1453 40.0847 58.4409 39.8943 58.6163C39.7038 58.7917 39.4132 58.7867 39.2378 58.5963C39.0674 58.4109 39.0725 58.1152 39.2579 57.9398Z" fill="white"/>
<path d="M43.5673 60.2549C43.8178 60.0194 44.2087 60.0295 44.4442 60.28C44.6797 60.5306 44.6697 60.9214 44.4191 61.1569C44.1686 61.3925 43.7777 61.3824 43.5422 61.1319C43.3117 60.8813 43.3217 60.4905 43.5673 60.2549Z" fill="white"/>
<path d="M40.6063 70.5379C43.4043 70.5379 45.6725 68.2697 45.6725 65.4717C45.6725 62.6737 43.4043 60.4055 40.6063 60.4055C37.8083 60.4055 35.54 62.6737 35.54 65.4717C35.54 68.2697 37.8083 70.5379 40.6063 70.5379Z" fill="#CC3C0E"/>
<path d="M44.5715 68.935C46.3166 66.7478 45.9582 63.5601 43.7711 61.815C41.5839 60.0699 38.3961 60.4282 36.651 62.6154C34.9059 64.8026 35.2643 67.9904 37.4515 69.7355C39.6387 71.4806 42.8264 71.1222 44.5715 68.935Z" fill="#DB4E12"/>
<path d="M43.4972 68.2678C43.2266 68.4733 42.8357 68.4182 42.6303 68.1476C42.4248 67.877 42.4799 67.4861 42.7505 67.2807C43.0211 67.0752 43.412 67.1303 43.6175 67.4009C43.8229 67.6765 43.7678 68.0624 43.4972 68.2678Z" fill="white"/>
<path d="M43.2215 62.8409C43.011 63.0012 42.7104 62.9612 42.55 62.7457C42.3897 62.5352 42.4298 62.2346 42.6452 62.0742C42.8557 61.9138 43.1564 61.9539 43.3167 62.1694C43.4721 62.3749 43.432 62.6805 43.2215 62.8409Z" fill="white"/>
<path d="M37.7945 64.6498C37.559 64.8252 37.2283 64.7801 37.0529 64.5445C36.8775 64.309 36.9226 63.9783 37.1581 63.8029C37.3936 63.6275 37.7244 63.6726 37.8998 63.9081C38.0752 64.1386 38.025 64.4744 37.7945 64.6498Z" fill="white"/>
<path d="M42.0794 64.8001C41.889 64.9454 41.6184 64.9053 41.4781 64.7149C41.3378 64.5245 41.3729 64.2539 41.5633 64.1135C41.7537 63.9682 42.0243 64.0083 42.1646 64.1987C42.3049 64.3891 42.2648 64.6547 42.0794 64.8001Z" fill="white"/>
<path d="M40.0294 62.9261C39.7588 63.1315 39.368 63.0764 39.1625 62.8058C38.957 62.5352 39.0122 62.1443 39.2828 61.9389C39.5534 61.7334 39.9442 61.7885 40.1497 62.0591C40.3551 62.3297 40.3 62.7206 40.0294 62.9261Z" fill="white"/>
<path d="M44.6554 65.4165C44.3848 65.622 43.9939 65.5669 43.7885 65.2963C43.583 65.0257 43.6381 64.6348 43.9087 64.4293C44.1793 64.2239 44.5702 64.279 44.7757 64.5496C44.9811 64.8252 44.926 65.2111 44.6554 65.4165Z" fill="white"/>
<path d="M41.2921 68.1026C41.0215 68.308 40.6306 68.2529 40.4252 67.9823C40.2197 67.7117 40.2749 67.3208 40.5455 67.1154C40.8161 66.9099 41.2069 66.9651 41.4124 67.2356C41.6178 67.5062 41.5627 67.8971 41.2921 68.1026Z" fill="white"/>
<path d="M40.3559 66.2234C40.0001 66.489 39.499 66.4188 39.2334 66.0681C38.9678 65.7123 39.038 65.2112 39.3888 64.9456C39.7446 64.68 40.2457 64.7501 40.5112 65.1009C40.7768 65.4517 40.7067 65.9578 40.3559 66.2234Z" fill="white"/>
<path d="M38.9279 68.9845C38.7825 69.0947 38.5821 69.0646 38.4718 68.9193C38.3616 68.774 38.3917 68.5735 38.537 68.4633C38.6823 68.3531 38.8828 68.3831 38.993 68.5284C39.0982 68.6738 39.0732 68.8792 38.9279 68.9845Z" fill="white"/>
<path d="M41.4726 70.1922C41.2671 70.3475 40.9765 70.3075 40.8212 70.102C40.6658 69.8965 40.7059 69.6059 40.9113 69.4505C41.1168 69.2952 41.4075 69.3353 41.5628 69.5407C41.7181 69.7412 41.6781 70.0368 41.4726 70.1922Z" fill="white"/>
<path d="M37.4445 67.416C37.1739 67.6215 36.783 67.5664 36.5775 67.2958C36.3721 67.0252 36.4272 66.6343 36.6978 66.4289C36.9684 66.2234 37.3593 66.2785 37.5647 66.5491C37.7702 66.8197 37.7201 67.2106 37.4445 67.416Z" fill="white"/>
<path d="M40.6063 73.6598C43.4043 73.6598 45.6725 71.3916 45.6725 68.5936C45.6725 65.7956 43.4043 63.5273 40.6063 63.5273C37.8083 63.5273 35.54 65.7956 35.54 68.5936C35.54 71.3916 37.8083 73.6598 40.6063 73.6598Z" fill="#CC3C0E"/>
<path d="M41.4388 73.9003C38.6777 74.3563 36.0719 72.4921 35.6109 69.731C35.1499 66.9699 37.019 64.3641 39.7801 63.9031C42.5412 63.4421 45.147 65.3112 45.608 68.0724C46.069 70.8335 44.1999 73.4442 41.4388 73.9003Z" fill="#DB4E12"/>
<path d="M42.0099 72.4471C41.6741 72.5022 41.3534 72.2767 41.2983 71.9359C41.2432 71.6002 41.4687 71.2795 41.8094 71.2243C42.1452 71.1692 42.4659 71.3947 42.521 71.7355C42.5762 72.0712 42.3506 72.3919 42.0099 72.4471Z" fill="white"/>
<path d="M44.2906 67.5111C44.03 67.5562 43.7794 67.3758 43.7393 67.1153C43.6942 66.8547 43.8746 66.6041 44.1352 66.564C44.3958 66.5189 44.6463 66.6994 44.6864 66.9599C44.7315 67.2205 44.5511 67.4661 44.2906 67.5111Z" fill="white"/>
<path d="M38.6426 66.594C38.352 66.6441 38.0814 66.4487 38.0313 66.158C37.9812 65.8674 38.1766 65.5968 38.4673 65.5467C38.7579 65.4965 39.0285 65.692 39.0786 65.9826C39.1287 66.2733 38.9333 66.5439 38.6426 66.594Z" fill="white"/>
<path d="M42.3655 68.7189C42.13 68.759 41.9095 68.5986 41.8694 68.3631C41.8293 68.1276 41.9897 67.9071 42.2252 67.867C42.4607 67.8269 42.6812 67.9873 42.7213 68.2228C42.7614 68.4583 42.6011 68.6788 42.3655 68.7189Z" fill="white"/>
<path d="M41.424 66.1031C41.0882 66.1582 40.7675 65.9327 40.7124 65.5919C40.6573 65.2562 40.8828 64.9355 41.2235 64.8804C41.5593 64.8252 41.88 65.0507 41.9351 65.3915C41.9902 65.7272 41.7597 66.0479 41.424 66.1031Z" fill="white"/>
<path d="M44.3605 70.4576C44.0247 70.5127 43.704 70.2872 43.6489 69.9464C43.5938 69.6057 43.8193 69.29 44.16 69.2348C44.4958 69.1797 44.8165 69.4052 44.8716 69.746C44.9267 70.0867 44.6962 70.4024 44.3605 70.4576Z" fill="white"/>
<path d="M40.1359 71.2744C39.8001 71.3296 39.4794 71.1041 39.4243 70.7633C39.3692 70.4276 39.5947 70.1069 39.9354 70.0517C40.2712 69.9966 40.5919 70.2221 40.647 70.5629C40.7021 70.8986 40.4716 71.2193 40.1359 71.2744Z" fill="white"/>
<path d="M40.1805 69.1747C39.7446 69.2449 39.3286 68.9543 39.2585 68.5133C39.1883 68.0773 39.479 67.6614 39.9199 67.5912C40.3559 67.5211 40.7718 67.8117 40.842 68.2527C40.9121 68.6887 40.6165 69.1046 40.1805 69.1747Z" fill="white"/>
<path d="M37.6353 70.9637C37.4599 70.9937 37.2896 70.8735 37.2595 70.6981C37.2294 70.5227 37.3497 70.3523 37.5251 70.3222C37.7005 70.2922 37.8708 70.4124 37.9009 70.5878C37.931 70.7632 37.8107 70.9336 37.6353 70.9637Z" fill="white"/>
<path d="M39.3291 73.2088C39.0736 73.2488 38.8381 73.0785 38.793 72.8279C38.7529 72.5723 38.9232 72.3368 39.1738 72.2917C39.4294 72.2516 39.6649 72.422 39.71 72.6726C39.7501 72.9281 39.5797 73.1687 39.3291 73.2088Z" fill="white"/>
<path d="M37.049 68.8792C36.7132 68.9343 36.3925 68.7088 36.3374 68.368C36.2823 68.0323 36.5078 67.7116 36.8485 67.6565C37.1843 67.6014 37.505 67.8268 37.5601 68.1676C37.6152 68.5084 37.3847 68.8241 37.049 68.8792Z" fill="white"/>
<path d="M40.6063 76.8768C43.4043 76.8768 45.6725 74.6086 45.6725 71.8106C45.6725 69.0126 43.4043 66.7444 40.6063 66.7444C37.8083 66.7444 35.54 69.0126 35.54 71.8106C35.54 74.6086 37.8083 76.8768 40.6063 76.8768Z" fill="#CC3C0E"/>
<path d="M43.157 76.5011C40.7417 77.9092 37.6398 77.0924 36.2317 74.677C34.8236 72.2617 35.6404 69.1598 38.0557 67.7517C40.4711 66.3436 43.5729 67.1604 44.9811 69.5757C46.3942 71.9911 45.5774 75.0879 43.157 76.5011Z" fill="#DB4E12"/>
<path d="M43.1769 74.9376C42.8813 75.108 42.5004 75.0077 42.33 74.7121C42.1597 74.4164 42.2599 74.0356 42.5555 73.8652C42.8512 73.6948 43.232 73.795 43.4024 74.0907C43.5728 74.3864 43.4726 74.7622 43.1769 74.9376Z" fill="white"/>
<path d="M43.5524 69.5105C43.3219 69.6458 43.0313 69.5656 42.896 69.3351C42.7607 69.1046 42.8408 68.814 43.0713 68.6787C43.3019 68.5434 43.5925 68.6236 43.7278 68.8541C43.8631 69.0846 43.7829 69.3752 43.5524 69.5105Z" fill="white"/>
<path d="M37.9508 70.6581C37.7003 70.8034 37.3746 70.7182 37.2242 70.4677C37.0789 70.2171 37.1641 69.8914 37.4146 69.7411C37.6652 69.5957 37.9909 69.6809 38.1412 69.9315C38.2866 70.187 38.2014 70.5128 37.9508 70.6581Z" fill="white"/>
<path d="M42.1842 71.3195C41.9787 71.4398 41.7182 71.3696 41.5979 71.1642C41.4776 70.9587 41.5478 70.6981 41.7532 70.5779C41.9587 70.4576 42.2193 70.5278 42.3395 70.7332C42.4598 70.9387 42.3896 71.2043 42.1842 71.3195Z" fill="white"/>
<path d="M40.3761 69.2149C40.0805 69.3853 39.6996 69.2851 39.5293 68.9894C39.3589 68.6938 39.4591 68.3129 39.7548 68.1425C40.0504 67.9722 40.4312 68.0724 40.6016 68.368C40.772 68.6637 40.6718 69.0445 40.3761 69.2149Z" fill="white"/>
<path d="M44.6652 72.2415C44.3695 72.4119 43.9887 72.3117 43.8183 72.016C43.6479 71.7204 43.7482 71.3395 44.0438 71.1691C44.3395 70.9988 44.7203 71.099 44.8907 71.3947C45.0611 71.6903 44.9609 72.0712 44.6652 72.2415Z" fill="white"/>
<path d="M41.007 74.5067C40.7113 74.677 40.3305 74.5768 40.1601 74.2812C39.9897 73.9855 40.09 73.6047 40.3856 73.4343C40.6813 73.2639 41.0621 73.3641 41.2325 73.6598C41.4029 73.9554 41.3026 74.3313 41.007 74.5067Z" fill="white"/>
<path d="M40.2998 72.5273C39.919 72.7528 39.4279 72.6225 39.2024 72.2366C38.9769 71.8558 39.1072 71.3647 39.4931 71.1392C39.8739 70.9137 40.365 71.044 40.5905 71.4298C40.816 71.8157 40.6857 72.3068 40.2998 72.5273Z" fill="white"/>
<path d="M38.5571 75.103C38.4018 75.1932 38.2013 75.1431 38.1111 74.9878C38.0209 74.8324 38.0711 74.632 38.2264 74.5418C38.3817 74.4516 38.5822 74.5017 38.6724 74.6571C38.7676 74.8124 38.7125 75.0128 38.5571 75.103Z" fill="white"/>
<path d="M40.9368 76.6011C40.7163 76.7314 40.4306 76.6563 40.3004 76.4358C40.1701 76.2153 40.2452 75.9297 40.4657 75.7994C40.6862 75.6691 40.9718 75.7443 41.1021 75.9647C41.2324 76.1852 41.1573 76.4709 40.9368 76.6011Z" fill="white"/>
<path d="M37.2736 73.3641C36.9779 73.5345 36.5971 73.4342 36.4267 73.1386C36.2563 72.8429 36.3566 72.4621 36.6522 72.2917C36.9479 72.1213 37.3287 72.2215 37.4991 72.5172C37.6695 72.8129 37.5693 73.1887 37.2736 73.3641Z" fill="white"/>
<path d="M40.6063 80.3746C43.4043 80.3746 45.6725 78.1064 45.6725 75.3084C45.6725 72.5104 43.4043 70.2422 40.6063 70.2422C37.8083 70.2422 35.54 72.5104 35.54 75.3084C35.54 78.1064 37.8083 80.3746 40.6063 80.3746Z" fill="#CC3C0E"/>
<path d="M40.5613 70.5529C43.3575 70.5279 45.6476 72.7728 45.6726 75.569C45.6977 78.3652 43.4527 80.6553 40.6565 80.6803C37.8604 80.7054 35.5703 78.4604 35.5452 75.6642C35.5152 72.8681 37.7601 70.578 40.5613 70.5529Z" fill="#DB4E12"/>
<path d="M39.7696 71.9009C40.1104 71.8959 40.391 72.1715 40.396 72.5123C40.401 72.8531 40.1254 73.1337 39.7847 73.1387C39.4439 73.1437 39.1633 72.8681 39.1583 72.5273C39.1533 72.1866 39.4239 71.906 39.7696 71.9009Z" fill="white"/>
<path d="M36.7534 76.426C37.019 76.426 37.2345 76.6365 37.2395 76.9021C37.2395 77.1677 37.029 77.3831 36.7634 77.3881C36.4978 77.3881 36.2824 77.1777 36.2773 76.9121C36.2773 76.6465 36.4878 76.431 36.7534 76.426Z" fill="white"/>
<path d="M42.1902 78.2049C42.4809 78.1999 42.7214 78.4354 42.7264 78.7311C42.7314 79.0217 42.4959 79.2623 42.2003 79.2673C41.9046 79.2723 41.6691 79.0368 41.6641 78.7411C41.6641 78.4505 41.8996 78.2099 42.1902 78.2049Z" fill="white"/>
<path d="M38.843 75.5339C39.0786 75.5339 39.274 75.7243 39.279 75.9599C39.279 76.1954 39.0886 76.3908 38.8531 76.3958C38.6175 76.3958 38.4221 76.2054 38.4171 75.9699C38.4121 75.7344 38.6025 75.5339 38.843 75.5339Z" fill="white"/>
<path d="M39.3683 78.2601C39.709 78.2551 39.9896 78.5307 39.9946 78.8714C39.9997 79.2122 39.724 79.4928 39.3833 79.4978C39.0425 79.5028 38.7619 79.2272 38.7569 78.8865C38.7519 78.5407 39.0275 78.2651 39.3683 78.2601Z" fill="white"/>
<path d="M37.1388 73.5045C37.4795 73.4995 37.7601 73.7751 37.7652 74.1158C37.7702 74.4566 37.4946 74.7372 37.1538 74.7422C36.813 74.7472 36.5324 74.4716 36.5274 74.1308C36.5224 73.7851 36.798 73.5045 37.1388 73.5045Z" fill="white"/>
<path d="M41.4386 73.3492C41.7793 73.3442 42.0599 73.6198 42.065 73.9605C42.07 74.3013 41.7944 74.5819 41.4536 74.5869C41.1128 74.5919 40.8322 74.3163 40.8272 73.9756C40.8222 73.6348 41.0978 73.3542 41.4386 73.3492Z" fill="white"/>
<path d="M41.0722 75.4188C41.5131 75.4137 41.8789 75.7695 41.8839 76.2155C41.889 76.6565 41.5332 77.0223 41.0872 77.0273C40.6462 77.0323 40.2804 76.6765 40.2754 76.2305C40.2754 75.7846 40.6312 75.4238 41.0722 75.4188Z" fill="white"/>
<path d="M43.8638 74.0457C44.0442 74.0457 44.1895 74.186 44.1895 74.3664C44.1895 74.5468 44.0492 74.6921 43.8688 74.6921C43.6884 74.6921 43.5431 74.5518 43.5431 74.3714C43.5381 74.196 43.6834 74.0507 43.8638 74.0457Z" fill="white"/>
<path d="M42.5412 71.5652C42.7967 71.5652 43.0072 71.7706 43.0122 72.0262C43.0122 72.2818 42.8068 72.4922 42.5512 72.4973C42.2956 72.4973 42.0852 72.2918 42.0802 72.0362C42.0752 71.7757 42.2806 71.5652 42.5412 71.5652Z" fill="white"/>
<path d="M44.1192 76.1954C44.46 76.1904 44.7406 76.466 44.7456 76.8067C44.7506 77.1475 44.475 77.4281 44.1343 77.4331C43.7935 77.4381 43.5129 77.1625 43.5079 76.8218C43.5029 76.476 43.7785 76.1954 44.1192 76.1954Z" fill="white"/>
<path d="M46.6247 62.6504H24.2051V68.4783H46.6247V62.6504Z" fill="#99C446"/>
<path d="M77.744 110.661L80.42 110.566C83.7574 110.446 86.4132 107.625 86.323 104.292L84.474 35.0993C84.3838 31.7669 81.5825 29.1411 78.2452 29.2563L75.5692 29.3516C72.2319 29.4718 69.576 32.2931 69.6612 35.6254L69.7464 38.8626L69.7814 40.2457L69.8867 44.0842L69.9217 45.4672L70.027 49.3007L70.0621 50.6838L70.1623 54.5222L70.1973 55.9053L70.2976 59.7438L70.3327 61.1269L70.4379 64.9654L70.473 66.3484L70.5782 70.1819L70.6133 71.57L70.7135 75.4035L70.7486 76.7865L70.8488 80.625L70.8839 82.0081L70.9891 85.8466L71.0242 87.2296L71.1294 91.0631L71.1645 92.4512L71.2647 96.2847L71.2998 97.6677L71.4 101.506L71.4351 102.889L71.4852 104.809C71.6055 108.151 74.4067 110.777 77.744 110.661Z" fill="#F4D75F"/>
<path d="M71.4648 102.904L79.252 102.628C79.6328 102.613 79.9385 102.293 79.9285 101.912C79.9285 101.857 79.9185 101.807 79.9084 101.756C79.8283 101.451 79.5426 101.23 79.2169 101.245L71.4297 101.521L71.4648 102.904Z" fill="white"/>
<path d="M71.3241 97.6826L79.1114 97.407C79.4922 97.392 79.7979 97.0712 79.7879 96.6904C79.7879 96.6353 79.7778 96.5852 79.7678 96.5351C79.6876 96.2294 79.407 96.0089 79.0763 96.0239L71.2891 96.2995L71.3241 97.6826Z" fill="white"/>
<path d="M71.1845 92.4609L78.9717 92.1853C79.3526 92.1703 79.6582 91.8495 79.6482 91.4687C79.6482 91.4136 79.6382 91.3635 79.6282 91.3134C79.548 91.0077 79.2674 90.7872 78.9366 90.8022L71.1494 91.0778L71.1845 92.4609Z" fill="white"/>
<path d="M71.0439 87.2395L78.8311 86.9639C79.212 86.9488 79.5176 86.6281 79.5076 86.2473C79.5076 86.1921 79.4976 86.142 79.4876 86.0919C79.4074 85.7863 79.1268 85.5658 78.796 85.5808L71.0088 85.8564L71.0439 87.2395Z" fill="white"/>
<path d="M70.9042 82.0178L78.6915 81.7422C79.0723 81.7272 79.378 81.4064 79.368 81.0256C79.368 80.9705 79.3579 80.9204 79.3479 80.8703C79.2677 80.5646 78.9871 80.3441 78.6564 80.3591L70.8691 80.6347L70.9042 82.0178Z" fill="white"/>
<path d="M70.7685 76.7964L78.5557 76.5208C78.9366 76.5057 79.2422 76.185 79.2322 75.8042C79.2322 75.749 79.2222 75.6989 79.2122 75.6488C79.132 75.3431 78.8464 75.1227 78.5206 75.1377L70.7334 75.4133L70.7685 76.7964Z" fill="white"/>
<path d="M70.6279 71.5747L78.4151 71.2991C78.7959 71.284 79.1016 70.9633 79.0916 70.5825C79.0916 70.5274 79.0816 70.4773 79.0715 70.4271C78.9914 70.1215 78.7107 69.901 78.38 69.916L70.5928 70.1916L70.6279 71.5747Z" fill="white"/>
<path d="M70.4882 66.3531L78.2754 66.0725C78.6563 66.0575 78.962 65.7368 78.9519 65.3559C78.9519 65.3008 78.9419 65.2507 78.9319 65.2006C78.8517 64.8949 78.5711 64.6744 78.2404 64.6894L70.4531 64.9651L70.4882 66.3531Z" fill="white"/>
<path d="M70.3476 61.1316L78.1348 60.856C78.5156 60.8409 78.8213 60.5202 78.8113 60.1394C78.8113 60.0843 78.8013 60.0341 78.7913 59.984C78.7111 59.6784 78.4305 59.4579 78.0997 59.4729L70.3125 59.7485L70.3476 61.1316Z" fill="white"/>
<path d="M70.207 55.9101L77.9942 55.6345C78.375 55.6195 78.6807 55.2988 78.6707 54.9179C78.6707 54.8628 78.6607 54.8127 78.6506 54.7626C78.5705 54.4569 78.2898 54.2364 77.9591 54.2515L70.1719 54.5271L70.207 55.9101Z" fill="white"/>
<path d="M70.0663 50.6884L77.8536 50.4128C78.2344 50.3978 78.5401 50.0771 78.5301 49.6963C78.5301 49.6411 78.52 49.591 78.51 49.5409C78.4298 49.2352 78.1492 49.0147 77.8185 49.0298L70.0312 49.3054L70.0663 50.6884Z" fill="white"/>
<path d="M69.9267 45.472L77.7139 45.1914C78.0947 45.1764 78.4004 44.8557 78.3904 44.4748C78.3904 44.4197 78.3804 44.3696 78.3704 44.3195C78.2902 44.0138 78.0096 43.7933 77.6788 43.8083L69.8916 44.0839L69.9267 45.472Z" fill="white"/>
<path d="M69.7861 40.2505L77.5733 39.9748C77.9541 39.9598 78.2598 39.6391 78.2498 39.2583C78.2498 39.2031 78.2398 39.153 78.2297 39.1029C78.1496 38.7972 77.8689 38.5768 77.5382 38.5918L69.751 38.8724L69.7861 40.2505Z" fill="white"/>
<path d="M75.083 110.14C75.8948 110.501 76.8018 110.691 77.7489 110.656L80.4248 110.561C83.7622 110.441 86.4181 107.62 86.3279 104.287L84.4788 35.0941C84.3886 31.7618 81.5874 29.136 78.25 29.2512L78.1097 29.2562C79.0468 30.2785 80.8808 32.774 80.9861 36.7378C81.0612 39.5139 82.3892 86.994 82.8151 101.511C82.9454 106.041 79.4527 109.825 75.083 110.14Z" fill="#EAAC29"/>
<path d="M69.9023 69.3099L70.2982 68.8689L71.2754 70.1217L72.2074 68.8188L73.1846 70.0716L74.1117 68.7687L75.0888 70.0215L76.0209 68.7186L76.998 69.9713L77.9251 68.6685L78.9023 69.9212L79.8343 68.6183L80.8115 69.8711L81.7436 68.5682L82.7207 69.821L83.6478 68.5181L84.6249 69.7709L85.557 68.468L86.0481 69.0994L86.1182 71.64V71.6851L86.1834 74.0604L86.9851 102.984C87.0753 106.242 84.1789 109.008 80.5409 109.133L77.6295 109.233C73.9964 109.359 70.9497 106.798 70.8595 103.546L70.8093 101.672L70.7693 100.319L70.664 96.5702L70.6239 95.2172L70.5237 91.4689L70.4836 90.1159L70.3784 86.3676L70.3433 85.0146L70.2381 81.2663L70.198 79.9133L70.0928 76.165L70.0577 74.8121L70.0527 74.5866L69.9775 71.9207L69.9525 71.0638L69.9424 70.6729L69.9023 69.3099Z" fill="white"/>
<path d="M69.8311 70.4475L70.2319 70.0015L71.2191 71.2643L72.1612 69.9464L73.1484 71.2092L74.0855 69.8913L75.0727 71.1541L76.0147 69.8362L77.0019 71.099L77.939 69.781L78.9262 71.0438L79.8683 69.7259L80.8555 70.9887L81.7975 69.6708L82.7847 70.9336L83.7218 69.6157L84.709 70.8785L85.6511 69.5605L86.1472 70.1969L86.2173 72.7676V72.8178L86.2825 75.2181L87.0943 104.458C87.1895 107.75 84.258 110.546 80.5798 110.672L77.6333 110.772C73.9602 110.897 70.8784 108.311 70.7882 105.024L70.7381 103.13L70.698 101.762L70.5927 97.9734L70.5527 96.6054L70.4524 92.817L70.4123 91.449L70.3071 87.6606L70.272 86.2926L70.1668 82.5042L70.1267 81.1362L70.0215 77.3478L69.9864 75.9798L69.9814 75.7543L69.9062 73.0583L69.8812 72.1914L69.8711 71.7955L69.8311 70.4475Z" fill="#DF69AC"/>
<path d="M86.3328 72.3316C83.7872 80.2391 77.8089 85.8866 71.1943 87.5153C70.3524 87.7207 69.5005 87.866 68.6487 87.9362C67.6013 88.0264 66.544 88.0164 65.4917 87.8911C64.9956 87.8309 64.4995 87.7508 64.0034 87.6455C63.6175 87.5603 63.2317 87.4601 62.8458 87.3499C62.7456 87.3198 62.6504 87.2897 62.5552 87.2597C62.1944 87.1444 61.8386 87.0141 61.4878 86.8738C61.3325 86.8137 61.1821 86.7485 61.0318 86.6784C60.4154 86.4078 59.8241 86.0921 59.2529 85.7463C58.9572 85.5659 58.6716 85.3805 58.396 85.1801C57.7345 84.7141 57.1131 84.2029 56.5318 83.6417C51.2451 78.5755 49.1856 69.8211 51.9367 61.2672C54.7679 52.4627 61.8536 46.4644 69.3402 45.6877C70.1319 45.6075 70.9287 45.5824 71.7255 45.6175C71.956 45.6275 72.1865 45.6476 72.422 45.6676C73.1787 45.7378 73.9303 45.8631 74.677 46.0485C74.9225 46.1086 75.1731 46.1788 75.4186 46.2489C75.5189 46.279 75.6141 46.3091 75.7143 46.3391C76.0751 46.4544 76.4309 46.5847 76.7817 46.725C76.8268 46.745 76.8769 46.7651 76.922 46.7801C77.383 46.9705 77.829 47.186 78.2649 47.4165C78.9966 47.8074 79.6931 48.2584 80.3546 48.7595C81.1914 49.3959 81.9581 50.1125 82.6597 50.9042C87.2548 56.0757 88.9185 64.2888 86.3328 72.3316Z" fill="#487F41"/>
<path d="M67.0898 75.4537C66.9495 76.6112 66.8042 77.8039 66.0876 80.0188C65.376 82.2337 64.7998 83.291 64.2385 84.3082C63.7875 85.1351 63.3516 85.9268 62.8404 87.345C62.7402 87.3149 62.645 87.2848 62.5498 87.2548C62.189 87.1395 61.8332 87.0092 61.4824 86.8689C62.0387 85.3355 62.5147 84.4636 62.9757 83.6217C63.5269 82.6145 64.0481 81.6624 64.7146 79.5778C65.3861 77.4932 65.5163 76.4158 65.6567 75.2783C65.797 74.1257 65.9423 72.9281 66.6589 70.7132C67.3704 68.4983 67.9467 67.4409 68.508 66.4237C69.0592 65.4164 69.5803 64.4643 70.2468 62.3797C70.9183 60.2951 71.0486 59.2177 71.1889 58.0802C71.3292 56.9276 71.4795 55.73 72.1911 53.5151C72.9027 51.3002 73.479 50.2429 74.0402 49.2256C74.4862 48.4088 74.9121 47.6271 75.4183 46.249C75.5185 46.2791 75.6137 46.3092 75.7139 46.3392C76.0747 46.4545 76.4305 46.5848 76.7813 46.7251C76.2351 48.2234 75.764 49.0803 75.308 49.9171C74.7568 50.9244 74.2407 51.8765 73.5692 53.9611C72.8977 56.0457 72.7674 57.1231 72.6271 58.2606C72.4868 59.4182 72.3414 60.6108 71.6249 62.8257C70.9133 65.0406 70.337 66.0979 69.7758 67.1152C69.2245 68.1224 68.7084 69.0745 68.0369 71.1591C67.3604 73.2438 67.2301 74.3161 67.0898 75.4537Z" fill="#99C446"/>
<path d="M76.22 72.7425C75.769 73.8098 75.0273 74.6818 74.3107 75.5287C73.7896 76.14 73.2985 76.7213 72.9427 77.3427C72.5368 78.0492 72.2462 78.861 71.9655 79.6478C71.6148 80.6299 71.254 81.6422 70.6577 82.489C69.931 83.5163 68.9789 84.278 68.1371 84.9545C67.5408 85.4306 66.9745 85.8866 66.5786 86.3576C66.0274 87.0191 65.7067 87.5001 65.4912 87.896C64.9951 87.8359 64.499 87.7557 64.0029 87.6505C64.2535 87.1143 64.6393 86.4378 65.4762 85.4356C65.9623 84.8543 66.5836 84.3582 67.2351 83.832C68.0368 83.1856 68.8687 82.5191 69.48 81.6572C69.9661 80.9757 70.2768 80.0988 70.6075 79.1667C70.9082 78.3198 71.2189 77.4429 71.6899 76.6261C72.1109 75.8945 72.6671 75.238 73.2083 74.6016C73.8848 73.7998 74.5262 73.0482 74.897 72.1812C75.2779 71.2893 75.3681 70.267 75.4633 69.1846C75.5334 68.4029 75.6086 67.5961 75.794 66.8194C75.9844 66.0276 76.3502 65.316 76.696 64.6295C77.0568 63.923 77.3926 63.2615 77.4878 62.6151C77.598 61.8734 77.4527 61.0967 77.3024 60.2749C77.1721 59.5633 77.0368 58.8267 77.0769 58.0951C77.127 57.2382 77.3675 56.4464 77.598 55.6797C77.8185 54.9481 78.024 54.2566 78.0089 53.6502C77.9839 52.7933 77.6782 51.9765 77.3825 51.1848C77.137 50.5283 76.9015 49.9069 76.8313 49.2705C76.686 48.0027 76.7862 47.3062 76.9115 46.78C77.3725 46.9705 77.8185 47.1859 78.2545 47.4164C78.1893 47.8023 78.1693 48.2984 78.2645 49.1052C78.3196 49.5662 78.5201 50.1074 78.7355 50.6837C79.0562 51.5406 79.422 52.5177 79.4521 53.6151C79.4772 54.452 79.2266 55.2889 78.9811 56.1007C78.7756 56.7872 78.5601 57.4937 78.5201 58.1803C78.49 58.7365 78.6002 59.3579 78.7255 60.0193C78.8909 60.9163 79.0613 61.8484 78.9159 62.8255C78.7857 63.7075 78.3797 64.5093 77.9789 65.286C77.6531 65.9274 77.3425 66.5337 77.1921 67.1601C77.0268 67.8316 76.9616 68.5532 76.8965 69.3149C76.7962 70.4574 76.691 71.6451 76.22 72.7425Z" fill="#99C446"/>
<path d="M82.5644 73.1535C82.1434 73.7448 81.7476 74.3061 81.4168 74.8874C81.061 75.5238 80.7804 76.2203 80.4847 76.9569C80.0137 78.1295 79.5226 79.3472 78.6908 80.3545C77.884 81.3416 76.8467 82.0432 75.8445 82.7247C75.1479 83.2007 74.4865 83.6468 73.9503 84.1629C73.2588 84.8244 72.6725 85.5961 72.1062 86.3427C71.8005 86.7486 71.4999 87.1445 71.1892 87.5103C70.3473 87.7158 69.4954 87.8611 68.6436 87.9312C68.7789 87.831 68.9242 87.7208 69.0845 87.5955C69.741 87.0793 70.3323 86.2976 70.9637 85.4708C71.565 84.679 72.1864 83.8572 72.9631 83.1156C73.5895 82.5192 74.3261 82.0181 75.0427 81.5321C75.9597 80.9057 76.9068 80.2643 77.5833 79.4374C78.2749 78.5956 78.7008 77.5332 79.1568 76.4107C79.4575 75.6641 79.7682 74.8924 80.1691 74.1808C80.5349 73.5243 80.9708 72.908 81.3968 72.3117C82.1384 71.2643 82.84 70.2772 83.1056 69.1847C83.316 68.3228 83.1957 67.3908 83.0705 66.4086C82.9803 65.7171 82.8901 65.0055 82.9201 64.2989C82.9552 63.5172 83.1156 62.7555 83.2759 62.0189C83.4764 61.0968 83.6618 60.2199 83.5616 59.4332C83.4463 58.5512 83.0153 57.6943 82.5994 56.8675C82.2737 56.216 81.938 55.5446 81.7425 54.848C81.492 53.9611 81.4168 53.049 81.3467 52.2422C81.2765 51.3853 81.2064 50.5735 80.9508 49.9672C80.7253 49.426 80.5299 49.0452 80.3495 48.7495C81.1863 49.3859 81.953 50.1025 82.6546 50.8943C82.7097 51.2901 82.7448 51.696 82.7798 52.117C82.845 52.8937 82.9151 53.7005 83.1256 54.4572C83.2809 55.0184 83.5766 55.5997 83.8823 56.216C84.3533 57.1531 84.8394 58.1203 84.9847 59.2478C85.12 60.28 84.8945 61.3173 84.679 62.3195C84.5237 63.0261 84.3834 63.6926 84.3533 64.3541C84.3283 64.9353 84.4084 65.5567 84.4936 66.2182C84.6289 67.2906 84.7742 68.398 84.4986 69.5205C84.1679 70.8935 83.3561 72.0461 82.5644 73.1535Z" fill="#99C446"/>
<path d="M67.1456 54.6727C66.8048 55.2088 66.6295 55.9254 66.444 56.6821C66.2586 57.4388 66.0632 58.2255 65.6824 58.9621C65.3416 59.6186 64.8505 60.1899 64.3745 60.7411C63.8333 61.3675 63.3171 61.9638 63.0415 62.6453C62.6857 63.5222 62.6256 64.5395 62.5655 65.6119C62.5204 66.4086 62.4703 67.2354 62.2899 68.0372C62.0994 68.8891 61.7687 69.6959 61.448 70.4826C61.0571 71.4398 60.6863 72.3418 60.5961 73.2438C60.5009 74.2059 60.6913 75.2181 60.8767 76.2003C61.0321 77.0221 61.1924 77.874 61.1874 78.7058C61.1824 79.7582 60.992 80.7353 60.8066 81.6824C60.6262 82.5894 60.4608 83.4463 60.5159 84.1729C60.6212 85.561 60.8066 86.1674 61.0371 86.6685C60.4207 86.3979 59.8294 86.0822 59.2581 85.7364C59.183 85.3405 59.1228 84.8645 59.0777 84.2782C59.0126 83.3611 59.198 82.409 59.3934 81.4068C59.5638 80.5249 59.7442 79.6128 59.7492 78.7008C59.7543 78.0043 59.6139 77.2576 59.4636 76.4659C59.2582 75.3835 59.0527 74.266 59.168 73.0984C59.2782 71.991 59.7041 70.9437 60.1201 69.9314C60.4307 69.1697 60.7264 68.4532 60.8918 67.7215C61.0421 67.035 61.0872 66.3034 61.1323 65.5267C61.1974 64.3841 61.2676 63.2015 61.7136 62.1041C62.0794 61.1971 62.6958 60.4855 63.2921 59.799C63.733 59.2879 64.154 58.8068 64.4146 58.3007C64.7152 57.7144 64.8806 57.0429 65.056 56.3363C65.2614 55.4995 65.4769 54.6376 65.9429 53.9009C66.4841 53.044 67.2659 52.4127 67.9524 51.8564C68.4635 51.4455 68.9446 51.0546 69.2653 50.6337C69.7263 50.0274 70.042 49.3158 70.3477 48.6293C70.6884 47.8576 71.0142 47.126 71.5303 46.5597C71.8761 46.1839 72.1717 45.8932 72.4373 45.6677C73.194 45.7379 73.9456 45.8632 74.6923 46.0486C74.6221 46.0786 74.552 46.1037 74.4818 46.1287C73.9607 46.3242 73.5548 46.4795 72.5927 47.5319C72.2319 47.9277 71.9563 48.5541 71.6606 49.2206C71.3399 49.9472 70.9741 50.769 70.4078 51.5107C69.9819 52.0719 69.4056 52.5379 68.8544 52.9839C68.213 53.49 67.5615 54.0162 67.1456 54.6727Z" fill="#99C446"/>
<path d="M58.0048 83.5314C58.1952 84.1929 58.3205 84.7291 58.3907 85.1801C57.7292 84.7141 57.1078 84.2029 56.5265 83.6417C56.3311 83.0804 56.0354 82.4891 55.7298 81.8677C55.2086 80.8204 54.6223 79.6278 54.3718 78.2999C54.1513 77.1473 54.2565 75.9396 54.3567 74.772C54.4269 73.9252 54.5071 73.0482 54.4519 72.2264C54.4018 71.4848 54.2465 70.7331 54.0811 69.9363C53.8256 68.7086 53.555 67.4358 53.7053 66.148C53.8707 64.6847 54.5271 63.3969 55.1635 62.1491C55.4642 61.5528 55.7548 60.9915 55.9853 60.4253C56.2259 59.829 56.3712 59.1825 56.5265 58.501C56.757 57.4738 57.0026 56.4164 57.5889 55.5144C58.2103 54.5673 59.0872 53.9109 59.9391 53.2845C60.4903 52.8786 61.0065 52.4927 61.4073 52.0618C61.8884 51.5456 62.2893 50.9142 62.6801 50.3029C63.2113 49.4711 63.7626 48.6091 64.5343 47.9928C65.4713 47.2411 66.5587 46.8502 67.5159 46.5045C68.1372 46.284 68.7185 46.0735 69.1645 45.7979C69.2246 45.7629 69.2798 45.7228 69.3349 45.6877C70.1266 45.6075 70.9234 45.5824 71.7202 45.6175C71.3543 45.9984 70.8382 46.4594 69.9112 47.0206C69.3399 47.3714 68.6884 47.6069 68.0019 47.8525C67.1049 48.1732 66.1829 48.5089 65.4312 49.1103C64.845 49.5813 64.3789 50.3029 63.8878 51.0746C63.4619 51.7411 63.0209 52.4276 62.4547 53.0389C61.9636 53.5651 61.3672 54.0111 60.791 54.437C60.0092 55.0183 59.2676 55.5696 58.7865 56.3012C58.3406 56.9827 58.1351 57.8746 57.9246 58.8167C57.7643 59.5233 57.5989 60.2599 57.3133 60.9615C57.0577 61.5879 56.747 62.2042 56.4414 62.8006C55.835 63.9882 55.2637 65.1057 55.1284 66.3083C55.0082 67.3606 55.2387 68.4681 55.4842 69.6357C55.6546 70.4475 55.83 71.2843 55.8851 72.1262C55.9452 73.0582 55.8651 73.9903 55.7899 74.8923C55.6947 76.0148 55.6045 77.0721 55.7849 78.0293C56.0004 79.1618 56.5215 80.2141 57.0226 81.2263C57.4135 82.0181 57.7793 82.7647 58.0048 83.5314Z" fill="#99C446"/>
<path d="M53.0037 46.0386H49.7415C49.7415 45.6026 49.7314 45.1667 49.7314 44.7407C49.7314 42.8415 49.7314 40.9373 49.7314 39.0381L52.9786 39.1032C52.9836 39.1032 52.9837 40.1455 52.9837 40.2057C52.9937 42.0548 52.9987 43.8988 53.0037 45.7429C53.0037 45.8431 53.0037 45.9384 53.0037 46.0386Z" fill="#DB4E12"/>
<path d="M58.3855 57.2585V88.2872H44.5098V57.5842C44.5098 54.9735 45.5972 52.6884 47.2158 51.4507H47.1707C48.0827 50.8744 48.9897 49.9824 49.4106 48.7497C49.7013 47.8978 49.7514 46.9657 49.7514 46.0437H53.0136C53.0437 47.4268 53.2691 48.9351 53.9958 49.9874C54.4969 50.714 55.1884 51.0698 55.8398 51.5158C56.1706 51.7463 56.4913 51.9969 56.7669 52.3376C57.7892 53.6054 58.3855 55.4094 58.3855 57.2585Z" fill="#3B6897"/>
<path d="M57.0772 58.6213H46.0127V79.9836H57.0772V58.6213Z" fill="white"/>
<path d="M55.6591 60.2249H47.4209V78.38H55.6591V60.2249Z" fill="#99C446"/>
<path d="M51.8409 66.2334C51.896 66.3837 51.5853 66.6242 51.6154 66.7696C51.6454 66.9299 52.0163 67.0502 52.0163 67.1905C52.0163 67.3609 51.6454 67.4561 51.6003 67.5814C51.5402 67.7517 51.6755 68.0975 51.5402 68.1476C51.4099 68.1927 51.2947 67.8419 51.1393 67.7467C51.0241 67.6766 50.6783 67.8369 50.5681 67.7016C50.4779 67.5914 50.6933 67.2657 50.6182 67.1203C50.548 66.9901 50.1622 66.9951 50.107 66.8447C50.0519 66.6944 50.3626 66.4539 50.3325 66.3085C50.3025 66.1482 49.9316 66.0279 49.9316 65.8876C49.9316 65.7172 50.3025 65.622 50.3476 65.4968C50.4077 65.3264 50.2724 64.9806 50.4077 64.9305C50.538 64.8854 50.6532 65.2362 50.8086 65.3314C50.9238 65.4015 51.2696 65.2412 51.3799 65.3765C51.4701 65.4867 51.2546 65.8124 51.3297 65.9578C51.3999 66.0881 51.7908 66.0831 51.8409 66.2334Z" fill="#F4D75F"/>
<path d="M53.1282 67.5663C53.033 67.6465 52.7724 67.4862 52.6772 67.5463C52.567 67.6114 52.577 67.9171 52.4768 67.9522C52.3515 67.9973 52.1811 67.7518 52.0759 67.7518C51.9356 67.7568 51.7151 67.9422 51.6499 67.862C51.5798 67.7768 51.8103 67.5964 51.8354 67.4611C51.8554 67.3609 51.6449 67.1454 51.7151 67.0302C51.7702 66.9349 52.0659 67.0051 52.1511 66.9099C52.2262 66.8247 52.121 66.5391 52.2162 66.4639C52.3114 66.3837 52.572 66.5441 52.6672 66.484C52.7774 66.4188 52.7674 66.1131 52.8676 66.078C52.9929 66.0329 53.1633 66.2785 53.2685 66.2785C53.4088 66.2735 53.6293 66.0881 53.6945 66.1683C53.7646 66.2534 53.5341 66.4338 53.5091 66.5691C53.489 66.6694 53.6995 66.8848 53.6293 67.0001C53.5742 67.0953 53.2785 67.0251 53.1934 67.1204C53.1182 67.2055 53.2234 67.4862 53.1282 67.5663Z" fill="#F4D75F"/>
<path d="M50.8235 68.7541C50.8235 69.3053 50.3775 69.7513 49.8263 69.7513C49.2751 69.7513 48.8291 69.3053 48.8291 68.7541C48.8291 68.2028 49.2751 67.7568 49.8263 67.7568C50.3775 67.7568 50.8235 68.2078 50.8235 68.7541Z" fill="#080044"/>
<path d="M49.8266 69.8063C49.2503 69.8063 48.7793 69.3353 48.7793 68.759C48.7793 68.1827 49.2503 67.7117 49.8266 67.7117C50.4029 67.7117 50.8739 68.1827 50.8739 68.759C50.8739 69.3353 50.4029 69.8063 49.8266 69.8063ZM49.8266 67.8119C49.3055 67.8119 48.8795 68.2378 48.8795 68.759C48.8795 69.2801 49.3055 69.7061 49.8266 69.7061C50.3478 69.7061 50.7737 69.2801 50.7737 68.759C50.7687 68.2378 50.3478 67.8119 49.8266 67.8119Z" fill="#99C446"/>
<path d="M52.6331 68.7541C52.6331 69.3053 52.1871 69.7513 51.6359 69.7513C51.0847 69.7513 50.6387 69.3053 50.6387 68.7541C50.6387 68.2028 51.0847 67.7568 51.6359 67.7568C52.1871 67.7568 52.6331 68.2078 52.6331 68.7541Z" fill="#080044"/>
<path d="M51.6401 69.8063C51.0638 69.8063 50.5928 69.3353 50.5928 68.759C50.5928 68.1827 51.0638 67.7117 51.6401 67.7117C52.2164 67.7117 52.6874 68.1827 52.6874 68.759C52.6874 69.3353 52.2164 69.8063 51.6401 69.8063ZM51.6401 67.8119C51.1189 67.8119 50.693 68.2378 50.693 68.759C50.693 69.2801 51.1189 69.7061 51.6401 69.7061C52.1612 69.7061 52.5872 69.2801 52.5872 68.759C52.5822 68.2378 52.1562 67.8119 51.6401 67.8119Z" fill="#99C446"/>
<path d="M54.5013 68.7541C54.5013 69.3053 54.0553 69.7513 53.504 69.7513C52.9528 69.7513 52.5068 69.3053 52.5068 68.7541C52.5068 68.2028 52.9528 67.7568 53.504 67.7568C54.0553 67.7568 54.5013 68.2078 54.5013 68.7541Z" fill="#080044"/>
<path d="M53.5043 69.8063C52.9281 69.8063 52.457 69.3353 52.457 68.759C52.457 68.1827 52.9281 67.7117 53.5043 67.7117C54.0806 67.7117 54.5517 68.1827 54.5517 68.759C54.5517 69.3353 54.0806 69.8063 53.5043 69.8063ZM53.5043 67.8119C52.9832 67.8119 52.5573 68.2378 52.5573 68.759C52.5573 69.2801 52.9832 69.7061 53.5043 69.7061C54.0255 69.7061 54.4515 69.2801 54.4515 68.759C54.4464 68.2378 54.0255 67.8119 53.5043 67.8119Z" fill="#99C446"/>
<path d="M51.7307 70.102C51.7307 70.6532 51.2848 71.0992 50.7335 71.0992C50.1823 71.0992 49.7363 70.6532 49.7363 70.102C49.7363 69.5507 50.1823 69.1047 50.7335 69.1047C51.2848 69.1047 51.7307 69.5507 51.7307 70.102Z" fill="#080044"/>
<path d="M50.7338 71.1493C50.1576 71.1493 49.6865 70.6783 49.6865 70.102C49.6865 69.5257 50.1576 69.0547 50.7338 69.0547C51.3101 69.0547 51.7812 69.5257 51.7812 70.102C51.7812 70.6783 51.3151 71.1493 50.7338 71.1493ZM50.7338 69.1549C50.2127 69.1549 49.7868 69.5809 49.7868 70.102C49.7868 70.6232 50.2127 71.0491 50.7338 71.0491C51.255 71.0491 51.6809 70.6232 51.6809 70.102C51.6809 69.5809 51.255 69.1549 50.7338 69.1549Z" fill="#99C446"/>
<path d="M53.594 70.102C53.594 70.6532 53.148 71.0992 52.5968 71.0992C52.0456 71.0992 51.5996 70.6532 51.5996 70.102C51.5996 69.5507 52.0456 69.1047 52.5968 69.1047C53.148 69.1047 53.594 69.5507 53.594 70.102Z" fill="#080044"/>
<path d="M52.5971 71.1493C52.0208 71.1493 51.5498 70.6783 51.5498 70.102C51.5498 69.5257 52.0208 69.0547 52.5971 69.0547C53.1734 69.0547 53.6444 69.5257 53.6444 70.102C53.6494 70.6783 53.1784 71.1493 52.5971 71.1493ZM52.5971 69.1549C52.076 69.1549 51.65 69.5809 51.65 70.102C51.65 70.6232 52.076 71.0491 52.5971 71.0491C53.1183 71.0491 53.5442 70.6232 53.5442 70.102C53.5442 69.5809 53.1183 69.1549 52.5971 69.1549Z" fill="#99C446"/>
<path d="M52.7425 71.4349C52.7425 71.9862 52.2965 72.4322 51.7453 72.4322C51.194 72.4322 50.748 71.9862 50.748 71.4349C50.748 70.8837 51.194 70.4377 51.7453 70.4377C52.2965 70.4377 52.7425 70.8887 52.7425 71.4349Z" fill="#080044"/>
<path d="M51.7456 72.4872C51.1693 72.4872 50.6982 72.0162 50.6982 71.4399C50.6982 70.8636 51.1693 70.3926 51.7456 70.3926C52.3218 70.3926 52.7929 70.8636 52.7929 71.4399C52.7929 72.0162 52.3218 72.4872 51.7456 72.4872ZM51.7456 70.4928C51.2244 70.4928 50.7985 70.9187 50.7985 71.4399C50.7985 71.961 51.2244 72.387 51.7456 72.387C52.2667 72.387 52.6927 71.961 52.6927 71.4399C52.6877 70.9187 52.2667 70.4928 51.7456 70.4928Z" fill="#99C446"/>
<path d="M74.1609 63.0261C74.0256 63.001 73.8953 62.9659 73.7601 62.9309C72.2818 62.53 71.039 61.6981 70.132 60.6057C67.3909 66.0027 65.5318 73.9402 68.308 84.6439L74.1609 63.0261Z" fill="#2C4D7F"/>
<path d="M68.3078 84.6591C68.3078 84.6591 78.7559 76.5312 79.0515 62.3147C77.5983 63.1014 75.8795 63.3921 74.1557 63.0263L68.3027 84.6491C68.3077 84.6491 68.3078 84.6541 68.3078 84.6591Z" fill="#E381C8"/>
<path d="M68.3879 84.574C68.3879 84.574 63.6073 84.4437 61.3623 90.2064C61.3673 90.2064 66.6139 90.016 68.3879 84.574Z" fill="white"/>
<path d="M71.55 92.9674C71.55 92.9674 67.3557 90.6674 68.3278 84.5588C68.3278 84.5588 72.7677 87.3701 71.55 92.9674Z" fill="white"/>
<path d="M73.7599 62.9311C75.609 63.4322 77.4881 63.1616 79.0516 62.3147C79.1167 59.1227 78.6757 55.6249 77.4831 51.8415C77.4631 51.7814 77.448 51.7213 77.428 51.6611C77.428 51.6611 77.3478 51.7163 77.1975 51.8315C76.2754 52.523 72.7877 55.3794 70.1318 60.6109C71.0388 61.6984 72.2816 62.5302 73.7599 62.9311Z" fill="white"/>
<path d="M75.5438 59.3029C75.7442 58.5613 75.4736 57.9199 75.4686 57.9098C75.4385 57.8397 75.3533 57.8046 75.2832 57.8397C75.213 57.8698 75.178 57.9549 75.213 58.0251C75.2381 58.0802 75.7392 59.2829 74.6117 60.22C74.5516 60.2701 74.5415 60.3603 74.5917 60.4154C74.6418 60.4755 74.732 60.4855 74.7871 60.4354C75.223 60.0746 75.4435 59.6737 75.5438 59.3029Z" fill="#2C4D7F"/>
<path d="M76.5659 54.9483C76.6411 54.9683 76.7163 54.9232 76.7363 54.8481V54.8431L77.4829 51.8364C77.4629 51.7763 77.4479 51.7161 77.4278 51.656C77.4278 51.656 77.3476 51.7111 77.1973 51.8264L76.4657 54.7779C76.4457 54.8531 76.4908 54.9283 76.5659 54.9483Z" fill="#2C4D7F"/>
<path d="M74.7871 68.5935C74.7871 68.5935 76.8066 74.5868 76.4458 75.584C76.0799 76.5812 72.7275 75.6742 72.7275 75.6742L74.7871 68.5935Z" fill="white"/>
<path d="M55.9353 102.604L53.3847 103.415C50.2026 104.428 46.75 102.664 45.7127 99.4968L24.155 33.7212C23.1177 30.5542 24.8716 27.1367 28.0536 26.1244L30.6043 25.3126C33.7863 24.3004 37.2389 26.0643 38.2762 29.2313L39.2834 32.3081L39.7144 33.626L40.9071 37.2741L41.338 38.592L42.5306 42.2401L42.9616 43.558L44.1592 47.2061L44.5902 48.524L45.7878 52.172L46.2188 53.49L47.4114 57.138L47.8424 58.456L49.035 62.104L49.466 63.422L50.6636 67.07L51.0946 68.3879L52.2922 72.036L52.7232 73.3539L53.9158 77.002L54.3468 78.3199L55.5394 81.968L55.9704 83.2859L57.168 86.934L57.599 88.2519L58.7966 91.9L59.2276 93.2179L59.8239 95.0419C60.8712 98.1739 59.1173 101.591 55.9353 102.604Z" fill="#F4D75F"/>
<path d="M59.2321 93.1878L51.8057 95.548C51.4399 95.6633 51.049 95.4628 50.9288 95.097C50.9137 95.0469 50.9037 94.9968 50.8987 94.9467C50.8736 94.636 51.064 94.3303 51.3747 94.2301L58.8012 91.8699L59.2321 93.1878Z" fill="white"/>
<path d="M57.6081 88.2217L50.1817 90.5819C49.8159 90.6972 49.425 90.4968 49.3047 90.136C49.2897 90.0858 49.2797 90.0357 49.2747 89.9806C49.2496 89.6699 49.44 89.3642 49.7507 89.264L57.1772 86.9038L57.6081 88.2217Z" fill="white"/>
<path d="M55.9792 83.2608L48.5528 85.621C48.187 85.7363 47.7961 85.5358 47.6758 85.175C47.6608 85.1249 47.6508 85.0748 47.6458 85.0197C47.6207 84.709 47.8111 84.4033 48.1218 84.3031L55.5483 81.9429L55.9792 83.2608Z" fill="white"/>
<path d="M54.3562 78.2948L46.9297 80.6551C46.5639 80.7703 46.173 80.5699 46.0528 80.2041C46.0377 80.154 46.0277 80.1038 46.0227 80.0487C45.9977 79.738 46.1881 79.4324 46.4988 79.3321L53.9252 76.9719L54.3562 78.2948Z" fill="white"/>
<path d="M52.7273 73.3337L45.3008 75.6939C44.935 75.8091 44.5441 75.6087 44.4239 75.2429C44.4088 75.1928 44.3988 75.1427 44.3938 75.0875C44.3688 74.7769 44.5592 74.4712 44.8699 74.371L52.2963 72.0107L52.7273 73.3337Z" fill="white"/>
<path d="M51.0983 68.3678L43.6719 70.7281C43.3061 70.8433 42.9152 70.6429 42.795 70.2821C42.7799 70.232 42.7699 70.1819 42.7649 70.1317C42.7398 69.816 42.9303 69.5154 43.241 69.4152L50.6674 67.0549L51.0983 68.3678Z" fill="white"/>
<path d="M49.4753 63.4068L42.0489 65.767C41.683 65.8823 41.2922 65.6818 41.1719 65.321C41.1569 65.2709 41.1469 65.2208 41.1419 65.1657C41.1168 64.855 41.3072 64.5493 41.6179 64.4491L49.0443 62.0889L49.4753 63.4068Z" fill="white"/>
<path d="M47.8464 58.4407L40.42 60.8009C40.0541 60.9162 39.6633 60.7158 39.543 60.355C39.528 60.3049 39.518 60.2547 39.5129 60.1996C39.4879 59.8889 39.6783 59.5833 39.989 59.483L47.4154 57.1228L47.8464 58.4407Z" fill="white"/>
<path d="M46.2175 53.4799L38.791 55.8401C38.4252 55.9554 38.0344 55.755 37.9141 55.3891C37.8991 55.339 37.8891 55.2889 37.884 55.2338C37.859 54.9231 38.0494 54.6174 38.3601 54.5172L45.7865 52.157L46.2175 53.4799Z" fill="white"/>
<path d="M44.5944 48.5138L37.168 50.8741C36.8022 50.9893 36.4113 50.7889 36.2911 50.4231C36.276 50.373 36.266 50.3228 36.261 50.2677C36.2359 49.957 36.4264 49.6514 36.7371 49.5511L44.1635 47.1909L44.5944 48.5138Z" fill="white"/>
<path d="M42.9655 43.5528L35.5391 45.913C35.1733 46.0283 34.7824 45.8278 34.6622 45.467C34.6471 45.4169 34.6371 45.3668 34.6321 45.3117C34.607 45.001 34.7975 44.6953 35.1081 44.5951L42.5346 42.2349L42.9655 43.5528Z" fill="white"/>
<path d="M41.3415 38.5918L33.9151 40.9521C33.5493 41.0673 33.1584 40.8669 33.0381 40.5061C33.0231 40.456 33.0131 40.4058 33.0081 40.3507C32.983 40.04 33.1734 39.7344 33.4841 39.6341L40.9105 37.2739L41.3415 38.5918Z" fill="white"/>
<path d="M39.7136 33.6259L32.2871 35.9861C31.9213 36.1014 31.5305 35.9009 31.4102 35.5351C31.3952 35.485 31.3851 35.4349 31.3801 35.3798C31.3551 35.0691 31.5455 34.7634 31.8562 34.6632L39.2826 32.303L39.7136 33.6259Z" fill="white"/>
<path d="M58.2705 101.221C57.6291 101.837 56.8373 102.318 55.9353 102.604L53.3847 103.415C50.2026 104.428 46.75 102.664 45.7127 99.4968L24.155 33.7213C23.1177 30.5543 24.8716 27.1367 28.0536 26.1245L28.1889 26.0793C27.6477 27.3622 26.7657 30.3237 27.9985 34.0921C28.8604 36.7329 43.603 81.8828 48.0879 95.6984C49.481 100.008 54.0461 102.393 58.2705 101.221Z" fill="#EAAC29"/>
<path d="M49.3961 61.0267L48.8749 60.7461L48.3788 62.2544L47.0659 61.3424L46.5698 62.8508L45.2569 61.9387L44.7608 63.4471L43.4479 62.5351L42.9518 64.0434L41.6389 63.1314L41.1428 64.6397L39.8299 63.7277L39.3338 65.236L38.0209 64.324L37.5248 65.8323L36.2119 64.9203L35.7158 66.4287L34.4029 65.5166L34.1523 66.2733L34.9441 68.6887L34.9591 68.7338L35.6958 70.9938L44.6806 98.4996C45.6879 101.596 49.351 103.225 52.8187 102.118L55.5948 101.231C59.0575 100.123 61.0669 96.6906 60.0547 93.5938L59.4684 91.8098L59.0474 90.522L57.8849 86.9591L57.4639 85.6713L56.2964 82.1084L55.8754 80.8205L54.7128 77.2576L54.2919 75.9748L53.1293 72.4119L52.7084 71.1241L51.5458 67.5612L51.1249 66.2733L51.0548 66.0629L50.2279 63.5272L49.9623 62.7104L49.8421 62.3396L49.3961 61.0267Z" fill="white"/>
<path d="M49.8416 62.074L49.3155 61.7883L48.8094 63.3117L47.4814 62.3897L46.9753 63.913L45.6474 62.991L45.1412 64.5144L43.8133 63.5923L43.3072 65.1157L41.9792 64.1937L41.4731 65.717L40.1452 64.795L39.6441 66.3184L38.3161 65.3963L37.81 66.9197L36.4821 65.9977L35.976 67.521L34.648 66.599L34.3975 67.3657L35.1992 69.8061L35.2143 69.8512L35.9609 72.1362L45.046 99.9378C46.0683 103.07 49.7665 104.713 53.2692 103.596L56.0754 102.699C59.5782 101.581 61.6077 98.1087 60.5854 94.9818L59.9941 93.1778L59.5682 91.8799L58.3906 88.277L57.9696 86.9741L56.792 83.3711L56.3711 82.0682L55.1935 78.4652L54.7676 77.1674L53.5899 73.5644L53.169 72.2615L51.9914 68.6585L51.5655 67.3607L51.4953 67.1452L50.6585 64.5845L50.3878 63.7577L50.2626 63.3819L49.8416 62.074Z" fill="#DF69AC"/>
<path d="M72.2117 73.3187L72.1064 72.983L71.7707 71.8956L71.6655 71.5598L71.3147 70.4173L71.2094 70.0816L70.8737 68.9942L70.7685 68.6584L70.4628 67.6713L70.3576 67.3355L69.9917 66.1429L69.8865 65.8071L69.5508 64.7147L69.4455 64.379L69.0948 63.2364L68.9895 62.9007L68.6538 61.8083L68.5486 61.4725L68.2429 60.4854L68.1376 60.1496L67.8169 59.1123L67.7117 58.7766L67.3759 57.6892L67.2707 57.3534L66.92 56.2109L66.8147 55.8751L66.6844 55.4492C66.6243 55.2187 66.5441 55.0032 66.4389 54.7978C66.3838 54.6875 66.3286 54.5823 66.2635 54.4821C66.1382 54.2766 65.9879 54.0862 65.8275 53.9158C65.7273 53.8106 65.6171 53.7103 65.5068 53.6151C65.4567 53.575 65.4066 53.535 65.3515 53.4949C65.2813 53.4448 65.2112 53.3946 65.141 53.3495C65.0959 53.3195 65.0508 53.2944 65.0057 53.2694C64.695 53.089 64.3593 52.9537 64.0035 52.8735C63.8782 52.8434 63.7529 52.8234 63.6226 52.8084C63.2268 52.7582 62.8159 52.7783 62.405 52.8735C62.3649 52.8835 62.3198 52.8935 62.2747 52.9036C62.2045 52.9236 62.1344 52.9437 62.0642 52.9637C61.6834 53.089 61.3376 53.2744 61.0319 53.5099C60.9267 53.5901 60.8315 53.6703 60.7363 53.7605C60.4456 54.0361 60.2001 54.3618 60.0147 54.7126C59.9946 54.7527 59.9746 54.7978 59.9545 54.8378C59.9094 54.9331 59.8693 55.0283 59.8343 55.1235C59.7992 55.2137 59.7691 55.3089 59.7441 55.3991C59.6639 55.6747 59.6188 55.9603 59.6088 56.251C59.6037 56.3712 59.6038 56.4915 59.6138 56.6118C59.6288 56.8423 59.6639 57.0678 59.724 57.2983L59.8242 57.7343L59.8994 58.075L60.16 59.2376L60.2351 59.5783L60.4857 60.6908L60.5609 61.0316L60.8014 62.0939L60.8766 62.4347L61.1021 63.4419L61.1772 63.7826L61.4278 64.8951L61.503 65.2359L61.7635 66.3984L61.8387 66.7392L62.0893 67.8516L62.1644 68.1924L62.44 69.4101L62.5152 69.7509L62.7457 70.7581L62.8209 71.0988L63.0714 72.2113L63.1466 72.5521L63.4122 73.7146L63.4874 74.0554L63.7379 75.1678L63.8131 75.5086L65.2062 81.6672C65.7123 83.5815 68.5185 84.1778 70.4277 83.6717C72.342 83.1655 74.4817 81.116 73.9756 79.2068L72.2117 73.3187ZM66.3888 78.9512C66.4138 79.0464 66.3587 79.1416 66.2635 79.1667C66.1733 79.1918 66.0731 79.1366 66.048 79.0414L65.0358 75.228L65.3765 75.1378L66.3888 78.9512ZM67.7267 78.5954C67.7518 78.6906 67.6967 78.7858 67.6015 78.8109C67.5062 78.836 67.411 78.7808 67.386 78.6856L66.3737 74.8722L66.7145 74.782L67.7267 78.5954ZM69.1649 78.2096C69.19 78.3048 69.1348 78.4 69.0396 78.425C68.9444 78.4501 68.8492 78.395 68.8242 78.2998L67.8119 74.4863L68.1527 74.3961L69.1649 78.2096ZM70.6582 77.8137C70.6833 77.9089 70.6282 78.0041 70.5329 78.0292C70.4377 78.0542 70.3425 77.9991 70.3175 77.9039L69.3052 74.0905L69.646 74.0003L70.6582 77.8137ZM72.0964 77.4328C72.1215 77.5281 72.0663 77.6233 71.9711 77.6483C71.8759 77.6734 71.7807 77.6183 71.7557 77.5231L70.7434 73.7096L71.0842 73.6194L72.0964 77.4328Z" fill="#F2D048"/>
<path d="M65.3769 75.1377L66.3891 78.9511C66.4142 79.0463 66.3591 79.1416 66.2639 79.1666C66.1737 79.1917 66.0734 79.1365 66.0484 79.0413L65.0361 75.2279L65.3769 75.1377Z" fill="#F2D048"/>
<path d="M59.8597 55.1335C59.8246 55.2237 59.7946 55.319 59.7695 55.4092L59.8597 55.1335Z" fill="#EAAC29"/>
<path d="M59.9801 54.8428L65.3771 75.1377L65.0363 75.2279L59.7646 55.409C59.7897 55.3138 59.8198 55.2236 59.8548 55.1334C59.8949 55.0332 59.935 54.938 59.9801 54.8428Z" fill="#EAAC29"/>
<path d="M66.7099 74.782L67.7221 78.5954C67.7472 78.6906 67.6921 78.7858 67.5968 78.8109C67.5016 78.8359 67.4064 78.7808 67.3814 78.6856L66.3691 74.8722L66.7099 74.782Z" fill="#F2D048"/>
<path d="M61.0575 53.5149L66.71 74.782L66.3693 74.8722L60.7568 53.7654C60.8571 53.6803 60.9523 53.5951 61.0575 53.5149Z" fill="#EAAC29"/>
<path d="M68.1533 74.4011L69.1655 78.2146C69.1905 78.3098 69.1354 78.405 69.0402 78.43C68.945 78.4551 68.8498 78.4 68.8247 78.3048L67.8125 74.4913L68.1533 74.4011Z" fill="#F2D048"/>
<path d="M62.4306 52.8784L68.1533 74.4011L67.8125 74.4913L62.0898 52.9736C62.16 52.9486 62.2302 52.9285 62.3003 52.9135C62.3454 52.8985 62.3855 52.8884 62.4306 52.8784Z" fill="#EAAC29"/>
<path d="M69.6415 74.0054L70.6538 77.8188C70.6788 77.914 70.6237 78.0092 70.5285 78.0343C70.4333 78.0593 70.3381 78.0042 70.313 77.909L69.3008 74.0956L69.6415 74.0054Z" fill="#F2D048"/>
<path d="M64.0293 52.8785L69.6467 74.0003L69.3059 74.0905L63.6484 52.8083C63.7737 52.8284 63.904 52.8534 64.0293 52.8785Z" fill="#EAAC29"/>
<path d="M71.0839 73.6194L72.0962 77.4328C72.1212 77.528 72.0661 77.6233 71.9709 77.6483C71.8757 77.6734 71.7805 77.6182 71.7554 77.523L70.7432 73.7096L71.0839 73.6194Z" fill="#F2D048"/>
<path d="M65.5265 53.6252C65.6367 53.7204 65.7469 53.8206 65.8472 53.9258L71.0837 73.6244L70.743 73.7146L65.3711 53.5049C65.4212 53.54 65.4763 53.5801 65.5265 53.6252Z" fill="#EAAC29"/>
<path d="M65.5269 53.6252L59.8594 55.1335C59.8945 55.0383 59.9346 54.9431 59.9797 54.8479C59.9997 54.8078 60.0197 54.7627 60.0398 54.7226L65.1611 53.3596C65.2313 53.4047 65.3014 53.4548 65.3716 53.5049C65.4217 53.54 65.4768 53.5801 65.5269 53.6252Z" fill="#EAAC29"/>
<path d="M66.4593 54.8079L59.6392 56.6219C59.6291 56.5016 59.6291 56.3814 59.6341 56.2611L66.2889 54.4922C66.349 54.5924 66.4041 54.6976 66.4593 54.8079Z" fill="#EAAC29"/>
<path d="M66.9353 56.2209L59.9248 58.085L59.8496 57.7442L66.8351 55.8901L66.9353 56.2209Z" fill="#EAAC29"/>
<path d="M67.3914 57.6993L60.2656 59.5935L60.1904 59.2527L67.2912 57.3635L67.3914 57.6993Z" fill="#EAAC29"/>
<path d="M67.8318 59.1224L60.5958 61.0466L60.5156 60.7059L67.7266 58.7866L67.8318 59.1224Z" fill="#EAAC29"/>
<path d="M68.2525 60.4954L60.9112 62.4497L60.8311 62.109L68.1523 60.1597L68.2525 60.4954Z" fill="#EAAC29"/>
<path d="M68.6634 61.8184L61.2169 63.7978L61.1367 63.457L68.5581 61.4827L68.6634 61.8184Z" fill="#EAAC29"/>
<path d="M69.1047 63.2466L61.548 65.2561L61.4678 64.9153L68.9994 62.9109L69.1047 63.2466Z" fill="#EAAC29"/>
<path d="M69.5557 64.7198L61.8838 66.7593L61.8086 66.4185L69.4555 64.384L69.5557 64.7198Z" fill="#EAAC29"/>
<path d="M69.9961 66.148L62.2138 68.2126L62.1387 67.8718L69.8908 65.8123L69.9961 66.148Z" fill="#EAAC29"/>
<path d="M70.4679 67.6712L62.5654 69.7708L62.4902 69.4301L70.3627 67.3354L70.4679 67.6712Z" fill="#EAAC29"/>
<path d="M70.8788 68.9942L62.8711 71.1239L62.7959 70.7831L70.7736 68.6584L70.8788 68.9942Z" fill="#EAAC29"/>
<path d="M71.3151 70.4222L63.2021 72.5769L63.127 72.2362L71.2148 70.0864L71.3151 70.4222Z" fill="#EAAC29"/>
<path d="M71.7712 71.8956L63.5429 74.0854L63.4678 73.7396L71.6659 71.5598L71.7712 71.8956Z" fill="#EAAC29"/>
<path d="M72.2116 73.3188L63.8731 75.5387L63.793 75.1979L72.1064 72.988L72.2116 73.3188Z" fill="#EAAC29"/>
<path d="M61.1465 67.8616C61.1465 67.8616 63.9477 81.7974 65.2907 83.0252C66.6336 84.2479 68.6631 85.5157 71.765 84.0123C74.8668 82.509 74.8268 79.808 74.8268 79.808C74.8268 79.808 71.8602 67.3805 71.0685 65.6717C71.0685 65.6717 70.7527 71.2792 70.2466 72.0158C69.7405 72.7524 66.8792 63.502 66.8792 63.502C66.8792 63.502 65.7767 69.9011 66.9944 72.9829C66.9944 72.9829 64.4288 67.8566 64.0028 67.3705C63.5719 66.8844 64.1531 72.8376 64.7595 73.9751C64.7645 73.9801 62.9505 69.3148 61.1465 67.8616Z" fill="#487F41"/>
<path d="M84.9199 69.4302L82.6599 70.4925L80.3999 69.4302L78.1399 70.4925L75.8799 69.4302L73.6199 70.4925L71.3599 69.4302L69.0999 70.4925L66.8399 69.4302L64.5799 70.4925L62.3199 69.4302L60.0599 70.4925L57.7999 69.4302L55.5399 70.4925L53.2799 69.4302L51.0199 70.4925L48.7599 69.4302L46.4999 70.4925L44.2399 69.4302L41.9799 70.4925L39.7199 69.4302L37.4599 70.4925L35.1999 69.4302L32.9399 70.4925L30.6799 69.4302L28.4199 70.4925L26.1599 69.4302L23.9951 70.4474V71.8355V75.7792V118.99C23.9951 119.541 24.5363 119.987 25.1928 119.987H85.9071C86.5636 119.987 87.1048 119.536 87.1048 118.99V75.7792V71.8355V70.4524L84.9199 69.4302Z" fill="#F4D75F"/>
<path d="M38.0461 83.0863V91.4863H41.3461C42.4981 91.4863 43.4581 91.0783 44.2141 90.2743C44.9821 89.4583 45.3661 88.4623 45.3661 87.2863C45.3661 86.0983 44.9821 85.1023 44.2141 84.2983C43.4581 83.4943 42.4981 83.0863 41.3461 83.0863H38.0461ZM39.4261 90.1663V84.4063H41.3461C42.1381 84.4063 42.7861 84.6823 43.2781 85.2223C43.7821 85.7623 44.0341 86.4463 44.0341 87.2863C44.0341 88.1143 43.7821 88.8103 43.2781 89.3503C42.7861 89.8903 42.1381 90.1663 41.3461 90.1663H39.4261ZM48.3362 85.4863H47.0402V91.4863H48.3362V88.4623C48.3362 87.8503 48.5162 87.4063 48.8882 87.1423C49.2602 86.8663 49.6922 86.7463 50.1842 86.7823V85.3783C49.2842 85.3783 48.6602 85.7503 48.3362 86.4943V85.4863ZM54.1925 91.6423C55.0805 91.6423 55.8245 91.3423 56.4365 90.7303C57.0485 90.1183 57.3605 89.3743 57.3605 88.4863C57.3605 87.5983 57.0485 86.8543 56.4365 86.2423C55.8245 85.6303 55.0805 85.3303 54.1925 85.3303C53.3165 85.3303 52.5605 85.6303 51.9485 86.2423C51.3365 86.8543 51.0245 87.5983 51.0245 88.4863C51.0245 89.3743 51.3365 90.1183 51.9485 90.7303C52.5605 91.3423 53.3165 91.6423 54.1925 91.6423ZM52.8605 89.8423C52.5005 89.4823 52.3205 89.0263 52.3205 88.4863C52.3205 87.9463 52.5005 87.4903 52.8605 87.1303C53.2205 86.7703 53.6645 86.5903 54.1925 86.5903C54.7205 86.5903 55.1645 86.7703 55.5245 87.1303C55.8845 87.4903 56.0645 87.9463 56.0645 88.4863C56.0645 89.0263 55.8845 89.4823 55.5245 89.8423C55.1645 90.2023 54.7205 90.3823 54.1925 90.3823C53.6645 90.3823 53.2205 90.2023 52.8605 89.8423ZM62.4284 85.3303C61.5164 85.3303 60.8204 85.6663 60.3284 86.3503V85.4863H59.0324V93.8863H60.3284V90.6343C60.8204 91.3063 61.5164 91.6423 62.4284 91.6423C63.2564 91.6423 63.9524 91.3423 64.5404 90.7303C65.1284 90.1183 65.4164 89.3743 65.4164 88.4863C65.4164 87.6103 65.1284 86.8663 64.5404 86.2543C63.9524 85.6423 63.2564 85.3303 62.4284 85.3303ZM60.8684 89.8663C60.5084 89.4943 60.3284 89.0383 60.3284 88.4863C60.3284 87.9343 60.5084 87.4783 60.8684 87.1183C61.2284 86.7463 61.6844 86.5663 62.2244 86.5663C62.7644 86.5663 63.2204 86.7463 63.5804 87.1183C63.9404 87.4783 64.1204 87.9343 64.1204 88.4863C64.1204 89.0383 63.9404 89.4943 63.5804 89.8663C63.2204 90.2263 62.7644 90.4063 62.2244 90.4063C61.6844 90.4063 61.2284 90.2263 60.8684 89.8663ZM70.487 85.3303C69.575 85.3303 68.879 85.6663 68.387 86.3503V85.4863H67.091V93.8863H68.387V90.6343C68.879 91.3063 69.575 91.6423 70.487 91.6423C71.315 91.6423 72.011 91.3423 72.599 90.7303C73.187 90.1183 73.475 89.3743 73.475 88.4863C73.475 87.6103 73.187 86.8663 72.599 86.2543C72.011 85.6423 71.315 85.3303 70.487 85.3303ZM68.927 89.8663C68.567 89.4943 68.387 89.0383 68.387 88.4863C68.387 87.9343 68.567 87.4783 68.927 87.1183C69.287 86.7463 69.743 86.5663 70.283 86.5663C70.823 86.5663 71.279 86.7463 71.639 87.1183C71.999 87.4783 72.179 87.9343 72.179 88.4863C72.179 89.0383 71.999 89.4943 71.639 89.8663C71.279 90.2263 70.823 90.4063 70.283 90.4063C69.743 90.4063 69.287 90.2263 68.927 89.8663Z" fill="#CC3C0E"/>
</g>
<defs>
<clipPath id="clip0_1881_23170">
<rect width="111.394" height="111.394" rx="55.6969" fill="white"/>
</clipPath>
</defs>
</svg>
