<svg width="112" height="112" viewBox="0 0 112 112" fill="none" xmlns="http://www.w3.org/2000/svg">
<g clip-path="url(#clip0_1881_23630)">
<rect x="0.441406" width="111.394" height="111.394" rx="55.6969" fill="#F8DFDF"/>
<path d="M39.7 79.3824L33.7559 79.0907L35.2645 50.2095C35.3103 49.2623 36.1089 48.5316 37.0489 48.5778L39.5903 48.7026C40.5297 48.7487 41.2544 49.5539 41.2086 50.5017L39.7 79.3824Z" fill="#FEC828"/>
<g opacity="0.3">
<path opacity="0.3" d="M41.4446 50.5291L39.9359 79.4074L33.9941 79.1175L34 78.9968L37.7132 79.1772L38.7688 59.6758L38.9589 55.755L39.2218 50.2989C39.2564 49.57 38.8433 48.9275 38.226 48.6506L39.8256 48.7281C40.7668 48.7755 41.4921 49.5801 41.4446 50.5291Z" fill="#5E2323"/>
</g>
<g opacity="0.55">
<path opacity="0.55" d="M36.8991 50.5965L35.4051 79.1725L33.7568 79.0926L35.2649 50.212C35.3101 49.263 36.1081 48.5341 37.0493 48.5797L39.5877 48.7045C39.9498 48.7205 40.279 48.8536 40.5448 49.0583L38.6835 48.9648C37.7458 48.9187 36.9484 49.6476 36.8991 50.5965Z" fill="white"/>
</g>
<path d="M39.7002 80.1989C39.6873 80.1989 39.6738 80.1989 39.6603 80.1983L33.7168 79.9066C33.5014 79.896 33.2996 79.7996 33.1552 79.6386C33.0109 79.4777 32.9357 79.2653 32.9475 79.0488L34.4561 50.1675C34.4884 49.4948 34.78 48.8724 35.277 48.4175C35.774 47.9625 36.4183 47.73 37.0873 47.7631L39.6286 47.888C41.0129 47.956 42.0837 49.1464 42.0163 50.542L40.5076 79.4262C40.4853 79.8611 40.128 80.1989 39.7002 80.1989ZM34.6069 78.3157L38.9339 78.5281L40.4002 50.4586C40.4243 49.9652 40.0429 49.5416 39.5506 49.5179L37.0098 49.3931C36.7669 49.3807 36.5421 49.4641 36.3655 49.6256C36.1889 49.7871 36.085 50.009 36.0733 50.2492L34.6069 78.3157Z" fill="#5E2323"/>
<path d="M31.5978 78.7458L25.69 79.4664L22.3583 50.7408C22.245 49.7989 22.911 48.9434 23.8446 48.8292L26.3701 48.521C27.3043 48.4068 28.1528 49.0783 28.266 50.0196L31.5978 78.7458Z" fill="#FEC828"/>
<g opacity="0.3">
<path opacity="0.3" d="M28.5033 50.0072L31.8345 78.7299L25.9291 79.4523L25.9144 79.3322L29.6047 78.8802L27.3913 59.4775L26.9248 55.5804L26.2735 50.1575C26.1861 49.4333 25.672 48.8701 25.0166 48.7014L26.6068 48.5062C27.5427 48.3938 28.3918 49.0635 28.5033 50.0072Z" fill="#5E2323"/>
</g>
<g opacity="0.55">
<path opacity="0.55" d="M24.0356 50.8449L27.3304 79.2671L25.6921 79.4677L22.3603 50.7426C22.2465 49.7995 22.9113 48.9458 23.8467 48.831L26.3699 48.5234C26.7296 48.4778 27.0758 48.5535 27.3721 48.7097L25.5219 48.9334C24.5913 49.0476 23.9265 49.9013 24.0356 50.8449Z" fill="white"/>
</g>
<path d="M25.6897 80.283C25.509 80.283 25.3323 80.2221 25.1886 80.1079C25.0196 79.9736 24.9104 79.7772 24.8852 79.5612L21.5534 50.8356C21.3874 49.4518 22.3714 48.1868 23.7468 48.0194L26.2724 47.7112C27.6478 47.542 28.9023 48.5353 29.069 49.9221L32.4008 78.6513C32.4524 79.0974 32.1367 79.5021 31.6937 79.5565L25.7859 80.2771C25.7542 80.2813 25.722 80.283 25.6897 80.283ZM26.5757 49.3257C26.5399 49.3257 26.5036 49.3281 26.4672 49.3322L23.9417 49.6405C23.4529 49.7002 23.1025 50.1505 23.1618 50.6439L26.3997 78.559L30.7002 78.0342L27.4624 50.1162C27.4078 49.6618 27.0211 49.3257 26.5757 49.3257Z" fill="#5E2323"/>
<path d="M52.1245 65.5821L46.2285 64.7674L48.9747 44.5625C49.1026 43.623 49.9616 42.965 50.8935 43.094L53.4143 43.4425C54.3461 43.5715 54.9986 44.4376 54.8707 45.3772L52.1245 65.5821Z" fill="#FEC828"/>
<g opacity="0.3">
<path opacity="0.3" d="M52.3595 65.6282L46.4658 64.8141L46.4799 64.6946L50.1643 65.2028L51.646 54.299C50.9547 52.8584 51.1179 51.5603 52.1741 50.4131L52.9099 44.9985C53.0079 44.2785 52.6517 43.6016 52.0602 43.2686L53.6487 43.4892C54.5822 43.6176 55.233 44.4826 55.1056 45.4239L52.3595 65.6282Z" fill="#6B184E"/>
<path opacity="0.3" d="M52.4892 65.8016L46.2969 64.9461L46.3462 64.5219L50.0335 65.0307L51.4888 54.3245C50.7963 52.8489 50.9782 51.5107 52.0292 50.3457L52.7586 44.9784C52.846 44.3353 52.5426 43.717 51.9858 43.4035L51.2822 43.0071L53.6687 43.3384C54.1604 43.4058 54.5964 43.6626 54.8956 44.0602C55.1949 44.4578 55.3228 44.95 55.2553 45.4458L52.4892 65.8016ZM50.3187 65.1916L52.2287 65.4555L54.9543 45.4026C55.0106 44.9879 54.9038 44.5761 54.6533 44.2436C54.4033 43.9111 54.0389 43.6969 53.627 43.6401L52.5907 43.4964C52.9586 43.8975 53.1376 44.4501 53.0596 45.0186L52.3173 50.4812L52.2844 50.5167C51.274 51.6148 51.1097 52.83 51.7821 54.2316L51.8021 54.273L50.3187 65.1916Z" fill="#5E2323"/>
</g>
<g opacity="0.55">
<path opacity="0.55" d="M50.5705 45.0918L47.8649 64.9939L46.2295 64.769L48.9751 44.5647C49.1024 43.6234 49.9603 42.9673 50.8938 43.0963L53.4117 43.4441C53.7714 43.4921 54.0871 43.6536 54.3348 43.8808L52.4887 43.6234C51.5598 43.495 50.702 44.1511 50.5705 45.0918Z" fill="white"/>
</g>
<path d="M52.1262 66.3985C52.0898 66.3985 52.0529 66.3961 52.0153 66.3908L46.1193 65.5761C45.9069 65.5465 45.7144 65.4335 45.5847 65.2608C45.4551 65.088 45.3981 64.8709 45.4275 64.6567L48.1736 44.4518C48.362 43.0679 49.6341 42.0965 51.0043 42.2858L53.5251 42.6343C54.8976 42.8236 55.8611 44.1039 55.6733 45.4883L52.9272 65.6932C52.8714 66.1021 52.5241 66.3985 52.1262 66.3985ZM47.1415 64.0698L51.4332 64.6626L54.0697 45.2664C54.1365 44.7742 53.7939 44.3186 53.3057 44.2512L50.7848 43.9027C50.2966 43.8341 49.8448 44.1808 49.7779 44.6736L47.1415 64.0698Z" fill="#5E2323"/>
<path d="M34.7257 78.0229L28.7834 78.3447L27.6978 57.98C27.6473 57.0328 28.3679 56.2235 29.3074 56.1726L31.8476 56.0347C32.787 55.9839 33.5891 56.7104 33.6402 57.6576L34.7257 78.0229Z" fill="#FEC828"/>
<g opacity="0.3">
<path opacity="0.3" d="M34.9658 78.0242L29.0258 78.346L29.0176 78.2259L32.7308 78.0242L32.1446 67.0346C31.1963 65.7513 31.1136 64.4462 31.9357 63.1179L31.6446 57.6601C31.6065 56.9348 31.1294 56.3378 30.4863 56.123L32.0876 56.0372C33.0288 55.9858 33.8292 56.7111 33.8803 57.6601L34.9658 78.0242Z" fill="#5E2323"/>
</g>
<g opacity="0.55">
<path opacity="0.55" d="M29.3651 58.1966L30.4337 78.2554L28.786 78.3453L27.6998 57.9813C27.6488 57.0323 28.3682 56.2253 29.3094 56.1738L31.8472 56.0366C32.2093 56.0153 32.5496 56.1141 32.8354 56.2898L30.9747 56.3886C30.0382 56.4406 29.3188 57.2482 29.3651 58.1966Z" fill="white"/>
</g>
<path d="M28.7835 79.1612C28.3563 79.1612 27.9989 78.824 27.976 78.3885L26.8905 58.0239C26.8541 57.3482 27.0818 56.6986 27.5301 56.1951C27.979 55.6916 28.5945 55.394 29.2652 55.3579L31.8054 55.2201C32.4773 55.1822 33.1198 55.4124 33.6192 55.865C34.1185 56.317 34.4137 56.9382 34.4495 57.6144L35.535 77.9791C35.5468 78.1951 35.4728 78.4069 35.3291 78.5684C35.1853 78.7293 34.9846 78.8263 34.7704 78.8382L28.8281 79.16C28.8128 79.1612 28.7981 79.1612 28.7835 79.1612ZM31.941 56.8495C31.9245 56.8495 31.9081 56.8501 31.8923 56.8506L29.3521 56.9885C29.1132 57.0015 28.8944 57.1074 28.7348 57.2861C28.5757 57.4654 28.4942 57.6961 28.5071 57.9369L29.5492 77.4863L33.875 77.252L32.8329 57.7026C32.82 57.4624 32.7149 57.2411 32.5377 57.0802C32.3722 56.9305 32.1622 56.8495 31.941 56.8495Z" fill="#5E2323"/>
<path d="M44.5054 86.898L38.5889 86.2561L41.771 57.5132C41.8714 56.5702 42.7116 55.888 43.647 55.9892L46.1766 56.2637C47.1119 56.3649 47.7885 57.2121 47.6882 58.1552L44.5054 86.898Z" fill="#FEC828"/>
<g opacity="0.3">
<path opacity="0.3" d="M47.9221 58.1966L44.74 86.9365L38.8252 86.2969L38.8381 86.1768L42.5343 86.5762L44.7195 67.1706L45.1367 63.2675L45.7158 57.8363C45.7927 57.111 45.4177 56.4454 44.8174 56.1318L46.41 56.3034C47.3471 56.4063 48.0242 57.2524 47.9221 58.1966Z" fill="#5E2323"/>
</g>
<g opacity="0.55">
<path opacity="0.55" d="M43.38 57.9961L40.2301 86.4348L38.5889 86.2579L41.7704 57.5157C41.8708 56.5709 42.7093 55.8905 43.6464 55.9917L46.1731 56.2656C46.5339 56.3029 46.8543 56.4555 47.1078 56.675L45.2553 56.4721C44.3229 56.3715 43.4844 57.0519 43.38 57.9961Z" fill="white"/>
</g>
<path d="M44.506 87.7144C44.4772 87.7144 44.4479 87.7126 44.4186 87.7097L38.502 87.0677C38.2878 87.0447 38.0918 86.9364 37.9575 86.7672C37.8225 86.598 37.7603 86.3814 37.7844 86.1661L40.9665 57.4233C41.0381 56.7535 41.3655 56.1495 41.8878 55.7247C42.41 55.2999 43.0678 55.1064 43.7332 55.1786L46.2628 55.4531C47.6406 55.6028 48.6411 56.8541 48.4926 58.2433L45.3105 86.9896C45.2635 87.4056 44.9132 87.7144 44.506 87.7144ZM39.4831 85.5325L43.7901 85.9998L46.8825 58.0646C46.9347 57.5736 46.5791 57.1286 46.0886 57.0754L43.5589 56.8009C43.3213 56.7748 43.0883 56.8441 42.9023 56.9949C42.7163 57.1458 42.6001 57.3612 42.5743 57.6002L39.4831 85.5325Z" fill="#5E2323"/>
<path d="M61.5455 80.6792L55.6289 80.0373L58.811 51.2945C58.9114 50.3514 59.7517 49.6693 60.687 49.7704L63.2166 50.045C64.152 50.1461 64.8285 50.9933 64.7282 51.9364L61.5455 80.6792Z" fill="#FEC828"/>
<g opacity="0.3">
<path opacity="0.3" d="M64.9622 51.9779L61.78 80.7177L55.8652 80.0782L55.8781 79.9581L59.5743 80.3574L61.7595 60.9518L62.1767 57.0488L62.7559 51.6176C62.8327 50.8922 62.4578 50.2267 61.8575 49.9131L63.45 50.0847C64.3871 50.1876 65.0643 51.0331 64.9622 51.9779Z" fill="#5E2323"/>
</g>
<g opacity="0.55">
<path opacity="0.55" d="M60.42 51.7774L57.2701 80.2161L55.6289 80.0392L58.8105 51.297C58.9108 50.3521 59.7493 49.6717 60.6864 49.7729L63.2131 50.0468C63.574 50.0841 63.8944 50.2367 64.1479 50.4562L62.2954 50.2533C61.363 50.1521 60.5245 50.8331 60.42 51.7774Z" fill="white"/>
</g>
<path d="M61.5456 81.4958C61.5169 81.4958 61.4875 81.4941 61.4582 81.4911L55.5411 80.8492C55.3269 80.8261 55.1309 80.7178 54.9965 80.5486C54.8616 80.3794 54.7994 80.1629 54.8234 79.9475L58.0056 51.2047C58.0772 50.535 58.4046 49.9309 58.9268 49.5061C59.4496 49.0813 60.1063 48.8873 60.7723 48.96L63.3019 49.2346C64.6797 49.3842 65.6795 50.6356 65.5317 52.0247L62.3495 80.7711C62.3032 81.187 61.9529 81.4958 61.5456 81.4958ZM56.5222 79.3139L60.8292 79.7813L63.9221 51.846C63.9744 51.355 63.6188 50.9101 63.1288 50.8568L60.5992 50.5823C60.3621 50.5557 60.1286 50.6255 59.9425 50.7764C59.7565 50.9272 59.6404 51.1426 59.6145 51.3816L56.5222 79.3139Z" fill="#5E2323"/>
<path d="M58.9918 76.7355L53.0436 76.9231L52.411 56.5395C52.3817 55.5917 53.1198 54.7989 54.0605 54.7693L56.6036 54.6888C57.5436 54.6593 58.3299 55.4035 58.3592 56.3519L58.9918 76.7355Z" fill="#FEC828"/>
<g opacity="0.3">
<path opacity="0.3" d="M59.2301 76.7416L53.2842 76.9291L53.2783 76.809L56.995 76.6913L56.6535 65.691C55.734 64.3864 55.68 63.0795 56.532 61.7708L56.3625 56.3083C56.3402 55.5817 55.8766 54.9747 55.2388 54.7452L56.8413 54.6955C57.7831 54.6653 58.5676 55.409 58.5975 56.3585L59.2301 76.7416Z" fill="#5E2323"/>
</g>
<g opacity="0.55">
<path opacity="0.55" d="M54.0724 56.7927L54.695 76.871L53.0455 76.9237L52.413 56.5407C52.3831 55.5911 53.1207 54.8001 54.0624 54.7699L56.6026 54.69C56.9653 54.677 57.3033 54.7829 57.5849 54.9658L55.7225 55.0225C54.7836 55.0527 54.0466 55.8431 54.0724 56.7927Z" fill="white"/>
</g>
<path d="M53.044 77.739C52.838 77.739 52.6403 77.6604 52.4901 77.5178C52.3334 77.3699 52.2418 77.1646 52.2348 76.9486L51.6028 56.5644C51.5817 55.8882 51.8235 55.2439 52.2829 54.7505C52.7424 54.257 53.365 53.9742 54.0362 53.9529L56.5788 53.8731C57.2419 53.8571 57.8885 54.0955 58.3779 54.5588C58.8667 55.022 59.1477 55.6498 59.1689 56.3266L59.8014 76.7102C59.8155 77.1604 59.4646 77.5373 59.0175 77.5515L53.0692 77.739C53.061 77.739 53.0522 77.739 53.044 77.739ZM56.6574 55.5036C56.648 55.5036 56.6386 55.5036 56.6287 55.5042L54.0861 55.5841C53.8473 55.5918 53.6261 55.6924 53.463 55.8675C53.2992 56.0432 53.2136 56.2722 53.2212 56.5129L53.8279 76.0813L58.1578 75.9446L57.5505 56.3769C57.5429 56.1361 57.4431 55.913 57.2694 55.748C57.1022 55.59 56.8863 55.5036 56.6574 55.5036Z" fill="#5E2323"/>
<path d="M49.7486 83.1146L43.9424 81.8006L48.3726 61.9022C48.5786 60.9768 49.4899 60.3947 50.4076 60.6023L52.8897 61.1644C53.8074 61.372 54.3848 62.2909 54.1789 63.2162L49.7486 83.1146Z" fill="#FEC828"/>
<g opacity="0.3">
<path opacity="0.3" d="M49.9783 83.1807L44.1738 81.8673L44.1979 81.7496L47.8266 82.5701L50.2171 71.832C49.6491 70.3375 49.9208 69.0584 51.0691 68.0047L52.2562 62.6717C52.4146 61.9629 52.116 61.2577 51.5544 60.8755L53.1188 61.2305C54.0383 61.4381 54.6139 62.3552 54.408 63.2828L49.9783 83.1807Z" fill="#6B184E"/>
<path opacity="0.3" d="M50.0926 83.3642L43.9941 81.9839L44.0798 81.5656L47.7108 82.3868L50.0586 71.8427C49.4923 70.3134 49.7857 68.9958 50.9311 67.9237L52.1076 62.6375C52.249 62.0044 51.9979 61.3625 51.4692 61.0022L50.8009 60.5466L53.1521 61.0803C53.6362 61.1897 54.0487 61.482 54.3139 61.9038C54.5786 62.3257 54.6648 62.8268 54.5563 63.3155L50.0926 83.3642ZM47.9814 82.572L49.8626 82.998L54.2594 63.2492C54.3503 62.8404 54.2781 62.4215 54.0569 62.0689C53.8357 61.7163 53.4907 61.472 53.0852 61.3802L52.0648 61.1483C52.3981 61.5796 52.5295 62.1452 52.4045 62.7049L51.2063 68.0853L51.1705 68.1178C50.0715 69.1259 49.8063 70.3228 50.3584 71.7765L50.3748 71.8196L47.9814 82.572Z" fill="#5E2323"/>
</g>
<g opacity="0.55">
<path opacity="0.55" d="M49.9186 62.5652L45.5541 82.1654L43.9434 81.8016L48.373 61.9037C48.579 60.9766 49.4885 60.3962 50.4086 60.6039L52.8883 61.1653C53.2427 61.2434 53.5438 61.4316 53.7714 61.6795L51.9536 61.2659C51.0382 61.0589 50.1281 61.6392 49.9186 62.5652Z" fill="white"/>
</g>
<path d="M49.7491 83.9309C49.6898 83.9309 49.6305 83.9244 49.5718 83.9114L43.765 82.5973C43.5555 82.55 43.3736 82.4205 43.2586 82.2376C43.1436 82.0548 43.1055 81.8335 43.1524 81.6223L47.5826 61.7239C47.7293 61.0636 48.1231 60.5004 48.6899 60.1383C49.2567 59.7762 49.9286 59.6579 50.5846 59.8064L53.0667 60.3684C53.7216 60.5163 54.2802 60.9133 54.6393 61.4849C54.9984 62.057 55.1158 62.735 54.9685 63.3953L50.5383 83.2943C50.4908 83.5055 50.3628 83.6889 50.1815 83.8049C50.0518 83.8877 49.901 83.9309 49.7491 83.9309ZM44.9093 81.1828L49.1364 82.1394L53.3895 63.0373C53.4417 62.8024 53.4006 62.561 53.2727 62.3575C53.1448 62.154 52.9465 62.0132 52.7129 61.9605L50.2308 61.3985C49.9973 61.3452 49.7584 61.3878 49.5566 61.5162C49.3547 61.6452 49.2151 61.8452 49.1629 62.0801L44.9093 81.1828Z" fill="#5E2323"/>
<path d="M69.0178 68.458L65.939 87.7613L64.7636 95.1159L61.9447 112.788C61.7528 114.012 60.7054 114.909 59.4749 114.909H55.5576C55.0506 114.909 54.5571 114.755 54.1563 114.445C47.7005 109.461 39.5506 109.722 33.133 114.428C32.7158 114.733 32.2217 114.909 31.7065 114.909H27.7598C26.5293 114.909 25.4819 114.012 25.2859 112.788L22.599 95.9448L21.2494 87.4738L18.2175 68.458C17.9704 66.9251 19.1458 65.5342 20.6873 65.5342H23.9404C24.7196 65.5342 25.452 65.8992 25.9249 66.5258C30.4555 72.5149 36.0599 75.9712 43.6182 75.6665C51.2024 75.5719 56.7804 72.5149 61.3116 66.5258C61.7798 65.8986 62.5168 65.5342 63.2961 65.5342H66.5492C68.0895 65.5348 69.2649 66.9257 69.0178 68.458Z" fill="#E93B47"/>
<path d="M65.9382 87.7619L64.7629 95.1165L62.7361 94.1977L55.416 97.8084L48.0964 94.1977L40.7763 97.8084L33.4561 94.1977L26.1319 97.8084L22.5977 95.9448L21.248 87.4738L26.1319 89.6812L33.452 86.0698L40.7675 89.6812L48.0876 86.0698L55.4119 89.6812L62.732 86.0698L65.9382 87.7619Z" fill="#FFBB34"/>
<g opacity="0.55">
<path opacity="0.55" d="M27.714 113.493C27.7821 113.914 27.9481 114.296 28.1911 114.614H27.4928C26.2623 114.614 25.2149 113.716 25.0189 112.493L17.9499 68.1626C17.7029 66.6297 18.8782 65.2388 20.4197 65.2388H23.6728C24.4521 65.2388 25.1844 65.6038 25.6573 66.2304C25.6614 66.2345 25.6614 66.2345 25.6655 66.2392H23.1148C21.5733 66.2392 20.398 67.6302 20.645 69.1631L27.714 113.493Z" fill="white"/>
</g>
<path d="M59.475 115.86H55.5576C54.8247 115.86 54.1423 115.632 53.5837 115.2C47.6055 110.584 39.9814 110.582 33.6881 115.197C33.0943 115.631 32.4101 115.86 31.7077 115.86H27.7598C26.0581 115.86 24.6264 114.632 24.3553 112.94L17.2869 68.6095C17.1249 67.6055 17.4077 66.5837 18.0626 65.8075C18.718 65.0301 19.6751 64.5846 20.6873 64.5846H23.9404C25.023 64.5846 26.02 65.0827 26.6754 65.9513C31.3427 72.1214 36.8749 74.9903 43.5801 74.7175C50.7178 74.6264 56.1057 71.8404 60.5617 65.9501C61.1995 65.0963 62.2229 64.584 63.2955 64.584H66.5487C67.5609 64.584 68.5173 65.0295 69.1734 65.8069C69.8282 66.5831 70.1111 67.6043 69.9491 68.6095L62.876 112.939C62.6108 114.63 61.1802 115.86 59.475 115.86ZM43.7497 109.88C47.6137 109.88 51.439 111.15 54.7291 113.691C54.9561 113.866 55.2425 113.959 55.557 113.959H59.4744C60.246 113.959 60.8932 113.404 61.0129 112.64L68.0866 68.3077C68.0866 68.3072 68.0866 68.3066 68.0866 68.3066C68.16 67.8522 68.0321 67.3901 67.7358 67.0393C67.4388 66.6872 67.0052 66.4855 66.5469 66.4855H63.2938C62.8097 66.4855 62.3491 66.7145 62.0621 67.0984C57.2223 73.4958 51.3656 76.519 43.6277 76.6178C43.3079 76.6309 42.9898 76.6374 42.6753 76.6374C35.7606 76.638 30.0213 73.5118 25.1733 67.1032C24.8769 66.7103 24.4275 66.4855 23.9387 66.4855H20.6855C20.2272 66.4855 19.7936 66.6872 19.4967 67.0393C19.201 67.3901 19.073 67.8522 19.1458 68.3066L26.2148 112.638C26.3374 113.404 26.9864 113.959 27.7581 113.959H31.7059C32.0087 113.959 32.3103 113.856 32.5791 113.66C36.0165 111.139 39.9028 109.88 43.7497 109.88Z" fill="white"/>
<path d="M91.8768 59.738H50.4345C49.2104 59.738 48.2188 58.7376 48.2188 57.504V57.4105C48.2188 56.1764 49.211 55.1765 50.4345 55.1765H91.8768C93.1008 55.1765 94.0925 56.177 94.0925 57.4105V57.504C94.0925 58.7382 93.1008 59.738 91.8768 59.738Z" fill="#FFBF00"/>
<path d="M73.0845 51.4386L68.2324 50.7417L70.8964 34.0469C71.0343 33.0683 71.7385 32.2667 72.6855 32.0093L87.283 28.0465C88.4712 27.7241 89.6935 28.4335 90.0133 29.6315L90.1295 30.0658C90.4493 31.2638 89.7457 32.4962 88.5575 32.8187L75.5209 36.3578L73.0845 51.4386Z" fill="#E36836"/>
<path d="M73.0851 52.3887C73.0405 52.3887 72.9959 52.3857 72.9507 52.3792L68.0986 51.6823C67.848 51.6462 67.6227 51.5101 67.4725 51.3048C67.3229 51.0995 67.2607 50.8421 67.3012 50.5901L69.9652 33.8953C70.1541 32.5553 71.1264 31.4478 72.4396 31.091L87.0371 27.1282C88.7253 26.6703 90.468 27.682 90.9228 29.3841L91.0384 29.819C91.4926 31.5205 90.4892 33.2777 88.8016 33.7362L76.3529 37.1156L74.0146 51.5912C73.9389 52.0568 73.5399 52.3887 73.0851 52.3887ZM69.315 49.9369L72.3023 50.3665L74.5902 36.2051C74.6501 35.8365 74.9176 35.5371 75.2756 35.4401L88.3122 31.9009C88.9964 31.7152 89.403 31.0028 89.2188 30.313L89.1032 29.8787C88.9189 29.1889 88.2119 28.7777 87.5277 28.9647L72.9302 32.9274C72.3463 33.086 71.9145 33.5776 71.8294 34.1811L69.315 49.9369Z" fill="white"/>
<path d="M86.8979 49.7275H55.4151C54.2251 49.7275 53.1977 50.5688 52.9541 51.7432L52.2412 55.1765H90.0713L89.3583 51.7432C89.1148 50.5688 88.0879 49.7275 86.8979 49.7275Z" fill="#FFBF00"/>
<g opacity="0.55">
<path opacity="0.55" d="M53.3238 59.7398H50.4356C49.2104 59.7398 48.2188 58.74 48.2188 57.5046V57.4094C48.2188 56.1776 49.2104 55.1777 50.4356 55.1777H53.3238C52.1021 55.1777 51.1104 56.1776 51.1104 57.4094V57.5046C51.1104 58.74 52.1021 59.7398 53.3238 59.7398Z" fill="white"/>
</g>
<g opacity="0.55">
<path opacity="0.55" d="M58.3039 49.7258C57.1127 49.7258 56.087 50.5701 55.8417 51.7445L55.1294 55.1771H52.2412L52.9536 51.7445C53.1947 50.5695 54.224 49.7258 55.4122 49.7258H58.3039Z" fill="white"/>
</g>
<path d="M91.8764 60.6886H50.4341C48.6925 60.6886 47.2754 59.2598 47.2754 57.5038V57.4103C47.2754 55.6544 48.6925 54.2256 50.4341 54.2256H91.8764C93.618 54.2256 95.0345 55.6544 95.0345 57.4103V57.5038C95.035 59.2598 93.618 60.6886 91.8764 60.6886ZM50.4341 56.1265C49.7323 56.1265 49.1607 56.7022 49.1607 57.4103V57.5038C49.1607 58.212 49.7323 58.7877 50.4341 58.7877H91.8764C92.5782 58.7877 93.1491 58.212 93.1491 57.5038V57.4103C93.1491 56.7028 92.5782 56.1265 91.8764 56.1265H50.4341Z" fill="white"/>
<path d="M90.0699 56.1266H52.2398C51.9558 56.1266 51.6871 55.9976 51.5081 55.7752C51.3291 55.5533 51.2587 55.2616 51.3168 54.9812L52.0292 51.5479C52.3625 49.9416 53.7854 48.7761 55.4132 48.7761H86.896C88.5231 48.7761 89.9467 49.9416 90.2799 51.5479L90.9923 54.9812C91.0504 55.2616 90.98 55.5533 90.801 55.7752C90.6226 55.9976 90.3539 56.1266 90.0699 56.1266ZM53.4005 54.2257H88.9098L88.4351 51.9378C88.2837 51.2077 87.6365 50.6776 86.8965 50.6776H55.4137C54.6738 50.6776 54.0266 51.2077 53.8752 51.9378L53.4005 54.2257Z" fill="white"/>
<path d="M90.0701 59.7399L88.8261 77.9498L88.0797 88.8223L86.6961 109.062C86.4737 112.316 83.7892 114.844 80.5542 114.844H61.7577C58.5227 114.844 55.8382 112.316 55.6158 109.062L54.4393 91.8899L53.636 80.1388L52.2412 59.7393H90.0701V59.7399Z" fill="#E93B47"/>
<path d="M88.8268 77.949L88.0799 88.8221L87.6539 88.586L81.2139 92.5624L74.7739 88.586L68.3304 92.5624L61.8904 88.586L55.4469 92.5624L54.44 91.8897L53.6367 80.1386L55.4428 81.1349L61.8828 77.1621L68.3228 81.1349L74.7663 77.1621L81.2062 81.1349L87.6503 77.1621L88.8268 77.949Z" fill="#FFBF00"/>
<g opacity="0.55">
<path opacity="0.55" d="M64.0198 114.844H61.7577C58.5227 114.844 55.8382 112.316 55.6158 109.062L52.2412 59.7397H54.5033L57.8779 109.062C58.1003 112.316 60.7848 114.844 64.0198 114.844Z" fill="white"/>
</g>
<path d="M80.5526 115.794H61.7584C58.0423 115.794 54.9306 112.866 54.6747 109.128L51.3001 59.8042C51.2819 59.5415 51.3735 59.2829 51.5513 59.0901C51.7297 58.8978 51.979 58.7883 52.2402 58.7883H90.0702C90.3313 58.7883 90.5813 58.8978 90.7591 59.0901C90.9375 59.2829 91.0284 59.5409 91.0103 59.8042L87.6356 109.128C87.3804 112.866 84.2687 115.794 80.5526 115.794ZM53.25 60.6887L56.5554 108.996C56.7432 111.742 59.0287 113.893 61.7584 113.893H80.5526C83.2823 113.893 85.5672 111.742 85.755 108.996L89.0604 60.6887H53.25Z" fill="white"/>
</g>
<defs>
<clipPath id="clip0_1881_23630">
<rect x="0.441406" width="111.394" height="111.394" rx="55.6969" fill="white"/>
</clipPath>
</defs>
</svg>
