<svg width="86" height="86" viewBox="0 0 86 86" fill="none" xmlns="http://www.w3.org/2000/svg">
<g clip-path="url(#clip0_2089_36107)">
<rect x="0.4375" y="0.0615234" width="84.9618" height="84.9618" rx="42.4809" fill="#F8DFDF"/>
<path d="M30.3804 60.6081L25.8467 60.3856L26.9973 38.3575C27.0322 37.635 27.6414 37.0777 28.3583 37.1129L30.2967 37.2081C31.0132 37.2433 31.5659 37.8575 31.531 38.5804L30.3804 60.6081Z" fill="#FEC828"/>
<g opacity="0.3">
<path opacity="0.3" d="M31.7109 38.6007L30.5602 60.6266L26.0283 60.4055L26.0328 60.3135L28.8649 60.4511L29.67 45.577L29.815 42.5866L30.0155 38.4251C30.042 37.8692 29.7269 37.3792 29.2561 37.168L30.4761 37.2271C31.1939 37.2632 31.7471 37.8769 31.7109 38.6007Z" fill="#5E2323"/>
</g>
<g opacity="0.55">
<path opacity="0.55" d="M28.2443 38.6531L27.1048 60.4485L25.8477 60.3876L26.9979 38.3598C27.0323 37.636 27.641 37.0801 28.3589 37.1148L30.295 37.21C30.5711 37.2222 30.8222 37.3238 31.0249 37.4799L29.6053 37.4086C28.8901 37.3734 28.2819 37.9293 28.2443 38.6531Z" fill="white"/>
</g>
<path d="M30.3808 61.2309C30.371 61.2309 30.3607 61.2309 30.3504 61.2305L25.8171 61.008C25.6529 60.9999 25.4989 60.9263 25.3888 60.8036C25.2787 60.6808 25.2215 60.5188 25.2304 60.3537L26.3811 38.3255C26.4057 37.8124 26.6281 37.3377 27.0072 36.9907C27.3863 36.6437 27.8777 36.4664 28.3879 36.4916L30.3262 36.5868C31.382 36.6387 32.1988 37.5467 32.1473 38.6112L30.9966 60.6416C30.9796 60.9733 30.7071 61.2309 30.3808 61.2309ZM26.4961 59.7946L29.7963 59.9566L30.9147 38.5475C30.9331 38.1712 30.6422 37.8481 30.2667 37.83L28.3288 37.7348C28.1435 37.7253 27.9721 37.789 27.8374 37.9122C27.7027 38.0354 27.6235 38.2046 27.6145 38.3878L26.4961 59.7946Z" fill="#5E2323"/>
<path d="M24.2003 60.1222L19.6943 60.6718L17.1531 38.7623C17.0667 38.0439 17.5747 37.3914 18.2868 37.3043L20.213 37.0692C20.9255 36.9821 21.5727 37.4943 21.6591 38.2122L24.2003 60.1222Z" fill="#FEC828"/>
<g opacity="0.3">
<path opacity="0.3" d="M21.84 38.203L24.3808 60.1103L19.8766 60.6613L19.8654 60.5697L22.6801 60.2249L20.9919 45.4262L20.6361 42.4538L20.1393 38.3177C20.0726 37.7653 19.6806 37.3357 19.1807 37.2071L20.3935 37.0582C21.1074 36.9725 21.755 37.4833 21.84 38.203Z" fill="#5E2323"/>
</g>
<g opacity="0.55">
<path opacity="0.55" d="M18.4329 38.8422L20.9459 60.5203L19.6964 60.6732L17.1552 38.7642C17.0684 38.0449 17.5754 37.3937 18.2888 37.3062L20.2133 37.0715C20.4876 37.0368 20.7517 37.0945 20.9777 37.2137L19.5666 37.3842C18.8568 37.4713 18.3497 38.1225 18.4329 38.8422Z" fill="white"/>
</g>
<path d="M19.6941 61.2949C19.5563 61.2949 19.4216 61.2484 19.3119 61.1613C19.183 61.0589 19.0998 60.9091 19.0805 60.7444L16.5393 38.8349C16.4127 37.7794 17.1632 36.8146 18.2123 36.6869L20.1385 36.4518C21.1876 36.3228 22.1445 37.0804 22.2716 38.1381L24.8128 60.0504C24.8521 60.3906 24.6114 60.6993 24.2735 60.7408L19.7675 61.2904C19.7433 61.2935 19.7187 61.2949 19.6941 61.2949ZM20.3699 37.6833C20.3426 37.6833 20.3149 37.6851 20.2871 37.6882L18.3609 37.9233C17.9881 37.9689 17.7209 38.3123 17.7661 38.6887L20.2357 59.98L23.5158 59.5797L21.0462 38.2861C21.0045 37.9396 20.7096 37.6833 20.3699 37.6833Z" fill="#5E2323"/>
<path d="M39.8564 50.0823L35.3594 49.4609L37.4539 34.0503C37.5515 33.3337 38.2067 32.8319 38.9174 32.9303L40.8401 33.1961C41.5508 33.2944 42.0485 33.9551 41.9509 34.6717L39.8564 50.0823Z" fill="#FEC828"/>
<g opacity="0.3">
<path opacity="0.3" d="M40.0362 50.1175L35.541 49.4966L35.5518 49.4055L38.3619 49.7931L39.492 41.4766C38.9648 40.3778 39.0892 39.3877 39.8948 38.5128L40.456 34.3829C40.5308 33.8338 40.2591 33.3175 39.808 33.0635L41.0195 33.2318C41.7315 33.3297 42.2279 33.9894 42.1307 34.7074L40.0362 50.1175Z" fill="#6B184E"/>
<path opacity="0.3" d="M40.1351 50.25L35.4121 49.5975L35.4497 49.2739L38.2621 49.662L39.372 41.4962C38.8439 40.3708 38.9827 39.3501 39.7842 38.4616L40.3405 34.3678C40.4072 33.8773 40.1758 33.4058 39.7511 33.1666L39.2145 32.8643L41.0347 33.117C41.4097 33.1684 41.7423 33.3642 41.9705 33.6675C42.1988 33.9707 42.2963 34.3462 42.2449 34.7243L40.1351 50.25ZM38.4796 49.7848L39.9364 49.986L42.0153 34.6914C42.0582 34.375 41.9768 34.061 41.7857 33.8074C41.595 33.5538 41.3171 33.3904 41.0029 33.3471L40.2125 33.2374C40.4931 33.5434 40.6297 33.9649 40.5701 34.3985L40.004 38.5649L39.9789 38.592C39.2082 39.4295 39.0829 40.3563 39.5958 41.4254L39.611 41.4569L38.4796 49.7848Z" fill="#5E2323"/>
</g>
<g opacity="0.55">
<path opacity="0.55" d="M38.6713 34.4543L36.6077 49.6339L35.3604 49.4624L37.4544 34.0523C37.5516 33.3343 38.2059 32.8339 38.9179 32.9323L40.8384 33.1976C41.1127 33.2341 41.3535 33.3573 41.5424 33.5306L40.1344 33.3343C39.4259 33.2364 38.7716 33.7368 38.6713 34.4543Z" fill="white"/>
</g>
<path d="M39.8582 50.705C39.8304 50.705 39.8022 50.7032 39.7736 50.6991L35.2766 50.0778C35.1146 50.0552 34.9678 49.969 34.8689 49.8373C34.77 49.7055 34.7265 49.5399 34.7489 49.3765L36.8435 33.9659C36.9871 32.9104 37.9574 32.1695 39.0024 32.3139L40.9251 32.5797C41.9719 32.7241 42.7068 33.7006 42.5636 34.7565L40.4691 50.1671C40.4266 50.4789 40.1616 50.705 39.8582 50.705ZM36.0562 48.9289L39.3296 49.381L41.3404 34.5873C41.3915 34.2118 41.1301 33.8644 40.7577 33.8129L38.8351 33.5471C38.4627 33.4948 38.1181 33.7592 38.0671 34.1351L36.0562 48.9289Z" fill="#5E2323"/>
<path d="M26.5859 59.5714L22.0535 59.8169L21.2255 44.2845C21.187 43.562 21.7366 42.9447 22.4532 42.9059L24.3906 42.8007C25.1071 42.7619 25.7189 43.3161 25.7579 44.0385L26.5859 59.5714Z" fill="#FEC828"/>
<g opacity="0.3">
<path opacity="0.3" d="M26.7692 59.5725L22.2387 59.818L22.2324 59.7264L25.0645 59.5725L24.6174 51.1906C23.8942 50.2118 23.8311 49.2164 24.4581 48.2033L24.2361 44.0405C24.207 43.4873 23.8432 43.032 23.3526 42.8682L24.574 42.8027C25.2919 42.7635 25.9023 43.3167 25.9413 44.0405L26.7692 59.5725Z" fill="#5E2323"/>
</g>
<g opacity="0.55">
<path opacity="0.55" d="M22.4977 44.4495L23.3127 59.7487L22.056 59.8173L21.2275 44.2853C21.1886 43.5614 21.7373 42.9459 22.4552 42.9067L24.3908 42.802C24.667 42.7857 24.9265 42.8611 25.1445 42.9951L23.7253 43.0705C23.011 43.1102 22.4623 43.7261 22.4977 44.4495Z" fill="white"/>
</g>
<path d="M22.0541 60.4391C21.7283 60.4391 21.4557 60.1819 21.4383 59.8498L20.6103 44.3173C20.5826 43.802 20.7562 43.3065 21.0981 42.9225C21.4405 42.5385 21.91 42.3115 22.4215 42.284L24.359 42.1789C24.8714 42.15 25.3615 42.3255 25.7424 42.6707C26.1232 43.0155 26.3483 43.4893 26.3756 44.0051L27.2036 59.5375C27.2126 59.7022 27.1562 59.8638 27.0465 59.987C26.9369 60.1097 26.7838 60.1837 26.6205 60.1927L22.0881 60.4382C22.0765 60.4391 22.0653 60.4391 22.0541 60.4391ZM24.4624 43.4216C24.4498 43.4216 24.4373 43.422 24.4252 43.4225L22.4878 43.5276C22.3056 43.5376 22.1387 43.6183 22.017 43.7546C21.8957 43.8914 21.8335 44.0673 21.8433 44.251L22.6382 59.1616L25.9375 58.9829L25.1426 44.0723C25.1328 43.8891 25.0527 43.7203 24.9175 43.5976C24.7913 43.4834 24.6311 43.4216 24.4624 43.4216Z" fill="#5E2323"/>
<path d="M34.0459 66.34L29.5332 65.8504L31.9603 43.9278C32.0368 43.2085 32.6777 42.6882 33.3911 42.7654L35.3205 42.9748C36.0339 43.0519 36.5499 43.6981 36.4734 44.4174L34.0459 66.34Z" fill="#FEC828"/>
<g opacity="0.3">
<path opacity="0.3" d="M36.6522 44.4499L34.2252 66.3702L29.7139 65.8824L29.7237 65.7908L32.5428 66.0954L34.2095 51.2944L34.5277 48.3175L34.9695 44.175C35.0281 43.6218 34.7421 43.1142 34.2843 42.875L35.4989 43.0059C36.2136 43.0844 36.7301 43.7297 36.6522 44.4499Z" fill="#5E2323"/>
</g>
<g opacity="0.55">
<path opacity="0.55" d="M33.1875 44.2962L30.785 65.9869L29.5332 65.8519L31.9598 43.9298C32.0364 43.2091 32.6759 42.6902 33.3906 42.7674L35.3178 42.9763C35.593 43.0047 35.8374 43.1211 36.0307 43.2886L34.6178 43.1338C33.9067 43.0571 33.2671 43.576 33.1875 44.2962Z" fill="white"/>
</g>
<path d="M34.0456 66.9626C34.0237 66.9626 34.0013 66.9612 33.9789 66.959L29.4663 66.4694C29.3029 66.4518 29.1534 66.3692 29.0509 66.2401C28.948 66.1111 28.9006 65.9459 28.9189 65.7817L31.346 43.8591C31.4006 43.3483 31.6503 42.8875 32.0486 42.5635C32.4469 42.2395 32.9487 42.092 33.4562 42.147L35.3856 42.3564C36.4364 42.4706 37.1995 43.425 37.0863 44.4845L34.6592 66.4098C34.6234 66.727 34.3562 66.9626 34.0456 66.9626ZM30.2146 65.2984L33.4996 65.6549L35.8582 44.3482C35.898 43.9737 35.6268 43.6343 35.2526 43.5937L33.3233 43.3843C33.142 43.3645 32.9643 43.4173 32.8224 43.5324C32.6806 43.6474 32.592 43.8117 32.5723 43.994L30.2146 65.2984Z" fill="#5E2323"/>
<path d="M47.042 61.5968L42.5293 61.1072L44.9564 39.1847C45.0329 38.4654 45.6738 37.9451 46.3872 38.0222L48.3166 38.2316C49.03 38.3088 49.546 38.955 49.4695 39.6743L47.042 61.5968Z" fill="#FEC828"/>
<g opacity="0.3">
<path opacity="0.3" d="M49.6483 39.7057L47.2213 61.6261L42.71 61.1383L42.7198 61.0467L45.5389 61.3513L47.2056 46.5503L47.5238 43.5734L47.9655 39.4309C48.0242 38.8777 47.7382 38.37 47.2803 38.1309L48.495 38.2617C49.2097 38.3402 49.7262 38.9851 49.6483 39.7057Z" fill="#5E2323"/>
</g>
<g opacity="0.55">
<path opacity="0.55" d="M46.1835 39.553L43.7811 61.2437L42.5293 61.1088L44.9559 39.1866C45.0324 38.466 45.672 37.947 46.3867 38.0242L48.3139 38.2331C48.5891 38.2616 48.8335 38.378 49.0268 38.5454L47.6139 38.3906C46.9028 38.3135 46.2632 38.8328 46.1835 39.553Z" fill="white"/>
</g>
<path d="M47.0431 62.2196C47.0212 62.2196 46.9988 62.2182 46.9764 62.2159L42.4633 61.7263C42.3 61.7087 42.1505 61.6262 42.048 61.4971C41.9451 61.3681 41.8976 61.2029 41.916 61.0386L44.343 39.116C44.3976 38.6052 44.6474 38.1445 45.0457 37.8205C45.4445 37.4965 45.9453 37.3485 46.4532 37.404L48.3826 37.6134C49.4335 37.7275 50.1961 38.6819 50.0833 39.7415L47.6563 61.6668C47.6209 61.984 47.3537 62.2196 47.0431 62.2196ZM43.2116 60.5553L46.4967 60.9118L48.8557 39.6052C48.8955 39.2307 48.6243 38.8913 48.2506 38.8507L46.3212 38.6413C46.1404 38.621 45.9623 38.6743 45.8204 38.7893C45.6785 38.9044 45.5899 39.0687 45.5702 39.251L43.2116 60.5553Z" fill="#5E2323"/>
<path d="M45.0941 58.5894L40.5573 58.7325L40.0749 43.1856C40.0525 42.4627 40.6155 41.858 41.3329 41.8355L43.2726 41.7741C43.9896 41.7515 44.5893 42.3192 44.6117 43.0426L45.0941 58.5894Z" fill="#FEC828"/>
<g opacity="0.3">
<path opacity="0.3" d="M45.2758 58.5939L40.7408 58.7369L40.7363 58.6453L43.5711 58.5555L43.3106 50.1655C42.6093 49.1705 42.5682 48.1736 43.218 47.1755L43.0887 43.0091C43.0716 42.455 42.7181 41.992 42.2316 41.8169L43.4539 41.779C44.1722 41.756 44.7705 42.3232 44.7934 43.0475L45.2758 58.5939Z" fill="#5E2323"/>
</g>
<g opacity="0.55">
<path opacity="0.55" d="M41.3425 43.379L41.8174 58.693L40.5593 58.7332L40.0768 43.1867C40.054 42.4625 40.6166 41.8592 41.3349 41.8362L43.2723 41.7752C43.5489 41.7653 43.8067 41.8461 44.0216 41.9855L42.601 42.0288C41.8849 42.0519 41.3228 42.6547 41.3425 43.379Z" fill="white"/>
</g>
<path d="M40.5582 59.3549C40.4011 59.3549 40.2503 59.2949 40.1357 59.1861C40.0162 59.0733 39.9464 58.9167 39.941 58.752L39.459 43.2047C39.4429 42.6889 39.6273 42.1975 39.9777 41.8211C40.3281 41.4448 40.803 41.2291 41.315 41.2129L43.2542 41.1519C43.7599 41.1398 44.2531 41.3216 44.6264 41.6749C44.9992 42.0283 45.2136 42.5071 45.2297 43.0233L45.7122 58.5702C45.7229 58.9136 45.4553 59.201 45.1142 59.2119L40.5774 59.3549C40.5711 59.3549 40.5644 59.3549 40.5582 59.3549ZM43.3142 42.3956C43.307 42.3956 43.2999 42.3956 43.2923 42.396L41.353 42.457C41.1709 42.4628 41.0021 42.5395 40.8777 42.6731C40.7529 42.8071 40.6875 42.9818 40.6933 43.1654L41.1561 58.0905L44.4586 57.9862L43.9954 43.0616C43.9895 42.878 43.9135 42.7079 43.781 42.582C43.6534 42.4615 43.4887 42.3956 43.3142 42.3956Z" fill="#5E2323"/>
<path d="M38.0447 63.4545L33.6162 62.4523L36.9952 47.2754C37.1523 46.5697 37.8474 46.1256 38.5473 46.284L40.4405 46.7127C41.1404 46.8711 41.5808 47.5719 41.4237 48.2776L38.0447 63.4545Z" fill="#FEC828"/>
<g opacity="0.3">
<path opacity="0.3" d="M38.2192 63.5057L33.792 62.5039L33.8103 62.4141L36.578 63.04L38.4013 54.8498C37.9681 53.71 38.1753 52.7344 39.0512 51.9307L39.9566 47.8632C40.0774 47.3226 39.8496 46.7847 39.4213 46.4932L40.6145 46.7639C41.3158 46.9223 41.7548 47.6217 41.5977 48.3293L38.2192 63.5057Z" fill="#6B184E"/>
<path opacity="0.3" d="M38.3067 63.6455L33.6553 62.5928L33.7206 62.2737L36.4901 62.9001L38.2807 54.8579C37.8488 53.6914 38.0726 52.6865 38.9462 51.8688L39.8436 47.8369C39.9514 47.3541 39.7599 46.8645 39.3566 46.5896L38.8469 46.2422L40.6402 46.6492C41.0094 46.7327 41.3241 46.9556 41.5263 47.2774C41.7282 47.5991 41.794 47.9813 41.7112 48.354L38.3067 63.6455ZM36.6964 63.0413L38.1312 63.3662L41.4847 48.3035C41.5541 47.9917 41.499 47.6722 41.3303 47.4033C41.1616 47.1343 40.8984 46.9479 40.5892 46.878L39.8109 46.7011C40.0651 47.0301 40.1653 47.4615 40.07 47.8883L39.1561 51.992L39.1288 52.0168C38.2906 52.7858 38.0883 53.6986 38.5094 54.8074L38.5219 54.8403L36.6964 63.0413Z" fill="#5E2323"/>
</g>
<g opacity="0.55">
<path opacity="0.55" d="M38.1736 47.7809L34.8447 62.7304L33.6162 62.4529L36.9948 47.2764C37.1519 46.5693 37.8456 46.1267 38.5473 46.285L40.4387 46.7133C40.709 46.7728 40.9386 46.9164 41.1122 47.1054L39.7257 46.79C39.0275 46.6321 38.3334 47.0747 38.1736 47.7809Z" fill="white"/>
</g>
<path d="M38.0444 64.0767C37.9992 64.0767 37.954 64.0718 37.9092 64.0618L33.4802 63.0596C33.3205 63.0235 33.1817 62.9247 33.094 62.7852C33.0063 62.6458 32.9772 62.477 33.013 62.3159L36.392 47.1391C36.5039 46.6355 36.8042 46.2059 37.2365 45.9297C37.6689 45.6536 38.1813 45.5633 38.6817 45.6766L40.5748 46.1053C41.0743 46.2181 41.5003 46.5209 41.7742 46.9568C42.0481 47.3931 42.1377 47.9103 42.0253 48.4139L38.6463 63.5912C38.6101 63.7523 38.5125 63.8922 38.3742 63.9806C38.2753 64.0438 38.1603 64.0767 38.0444 64.0767ZM34.353 61.9807L37.5771 62.7103L40.821 48.1408C40.8608 47.9617 40.8295 47.7776 40.7319 47.6224C40.6343 47.4671 40.4831 47.3597 40.3049 47.3196L38.4118 46.8909C38.2337 46.8503 38.0515 46.8828 37.8976 46.9807C37.7436 47.0791 37.6371 47.2316 37.5973 47.4107L34.353 61.9807Z" fill="#5E2323"/>
<path d="M52.7411 52.276L50.3928 66.9989L49.4963 72.6084L47.3463 86.0872C47.1999 87.0204 46.4011 87.7049 45.4625 87.7049H42.4747C42.088 87.7049 41.7116 87.5871 41.406 87.3511C36.482 83.5494 30.266 83.7488 25.3711 87.338C25.0529 87.5704 24.6761 87.7049 24.2831 87.7049H21.2729C20.3344 87.7049 19.5355 87.0204 19.386 86.0872L17.3367 73.2406L16.3073 66.7796L13.9948 52.276C13.8064 51.1068 14.7028 50.0459 15.8786 50.0459H18.3598C18.9541 50.0459 19.5127 50.3243 19.8734 50.8022C23.3289 55.3702 27.6035 58.0064 33.3684 57.774C39.153 57.7018 43.4074 55.3702 46.8634 50.8022C47.2205 50.3239 47.7826 50.0459 48.377 50.0459H50.8582C52.033 50.0463 52.9295 51.1072 52.7411 52.276Z" fill="#E93B47"/>
<path d="M50.3925 66.9996L49.4961 72.609L47.9503 71.9082L42.3671 74.6622L36.7843 71.9082L31.2011 74.6622L25.6179 71.9082L20.0316 74.6622L17.336 73.2408L16.3066 66.7798L20.0316 68.4634L25.6148 65.709L31.1944 68.4634L36.7776 65.709L42.3639 68.4634L47.9471 65.709L50.3925 66.9996Z" fill="#FFBB34"/>
<g opacity="0.55">
<path opacity="0.55" d="M21.238 86.6247C21.2899 86.9455 21.4165 87.237 21.6018 87.4793H21.0692C20.1307 87.4793 19.3318 86.7948 19.1824 85.8616L13.7907 52.0504C13.6023 50.8812 14.4987 49.8203 15.6745 49.8203H18.1557C18.75 49.8203 19.3086 50.0987 19.6693 50.5766C19.6724 50.5798 19.6724 50.5798 19.6756 50.5834H17.7301C16.5543 50.5834 15.6579 51.6443 15.8463 52.8135L21.238 86.6247Z" fill="white"/>
</g>
<path d="M45.4626 88.4302H42.4747C41.9158 88.4302 41.3953 88.2564 40.9692 87.927C36.4095 84.4064 30.5945 84.405 25.7945 87.9248C25.3416 88.2555 24.8198 88.4302 24.2841 88.4302H21.2729C19.975 88.4302 18.883 87.4934 18.6762 86.2033L13.2851 52.3916C13.1615 51.6258 13.3772 50.8465 13.8767 50.2545C14.3766 49.6615 15.1066 49.3217 15.8786 49.3217H18.3598C19.1856 49.3217 19.9459 49.7017 20.4459 50.3641C24.0057 55.0702 28.2252 57.2583 33.3393 57.0503C38.7833 56.9808 42.8928 54.8559 46.2915 50.3632C46.7779 49.7121 47.5585 49.3213 48.3766 49.3213H50.8578C51.6298 49.3213 52.3593 49.6611 52.8597 50.254C53.3592 50.8461 53.5749 51.6249 53.4514 52.3916L48.0566 86.2023C47.8543 87.4925 46.7632 88.4302 45.4626 88.4302ZM33.4687 83.8689C36.4158 83.8689 39.3334 84.8382 41.8428 86.7759C42.016 86.9095 42.2344 86.9803 42.4743 86.9803H45.4621C46.0507 86.9803 46.5443 86.557 46.6356 85.9745L52.0308 52.1615C52.0308 52.161 52.0308 52.1606 52.0308 52.1606C52.0868 51.814 51.9892 51.4616 51.7632 51.194C51.5368 50.9255 51.206 50.7716 50.8565 50.7716H48.3752C48.006 50.7716 47.6547 50.9462 47.4358 51.2391C43.7444 56.1185 39.2774 58.4243 33.3756 58.4997C33.1317 58.5096 32.8891 58.5146 32.6492 58.5146C27.3753 58.515 22.9978 56.1306 19.3001 51.2427C19.0741 50.9431 18.7313 50.7716 18.3585 50.7716H15.8773C15.5277 50.7716 15.197 50.9255 14.9705 51.194C14.745 51.4616 14.6474 51.814 14.7029 52.1606L20.0945 85.9731C20.1881 86.557 20.6831 86.9808 21.2716 86.9808H24.2827C24.5136 86.9808 24.7437 86.9018 24.9487 86.752C27.5704 84.8296 30.5345 83.8689 33.4687 83.8689Z" fill="white"/>
<path d="M70.1766 45.6246H38.5679C37.6343 45.6246 36.8779 44.8616 36.8779 43.9207V43.8494C36.8779 42.9081 37.6347 42.1455 38.5679 42.1455H70.1766C71.1102 42.1455 71.8665 42.9086 71.8665 43.8494V43.9207C71.8665 44.862 71.1102 45.6246 70.1766 45.6246Z" fill="#FFBF00"/>
<path d="M55.8434 39.2944L52.1426 38.7628L54.1745 26.0295C54.2796 25.2831 54.8167 24.6716 55.539 24.4753L66.6728 21.4529C67.579 21.207 68.5113 21.748 68.7552 22.6618L68.8438 22.993C69.0877 23.9068 68.5511 24.8467 67.6448 25.0927L57.7016 27.792L55.8434 39.2944Z" fill="#E36836"/>
<path d="M55.8446 40.0195C55.8105 40.0195 55.7765 40.0172 55.7421 40.0123L52.0413 39.4807C51.8502 39.4532 51.6783 39.3494 51.5637 39.1928C51.4496 39.0362 51.4022 38.8399 51.4331 38.6477L53.4649 25.9144C53.609 24.8923 54.3506 24.0475 55.3523 23.7754L66.486 20.753C67.7736 20.4037 69.1028 21.1753 69.4496 22.4736L69.5378 22.8052C69.8842 24.103 69.1189 25.4433 67.8318 25.793L58.337 28.3705L56.5535 39.4112C56.4957 39.7664 56.1914 40.0195 55.8446 40.0195ZM52.969 38.1495L55.2475 38.4771L56.9925 27.676C57.0382 27.3949 57.2423 27.1666 57.5153 27.0926L67.4585 24.3932C67.9803 24.2515 68.2905 23.7082 68.15 23.182L68.0618 22.8508C67.9213 22.3247 67.382 22.0111 66.8601 22.1536L55.7264 25.1761C55.2811 25.297 54.9517 25.672 54.8868 26.1323L52.969 38.1495Z" fill="white"/>
<path d="M66.3786 37.9893H42.3661C41.4585 37.9893 40.6748 38.6309 40.4891 39.5267L39.9453 42.1453H68.7989L68.2551 39.5267C68.0694 38.6309 67.2862 37.9893 66.3786 37.9893Z" fill="#FFBF00"/>
<g opacity="0.55">
<path opacity="0.55" d="M40.7716 45.6261H38.5688C37.6343 45.6261 36.8779 44.8635 36.8779 43.9213V43.8486C36.8779 42.9091 37.6343 42.1465 38.5688 42.1465H40.7716C39.8398 42.1465 39.0835 42.9091 39.0835 43.8486V43.9213C39.0835 44.8635 39.8398 45.6261 40.7716 45.6261Z" fill="white"/>
</g>
<g opacity="0.55">
<path opacity="0.55" d="M44.5694 37.9883C43.6609 37.9883 42.8786 38.6322 42.6915 39.5279L42.1482 42.1461H39.9453L40.4886 39.5279C40.6726 38.6318 41.4576 37.9883 42.3639 37.9883H44.5694Z" fill="white"/>
</g>
<path d="M70.1761 46.3494H38.5674C37.239 46.3494 36.1582 45.2596 36.1582 43.9203V43.849C36.1582 42.5097 37.239 41.4199 38.5674 41.4199H70.1761C71.5044 41.4199 72.5848 42.5097 72.5848 43.849V43.9203C72.5852 45.2596 71.5044 46.3494 70.1761 46.3494ZM38.5674 42.8698C38.0321 42.8698 37.5962 43.3088 37.5962 43.849V43.9203C37.5962 44.4604 38.0321 44.8995 38.5674 44.8995H70.1761C70.7113 44.8995 71.1468 44.4604 71.1468 43.9203V43.849C71.1468 43.3093 70.7113 42.8698 70.1761 42.8698H38.5674Z" fill="white"/>
<path d="M68.7984 42.87H39.9448C39.7282 42.87 39.5232 42.7716 39.3867 42.602C39.2502 42.4327 39.1965 42.2103 39.2408 41.9964L39.7841 39.3778C40.0383 38.1526 41.1236 37.2637 42.3651 37.2637H66.3776C67.6186 37.2637 68.7044 38.1526 68.9586 39.3778L69.5019 41.9964C69.5462 42.2103 69.4925 42.4327 69.356 42.602C69.22 42.7716 69.015 42.87 68.7984 42.87ZM40.83 41.4201H67.9136L67.5515 39.6751C67.436 39.1183 66.9424 38.714 66.378 38.714H42.3656C41.8012 38.714 41.3076 39.1183 41.1921 39.6751L40.83 41.4201Z" fill="white"/>
<path d="M68.798 45.6264L67.8492 59.5154L67.2799 67.808L66.2246 83.2453C66.055 85.7271 64.0074 87.6553 61.5401 87.6553H47.2037C44.7363 87.6553 42.6888 85.7271 42.5192 83.2453L41.6218 70.1478L41.0091 61.1851L39.9453 45.626H68.798V45.6264Z" fill="#E93B47"/>
<path d="M67.8498 59.5142L67.2801 67.8073L66.9552 67.6272L62.0433 70.6601L57.1314 67.6272L52.2169 70.6601L47.305 67.6272L42.3905 70.6601L41.6225 70.147L41.0098 61.1843L42.3873 61.9442L47.2992 58.9141L52.2111 61.9442L57.1256 58.9141L62.0375 61.9442L66.9525 58.9141L67.8498 59.5142Z" fill="#FFBF00"/>
<g opacity="0.55">
<path opacity="0.55" d="M48.929 87.6549H47.2037C44.7363 87.6549 42.6888 85.7267 42.5192 83.2448L39.9453 45.626H41.6706L44.2445 83.2448C44.4141 85.7267 46.4616 87.6549 48.929 87.6549Z" fill="white"/>
</g>
<path d="M61.5396 88.3792H47.205C44.3707 88.3792 41.9973 86.1459 41.8022 83.2949L39.2283 45.6752C39.2144 45.4748 39.2842 45.2776 39.4199 45.1305C39.5559 44.9839 39.7461 44.9004 39.9453 44.9004H68.7989C68.998 44.9004 69.1887 44.9839 69.3243 45.1305C69.4603 45.2776 69.5297 45.4744 69.5158 45.6752L66.942 83.2949C66.7473 86.1459 64.3739 88.3792 61.5396 88.3792ZM40.7155 46.3498L43.2366 83.1948C43.3798 85.289 45.123 86.9293 47.205 86.9293H61.5396C63.6216 86.9293 65.3644 85.289 65.5076 83.1948L68.0286 46.3498H40.7155Z" fill="white"/>
</g>
<defs>
<clipPath id="clip0_2089_36107">
<rect x="0.4375" y="0.0615234" width="84.9618" height="84.9618" rx="42.4809" fill="white"/>
</clipPath>
</defs>
</svg>
