<svg width="112" height="112" viewBox="0 0 112 112" fill="none" xmlns="http://www.w3.org/2000/svg">
<g clip-path="url(#clip0_1881_23789)">
<rect x="0.0078125" width="111.394" height="111.394" rx="55.6969" fill="#CFEEE0"/>
<path d="M51.4606 79.8342C51.3561 79.6051 50.824 79.3327 49.983 79.0479L49.6304 80.1762C50.3731 80.1066 51.0035 79.9951 51.4606 79.8342Z" fill="#543423"/>
<path d="M35.8245 77.1672C35.2644 77.2245 34.8992 77.3267 34.7744 77.4737C35.0756 77.6873 35.4766 77.9025 35.9556 78.1145L35.8245 77.1672Z" fill="#543423"/>
<path d="M48.4711 84.6589L47.9889 88.0054C47.9936 88.0472 47.9983 88.089 48.003 88.1292C48.975 96.4505 50.345 104.725 52.1066 112.917L52.0816 112.955L52.0426 112.931C50.2888 104.775 48.9235 96.5387 47.953 88.2546L47.1557 93.7913C47.3429 95.1271 47.5551 96.4583 47.8017 97.7832L47.7751 97.8219L47.7361 97.7956C47.5021 96.5418 47.3024 95.2819 47.1214 94.0204L46.374 99.2119C46.5378 99.8976 46.7016 100.583 46.8655 101.269L46.8405 101.309L46.7999 101.284C46.6486 100.653 46.4988 100.021 46.3474 99.3899L45.4924 105.334C45.5813 105.995 45.6718 106.657 45.7717 107.317C46.2788 110.68 46.97 114.02 47.2665 117.413L47.2368 117.449L47.2009 117.419C46.9045 114.033 46.2148 110.692 45.7062 107.327C45.6188 106.745 45.5361 106.162 45.4565 105.577L44.1942 114.35C44.7153 118.929 45.1304 123.52 45.4284 128.118L45.3972 128.154L45.3613 128.123C45.0695 123.611 44.6623 119.105 44.1552 114.61L43.5732 118.652C43.581 118.764 43.5888 118.876 43.5982 118.989C43.7417 120.812 43.9601 122.63 44.2519 124.434L44.2238 124.471L44.1864 124.444C43.8946 122.636 43.6762 120.817 43.5326 118.992C43.5311 118.98 43.5311 118.969 43.5295 118.956L42.5527 125.747L43.1971 130.398C43.0832 129.575 44.9307 128.618 47.5458 128.049C47.3445 127.073 47.0886 126.111 46.7703 125.166L46.7906 125.125L46.8327 125.145C47.151 126.091 47.4085 127.056 47.6098 128.033C48.1169 127.925 48.6505 127.829 49.206 127.753C50.4917 127.578 51.7009 127.525 52.7198 127.581C51.3077 119.167 49.5976 110.801 47.5973 102.504L47.6222 102.464L47.6628 102.489C49.6647 110.791 51.3748 119.164 52.7885 127.584L52.7869 127.586C53.6014 127.634 54.2895 127.75 54.7951 127.928C54.703 126.577 54.4549 125.236 54.0508 123.942L54.0726 123.902L54.1132 123.924C54.5204 125.231 54.7717 126.587 54.8622 127.953C55.363 128.14 55.6688 128.389 55.7094 128.692L54.664 121.148L49.5804 84.4639C49.2637 84.5444 48.8892 84.6094 48.4711 84.6589ZM48.8128 119.06C48.833 118.667 48.986 118.139 49.4119 118.131H49.4229C49.7989 118.144 49.9674 118.568 50.0485 118.902C50.5525 121.043 50.8037 123.233 51.0019 125.42C51.0191 125.618 51.0362 125.82 51.0362 126.021C51.0362 126.286 51.0066 126.55 50.9083 126.798C50.7507 127.197 50.3653 127.541 49.9362 127.542L49.8083 127.532C49.426 127.467 49.1529 127.149 48.9454 126.841C48.0857 125.563 47.7377 124.026 47.4069 122.532C47.0137 120.755 46.6205 118.978 46.2273 117.2L46.2523 117.161L46.2913 117.186C46.6845 118.963 47.0777 120.74 47.4709 122.518C47.8017 124.012 48.1481 125.541 49 126.804C49.2044 127.109 49.4697 127.408 49.8192 127.465L49.9362 127.474C50.3278 127.476 50.6976 127.151 50.8474 126.772C50.941 126.533 50.9707 126.278 50.9707 126.018C50.9707 125.82 50.9535 125.62 50.9364 125.422C50.7382 123.236 50.487 121.049 49.9846 118.913C49.9066 118.582 49.7365 118.195 49.4213 118.193H49.4119C49.0577 118.187 48.897 118.672 48.8783 119.059C48.8674 119.266 48.8627 119.473 48.8627 119.681C48.8627 121.356 49.1888 123.03 49.8192 124.586C50.0579 124.533 50.2327 124.295 50.2779 124.047L50.2935 123.854C50.2935 123.654 50.2467 123.451 50.1983 123.252C50.1156 122.91 50.0329 122.566 49.9502 122.222L49.9752 122.182L50.0158 122.207C50.0985 122.549 50.1812 122.893 50.2639 123.236C50.3107 123.436 50.3606 123.643 50.3606 123.854L50.3434 124.058C50.2935 124.337 50.0954 124.612 49.8051 124.66L49.7692 124.64C49.128 123.069 48.7972 121.376 48.7972 119.682C48.7972 119.477 48.8018 119.268 48.8128 119.06ZM48.3337 111.514L48.3057 111.551L48.2682 111.524C47.9577 109.245 47.6472 106.968 47.3367 104.69L47.3648 104.653L47.4022 104.68C47.7127 106.959 48.0232 109.236 48.3337 111.514ZM52.9523 116.492L52.9913 116.519C53.3393 118.325 53.8183 120.106 54.4206 121.845L54.4003 121.887L54.3582 121.866C53.7543 120.125 53.2737 118.34 52.9258 116.531L52.9523 116.492Z" fill="#543423"/>
<path d="M37.3142 63.1653C37.1785 63.1653 37.0443 63.1947 36.9086 63.2582C36.4451 63.4795 36.2517 64.0367 36.144 64.5522C35.9692 65.3911 35.8975 66.2471 35.8975 67.1046C35.8975 68.0132 35.977 68.9264 36.0987 69.8273C36.3219 71.499 36.6854 73.1366 37.1332 74.7541L38.6764 64.0259C38.3082 63.5631 37.812 63.1637 37.3142 63.1653Z" fill="#543423"/>
<path d="M38.3335 59.5913C38.5176 60.0773 38.7876 60.5293 39.1261 60.924L39.1948 60.4488C38.9529 60.1129 38.6721 59.8188 38.3335 59.5913Z" fill="#543423"/>
<path d="M35.957 78.1129C36.1598 78.2027 36.3845 78.2894 36.6139 78.3776L37.1116 74.9166C36.6451 73.2495 36.2659 71.5624 36.035 69.838C35.9133 68.9341 35.8337 68.0193 35.8337 67.1061C35.8337 66.2439 35.9055 65.3848 36.0818 64.5397C36.191 64.0196 36.3845 63.4392 36.8823 63.1993C37.0258 63.1312 37.1725 63.1002 37.316 63.1002C37.8309 63.1017 38.3209 63.4856 38.6922 63.9391L38.945 62.187C37.9917 60.667 36.4329 59.5262 34.6791 59.0959L34.6541 59.0556L34.6947 59.0309C36.4407 59.4612 37.9917 60.5849 38.9591 62.0879L39.1135 61.0106C38.725 60.5679 38.4192 60.054 38.2257 59.4999L38.2366 59.4643L38.2741 59.4612C38.6501 59.6903 38.9497 60.0045 39.2071 60.3558L39.5364 58.0634C38.8093 57.4335 37.8575 57.0419 36.9166 56.7555C36.6404 56.6719 36.344 56.5976 36.0647 56.5976C35.8524 56.5976 35.6496 56.6394 35.4702 56.7509L35.4249 56.74L35.4358 56.6951C35.6278 56.576 35.8431 56.5326 36.0647 56.5326C36.3564 56.5326 36.6591 56.6085 36.9369 56.6936C37.8668 56.9784 38.8155 57.3623 39.5489 57.9861L39.967 55.0838C39.9655 55.0869 39.9655 55.09 39.9655 55.0931C39.8609 55.4429 39.5972 55.7695 39.2321 55.8516L39.0386 55.8732C38.4379 55.8701 37.9839 55.2494 37.6031 54.768C36.8651 53.8269 35.8197 53.1258 34.665 52.7914L34.6416 52.7512L34.6822 52.7295C35.8509 53.0669 36.9072 53.7759 37.6546 54.7294C38.0338 55.2138 38.4878 55.8113 39.0371 55.8082L39.2149 55.7881C39.5489 55.7138 39.8016 55.4073 39.8999 55.0745C39.9499 54.9089 39.967 54.7355 39.967 54.5591C39.967 54.3826 39.9483 54.2031 39.9265 54.0282C39.708 52.3673 39.0964 50.7498 38.1087 49.3923C37.7966 48.9605 37.3238 48.5255 36.8417 48.5271C36.7528 48.5271 36.6623 48.541 36.5718 48.5735C36.4922 48.6014 36.4188 48.6447 36.383 48.7113L36.3533 48.8428L36.3642 48.9481C36.4579 49.5115 36.9494 49.9805 37.5158 50.0734C37.4892 49.9139 37.3972 49.7654 37.2521 49.6911L37.238 49.6477L37.2833 49.6338C37.4643 49.7282 37.5875 49.9186 37.5985 50.1214L37.5875 50.1461L37.561 50.1554C36.94 50.0811 36.4017 49.5719 36.3003 48.9605L36.2893 48.8428L36.3268 48.6803C36.3752 48.5921 36.4657 48.5441 36.5515 48.5131C36.6482 48.4775 36.7465 48.4621 36.8433 48.4621C37.366 48.4636 37.845 48.9171 38.1633 49.3552C39.1572 50.7219 39.7735 52.3487 39.992 54.0204C40.0138 54.1984 40.0341 54.3795 40.0341 54.5606C40.0341 54.59 40.0294 54.6179 40.0294 54.6473L40.4148 51.9633C39.5926 49.6694 38.3646 47.5349 36.3049 46.3121C36.0444 46.1588 35.7292 46.0257 35.4452 46.0257C35.286 46.0257 35.1394 46.066 35.0114 46.1635C34.8398 46.295 34.7462 46.5102 34.6791 46.7254C34.5589 47.1061 34.5012 47.5008 34.5012 47.8971C34.5012 49.6013 35.5622 51.3163 37.1694 51.9618L37.1881 52.0051L37.146 52.0237C35.5107 51.3658 34.4372 49.6291 34.4372 47.8986C34.4372 47.4962 34.495 47.0953 34.6182 46.7083C34.6869 46.4901 34.7836 46.261 34.974 46.1139C35.1144 46.0056 35.2782 45.9623 35.4483 45.9623C35.7526 45.9623 36.0771 46.1 36.3424 46.2579C38.388 47.473 39.6128 49.5734 40.4367 51.8333L40.78 49.4527C40.2307 48.3166 39.6035 47.2176 38.9029 46.1666L38.9122 46.1217L38.9575 46.131C39.6425 47.1572 40.2557 48.2299 40.7971 49.3366L41.2559 46.1449C40.7628 44.6636 40.1106 43.2442 39.0776 42.0895L39.0808 42.0431L39.1276 42.0462C40.1402 43.1792 40.7878 44.5599 41.2777 46.0025L42.7975 35.4383L42.6243 34.1846C42.7101 34.8053 42.1952 35.4523 41.2855 36.0157V36.0188C41.2543 36.0389 41.2168 36.0575 41.1841 36.0761C41.1014 36.1256 41.0156 36.1751 40.9266 36.2231C40.8689 36.2541 40.8096 36.2835 40.7503 36.3144C40.6614 36.3593 40.5693 36.4042 40.4741 36.4475C40.4086 36.477 40.3431 36.5079 40.2744 36.5373C40.1777 36.5791 40.0794 36.6194 39.9779 36.6596C39.9062 36.689 39.8328 36.7169 39.7595 36.7447C39.6565 36.7834 39.5504 36.8206 39.4443 36.8562C39.3663 36.8825 39.2883 36.9088 39.2087 36.9351C39.0979 36.9707 38.984 37.0032 38.8701 37.0357C38.789 37.059 38.7078 37.0837 38.6236 37.1054C38.5019 37.1379 38.3771 37.1673 38.2538 37.1983C38.1727 37.2184 38.0931 37.2385 38.0104 37.2571C37.8699 37.288 37.7264 37.3159 37.5828 37.3438C37.5111 37.3577 37.4424 37.3732 37.3691 37.3856C37.1506 37.4242 36.9291 37.4598 36.7044 37.4908C36.4313 37.528 36.1645 37.5558 35.8993 37.5775C35.8244 37.5837 35.7495 37.5899 35.6761 37.5945C35.4639 37.61 35.2564 37.6208 35.052 37.6255C34.9974 37.627 34.9428 37.6301 34.8882 37.6317C34.6401 37.6363 34.3982 37.6332 34.1626 37.6255C34.1018 37.6239 34.044 37.6193 33.9847 37.6162C33.7991 37.6069 33.6196 37.5945 33.4433 37.5775C33.3825 37.5713 33.32 37.5666 33.2607 37.5589C33.0423 37.5341 32.8301 37.5047 32.6288 37.4691C32.6038 37.4645 32.5804 37.4583 32.5555 37.4537C32.3776 37.4196 32.2091 37.3809 32.0468 37.3376C31.9953 37.3236 31.947 37.3097 31.897 37.2958C31.7425 37.2509 31.5943 37.2014 31.457 37.1487C31.4352 37.141 31.4118 37.1332 31.3915 37.1255C31.237 37.0636 31.0966 36.9939 30.9671 36.9212C30.9546 36.915 30.939 36.9088 30.9281 36.9026L30.9265 36.8964C30.4584 36.624 30.1635 36.285 30.1089 35.8903L31.7784 47.9435L35.829 77.1718L35.957 78.1129ZM33.1546 41.0911L33.1858 41.0571L33.2202 41.088C33.2311 41.2753 33.2358 41.4642 33.2358 41.653C33.2358 42.8836 33.0111 44.1157 32.5773 45.2673L32.5352 45.2858L32.5165 45.244C32.9487 44.0986 33.1718 42.8758 33.1718 41.653C33.1702 41.4642 33.1656 41.2769 33.1546 41.0911ZM36.954 44.1822C36.7434 44.1822 36.5249 44.1033 36.3642 43.964C36.0615 43.6993 35.9414 43.2937 35.8852 42.9068C35.8524 42.6947 35.8384 42.4796 35.8384 42.2644C35.8384 41.8991 35.8837 41.5354 35.9726 41.1809L36.0132 41.1577L36.0366 41.1979C35.9492 41.5462 35.9039 41.9053 35.9039 42.266C35.9039 42.478 35.9195 42.6885 35.9507 42.8975C36.0054 43.2767 36.1255 43.6668 36.4079 43.9144C36.5546 44.0429 36.759 44.1172 36.954 44.1172C37.1304 44.1172 37.2989 44.0568 37.4128 43.9253C37.536 43.7829 37.5782 43.5801 37.6047 43.382C37.6359 43.1451 37.6515 42.9052 37.6515 42.6669C37.6515 41.7227 37.4081 40.78 36.9509 39.9519C36.6623 40.376 36.5156 40.8868 36.5156 41.4007C36.5156 42.0353 36.734 42.6715 37.16 43.1451L37.1569 43.1916L37.1101 43.1885C36.6716 42.7009 36.4501 42.0493 36.4501 41.4007C36.4501 40.8559 36.6076 40.311 36.9275 39.8637L36.9556 39.8497L36.9821 39.8668C37.4643 40.7166 37.717 41.6902 37.717 42.6653C37.717 42.9068 37.7014 43.1498 37.6702 43.3897C37.6437 43.5909 37.6016 43.8045 37.4627 43.9671C37.3332 44.1157 37.146 44.1822 36.954 44.1822ZM32.4244 39.4535C32.6694 39.1346 33.0719 38.9195 33.4683 38.9195C33.6165 38.9195 33.7647 38.9504 33.9036 39.0185C34.3608 39.2461 34.5589 39.7754 34.6463 40.2599C34.7306 40.7367 34.7602 41.232 35.0005 41.636C35.2798 41.5756 35.4717 41.2908 35.556 41.0029C35.6434 40.7057 35.659 40.3791 35.7963 40.085C36.0397 39.568 36.617 39.308 37.1943 39.308C37.4175 39.308 37.6421 39.3467 37.8497 39.4256C38.5861 39.7058 39.1088 40.3513 39.5145 41.0091C39.6035 41.1546 39.7158 41.3078 39.8625 41.3078C39.967 41.3078 40.0622 41.2382 40.1309 41.1515C40.3587 40.8621 40.3618 40.4271 40.3899 40.0185C40.418 39.6129 40.4757 39.2229 40.8455 39.0541L40.8876 39.0665C41.0546 39.3188 41.22 39.5696 41.3869 39.8219C41.3854 39.7755 41.3822 39.729 41.3822 39.6826C41.3822 38.791 41.635 37.8994 42.1094 37.141L42.1312 37.1255L42.1577 37.1317C42.2701 37.2199 42.3824 37.3082 42.4948 37.3964L42.4994 37.4428L42.4526 37.4475C42.3512 37.367 42.2498 37.2865 42.1468 37.2075C41.6927 37.949 41.4478 38.8142 41.4478 39.681C41.4478 39.7646 41.4509 39.8497 41.4556 39.9333L41.4322 39.9658L41.3947 39.9535C41.2137 39.6779 41.0327 39.404 40.8502 39.13C40.5428 39.2863 40.4835 39.6269 40.4554 40.0231C40.4258 40.4271 40.4289 40.876 40.1824 41.1933C40.1075 41.2877 39.9967 41.3744 39.8609 41.3744C39.6659 41.3682 39.5473 41.1886 39.4568 41.0447C39.0542 40.39 38.5378 39.7584 37.8247 39.4875C37.6265 39.4117 37.4097 39.3746 37.1928 39.3746C36.6342 39.3746 36.0818 39.6253 35.854 40.1129C35.7229 40.3915 35.7073 40.7135 35.6168 41.0215C35.5263 41.3295 35.3204 41.6515 34.988 41.7103L34.9537 41.6948C34.69 41.2676 34.6666 40.7506 34.5792 40.2723C34.4934 39.794 34.2984 39.2863 33.8724 39.0774C33.7444 39.0139 33.6071 38.9845 33.4667 38.9845C33.0954 38.9845 32.7084 39.1904 32.4759 39.4937C32.1607 39.9024 32.0702 40.4441 32.0702 40.9689V41.0045L32.0374 41.037L32.0047 41.0045V40.9689C32.0047 40.4364 32.0952 39.8792 32.4244 39.4535ZM33.8662 56.2478L33.8646 56.1859C33.8646 55.7246 34.1408 55.2757 34.5558 55.0668C34.6884 55.0002 34.8336 54.9461 34.8804 54.83L34.8991 54.7402C34.9038 54.5699 34.6682 54.3966 34.4716 54.2836C33.7101 53.8393 33.2202 52.9818 33.2202 52.1073L33.2233 52.0067C33.2311 51.8395 33.281 51.6243 33.4667 51.5717L33.54 51.5609C33.6539 51.5624 33.7569 51.6151 33.8505 51.6135L33.8818 51.612C34.0159 51.5965 34.094 51.4556 34.094 51.3008L34.0518 51.1182C33.9551 50.9278 33.7569 50.804 33.59 50.6445C33.2077 50.2731 33.0782 49.7731 33.0782 49.2468C33.0782 48.7376 33.1983 48.2005 33.331 47.716L33.3715 47.6928L33.3949 47.733C33.2639 48.2144 33.1453 48.7469 33.1453 49.2453C33.1453 49.7623 33.2717 50.2405 33.6368 50.5966C33.7959 50.7513 34.0035 50.8767 34.1111 51.0872L34.1611 51.3008C34.1611 51.4726 34.0721 51.6522 33.8911 51.677L33.8505 51.6785C33.7351 51.677 33.6305 51.6243 33.54 51.6259L33.4839 51.6336C33.3497 51.6661 33.2951 51.8488 33.2888 52.0098L33.2857 52.1073C33.2857 52.957 33.7647 53.796 34.5043 54.2263C34.7009 54.3439 34.9599 54.5111 34.9646 54.7386L34.9412 54.8532C34.8741 55.0033 34.7103 55.0575 34.5855 55.1225C34.1938 55.3191 33.9301 55.7478 33.9317 56.1828L33.9332 56.2385C33.9551 56.692 34.2703 57.1208 34.6978 57.2833L34.7165 57.3251L34.6744 57.3437C34.2203 57.175 33.8911 56.7261 33.8662 56.2478ZM35.2377 62.0678L35.2096 62.0306L35.247 62.0028C35.6714 62.0631 36.0506 62.3588 36.2082 62.755L36.1895 62.7968L36.1473 62.7782C35.9976 62.4052 35.6356 62.1235 35.2377 62.0678Z" fill="#543423"/>
<path d="M33.9799 37.6117C33.7942 37.6024 33.6148 37.59 33.4385 37.573C33.6148 37.59 33.7958 37.6024 33.9799 37.6117Z" fill="#543423"/>
<path d="M39.7566 36.7385C39.6536 36.7772 39.5475 36.8144 39.4414 36.85C39.5491 36.8144 39.6536 36.7772 39.7566 36.7385Z" fill="#543423"/>
<path d="M40.2716 36.5312C40.1748 36.573 40.0765 36.6133 39.9751 36.6535C40.0765 36.6148 40.1748 36.573 40.2716 36.5312Z" fill="#543423"/>
<path d="M36.7011 37.4863C36.4281 37.5235 36.1613 37.5513 35.896 37.573C36.1613 37.5498 36.4296 37.5235 36.7011 37.4863Z" fill="#543423"/>
<path d="M40.7474 36.3083C40.6584 36.3532 40.5664 36.3981 40.4712 36.4415C40.5664 36.3981 40.6569 36.3548 40.7474 36.3083Z" fill="#543423"/>
<path d="M41.1793 36.0715C41.0966 36.1211 41.0108 36.1706 40.9219 36.2186C41.0124 36.169 41.0966 36.1211 41.1793 36.0715Z" fill="#543423"/>
<path d="M39.2058 36.929C39.095 36.9646 38.9811 36.9971 38.8672 37.0296C38.9811 36.9971 39.095 36.9646 39.2058 36.929Z" fill="#543423"/>
<path d="M38.6203 37.1008C38.4986 37.1333 38.3738 37.1627 38.2505 37.1937C38.3753 37.1627 38.5001 37.1333 38.6203 37.1008Z" fill="#543423"/>
<path d="M33.2564 37.5544C33.038 37.5296 32.8258 37.5002 32.6245 37.4646C32.8258 37.5002 33.038 37.5296 33.2564 37.5544Z" fill="#543423"/>
<path d="M37.3659 37.3811C37.1474 37.4198 36.9259 37.4554 36.7012 37.4864C36.9274 37.4554 37.149 37.4198 37.3659 37.3811Z" fill="#543423"/>
<path d="M38.0076 37.251C37.8672 37.2819 37.7236 37.3098 37.5801 37.3377C37.7236 37.3098 37.8672 37.2819 38.0076 37.251Z" fill="#543423"/>
<path d="M31.8926 37.2911C31.7382 37.2462 31.5899 37.1967 31.4526 37.144C31.5915 37.1982 31.7382 37.2462 31.8926 37.2911Z" fill="#543423"/>
<path d="M35.6734 37.5898C35.4612 37.6053 35.2537 37.6162 35.0493 37.6208C35.2537 37.6146 35.4612 37.6053 35.6734 37.5898Z" fill="#543423"/>
<path d="M31.3868 37.1211C31.2323 37.0592 31.0919 36.9895 30.9624 36.9167C31.0919 36.9895 31.2323 37.0576 31.3868 37.1211Z" fill="#543423"/>
<path d="M34.8852 37.627C34.6371 37.6317 34.3953 37.6286 34.1597 37.6208C34.3953 37.6286 34.6371 37.6317 34.8852 37.627Z" fill="#543423"/>
<path d="M32.5507 37.4491C32.3728 37.415 32.2043 37.3763 32.042 37.333C32.2043 37.3763 32.3728 37.415 32.5507 37.4491Z" fill="#543423"/>
<path d="M30.9222 36.8918L30.7084 35.3455L30.7303 35.3424C30.8364 34.5345 32.96 33.6212 35.6578 33.2528C38.3571 32.8844 40.6508 33.1971 40.9722 33.9463L40.9941 33.9432L41.2796 36.0111C42.1893 35.4461 42.7042 34.8007 42.6184 34.18C42.4311 32.8256 39.4774 32.109 36.0198 32.581C32.5652 33.0501 29.9173 34.5314 30.1046 35.8857C30.1592 36.2804 30.4541 36.6194 30.9222 36.8918Z" fill="#543423"/>
<path d="M40.9938 33.9431L40.9719 33.9462C40.9891 33.9865 41.0047 34.0252 41.0109 34.0669C41.1264 34.9028 38.9185 35.895 36.0772 36.2835C33.2358 36.6704 30.8407 36.3067 30.7237 35.4693C30.7175 35.4275 30.7221 35.3857 30.7284 35.3439L30.7065 35.347L30.9203 36.8933L30.9219 36.8995C30.9344 36.9057 30.95 36.9119 30.9609 36.9181C31.0904 36.9909 31.2308 37.059 31.3853 37.1224C31.4056 37.1302 31.4305 37.1379 31.4508 37.1456C31.5881 37.1983 31.7364 37.2478 31.8908 37.2927C31.9392 37.3066 31.9891 37.3206 32.0406 37.3345C32.2029 37.3778 32.3714 37.4165 32.5493 37.4506C32.5743 37.4552 32.5977 37.4614 32.6226 37.4661C32.8239 37.5032 33.0361 37.5311 33.2546 37.5558C33.3138 37.562 33.3763 37.5682 33.4371 37.5744C33.6134 37.5914 33.7944 37.6038 33.9785 37.6131C34.0378 37.6162 34.0956 37.6193 34.1564 37.6224C34.392 37.6301 34.6339 37.6332 34.882 37.6286C34.9366 37.627 34.9912 37.6239 35.0458 37.6224C35.2502 37.6162 35.4593 37.6054 35.6699 37.5914C35.7448 37.5868 35.8182 37.5806 35.8931 37.5744C36.1583 37.5512 36.4251 37.5249 36.6982 37.4877C36.9229 37.4568 37.1445 37.4212 37.3629 37.3825C37.4347 37.3701 37.5049 37.3546 37.5767 37.3407C37.7202 37.3128 37.8638 37.285 38.0042 37.254C38.0869 37.2354 38.1665 37.2153 38.2476 37.1952C38.3724 37.1658 38.4973 37.1348 38.6174 37.1023C38.7017 37.0791 38.7812 37.0559 38.8639 37.0326C38.9778 37.0001 39.0917 36.9661 39.2025 36.932C39.2821 36.9073 39.3601 36.8794 39.4381 36.8531C39.5458 36.8175 39.6503 36.7803 39.7533 36.7417C39.8282 36.7138 39.9 36.6859 39.9718 36.6565C40.0732 36.6163 40.1715 36.576 40.2682 36.5342C40.3353 36.5048 40.4024 36.4754 40.4679 36.4445C40.5631 36.4011 40.6536 36.3562 40.7441 36.3113C40.8034 36.2819 40.8627 36.251 40.9204 36.22C41.0094 36.172 41.0952 36.1225 41.1779 36.073C41.2107 36.0544 41.2465 36.0358 41.2793 36.0157V36.0126L40.9938 33.9431Z" fill="#543423"/>
<path d="M36.0789 36.2835C38.9187 35.895 41.1281 34.9028 41.0126 34.067C41.0064 34.0252 40.9908 33.985 40.9736 33.9463C40.6506 33.1971 38.357 32.8844 35.6576 33.2528C32.9582 33.6212 30.8346 34.536 30.7301 35.3424C30.7238 35.3842 30.7207 35.4276 30.7254 35.4678C30.8424 36.3068 33.2375 36.6705 36.0789 36.2835Z" fill="#543423"/>
<path d="M45.709 107.326C46.2161 110.691 46.9074 114.031 47.2038 117.418L47.2397 117.447L47.2694 117.412C46.9729 114.02 46.2817 110.678 45.7746 107.315C45.6747 106.655 45.5842 105.995 45.4953 105.332L45.4609 105.573C45.539 106.16 45.6217 106.744 45.709 107.326Z" fill="#543423"/>
<path d="M36.0988 69.8303C35.9771 68.9279 35.8976 68.0162 35.8976 67.1076C35.8976 66.2485 35.9678 65.3941 36.1441 64.5552C36.2502 64.0397 36.4452 63.481 36.9087 63.2612C37.0428 63.1961 37.1786 63.1683 37.3143 63.1683C37.8105 63.1667 38.3083 63.5661 38.6781 64.032L38.6905 63.9422C38.3192 63.4887 37.8292 63.1048 37.3143 63.1033C37.1692 63.1033 37.0241 63.1342 36.8806 63.2023C36.3828 63.4423 36.1893 64.0227 36.0801 64.5428C35.9038 65.3879 35.832 66.247 35.832 67.1091C35.832 68.0224 35.9116 68.9372 36.0333 69.8411C36.2642 71.5654 36.6434 73.2526 37.1099 74.9197L37.1333 74.7602C36.6871 73.1381 36.3235 71.5004 36.0988 69.8303Z" fill="#543423"/>
<path d="M52.7661 127.623L52.7927 127.586L52.7942 127.584C51.3806 119.164 49.6705 110.791 47.6686 102.489L47.628 102.464L47.603 102.504C49.6034 110.801 51.3119 119.167 52.7256 127.581C52.7271 127.586 52.7271 127.59 52.7287 127.595L52.7661 127.623Z" fill="#543423"/>
<path d="M52.0442 112.931L52.0832 112.955L52.1082 112.917C50.3466 104.725 48.9766 96.4505 48.0045 88.1292C47.9998 88.0874 47.9952 88.0456 47.9905 88.0054L47.9546 88.2561C48.9251 96.5387 50.2888 104.776 52.0442 112.931Z" fill="#543423"/>
<path d="M36.3392 46.2549C36.074 46.0985 35.7494 45.9608 35.4452 45.9592C35.2767 45.9592 35.1113 46.0026 34.9708 46.1109C34.7805 46.258 34.6853 46.487 34.6151 46.7053C34.4918 47.0923 34.4341 47.4947 34.4341 47.8956C34.4341 49.6261 35.5091 51.3628 37.1428 52.0207L37.1849 52.0021L37.1662 51.9587C35.5591 51.3133 34.4981 49.5983 34.4981 47.8941C34.4981 47.4978 34.5558 47.1031 34.6759 46.7223C34.743 46.5072 34.8366 46.292 35.0083 46.1604C35.1362 46.0629 35.2829 46.0227 35.4421 46.0227C35.726 46.0227 36.0428 46.1543 36.3018 46.309C38.3599 47.5303 39.5894 49.6648 40.4117 51.9603L40.4304 51.8287C39.6097 49.5704 38.3833 47.4699 36.3392 46.2549Z" fill="#543423"/>
<path d="M39.1232 42.0417L39.0764 42.0386L39.0732 42.085C40.1062 43.2413 40.7584 44.6607 41.2515 46.1404L41.2717 45.9965C40.7818 44.5554 40.1358 43.1747 39.1232 42.0417Z" fill="#543423"/>
<path d="M32.534 45.2859L32.5761 45.2673C33.0114 44.1142 33.2345 42.8836 33.2345 41.6531C33.2345 41.4642 33.2299 41.2769 33.2189 41.0881L33.1846 41.0571L33.1534 41.0912C33.1643 41.2785 33.169 41.4658 33.169 41.6531C33.169 42.8759 32.9459 44.1002 32.5137 45.2441L32.534 45.2859Z" fill="#543423"/>
<path d="M36.9353 56.6937C36.6576 56.6101 36.3549 56.5327 36.0631 56.5327C35.8415 56.5327 35.6262 56.5776 35.4343 56.6952L35.4233 56.7401L35.4686 56.751C35.648 56.6395 35.8493 56.5977 36.0631 56.5977C36.3439 56.5977 36.6404 56.672 36.915 56.7556C37.8559 57.042 38.8092 57.4336 39.5348 58.0636L39.5457 57.9846C38.8155 57.3624 37.8668 56.977 36.9353 56.6937Z" fill="#543423"/>
<path d="M37.717 42.6655C37.717 41.6903 37.4642 40.7152 36.9821 39.8654L36.9556 39.8484L36.9275 39.8623C36.6061 40.3081 36.45 40.853 36.45 41.3993C36.45 42.0494 36.6716 42.6996 37.11 43.1871L37.1569 43.1902L37.16 43.1438C36.734 42.6701 36.5156 42.034 36.5156 41.3993C36.5156 40.8855 36.6622 40.3762 36.9509 39.9505C37.4081 40.7787 37.6515 41.7213 37.6515 42.6655C37.6515 42.9054 37.6359 43.1438 37.6047 43.3806C37.5781 43.5787 37.5376 43.78 37.4127 43.9239C37.2988 44.0555 37.1319 44.1158 36.954 44.1158C36.759 44.1158 36.5546 44.0415 36.4079 43.9131C36.1255 43.6654 36.0053 43.2754 35.9507 42.8961C35.9195 42.6872 35.9039 42.4751 35.9039 42.2646C35.9039 41.9055 35.9492 41.5464 36.0365 41.1966L36.0131 41.1563L35.9726 41.1796C35.8836 41.534 35.8384 41.8978 35.8384 42.2631C35.8384 42.4782 35.854 42.6918 35.8852 42.9054C35.9414 43.2908 36.0631 43.6964 36.3642 43.9626C36.5249 44.1019 36.7418 44.1809 36.954 44.1809C37.1459 44.1809 37.3332 44.1143 37.4627 43.9673C37.6015 43.8063 37.6437 43.5911 37.6702 43.3899C37.7014 43.15 37.717 42.9085 37.717 42.6655Z" fill="#543423"/>
<path d="M34.6929 59.0325L34.6523 59.0572L34.6773 59.0975C36.4296 59.5293 37.9883 60.6686 38.9432 62.1886L38.9573 62.0895C37.9899 60.5865 36.4389 59.4628 34.6929 59.0325Z" fill="#543423"/>
<path d="M38.3332 59.5912C38.6718 59.8187 38.9543 60.1128 39.193 60.4487L39.207 60.3558C38.9496 60.0045 38.65 59.6887 38.274 59.4612L38.2365 59.4643L38.2256 59.4999C38.4191 60.0556 38.7249 60.5679 39.1134 61.0106L39.1259 60.9239C38.7873 60.5292 38.5174 60.0772 38.3332 59.5912Z" fill="#543423"/>
<path d="M40.0326 54.5593C40.0326 54.3782 40.0139 54.1971 39.9905 54.0191C39.7705 52.3474 39.1557 50.7206 38.1618 49.3538C37.8435 48.9158 37.3645 48.4638 36.8418 48.4607C36.745 48.4607 36.6467 48.4762 36.55 48.5118C36.4642 48.5427 36.3737 48.5907 36.3253 48.6789L36.2878 48.8415L36.2988 48.9591C36.4017 49.5705 36.9401 50.0798 37.5595 50.1541L37.586 50.1448L37.597 50.12C37.586 49.9172 37.4628 49.7268 37.2818 49.6324L37.2365 49.6464L37.2506 49.6897C37.3941 49.764 37.4877 49.9141 37.5143 50.072C36.9479 49.9807 36.4564 49.5101 36.3627 48.9467L36.3518 48.8415L36.3815 48.7099C36.4173 48.6433 36.4907 48.6 36.5703 48.5721C36.6608 48.5396 36.7497 48.5257 36.8402 48.5257C37.3223 48.5242 37.7951 48.9591 38.1072 49.391C39.0949 50.7484 39.7065 52.366 39.925 54.0268C39.9468 54.2033 39.9655 54.3813 39.9655 54.5577C39.9655 54.7326 39.9484 54.906 39.8984 55.0732C39.7986 55.406 39.5474 55.7124 39.2135 55.7867L39.0356 55.8068C38.4848 55.8099 38.0323 55.2125 37.6531 54.728C36.9057 53.7761 35.8494 53.0656 34.6807 52.7282L34.6401 52.7498L34.6635 52.7901C35.8182 53.1229 36.8636 53.8256 37.6016 54.7667C37.9824 55.2465 38.4364 55.8672 39.0371 55.8719L39.2306 55.8502C39.5957 55.7682 39.8594 55.4416 39.964 55.0917C39.9655 55.0886 39.9655 55.0855 39.9655 55.0825L40.0279 54.6444C40.0295 54.6165 40.0326 54.5887 40.0326 54.5593Z" fill="#543423"/>
<path d="M47.7377 97.7973L47.7767 97.8236L47.8033 97.7849C47.5567 96.4599 47.3461 95.1272 47.1573 93.793L47.1245 94.0221C47.3039 95.2836 47.5037 96.5435 47.7377 97.7973Z" fill="#543423"/>
<path d="M46.8031 101.286L46.8436 101.311L46.8686 101.27C46.7048 100.585 46.5409 99.8991 46.3771 99.2134L46.3506 99.3914C46.5019 100.023 46.6517 100.653 46.8031 101.286Z" fill="#543423"/>
<path d="M47.3645 104.653L47.3364 104.69C47.6469 106.968 47.9574 109.245 48.2679 111.524L48.3054 111.551L48.3335 111.514C48.023 109.236 47.7125 106.959 47.402 104.68L47.3645 104.653Z" fill="#543423"/>
<path d="M35.2396 62.0697L35.2363 62.0664L35.2396 62.0697Z" fill="#543423"/>
<path d="M36.1458 62.7784L36.1879 62.797L36.2066 62.7552C36.049 62.3589 35.6699 62.0633 35.2455 62.0029L35.208 62.0308L35.2361 62.0679C35.6355 62.1237 35.9975 62.4054 36.1458 62.7784Z" fill="#543423"/>
<path d="M34.715 57.3299L34.6963 57.2881C34.2687 57.1255 33.9536 56.6968 33.9317 56.2433L33.9302 56.1875C33.9302 55.7526 34.1939 55.3238 34.5839 55.1273C34.7088 55.0622 34.8726 55.0081 34.9397 54.8579L34.9631 54.7434C34.9584 54.5158 34.6994 54.3487 34.5028 54.231C33.7632 53.8007 33.2842 52.9618 33.2842 52.112L33.2873 52.0145C33.2935 51.8535 33.3482 51.6709 33.4823 51.6384L33.5385 51.6306C33.629 51.6291 33.7336 51.6817 33.849 51.6833L33.8896 51.6817C34.0706 51.6569 34.1611 51.4774 34.1595 51.3056L34.1096 51.092C34.0004 50.8799 33.7928 50.7545 33.6353 50.6013C33.2701 50.2468 33.1438 49.7685 33.1438 49.25C33.1438 48.7516 33.2623 48.2191 33.3934 47.7378L33.37 47.6975L33.3294 47.7207C33.1968 48.2052 33.0767 48.7423 33.0767 49.2516C33.0767 49.7794 33.2062 50.2778 33.5884 50.6493C33.7554 50.8087 33.9536 50.9325 34.0503 51.1229L34.0924 51.3056C34.0924 51.4588 34.0144 51.5997 33.8802 51.6167L33.849 51.6182C33.7554 51.6198 33.6524 51.5672 33.5385 51.5656L33.4652 51.5765C33.2795 51.6291 33.2311 51.8442 33.2218 52.0114L33.2186 52.112C33.2186 52.985 33.7086 53.8441 34.47 54.2883C34.6666 54.4013 34.9022 54.5731 34.8976 54.7449L34.8788 54.8347C34.8305 54.9492 34.6869 55.005 34.5543 55.0715C34.1392 55.2805 33.8646 55.7294 33.8631 56.1906L33.8646 56.2525C33.8896 56.7308 34.2188 57.1797 34.6713 57.3531L34.715 57.3299Z" fill="#543423"/>
<path d="M32.0391 41.0355L32.0719 41.003V40.9674C32.0719 40.4442 32.1624 39.9009 32.4776 39.4923C32.7101 39.1889 33.097 38.983 33.4684 38.983C33.6072 38.983 33.7461 39.0109 33.8741 39.0759C34.3 39.2848 34.4951 39.7925 34.5809 40.2708C34.6683 40.7491 34.6917 41.2661 34.9554 41.6933L34.9897 41.7088C35.322 41.65 35.5296 41.328 35.6185 41.02C35.709 40.712 35.7246 40.39 35.8557 40.1114C36.0835 39.6238 36.6358 39.3731 37.1944 39.3731C37.4113 39.3731 37.6282 39.4102 37.8264 39.4861C38.5394 39.7569 39.0559 40.3885 39.4585 41.0432C39.549 41.1872 39.6676 41.3667 39.8626 41.3729C39.9983 41.3729 40.1076 41.2862 40.184 41.1918C40.4305 40.876 40.4274 40.4272 40.4571 40.0216C40.4852 39.6254 40.546 39.2848 40.8518 39.1285C41.0328 39.4025 41.2138 39.678 41.3964 39.952L41.4338 39.9644L41.4572 39.9318C41.4526 39.8483 41.4494 39.7631 41.4494 39.6795C41.4494 38.8127 41.6944 37.9475 42.1485 37.2061C42.2499 37.2865 42.3529 37.3655 42.4543 37.446L42.5011 37.4413L42.4964 37.3949C42.3841 37.3067 42.2717 37.2184 42.1594 37.1302L42.1329 37.124L42.111 37.1395C41.6382 37.898 41.3839 38.7895 41.3839 39.6811C41.3839 39.7275 41.387 39.774 41.3886 39.8204C41.2216 39.5681 41.0562 39.3173 40.8893 39.065L40.8472 39.0527C40.4774 39.2229 40.4196 39.6114 40.3915 40.017C40.3635 40.4256 40.3603 40.8621 40.1325 41.15C40.0639 41.2367 39.9687 41.3079 39.8642 41.3063C39.7175 41.3063 39.6051 41.1531 39.5162 41.0076C39.1105 40.3482 38.5878 39.7043 37.8513 39.4241C37.6438 39.3452 37.4191 39.3065 37.196 39.3065C36.6187 39.3065 36.0398 39.565 35.7979 40.0835C35.6606 40.3776 35.645 40.7042 35.5577 41.0014C35.4734 41.2893 35.2815 41.5741 35.0022 41.6345C34.7619 41.2305 34.7322 40.7352 34.648 40.2584C34.5606 39.7724 34.364 39.243 33.9053 39.0171C33.768 38.949 33.6197 38.918 33.4699 38.918C33.0736 38.918 32.6726 39.1347 32.4261 39.452C32.0968 39.8792 32.0063 40.4364 32.0063 40.9658V41.0014L32.0391 41.0355Z" fill="#543423"/>
<path d="M38.953 46.1279L38.9078 46.1187L38.8984 46.1635C39.599 47.2145 40.2263 48.3135 40.7755 49.4497L40.7927 49.3336C40.2528 48.2253 39.638 47.1542 38.953 46.1279Z" fill="#543423"/>
<path d="M41.122 107.386L35.6468 124.896C35.6921 125.488 35.7841 126.074 35.9682 126.64C36.0806 126.988 36.2522 127.349 36.5721 127.499C36.6735 127.547 36.7812 127.569 36.8904 127.569C37.2118 127.569 37.5489 127.378 37.7517 127.114C38.0263 126.756 38.1246 126.292 38.2104 125.84C38.627 123.684 38.9906 121.514 39.0983 119.322L39.1014 119.21C39.1014 118.893 39.0265 118.554 38.7581 118.475L38.6458 118.458C38.354 118.453 38.1059 118.831 37.9967 119.161C37.5333 120.517 37.2976 121.949 37.2976 123.38C37.2976 123.832 37.3226 124.284 37.3694 124.735L37.3944 124.736C37.6284 124.738 37.85 124.557 37.9592 124.337C38.0762 124.1 38.0919 123.823 38.1028 123.551C38.1184 123.198 38.134 122.846 38.1511 122.493L38.1855 122.462L38.2167 122.496C38.2011 122.849 38.1855 123.201 38.1699 123.554C38.1589 123.826 38.1449 124.112 38.0201 124.366C37.9031 124.602 37.6643 124.801 37.3959 124.801L37.3351 124.798L37.3054 124.769C37.2555 124.307 37.2306 123.843 37.2306 123.38C37.2306 121.941 37.4677 120.503 37.9327 119.139C38.0482 118.803 38.2931 118.398 38.6442 118.392L38.7768 118.412C39.0967 118.512 39.1669 118.888 39.1669 119.209L39.1638 119.323C39.0561 121.518 38.691 123.693 38.2744 125.849C38.187 126.301 38.0903 126.776 37.8032 127.151C37.5863 127.431 37.2368 127.632 36.8888 127.632C36.7703 127.632 36.6532 127.609 36.5424 127.556C36.1914 127.391 36.0182 127.01 35.9043 126.659C35.7358 126.137 35.6437 125.601 35.5938 125.06L34.8354 127.484C35.1865 127.516 35.5423 127.555 35.9074 127.608C37.1915 127.79 38.3696 128.07 39.3354 128.4C40.139 121.416 40.7272 114.407 41.122 107.386Z" fill="#543423"/>
<path d="M45.6939 48.0318C45.6096 48.0365 45.5269 48.0597 45.4739 48.1123C45.4208 48.1665 45.399 48.2501 45.3896 48.3352L45.3818 48.4776C45.3818 48.9141 45.6143 49.3382 45.967 49.5983L46.0559 49.3166C46.0497 49.3088 46.0465 49.2995 46.0387 49.2918L46.0372 49.2454L46.0777 49.2438L46.3711 48.3043C46.1932 48.1386 45.9841 48.0287 45.747 48.0303L45.6939 48.0318Z" fill="#543423"/>
<path d="M40.8552 63.2797C40.0298 64.8446 39.61 66.5906 39.3495 68.3397C39.1778 69.4867 39.0795 70.6383 39.0249 71.7899L42.0114 62.238L41.9474 62.2442C41.4434 62.3294 41.1017 62.8123 40.8552 63.2797Z" fill="#543423"/>
<path d="M43.5357 118.957L43.5794 118.65L44.1614 114.609L44.1989 114.349L45.4612 105.575L45.4955 105.334L46.3506 99.39L46.3771 99.212L47.1245 94.0205L47.1573 93.7914L47.9546 88.2547L47.9905 88.0039L48.4726 84.6575C48.3899 84.6668 48.3088 84.6776 48.223 84.6853L44.7029 95.9429C43.8619 101.983 43.2252 108.05 42.8071 114.133L42.7712 114.164L42.74 114.129C43.1503 108.168 43.7729 102.224 44.589 96.3051L41.2031 107.132C40.8067 114.245 40.2154 121.345 39.4024 128.422L39.4009 128.423C40.1717 128.691 40.8005 128.991 41.2374 129.299C41.4964 128.095 41.6306 126.863 41.6306 125.632C41.6306 125.51 41.629 125.388 41.6275 125.266L41.6602 125.233L41.693 125.266C41.6946 125.388 41.6961 125.512 41.6961 125.634C41.6961 126.88 41.5619 128.126 41.2967 129.343C41.7258 129.658 41.9505 129.982 41.9068 130.285L42.559 125.749L43.5357 118.957ZM42.5917 117.83L42.6276 117.8L42.6573 117.836C42.5527 118.984 42.5012 120.138 42.5012 121.291C42.5012 121.976 42.52 122.664 42.5574 123.348L42.5262 123.382L42.4919 123.351C42.4544 122.665 42.4357 121.976 42.4357 121.291C42.4342 120.134 42.4856 118.98 42.5917 117.83Z" fill="#543423"/>
<path d="M41.2515 46.1404L40.7928 49.3321L40.7756 49.4482L40.4324 51.8288L40.4137 51.9603L40.0283 54.6443L39.9658 55.0824L39.5477 57.9846L39.5367 58.0636L39.2075 60.356L39.1935 60.4488L39.1248 60.924L39.1123 61.0107L38.9579 62.088L38.9438 62.1871L38.6911 63.9393L38.6786 64.029L37.1354 74.7573L37.112 74.9167L36.6143 78.3777C36.7204 78.418 36.8171 78.4598 36.9294 78.5L38.9501 72.0392C39.0016 70.8009 39.103 69.5642 39.2871 68.3305C39.5477 66.5768 39.969 64.8231 40.7991 63.2489C41.0471 62.7784 41.3951 62.2738 41.9397 62.1793L42.0364 62.1716L42.9273 59.3251C42.3812 58.6487 41.7181 58.0651 40.9598 57.6333L40.9473 57.5884L40.9925 57.576C41.7446 58.0048 42.4046 58.5821 42.9507 59.2508L43.9322 56.1102C43.8745 56.0715 43.8183 56.0328 43.7606 55.9941C43.4157 55.7712 43.0225 55.5576 42.6371 55.5576C42.5482 55.5576 42.4592 55.5684 42.3703 55.5947L42.3297 55.5731L42.3531 55.5328C42.4483 55.5065 42.5435 55.4941 42.6371 55.4941C43.0475 55.4941 43.4485 55.717 43.7964 55.9415C43.8495 55.9755 43.901 56.0111 43.9525 56.0467L44.6843 53.7063C44.213 52.8442 43.5296 52.0935 42.6917 51.5718L42.6808 51.5269L42.7261 51.5161C43.5562 52.0331 44.2365 52.7683 44.7124 53.6166L45.9481 49.6649C45.5674 49.394 45.3162 48.9467 45.3162 48.4808L45.3256 48.3306C45.3365 48.2408 45.3583 48.1418 45.4285 48.069C45.5003 47.9994 45.5986 47.9761 45.6907 47.97L45.7484 47.9684C45.9981 47.97 46.2118 48.0752 46.3944 48.2377L46.8453 46.7967C46.6128 46.4438 46.3616 46.1032 46.0652 45.7906C45.8046 45.5135 45.4488 45.2488 45.104 45.2504C45.0229 45.2504 44.9417 45.2643 44.8621 45.2968C44.6609 45.3757 44.5126 45.5584 44.3878 45.7457C43.94 46.4205 43.7247 47.2208 43.7247 48.0272C43.7247 49.3352 44.2895 50.654 45.3302 51.4604L45.3365 51.5068L45.2897 51.513C44.2302 50.6911 43.6591 49.3537 43.6576 48.0288C43.6576 47.2115 43.8745 46.3989 44.3316 45.7116C44.458 45.5212 44.6141 45.3262 44.8372 45.238C44.9246 45.2024 45.0135 45.1869 45.1024 45.1869C45.4816 45.1884 45.8451 45.4671 46.112 45.7488C46.3975 46.0522 46.644 46.3788 46.8703 46.7162L47.755 43.8867C47.6707 43.9269 47.5802 43.9517 47.4882 43.9517C47.2104 43.9517 46.9265 43.7892 46.7735 43.5508C46.6253 43.3217 46.5754 43.0524 46.5754 42.7831C46.5754 42.6561 46.5863 42.5277 46.6035 42.4038C46.6815 41.8296 46.8734 41.2708 47.1667 40.7678L47.212 40.7554L47.2245 40.8003C46.9358 41.294 46.747 41.8451 46.6706 42.4116C46.6534 42.5339 46.6425 42.6577 46.6425 42.7815C46.6425 43.0431 46.6908 43.3001 46.8297 43.5137C46.9701 43.7319 47.2385 43.8851 47.4897 43.8836C47.5927 43.8836 47.6926 43.8573 47.7815 43.8016L48.582 41.2429C48.5835 41.1903 48.5898 41.1392 48.5898 41.0866C48.5898 40.6718 48.5414 40.257 48.4493 39.853C47.8564 40.3483 47.5209 41.1176 47.5209 41.8869C47.5209 42.263 47.599 42.6376 47.7659 42.9766L47.7503 43.0199L47.7066 43.0044C47.5365 42.6546 47.4554 42.2707 47.4554 41.8869C47.4554 41.0789 47.8112 40.2662 48.4509 39.7585L48.4821 39.7539L48.5039 39.7771C48.6007 40.1842 48.6475 40.6006 48.6537 41.0185L49.1359 39.4737C48.8909 39.3561 48.6178 39.2895 48.3495 39.2895C47.9656 39.2895 47.599 39.4196 47.3509 39.7044C47.148 39.9366 47.0435 40.2415 46.8718 40.5124C46.7096 40.7678 46.4474 41.0046 46.1385 41.0061L46.0761 41.003L46.048 40.9798C46.0012 40.8173 45.9856 40.6517 45.9856 40.486C45.9856 40.1594 46.0496 39.8297 46.0823 39.5093C46.0917 39.4056 46.0995 39.3004 46.0995 39.1951C46.0995 38.8051 46.0121 38.4181 45.7344 38.1673C45.5518 38.0017 45.3131 37.9274 45.065 37.9274C44.7872 37.9274 44.4986 38.0218 44.2755 38.1875C43.8495 38.5017 43.6108 39.0125 43.4672 39.5279L43.4266 39.5511L43.4032 39.5109C43.5499 38.9893 43.7918 38.463 44.2365 38.1348C44.4721 37.9599 44.7732 37.8609 45.065 37.8609C45.3256 37.8609 45.5815 37.9398 45.7781 38.1178C46.0761 38.3871 46.165 38.7942 46.165 39.1936C46.165 39.3019 46.1588 39.4087 46.1479 39.514C46.1151 39.839 46.0511 40.1656 46.0511 40.4845C46.0511 40.6377 46.0683 40.7894 46.1088 40.938L46.1385 40.9396C46.41 40.9411 46.6612 40.7213 46.8172 40.4768C46.9842 40.2152 47.0887 39.9056 47.3025 39.6595C47.5662 39.3577 47.9531 39.2214 48.3526 39.2214C48.6272 39.2214 48.9065 39.2895 49.1593 39.4087L49.7553 37.5033C49.4729 37.4785 49.1874 37.4491 48.8971 37.4073C48.6241 37.3686 48.3588 37.3222 48.0983 37.2711C48.0249 37.2572 47.9531 37.2417 47.8814 37.2262C47.6707 37.1829 47.4663 37.1349 47.265 37.0854C47.2151 37.073 47.1621 37.0606 47.1137 37.0482C46.8718 36.9848 46.6378 36.9151 46.4115 36.8424C46.3569 36.8253 46.3054 36.8068 46.2524 36.7882C46.073 36.7278 45.8998 36.6644 45.7312 36.5994C45.6766 36.5777 45.6205 36.5576 45.5674 36.5343C45.363 36.4508 45.1648 36.3641 44.9807 36.2728C44.9604 36.2635 44.9433 36.2526 44.923 36.2434C44.7576 36.1613 44.6031 36.0746 44.4565 35.988C44.4128 35.9616 44.3706 35.9353 44.3285 35.909C44.1896 35.8223 44.0586 35.7341 43.94 35.6428C43.9228 35.6304 43.9041 35.618 43.8885 35.6056C43.7559 35.5035 43.6404 35.3982 43.5359 35.293C43.5265 35.2837 43.5125 35.2744 43.5047 35.2651L43.5062 35.2605C43.1302 34.8704 42.9414 34.4649 42.9976 34.0686L42.801 35.4323L41.2812 45.9964L41.2515 46.1404ZM41.3842 61.602L41.3483 61.5726C41.3093 61.1748 41.0393 60.8048 40.6711 60.6408L40.6539 60.5974L40.6976 60.5804C41.0893 60.7538 41.3717 61.1423 41.4138 61.5648L41.3842 61.602ZM42.3094 49.1788C42.4187 49.3692 42.5841 49.5472 42.6293 49.781L42.6371 49.863C42.6371 50.0658 42.5029 50.2871 42.2938 50.2902L42.2533 50.2871C42.0988 50.2592 41.9927 50.1323 41.8757 50.1339C41.7337 50.1308 41.6338 50.2887 41.5823 50.4419C41.5012 50.6834 41.4606 50.9388 41.4606 51.1942C41.4606 51.821 41.6994 52.451 42.1363 52.9061C42.2767 53.0531 42.4468 53.2497 42.4499 53.4447L42.3843 53.6274C42.2782 53.7528 42.105 53.7605 41.9662 53.7884C41.5168 53.8735 41.1314 54.2419 41.03 54.6846C41.0113 54.7666 41.0019 54.8518 41.0019 54.9353C41.0019 55.3037 41.1782 55.6752 41.4762 55.8981L41.4825 55.9445L41.4357 55.9507C41.1205 55.7155 40.9348 55.3254 40.9348 54.9369C40.9348 54.8471 40.9442 54.7589 40.9644 54.6707C41.0737 54.2017 41.4762 53.8162 41.9537 53.7249C42.1004 53.697 42.2548 53.6847 42.3329 53.5872L42.3843 53.4447C42.3859 53.2884 42.2283 53.0934 42.0894 52.951C41.6401 52.4835 41.3951 51.8381 41.3951 51.1942C41.3951 50.9326 41.4357 50.671 41.5199 50.4218C41.5745 50.2623 41.6806 50.072 41.8757 50.0689C42.0348 50.0751 42.1425 50.2082 42.2626 50.2221L42.2938 50.2236C42.4468 50.2236 42.5716 50.041 42.5716 49.863L42.5653 49.7933C42.5248 49.5844 42.3672 49.411 42.2517 49.2113C42.1035 48.9544 42.0426 48.6804 42.0426 48.4018C42.0426 47.6944 42.4327 46.9515 42.8134 46.3261L42.8587 46.3153L42.8696 46.3602C42.4889 46.984 42.1082 47.7192 42.1082 48.4018C42.1082 48.6711 42.1675 48.9327 42.3094 49.1788ZM44.4814 39.9056L44.5204 39.8808L44.5454 39.9195C44.2286 41.3033 43.6201 42.6221 42.7682 43.7629L42.7214 43.7691L42.7151 43.7226C43.5608 42.5896 44.1662 41.2801 44.4814 39.9056Z" fill="#543423"/>
<path d="M43.4979 35.2604L43.7023 33.8395V33.8379V33.8364L43.7195 33.7141L43.7398 33.7172C44.0659 32.9696 46.3611 32.6693 49.0573 33.0516C49.9483 33.1786 50.7768 33.3628 51.4899 33.5841C51.8847 33.4634 52.4308 33.4169 53.0783 33.4386C52.1093 33.0222 50.911 32.6894 49.5925 32.5021C46.1427 32.0146 43.1843 32.7157 42.9892 34.0686C42.9331 34.4633 43.1219 34.8704 43.4979 35.2604Z" fill="#543423"/>
<path d="M48.8907 37.4057C48.6176 37.367 48.3524 37.3206 48.0918 37.2695C48.3524 37.3206 48.6176 37.367 48.8907 37.4057Z" fill="#543423"/>
<path d="M46.2458 36.7882C46.0663 36.7278 45.8931 36.6644 45.7246 36.5994C45.8916 36.6644 46.0663 36.7278 46.2458 36.7882Z" fill="#543423"/>
<path d="M43.8819 35.6071C43.7509 35.5049 43.6338 35.3997 43.5293 35.2944C43.6338 35.3997 43.7493 35.5034 43.8819 35.6071Z" fill="#543423"/>
<path d="M47.1055 37.0467C46.8636 36.9832 46.6296 36.9136 46.4033 36.8408C46.6311 36.9151 46.8636 36.9832 47.1055 37.0467Z" fill="#543423"/>
<path d="M45.5608 36.5343C45.3564 36.4507 45.1582 36.364 44.9741 36.2727C45.1582 36.364 45.3548 36.4507 45.5608 36.5343Z" fill="#543423"/>
<path d="M44.9167 36.2432C44.7513 36.1612 44.5969 36.0745 44.4502 35.9878C44.5969 36.0745 44.7513 36.1596 44.9167 36.2432Z" fill="#543423"/>
<path d="M44.3221 35.9091C44.1832 35.8224 44.0522 35.7341 43.9336 35.6428C44.0537 35.7341 44.1832 35.8224 44.3221 35.9091Z" fill="#543423"/>
<path d="M48.8906 37.4058C49.1808 37.4476 49.4664 37.477 49.7488 37.5017L49.7519 37.4909C49.4664 37.4661 49.184 37.4476 48.8906 37.4058Z" fill="#543423"/>
<path d="M47.8732 37.2263C47.6641 37.183 47.4581 37.135 47.2568 37.0854C47.4581 37.135 47.6641 37.183 47.8732 37.2263Z" fill="#543423"/>
<path d="M43.7198 33.7141L43.7026 33.8364C43.7089 33.7946 43.7245 33.7559 43.7416 33.7172L43.7198 33.7141Z" fill="#543423"/>
<path d="M50.1467 36.2277C49.6614 36.2029 49.1512 36.155 48.6238 36.0807C45.7871 35.6782 43.5855 34.6752 43.7025 33.8394L43.4981 35.2603L43.4966 35.2649C43.5059 35.2742 43.5184 35.2835 43.5278 35.2928C43.6323 35.3981 43.7494 35.5033 43.8804 35.6055C43.8976 35.6178 43.9163 35.6302 43.9319 35.6426C44.0521 35.7324 44.1816 35.8206 44.3204 35.9088C44.3626 35.9352 44.4047 35.9615 44.4484 35.9878C44.5951 36.0745 44.7495 36.1611 44.9149 36.2432C44.9352 36.2525 44.9524 36.2633 44.9727 36.2726C45.1568 36.3639 45.3549 36.4506 45.5593 36.5342C45.6124 36.5559 45.6686 36.5775 45.7232 36.5992C45.8917 36.6642 46.0649 36.7277 46.2443 36.788C46.2974 36.8066 46.3489 36.8252 46.4035 36.8422C46.6297 36.915 46.8638 36.9846 47.1056 37.0481C47.1555 37.0605 47.207 37.0728 47.257 37.0852C47.4583 37.1363 47.6627 37.1827 47.8733 37.2261C47.9451 37.2416 48.0168 37.2555 48.0902 37.271C48.3508 37.322 48.6176 37.3685 48.8891 37.4072C49.1824 37.449 49.4648 37.4675 49.7504 37.4923L50.1467 36.2277Z" fill="#543423"/>
<path d="M48.6235 36.0808C49.1509 36.1551 49.6611 36.203 50.1464 36.2278L50.8079 34.1119C50.8828 33.8735 51.1216 33.6986 51.4914 33.5856C50.7783 33.3643 49.9498 33.1785 49.0588 33.0531C46.3626 32.6708 44.0658 32.9711 43.7412 33.7187C43.7241 33.7574 43.7085 33.7961 43.7022 33.8379V33.8395V33.841C43.5852 34.6753 45.7868 35.6783 48.6235 36.0808Z" fill="#543423"/>
<path d="M39.0263 71.7899C39.0809 70.6367 39.1792 69.4867 39.3508 68.3397C39.6114 66.5891 40.0311 64.8431 40.8565 63.2797C41.1031 62.8123 41.4432 62.3294 41.9503 62.2442L42.0143 62.238L42.0346 62.1699L41.9378 62.1777C41.3933 62.2721 41.0453 62.7767 40.7972 63.2472C39.9671 64.8214 39.5458 66.5751 39.2853 68.3289C39.1012 69.5625 38.9997 70.7993 38.9482 72.0375L39.0263 71.7899Z" fill="#543423"/>
<path d="M39.3365 128.403C39.3365 128.408 39.335 128.411 39.335 128.415L39.3646 128.451L39.3989 128.423L39.4005 128.422C40.2119 121.345 40.8048 114.243 41.2011 107.132L41.1215 107.386C40.7268 114.407 40.1385 121.416 39.3365 128.403Z" fill="#543423"/>
<path d="M42.7383 114.129L42.7695 114.164L42.8054 114.133C43.2235 108.05 43.8602 101.983 44.7012 95.9429L44.5873 96.3051C43.7712 102.224 43.1486 108.169 42.7383 114.129Z" fill="#543423"/>
<path d="M46.1102 45.7394C45.8433 45.4577 45.4798 45.179 45.1006 45.1775C45.0117 45.1775 44.9227 45.193 44.8354 45.2286C44.6122 45.3168 44.4578 45.5118 44.3298 45.7022C43.8742 46.3879 43.6558 47.2021 43.6558 48.0194C43.6558 49.3459 44.2268 50.6817 45.2879 51.5036L45.3347 51.4974L45.3284 51.451C44.2877 50.643 43.7213 49.3258 43.7229 48.0178C43.7229 47.2129 43.9382 46.4111 44.386 45.7363C44.5108 45.549 44.6591 45.3663 44.8603 45.2874C44.9399 45.2549 45.021 45.241 45.1022 45.241C45.447 45.2394 45.8028 45.5056 46.0633 45.7812C46.3598 46.0954 46.6126 46.4359 46.8435 46.7873L46.87 46.7037C46.6438 46.3693 46.3973 46.0427 46.1102 45.7394Z" fill="#543423"/>
<path d="M42.7148 43.7241L42.7211 43.7706L42.7679 43.7644C43.6183 42.6236 44.2284 41.3048 44.5451 39.921L44.5201 39.8823L44.4811 39.9071C44.1659 41.28 43.5605 42.5895 42.7148 43.7241Z" fill="#543423"/>
<path d="M43.7929 55.9383C43.4449 55.7139 43.0439 55.4925 42.6336 55.491C42.5384 55.491 42.4432 55.5033 42.3496 55.5297L42.3262 55.5699L42.3667 55.5916C42.4557 55.5668 42.5446 55.5544 42.6336 55.5544C43.019 55.5544 43.4122 55.768 43.757 55.9909C43.8147 56.0281 43.8709 56.0683 43.9286 56.107L43.9489 56.042C43.8974 56.008 43.8459 55.9724 43.7929 55.9383Z" fill="#543423"/>
<path d="M48.5002 39.771L48.4784 39.7478L48.4471 39.7524C47.8074 40.2586 47.4517 41.0728 47.4517 41.8808C47.4517 42.2662 47.5328 42.65 47.7029 42.9983L47.7466 43.0138L47.7622 42.9705C47.5968 42.6315 47.5172 42.2569 47.5172 41.8808C47.5172 41.1115 47.8527 40.3406 48.4456 39.8469C48.5376 40.2509 48.586 40.6657 48.586 41.0805C48.586 41.1331 48.5798 41.1842 48.5782 41.2368L48.6484 41.0124C48.6453 40.5945 48.5969 40.1781 48.5002 39.771Z" fill="#543423"/>
<path d="M47.4881 43.8775C47.2369 43.8775 46.9685 43.7258 46.8281 43.5076C46.6892 43.294 46.6408 43.037 46.6408 42.7754C46.6408 42.6516 46.6517 42.5278 46.6689 42.4055C46.7454 41.839 46.9342 41.2879 47.2228 40.7942L47.2103 40.7493L47.1651 40.7617C46.8718 41.2632 46.6798 41.8219 46.6018 42.3977C46.5847 42.5216 46.5737 42.6485 46.5737 42.777C46.5737 43.0463 46.6221 43.3156 46.7719 43.5447C46.9248 43.7815 47.2088 43.9441 47.4865 43.9456C47.5786 43.9456 47.6675 43.9208 47.7533 43.8806L47.7799 43.797C47.6909 43.8512 47.5911 43.8775 47.4881 43.8775Z" fill="#543423"/>
<path d="M40.9891 57.5759L40.9438 57.5883L40.9563 57.6332C41.7146 58.0651 42.3778 58.6486 42.9239 59.325L42.9473 59.2507C42.4012 58.5805 41.7427 58.0047 40.9891 57.5759Z" fill="#543423"/>
<path d="M46.0367 49.291C46.0447 49.2973 46.0463 49.3083 46.0542 49.3161L46.0764 49.2439L46.0352 49.2455L46.0367 49.291Z" fill="#543423"/>
<path d="M45.3801 48.4775L45.3879 48.3351C45.3988 48.25 45.4191 48.1664 45.4721 48.1122C45.5252 48.0596 45.6079 48.0379 45.6921 48.0317L45.7452 48.0302C45.9839 48.0286 46.1915 48.1385 46.3693 48.3042L46.3912 48.233C46.2086 48.072 45.9949 47.9652 45.7452 47.9636L45.6875 47.9652C45.5954 47.9714 45.4971 47.9946 45.4253 48.0642C45.3551 48.137 45.3333 48.236 45.3224 48.3258L45.313 48.476C45.313 48.9419 45.5642 49.3892 45.9449 49.6601L45.9652 49.5966C45.6126 49.3366 45.3801 48.9125 45.3801 48.4775Z" fill="#543423"/>
<path d="M42.7244 51.5129L42.6792 51.5238L42.6901 51.5687C43.528 52.0903 44.2114 52.841 44.6827 53.7032L44.7107 53.6134C44.2348 52.7636 43.5545 52.0299 42.7244 51.5129Z" fill="#543423"/>
<path d="M40.699 60.5818L40.6553 60.5988L40.6724 60.6422C41.0407 60.8047 41.3106 61.1762 41.3496 61.574L41.3855 61.6034L41.4152 61.5678C41.3715 61.1437 41.089 60.7551 40.699 60.5818Z" fill="#543423"/>
<path d="M42.8694 46.3601L42.8585 46.3152L42.8132 46.326C42.4325 46.9529 42.044 47.6959 42.0424 48.4017C42.0424 48.6803 42.1033 48.9543 42.2515 49.2112C42.3669 49.4109 42.5245 49.5843 42.5651 49.7932L42.5714 49.8629C42.5714 50.0409 42.4465 50.2235 42.2936 50.2235L42.2624 50.222C42.1423 50.2081 42.0346 50.0749 41.8754 50.0688C41.6804 50.0718 41.5727 50.2622 41.5197 50.4217C41.4354 50.6709 41.3949 50.9325 41.3949 51.194C41.3949 51.838 41.6398 52.4834 42.0892 52.9509C42.2281 53.0933 42.3857 53.2883 42.3841 53.4446L42.3326 53.587C42.2546 53.6846 42.1001 53.6985 41.9535 53.7248C41.4776 53.8161 41.075 54.2015 40.9642 54.6705C40.9439 54.7572 40.9346 54.847 40.9346 54.9368C40.9346 55.3268 41.1202 55.7154 41.4354 55.9506L41.4822 55.9444L41.476 55.898C41.178 55.6751 41.0017 55.3052 41.0017 54.9352C41.0017 54.8501 41.011 54.7665 41.0298 54.6845C41.1327 54.2433 41.5166 53.8749 41.9659 53.7883C42.1048 53.7604 42.278 53.7527 42.3841 53.6273L42.4496 53.4446C42.4481 53.2481 42.2765 53.053 42.136 52.906C41.6991 52.4525 41.4604 51.8225 41.4604 51.194C41.4604 50.9387 41.501 50.6848 41.5821 50.4418C41.632 50.2885 41.7335 50.1307 41.8754 50.1338C41.9925 50.1307 42.1001 50.2591 42.253 50.287L42.2936 50.2901C42.5027 50.287 42.6369 50.0657 42.6369 49.8629L42.6291 49.7809C42.5823 49.5471 42.4169 49.3691 42.3092 49.1787C42.1672 48.9326 42.1079 48.671 42.1079 48.4017C42.1079 47.7191 42.4902 46.9823 42.8694 46.3601Z" fill="#543423"/>
<path d="M48.3458 39.2199C47.948 39.2199 47.5594 39.3562 47.2957 39.658C47.082 39.9026 46.9774 40.2121 46.8105 40.4753C46.6544 40.7198 46.4048 40.9396 46.1317 40.9381L46.1021 40.9365C46.0631 40.7879 46.0444 40.6362 46.0444 40.483C46.0444 40.1657 46.1068 39.8375 46.1411 39.5125C46.152 39.4072 46.1583 39.3004 46.1583 39.1921C46.1583 38.7927 46.0693 38.3856 45.7713 38.1163C45.5747 37.9383 45.3188 37.8594 45.0582 37.8594C44.7649 37.8594 44.4653 37.9584 44.2297 38.1333C43.7866 38.4615 43.5432 38.9878 43.3965 39.5094L43.4199 39.5496L43.4605 39.5264C43.604 39.011 43.8443 38.4986 44.2687 38.186C44.4918 38.0204 44.7805 37.9259 45.0582 37.9259C45.3063 37.9259 45.5451 38.0002 45.7276 38.1659C46.0038 38.4166 46.0927 38.8036 46.0927 39.1936C46.0927 39.2989 46.0865 39.4041 46.0756 39.5078C46.0428 39.8283 45.9788 40.158 45.9788 40.4845C45.9788 40.6502 45.9944 40.8158 46.0412 40.9783L46.0693 41.0015L46.1317 41.0046C46.4407 41.0031 46.7028 40.7663 46.8651 40.5109C47.0367 40.24 47.1413 39.9335 47.3441 39.7029C47.5922 39.4181 47.9589 39.2881 48.3427 39.2881C48.6111 39.2881 48.8842 39.3546 49.1291 39.4722L49.1494 39.4103C48.8998 39.2865 48.6205 39.2199 48.3458 39.2199Z" fill="#543423"/>
<path d="M57.9328 38.1256C57.6988 39.093 57.5209 40.0728 57.4055 41.0619L57.368 41.0913L57.3384 41.0541C57.4538 40.0635 57.6333 39.0806 57.8673 38.1117C57.3602 37.9971 56.8375 37.8594 56.3007 37.6953C55.0618 37.3145 53.9431 36.8517 53.0428 36.3734C50.7288 44.5895 48.7051 52.886 46.9762 61.2414L46.9372 61.2661L46.9123 61.2274C48.6442 52.8659 50.6695 44.5632 52.9835 36.3409L52.9851 36.3394C52.2673 35.9539 51.6947 35.5592 51.3124 35.1862C50.8193 36.4477 50.4714 37.768 50.2841 39.1085L50.2467 39.1363L50.2186 39.0992C50.4074 37.7433 50.7585 36.4106 51.2609 35.1351C50.888 34.7559 50.7163 34.4014 50.8084 34.1089L50.1468 36.2248L49.7521 37.4879L49.7489 37.4987L49.1529 39.4041L49.1326 39.466L48.6505 41.0108L48.5803 41.2352L47.7798 43.7939L47.7533 43.8774L46.8686 46.7069L46.842 46.7905L46.3911 48.2316L46.3693 48.3028L46.0759 49.2423L46.0541 49.3135L45.9651 49.5953L45.9449 49.6587L44.7091 53.6104L44.681 53.7002L43.9492 56.0406L43.9289 56.1056L42.9475 59.2462L42.9241 59.3205L42.0331 62.167L42.0128 62.2351L39.0264 71.787L38.9484 72.0362L36.9277 78.4969C37.4895 78.6966 38.1276 78.8885 38.8126 79.0681C39.3462 77.4026 39.9189 75.7479 40.4759 74.0933C43.1488 66.1481 45.4409 58.076 47.3429 49.9141L47.3819 49.8893L47.4069 49.928C45.5033 58.0915 43.2112 66.1651 40.5383 74.1134C39.9813 75.7681 39.4087 77.4212 38.8766 79.0851C39.2245 79.1765 39.5897 79.2616 39.9641 79.3452C40.2715 78.4288 40.5789 77.5125 40.8878 76.5962L40.9269 76.5745C41.1375 76.6225 41.2218 76.8361 41.3091 77.0249C41.3949 77.2184 41.4792 77.3856 41.6446 77.3933H41.6602C41.8069 77.3949 41.9333 77.2525 42.0253 77.1085C42.4294 76.4785 42.6931 75.7603 42.7946 75.0204L42.832 74.9926L42.8601 75.0297C42.7587 75.7804 42.4903 76.5064 42.0815 77.1441C41.9863 77.2896 41.8537 77.4568 41.6618 77.4599H41.6415C41.4246 77.4444 41.3341 77.2416 41.2483 77.0528C41.1671 76.8701 41.086 76.7014 40.9393 76.6519C40.6366 77.5543 40.3324 78.4582 40.0297 79.3606C40.9409 79.5619 41.9145 79.743 42.9412 79.8869C43.3188 79.9411 43.6886 79.9844 44.0569 80.0247C44.4547 76.8469 44.9603 73.6831 45.5813 70.5409L45.6203 70.5146L45.6468 70.5533C45.0258 73.6939 44.5203 76.8562 44.1224 80.0324C44.6592 80.0928 45.185 80.1423 45.6905 80.1779C45.9215 77.0543 46.1945 73.9338 46.8124 70.8737C47.7221 66.3663 49.3713 62.0478 50.6898 57.6457C51.6666 54.3859 52.467 51.0688 53.6466 47.8725L53.6888 47.8539L53.709 47.8957C52.531 51.0874 51.7305 54.4045 50.7522 57.6658C49.4322 62.0695 47.7845 66.3865 46.8764 70.8876C46.2585 73.9431 45.987 77.059 45.7561 80.1826C46.4488 80.229 47.1011 80.2491 47.7158 80.2522C47.7112 80.2151 47.7127 80.1779 47.7049 80.1408L47.7299 80.1021L47.7689 80.1284C47.7767 80.1702 47.7751 80.212 47.7814 80.2522C48.4601 80.2522 49.078 80.2244 49.6319 80.1717L49.9845 79.0433L58.6022 51.4836L62.876 37.8191C62.6263 38.6178 60.5433 38.7076 57.9328 38.1256ZM50.1624 52.7746L50.2046 52.7529L50.2264 52.7931C49.5352 54.9865 48.8424 57.1798 48.1527 59.3746L48.1106 59.3963L48.0887 59.3545C48.78 57.1628 49.4712 54.9679 50.1624 52.7746ZM47.1167 62.67L47.1557 62.6453L47.1822 62.684C46.8561 64.2442 46.53 65.8045 46.2039 67.3647L46.1649 67.3895L46.1399 67.3508C46.4629 65.7905 46.789 64.2303 47.1167 62.67ZM49.0593 40.8591L49.0952 40.8297L49.1248 40.8653C48.9282 42.698 48.6005 44.5152 48.1434 46.3014L48.1028 46.3246L48.0794 46.2844C48.5366 44.5028 48.8642 42.6871 49.0593 40.8591ZM41.9941 74.4137L41.952 74.4338L41.9333 74.392C43.0349 71.4573 43.9867 68.4652 44.7824 65.4361L44.823 65.4129L44.8464 65.4531C44.0475 68.4838 43.0957 71.4758 41.9941 74.4137ZM52.9507 45.738C52.7916 46.0321 52.5154 46.3649 52.1955 46.368L52.002 46.3231C51.7836 46.2147 51.7196 45.9794 51.7196 45.7426C51.7196 45.6126 51.7384 45.481 51.7633 45.3618C52.2205 43.2103 52.9289 41.1207 53.6825 39.0574C53.8417 38.624 54.0133 38.172 54.355 37.847C54.575 37.638 54.8855 37.5033 55.1867 37.5033C55.3552 37.5033 55.5221 37.5467 55.6657 37.6442C55.984 37.8625 56.0948 38.2649 56.1525 38.6317C56.2056 38.98 56.229 39.3298 56.229 39.6812C56.229 40.856 55.9668 42.0324 55.7063 43.1809C55.3037 44.9563 54.9011 46.7317 54.4986 48.5071L54.4596 48.5319L54.4346 48.4932C54.8372 46.7178 55.2397 44.9424 55.6423 43.167C55.9029 42.0169 56.1634 40.8452 56.1634 39.6812C56.1634 39.3345 56.14 38.9862 56.087 38.6426C56.0308 38.2804 55.92 37.8981 55.6282 37.6984C55.4972 37.6086 55.3443 37.5684 55.1867 37.5684C54.9058 37.5684 54.6094 37.6968 54.4018 37.895C54.0726 38.2061 53.9041 38.6472 53.7449 39.0791C52.9913 41.1424 52.2845 43.2289 51.8289 45.3758C51.8039 45.4919 51.7852 45.6203 51.7852 45.7442C51.7852 45.9733 51.846 46.176 52.0317 46.2658L52.1955 46.3045C52.4639 46.3076 52.7416 45.9949 52.893 45.7086C53.7793 44.0431 54.2957 42.1856 54.4003 40.305L54.3004 40.291C54.0929 40.291 53.8791 40.4242 53.7543 40.6022C53.6014 40.8173 53.5405 41.0882 53.4859 41.356C53.4141 41.7012 53.3424 42.0463 53.2706 42.3915L53.2316 42.4163L53.2066 42.3776C53.2784 42.0324 53.3502 41.6872 53.4219 41.342C53.4781 41.0743 53.5374 40.7941 53.7012 40.565C53.837 40.3715 54.0648 40.226 54.3004 40.226L54.4455 40.2462L54.4689 40.2802C54.3675 42.1779 53.8448 44.0555 52.9507 45.738ZM48.9251 77.2896L48.883 77.3097L48.8627 77.2679C50.2108 73.4107 51.5574 69.5534 52.9055 65.6946L52.9476 65.6744L52.9679 65.7162C51.6198 69.5751 50.2716 73.4323 48.9251 77.2896ZM57.7004 48.0149C56.7189 50.6107 55.5752 53.1569 54.9386 55.8517L54.898 55.8765L54.873 55.8362C55.5112 53.1337 56.6565 50.5843 57.6364 47.9917C58.2839 46.2797 58.8628 44.543 59.3699 42.7847L59.4105 42.7614L59.4339 42.8017C58.9268 44.5632 58.3479 46.3014 57.7004 48.0149ZM54.7763 53.1507C53.6591 56.4894 52.6028 59.8483 51.548 63.2072C49.8285 68.6788 48.109 74.1505 46.3896 79.6222L46.3474 79.6439L46.3256 79.6021C48.0451 74.1304 49.7645 68.6587 51.484 63.187C52.5404 59.8282 53.5951 56.4693 54.7123 53.1306C56.3085 48.3601 58.0327 43.6329 59.8801 38.9537L59.9223 38.9351L59.941 38.9769C58.0951 43.6561 56.3725 48.3817 54.7763 53.1507Z" fill="#543423"/>
<path d="M24.3111 124.132L24.3126 124.129C24.3283 124.128 24.3485 124.129 24.3657 124.126C24.6512 124.094 24.9571 124.08 25.2832 124.081C25.3206 124.081 25.3581 124.083 25.3955 124.083C25.7247 124.089 26.0711 124.114 26.4316 124.154C26.4706 124.159 26.508 124.162 26.547 124.166C26.92 124.213 27.3069 124.278 27.7032 124.361C27.7329 124.368 27.761 124.372 27.7906 124.379C28.215 124.471 28.6504 124.583 29.0904 124.719C29.3525 124.8 29.6068 124.888 29.8565 124.978C29.9283 125.004 29.9985 125.03 30.0687 125.056C30.2637 125.131 30.4541 125.208 30.6398 125.287C30.6928 125.31 30.7474 125.33 30.7989 125.354C31.0236 125.453 31.2405 125.556 31.448 125.662C31.5058 125.691 31.5588 125.721 31.615 125.75C31.7741 125.833 31.927 125.919 32.0753 126.005C32.1314 126.038 32.1892 126.072 32.2438 126.104C32.4295 126.217 32.6073 126.332 32.7712 126.448C32.7946 126.465 32.8149 126.482 32.8383 126.498C32.9818 126.601 33.116 126.705 33.2424 126.81C33.2845 126.844 33.3235 126.88 33.3641 126.914C33.4842 127.019 33.595 127.123 33.6965 127.228C33.7136 127.245 33.7323 127.262 33.7479 127.281C33.8618 127.403 33.9586 127.524 34.0444 127.643C34.0522 127.654 34.0631 127.665 34.0709 127.675L34.0694 127.68C34.3768 128.124 34.5 128.555 34.3814 128.935L34.837 127.479L35.5954 125.055L35.6469 124.889L41.122 107.38L41.2016 107.126L44.5875 96.2987L44.7014 95.9365L48.2215 84.6789C47.7628 84.7223 47.2572 84.747 46.7158 84.7517C46.5645 85.2671 46.4116 85.7826 46.2602 86.298L46.2196 86.3197L46.1978 86.2794C46.3476 85.7702 46.4974 85.2609 46.6472 84.7517C46.2524 84.7548 45.842 84.7486 45.4129 84.73C45.1009 88.448 44.639 92.1334 43.5093 95.6873C42.971 97.3776 42.2767 99.0431 41.2063 100.467C40.8849 100.891 40.462 101.337 39.9081 101.343H39.8956C39 101.339 38.5865 100.261 38.4898 99.4037C38.4274 98.8496 38.3993 98.297 38.3993 97.7475C38.3993 93.6503 40.0033 89.6414 41.5777 85.812C41.7727 85.343 42.2346 84.8105 42.6683 84.8059C42.7978 84.8059 42.9242 84.8569 43.0319 84.973C43.1645 85.1154 43.1988 85.3058 43.1988 85.4962C43.1988 85.5906 43.1895 85.6866 43.1801 85.7779C42.8197 88.999 42.038 92.1737 40.8661 95.1982L40.8412 95.2183L40.81 95.2075C40.4105 94.7509 40.2139 94.1503 40.2139 93.5497C40.2139 92.9043 40.4402 92.2588 40.8927 91.7898L40.9395 91.7883L40.941 91.8347C40.5026 92.2898 40.281 92.9197 40.281 93.5497C40.281 94.1162 40.4651 94.6781 40.8256 95.1162C41.9833 92.1149 42.7573 88.9665 43.1161 85.7717C43.1255 85.6819 43.1349 85.5875 43.1349 85.4977C43.1349 85.3151 43.1021 85.1433 42.9851 85.0195C42.8883 84.9158 42.7822 84.874 42.6699 84.874C42.2923 84.8693 41.8258 85.3863 41.6416 85.8398C40.0673 89.6677 38.4679 93.6705 38.4679 97.7506C38.4679 98.2986 38.4976 98.8496 38.5584 99.4007C38.652 100.252 39.0687 101.287 39.8987 101.283H39.9112C40.4246 101.278 40.8381 100.856 41.1564 100.433C42.2205 99.0168 42.9133 97.359 43.4501 95.6718C44.5766 92.1257 45.0385 88.4464 45.3505 84.7316C44.394 84.6882 43.3642 84.5953 42.2907 84.4437C41.4497 84.3245 40.643 84.179 39.8863 84.0133C37.2446 91.8564 33.8431 99.4749 32.2797 107.583C32.0222 108.918 31.8272 110.321 31.8272 111.692C31.8272 113.556 32.1845 115.364 33.2237 116.888C33.4577 117.234 33.8088 117.583 34.1911 117.582L34.3331 117.566C34.5437 117.52 34.72 117.364 34.8729 117.196C35.5907 116.419 35.9496 115.367 35.9496 114.314C35.9496 113.251 35.5829 112.188 34.8527 111.407L34.8542 111.361L34.901 111.363C35.6437 112.157 36.0151 113.235 36.0151 114.314C36.0151 115.382 35.6515 116.45 34.9213 117.241C34.7653 117.41 34.5812 117.577 34.3455 117.63L34.1895 117.647C33.7651 117.645 33.4078 117.275 33.1675 116.926C32.119 115.385 31.7601 113.564 31.7601 111.692C31.7601 110.313 31.9551 108.909 32.2141 107.57C33.7807 99.4548 37.1807 91.8362 39.8207 83.9994C39.3885 83.9035 38.975 83.8013 38.5787 83.6945C38.4149 84.1821 38.251 84.6712 38.0872 85.1588L38.0451 85.1789L38.0248 85.1371C38.1886 84.6495 38.3525 84.1635 38.5163 83.6759C38.2105 83.5923 37.9156 83.5072 37.6363 83.419C37.3492 84.5737 37.1026 85.7361 36.9201 86.914L36.8826 86.9419L36.8546 86.9048C37.0371 85.7237 37.2852 84.5566 37.5739 83.3988C36.8202 83.1574 36.1696 82.8973 35.6437 82.6311L23.8945 120.202L22.3154 125.23C22.5027 124.631 23.2454 124.262 24.3111 124.132ZM44.1132 84.7424L44.146 84.7749C44.1475 84.8941 44.1491 85.0133 44.1491 85.134C44.1491 87.0735 43.8511 89.0114 43.2644 90.8626L43.2222 90.8843L43.2004 90.8425C43.784 88.999 44.082 87.0657 44.082 85.134C44.082 85.0148 44.0804 84.8941 44.0789 84.7764L44.1132 84.7424ZM38.2838 110.44C38.574 110.858 38.7207 111.366 38.7207 111.872C38.7207 112.271 38.6286 112.672 38.443 113.028C38.3696 113.164 38.2495 113.322 38.0794 113.324L38.0357 113.321C37.8781 113.29 37.7939 113.143 37.6768 113.109L37.6129 113.098C37.5349 113.098 37.46 113.144 37.4022 113.215C37.3461 113.287 37.3086 113.382 37.3102 113.472V113.483C37.3164 113.697 37.4444 113.893 37.5271 114.108C37.5957 114.291 37.6269 114.475 37.6269 114.658C37.6254 115.455 37.0512 116.235 36.5128 116.87L36.466 116.874L36.4613 116.828C36.9997 116.195 37.5614 115.421 37.5614 114.656C37.5614 114.48 37.5317 114.303 37.4662 114.13C37.3882 113.924 37.254 113.721 37.2446 113.485V113.471C37.2462 113.26 37.4053 113.034 37.6144 113.031L37.6987 113.045C37.8469 113.096 37.9312 113.239 38.0482 113.254L38.081 113.257C38.2027 113.26 38.3181 113.127 38.3852 112.996C38.5662 112.65 38.6567 112.26 38.6567 111.87C38.6567 111.376 38.5132 110.883 38.2308 110.476C38.1262 110.324 38.0045 110.129 38.003 109.949C38.003 109.867 38.031 109.785 38.1028 109.723C38.2261 109.617 38.3977 109.637 38.5397 109.63C38.9969 109.617 39.4353 109.313 39.6085 108.892C39.6647 108.754 39.6912 108.606 39.6912 108.457C39.6912 108.151 39.5758 107.844 39.362 107.624V107.578H39.4088C39.6351 107.812 39.7568 108.135 39.7568 108.457C39.7568 108.614 39.7287 108.77 39.6678 108.915C39.4853 109.361 39.0265 109.678 38.5413 109.694C38.3915 109.699 38.237 109.688 38.1449 109.771L38.0685 109.948C38.0669 110.099 38.1808 110.293 38.2838 110.44ZM40.3263 102.038L40.3622 102.009L40.3918 102.044L40.3902 102.108C40.3902 102.486 40.5931 102.862 40.913 103.069L40.9223 103.114L40.8771 103.123C40.5369 102.903 40.3247 102.507 40.3247 102.106L40.3263 102.038ZM40.15 105.996L40.1546 106.043L40.1078 106.047C38.6224 104.854 37.6597 103.043 37.5052 101.153C37.488 100.924 37.46 100.676 37.2914 100.555L37.087 100.492C36.9092 100.49 36.7126 100.611 36.6205 100.777C36.5253 100.944 36.5019 101.14 36.5019 101.343C36.5019 101.424 36.505 101.506 36.5097 101.586C36.5534 102.428 36.6221 103.303 37.0496 104.013C37.059 103.897 37.0683 103.78 37.0683 103.663C37.0683 103.184 36.9919 102.704 36.8405 102.249L36.8608 102.207L36.9029 102.227C37.0558 102.688 37.1338 103.176 37.1338 103.662C37.1338 103.821 37.126 103.981 37.1089 104.14L37.0839 104.168L37.048 104.154C36.5487 103.408 36.4894 102.47 36.4442 101.588C36.4395 101.507 36.4364 101.424 36.4364 101.342C36.4364 101.136 36.4598 100.927 36.5628 100.744C36.6673 100.558 36.8795 100.427 37.087 100.427C37.1729 100.427 37.2571 100.45 37.3305 100.503C37.5317 100.651 37.5536 100.922 37.5723 101.148C37.7237 103.018 38.6786 104.815 40.15 105.996ZM36.6564 95.5186L36.6782 95.5589C36.0307 97.6144 35.5189 99.7118 35.1476 101.834C35.0602 102.332 34.9806 102.838 34.9806 103.34C34.9806 103.566 34.9962 103.792 35.0352 104.016C35.2537 105.275 36.1571 106.31 37.1198 107.174C37.4646 107.484 37.8734 107.793 38.315 107.793L38.4289 107.787L38.4648 107.815L38.4367 107.85L38.315 107.858C37.8422 107.857 37.4241 107.535 37.0761 107.222C36.1103 106.355 35.1928 105.31 34.9697 104.027C34.9307 103.8 34.9135 103.569 34.9135 103.34C34.9135 102.832 34.9931 102.321 35.0805 101.823C35.4518 99.6978 35.9652 97.5989 36.6127 95.5403L36.6564 95.5186ZM35.5891 108.702C35.4378 108.039 35.2661 107.219 34.628 107.086L34.4688 107.069C34.1833 107.069 33.8962 107.225 33.7027 107.445C33.4702 107.705 33.3407 108.044 33.2315 108.381C32.9038 109.403 32.7306 110.477 32.7306 111.548C32.7306 112.15 32.7852 112.753 32.8991 113.344C33.0177 113.964 33.3329 114.677 33.9414 114.732L33.9945 114.735L34.1708 114.689C34.2332 114.644 34.266 114.564 34.2894 114.481C34.3221 114.368 34.3362 114.251 34.3362 114.133C34.3362 113.68 34.1021 113.228 33.7245 112.974L33.6965 113.119C33.6965 113.232 33.7323 113.347 33.8026 113.437L33.7963 113.483L33.7495 113.477C33.6699 113.375 33.6294 113.248 33.6294 113.119L33.6715 112.903L33.6918 112.884L33.7199 112.887C34.1443 113.149 34.4017 113.643 34.4017 114.135C34.4017 114.259 34.3861 114.381 34.3518 114.5C34.3268 114.587 34.2894 114.683 34.2082 114.743L33.9929 114.803L33.9336 114.8C33.2689 114.734 32.9522 113.986 32.832 113.359C32.7181 112.763 32.6635 112.157 32.6635 111.551C32.6635 110.473 32.8383 109.394 33.1675 108.364C33.2767 108.024 33.4078 107.676 33.6512 107.405C33.8572 107.174 34.1567 107.007 34.4673 107.007L34.6404 107.025C35.3348 107.18 35.4986 108.035 35.6515 108.691C35.9199 109.853 36.5659 110.929 37.4693 111.715L37.4724 111.762L37.4256 111.765C36.5128 110.965 35.8591 109.878 35.5891 108.702ZM36.1477 119.405H36.1945V119.452C35.1788 120.438 34.3721 121.637 33.8416 122.945L33.7979 122.964L33.7791 122.92C34.3128 121.605 35.1241 120.399 36.1477 119.405ZM31.1656 118.531C31.2452 118.495 31.3279 118.478 31.4106 118.478C31.7226 118.48 32.0285 118.702 32.158 118.995C32.2266 119.153 32.2547 119.32 32.2547 119.49C32.2547 119.715 32.2063 119.941 32.1424 120.154C31.9739 120.71 31.6946 121.232 31.3263 121.681L31.2795 121.685L31.2748 121.639C31.6384 121.196 31.913 120.682 32.08 120.134C32.1439 119.925 32.1892 119.704 32.1892 119.49C32.1892 119.328 32.1626 119.17 32.0971 119.021C31.9801 118.752 31.6899 118.543 31.4106 118.545L31.1921 118.591C31.0189 118.668 30.8941 118.833 30.7864 119.001C30.2091 119.902 29.8986 120.967 29.8986 122.035C29.8986 122.153 29.9049 122.27 29.9127 122.386C30.7006 121.919 31.189 121.007 31.189 120.1C31.189 119.865 31.1562 119.631 31.0891 119.405L31.111 119.365L31.1516 119.387C31.2218 119.619 31.2545 119.86 31.2545 120.102C31.2545 121.052 30.7365 122.004 29.8971 122.476H29.8658L29.8487 122.45C29.8378 122.312 29.8331 122.174 29.8331 122.037C29.8331 120.958 30.1467 119.879 30.7303 118.969C30.8426 118.795 30.9706 118.617 31.1656 118.531ZM30.8036 115.936L30.7755 115.974L30.7381 115.946C30.5368 114.604 30.4369 113.246 30.4369 111.889C30.4369 109.921 30.6476 107.954 31.0689 106.032L31.1079 106.007L31.1328 106.046C30.7131 107.963 30.504 109.926 30.504 111.889C30.504 113.243 30.6039 114.598 30.8036 115.936ZM34.7231 86.736L34.7575 86.7051L34.7887 86.7391C34.7122 88.8458 33.3625 90.7713 33.3641 92.8362C33.3641 92.9213 33.3657 93.008 33.3719 93.0947C33.3797 93.2572 33.4062 93.429 33.517 93.5281C33.5825 93.59 33.6699 93.6163 33.762 93.6163C33.8665 93.6163 33.9773 93.5807 34.0662 93.5188C34.2316 93.4027 34.3393 93.2169 34.4407 93.0312C34.7231 92.5204 35.0056 92.0096 35.288 91.4988L35.3239 91.4833C35.4783 91.5205 35.5298 91.6706 35.5283 91.8177C35.5283 91.9121 35.5095 92.0096 35.483 92.0947C34.9525 93.7556 34.344 95.3917 33.6621 96.9968L33.6184 97.0138L33.6013 96.9705C34.2831 95.3669 34.8901 93.7324 35.4191 92.0746C35.444 91.9957 35.4612 91.9028 35.4612 91.8177C35.4596 91.6892 35.4191 91.5963 35.327 91.5623C35.0508 92.0638 34.7731 92.5637 34.4969 93.0637C34.3939 93.2494 34.2847 93.446 34.1021 93.5745C34.0038 93.6426 33.8806 93.6828 33.7604 93.6844C33.6543 93.6844 33.5498 93.6519 33.4702 93.5776C33.3376 93.4538 33.3126 93.2649 33.3032 93.0993C33.2986 93.0111 33.2954 92.9244 33.2954 92.8377C33.3001 90.7435 34.6514 88.8179 34.7231 86.736ZM32.559 97.5293L32.598 97.5061L32.6214 97.5448C31.9848 100.123 31.3482 102.701 30.7115 105.278C30.0749 107.855 29.4383 110.434 28.9577 113.044C28.7268 114.293 28.5349 115.574 28.5349 116.839C28.5349 117.76 28.6379 118.673 28.9016 119.558L28.8797 119.599L28.8392 119.577C28.5739 118.684 28.4709 117.766 28.4709 116.839C28.4709 115.568 28.6628 114.282 28.8938 113.031C29.3743 110.42 30.0125 107.84 30.6476 105.262C31.2857 102.685 31.9224 100.108 32.559 97.5293ZM29.9704 103.332L30.0094 103.307L30.0344 103.346C29.3151 106.355 28.4616 109.335 27.477 112.27L27.4349 112.291L27.4146 112.249C28.3976 109.318 29.2511 106.34 29.9704 103.332ZM26.2194 116.707C26.3879 116.269 26.5564 115.794 26.5548 115.344C26.5548 115.133 26.5189 114.927 26.43 114.732L26.4456 114.689L26.4893 114.706C26.5829 114.91 26.6204 115.125 26.6204 115.344C26.6204 115.81 26.4487 116.291 26.2802 116.731C25.7887 118 25.2988 119.269 24.8088 120.538L24.7667 120.557L24.748 120.515C25.2379 119.246 25.7279 117.977 26.2194 116.707ZM23.8196 122.324L23.8633 122.338C23.921 122.453 23.9787 122.569 24.0365 122.685C24.8354 122.157 25.4688 121.39 25.8277 120.507L25.8621 120.487L25.8901 120.515C25.9369 120.84 25.9838 121.165 26.0321 121.49C26.377 121.475 26.5782 121.191 26.7733 120.845C26.973 120.49 27.1618 120.085 27.5191 119.902C27.5878 119.866 27.6689 119.842 27.7485 119.842L27.8874 119.873C28.0621 119.961 28.0918 120.173 28.1136 120.342C28.1994 121.105 28.396 121.893 28.9265 122.439C29.2464 122.769 29.7239 122.973 30.1779 122.973C30.4713 122.973 30.7537 122.888 30.9799 122.701C31.2171 122.504 31.37 122.218 31.5806 121.976C31.7601 121.773 32.016 121.597 32.289 121.597L32.4451 121.619L32.4685 121.647L32.4778 121.823C32.4778 122.258 32.3109 122.677 32.2001 123.092C32.1439 123.301 32.1034 123.524 32.1034 123.741C32.1034 124.01 32.1642 124.266 32.3296 124.471C32.5231 124.714 32.8336 124.829 33.1535 124.829C33.3672 124.829 33.5841 124.778 33.7713 124.68C34.2426 124.436 34.5593 123.968 34.784 123.484L34.8277 123.468L34.8433 123.512C34.6155 124.004 34.2909 124.485 33.801 124.739C33.6028 124.841 33.3766 124.895 33.1519 124.895C32.8164 124.895 32.4856 124.775 32.2766 124.513C32.1002 124.293 32.0363 124.021 32.0363 123.742C32.0363 123.518 32.0768 123.289 32.1346 123.077C32.2485 122.657 32.4107 122.242 32.4107 121.825L32.4029 121.679L32.2859 121.664C32.0441 121.662 31.7991 121.826 31.6275 122.021C31.4215 122.255 31.2686 122.544 31.0189 122.752C30.7786 122.951 30.4806 123.04 30.1748 123.04C29.702 123.04 29.2105 122.829 28.8766 122.485C28.3305 121.922 28.1323 121.119 28.0465 120.351C28.0278 120.182 27.9919 119.997 27.8577 119.933L27.7485 119.91L27.5488 119.962C27.2195 120.128 27.0307 120.521 26.8295 120.879C26.6297 121.233 26.4113 121.563 26.004 121.563L25.9713 121.535C25.9276 121.233 25.8839 120.931 25.8402 120.63C25.4657 121.495 24.8369 122.249 24.0427 122.766L24.0162 122.77L23.9959 122.753C23.9319 122.626 23.868 122.499 23.804 122.372L23.8196 122.324Z" fill="#543423"/>
<path d="M51.4921 33.5841C51.1223 33.6971 50.882 33.872 50.8086 34.1104C50.7166 34.4029 50.8882 34.7574 51.2611 35.1366C51.2689 35.1149 51.2767 35.0933 51.2845 35.0716L51.3017 35.053L51.3828 35.036C51.4967 35.0391 51.5654 35.1382 51.6309 35.2403C51.6949 35.3456 51.7573 35.4648 51.8338 35.5329L52.0085 35.601C52.2285 35.6056 52.4938 35.3146 52.5656 35.0453C52.6654 34.6924 52.7622 34.211 53.16 34.1398L53.2396 34.1336C53.3395 34.1336 53.4378 34.1615 53.5283 34.1924C54.065 34.3735 54.5487 34.697 54.9201 35.1211L54.917 35.1676L54.8702 35.1645C54.5066 34.7497 54.0307 34.4323 53.5064 34.2559C53.4175 34.2265 53.327 34.2002 53.2396 34.2002L53.1725 34.2064C52.8339 34.2559 52.7278 34.7032 52.6295 35.0639C52.5468 35.3549 52.2816 35.6629 52.0085 35.6675C51.9321 35.6675 51.8556 35.6412 51.7901 35.5824C51.6996 35.5019 51.6372 35.3781 51.5747 35.2759C51.5123 35.1722 51.4499 35.0995 51.3844 35.1026L51.3423 35.1119C51.3329 35.1366 51.3235 35.1629 51.3142 35.1877C51.6965 35.5607 52.2691 35.9554 52.9868 36.3409L53.0259 36.3192L53.0493 36.3594C53.0477 36.3641 53.0477 36.3687 53.0461 36.3718C53.9464 36.8501 55.0652 37.3114 56.3041 37.6937C56.8393 37.8578 57.3636 37.9955 57.8707 38.1101C58.0766 37.2556 58.3247 36.4105 58.6196 35.5809L58.6617 35.5607L58.682 35.6025C58.3871 36.4291 58.1406 37.2711 57.9346 38.124C60.5466 38.706 62.6281 38.6162 62.8762 37.8222C63.1742 36.8687 60.7151 35.2651 57.3823 34.2389C55.772 33.7435 54.2569 33.4758 53.082 33.4371C52.4329 33.4185 51.8868 33.4649 51.4921 33.5841Z" fill="#543423"/>
<path d="M59.8798 38.9536C58.0323 43.6328 56.3097 48.36 54.712 53.1305C53.5948 56.4692 52.5384 59.8281 51.4836 63.187C49.7642 68.6587 48.0447 74.1304 46.3252 79.6021L46.347 79.6438L46.3892 79.6222C48.1086 74.1505 49.8281 68.6788 51.5476 63.2071C52.6039 59.8482 53.6587 56.4894 54.7759 53.1506C56.3721 48.3817 58.0947 43.656 59.9422 38.9769L59.9234 38.9351L59.8798 38.9536Z" fill="#543423"/>
<path d="M43.4448 95.6752C42.9081 97.3623 42.2153 99.0201 41.1511 100.436C40.8328 100.859 40.4193 101.283 39.906 101.286H39.8935C39.0634 101.291 38.6468 100.255 38.5532 99.404C38.4908 98.8529 38.4627 98.3034 38.4627 97.7539C38.4627 93.6738 40.062 89.671 41.6364 85.8431C41.8205 85.3896 42.2871 84.8726 42.6647 84.8773C42.777 84.8773 42.8831 84.9191 42.9798 85.0228C43.0953 85.1466 43.1296 85.3184 43.1296 85.5011C43.1296 85.5924 43.1203 85.6853 43.1109 85.775C42.752 88.9698 41.9797 92.1182 40.8204 95.1195C40.4599 94.683 40.2758 94.1196 40.2758 93.553C40.2758 92.9231 40.4974 92.2931 40.9358 91.838L40.9343 91.7916L40.8874 91.7931C40.4365 92.2621 40.2087 92.9091 40.2087 93.553C40.2087 94.1536 40.4053 94.7542 40.8047 95.2108L40.836 95.2216L40.8609 95.2015C42.0343 92.177 42.8144 89.0023 43.1749 85.7812C43.1842 85.6899 43.1936 85.5955 43.1936 85.4995C43.1936 85.3107 43.1593 85.1187 43.0267 84.9763C42.919 84.8602 42.7926 84.8092 42.6631 84.8092C42.2293 84.8138 41.769 85.3478 41.5724 85.8153C39.9981 89.6431 38.394 93.6521 38.394 97.7508C38.394 98.3019 38.4237 98.8545 38.4845 99.4071C38.5813 100.265 38.9948 101.342 39.8904 101.347H39.9029C40.4552 101.339 40.8796 100.895 41.2011 100.47C42.2715 99.0464 42.9674 97.3809 43.5041 95.6906C44.6338 92.1367 45.0956 88.4513 45.4077 84.7333C45.3859 84.7318 45.364 84.7302 45.3422 84.7302C45.0332 88.4497 44.5714 92.129 43.4448 95.6752Z" fill="#543423"/>
<path d="M35.4353 83.4658L22.0181 125.61C24.0249 127.559 26.5617 130.052 30.2749 131.287C34.2915 132.622 38.245 131.344 41.112 131.459L42.4881 126.814L43.3482 131.459C44.667 131.573 47.7518 131.734 49.5408 131.459C51.3298 131.183 54.5293 130.082 55.9054 129.566L49.7128 84.6699L51.605 83.8098L51.433 80.1975L50.4009 78.8214L63.3021 37.3653C61.582 36.2185 59.3028 34.706 56.4215 33.7529C53.58 32.8129 48.8527 32.5488 48.8527 32.5488C48.8527 32.5488 44.1509 33.1222 42.8321 33.5809V35.3011C42.8321 35.3011 43.0041 32.6635 41.8 32.5488C40.5959 32.4341 36.1235 32.7208 36.1235 32.7208C36.1235 32.7208 29.7588 34.097 29.5868 34.957C29.4492 35.6451 33.7726 63.4545 35.9515 77.2732L34.7473 77.7893L33.8873 81.9177L35.4353 83.4658Z" stroke="white" stroke-width="2"/>
<path d="M46.8748 70.8921C47.7829 66.391 49.4306 62.0755 50.7507 57.6703C51.729 54.409 52.5279 51.0919 53.7075 47.9002L53.6872 47.8584L53.6451 47.877C52.4655 51.0733 51.665 54.3919 50.6883 57.6502C49.3682 62.0508 47.7205 66.3693 46.8108 70.8782C46.193 73.9383 45.9199 77.0588 45.689 80.1824C45.7108 80.184 45.7327 80.184 45.7545 80.1855C45.9854 77.0635 46.2569 73.9461 46.8748 70.8921Z" fill="#543423"/>
<path d="M52.9833 36.3423C50.6678 44.5646 48.6425 52.8657 46.9121 61.2273L46.9371 61.266L46.9761 61.2412C48.7065 52.8859 50.7302 44.5893 53.0442 36.3717C53.0458 36.3671 53.0458 36.3624 53.0473 36.3593L53.0239 36.3191L52.9849 36.3408L52.9833 36.3423Z" fill="#543423"/>
<path d="M36.8467 86.9064L36.8748 86.9435L36.9122 86.9157C37.0948 85.7393 37.3413 84.5753 37.6284 83.4206C37.6066 83.4144 37.5878 83.4067 37.566 83.3989C37.2789 84.5598 37.0308 85.7254 36.8467 86.9064Z" fill="#543423"/>
<path d="M40.5382 74.1164C43.2111 66.1681 45.5032 58.0945 47.4068 49.931L47.3818 49.8923L47.3428 49.9171C45.4408 58.079 43.1486 66.1511 40.4758 74.0963C39.9188 75.7509 39.3461 77.4056 38.8125 79.0711C38.8343 79.0773 38.8546 79.0835 38.8765 79.0881C39.4101 77.4257 39.9827 75.7711 40.5382 74.1164Z" fill="#543423"/>
<path d="M32.2075 107.574C31.9485 108.912 31.7534 110.318 31.7534 111.695C31.7534 113.567 32.1123 115.389 33.1608 116.929C33.4011 117.28 33.7584 117.649 34.1828 117.65L34.3389 117.633C34.5729 117.58 34.757 117.413 34.9146 117.245C35.6449 116.454 36.0084 115.386 36.0084 114.318C36.0084 113.239 35.6371 112.16 34.8944 111.366L34.8475 111.364L34.846 111.411C35.5762 112.191 35.9429 113.254 35.9429 114.318C35.9429 115.37 35.584 116.423 34.8663 117.2C34.7118 117.367 34.537 117.523 34.3264 117.57L34.1844 117.585C33.8021 117.587 33.4511 117.238 33.217 116.892C32.1778 115.367 31.8205 113.558 31.8205 111.695C31.8205 110.323 32.0156 108.922 32.273 107.586C33.838 99.4782 37.238 91.8596 39.8796 84.0166C39.8578 84.012 39.8359 84.0073 39.8141 84.0027C37.1756 91.838 33.774 99.4581 32.2075 107.574Z" fill="#543423"/>
<path d="M28.4707 116.839C28.4707 117.765 28.5737 118.684 28.8389 119.577L28.8795 119.599L28.9014 119.559C28.6377 118.673 28.5347 117.761 28.5347 116.839C28.5347 115.574 28.7266 114.293 28.9575 113.044C29.4381 110.435 30.0747 107.857 30.7113 105.278C31.3479 102.701 31.9846 100.122 32.6212 97.5448L32.5978 97.5061L32.5588 97.5293C31.9221 100.108 31.2855 102.685 30.6489 105.262C30.0123 107.84 29.3757 110.42 28.8951 113.031C28.6642 114.282 28.4707 115.568 28.4707 116.839Z" fill="#543423"/>
<path d="M34.9165 103.34C34.9165 103.571 34.9337 103.8 34.9727 104.027C35.1958 105.311 36.1117 106.355 37.0791 107.222C37.4271 107.533 37.8452 107.857 38.318 107.858L38.4397 107.851L38.4678 107.815L38.4319 107.787L38.318 107.793C37.878 107.795 37.4676 107.485 37.1228 107.174C36.1601 106.31 35.2551 105.275 35.0382 104.017C34.9992 103.792 34.9836 103.566 34.9836 103.34C34.9836 102.839 35.0616 102.332 35.1506 101.834C35.5219 99.712 36.0337 97.6146 36.6812 95.559L36.6594 95.5188L36.6188 95.5405C35.9713 97.5991 35.4579 99.698 35.0866 101.823C34.9961 102.322 34.9165 102.832 34.9165 103.34Z" fill="#543423"/>
<path d="M37.3301 100.501C37.2568 100.449 37.1725 100.426 37.0867 100.426C36.8792 100.427 36.6685 100.559 36.5624 100.743C36.4594 100.925 36.436 101.134 36.436 101.34C36.436 101.424 36.4392 101.506 36.4438 101.586C36.4906 102.47 36.5499 103.407 37.0477 104.153L37.0836 104.167L37.1085 104.139C37.1257 103.979 37.1335 103.82 37.1335 103.661C37.1335 103.175 37.0555 102.687 36.9026 102.226L36.8604 102.206L36.8402 102.247C36.99 102.702 37.068 103.182 37.068 103.662C37.068 103.778 37.0586 103.896 37.0492 104.012C36.6217 103.301 36.5531 102.427 36.5094 101.585C36.5047 101.504 36.5016 101.422 36.5016 101.342C36.5016 101.141 36.525 100.944 36.6202 100.775C36.7122 100.611 36.9088 100.491 37.0867 100.491L37.2911 100.554C37.4612 100.675 37.4877 100.924 37.5049 101.151C37.6593 103.041 38.6221 104.852 40.1075 106.046L40.1543 106.041L40.1496 105.995C38.6782 104.814 37.7233 103.017 37.572 101.145C37.5532 100.921 37.5314 100.65 37.3301 100.501Z" fill="#543423"/>
<path d="M37.474 111.757L37.4708 111.711C36.5674 110.925 35.9214 109.849 35.6531 108.687C35.5002 108.03 35.3363 107.176 34.642 107.021L34.4688 107.002C34.1583 107.002 33.8587 107.17 33.6527 107.4C33.4093 107.673 33.2767 108.021 33.169 108.36C32.8398 109.388 32.665 110.468 32.665 111.547C32.665 112.154 32.7196 112.759 32.8336 113.355C32.9537 113.982 33.2704 114.729 33.9351 114.796L33.9944 114.799L34.2098 114.739C34.2925 114.678 34.3283 114.582 34.3533 114.496C34.3876 114.376 34.4032 114.253 34.4032 114.13C34.4032 113.638 34.1458 113.146 33.7214 112.883L33.6933 112.88L33.673 112.898L33.6309 113.115C33.6309 113.242 33.6714 113.37 33.751 113.473L33.7978 113.479L33.8041 113.432C33.7339 113.342 33.698 113.228 33.698 113.115L33.7261 112.969C34.1037 113.223 34.3377 113.675 34.3377 114.129C34.3377 114.246 34.3221 114.364 34.2909 114.477C34.2675 114.561 34.2332 114.64 34.1723 114.684L33.996 114.731L33.9429 114.728C33.3344 114.674 33.0177 113.96 32.9006 113.339C32.7867 112.748 32.7321 112.146 32.7321 111.544C32.7321 110.473 32.9053 109.399 33.233 108.377C33.3407 108.038 33.4717 107.699 33.7042 107.44C33.8993 107.221 34.1848 107.064 34.4703 107.064L34.6295 107.081C35.2677 107.215 35.4393 108.035 35.5907 108.697C35.8621 109.874 36.5159 110.96 37.4287 111.756L37.474 111.757Z" fill="#543423"/>
<path d="M54.4456 40.2445L54.3005 40.2244C54.0633 40.2244 53.8371 40.3714 53.7013 40.5634C53.5375 40.794 53.4782 41.0742 53.422 41.3404C53.3503 41.6856 53.2785 42.0308 53.2067 42.3759L53.2317 42.4146L53.2707 42.3899C53.3425 42.0431 53.4142 41.6995 53.486 41.3543C53.5406 41.0866 53.6015 40.8157 53.7544 40.6005C53.8792 40.4225 54.0914 40.2879 54.3005 40.2894L54.4004 40.3033C54.2958 42.184 53.7778 44.0414 52.8931 45.7069C52.7417 45.9933 52.464 46.306 52.1956 46.3029L52.0318 46.2642C51.8477 46.1744 51.7868 45.9716 51.7853 45.7425C51.7853 45.6187 51.804 45.4902 51.8289 45.3741C52.2861 43.2288 52.9914 41.1407 53.745 39.0774C53.9026 38.6456 54.0727 38.2029 54.4019 37.8933C54.6094 37.6952 54.9075 37.5667 55.1868 37.5667C55.3444 37.5667 55.4973 37.607 55.6283 37.6967C55.9201 37.8964 56.0309 38.2787 56.0871 38.6409C56.1401 38.9861 56.1635 39.3328 56.1635 39.6796C56.1635 40.8435 55.903 42.0153 55.6424 43.1653C55.2398 44.9407 54.8373 46.7161 54.4347 48.4915L54.4597 48.5302L54.4987 48.5055C54.9012 46.7301 55.3038 44.9547 55.7064 43.1793C55.9669 42.0292 56.2291 40.8528 56.2291 39.6796C56.2291 39.3297 56.2057 38.9799 56.1526 38.6301C56.0964 38.2633 55.9841 37.8608 55.6658 37.6426C55.5222 37.545 55.3553 37.5017 55.1868 37.5017C54.8856 37.5017 54.5767 37.6364 54.3551 37.8453C54.0118 38.1704 53.8402 38.6224 53.6826 39.0558C52.9274 41.1206 52.2206 43.2102 51.7634 45.3602C51.7385 45.4794 51.7197 45.6125 51.7197 45.741C51.7197 45.9778 51.7837 46.2131 52.0021 46.3214L52.1956 46.3663C52.5155 46.3632 52.7917 46.0289 52.9508 45.7363C53.8449 44.0538 54.3676 42.1763 54.469 40.277L54.4456 40.2445Z" fill="#543423"/>
<path d="M57.3679 41.0898L57.4054 41.0603C57.5208 40.0728 57.7003 39.0915 57.9328 38.1241C58.1387 37.2712 58.3853 36.4291 58.6802 35.6026L58.6599 35.5608L58.6178 35.5809C58.3213 36.409 58.0748 37.2557 57.8688 38.1101C57.6347 39.0806 57.4553 40.0635 57.3398 41.0526L57.3679 41.0898Z" fill="#543423"/>
<path d="M59.3714 42.7846C58.8627 44.543 58.2854 46.2797 57.6378 47.9916C56.6564 50.5858 55.5127 53.1336 54.8745 55.8362L54.8995 55.8764L54.94 55.8517C55.5751 53.1568 56.7188 50.6106 57.7018 48.0148C58.3494 46.3014 58.9282 44.5616 59.4369 42.8032L59.4135 42.7629L59.3714 42.7846Z" fill="#543423"/>
<path d="M52.9051 65.696C51.557 69.5533 50.2089 73.4105 48.8623 77.2678L48.8826 77.3096L48.9247 77.2895C50.2713 73.4322 51.6194 69.5749 52.9675 65.7161L52.9472 65.6743L52.9051 65.696Z" fill="#543423"/>
<path d="M44.8448 65.4516L44.8214 65.4114L44.7808 65.4346C43.985 68.4653 43.0332 71.4558 41.9316 74.3905L41.9504 74.4323L41.9925 74.4122C43.0956 71.4759 44.0474 68.4839 44.8448 65.4516Z" fill="#543423"/>
<path d="M45.6451 70.5594L45.6186 70.5208L45.5796 70.5471C44.957 73.6892 44.4531 76.8531 44.0552 80.0308C44.077 80.0339 44.0989 80.037 44.1207 80.0386C44.5186 76.8623 45.0226 73.6985 45.6451 70.5594Z" fill="#543423"/>
<path d="M46.1367 67.3508L46.1617 67.3895L46.2007 67.3647C46.5268 65.8044 46.8529 64.2442 47.179 62.684L47.1525 62.6453L47.1135 62.67C46.7889 64.2303 46.4628 65.7905 46.1367 67.3508Z" fill="#543423"/>
<path d="M48.1045 46.3245L48.145 46.3013C48.6022 44.5166 48.9299 42.6979 49.1265 40.8652L49.0968 40.8296L49.0609 40.859C48.8659 42.6886 48.5382 44.5027 48.0811 46.2858L48.1045 46.3245Z" fill="#543423"/>
<path d="M50.2202 39.1021L50.2483 39.1392L50.2857 39.1114C50.473 37.7694 50.8194 36.4506 51.314 35.1891C51.3234 35.1643 51.3312 35.138 51.3421 35.1133L51.3842 35.104C51.4513 35.1009 51.5122 35.1736 51.5746 35.2773C51.637 35.3795 51.6994 35.5033 51.7899 35.5838C51.8554 35.6426 51.9319 35.6689 52.0083 35.6689C52.2814 35.6643 52.5467 35.3563 52.6294 35.0653C52.7277 34.7031 52.8338 34.2573 53.1724 34.2078L53.2394 34.2016C53.3268 34.2016 53.4173 34.2263 53.5063 34.2573C54.0321 34.4337 54.5064 34.7526 54.87 35.1659L54.9168 35.169L54.9199 35.1225C54.5486 34.7 54.0633 34.3749 53.5281 34.1938C53.4376 34.1629 53.3409 34.135 53.2394 34.135L53.1599 34.1412C52.7604 34.2109 52.6652 34.6938 52.5654 35.0467C52.492 35.316 52.2268 35.6055 52.0083 35.6024L51.8336 35.5343C51.7571 35.4677 51.6947 35.347 51.6307 35.2417C51.5668 35.138 51.4981 35.039 51.3827 35.0374L51.3015 35.0544L51.2844 35.073C51.2766 35.0947 51.2688 35.1164 51.261 35.138C50.7601 36.4119 50.409 37.7462 50.2202 39.1021Z" fill="#543423"/>
<path d="M48.1513 59.3762C48.8425 57.1813 49.5337 54.988 50.225 52.7946L50.2031 52.7544L50.1625 52.7761C49.4713 54.9694 48.7785 57.1627 48.0889 59.3576L48.1107 59.3994L48.1513 59.3762Z" fill="#543423"/>
<path d="M38.0181 85.1403L38.0384 85.1821L38.0805 85.162C38.2443 84.6744 38.4081 84.1853 38.572 83.6977C38.5501 83.6915 38.5283 83.6869 38.508 83.6807C38.3457 84.1667 38.1819 84.6527 38.0181 85.1403Z" fill="#543423"/>
<path d="M40.9376 76.6549C41.0843 76.7044 41.1654 76.8732 41.2466 77.0558C41.3324 77.2446 41.4229 77.4474 41.6398 77.4629H41.66C41.852 77.4614 41.9846 77.2942 42.0798 77.1471C42.4886 76.5094 42.7554 75.7819 42.8584 75.0328L42.8303 74.9956L42.7928 75.0235C42.693 75.7633 42.4277 76.4816 42.0236 77.1115C41.9315 77.2555 41.8051 77.3979 41.6585 77.3963H41.6429C41.4759 77.3886 41.3932 77.2214 41.3074 77.0279C41.2216 76.8391 41.1358 76.6255 40.9251 76.5775L40.8861 76.5992C40.5787 77.5155 40.2713 78.4319 39.9624 79.3482C39.9842 79.3528 40.0045 79.359 40.0264 79.3637C40.3322 78.4613 40.6349 77.5589 40.9376 76.6549Z" fill="#543423"/>
<path d="M33.4729 93.5778C33.5525 93.6521 33.657 93.6846 33.7631 93.6846C33.8833 93.6846 34.0065 93.6444 34.1048 93.5747C34.2874 93.4478 34.3966 93.2497 34.4996 93.0639C34.7758 92.564 35.0535 92.064 35.3297 91.5625C35.4218 91.5981 35.4623 91.691 35.4639 91.8179C35.4639 91.903 35.4467 91.9959 35.4218 92.0749C34.8928 93.7342 34.2858 95.3687 33.604 96.9707L33.6211 97.0141L33.6648 96.9971C34.3467 95.3919 34.9552 93.7558 35.4857 92.095C35.5123 92.0114 35.531 91.9123 35.531 91.8179C35.5325 91.6709 35.4826 91.5192 35.3266 91.4836L35.2907 91.4991C35.0083 92.0098 34.7258 92.5206 34.4434 93.0314C34.342 93.2172 34.2343 93.4045 34.069 93.519C33.9816 93.5794 33.8692 93.6165 33.7647 93.6165C33.6726 93.6165 33.5852 93.5887 33.5197 93.5283C33.4089 93.4277 33.3824 93.2574 33.3746 93.0949C33.3699 93.0082 33.3668 92.9215 33.3668 92.8364C33.3652 90.7716 34.7149 88.846 34.7914 86.7394L34.7602 86.7053L34.7258 86.7363C34.6541 88.8182 33.3028 90.7422 33.3013 92.8364C33.3013 92.9231 33.3028 93.0113 33.3091 93.098C33.3153 93.2652 33.3387 93.454 33.4729 93.5778Z" fill="#543423"/>
<path d="M43.2017 90.8426L43.2235 90.8843L43.2656 90.8627C43.8508 89.013 44.1503 87.0735 44.1503 85.134C44.1503 85.0133 44.1488 84.8941 44.1472 84.7749L44.1145 84.7424L44.0817 84.7749C44.0832 84.8941 44.0848 85.0133 44.0848 85.1325C44.0832 87.0673 43.7852 88.9991 43.2017 90.8426Z" fill="#543423"/>
<path d="M46.1958 86.2873L46.2176 86.3275L46.2582 86.3058C46.4096 85.7904 46.5625 85.275 46.7138 84.7595C46.6904 84.7595 46.667 84.7595 46.6452 84.7595C46.4954 85.2688 46.3456 85.778 46.1958 86.2873Z" fill="#543423"/>
<path d="M47.7671 80.1313L47.7281 80.105L47.7031 80.1452C47.7109 80.1824 47.7094 80.2195 47.714 80.2567C47.7359 80.2567 47.7577 80.2567 47.7796 80.2567C47.7733 80.2149 47.7765 80.1731 47.7671 80.1313Z" fill="#543423"/>
<path d="M40.8752 103.125L40.9205 103.116L40.9111 103.071C40.5912 102.863 40.3884 102.487 40.3884 102.11L40.3899 102.046L40.3603 102.01L40.3244 102.04L40.3213 102.11C40.3244 102.509 40.5366 102.904 40.8752 103.125Z" fill="#543423"/>
<path d="M38.5412 109.697C39.0265 109.682 39.4852 109.364 39.6678 108.919C39.7271 108.773 39.7567 108.617 39.7567 108.46C39.7567 108.139 39.635 107.815 39.4088 107.581H39.362V107.628C39.5757 107.848 39.6912 108.156 39.6912 108.46C39.6912 108.609 39.6631 108.758 39.6085 108.895C39.4369 109.316 38.9984 109.62 38.5397 109.634C38.3977 109.64 38.2261 109.62 38.1028 109.727C38.0326 109.789 38.0029 109.869 38.0029 109.953C38.0045 110.132 38.1262 110.327 38.2307 110.479C38.5116 110.884 38.6567 111.38 38.6567 111.874C38.6567 112.264 38.5678 112.654 38.3852 112.999C38.3166 113.13 38.2011 113.262 38.0809 113.26L38.0482 113.257C37.9312 113.24 37.8453 113.099 37.6987 113.048L37.6144 113.034C37.4053 113.038 37.2477 113.264 37.2446 113.474V113.488C37.254 113.725 37.3882 113.926 37.4662 114.133C37.5317 114.308 37.5614 114.483 37.5614 114.66C37.5629 115.424 37.0012 116.198 36.4629 116.828L36.4676 116.875L36.5144 116.87C37.0543 116.235 37.6285 115.455 37.6285 114.658C37.6285 114.474 37.5972 114.29 37.5286 114.109C37.4459 113.893 37.3179 113.697 37.3117 113.483V113.472C37.3117 113.383 37.3476 113.287 37.4038 113.216C37.4615 113.143 37.5364 113.098 37.6144 113.098L37.6784 113.109C37.7954 113.141 37.8797 113.29 38.0373 113.321L38.0809 113.324C38.251 113.321 38.3712 113.164 38.4445 113.028C38.6317 112.672 38.7222 112.273 38.7222 111.872C38.7222 111.366 38.574 110.858 38.2854 110.44C38.1824 110.293 38.0685 110.1 38.07 109.951L38.1465 109.775C38.237 109.689 38.3915 109.7 38.5412 109.697Z" fill="#543423"/>
<path d="M27.477 112.271C28.4615 109.336 29.315 106.357 30.0343 103.348L30.0094 103.309L29.9704 103.334C29.2511 106.341 28.3976 109.318 27.4146 112.251L27.4348 112.293L27.477 112.271Z" fill="#543423"/>
<path d="M31.1075 106.007L31.0685 106.032C30.6472 107.954 30.4365 109.922 30.4365 111.889C30.4365 113.246 30.5364 114.602 30.7377 115.946L30.7751 115.974L30.8032 115.937C30.6019 114.598 30.5021 113.243 30.5021 111.891C30.5021 109.928 30.7127 107.965 31.1309 106.047L31.1075 106.007Z" fill="#543423"/>
<path d="M47.7796 80.2568C47.7577 80.2568 47.7359 80.2568 47.7141 80.2568C47.0993 80.2552 46.4471 80.2336 45.7543 80.1871C45.7324 80.1856 45.7106 80.1856 45.6887 80.184C45.1832 80.1484 44.6574 80.0989 44.1206 80.0385C44.0988 80.0354 44.0769 80.0324 44.0551 80.0308C43.6868 79.989 43.3186 79.9457 42.9395 79.893C41.9128 79.7475 40.9391 79.568 40.0279 79.3668C40.006 79.3621 39.9858 79.3559 39.9639 79.3513C39.5894 79.2677 39.2259 79.181 38.8764 79.0912C38.8545 79.0851 38.8342 79.0789 38.8124 79.0742C38.1258 78.8931 37.4892 78.7027 36.9275 78.5031C36.8152 78.4628 36.72 78.421 36.6123 78.3808C36.383 78.2941 36.1567 78.2059 35.9554 78.1161C35.4749 77.904 35.0754 77.6889 34.7743 77.4753C34.7633 77.4675 34.7493 77.4614 34.7399 77.4536L34.2016 81.1948C34.1361 81.6483 34.6775 82.1529 35.634 82.6359C36.1598 82.9021 36.8105 83.1606 37.5641 83.4036C37.586 83.4098 37.6047 83.4175 37.6265 83.4253C37.9058 83.5135 38.2023 83.5986 38.5066 83.6822C38.5269 83.6884 38.5487 83.693 38.5705 83.6992C38.9669 83.806 39.3788 83.9097 39.8126 84.0042C39.8344 84.0088 39.8562 84.0135 39.8781 84.0181C40.6364 84.1837 41.4415 84.3292 42.2826 84.4484C43.3561 84.6001 44.3874 84.693 45.3424 84.7363C45.3642 84.7379 45.386 84.7394 45.4079 84.7394C45.837 84.758 46.2489 84.7642 46.6421 84.7611C46.6655 84.7611 46.6889 84.7611 46.7108 84.7611C47.2522 84.7549 47.7577 84.7317 48.2165 84.6883C48.3023 84.6806 48.3834 84.6697 48.4661 84.6605C48.8843 84.6125 49.2588 84.5459 49.5833 84.4654C50.3978 84.2627 50.9002 83.9608 50.9564 83.5692L51.4776 79.9426V79.941L51.4947 79.8265C51.4838 79.8311 51.4666 79.8327 51.4557 79.8373C50.9985 79.9968 50.3682 80.1082 49.6255 80.1794C49.0762 80.2289 48.4583 80.2568 47.7796 80.2568Z" fill="#FF3B3B"/>
<path d="M76.3981 92.0295L75.952 92.0654C74.952 92.146 74.1673 91.5527 73.6236 90.9388C73.0627 90.3054 72.5809 89.4568 72.1708 88.5846C71.3991 86.9434 70.7758 84.9838 70.3457 83.6315C70.3167 83.5405 70.2887 83.4522 70.2615 83.367L70.2611 83.3659C69.4121 80.6935 67.4244 73.4439 68.9376 63.1759L68.9376 63.1757C69.1506 61.7317 70.041 55.7269 73.2978 48.4765L73.2979 48.4764C74.0878 46.7188 74.9614 44.9968 75.9088 43.3166C77.4838 40.5235 79.2652 37.8439 81.2117 35.3039L82.0692 34.1848L82.8419 35.3641C84.3898 37.7268 85.0715 40.4879 85.5812 43.0625L85.5814 43.0635C85.6879 43.6046 85.7846 44.1456 85.8796 44.6786L85.8798 44.6795C87.7669 55.3197 87.5744 66.3196 85.2985 76.8856C84.6851 79.734 83.9077 82.6128 82.6838 85.3391L76.3981 92.0295ZM76.3981 92.0295L76.6672 92.0699C77.5692 92.2054 78.3512 91.7872 78.9342 91.304C79.528 90.8118 80.0623 90.1345 80.5238 89.4402C81.4508 88.0455 82.2239 86.3645 82.6836 85.3394L76.3981 92.0295Z" fill="#597C5A" stroke="white" stroke-width="2"/>
<path d="M83.0482 101.63L83.9319 103.505L84.248 102.865C84.7178 103.182 85.2634 103.196 85.702 103.102C86.2203 102.991 86.7233 102.714 87.1394 102.438C87.9265 101.917 88.7103 101.189 89.1779 100.755C89.2128 100.722 89.246 100.691 89.2773 100.662L89.2777 100.662C90.496 99.5324 91.5141 98.2369 92.4307 96.9394C96.0088 91.8754 98.5386 86.0859 99.8197 80.032C100.114 78.6411 100.379 77.0524 100.094 75.4604L99.8451 74.068L98.6155 74.7672C96.1784 76.153 93.8714 77.8072 91.8084 79.718C88.6153 82.6738 86.8748 85.5046 86.4489 86.1972L86.4462 86.2016L86.4453 86.2031C83.4678 91.0645 82.9055 95.1548 82.7561 96.7011L82.7559 96.703L82.7536 96.7281C82.6935 97.3614 82.6118 98.2244 82.6128 99.0727C82.6138 99.8999 82.6901 100.871 83.0482 101.63Z" fill="#597C5A" stroke="white" stroke-width="2"/>
<path d="M70.5881 105.625C71.1664 105.337 71.4422 104.811 71.5715 104.37C71.7019 103.926 71.7251 103.44 71.7145 103.013C71.6994 102.406 71.6013 101.707 71.5321 101.216C71.5076 101.042 71.4868 100.894 71.4746 100.785L71.4745 100.784C71.2884 99.1374 70.8476 97.5528 70.3448 96.0484C68.3841 90.1769 65.2118 84.7091 61.0806 80.0791L70.5881 105.625ZM70.5881 105.625L70.0918 106.087C69.4814 106.656 68.713 106.554 68.2329 106.401C67.73 106.242 67.2219 105.936 66.7764 105.625C65.9811 105.068 65.1608 104.327 64.5983 103.818C64.5239 103.751 64.454 103.688 64.3893 103.629C63.2286 102.588 60.2569 99.699 58.1026 94.4289C57.7953 93.6806 56.5418 90.6033 56.0558 86.2878L56.0557 86.2872C55.7438 83.5039 55.7797 80.6802 56.1145 77.911L56.2841 76.508L57.5507 77.1347C59.0067 77.8551 60.1325 79.0152 61.0804 80.0789L70.5881 105.625Z" fill="#597C5A" stroke="white" stroke-width="2"/>
<path d="M81.5812 120.24C80.9367 117.868 80.3235 115.378 79.7603 112.762C81.1864 109.293 82.8185 105.657 84.6597 101.902C84.8891 101.433 85.1106 100.97 85.3478 100.497C88.0081 95.189 90.7543 90.3643 93.4552 86.0195C93.5926 85.7997 93.5223 85.5102 93.3008 85.3756C93.0792 85.2394 92.789 85.3075 92.6517 85.5288C89.9367 89.8953 87.1765 94.7463 84.5021 100.08C84.3117 100.458 84.137 100.828 83.9529 101.204C82.2677 104.625 80.7651 107.942 79.4248 111.13C78.1874 105.03 77.2341 98.3281 76.8175 91.0764C76.6724 88.558 76.5912 85.9746 76.585 83.3309V83.3278C76.585 83.224 76.585 83.1172 76.585 83.0104C76.585 70.9325 78.1375 60.407 80.0489 51.9061C80.1051 51.6538 79.9459 51.4031 79.6916 51.3474C79.4373 51.2916 79.1845 51.4495 79.1283 51.7018C77.2044 60.2569 75.641 70.852 75.641 83.0089C75.641 83.1142 75.641 83.2225 75.6426 83.3324V83.3293C75.6488 85.97 75.7299 88.5487 75.8735 91.064C76.3229 98.9503 77.4057 106.187 78.7991 112.709C78.7975 112.78 78.8131 112.849 78.8428 112.912C79.1611 114.392 79.4903 115.845 79.8367 117.249C76.4102 113.205 73.0274 109.103 70.133 104.73C68.4089 102.127 66.8548 99.4286 65.5753 96.5883C64.7093 94.6689 63.9682 92.6877 63.2239 90.6971C62.865 89.7375 62.5062 88.7778 62.1473 87.8181C62.0568 87.5751 61.7853 87.4528 61.5403 87.5426C61.2954 87.6324 61.1721 87.9017 61.2626 88.1447C61.6215 89.1044 61.9803 90.0641 62.3392 91.0237C63.0835 93.0143 63.8309 95.0141 64.7125 96.9706C66.0356 99.9054 67.6396 102.681 69.4137 105.349C72.6857 110.273 76.5444 114.83 80.3625 119.322C80.453 119.668 80.5467 120.011 80.6387 120.353C82.0493 125.563 83.6049 130.188 85.1013 134.129C85.1933 134.37 85.4648 134.492 85.7098 134.401C85.9532 134.31 86.0765 134.04 85.986 133.797C84.5068 129.92 82.9745 125.366 81.5812 120.24Z" fill="white"/>
</g>
<defs>
<clipPath id="clip0_1881_23789">
<rect x="0.0078125" width="111.394" height="111.394" rx="55.6969" fill="white"/>
</clipPath>
</defs>
</svg>
