<svg width="86" height="86" viewBox="0 0 86 86" fill="none" xmlns="http://www.w3.org/2000/svg">
<g clip-path="url(#clip0_2089_36266)">
<rect x="0.399414" y="0.0615234" width="84.9618" height="84.9618" rx="42.4809" fill="#CFEEE0"/>
<path d="M39.645 60.9523C39.5653 60.7775 39.1594 60.5698 38.518 60.3525L38.249 61.2132C38.8155 61.1601 39.2963 61.0751 39.645 60.9523Z" fill="#543423"/>
<path d="M27.7189 58.918C27.2917 58.9617 27.0132 59.0396 26.918 59.1517C27.1477 59.3146 27.4535 59.4787 27.8189 59.6405L27.7189 58.918Z" fill="#543423"/>
<path d="M37.3646 64.6321L36.9968 67.1846C37.0004 67.2164 37.004 67.2483 37.0076 67.279C37.749 73.6258 38.7939 79.9372 40.1375 86.1848L40.1184 86.2143L40.0887 86.1954C38.751 79.975 37.7097 73.6931 36.9695 67.3746L36.3613 71.5976C36.5041 72.6164 36.666 73.6317 36.854 74.6423L36.8338 74.6718L36.8041 74.6517C36.6255 73.6955 36.4732 72.7345 36.3352 71.7723L35.7651 75.732C35.8901 76.255 36.015 76.7779 36.14 77.3009L36.1209 77.3316L36.09 77.3127C35.9746 76.8311 35.8603 76.3494 35.7449 75.8677L35.0927 80.4011C35.1605 80.9053 35.2296 81.4105 35.3057 81.9135C35.6925 84.4789 36.2197 87.0266 36.4458 89.6144L36.4232 89.6415L36.3958 89.6191C36.1697 87.036 35.6437 84.4883 35.2557 81.9217C35.1891 81.4778 35.126 81.0328 35.0653 80.5865L34.1026 87.278C34.5 90.7702 34.8166 94.2718 35.0439 97.7793L35.0201 97.8064L34.9927 97.7828C34.7702 94.3414 34.4596 90.9048 34.0728 87.4764L33.6289 90.5588C33.6349 90.645 33.6408 90.73 33.6479 90.8162C33.7574 92.2069 33.924 93.5929 34.1466 94.9695L34.1252 94.9978L34.0966 94.9766C33.8741 93.5977 33.7074 92.2105 33.598 90.8186C33.5968 90.8091 33.5968 90.8009 33.5956 90.7914L32.8506 95.9706L33.3421 99.5183C33.2552 98.8902 34.6643 98.1606 36.6589 97.7261C36.5053 96.9824 36.3102 96.2481 36.0674 95.5279L36.0829 95.496L36.115 95.5114C36.3578 96.2327 36.5541 96.9694 36.7077 97.7143C37.0944 97.6317 37.5014 97.5585 37.9251 97.5007C38.9057 97.3672 39.8281 97.3271 40.6052 97.3696C39.5282 90.952 38.2238 84.5709 36.6981 78.243L36.7172 78.2123L36.7481 78.2312C38.275 84.5639 39.5793 90.9496 40.6575 97.372L40.6564 97.3731C41.2776 97.4097 41.8024 97.4983 42.188 97.6341C42.1178 96.6034 41.9286 95.581 41.6203 94.5941L41.637 94.5634L41.6679 94.5799C41.9785 95.5775 42.1701 96.6117 42.2392 97.6529C42.6212 97.7958 42.8544 97.9859 42.8854 98.2173L42.088 92.4631L38.2107 64.4834C37.9691 64.5448 37.6835 64.5944 37.3646 64.6321ZM37.6252 90.8705C37.6407 90.5707 37.7573 90.1681 38.0822 90.1622H38.0905C38.3773 90.1716 38.5059 90.4951 38.5678 90.7501C38.9522 92.3828 39.1438 94.0534 39.2949 95.7215C39.308 95.8726 39.3211 96.0261 39.3211 96.1796C39.3211 96.3815 39.2985 96.5833 39.2235 96.7722C39.1033 97.0768 38.8093 97.3389 38.4821 97.3401L38.3845 97.3318C38.0929 97.2822 37.8846 97.0402 37.7264 96.8053C37.0706 95.8301 36.8052 94.6578 36.5529 93.5186C36.253 92.1633 35.9531 90.8079 35.6532 89.4515L35.6723 89.4219L35.702 89.4408C36.0019 90.7961 36.3018 92.1514 36.6017 93.5079C36.854 94.6472 37.1182 95.8136 37.768 96.777C37.9239 97.0095 38.1262 97.2374 38.3928 97.2811L38.4821 97.2881C38.7808 97.2893 39.0628 97.0414 39.1771 96.7522C39.2485 96.5704 39.2711 96.3756 39.2711 96.1772C39.2711 96.0261 39.258 95.8738 39.2449 95.7227C39.0938 94.0557 38.9022 92.3876 38.519 90.7584C38.4595 90.5057 38.3297 90.2106 38.0893 90.2094H38.0822C37.8121 90.2047 37.6895 90.5742 37.6752 90.8693C37.6669 91.0275 37.6633 91.1857 37.6633 91.3439C37.6633 92.6213 37.912 93.8987 38.3928 95.0852C38.5749 95.045 38.7082 94.8632 38.7427 94.6743L38.7546 94.5268C38.7546 94.3745 38.7189 94.2198 38.682 94.0675C38.6189 93.8066 38.5559 93.5445 38.4928 93.2824L38.5118 93.2517L38.5428 93.2706C38.6058 93.5315 38.6689 93.7936 38.732 94.0557C38.7677 94.208 38.8058 94.3662 38.8058 94.5268L38.7927 94.6826C38.7546 94.8951 38.6035 95.1053 38.3821 95.1419L38.3547 95.1265C37.8656 93.9282 37.6133 92.6367 37.6133 91.3451C37.6133 91.1881 37.6169 91.0287 37.6252 90.8705ZM37.2599 85.1152L37.2384 85.1435L37.2099 85.1223C36.973 83.3845 36.7362 81.6478 36.4994 79.91L36.5208 79.8817L36.5494 79.9029C36.7862 81.6408 37.023 83.3774 37.2599 85.1152ZM40.7825 88.9119L40.8123 88.932C41.0776 90.3097 41.443 91.6686 41.9024 92.9944L41.8869 93.0263L41.8548 93.0109C41.3942 91.6828 41.0277 90.3216 40.7623 88.9415L40.7825 88.9119Z" fill="#543423"/>
<path d="M28.855 48.2383C28.7515 48.2383 28.6491 48.2607 28.5456 48.3091C28.1921 48.4779 28.0446 48.9029 27.9624 49.2961C27.8292 49.936 27.7744 50.5888 27.7744 51.2429C27.7744 51.9359 27.8351 52.6324 27.9279 53.3195C28.0981 54.5945 28.3754 55.8436 28.717 57.0773L29.894 48.8947C29.6131 48.5417 29.2346 48.2371 28.855 48.2383Z" fill="#543423"/>
<path d="M29.6328 45.5127C29.7732 45.8834 29.9791 46.2281 30.2374 46.5292L30.2897 46.1667C30.1053 45.9106 29.8911 45.6862 29.6328 45.5127Z" fill="#543423"/>
<path d="M27.8198 59.6396C27.9745 59.7081 28.1459 59.7742 28.3208 59.8415L28.7005 57.2017C28.3446 55.9302 28.0555 54.6434 27.8793 53.3282C27.7865 52.6388 27.7258 51.941 27.7258 51.2445C27.7258 50.5869 27.7805 49.9317 27.915 49.2871C27.9983 48.8904 28.1459 48.4477 28.5255 48.2647C28.635 48.2128 28.7469 48.1892 28.8564 48.1892C29.2491 48.1903 29.6228 48.4831 29.906 48.829L30.0988 47.4926C29.3717 46.3333 28.1828 45.4632 26.8451 45.135L26.8261 45.1043L26.857 45.0854C28.1887 45.4136 29.3717 46.2707 30.1095 47.4171L30.2274 46.5954C29.931 46.2577 29.6978 45.8658 29.5502 45.4431L29.5585 45.416L29.5871 45.4136C29.8739 45.5884 30.1024 45.828 30.2988 46.096L30.5499 44.3476C29.9953 43.8671 29.2693 43.5684 28.5517 43.35C28.3411 43.2862 28.115 43.2296 27.9019 43.2296C27.7401 43.2296 27.5854 43.2614 27.4485 43.3464L27.414 43.3382L27.4223 43.3039C27.5687 43.213 27.7329 43.18 27.9019 43.18C28.1245 43.18 28.3554 43.2378 28.5672 43.3027C29.2765 43.52 30.0001 43.8128 30.5594 44.2885L30.8783 42.0749C30.8771 42.0773 30.8771 42.0797 30.8771 42.082C30.7974 42.3488 30.5963 42.5979 30.3178 42.6605L30.1702 42.677C29.7121 42.6747 29.3657 42.2013 29.0754 41.8341C28.5124 41.1163 27.7151 40.5815 26.8344 40.3265L26.8166 40.2958L26.8475 40.2793C27.7389 40.5367 28.5446 41.0774 29.1146 41.8046C29.4038 42.1741 29.7501 42.6298 30.169 42.6275L30.3047 42.6121C30.5594 42.5554 30.7522 42.3217 30.8272 42.0679C30.8652 41.9415 30.8783 41.8093 30.8783 41.6747C30.8783 41.5401 30.8641 41.4032 30.8474 41.2698C30.6808 40.003 30.2143 38.7693 29.4609 37.734C29.2229 37.4046 28.8623 37.0728 28.4946 37.074C28.4268 37.074 28.3577 37.0846 28.2887 37.1094C28.228 37.1307 28.1721 37.1637 28.1447 37.2145L28.1221 37.3149L28.1304 37.3951C28.2018 37.8249 28.5767 38.1826 29.0087 38.2534C28.9885 38.1318 28.9183 38.0185 28.8076 37.9618L28.7969 37.9288L28.8314 37.9181C28.9694 37.9901 29.0635 38.1354 29.0718 38.29L29.0635 38.3089L29.0432 38.316C28.5696 38.2593 28.159 37.8709 28.0816 37.4046L28.0733 37.3149L28.1019 37.1909C28.1388 37.1236 28.2078 37.087 28.2732 37.0634C28.347 37.0362 28.422 37.0244 28.4958 37.0244C28.8945 37.0256 29.2598 37.3715 29.5026 37.7056C30.2607 38.7481 30.7308 39.9889 30.8974 41.2639C30.914 41.3997 30.9295 41.5378 30.9295 41.6759C30.9295 41.6983 30.9259 41.7196 30.9259 41.742L31.2199 39.6949C30.5927 37.9453 29.6561 36.3173 28.0852 35.3846C27.8865 35.2677 27.6461 35.1662 27.4295 35.1662C27.3081 35.1662 27.1962 35.1969 27.0986 35.2713C26.9677 35.3716 26.8963 35.5357 26.8451 35.6998C26.7535 35.9902 26.7095 36.2913 26.7095 36.5935C26.7095 37.8933 27.5187 39.2014 28.7445 39.6937L28.7588 39.7268L28.7267 39.7409C27.4795 39.2392 26.6607 37.9146 26.6607 36.5947C26.6607 36.2877 26.7047 35.982 26.7987 35.6868C26.8511 35.5204 26.9249 35.3456 27.0701 35.2335C27.1772 35.1508 27.3021 35.1178 27.4318 35.1178C27.6639 35.1178 27.9115 35.2229 28.1138 35.3433C29.674 36.27 30.6082 37.8721 31.2366 39.5957L31.4984 37.78C31.0795 36.9135 30.601 36.0752 30.0667 35.2736L30.0738 35.2394L30.1083 35.2465C30.6308 36.0292 31.0985 36.8473 31.5115 37.6915L31.8613 35.2571C31.4853 34.1273 30.9878 33.0447 30.2 32.164L30.2024 32.1286L30.2381 32.1309C31.0104 32.9951 31.5043 34.0482 31.878 35.1485L33.0371 27.091L32.905 26.1348C32.9705 26.6082 32.5778 27.1017 31.884 27.5314V27.5338C31.8602 27.5491 31.8316 27.5633 31.8066 27.5774C31.7435 27.6152 31.6781 27.653 31.6102 27.6896C31.5662 27.7132 31.521 27.7356 31.4758 27.7592C31.4079 27.7935 31.3377 27.8277 31.2651 27.8608C31.2151 27.8832 31.1651 27.9068 31.1128 27.9292C31.039 27.9611 30.964 27.9918 30.8867 28.0225C30.8319 28.0449 30.776 28.0662 30.7201 28.0874C30.6415 28.117 30.5606 28.1453 30.4797 28.1724C30.4202 28.1925 30.3606 28.2126 30.3 28.2327C30.2155 28.2598 30.1286 28.2846 30.0417 28.3094C29.9798 28.3271 29.9179 28.346 29.8537 28.3625C29.7608 28.3873 29.6656 28.4097 29.5716 28.4334C29.5097 28.4487 29.449 28.464 29.386 28.4782C29.2789 28.5018 29.1694 28.5231 29.0599 28.5443C29.0051 28.555 28.9528 28.5668 28.8968 28.5762C28.7302 28.6057 28.5612 28.6329 28.3899 28.6565C28.1816 28.6848 27.9781 28.7061 27.7758 28.7226C27.7187 28.7273 27.6615 28.732 27.6056 28.7356C27.4437 28.7474 27.2855 28.7557 27.1296 28.7592C27.0879 28.7604 27.0463 28.7627 27.0046 28.7639C26.8154 28.7675 26.6309 28.7651 26.4512 28.7592C26.4048 28.758 26.3608 28.7545 26.3155 28.7521C26.1739 28.745 26.0371 28.7356 25.9026 28.7226C25.8562 28.7179 25.8086 28.7143 25.7633 28.7084C25.5967 28.6895 25.4349 28.6671 25.2814 28.64C25.2623 28.6364 25.2445 28.6317 25.2254 28.6281C25.0898 28.6022 24.9612 28.5727 24.8375 28.5396C24.7982 28.529 24.7613 28.5184 24.7232 28.5077C24.6054 28.4735 24.4923 28.4357 24.3876 28.3956C24.3709 28.3897 24.3531 28.3838 24.3376 28.3779C24.2198 28.3306 24.1127 28.2775 24.0139 28.222C24.0044 28.2173 23.9925 28.2126 23.9842 28.2079L23.983 28.2031C23.626 27.9954 23.401 27.7368 23.3594 27.4358L24.6328 36.6289L27.7222 58.9218L27.8198 59.6396ZM25.6824 31.4025L25.7062 31.3765L25.7324 31.4001C25.7407 31.543 25.7443 31.687 25.7443 31.8311C25.7443 32.7696 25.5729 33.7094 25.2421 34.5877L25.21 34.6019L25.1957 34.57C25.5253 33.6964 25.6955 32.7637 25.6955 31.8311C25.6943 31.687 25.6908 31.5442 25.6824 31.4025ZM28.5803 33.7601C28.4196 33.7601 28.253 33.6999 28.1304 33.5937C27.8996 33.3918 27.8079 33.0825 27.7651 32.7873C27.7401 32.6256 27.7294 32.4615 27.7294 32.2974C27.7294 32.0188 27.7639 31.7413 27.8317 31.471L27.8627 31.4533L27.8805 31.484C27.8139 31.7496 27.7794 32.0235 27.7794 32.2986C27.7794 32.4603 27.7913 32.6209 27.8151 32.7802C27.8567 33.0695 27.9483 33.367 28.1637 33.5559C28.2756 33.6539 28.4315 33.7105 28.5803 33.7105C28.7148 33.7105 28.8433 33.6645 28.9302 33.5642C29.0242 33.4555 29.0563 33.3009 29.0765 33.1498C29.1003 32.9691 29.1122 32.7861 29.1122 32.6043C29.1122 31.8842 28.9266 31.1652 28.5779 30.5336C28.3577 30.8571 28.2459 31.2467 28.2459 31.6386C28.2459 32.1227 28.4125 32.6079 28.7374 32.9691L28.735 33.0046L28.6993 33.0022C28.3649 32.6303 28.1959 32.1333 28.1959 31.6386C28.1959 31.2231 28.3161 30.8075 28.56 30.4663L28.5815 30.4557L28.6017 30.4687C28.9694 31.1168 29.1622 31.8594 29.1622 32.6032C29.1622 32.7873 29.1503 32.9727 29.1265 33.1557C29.1063 33.3091 29.0742 33.4721 28.9682 33.596C28.8695 33.7094 28.7267 33.7601 28.5803 33.7601ZM25.1255 30.1535C25.3123 29.9103 25.6193 29.7462 25.9216 29.7462C26.0347 29.7462 26.1477 29.7698 26.2537 29.8217C26.6024 29.9953 26.7535 30.399 26.8201 30.7685C26.8844 31.1322 26.907 31.5099 27.0903 31.8181C27.3033 31.772 27.4497 31.5548 27.514 31.3352C27.5806 31.1085 27.5925 30.8594 27.6972 30.6351C27.8829 30.2408 28.3232 30.0425 28.7636 30.0425C28.9337 30.0425 29.1051 30.072 29.2634 30.1322C29.8251 30.3459 30.2238 30.8382 30.5332 31.3399C30.601 31.4509 30.6867 31.5678 30.7986 31.5678C30.8783 31.5678 30.9509 31.5147 31.0033 31.4486C31.177 31.2278 31.1794 30.896 31.2008 30.5844C31.2223 30.2751 31.2663 29.9776 31.5484 29.8489L31.5805 29.8583C31.7078 30.0507 31.834 30.242 31.9613 30.4344C31.9601 30.399 31.9577 30.3636 31.9577 30.3282C31.9577 29.6482 32.1505 28.9682 32.5123 28.3897L32.529 28.3779L32.5492 28.3826C32.6349 28.4499 32.7206 28.5172 32.8063 28.5845L32.8098 28.6199L32.7741 28.6234C32.6968 28.562 32.6194 28.5006 32.5409 28.4404C32.1946 29.0059 32.0077 29.6659 32.0077 30.327C32.0077 30.3908 32.0101 30.4557 32.0137 30.5194L31.9958 30.5442L31.9673 30.5348C31.8292 30.3246 31.6912 30.1157 31.5519 29.9067C31.3175 30.026 31.2723 30.2857 31.2508 30.5879C31.2282 30.896 31.2306 31.2384 31.0426 31.4804C30.9854 31.5524 30.9009 31.6186 30.7974 31.6186C30.6486 31.6138 30.5582 31.4769 30.4892 31.3671C30.1821 30.8677 29.7882 30.386 29.2443 30.1794C29.0932 30.1216 28.9278 30.0932 28.7624 30.0932C28.3363 30.0932 27.915 30.2845 27.7413 30.6564C27.6413 30.8689 27.6294 31.1144 27.5604 31.3494C27.4914 31.5843 27.3343 31.8299 27.0808 31.8747L27.0546 31.8629C26.8535 31.5371 26.8356 31.1428 26.769 30.778C26.7035 30.4132 26.5548 30.026 26.2299 29.8666C26.1323 29.8182 26.0275 29.7957 25.9204 29.7957C25.6372 29.7957 25.3421 29.9528 25.1647 30.1842C24.9243 30.4958 24.8553 30.909 24.8553 31.3092V31.3364L24.8303 31.3612L24.8053 31.3364V31.3092C24.8053 30.9031 24.8744 30.4781 25.1255 30.1535ZM26.2251 42.9627L26.2239 42.9155C26.2239 42.5637 26.4346 42.2213 26.7511 42.062C26.8523 42.0112 26.963 41.9699 26.9987 41.8813L27.0129 41.8129C27.0165 41.683 26.8368 41.5508 26.6869 41.4646C26.1061 41.1258 25.7324 40.4717 25.7324 39.8047L25.7348 39.728C25.7407 39.6005 25.7788 39.4364 25.9204 39.3962L25.9764 39.3879C26.0632 39.3891 26.1418 39.4293 26.2132 39.4281L26.237 39.4269C26.3393 39.4151 26.3989 39.3077 26.3989 39.1896L26.3667 39.0503C26.2929 38.9051 26.1418 38.8106 26.0145 38.689C25.7229 38.4057 25.6241 38.0244 25.6241 37.623C25.6241 37.2346 25.7157 36.8249 25.8169 36.4554L25.8478 36.4377L25.8657 36.4684C25.7657 36.8355 25.6753 37.2417 25.6753 37.6218C25.6753 38.0161 25.7717 38.3809 26.0502 38.6524C26.1715 38.7705 26.3298 38.8661 26.4119 39.0267L26.45 39.1896C26.45 39.3207 26.3822 39.4576 26.2441 39.4765L26.2132 39.4777C26.1251 39.4765 26.0454 39.4364 25.9764 39.4375L25.9335 39.4434C25.8312 39.4682 25.7895 39.6075 25.7848 39.7303L25.7824 39.8047C25.7824 40.4528 26.1477 41.0927 26.7118 41.4209C26.8618 41.5106 27.0594 41.6381 27.0629 41.8117L27.0451 41.899C26.9939 42.0136 26.8689 42.0549 26.7737 42.1045C26.475 42.2544 26.2739 42.5814 26.2751 42.9132L26.2763 42.9557C26.2929 43.3016 26.5333 43.6286 26.8594 43.7526L26.8737 43.7844L26.8416 43.7986C26.4952 43.6699 26.2441 43.3275 26.2251 42.9627ZM27.2712 47.4017L27.2498 47.3734L27.2783 47.3521C27.602 47.3982 27.8912 47.6237 28.0114 47.9259L27.9971 47.9578L27.965 47.9436C27.8508 47.6591 27.5747 47.4442 27.2712 47.4017Z" fill="#543423"/>
<path d="M26.3124 28.7483C26.1708 28.7412 26.0339 28.7317 25.8994 28.7188C26.0339 28.7317 26.1719 28.7412 26.3124 28.7483Z" fill="#543423"/>
<path d="M30.7179 28.083C30.6394 28.1125 30.5585 28.1409 30.4775 28.168C30.5597 28.1409 30.6394 28.1125 30.7179 28.083Z" fill="#543423"/>
<path d="M31.1109 27.9248C31.0371 27.9567 30.9621 27.9874 30.8848 28.0181C30.9621 27.9886 31.0371 27.9567 31.1109 27.9248Z" fill="#543423"/>
<path d="M28.3875 28.6533C28.1793 28.6817 27.9758 28.7029 27.7734 28.7194C27.9758 28.7017 28.1804 28.6817 28.3875 28.6533Z" fill="#543423"/>
<path d="M31.4733 27.7549C31.4055 27.7891 31.3353 27.8234 31.2627 27.8564C31.3353 27.8234 31.4043 27.7903 31.4733 27.7549Z" fill="#543423"/>
<path d="M31.8038 27.5742C31.7407 27.612 31.6753 27.6498 31.6074 27.6864C31.6764 27.6486 31.7407 27.612 31.8038 27.5742Z" fill="#543423"/>
<path d="M30.2973 28.2275C30.2128 28.2547 30.1259 28.2795 30.0391 28.3043C30.1259 28.2795 30.2128 28.2547 30.2973 28.2275Z" fill="#543423"/>
<path d="M29.8514 28.3594C29.7586 28.3842 29.6634 28.4066 29.5693 28.4302C29.6645 28.4066 29.7597 28.3842 29.8514 28.3594Z" fill="#543423"/>
<path d="M25.7603 28.7052C25.5937 28.6863 25.4318 28.6639 25.2783 28.6367C25.4318 28.6639 25.5937 28.6863 25.7603 28.7052Z" fill="#543423"/>
<path d="M28.8947 28.5732C28.7281 28.6028 28.5591 28.6299 28.3877 28.6535C28.5603 28.6299 28.7293 28.6028 28.8947 28.5732Z" fill="#543423"/>
<path d="M29.3837 28.4736C29.2766 28.4972 29.1671 28.5185 29.0576 28.5397C29.1671 28.5185 29.2766 28.4972 29.3837 28.4736Z" fill="#543423"/>
<path d="M24.7204 28.5047C24.6026 28.4705 24.4895 28.4327 24.3848 28.3926C24.4907 28.4339 24.6026 28.4705 24.7204 28.5047Z" fill="#543423"/>
<path d="M27.604 28.7324C27.4421 28.7442 27.2838 28.7525 27.1279 28.756C27.2838 28.7513 27.4421 28.7442 27.604 28.7324Z" fill="#543423"/>
<path d="M24.3344 28.3746C24.2166 28.3274 24.1095 28.2742 24.0107 28.2188C24.1095 28.2742 24.2166 28.3262 24.3344 28.3746Z" fill="#543423"/>
<path d="M27.0026 28.7606C26.8134 28.7641 26.6289 28.7618 26.4492 28.7559C26.6289 28.7618 26.8134 28.7641 27.0026 28.7606Z" fill="#543423"/>
<path d="M25.222 28.6247C25.0863 28.5987 24.9578 28.5692 24.834 28.5361C24.9578 28.5692 25.0863 28.5987 25.222 28.6247Z" fill="#543423"/>
<path d="M23.9794 28.1995L23.8163 27.0201L23.833 27.0177C23.9139 26.4015 25.5336 25.7049 27.5913 25.4239C29.6501 25.143 31.3996 25.3814 31.6447 25.9528L31.6614 25.9505L31.8792 27.5277C32.573 27.0968 32.9657 26.6045 32.9002 26.1311C32.7574 25.0981 30.5046 24.5515 27.8674 24.9116C25.2325 25.2693 23.213 26.3991 23.3558 27.4321C23.3974 27.7332 23.6223 27.9917 23.9794 28.1995Z" fill="#543423"/>
<path d="M31.6617 25.9502L31.645 25.9526C31.6581 25.9833 31.67 26.0128 31.6748 26.0446C31.7628 26.6822 30.0788 27.4389 27.9117 27.7352C25.7446 28.0304 23.9178 27.7529 23.8285 27.1142C23.8238 27.0824 23.8273 27.0505 23.8321 27.0186L23.8154 27.021L23.9785 28.2004L23.9797 28.2051C23.9892 28.2098 24.0011 28.2145 24.0094 28.2193C24.1082 28.2748 24.2153 28.3267 24.3331 28.3751C24.3486 28.381 24.3676 28.3869 24.3831 28.3928C24.4878 28.433 24.6009 28.4707 24.7187 28.505C24.7556 28.5156 24.7937 28.5262 24.833 28.5368C24.9567 28.5699 25.0853 28.5994 25.2209 28.6254C25.24 28.6289 25.2578 28.6337 25.2769 28.6372C25.4304 28.6655 25.5922 28.6868 25.7588 28.7057C25.8041 28.7104 25.8517 28.7151 25.8981 28.7198C26.0326 28.7328 26.1706 28.7423 26.311 28.7493C26.3563 28.7517 26.4003 28.7541 26.4467 28.7564C26.6264 28.7623 26.8109 28.7647 27.0001 28.7612C27.0418 28.76 27.0834 28.7576 27.1251 28.7564C27.281 28.7517 27.4404 28.7434 27.6011 28.7328C27.6582 28.7293 27.7141 28.7246 27.7713 28.7198C27.9736 28.7021 28.1771 28.6821 28.3854 28.6537C28.5567 28.6301 28.7257 28.603 28.8923 28.5734C28.9471 28.564 29.0006 28.5522 29.0554 28.5416C29.1649 28.5203 29.2744 28.4991 29.3815 28.4755C29.4445 28.4613 29.5052 28.4459 29.5671 28.4306C29.6623 28.4082 29.7575 28.3845 29.8492 28.3598C29.9134 28.342 29.9741 28.3243 30.0372 28.3066C30.1241 28.2818 30.2109 28.2559 30.2954 28.2299C30.3561 28.211 30.4156 28.1898 30.4751 28.1697C30.5573 28.1425 30.637 28.1142 30.7155 28.0847C30.7727 28.0634 30.8274 28.0422 30.8822 28.0198C30.9595 27.9891 31.0345 27.9584 31.1083 27.9265C31.1594 27.9041 31.2106 27.8816 31.2606 27.858C31.3332 27.825 31.4022 27.7907 31.4712 27.7565C31.5165 27.7341 31.5617 27.7104 31.6057 27.6868C31.6736 27.6502 31.739 27.6125 31.8021 27.5747C31.8271 27.5605 31.8545 27.5463 31.8794 27.531V27.5286L31.6617 25.9502Z" fill="#543423"/>
<path d="M27.913 27.7362C30.079 27.4399 31.7641 26.6831 31.6761 26.0456C31.6713 26.0137 31.6594 25.983 31.6463 25.9535C31.4 25.3821 29.6506 25.1436 27.5917 25.4246C25.5329 25.7056 23.9132 26.4033 23.8334 27.0184C23.8287 27.0503 23.8263 27.0833 23.8298 27.114C23.9191 27.7539 25.7459 28.0313 27.913 27.7362Z" fill="#543423"/>
<path d="M35.2576 81.921C35.6444 84.4876 36.1716 87.0352 36.3977 89.6184L36.4251 89.6408L36.4477 89.6136C36.2216 87.027 35.6943 84.4781 35.3076 81.9127C35.2314 81.4098 35.1624 80.9057 35.0945 80.4004L35.0684 80.5846C35.1279 81.032 35.1909 81.4771 35.2576 81.921Z" fill="#543423"/>
<path d="M27.9281 53.3222C27.8353 52.6339 27.7746 51.9386 27.7746 51.2456C27.7746 50.5903 27.8281 49.9387 27.9626 49.2988C28.0436 48.9057 28.1923 48.4795 28.5458 48.3118C28.6481 48.2622 28.7517 48.241 28.8552 48.241C29.2336 48.2398 29.6133 48.5444 29.8953 48.8998L29.9048 48.8313C29.6216 48.4854 29.2479 48.1926 28.8552 48.1914C28.7445 48.1914 28.6338 48.215 28.5243 48.267C28.1447 48.45 27.9971 48.8927 27.9138 49.2893C27.7794 49.9339 27.7246 50.5892 27.7246 51.2467C27.7246 51.9433 27.7853 52.641 27.8781 53.3305C28.0543 54.6456 28.3435 55.9325 28.6993 57.2039L28.7171 57.0823C28.3768 55.8451 28.0995 54.596 27.9281 53.3222Z" fill="#543423"/>
<path d="M40.6401 97.402L40.6604 97.3737L40.6616 97.3725C39.5833 90.9502 38.279 84.5644 36.7521 78.2318L36.7212 78.2129L36.7021 78.2436C38.2278 84.5715 39.531 90.9525 40.6092 97.3702C40.6104 97.3737 40.6104 97.3772 40.6116 97.3808L40.6401 97.402Z" fill="#543423"/>
<path d="M40.0899 86.1954L40.1197 86.2143L40.1387 86.1848C38.7951 79.9372 37.7502 73.6258 37.0088 67.279C37.0052 67.2471 37.0016 67.2153 36.9981 67.1846L36.9707 67.3758C37.7109 73.6931 38.7511 79.9761 40.0899 86.1954Z" fill="#543423"/>
<path d="M28.1113 35.3407C27.909 35.2215 27.6614 35.1164 27.4294 35.1152C27.3008 35.1152 27.1747 35.1483 27.0676 35.2309C26.9224 35.3431 26.8498 35.5178 26.7963 35.6843C26.7022 35.9794 26.6582 36.2864 26.6582 36.5921C26.6582 37.912 27.4782 39.2366 28.7242 39.7384L28.7563 39.7242L28.742 39.6912C27.5163 39.1989 26.707 37.8908 26.707 36.591C26.707 36.2887 26.751 35.9877 26.8427 35.6973C26.8938 35.5332 26.9652 35.3691 27.0962 35.2687C27.1937 35.1943 27.3056 35.1636 27.427 35.1636C27.6436 35.1636 27.8852 35.264 28.0827 35.382C29.6525 36.3135 30.5902 37.9415 31.2174 39.6923L31.2317 39.592C30.6057 37.8695 29.6703 36.2675 28.1113 35.3407Z" fill="#543423"/>
<path d="M30.2344 32.1274L30.1987 32.125L30.1963 32.1604C30.9841 33.0423 31.4816 34.1249 31.8576 35.2535L31.8731 35.1437C31.4994 34.0446 31.0067 32.9915 30.2344 32.1274Z" fill="#543423"/>
<path d="M25.2088 34.6023L25.241 34.5881C25.573 33.7086 25.7432 32.77 25.7432 31.8315C25.7432 31.6874 25.7396 31.5446 25.7313 31.4006L25.7051 31.377L25.6813 31.4029C25.6896 31.5458 25.6932 31.6886 25.6932 31.8315C25.6932 32.7641 25.523 33.698 25.1934 34.5704L25.2088 34.6023Z" fill="#543423"/>
<path d="M28.5663 43.3025C28.3544 43.2387 28.1236 43.1797 27.901 43.1797C27.732 43.1797 27.5678 43.2139 27.4214 43.3036L27.4131 43.3379L27.4476 43.3461C27.5845 43.2611 27.738 43.2293 27.901 43.2293C28.1152 43.2293 28.3414 43.2859 28.5508 43.3497C29.2684 43.5681 29.9956 43.8668 30.549 44.3473L30.5573 44.2871C30.0003 43.8125 29.2768 43.5185 28.5663 43.3025Z" fill="#543423"/>
<path d="M29.1624 32.6037C29.1624 31.86 28.9696 31.1162 28.6018 30.4681L28.5816 30.4551L28.5602 30.4657C28.315 30.8057 28.196 31.2213 28.196 31.638C28.196 32.1339 28.365 32.6297 28.6994 33.0016L28.7351 33.0039L28.7375 32.9685C28.4126 32.6073 28.246 32.1221 28.246 31.638C28.246 31.2461 28.3579 30.8577 28.578 30.533C28.9267 31.1646 29.1124 31.8836 29.1124 32.6037C29.1124 32.7867 29.1005 32.9685 29.0767 33.1492C29.0564 33.3003 29.0255 33.4537 28.9303 33.5635C28.8434 33.6639 28.7161 33.7099 28.5804 33.7099C28.4316 33.7099 28.2757 33.6533 28.1639 33.5553C27.9485 33.3664 27.8568 33.0689 27.8152 32.7796C27.7914 32.6203 27.7795 32.4585 27.7795 32.298C27.7795 32.0241 27.814 31.7502 27.8806 31.4834L27.8628 31.4527L27.8318 31.4704C27.764 31.7407 27.7295 32.0182 27.7295 32.2968C27.7295 32.4609 27.7414 32.6238 27.7652 32.7867C27.808 33.0807 27.9009 33.39 28.1306 33.5931C28.2531 33.6993 28.4186 33.7595 28.5804 33.7595C28.7268 33.7595 28.8696 33.7088 28.9684 33.5966C29.0743 33.4738 29.1064 33.3097 29.1267 33.1562C29.1505 32.9733 29.1624 32.7891 29.1624 32.6037Z" fill="#543423"/>
<path d="M26.8561 45.0869L26.8252 45.1058L26.8442 45.1365C28.1807 45.4659 29.3696 46.3348 30.0979 47.4941L30.1086 47.4186C29.3708 46.2722 28.1878 45.4151 26.8561 45.0869Z" fill="#543423"/>
<path d="M29.6329 45.5132C29.8911 45.6868 30.1066 45.9111 30.2886 46.1673L30.2993 46.0964C30.103 45.8284 29.8745 45.5876 29.5877 45.4141L29.5591 45.4164L29.5508 45.4436C29.6984 45.8674 29.9316 46.2582 30.2279 46.5958L30.2375 46.5297C29.9792 46.2287 29.7733 45.8839 29.6329 45.5132Z" fill="#543423"/>
<path d="M30.9284 41.6749C30.9284 41.5368 30.9141 41.3987 30.8962 41.2629C30.7284 39.9879 30.2595 38.7471 29.5015 37.7046C29.2587 37.3705 28.8933 37.0258 28.4946 37.0234C28.4209 37.0234 28.3459 37.0352 28.2721 37.0624C28.2066 37.086 28.1376 37.1226 28.1007 37.1899L28.0722 37.3139L28.0805 37.4036C28.159 37.8699 28.5696 38.2583 29.0421 38.315L29.0623 38.3079L29.0706 38.289C29.0623 38.1344 28.9683 37.9892 28.8302 37.9171L28.7957 37.9278L28.8064 37.9608C28.9159 38.0175 28.9873 38.132 29.0076 38.2524C28.5756 38.1828 28.2007 37.8239 28.1293 37.3941L28.121 37.3139L28.1436 37.2135C28.1709 37.1627 28.2269 37.1297 28.2876 37.1084C28.3566 37.0836 28.4244 37.073 28.4935 37.073C28.8612 37.0718 29.2218 37.4036 29.4598 37.733C30.2131 38.7683 30.6796 40.002 30.8462 41.2688C30.8629 41.4034 30.8772 41.5392 30.8772 41.6737C30.8772 41.8071 30.8641 41.9394 30.826 42.0669C30.7499 42.3207 30.5582 42.5545 30.3036 42.6111L30.1679 42.6265C29.7478 42.6288 29.4027 42.1731 29.1135 41.8036C28.5434 41.0775 27.7377 40.5357 26.8464 40.2783L26.8154 40.2948L26.8333 40.3255C27.7139 40.5793 28.5113 41.1153 29.0742 41.8331C29.3646 42.1991 29.7109 42.6725 30.1691 42.6761L30.3167 42.6595C30.5951 42.597 30.7963 42.3478 30.876 42.081C30.8772 42.0787 30.8772 42.0763 30.8772 42.074L30.9248 41.7399C30.926 41.7186 30.9284 41.6974 30.9284 41.6749Z" fill="#543423"/>
<path d="M36.8056 74.6538L36.8353 74.6738L36.8556 74.6443C36.6675 73.6337 36.5069 72.6173 36.3629 71.5996L36.3379 71.7743C36.4748 72.7365 36.6271 73.6975 36.8056 74.6538Z" fill="#543423"/>
<path d="M36.0922 77.3142L36.1231 77.3331L36.1422 77.3024C36.0172 76.7794 35.8923 76.2564 35.7673 75.7334L35.7471 75.8692C35.8625 76.3508 35.9768 76.8313 36.0922 77.3142Z" fill="#543423"/>
<path d="M36.5204 79.8818L36.499 79.9102C36.7359 81.648 36.9727 83.3846 37.2095 85.1224L37.2381 85.1437L37.2595 85.1153C37.0227 83.3775 36.7858 81.6409 36.549 79.9031L36.5204 79.8818Z" fill="#543423"/>
<path d="M27.2728 47.4036L27.2695 47.4004L27.2728 47.4036Z" fill="#543423"/>
<path d="M27.9633 47.944L27.9954 47.9582L28.0097 47.9263C27.8895 47.6241 27.6003 47.3986 27.2766 47.3525L27.248 47.3738L27.2695 47.4021C27.5741 47.4446 27.8502 47.6595 27.9633 47.944Z" fill="#543423"/>
<path d="M26.8726 43.7881L26.8584 43.7563C26.5323 43.6323 26.2919 43.3053 26.2752 42.9594L26.274 42.9169C26.274 42.5851 26.4751 42.2581 26.7727 42.1082C26.8679 42.0586 26.9928 42.0173 27.044 41.9028L27.0619 41.8154C27.0583 41.6419 26.8607 41.5144 26.7108 41.4246C26.1467 41.0964 25.7813 40.4566 25.7813 39.8084L25.7837 39.734C25.7885 39.6113 25.8301 39.472 25.9325 39.4472L25.9753 39.4413C26.0443 39.4401 26.1241 39.4802 26.2121 39.4814L26.2431 39.4802C26.3811 39.4613 26.4502 39.3244 26.449 39.1933L26.4109 39.0304C26.3276 38.8687 26.1693 38.7731 26.0491 38.6562C25.7706 38.3858 25.6742 38.021 25.6742 37.6255C25.6742 37.2454 25.7647 36.8393 25.8646 36.4721L25.8468 36.4414L25.8158 36.4591C25.7147 36.8286 25.623 37.2383 25.623 37.6267C25.623 38.0293 25.7218 38.4094 26.0134 38.6928C26.1407 38.8144 26.2919 38.9088 26.3657 39.054L26.3978 39.1933C26.3978 39.3102 26.3383 39.4176 26.2359 39.4306L26.2121 39.4318C26.1407 39.433 26.0622 39.3929 25.9753 39.3917L25.9194 39.3999C25.7778 39.4401 25.7409 39.6042 25.7337 39.7317L25.7313 39.8084C25.7313 40.4743 26.105 41.1295 26.6858 41.4683C26.8357 41.5545 27.0154 41.6855 27.0119 41.8166L26.9976 41.8851C26.9607 41.9724 26.8512 42.0149 26.7501 42.0657C26.4335 42.2251 26.224 42.5674 26.2229 42.9192L26.224 42.9665C26.2431 43.3313 26.4942 43.6736 26.8393 43.8059L26.8726 43.7881Z" fill="#543423"/>
<path d="M24.8316 31.3603L24.8566 31.3355V31.3083C24.8566 30.9093 24.9256 30.4949 25.166 30.1832C25.3434 29.9518 25.6385 29.7948 25.9218 29.7948C26.0277 29.7948 26.1336 29.8161 26.2312 29.8657C26.5561 30.025 26.7048 30.4123 26.7703 30.7771C26.8369 31.1419 26.8548 31.5362 27.0559 31.862L27.0821 31.8738C27.3356 31.829 27.4939 31.5834 27.5617 31.3485C27.6307 31.1135 27.6426 30.868 27.7426 30.6555C27.9163 30.2836 28.3376 30.0923 28.7637 30.0923C28.9291 30.0923 29.0945 30.1207 29.2457 30.1785C29.7895 30.3851 30.1834 30.8668 30.4905 31.3662C30.5595 31.476 30.65 31.6129 30.7987 31.6176C30.9023 31.6176 30.9856 31.5515 31.0439 31.4795C31.2319 31.2387 31.2295 30.8963 31.2521 30.587C31.2736 30.2848 31.32 30.025 31.5532 29.9058C31.6913 30.1148 31.8293 30.3249 31.9686 30.5339L31.9971 30.5433L32.015 30.5185C32.0114 30.4548 32.009 30.3898 32.009 30.3261C32.009 29.665 32.1959 29.005 32.5422 28.4395C32.6196 28.5009 32.6981 28.5611 32.7755 28.6225L32.8112 28.619L32.8076 28.5836C32.7219 28.5163 32.6362 28.449 32.5505 28.3817L32.5303 28.377L32.5136 28.3888C32.153 28.9672 31.9591 29.6473 31.9591 30.3273C31.9591 30.3627 31.9614 30.3981 31.9626 30.4335C31.8353 30.2411 31.7091 30.0498 31.5818 29.8574L31.5497 29.848C31.2676 29.9778 31.2236 30.2741 31.2022 30.5835C31.1807 30.8951 31.1784 31.2281 31.0046 31.4476C30.9522 31.5138 30.8796 31.5681 30.7999 31.5669C30.688 31.5669 30.6024 31.45 30.5345 31.339C30.2251 30.8361 29.8264 30.345 29.2647 30.1313C29.1064 30.0711 28.935 30.0416 28.7649 30.0416C28.3245 30.0416 27.883 30.2387 27.6985 30.6342C27.5938 30.8585 27.5819 31.1076 27.5153 31.3343C27.451 31.5539 27.3046 31.7711 27.0916 31.8172C26.9083 31.509 26.8857 31.1312 26.8215 30.7676C26.7548 30.3969 26.6049 29.9932 26.255 29.8208C26.1502 29.7689 26.0372 29.7452 25.9229 29.7452C25.6207 29.7452 25.3148 29.9105 25.1268 30.1525C24.8757 30.4784 24.8066 30.9034 24.8066 31.3072V31.3343L24.8316 31.3603Z" fill="#543423"/>
<path d="M30.1051 35.2444L30.0706 35.2373L30.0635 35.2715C30.5978 36.0732 31.0762 36.9114 31.4951 37.7779L31.5082 37.6894C31.0965 36.8441 30.6276 36.0271 30.1051 35.2444Z" fill="#543423"/>
<path d="M31.7597 81.9668L27.5837 95.3215C27.6182 95.7737 27.6884 96.2199 27.8288 96.652C27.9145 96.9176 28.0454 97.1927 28.2894 97.3072C28.3668 97.3438 28.4489 97.3604 28.5322 97.3604C28.7773 97.3604 29.0344 97.2152 29.1891 97.0133C29.3986 96.7406 29.4735 96.3864 29.539 96.0417C29.8568 94.3971 30.134 92.7419 30.2162 91.0702L30.2185 90.9852C30.2185 90.7432 30.1614 90.4847 29.9567 90.4245L29.871 90.4115C29.6485 90.4079 29.4593 90.696 29.376 90.9475C29.0225 91.9816 28.8428 93.0737 28.8428 94.1657C28.8428 94.5104 28.8618 94.8552 28.8975 95.1987L28.9166 95.1999C29.0951 95.2011 29.2641 95.063 29.3474 94.8953C29.4367 94.7147 29.4486 94.5034 29.4569 94.2956C29.4688 94.0264 29.4807 93.7584 29.4938 93.4893L29.52 93.4656L29.5438 93.4916C29.5319 93.7608 29.52 94.0288 29.5081 94.2979C29.4997 94.5057 29.489 94.7241 29.3938 94.9177C29.3046 95.0972 29.1225 95.2495 28.9178 95.2495L28.8714 95.2471L28.8487 95.2247C28.8107 94.8729 28.7916 94.5187 28.7916 94.1657C28.7916 93.0678 28.9725 91.971 29.3272 90.9309C29.4152 90.6747 29.6021 90.3654 29.8698 90.3607L29.971 90.3761C30.215 90.4528 30.2685 90.7397 30.2685 90.9841L30.2661 91.0714C30.184 92.7455 29.9055 94.4042 29.5878 96.0487C29.5211 96.3935 29.4474 96.7559 29.2284 97.0416C29.063 97.2553 28.7964 97.4088 28.531 97.4088C28.4406 97.4088 28.3513 97.3911 28.2668 97.3509C27.999 97.2246 27.8669 96.9342 27.7801 96.6662C27.6515 96.2683 27.5813 95.8598 27.5432 95.4466L26.9648 97.2954C27.2326 97.3202 27.504 97.3497 27.7824 97.3899C28.7619 97.5292 29.6604 97.7429 30.3971 97.9943C31.0099 92.6676 31.4586 87.3219 31.7597 81.9668Z" fill="#543423"/>
<path d="M35.2458 36.6965C35.1816 36.7 35.1185 36.7178 35.078 36.7579C35.0376 36.7992 35.0209 36.863 35.0138 36.9279L35.0078 37.0365C35.0078 37.3694 35.1851 37.6929 35.4541 37.8913L35.5219 37.6764C35.5172 37.6705 35.5148 37.6634 35.5088 37.6575L35.5076 37.6221L35.5386 37.6209L35.7623 36.9043C35.6267 36.778 35.4672 36.6941 35.2863 36.6953L35.2458 36.6965Z" fill="#543423"/>
<path d="M31.5561 48.3258C30.9266 49.5193 30.6064 50.851 30.4077 52.1851C30.2768 53.0599 30.2018 53.9383 30.1602 54.8166L32.438 47.5312L32.3892 47.536C32.0048 47.6009 31.7442 47.9692 31.5561 48.3258Z" fill="#543423"/>
<path d="M33.6 90.7913L33.6333 90.5576L34.0772 87.4751L34.1058 87.2767L35.0686 80.5852L35.0948 80.401L35.7469 75.8676L35.7672 75.7318L36.3372 71.7722L36.3622 71.5975L36.9703 67.3745L36.9977 67.1833L37.3654 64.6309C37.3024 64.6379 37.2405 64.6462 37.175 64.6521L34.4902 73.2385C33.8487 77.8451 33.3632 82.473 33.0442 87.1126L33.0169 87.1362L32.9931 87.1091C33.3061 82.5627 33.7809 78.0293 34.4033 73.5147L31.8208 81.7729C31.5186 87.1976 31.0675 92.6129 30.4475 98.0106L30.4463 98.0117C31.0342 98.216 31.5138 98.445 31.847 98.6799C32.0446 97.7615 32.1469 96.8217 32.1469 95.8831C32.1469 95.7899 32.1457 95.6966 32.1445 95.6034L32.1695 95.5786L32.1945 95.6034C32.1957 95.6966 32.1969 95.7911 32.1969 95.8843C32.1969 96.8347 32.0946 97.7851 31.8922 98.713C32.2195 98.9538 32.3909 99.2006 32.3576 99.432L32.855 95.9717L33.6 90.7913ZM32.88 89.9319L32.9074 89.9094L32.93 89.9366C32.8503 90.8126 32.811 91.6921 32.811 92.5716C32.811 93.0946 32.8253 93.6188 32.8538 94.1406L32.83 94.1666L32.8038 94.143C32.7753 93.62 32.761 93.0946 32.761 92.5716C32.7598 91.6897 32.7991 90.809 32.88 89.9319Z" fill="#543423"/>
<path d="M31.8582 35.2542L31.5083 37.6886L31.4952 37.7771L31.2334 39.5928L31.2191 39.6932L30.9252 41.7403L30.8776 42.0744L30.5587 44.288L30.5503 44.3482L30.2992 46.0966L30.2885 46.1675L30.2361 46.5299L30.2266 46.596L30.1088 47.4177L30.0981 47.4933L29.9053 48.8297L29.8958 48.8982L28.7188 57.0808L28.7009 57.2024L28.3213 59.8421C28.4022 59.8728 28.476 59.9047 28.5617 59.9354L30.1028 55.0077C30.1421 54.0632 30.2195 53.1199 30.3599 52.179C30.5586 50.8414 30.88 49.5038 31.5131 48.3032C31.7023 47.9443 31.9677 47.5594 32.3831 47.4874L32.4568 47.4815L33.1364 45.3104C32.7198 44.7945 32.2141 44.3494 31.6357 44.02L31.6262 43.9858L31.6607 43.9763C32.2343 44.3034 32.7377 44.7437 33.1542 45.2537L33.9028 42.8583C33.8588 42.8288 33.8159 42.7993 33.7719 42.7698C33.5089 42.5998 33.209 42.4369 32.915 42.4369C32.8472 42.4369 32.7793 42.4451 32.7115 42.4652L32.6806 42.4487L32.6984 42.418C32.771 42.3979 32.8436 42.3884 32.915 42.3884C33.228 42.3884 33.5339 42.5585 33.7993 42.7296C33.8397 42.7556 33.879 42.7828 33.9183 42.8099L34.4764 41.0249C34.117 40.3673 33.5957 39.7947 32.9567 39.3969L32.9483 39.3626L32.9829 39.3544C33.616 39.7487 34.1349 40.3095 34.4978 40.9564L35.4404 37.9424C35.15 37.7358 34.9584 37.3946 34.9584 37.0392L34.9655 36.9247C34.9739 36.8563 34.9905 36.7807 35.0441 36.7252C35.0988 36.6721 35.1738 36.6544 35.244 36.6497L35.288 36.6485C35.4785 36.6497 35.6415 36.7299 35.7807 36.8539L36.1247 35.7548C35.9474 35.4856 35.7558 35.2259 35.5296 34.9874C35.3309 34.7761 35.0596 34.5742 34.7965 34.5754C34.7347 34.5754 34.6728 34.586 34.6121 34.6108C34.4586 34.671 34.3455 34.8103 34.2503 34.9532C33.9087 35.4679 33.7445 36.0783 33.7445 36.6933C33.7445 37.6909 34.1753 38.6968 34.9691 39.3119L34.9739 39.3473L34.9382 39.352C34.1301 38.7251 33.6945 37.7051 33.6933 36.6945C33.6933 36.0712 33.8588 35.4514 34.2075 34.9272C34.3038 34.782 34.4229 34.6332 34.593 34.5659C34.6597 34.5388 34.7275 34.527 34.7954 34.527C35.0845 34.5282 35.3618 34.7407 35.5653 34.9555C35.7831 35.1869 35.9712 35.436 36.1437 35.6934L36.8185 33.5353C36.7542 33.566 36.6852 33.5849 36.615 33.5849C36.4032 33.5849 36.1866 33.4609 36.0699 33.2791C35.9569 33.1044 35.9188 32.899 35.9188 32.6935C35.9188 32.5967 35.9271 32.4987 35.9402 32.4043C35.9997 31.9663 36.1461 31.5401 36.3698 31.1564L36.4044 31.147L36.4139 31.1812C36.1937 31.5578 36.0497 31.9781 35.9914 32.4102C35.9783 32.5035 35.97 32.5979 35.97 32.6924C35.97 32.8919 36.0069 33.0878 36.1128 33.2508C36.2199 33.4172 36.4246 33.5341 36.6162 33.5329C36.6947 33.5329 36.7709 33.5129 36.8387 33.4704L37.4492 31.5189C37.4504 31.4787 37.4552 31.4398 37.4552 31.3996C37.4552 31.0832 37.4183 30.7668 37.3481 30.4587C36.8959 30.8365 36.64 31.4232 36.64 32.01C36.64 32.2969 36.6995 32.5826 36.8268 32.8411L36.8149 32.8742L36.7816 32.8624C36.6519 32.5955 36.59 32.3028 36.59 32.01C36.59 31.3937 36.8613 30.7739 37.3493 30.3867L37.3731 30.3831L37.3897 30.4009C37.4635 30.7113 37.4992 31.0289 37.504 31.3477L37.8717 30.1695C37.6849 30.0797 37.4766 30.029 37.2719 30.029C36.9792 30.029 36.6995 30.1281 36.5103 30.3454C36.3556 30.5224 36.2758 30.755 36.1449 30.9616C36.0211 31.1564 35.8212 31.337 35.5856 31.3382L35.538 31.3359L35.5165 31.3182C35.4808 31.1942 35.4689 31.0679 35.4689 30.9416C35.4689 30.6925 35.5177 30.441 35.5427 30.1966C35.5499 30.1175 35.5558 30.0372 35.5558 29.957C35.5558 29.6594 35.4892 29.3643 35.2773 29.173C35.1381 29.0467 34.956 28.9901 34.7668 28.9901C34.555 28.9901 34.3348 29.0621 34.1646 29.1884C33.8397 29.4281 33.6576 29.8176 33.5481 30.2108L33.5172 30.2285L33.4994 30.1978C33.6112 29.7999 33.7957 29.3985 34.1349 29.1483C34.3146 29.0149 34.5442 28.9393 34.7668 28.9393C34.9655 28.9393 35.1607 28.9995 35.3107 29.1353C35.538 29.3407 35.6058 29.6512 35.6058 29.9558C35.6058 30.0384 35.601 30.1199 35.5927 30.2002C35.5677 30.4481 35.5189 30.6972 35.5189 30.9404C35.5189 31.0573 35.532 31.1729 35.563 31.2863L35.5856 31.2875C35.7926 31.2886 35.9843 31.121 36.1033 30.9345C36.2306 30.735 36.3103 30.4988 36.4734 30.3111C36.6745 30.0809 36.9696 29.977 37.2743 29.977C37.4838 29.977 37.6968 30.029 37.8896 30.1199L38.3442 28.6666C38.1288 28.6477 37.911 28.6253 37.6896 28.5934C37.4814 28.5639 37.2791 28.5285 37.0803 28.4895C37.0244 28.4789 36.9696 28.4671 36.9149 28.4553C36.7542 28.4222 36.5983 28.3856 36.4448 28.3478C36.4067 28.3384 36.3663 28.3289 36.3294 28.3195C36.1449 28.2711 35.9664 28.218 35.7938 28.1625C35.7522 28.1495 35.7129 28.1353 35.6724 28.1212C35.5356 28.0751 35.4035 28.0267 35.275 27.9771C35.2333 27.9606 35.1905 27.9452 35.15 27.9275C34.9941 27.8638 34.843 27.7977 34.7025 27.728C34.6871 27.7209 34.674 27.7127 34.6585 27.7056C34.5323 27.643 34.4145 27.5769 34.3027 27.5108C34.2693 27.4907 34.2372 27.4707 34.2051 27.4506C34.0992 27.3845 33.9992 27.3172 33.9087 27.2475C33.8956 27.2381 33.8814 27.2286 33.8695 27.2192C33.7683 27.1413 33.6802 27.061 33.6005 26.9807C33.5934 26.9736 33.5827 26.9665 33.5767 26.9595L33.5779 26.9559C33.2911 26.6584 33.1471 26.3491 33.1899 26.0469L33.04 27.087L31.8808 35.1444L31.8582 35.2542ZM31.9594 47.047L31.932 47.0246C31.9023 46.7212 31.6964 46.439 31.4155 46.3139L31.4024 46.2808L31.4357 46.2678C31.7345 46.4001 31.9499 46.6964 31.982 47.0187L31.9594 47.047ZM32.6651 37.5717C32.7484 37.7169 32.8746 37.8527 32.9091 38.0309L32.915 38.0935C32.915 38.2482 32.8127 38.417 32.6532 38.4193L32.6223 38.417C32.5044 38.3957 32.4235 38.2989 32.3343 38.3001C32.226 38.2977 32.1498 38.4182 32.1105 38.535C32.0486 38.7192 32.0177 38.914 32.0177 39.1088C32.0177 39.5869 32.1998 40.0674 32.533 40.4145C32.6401 40.5267 32.7698 40.6766 32.7722 40.8254L32.7222 40.9647C32.6413 41.0603 32.5092 41.0662 32.4033 41.0875C32.0605 41.1524 31.7666 41.4334 31.6892 41.771C31.675 41.8336 31.6678 41.8985 31.6678 41.9623C31.6678 42.2432 31.8023 42.5266 32.0296 42.6966L32.0344 42.732L31.9987 42.7367C31.7583 42.5573 31.6166 42.2598 31.6166 41.9634C31.6166 41.895 31.6238 41.8277 31.6392 41.7604C31.7226 41.4027 32.0296 41.1087 32.3938 41.039C32.5056 41.0178 32.6234 41.0084 32.683 40.934L32.7222 40.8254C32.7234 40.7061 32.6032 40.5574 32.4973 40.4488C32.1546 40.0922 31.9677 39.5999 31.9677 39.1088C31.9677 38.9093 31.9987 38.7098 32.0629 38.5197C32.1046 38.3981 32.1855 38.2529 32.3343 38.2505C32.4556 38.2552 32.5378 38.3568 32.6294 38.3674L32.6532 38.3686C32.7698 38.3686 32.865 38.2293 32.865 38.0935L32.8603 38.0404C32.8293 37.881 32.7091 37.7488 32.6211 37.5965C32.508 37.4005 32.4616 37.1915 32.4616 36.979C32.4616 36.4395 32.7591 35.8728 33.0495 35.3959L33.084 35.3876L33.0923 35.4219C32.802 35.8976 32.5116 36.4584 32.5116 36.979C32.5116 37.1845 32.5568 37.384 32.6651 37.5717ZM34.3217 30.4988L34.3515 30.4799L34.3705 30.5095C34.1289 31.5649 33.6648 32.5708 33.015 33.4408L32.9793 33.4456L32.9745 33.4101C33.6195 32.546 34.0813 31.5472 34.3217 30.4988Z" fill="#543423"/>
<path d="M33.5722 26.9554L33.7281 25.8716V25.8704V25.8693L33.7412 25.776L33.7566 25.7784C34.0054 25.2081 35.756 24.9791 37.8124 25.2707C38.492 25.3675 39.1239 25.508 39.6678 25.6768C39.9689 25.5847 40.3854 25.5493 40.8793 25.5659C40.1402 25.2483 39.2263 24.9945 38.2206 24.8516C35.5894 24.4797 33.333 25.0145 33.1842 26.0463C33.1414 26.3474 33.2854 26.6579 33.5722 26.9554Z" fill="#543423"/>
<path d="M37.6845 28.5922C37.4763 28.5627 37.2739 28.5272 37.0752 28.4883C37.2739 28.5272 37.4763 28.5627 37.6845 28.5922Z" fill="#543423"/>
<path d="M35.668 28.1206C35.5311 28.0746 35.399 28.0261 35.2705 27.9766C35.3978 28.0261 35.5311 28.0746 35.668 28.1206Z" fill="#543423"/>
<path d="M33.8647 27.2199C33.7647 27.142 33.6754 27.0617 33.5957 26.9814C33.6754 27.0617 33.7635 27.1408 33.8647 27.2199Z" fill="#543423"/>
<path d="M36.3236 28.3181C36.1392 28.2697 35.9606 28.2166 35.7881 28.1611C35.9618 28.2178 36.1392 28.2697 36.3236 28.3181Z" fill="#543423"/>
<path d="M35.1447 27.9271C34.9888 27.8633 34.8377 27.7972 34.6973 27.7275C34.8377 27.7972 34.9876 27.8633 35.1447 27.9271Z" fill="#543423"/>
<path d="M34.6537 27.7046C34.5275 27.642 34.4097 27.5759 34.2979 27.5098C34.4097 27.5759 34.5275 27.6408 34.6537 27.7046Z" fill="#543423"/>
<path d="M34.1997 27.4501C34.0937 27.384 33.9938 27.3167 33.9033 27.2471C33.995 27.3167 34.0937 27.384 34.1997 27.4501Z" fill="#543423"/>
<path d="M37.6846 28.5918C37.9059 28.6237 38.1237 28.6461 38.3391 28.665L38.3415 28.6567C38.1237 28.6378 37.9083 28.6237 37.6846 28.5918Z" fill="#543423"/>
<path d="M36.9086 28.4551C36.7491 28.422 36.592 28.3854 36.4385 28.3477C36.592 28.3854 36.7491 28.422 36.9086 28.4551Z" fill="#543423"/>
<path d="M33.7406 25.7764L33.7275 25.8696C33.7323 25.8378 33.7442 25.8082 33.7573 25.7787L33.7406 25.7764Z" fill="#543423"/>
<path d="M38.6425 27.6927C38.2723 27.6738 37.8832 27.6372 37.4809 27.5806C35.3174 27.2736 33.6381 26.5086 33.7274 25.8711L33.5715 26.9549L33.5703 26.9584C33.5775 26.9655 33.587 26.9726 33.5941 26.9797C33.6739 27.0599 33.7631 27.1402 33.8631 27.2181C33.8762 27.2276 33.8904 27.237 33.9023 27.2465C33.994 27.3149 34.0928 27.3822 34.1987 27.4495C34.2308 27.4696 34.2629 27.4897 34.2963 27.5097C34.4081 27.5759 34.526 27.642 34.6521 27.7045C34.6676 27.7116 34.6807 27.7199 34.6961 27.727C34.8366 27.7966 34.9877 27.8627 35.1436 27.9265C35.1841 27.943 35.2269 27.9595 35.2686 27.9761C35.3971 28.0257 35.5292 28.0741 35.6661 28.1201C35.7065 28.1343 35.7458 28.1484 35.7874 28.1614C35.96 28.2169 36.1385 28.27 36.323 28.3184C36.3611 28.3279 36.4003 28.3373 36.4384 28.3468C36.5919 28.3857 36.7478 28.4211 36.9085 28.4542C36.9632 28.466 37.018 28.4766 37.0739 28.4884C37.2727 28.5274 37.4762 28.5628 37.6832 28.5923C37.907 28.6242 38.1224 28.6384 38.3402 28.6573L38.6425 27.6927Z" fill="#543423"/>
<path d="M37.4806 27.5805C37.8828 27.6372 38.272 27.6738 38.6421 27.6926L39.1467 26.0788C39.2038 25.897 39.3859 25.7636 39.6679 25.6774C39.1241 25.5086 38.4921 25.3669 37.8126 25.2713C35.7561 24.9797 34.0043 25.2087 33.7568 25.7789C33.7437 25.8084 33.7318 25.838 33.727 25.8698V25.871V25.8722C33.6378 26.5085 35.317 27.2735 37.4806 27.5805Z" fill="#543423"/>
<path d="M30.1601 54.8168C30.2017 53.9373 30.2767 53.0601 30.4076 52.1853C30.6064 50.85 30.9265 49.5184 31.5561 48.326C31.7441 47.9694 32.0035 47.6011 32.3903 47.5362L32.4391 47.5314L32.4546 47.4795L32.3808 47.4854C31.9655 47.5574 31.7001 47.9423 31.5108 48.3012C30.8777 49.5018 30.5564 50.8394 30.3576 52.177C30.2172 53.1179 30.1399 54.0612 30.1006 55.0057L30.1601 54.8168Z" fill="#543423"/>
<path d="M30.3977 97.997C30.3977 98.0005 30.3965 98.0029 30.3965 98.0064L30.4191 98.0336L30.4453 98.0123L30.4465 98.0111C31.0653 92.6135 31.5175 87.197 31.8198 81.7734L31.7591 81.9671C31.458 87.3222 31.0094 92.6678 30.3977 97.997Z" fill="#543423"/>
<path d="M32.9922 87.1089L33.016 87.1361L33.0434 87.1124C33.3623 82.4728 33.8479 77.8449 34.4893 73.2383L34.4024 73.5145C33.78 78.0291 33.3052 82.5637 32.9922 87.1089Z" fill="#543423"/>
<path d="M35.5634 34.9481C35.3599 34.7332 35.0826 34.5207 34.7934 34.5195C34.7256 34.5195 34.6578 34.5313 34.5911 34.5585C34.4209 34.6258 34.3031 34.7745 34.2055 34.9197C33.858 35.4427 33.6914 36.0637 33.6914 36.6871C33.6914 37.6988 34.127 38.7177 34.9362 39.3446L34.9719 39.3398L34.9672 39.3044C34.1734 38.6882 33.7414 37.6835 33.7426 36.6859C33.7426 36.072 33.9068 35.4605 34.2484 34.9457C34.3436 34.8029 34.4566 34.6636 34.6102 34.6034C34.6708 34.5786 34.7327 34.5679 34.7946 34.5679C35.0576 34.5668 35.329 34.7698 35.5277 34.98C35.7538 35.2196 35.9466 35.4793 36.1228 35.7473L36.143 35.6836C35.9704 35.4286 35.7824 35.1795 35.5634 34.9481Z" fill="#543423"/>
<path d="M32.9736 33.4107L32.9784 33.4461L33.0141 33.4414C33.6627 32.5713 34.128 31.5654 34.3696 30.51L34.3506 30.4805L34.3208 30.4994C34.0804 31.5465 33.6187 32.5453 32.9736 33.4107Z" fill="#543423"/>
<path d="M33.7964 42.7269C33.531 42.5557 33.2252 42.3869 32.9122 42.3857C32.8396 42.3857 32.767 42.3952 32.6956 42.4153L32.6777 42.446L32.7087 42.4625C32.7765 42.4436 32.8443 42.4341 32.9122 42.4341C33.2061 42.4341 33.506 42.5971 33.769 42.7671C33.8131 42.7954 33.8559 42.8261 33.9 42.8556L33.9154 42.806C33.8762 42.7801 33.8369 42.7529 33.7964 42.7269Z" fill="#543423"/>
<path d="M37.3867 30.3956L37.37 30.3779L37.3462 30.3815C36.8583 30.7675 36.5869 31.3885 36.5869 32.0048C36.5869 32.2987 36.6488 32.5915 36.7785 32.8571L36.8118 32.869L36.8237 32.8359C36.6976 32.5773 36.6369 32.2916 36.6369 32.0048C36.6369 31.418 36.8928 30.8301 37.345 30.4535C37.4152 30.7616 37.4521 31.078 37.4521 31.3944C37.4521 31.4345 37.4473 31.4735 37.4462 31.5136L37.4997 31.3425C37.4973 31.0237 37.4604 30.7061 37.3867 30.3956Z" fill="#543423"/>
<path d="M36.6144 33.5276C36.4228 33.5276 36.2181 33.4119 36.111 33.2454C36.0051 33.0825 35.9682 32.8865 35.9682 32.687C35.9682 32.5925 35.9765 32.4981 35.9896 32.4048C36.0479 31.9727 36.1919 31.5524 36.4121 31.1758L36.4025 31.1416L36.368 31.151C36.1443 31.5336 35.9979 31.9597 35.9384 32.3989C35.9253 32.4934 35.917 32.5902 35.917 32.6882C35.917 32.8936 35.9539 33.099 36.0681 33.2737C36.1848 33.4544 36.4014 33.5783 36.6132 33.5795C36.6834 33.5795 36.7512 33.5606 36.8167 33.5299L36.8369 33.4662C36.7691 33.5075 36.6929 33.5276 36.6144 33.5276Z" fill="#543423"/>
<path d="M31.6576 43.9756L31.623 43.985L31.6326 44.0193C32.2109 44.3486 32.7167 44.7937 33.1333 45.3096L33.1511 45.253C32.7346 44.7418 32.2324 44.3026 31.6576 43.9756Z" fill="#543423"/>
<path d="M35.508 37.657C35.5141 37.6618 35.5153 37.6702 35.5213 37.6762L35.5383 37.6211L35.5068 37.6223L35.508 37.657Z" fill="#543423"/>
<path d="M35.0072 37.0365L35.0132 36.9279C35.0215 36.8629 35.037 36.7992 35.0774 36.7579C35.1179 36.7177 35.181 36.7012 35.2452 36.6965L35.2857 36.6953C35.4678 36.6941 35.6261 36.7779 35.7617 36.9043L35.7784 36.85C35.6392 36.7272 35.4761 36.6457 35.2857 36.6445L35.2417 36.6457C35.1715 36.6504 35.0965 36.6681 35.0417 36.7213C34.9882 36.7768 34.9715 36.8523 34.9632 36.9208L34.9561 37.0353C34.9561 37.3907 35.1477 37.7318 35.438 37.9384L35.4535 37.89C35.1846 37.6917 35.0072 37.3682 35.0072 37.0365Z" fill="#543423"/>
<path d="M32.9818 39.3516L32.9473 39.3598L32.9556 39.3941C33.5947 39.7919 34.1159 40.3645 34.4753 41.0221L34.4968 40.9536C34.1338 40.3055 33.6149 39.7459 32.9818 39.3516Z" fill="#543423"/>
<path d="M31.4366 46.2686L31.4033 46.2815L31.4164 46.3146C31.6973 46.4386 31.9032 46.7219 31.9329 47.0253L31.9603 47.0477L31.9829 47.0206C31.9496 46.6971 31.7342 46.4008 31.4366 46.2686Z" fill="#543423"/>
<path d="M33.0929 35.421L33.0846 35.3867L33.0501 35.395C32.7597 35.8731 32.4633 36.4398 32.4621 36.9781C32.4621 37.1906 32.5086 37.3996 32.6216 37.5956C32.7097 37.7479 32.8299 37.8801 32.8608 38.0395L32.8656 38.0926C32.8656 38.2284 32.7704 38.3677 32.6538 38.3677L32.63 38.3665C32.5383 38.3559 32.4562 38.2543 32.3348 38.2496C32.186 38.252 32.1039 38.3972 32.0635 38.5188C31.9992 38.7089 31.9683 38.9084 31.9683 39.1079C31.9683 39.599 32.1551 40.0913 32.4979 40.4479C32.6038 40.5565 32.724 40.7052 32.7228 40.8245L32.6835 40.9331C32.624 41.0075 32.5062 41.0181 32.3943 41.0382C32.0313 41.1078 31.7243 41.4018 31.6398 41.7595C31.6243 41.8256 31.6172 41.8941 31.6172 41.9625C31.6172 42.2601 31.7588 42.5564 31.9992 42.7358L32.0349 42.7311L32.0301 42.6957C31.8028 42.5257 31.6684 42.2435 31.6684 41.9614C31.6684 41.8964 31.6755 41.8327 31.6898 41.7701C31.7683 41.4336 32.0611 41.1527 32.4038 41.0866C32.5098 41.0653 32.6419 41.0594 32.7228 40.9638L32.7728 40.8245C32.7716 40.6745 32.6407 40.5258 32.5336 40.4136C32.2003 40.0677 32.0182 39.5872 32.0182 39.1079C32.0182 38.9131 32.0492 38.7195 32.1111 38.5341C32.1492 38.4173 32.2265 38.2968 32.3348 38.2992C32.4241 38.2968 32.5062 38.3948 32.6228 38.4161L32.6538 38.4184C32.8132 38.4161 32.9156 38.2473 32.9156 38.0926L32.9096 38.03C32.8739 37.8518 32.7478 37.716 32.6657 37.5708C32.5574 37.3831 32.5121 37.1836 32.5121 36.9781C32.5121 36.4575 32.8037 35.8955 33.0929 35.421Z" fill="#543423"/>
<path d="M37.2691 29.9752C36.9656 29.9752 36.6693 30.0791 36.4682 30.3093C36.3051 30.4959 36.2254 30.732 36.098 30.9327C35.979 31.1192 35.7886 31.2869 35.5804 31.2857L35.5578 31.2845C35.528 31.1712 35.5137 31.0555 35.5137 30.9386C35.5137 30.6966 35.5613 30.4463 35.5875 30.1984C35.5958 30.1181 35.6006 30.0366 35.6006 29.954C35.6006 29.6494 35.5328 29.3389 35.3055 29.1335C35.1555 28.9977 34.9603 28.9375 34.7616 28.9375C34.5378 28.9375 34.3094 29.0131 34.1296 29.1465C33.7917 29.3967 33.606 29.7981 33.4941 30.196L33.512 30.2267L33.5429 30.209C33.6524 29.8159 33.8357 29.4251 34.1594 29.1866C34.3296 29.0603 34.5497 28.9883 34.7616 28.9883C34.9508 28.9883 35.1329 29.0449 35.2721 29.1713C35.4828 29.3625 35.5506 29.6577 35.5506 29.9552C35.5506 30.0354 35.5458 30.1157 35.5375 30.1948C35.5125 30.4392 35.4637 30.6907 35.4637 30.9398C35.4637 31.0661 35.4756 31.1924 35.5113 31.3164L35.5328 31.3341L35.5804 31.3364C35.816 31.3353 36.0159 31.1546 36.1397 30.9598C36.2706 30.7532 36.3503 30.5195 36.5051 30.3436C36.6943 30.1263 36.974 30.0272 37.2667 30.0272C37.4714 30.0272 37.6797 30.0779 37.8665 30.1677L37.882 30.1204C37.6916 30.026 37.4785 29.9752 37.2691 29.9752Z" fill="#543423"/>
<path d="M44.5815 29.1408C44.403 29.8786 44.2673 30.6259 44.1792 31.3803L44.1507 31.4027L44.1281 31.3744C44.2161 30.6188 44.353 29.8692 44.5315 29.1301C44.1447 29.0428 43.746 28.9377 43.3366 28.8126C42.3917 28.5221 41.5384 28.1691 40.8517 27.8043C39.0869 34.0709 37.5433 40.3988 36.2247 46.7715L36.1949 46.7904L36.1759 46.7609C37.4969 40.3834 39.0416 34.0508 40.8065 27.7795L40.8077 27.7784C40.2603 27.4844 39.8235 27.1834 39.5319 26.8988C39.1559 27.861 38.8905 28.868 38.7477 29.8904L38.7191 29.9117L38.6977 29.8833C38.8417 28.8491 39.1095 27.8327 39.4927 26.8599C39.2082 26.5706 39.0773 26.3003 39.1475 26.0771L38.643 27.691L38.3419 28.6544L38.3395 28.6626L37.8849 30.1159L37.8694 30.1631L37.5017 31.3414L37.4481 31.5125L36.8376 33.464L36.8174 33.5278L36.1426 35.6859L36.1223 35.7496L35.7784 36.8488L35.7618 36.9031L35.538 37.6197L35.5214 37.674L35.4535 37.8888L35.438 37.9372L34.4955 40.9513L34.4741 41.0197L33.9159 42.8048L33.9005 42.8544L33.1519 45.2498L33.134 45.3064L32.4545 47.4775L32.439 47.5295L30.1612 54.8148L30.1017 55.0049L28.5605 59.9326C28.989 60.0849 29.4757 60.2313 29.9982 60.3683C30.4052 59.0979 30.8419 57.8359 31.2668 56.5739C33.3054 50.514 35.0537 44.3572 36.5044 38.132L36.5341 38.1132L36.5532 38.1427C35.1013 44.369 33.353 50.5269 31.3144 56.5892C30.8895 57.8513 30.4528 59.1121 30.047 60.3812C30.3124 60.4509 30.5908 60.5158 30.8765 60.5796C31.1109 59.8807 31.3453 59.1818 31.581 58.4829L31.6107 58.4663C31.7714 58.5029 31.8357 58.6659 31.9023 58.8099C31.9678 58.9575 32.032 59.085 32.1582 59.0909H32.1701C32.2819 59.092 32.3783 58.9834 32.4486 58.8736C32.7568 58.3931 32.9579 57.8454 33.0353 57.281L33.0638 57.2598L33.0853 57.2881C33.0079 57.8607 32.8032 58.4144 32.4914 58.9008C32.4188 59.0118 32.3176 59.1393 32.1713 59.1416H32.1558C31.9904 59.1298 31.9213 58.9752 31.8559 58.8311C31.794 58.6918 31.7321 58.5631 31.6203 58.5254C31.3894 59.2136 31.1573 59.9031 30.9264 60.5914C31.6214 60.7449 32.3641 60.883 33.1471 60.9928C33.4351 61.0341 33.7172 61.0672 33.998 61.0978C34.3015 58.6741 34.6871 56.261 35.1608 53.8644L35.1905 53.8444L35.2107 53.8739C34.7371 56.2693 34.3515 58.6812 34.048 61.1038C34.4574 61.1498 34.8585 61.1876 35.2441 61.2147C35.4202 58.8323 35.6285 56.4523 36.0997 54.1183C36.7936 50.6804 38.0515 47.3866 39.0571 44.029C39.8021 41.5427 40.4126 39.0128 41.3123 36.5749L41.3444 36.5607L41.3599 36.5926C40.4614 39.0269 39.8509 41.5569 39.1047 44.0444C38.0979 47.4031 36.8412 50.6958 36.1485 54.1289C35.6773 56.4594 35.4702 58.8359 35.2941 61.2183C35.8224 61.2537 36.3199 61.269 36.7888 61.2714C36.7852 61.2431 36.7864 61.2147 36.7805 61.1864L36.7995 61.1569L36.8293 61.1769C36.8352 61.2088 36.834 61.2407 36.8388 61.2714C37.3565 61.2714 37.8277 61.2501 38.2502 61.21L38.5192 60.3494L45.092 39.3292L48.3517 28.907C48.1613 29.5162 46.5725 29.5846 44.5815 29.1408ZM38.6549 40.3138L38.687 40.2972L38.7036 40.3279C38.1764 42.0008 37.648 43.6737 37.122 45.3477L37.0899 45.3643L37.0732 45.3324C37.6004 43.6607 38.1276 41.9866 38.6549 40.3138ZM36.3318 47.8612L36.3616 47.8423L36.3818 47.8718C36.1331 49.0618 35.8843 50.2519 35.6356 51.4419L35.6059 51.4608L35.5868 51.4313C35.8332 50.2412 36.0819 49.0512 36.3318 47.8612ZM37.8135 31.2257L37.8408 31.2032L37.8634 31.2304C37.7135 32.6282 37.4636 34.0142 37.1149 35.3766L37.0839 35.3943L37.0661 35.3636C37.4148 34.0047 37.6647 32.6199 37.8135 31.2257ZM32.4248 56.8182L32.3926 56.8336L32.3783 56.8017C33.2185 54.5633 33.9445 52.2813 34.5514 49.9709L34.5824 49.9532L34.6002 49.9839C33.9909 52.2955 33.265 54.5775 32.4248 56.8182ZM40.7815 34.9468C40.6601 35.1712 40.4495 35.425 40.2055 35.4273L40.058 35.3931C39.8913 35.3105 39.8426 35.131 39.8426 34.9504C39.8426 34.8512 39.8568 34.7509 39.8759 34.66C40.2246 33.019 40.7649 31.4252 41.3397 29.8515C41.4611 29.5209 41.592 29.1762 41.8526 28.9282C42.0204 28.7689 42.2572 28.6662 42.4869 28.6662C42.6155 28.6662 42.7428 28.6992 42.8523 28.7736C43.0951 28.9401 43.1796 29.247 43.2236 29.5268C43.2641 29.7924 43.2819 30.0592 43.2819 30.3272C43.2819 31.2233 43.082 32.1205 42.8832 32.9965C42.5762 34.3506 42.2691 35.7048 41.9621 37.0589L41.9323 37.0778L41.9133 37.0483C42.2203 35.6941 42.5274 34.34 42.8344 32.9859C43.0332 32.1087 43.2319 31.215 43.2319 30.3272C43.2319 30.0628 43.2141 29.7972 43.1736 29.5351C43.1308 29.2588 43.0463 28.9672 42.8237 28.8149C42.7238 28.7464 42.6071 28.7157 42.4869 28.7157C42.2727 28.7157 42.0466 28.8137 41.8883 28.9648C41.6372 29.2021 41.5087 29.5386 41.3873 29.868C40.8125 31.4417 40.2734 33.0331 39.9259 34.6706C39.9068 34.7591 39.8925 34.8571 39.8925 34.9516C39.8925 35.1263 39.939 35.2809 40.0806 35.3494L40.2055 35.3789C40.4102 35.3813 40.6221 35.1428 40.7375 34.9244C41.4135 33.6541 41.8074 32.2374 41.8871 30.803L41.811 30.7924C41.6527 30.7924 41.4896 30.8939 41.3944 31.0297C41.2778 31.1938 41.2314 31.4004 41.1897 31.6046C41.135 31.8679 41.0802 32.1312 41.0255 32.3944L40.9957 32.4133L40.9767 32.3838C41.0315 32.1205 41.0862 31.8573 41.1409 31.594C41.1838 31.3898 41.229 31.1761 41.354 31.0013C41.4575 30.8538 41.6313 30.7428 41.811 30.7428L41.9216 30.7581L41.9395 30.7841C41.8621 32.2315 41.4635 33.6636 40.7815 34.9468ZM37.7111 59.0118L37.679 59.0271L37.6635 58.9952C38.6917 56.0532 39.7188 53.1112 40.747 50.168L40.7792 50.1527L40.7946 50.1846C39.7664 53.1278 38.7382 56.0698 37.7111 59.0118ZM44.4042 36.6835C43.6556 38.6633 42.7833 40.6054 42.2977 42.6607L42.2668 42.6796L42.2477 42.6489C42.7345 40.5876 43.608 38.6432 44.3554 36.6658C44.8492 35.36 45.2908 34.0354 45.6775 32.6943L45.7085 32.6766L45.7263 32.7073C45.3396 34.0508 44.898 35.3766 44.4042 36.6835ZM42.1739 40.6006C41.3218 43.1471 40.5161 45.709 39.7116 48.2709C38.4002 52.4442 37.0887 56.6176 35.7772 60.7909L35.7451 60.8074L35.7284 60.7756C37.0399 56.6022 38.3514 52.4289 39.6629 48.2555C40.4685 45.6937 41.273 43.1318 42.1251 40.5853C43.3426 36.9467 44.6576 33.3413 46.0667 29.7724L46.0988 29.7582L46.1131 29.7901C44.7052 33.359 43.3914 36.9633 42.1739 40.6006Z" fill="#543423"/>
<path d="M18.9372 94.7396L18.9383 94.7373C18.9502 94.7361 18.9657 94.7373 18.9788 94.7349C19.1966 94.7101 19.4299 94.6995 19.6786 94.7007C19.7071 94.7007 19.7357 94.7018 19.7643 94.7018C20.0154 94.7066 20.2796 94.7255 20.5545 94.7562C20.5842 94.7597 20.6128 94.7621 20.6426 94.7656C20.927 94.801 21.2221 94.8506 21.5244 94.9144C21.547 94.9191 21.5684 94.9226 21.591 94.9273C21.9148 94.9982 22.2468 95.0832 22.5824 95.1871C22.7823 95.2485 22.9763 95.3157 23.1667 95.3842C23.2215 95.4043 23.275 95.4244 23.3286 95.4444C23.4773 95.5011 23.6225 95.5601 23.7641 95.6203C23.8046 95.638 23.8463 95.6534 23.8855 95.6711C24.0569 95.7467 24.2223 95.8258 24.3806 95.906C24.4246 95.9285 24.4651 95.9509 24.5079 95.9733C24.6293 96.0371 24.746 96.102 24.859 96.1681C24.9019 96.1929 24.9459 96.2189 24.9876 96.2437C25.1292 96.3299 25.2648 96.4172 25.3898 96.5058C25.4077 96.5188 25.4231 96.5317 25.441 96.5435C25.5505 96.6226 25.6528 96.7017 25.7492 96.782C25.7813 96.808 25.8111 96.8352 25.842 96.8611C25.9337 96.9414 26.0182 97.0205 26.0955 97.1008C26.1086 97.1138 26.1229 97.1268 26.1348 97.1409C26.2217 97.2342 26.2955 97.3263 26.3609 97.4172C26.3669 97.4254 26.3752 97.4337 26.3811 97.442L26.38 97.4455C26.6144 97.7843 26.7084 98.1125 26.618 98.403L26.9655 97.292L27.5439 95.4432L27.5831 95.3169L31.7591 81.9622L31.8198 81.7686L34.4023 73.5105L34.4892 73.2342L37.174 64.6478C36.8241 64.6809 36.4386 64.6998 36.0256 64.7033C35.9102 65.0965 35.7935 65.4896 35.6781 65.8827L35.6472 65.8993L35.6305 65.8686C35.7447 65.4802 35.859 65.0917 35.9732 64.7033C35.6721 64.7057 35.3591 64.701 35.0319 64.6868C34.7939 67.5226 34.4416 70.3335 33.58 73.0441C33.1694 74.3333 32.6398 75.6036 31.8234 76.6898C31.5782 77.0132 31.2557 77.3532 30.8333 77.358H30.8237C30.1406 77.3544 29.8252 76.5327 29.7515 75.8787C29.7039 75.456 29.6824 75.0346 29.6824 74.6155C29.6824 71.4905 30.9058 68.4328 32.1066 65.512C32.2554 65.1543 32.6077 64.7482 32.9385 64.7447C33.0373 64.7447 33.1337 64.7836 33.2158 64.8722C33.317 64.9808 33.3431 65.126 33.3431 65.2712C33.3431 65.3432 33.336 65.4164 33.3289 65.4861C33.054 67.9428 32.4577 70.3642 31.564 72.6711L31.5449 72.6864L31.5211 72.6781C31.2165 72.3299 31.0665 71.8718 31.0665 71.4137C31.0665 70.9214 31.2391 70.4291 31.5842 70.0714L31.6199 70.0702L31.6211 70.1057C31.2867 70.4528 31.1177 70.9332 31.1177 71.4137C31.1177 71.8458 31.2581 72.2744 31.533 72.6085C32.4161 70.3193 33.0064 67.918 33.2801 65.4813C33.2872 65.4129 33.2944 65.3408 33.2944 65.2724C33.2944 65.1331 33.2694 65.002 33.1801 64.9076C33.1063 64.8285 33.0254 64.7966 32.9397 64.7966C32.6517 64.7931 32.2959 65.1874 32.1554 65.5333C30.9546 68.4529 29.7348 71.5058 29.7348 74.6178C29.7348 75.0358 29.7574 75.456 29.8038 75.8763C29.8752 76.5257 30.193 77.3155 30.8261 77.3119H30.8356C31.2272 77.3084 31.5425 76.9861 31.7853 76.6638C32.597 75.5835 33.1254 74.3191 33.5347 73.0323C34.394 70.3276 34.7463 67.5214 34.9843 64.688C34.2547 64.6549 33.4693 64.5841 32.6505 64.4684C32.0091 64.3775 31.3938 64.2665 30.8166 64.1402C28.8018 70.1222 26.2074 75.933 25.0149 82.1169C24.8186 83.1357 24.6698 84.2053 24.6698 85.2513C24.6698 86.6727 24.9423 88.0516 25.7349 89.2145C25.9134 89.4778 26.1812 89.7446 26.4728 89.7434L26.5811 89.7316C26.7417 89.6962 26.8762 89.577 26.9928 89.4494C27.5403 88.8568 27.814 88.054 27.814 87.2512C27.814 86.4402 27.5343 85.6291 26.9774 85.0341L26.9786 84.9987L27.0143 84.9998C27.5807 85.6055 27.864 86.4283 27.864 87.2512C27.864 88.0658 27.5867 88.8804 27.0297 89.4837C26.9107 89.6124 26.7703 89.7399 26.5906 89.78L26.4716 89.793C26.1479 89.7918 25.8754 89.5097 25.6921 89.2428C24.8923 88.0682 24.6186 86.6786 24.6186 85.2513C24.6186 84.1994 24.7674 83.1286 24.9649 82.1074C26.1598 75.9177 28.753 70.1068 30.7666 64.1296C30.437 64.0564 30.1216 63.9785 29.8193 63.897C29.6943 64.2689 29.5694 64.6419 29.4444 65.0138L29.4123 65.0292L29.3968 64.9973C29.5218 64.6254 29.6467 64.2547 29.7717 63.8828C29.5384 63.8191 29.3135 63.7541 29.1005 63.6869C28.8815 64.5676 28.6935 65.4542 28.5542 66.3526L28.5257 66.3739L28.5043 66.3455C28.6435 65.4447 28.8327 64.5546 29.0529 63.6715C28.4781 63.4873 27.9818 63.289 27.5807 63.0859L18.6194 91.7421L17.415 95.5767C17.5578 95.1198 18.1243 94.8388 18.9372 94.7396ZM34.0405 64.6962L34.0655 64.721C34.0667 64.8119 34.0679 64.9029 34.0679 64.9949C34.0679 66.4742 33.8406 67.9523 33.3931 69.3643L33.361 69.3808L33.3443 69.3489C33.7894 67.9428 34.0167 66.4683 34.0167 64.9949C34.0167 64.904 34.0155 64.8119 34.0144 64.7222L34.0405 64.6962ZM29.5944 84.2962C29.8157 84.615 29.9276 85.0022 29.9276 85.3883C29.9276 85.6928 29.8574 85.9986 29.7158 86.2701C29.6598 86.374 29.5682 86.4945 29.4385 86.4956L29.4052 86.4933C29.285 86.4697 29.2207 86.3575 29.1314 86.3315L29.0826 86.3233C29.0231 86.3233 28.966 86.3587 28.922 86.413C28.8791 86.4673 28.8506 86.5405 28.8518 86.609V86.6172C28.8565 86.7802 28.9541 86.9301 29.0172 87.0942C29.0695 87.2335 29.0933 87.374 29.0933 87.5133C29.0922 88.1213 28.6542 88.7163 28.2436 89.2003L28.2079 89.2039L28.2044 89.1685C28.6149 88.6856 29.0434 88.0953 29.0434 87.5121C29.0434 87.3775 29.0208 87.2429 28.9708 87.1107C28.9113 86.9537 28.8089 86.799 28.8018 86.6184V86.6078C28.803 86.4472 28.9244 86.2749 29.0838 86.2725L29.1481 86.2831C29.2611 86.3221 29.3254 86.4307 29.4147 86.4425L29.4397 86.4449C29.5325 86.4472 29.6206 86.3457 29.6717 86.2454C29.8098 85.9821 29.8788 85.6846 29.8788 85.3871C29.8788 85.0105 29.7693 84.6339 29.5539 84.3234C29.4742 84.2077 29.3813 84.0589 29.3802 83.922C29.3802 83.8594 29.4016 83.7968 29.4563 83.7496C29.5503 83.6682 29.6812 83.6835 29.7895 83.6788C30.1382 83.6682 30.4727 83.4368 30.6048 83.1156C30.6476 83.0106 30.6678 82.8972 30.6678 82.7839C30.6678 82.5501 30.5798 82.3164 30.4167 82.1487V82.1133H30.4524C30.625 82.2916 30.7178 82.5383 30.7178 82.7839C30.7178 82.9031 30.6964 83.0224 30.65 83.1334C30.5107 83.4734 30.1609 83.7154 29.7907 83.7272C29.6765 83.7307 29.5587 83.7225 29.4885 83.7862L29.4301 83.9208C29.429 84.0365 29.5158 84.1841 29.5944 84.2962ZM31.1522 77.888L31.1796 77.8656L31.2022 77.8928L31.201 77.9412C31.201 78.2292 31.3557 78.5161 31.5997 78.6743L31.6068 78.7085L31.5723 78.7156C31.3129 78.548 31.151 78.2458 31.151 77.94L31.1522 77.888ZM31.0177 80.9068L31.0213 80.9422L30.9856 80.9457C29.8526 80.0355 29.1183 78.6542 29.0005 77.2127C28.9874 77.038 28.966 76.8491 28.8375 76.757L28.6816 76.7086C28.5459 76.7075 28.396 76.7995 28.3257 76.9259C28.2531 77.0534 28.2353 77.2033 28.2353 77.358C28.2353 77.4193 28.2377 77.4819 28.2412 77.5433C28.2746 78.1855 28.3269 78.8526 28.653 79.3945C28.6602 79.3059 28.6673 79.2162 28.6673 79.1276C28.6673 78.7617 28.609 78.3957 28.4935 78.0486L28.509 78.0167L28.5411 78.0321C28.6578 78.3839 28.7173 78.7558 28.7173 79.1265C28.7173 79.2481 28.7113 79.3697 28.6982 79.4913L28.6792 79.5125L28.6518 79.5019C28.271 78.9329 28.2258 78.2174 28.1913 77.5445C28.1877 77.4831 28.1853 77.4193 28.1853 77.3568C28.1853 77.1998 28.2032 77.0404 28.2817 76.9011C28.3614 76.7594 28.5233 76.6591 28.6816 76.6591C28.747 76.6591 28.8113 76.6768 28.8672 76.7169C29.0208 76.8302 29.0374 77.0368 29.0517 77.2092C29.1671 78.6353 29.8955 80.006 31.0177 80.9068ZM28.3531 72.9154L28.3698 72.9461C27.8759 74.5139 27.4855 76.1136 27.2023 77.7322C27.1357 78.1124 27.075 78.4984 27.075 78.8809C27.075 79.0533 27.0869 79.2256 27.1166 79.3968C27.2832 80.3566 27.9723 81.1464 28.7066 81.8052C28.9696 82.0413 29.2814 82.2774 29.6182 82.2774L29.7051 82.2727L29.7324 82.294L29.711 82.3211L29.6182 82.327C29.2576 82.3258 28.9386 82.0803 28.6732 81.8418C27.9366 81.1807 27.2368 80.3838 27.0666 79.4051C27.0369 79.2315 27.0238 79.0556 27.0238 78.8809C27.0238 78.4937 27.0845 78.1041 27.1511 77.7239C27.4344 76.103 27.8259 74.5021 28.3198 72.932L28.3531 72.9154ZM27.5391 82.9704C27.4237 82.4651 27.2927 81.8394 26.806 81.7379L26.6846 81.7249C26.4668 81.7249 26.2479 81.8442 26.1003 82.0118C25.923 82.2101 25.8242 82.4687 25.7409 82.7261C25.491 83.5052 25.3589 84.3246 25.3589 85.1415C25.3589 85.6008 25.4005 86.06 25.4874 86.511C25.5778 86.9844 25.8182 87.5275 26.2824 87.57L26.3228 87.5723L26.4573 87.5369C26.5049 87.5027 26.5299 87.4413 26.5478 87.3787C26.5727 87.2925 26.5835 87.2028 26.5835 87.1131C26.5835 86.7672 26.4049 86.4224 26.1169 86.2288L26.0955 86.3398C26.0955 86.426 26.1229 86.5133 26.1764 86.5818L26.1717 86.6172L26.136 86.6125C26.0753 86.5346 26.0443 86.4378 26.0443 86.3398L26.0765 86.1745L26.092 86.1604L26.1134 86.1627C26.4371 86.3622 26.6334 86.7388 26.6334 87.1143C26.6334 87.2087 26.6215 87.302 26.5954 87.3929C26.5763 87.459 26.5478 87.5322 26.4859 87.5782L26.3216 87.6243L26.2764 87.6219C25.7694 87.5711 25.5279 87.0009 25.4362 86.5228C25.3493 86.0683 25.3077 85.6055 25.3077 85.1439C25.3077 84.321 25.441 83.4981 25.6921 82.7131C25.7754 82.4533 25.8754 82.1877 26.061 81.9811C26.2181 81.8052 26.4466 81.6777 26.6834 81.6777L26.8155 81.6919C27.3451 81.8099 27.4701 82.4616 27.5867 82.9622C27.7914 83.8488 28.2841 84.6693 28.9731 85.269L28.9755 85.3044L28.9398 85.3068C28.2436 84.6964 27.745 83.8677 27.5391 82.9704ZM27.9651 91.1341H28.0008V91.1696C27.2261 91.9216 26.6108 92.8365 26.2062 93.8341L26.1729 93.8483L26.1586 93.8152C26.5656 92.8117 27.1845 91.8921 27.9651 91.1341ZM24.1652 90.4671C24.2259 90.44 24.289 90.427 24.352 90.427C24.5901 90.4282 24.8233 90.5982 24.9221 90.8213C24.9745 90.9417 24.9959 91.0692 24.9959 91.1991C24.9959 91.3702 24.959 91.5426 24.9102 91.7055C24.7817 92.1294 24.5686 92.5272 24.2878 92.8696L24.2521 92.8731L24.2485 92.8377C24.5258 92.5001 24.7353 92.1081 24.8626 91.6902C24.9114 91.5308 24.9459 91.362 24.9459 91.1991C24.9459 91.0751 24.9257 90.9547 24.8757 90.8414C24.7864 90.6359 24.5651 90.4766 24.352 90.4777L24.1854 90.5131C24.0533 90.5722 23.9581 90.6973 23.876 90.826C23.4357 91.5131 23.1989 92.3253 23.1989 93.1399C23.1989 93.2297 23.2036 93.3194 23.2096 93.4079C23.8106 93.0514 24.1831 92.356 24.1831 91.6642C24.1831 91.4848 24.1581 91.3065 24.1069 91.1341L24.1236 91.1034L24.1545 91.12C24.208 91.2971 24.233 91.4812 24.233 91.6654C24.233 92.3903 23.8379 93.1163 23.1977 93.4764H23.1739L23.1608 93.4563C23.1524 93.3513 23.1489 93.2462 23.1489 93.1411C23.1489 92.3183 23.3881 91.4954 23.8332 90.8012C23.9189 90.669 24.0164 90.5332 24.1652 90.4671ZM23.8891 88.4885L23.8677 88.5168L23.8391 88.4955C23.6856 87.472 23.6094 86.4366 23.6094 85.4012C23.6094 83.9007 23.7701 82.4002 24.0914 80.9339L24.1212 80.915L24.1402 80.9446C23.8201 82.4073 23.6606 83.9043 23.6606 85.4012C23.6606 86.4342 23.7368 87.4673 23.8891 88.4885ZM26.8786 66.2168L26.9048 66.1932L26.9286 66.2192C26.8703 67.826 25.8408 69.2946 25.842 70.8695C25.842 70.9344 25.8432 71.0005 25.848 71.0667C25.8539 71.1906 25.8742 71.3217 25.9587 71.3972C26.0086 71.4444 26.0753 71.4645 26.1455 71.4645C26.2252 71.4645 26.3097 71.4374 26.3776 71.3901C26.5037 71.3016 26.5858 71.1599 26.6632 71.0182C26.8786 70.6287 27.094 70.2391 27.3094 69.8495L27.3368 69.8377C27.4546 69.866 27.4939 69.9805 27.4927 70.0927C27.4927 70.1647 27.4784 70.2391 27.4582 70.304C27.0535 71.5708 26.5894 72.8186 26.0693 74.0429L26.036 74.0559L26.0229 74.0228C26.543 72.7997 27.0059 71.5531 27.4094 70.2887C27.4284 70.2284 27.4415 70.1576 27.4415 70.0927C27.4403 69.9947 27.4094 69.9239 27.3392 69.8979C27.1285 70.2804 26.9167 70.6617 26.706 71.043C26.6275 71.1847 26.5442 71.3346 26.4049 71.4326C26.33 71.4846 26.236 71.5153 26.1443 71.5165C26.0634 71.5165 25.9837 71.4917 25.923 71.435C25.8218 71.3405 25.8028 71.1965 25.7956 71.0702C25.7921 71.0029 25.7897 70.9368 25.7897 70.8707C25.7932 69.2734 26.8239 67.8047 26.8786 66.2168ZM25.228 74.449L25.2577 74.4313L25.2756 74.4608C24.79 76.4277 24.3044 78.3933 23.8189 80.359C23.3333 82.3247 22.8478 84.2915 22.4812 86.282C22.3051 87.2347 22.1587 88.2122 22.1587 89.1767C22.1587 89.8792 22.2373 90.5757 22.4384 91.251L22.4217 91.2817L22.3908 91.2652C22.1885 90.584 22.1099 89.8839 22.1099 89.1767C22.1099 88.2075 22.2563 87.2264 22.4324 86.2725C22.799 84.2809 23.2857 82.3128 23.7701 80.3472C24.2568 78.3815 24.7424 76.4159 25.228 74.449ZM23.2536 78.875L23.2834 78.8561L23.3024 78.8856C22.7538 81.1807 22.1028 83.4533 21.3518 85.6917L21.3197 85.7082L21.3042 85.6763C22.054 83.4403 22.705 81.1689 23.2536 78.875ZM20.3926 89.0764C20.5212 88.7423 20.6497 88.3798 20.6485 88.0363C20.6485 87.8757 20.6211 87.7187 20.5533 87.57L20.5652 87.5369L20.5985 87.5499C20.6699 87.7057 20.6985 87.8698 20.6985 88.0363C20.6985 88.3917 20.5676 88.7588 20.439 89.0941C20.0642 90.0622 19.6905 91.0302 19.3168 91.9983L19.2847 92.0125L19.2704 91.9806C19.6441 91.0125 20.0178 90.0445 20.3926 89.0764ZM18.5623 93.3607L18.5956 93.3713C18.6396 93.4587 18.6837 93.5472 18.7277 93.6358C19.337 93.2332 19.8202 92.6476 20.0939 91.9747L20.1201 91.9594L20.1415 91.9806C20.1772 92.2285 20.2129 92.4764 20.2498 92.7244C20.5128 92.7126 20.6664 92.4965 20.8151 92.2321C20.9674 91.9617 21.1114 91.6524 21.384 91.5131C21.4363 91.486 21.4982 91.4671 21.5589 91.4671L21.6648 91.4907C21.7981 91.558 21.8207 91.7197 21.8374 91.8484C21.9029 92.4304 22.0528 93.0313 22.4574 93.4481C22.7014 93.6995 23.0656 93.8554 23.4119 93.8554C23.6356 93.8554 23.851 93.7904 24.0236 93.6476C24.2045 93.4977 24.3211 93.2792 24.4818 93.0951C24.6186 92.9404 24.8138 92.8058 25.0221 92.8058L25.1411 92.8224L25.1589 92.8436L25.1661 92.9782C25.1661 93.3099 25.0387 93.6299 24.9542 93.9463C24.9114 94.1057 24.8804 94.2757 24.8804 94.4409C24.8804 94.6464 24.9269 94.8412 25.053 94.9982C25.2006 95.1835 25.4374 95.2709 25.6814 95.2709C25.8444 95.2709 26.0098 95.2319 26.1526 95.1576C26.5121 94.971 26.7536 94.6145 26.925 94.245L26.9583 94.2332L26.9702 94.2662C26.7965 94.6416 26.5489 95.0088 26.1753 95.2024C26.0241 95.2803 25.8516 95.3216 25.6802 95.3216C25.4243 95.3216 25.172 95.2296 25.0125 95.03C24.8781 94.8624 24.8293 94.6546 24.8293 94.4421C24.8293 94.2709 24.8602 94.0962 24.9042 93.9345C24.9911 93.6145 25.1149 93.2981 25.1149 92.9794L25.1089 92.8684L25.0197 92.8566C24.8352 92.8554 24.6484 92.9806 24.5175 93.1293C24.3604 93.3076 24.2437 93.5283 24.0533 93.6865C23.8701 93.8388 23.6428 93.9061 23.4095 93.9061C23.0489 93.9061 22.674 93.7456 22.4193 93.4835C22.0028 93.0538 21.8517 92.441 21.7862 91.8555C21.7719 91.7268 21.7446 91.5851 21.6422 91.5367L21.5589 91.519L21.4066 91.5591C21.1555 91.6855 21.0115 91.9853 20.858 92.258C20.7056 92.5284 20.539 92.7799 20.2284 92.7799L20.2034 92.7586C20.1701 92.5284 20.1368 92.2982 20.1034 92.068C19.8178 92.7279 19.3382 93.3029 18.7325 93.6972L18.7122 93.7007L18.6968 93.6877C18.648 93.5909 18.5992 93.4941 18.5504 93.3973L18.5623 93.3607Z" fill="#543423"/>
<path d="M39.6688 25.6767C39.3868 25.7629 39.2035 25.8963 39.1476 26.0781C39.0773 26.3012 39.2082 26.5716 39.4927 26.8608C39.4986 26.8443 39.5046 26.8278 39.5105 26.8112L39.5236 26.7971L39.5855 26.7841C39.6724 26.7864 39.7247 26.862 39.7747 26.9399C39.8235 27.0202 39.8711 27.1111 39.9294 27.163L40.0627 27.215C40.2305 27.2185 40.4328 26.9966 40.4876 26.7912C40.5638 26.522 40.6375 26.1548 40.941 26.1005L41.0017 26.0958C41.0779 26.0958 41.1528 26.1171 41.2219 26.1407C41.6313 26.2788 42.0002 26.5255 42.2834 26.849L42.281 26.8844L42.2453 26.8821C41.9681 26.5657 41.6051 26.3237 41.2052 26.1891C41.1374 26.1666 41.0684 26.1466 41.0017 26.1466L40.9505 26.1513C40.6923 26.1891 40.6114 26.5303 40.5364 26.8053C40.4733 27.0273 40.271 27.2622 40.0627 27.2658C40.0044 27.2658 39.9461 27.2457 39.8961 27.2008C39.8271 27.1394 39.7795 27.045 39.7319 26.9671C39.6843 26.888 39.6367 26.8325 39.5867 26.8348L39.5546 26.8419C39.5474 26.8608 39.5403 26.8809 39.5331 26.8998C39.8247 27.1843 40.2615 27.4853 40.8089 27.7793L40.8387 27.7628L40.8565 27.7935C40.8553 27.797 40.8553 27.8006 40.8541 27.8029C41.5408 28.1677 42.3941 28.5195 43.339 28.8111C43.7472 28.9363 44.1471 29.0413 44.5339 29.1287C44.691 28.477 44.8802 27.8324 45.1051 27.1996L45.1373 27.1843L45.1527 27.2162C44.9278 27.8466 44.7398 28.4888 44.5827 29.1393C46.5749 29.5832 48.1624 29.5148 48.3517 28.9091C48.579 28.1819 46.7034 26.9588 44.1614 26.1761C42.9332 25.7983 41.7776 25.5941 40.8815 25.5645C40.3864 25.5504 39.9699 25.5858 39.6688 25.6767Z" fill="#543423"/>
<path d="M46.0668 29.772C44.6577 33.3409 43.3439 36.9464 42.1252 40.5849C41.2731 43.1314 40.4674 45.6933 39.6629 48.2551C38.3515 52.4285 37.04 56.6018 35.7285 60.7752L35.7452 60.807L35.7773 60.7905C37.0888 56.6172 38.4003 52.4438 39.7117 48.2705C40.5174 45.7086 41.3219 43.1468 42.174 40.6003C43.3915 36.9629 44.7053 33.3586 46.1144 29.7897L46.1001 29.7578L46.0668 29.772Z" fill="#543423"/>
<path d="M33.531 73.0344C33.1216 74.3212 32.5932 75.5856 31.7816 76.6659C31.5388 76.9882 31.2234 77.3116 30.8319 77.314H30.8224C30.1893 77.3175 29.8715 76.5277 29.8001 75.8784C29.7525 75.4581 29.7311 75.039 29.7311 74.6199C29.7311 71.5079 30.9509 68.4549 32.1517 65.5354C32.2921 65.1894 32.648 64.7951 32.936 64.7987C33.0217 64.7987 33.1026 64.8306 33.1764 64.9097C33.2644 65.0041 33.2906 65.1351 33.2906 65.2744C33.2906 65.3441 33.2835 65.4149 33.2763 65.4834C33.0026 67.9201 32.4135 70.3214 31.5293 72.6106C31.2544 72.2776 31.114 71.8479 31.114 71.4158C31.114 70.9353 31.2829 70.4548 31.6174 70.1077L31.6162 70.0723L31.5805 70.0735C31.2365 70.4312 31.0628 70.9247 31.0628 71.4158C31.0628 71.8739 31.2127 72.332 31.5174 72.6802L31.5412 72.6885L31.5602 72.6731C32.4552 70.3663 33.0502 67.9449 33.3251 65.4881C33.3323 65.4185 33.3394 65.3465 33.3394 65.2733C33.3394 65.1292 33.3132 64.9828 33.2121 64.8742C33.13 64.7857 33.0336 64.7467 32.9348 64.7467C32.6039 64.7503 32.2529 65.1576 32.1029 65.5141C30.9021 68.4337 29.6787 71.4914 29.6787 74.6176C29.6787 75.0378 29.7013 75.4593 29.7477 75.8808C29.8215 76.5348 30.1369 77.3565 30.82 77.36H30.8295C31.2508 77.3541 31.5745 77.0153 31.8197 76.6918C32.6361 75.6057 33.1669 74.3354 33.5762 73.0462C34.4379 70.3356 34.7901 67.5246 35.0281 64.6889C35.0115 64.6877 34.9948 64.6865 34.9782 64.6865C34.7425 67.5235 34.3903 70.3297 33.531 73.0344Z" fill="#543423"/>
<path d="M27.422 63.722L17.1885 95.866C18.7191 97.353 20.6539 99.2542 23.4861 100.196C26.5496 101.214 29.565 100.239 31.7517 100.327L32.8013 96.7845L33.4573 100.327C34.4632 100.414 36.816 100.537 38.1805 100.327C39.545 100.117 41.9853 99.2773 43.0349 98.8837L38.3117 64.6405L39.7549 63.9845L39.6237 61.2293L38.8365 60.1797L48.6765 28.5605C47.3645 27.6858 45.6261 26.5322 43.4285 25.8053C41.2612 25.0883 37.6557 24.8869 37.6557 24.8869C37.6557 24.8869 34.0696 25.3242 33.0637 25.6741V26.9861C33.0637 26.9861 33.1949 24.9743 32.2765 24.8869C31.3581 24.7994 27.9469 25.0181 27.9469 25.0181C27.9469 25.0181 23.0925 26.0677 22.9613 26.7237C22.8563 27.2485 26.1538 48.4591 27.8157 58.9989L26.8973 59.3925L26.2413 62.5413L27.422 63.722Z" stroke="white" stroke-width="1.52543"/>
<path d="M36.1467 54.1327C36.8393 50.6995 38.096 47.4081 39.1028 44.0481C39.849 41.5607 40.4583 39.0307 41.358 36.5963L41.3426 36.5645L41.3104 36.5786C40.4107 39.0165 39.8002 41.5477 39.0552 44.0328C38.0484 47.3892 36.7917 50.683 36.0979 54.122C35.6266 56.456 35.4183 58.8361 35.2422 61.2185C35.2588 61.2197 35.2755 61.2197 35.2922 61.2208C35.4683 58.8396 35.6754 56.4619 36.1467 54.1327Z" fill="#543423"/>
<path d="M40.8054 27.7804C39.0393 34.0516 37.4946 40.3831 36.1748 46.7606L36.1938 46.7901L36.2236 46.7712C37.5434 40.3984 39.0869 34.0705 40.8518 27.8028C40.853 27.7993 40.853 27.7958 40.8542 27.7934L40.8364 27.7627L40.8066 27.7792L40.8054 27.7804Z" fill="#543423"/>
<path d="M28.498 66.3461L28.5195 66.3744L28.548 66.3532C28.6873 65.4559 28.8753 64.5681 29.0943 63.6874C29.0776 63.6827 29.0633 63.6768 29.0467 63.6709C28.8277 64.5563 28.6385 65.4453 28.498 66.3461Z" fill="#543423"/>
<path d="M31.3133 56.5913C33.3519 50.529 35.1002 44.3711 36.5521 38.1447L36.533 38.1152L36.5033 38.1341C35.0526 44.3593 33.3043 50.516 31.2657 56.576C30.8408 57.838 30.4041 59.1 29.9971 60.3703C30.0137 60.3751 30.0292 60.3798 30.0459 60.3833C30.4529 59.1154 30.8896 57.8533 31.3133 56.5913Z" fill="#543423"/>
<path d="M24.9606 82.1097C24.763 83.1309 24.6143 84.2029 24.6143 85.2536C24.6143 86.6809 24.888 88.0704 25.6877 89.2451C25.871 89.5131 26.1435 89.7941 26.4672 89.7953L26.5862 89.7823C26.7647 89.7421 26.9052 89.6146 27.0254 89.4859C27.5823 88.8827 27.8596 88.0681 27.8596 87.2535C27.8596 86.4306 27.5764 85.6077 27.0099 85.0021L26.9742 85.0009L26.973 85.0363C27.53 85.6314 27.8096 86.4424 27.8096 87.2535C27.8096 88.0563 27.5359 88.8591 26.9885 89.4517C26.8707 89.5792 26.7374 89.6985 26.5767 89.7339L26.4684 89.7457C26.1768 89.7469 25.9091 89.4812 25.7306 89.2168C24.938 88.0539 24.6654 86.6738 24.6654 85.2536C24.6654 84.2064 24.8142 83.138 25.0106 82.1191C26.2042 75.9353 28.7974 70.1245 30.8122 64.1425C30.7956 64.1389 30.7789 64.1354 30.7622 64.1318C28.7498 70.1079 26.1554 75.9199 24.9606 82.1097Z" fill="#543423"/>
<path d="M22.1094 89.1771C22.1094 89.8831 22.1879 90.5843 22.3902 91.2655L22.4212 91.282L22.4378 91.2514C22.2367 90.5761 22.1582 89.8807 22.1582 89.1771C22.1582 88.2125 22.3045 87.235 22.4807 86.2823C22.8472 84.293 23.3328 82.3262 23.8183 80.3593C24.3039 78.3937 24.7894 76.4268 25.275 74.4612L25.2572 74.4316L25.2274 74.4493C24.7418 76.4162 24.2563 78.3819 23.7707 80.3475C23.2852 82.3132 22.7996 84.2812 22.4331 86.2729C22.2569 87.2268 22.1094 88.2078 22.1094 89.1771Z" fill="#543423"/>
<path d="M27.0264 78.8805C27.0264 79.0564 27.0395 79.2311 27.0692 79.4047C27.2394 80.3834 27.938 81.1803 28.6758 81.8414C28.9412 82.0787 29.2602 82.3254 29.6208 82.3266L29.7136 82.3207L29.735 82.2936L29.7076 82.2723L29.6208 82.277C29.2851 82.2782 28.9722 82.0421 28.7091 81.8048C27.9749 81.146 27.2846 80.3562 27.1192 79.3964C27.0894 79.2252 27.0775 79.0529 27.0775 78.8805C27.0775 78.498 27.137 78.112 27.2049 77.7318C27.4881 76.1132 27.8785 74.5135 28.3724 72.9457L28.3557 72.915L28.3247 72.9316C27.8309 74.5017 27.4393 76.1026 27.1561 77.7235C27.0871 78.1037 27.0264 78.4933 27.0264 78.8805Z" fill="#543423"/>
<path d="M28.8675 76.7161C28.8115 76.6759 28.7473 76.6582 28.6818 76.6582C28.5235 76.6594 28.3629 76.7597 28.2819 76.9002C28.2034 77.0395 28.1855 77.1989 28.1855 77.3559C28.1855 77.4197 28.1879 77.4822 28.1915 77.5436C28.2272 78.2177 28.2724 78.932 28.6521 79.501L28.6794 79.5117L28.6985 79.4904C28.7116 79.3688 28.7175 79.2472 28.7175 79.1256C28.7175 78.7549 28.658 78.383 28.5414 78.0312L28.5093 78.0159L28.4938 78.0477C28.608 78.3948 28.6675 78.7608 28.6675 79.1268C28.6675 79.2153 28.6604 79.3051 28.6533 79.3936C28.3272 78.8517 28.2748 78.1847 28.2415 77.5425C28.2379 77.4811 28.2355 77.4185 28.2355 77.3571C28.2355 77.2036 28.2534 77.0537 28.326 76.925C28.3962 76.7999 28.5461 76.7078 28.6818 76.7078L28.8377 76.7562C28.9674 76.8483 28.9877 77.0383 29.0008 77.2119C29.1186 78.6534 29.8529 80.0347 30.9858 80.9449L31.0215 80.9413L31.0179 80.9059C29.8957 80.0051 29.1674 78.6345 29.0519 77.2072C29.0376 77.036 29.021 76.8294 28.8675 76.7161Z" fill="#543423"/>
<path d="M28.9764 85.3006L28.9741 85.2651C28.285 84.6654 27.7923 83.8449 27.5876 82.9583C27.471 82.4577 27.346 81.8061 26.8164 81.688L26.6843 81.6738C26.4475 81.6738 26.219 81.8013 26.0619 81.9772C25.8763 82.185 25.7751 82.4506 25.693 82.7092C25.4419 83.4931 25.3086 84.3171 25.3086 85.14C25.3086 85.6028 25.3502 86.0644 25.4371 86.5189C25.5288 86.9971 25.7703 87.5673 26.2773 87.618L26.3225 87.6204L26.4868 87.5744C26.5499 87.5283 26.5772 87.4551 26.5963 87.389C26.6224 87.2981 26.6343 87.2037 26.6343 87.1104C26.6343 86.735 26.438 86.3595 26.1143 86.1588L26.0929 86.1565L26.0774 86.1707L26.0453 86.3359C26.0453 86.4327 26.0762 86.5307 26.1369 86.6086L26.1726 86.6134L26.1774 86.578C26.1238 86.5095 26.0964 86.4221 26.0964 86.3359L26.1179 86.225C26.4059 86.4186 26.5844 86.7633 26.5844 87.1092C26.5844 87.1989 26.5725 87.2887 26.5487 87.3748C26.5308 87.4386 26.5046 87.4988 26.4582 87.533L26.3237 87.5685L26.2833 87.5661C25.8191 87.5248 25.5776 86.9805 25.4883 86.5071C25.4014 86.0561 25.3598 85.5969 25.3598 85.1376C25.3598 84.3207 25.4919 83.5014 25.7418 82.7222C25.8239 82.4636 25.9239 82.2051 26.1012 82.0079C26.25 81.8403 26.4677 81.7211 26.6855 81.7211L26.8069 81.734C27.2937 81.8356 27.4246 82.4613 27.54 82.9666C27.7471 83.8638 28.2457 84.6926 28.9419 85.2994L28.9764 85.3006Z" fill="#543423"/>
<path d="M41.9209 30.757L41.8102 30.7417C41.6293 30.7417 41.4567 30.8538 41.3532 31.0002C41.2282 31.1761 41.183 31.3898 41.1402 31.5929C41.0854 31.8561 41.0307 32.1194 40.9759 32.3827L40.995 32.4122L41.0247 32.3933C41.0795 32.1289 41.1342 31.8668 41.189 31.6035C41.2306 31.3993 41.277 31.1927 41.3937 31.0286C41.4889 30.8928 41.6507 30.7901 41.8102 30.7913L41.8864 30.8019C41.8066 32.2363 41.4115 33.653 40.7367 34.9233C40.6213 35.1417 40.4095 35.3802 40.2048 35.3778L40.0798 35.3483C39.9394 35.2798 39.893 35.1252 39.8918 34.9504C39.8918 34.856 39.9061 34.758 39.9251 34.6695C40.2738 33.0332 40.8117 31.4406 41.3865 29.8669C41.5067 29.5375 41.6364 29.1998 41.8876 28.9637C42.0458 28.8126 42.2731 28.7146 42.4862 28.7146C42.6064 28.7146 42.723 28.7453 42.823 28.8138C43.0455 28.9661 43.13 29.2577 43.1728 29.5339C43.2133 29.7972 43.2312 30.0617 43.2312 30.3261C43.2312 31.2139 43.0324 32.1076 42.8337 32.9848C42.5266 34.3389 42.2196 35.693 41.9125 37.0472L41.9316 37.0767L41.9613 37.0578C42.2684 35.7037 42.5754 34.3495 42.8825 32.9954C43.0812 32.1182 43.2811 31.221 43.2811 30.3261C43.2811 30.0593 43.2633 29.7925 43.2228 29.5257C43.18 29.2459 43.0943 28.9389 42.8515 28.7725C42.742 28.6981 42.6147 28.665 42.4862 28.665C42.2565 28.665 42.0208 28.7677 41.8519 28.9271C41.59 29.175 41.4591 29.5198 41.3389 29.8503C40.7629 31.4252 40.2238 33.019 39.8751 34.6588C39.8561 34.7497 39.8418 34.8513 39.8418 34.9493C39.8418 35.1299 39.8906 35.3093 40.0572 35.392L40.2048 35.4262C40.4487 35.4239 40.6594 35.1688 40.7808 34.9457C41.4627 33.6624 41.8614 32.2304 41.9387 30.7818L41.9209 30.757Z" fill="#543423"/>
<path d="M44.1503 31.4016L44.1789 31.3792C44.267 30.626 44.4038 29.8775 44.5811 29.1396C44.7382 28.4891 44.9263 27.8469 45.1512 27.2164L45.1357 27.1846L45.1036 27.1999C44.8775 27.8315 44.6894 28.4773 44.5323 29.129C44.3538 29.8692 44.217 30.6189 44.1289 31.3733L44.1503 31.4016Z" fill="#543423"/>
<path d="M45.6788 32.6943C45.2909 34.0354 44.8505 35.36 44.3567 36.6657C43.6081 38.6444 42.7358 40.5876 42.249 42.6489L42.2681 42.6796L42.299 42.6607C42.7834 40.6053 43.6557 38.6633 44.4055 36.6834C44.8993 35.3765 45.3409 34.0496 45.7288 32.7084L45.711 32.6777L45.6788 32.6943Z" fill="#543423"/>
<path d="M40.7466 50.1689C39.7184 53.1109 38.6901 56.0529 37.6631 58.9949L37.6786 59.0268L37.7107 59.0114C38.7377 56.0694 39.766 53.1274 40.7942 50.1842L40.7787 50.1523L40.7466 50.1689Z" fill="#543423"/>
<path d="M34.5988 49.9828L34.581 49.9521L34.55 49.9699C33.9431 52.2814 33.2172 54.5623 32.377 56.8007L32.3912 56.8326L32.4234 56.8172C33.2648 54.5777 33.9907 52.2956 34.5988 49.9828Z" fill="#543423"/>
<path d="M35.2088 53.8781L35.1886 53.8486L35.1588 53.8687C34.684 56.2653 34.2996 58.6784 33.9961 61.1021C34.0128 61.1045 34.0294 61.1068 34.0461 61.108C34.3495 58.6855 34.7339 56.2724 35.2088 53.8781Z" fill="#543423"/>
<path d="M35.585 51.4308L35.604 51.4603L35.6338 51.4414C35.8825 50.2514 36.1312 49.0613 36.3799 47.8713L36.3597 47.8418L36.33 47.8607C36.0824 49.0507 35.8337 50.2407 35.585 51.4308Z" fill="#543423"/>
<path d="M37.0843 35.3942L37.1152 35.3765C37.4639 34.0153 37.7138 32.6281 37.8638 31.2303L37.8412 31.2031L37.8138 31.2256C37.665 32.621 37.4151 34.0046 37.0664 35.3647L37.0843 35.3942Z" fill="#543423"/>
<path d="M38.6982 29.8852L38.7197 29.9135L38.7482 29.8922C38.891 28.8687 39.1552 27.8628 39.5325 26.9007C39.5396 26.8818 39.5456 26.8617 39.5539 26.8428L39.586 26.8357C39.6372 26.8334 39.6836 26.8888 39.7312 26.9679C39.7788 27.0459 39.8264 27.1403 39.8955 27.2017C39.9455 27.2466 40.0038 27.2666 40.0621 27.2666C40.2703 27.2631 40.4727 27.0282 40.5357 26.8062C40.6107 26.53 40.6916 26.1899 40.9499 26.1522L41.0011 26.1474C41.0677 26.1474 41.1367 26.1663 41.2046 26.1899C41.6056 26.3245 41.9674 26.5677 42.2447 26.8829L42.2804 26.8853L42.2828 26.8499C41.9995 26.5276 41.6294 26.2797 41.2212 26.1415C41.1522 26.1179 41.0784 26.0967 41.0011 26.0967L40.9404 26.1014C40.6357 26.1545 40.5631 26.5229 40.4869 26.792C40.431 26.9975 40.2287 27.2182 40.0621 27.2159L39.9288 27.1639C39.8705 27.1132 39.8229 27.0211 39.7741 26.9408C39.7253 26.8617 39.6729 26.7861 39.5849 26.785L39.523 26.7979L39.5099 26.8121C39.5039 26.8286 39.498 26.8452 39.492 26.8617C39.11 27.8333 38.8422 28.851 38.6982 29.8852Z" fill="#543423"/>
<path d="M37.1199 45.3493C37.6471 43.6753 38.1743 42.0024 38.7015 40.3295L38.6848 40.2988L38.6539 40.3154C38.1267 41.9882 37.5983 43.6611 37.0723 45.3352L37.0889 45.3671L37.1199 45.3493Z" fill="#543423"/>
<path d="M29.3916 65L29.4071 65.0319L29.4392 65.0165C29.5642 64.6446 29.6891 64.2716 29.8141 63.8997C29.7974 63.895 29.7808 63.8914 29.7653 63.8867C29.6415 64.2574 29.5166 64.6281 29.3916 65Z" fill="#543423"/>
<path d="M31.6188 58.5273C31.7307 58.5651 31.7926 58.6938 31.8544 58.8331C31.9199 58.9771 31.9889 59.1318 32.1543 59.1436H32.1698C32.3162 59.1424 32.4174 59.0149 32.4899 58.9027C32.8017 58.4163 33.0053 57.8615 33.0838 57.2901L33.0624 57.2617L33.0338 57.283C32.9576 57.8473 32.7553 58.3951 32.4471 58.8756C32.3769 58.9854 32.2805 59.094 32.1686 59.0928H32.1567C32.0294 59.0869 31.9663 58.9594 31.9009 58.8118C31.8354 58.6678 31.7699 58.5049 31.6093 58.4683L31.5795 58.4848C31.3451 59.1837 31.1106 59.8826 30.875 60.5815C30.8917 60.585 30.9071 60.5898 30.9238 60.5933C31.1571 59.905 31.3879 59.2168 31.6188 58.5273Z" fill="#543423"/>
<path d="M25.9249 71.4351C25.9855 71.4918 26.0653 71.5166 26.1462 71.5166C26.2378 71.5166 26.3319 71.4859 26.4068 71.4328C26.5461 71.336 26.6294 71.1849 26.7079 71.0432C26.9186 70.6619 27.1304 70.2805 27.3411 69.898C27.4113 69.9252 27.4422 69.996 27.4434 70.0928C27.4434 70.1577 27.4303 70.2286 27.4113 70.2888C27.0078 71.5544 26.5449 72.8011 26.0248 74.023L26.0379 74.056L26.0712 74.043C26.5913 72.8188 27.0554 71.5709 27.4601 70.3041C27.4803 70.2404 27.4946 70.1648 27.4946 70.0928C27.4958 69.9807 27.4577 69.865 27.3387 69.8378L27.3113 69.8496C27.0959 70.2392 26.8805 70.6288 26.6651 71.0184C26.5877 71.1601 26.5056 71.3029 26.3795 71.3903C26.3128 71.4363 26.2271 71.4646 26.1474 71.4646C26.0772 71.4646 26.0105 71.4434 25.9606 71.3974C25.8761 71.3206 25.8558 71.1908 25.8499 71.0668C25.8463 71.0007 25.8439 70.9346 25.8439 70.8696C25.8427 69.2947 26.8722 67.8261 26.9305 66.2193L26.9067 66.1934L26.8805 66.217C26.8257 67.8049 25.7951 69.2723 25.7939 70.8696C25.7939 70.9357 25.7951 71.003 25.7999 71.0692C25.8047 71.1967 25.8225 71.3407 25.9249 71.4351Z" fill="#543423"/>
<path d="M33.3457 69.349L33.3624 69.3808L33.3945 69.3643C33.8408 67.9535 34.0693 66.4742 34.0693 64.995C34.0693 64.9029 34.0681 64.812 34.0669 64.7211L34.0419 64.6963L34.0169 64.7211C34.0181 64.812 34.0193 64.9029 34.0193 64.9938C34.0181 66.4695 33.7908 67.9429 33.3457 69.349Z" fill="#543423"/>
<path d="M35.6289 65.8742L35.6456 65.9049L35.6765 65.8884C35.7919 65.4953 35.9086 65.1021 36.024 64.709C36.0062 64.709 35.9883 64.709 35.9717 64.709C35.8574 65.0974 35.7432 65.4858 35.6289 65.8742Z" fill="#543423"/>
<path d="M36.8281 61.1792L36.7983 61.1592L36.7793 61.1899C36.7852 61.2182 36.7841 61.2465 36.7876 61.2749C36.8043 61.2749 36.821 61.2749 36.8376 61.2749C36.8329 61.243 36.8352 61.2111 36.8281 61.1792Z" fill="#543423"/>
<path d="M31.5709 78.7172L31.6054 78.7101L31.5983 78.6759C31.3543 78.5177 31.1996 78.2308 31.1996 77.9427L31.2008 77.8943L31.1782 77.8672L31.1508 77.8896L31.1484 77.9427C31.1508 78.2473 31.3127 78.5484 31.5709 78.7172Z" fill="#543423"/>
<path d="M29.7903 83.7291C30.1604 83.7173 30.5103 83.4753 30.6495 83.1353C30.6947 83.0243 30.7173 82.905 30.7173 82.7858C30.7173 82.5402 30.6245 82.2935 30.452 82.1152H30.4163V82.1507C30.5793 82.3183 30.6674 82.5532 30.6674 82.7858C30.6674 82.8991 30.6459 83.0125 30.6043 83.1175C30.4734 83.4387 30.139 83.6701 29.7891 83.6807C29.6808 83.6854 29.5499 83.6701 29.4559 83.7515C29.4023 83.7987 29.3797 83.8601 29.3797 83.9239C29.3809 84.0608 29.4737 84.2096 29.5534 84.3253C29.7677 84.6346 29.8783 85.0124 29.8783 85.389C29.8783 85.6865 29.8105 85.984 29.6713 86.2473C29.6189 86.3476 29.5308 86.448 29.4392 86.4468L29.4142 86.4444C29.3249 86.4314 29.2595 86.324 29.1476 86.285L29.0834 86.2744C28.9239 86.2768 28.8037 86.4491 28.8013 86.6097V86.6203C28.8085 86.801 28.9108 86.9544 28.9703 87.1126C29.0203 87.246 29.0429 87.3794 29.0429 87.514C29.0441 88.0972 28.6157 88.6875 28.2051 89.168L28.2086 89.2034L28.2444 89.1999C28.6561 88.7159 29.0941 88.1208 29.0941 87.5128C29.0941 87.3724 29.0703 87.2319 29.0179 87.0937C28.9548 86.9296 28.8572 86.7797 28.8525 86.6168V86.6085C28.8525 86.54 28.8799 86.4669 28.9227 86.4125C28.9667 86.3571 29.0239 86.3228 29.0834 86.3228L29.1322 86.3311C29.2214 86.3559 29.2857 86.4692 29.4059 86.4928L29.4392 86.4952C29.5689 86.4928 29.6606 86.3736 29.7165 86.2697C29.8593 85.9982 29.9283 85.6936 29.9283 85.3878C29.9283 85.0018 29.8153 84.6145 29.5951 84.2958C29.5166 84.1836 29.4297 84.036 29.4309 83.9227L29.4892 83.7881C29.5582 83.7232 29.676 83.7314 29.7903 83.7291Z" fill="#543423"/>
<path d="M21.3523 85.693C22.1032 83.4546 22.7542 81.182 23.3028 78.8869L23.2838 78.8574L23.254 78.8763C22.7054 81.1702 22.0544 83.4404 21.3047 85.6776L21.3202 85.7095L21.3523 85.693Z" fill="#543423"/>
<path d="M24.1211 80.915L24.0914 80.9339C23.77 82.4002 23.6094 83.9007 23.6094 85.4012C23.6094 86.4366 23.6855 87.4708 23.8391 88.4955L23.8676 88.5168L23.889 88.4885C23.7355 87.4673 23.6594 86.4342 23.6594 85.4024C23.6594 83.9054 23.82 82.4085 24.139 80.9457L24.1211 80.915Z" fill="#543423"/>
<path d="M36.8377 61.2747C36.8211 61.2747 36.8044 61.2747 36.7877 61.2747C36.3189 61.2736 35.8214 61.257 35.293 61.2216C35.2763 61.2204 35.2597 61.2204 35.243 61.2193C34.8574 61.1921 34.4564 61.1543 34.047 61.1083C34.0303 61.1059 34.0137 61.1036 33.997 61.1024C33.7161 61.0705 33.4353 61.0375 33.1461 60.9973C32.363 60.8863 31.6204 60.7494 30.9254 60.5959C30.9087 60.5924 30.8933 60.5877 30.8766 60.5841C30.591 60.5204 30.3137 60.4542 30.0471 60.3858C30.0304 60.381 30.015 60.3763 29.9983 60.3728C29.4747 60.2347 28.9891 60.0894 28.5607 59.9372C28.475 59.9065 28.4024 59.8746 28.3203 59.8439C28.1453 59.7778 27.9728 59.7105 27.8193 59.642C27.4527 59.4803 27.1481 59.3162 26.9184 59.1532C26.91 59.1473 26.8993 59.1426 26.8922 59.1367L26.4816 61.9902C26.4316 62.3361 26.8446 62.721 27.5741 63.0893C27.9752 63.2924 28.4714 63.4895 29.0462 63.6749C29.0629 63.6796 29.0772 63.6855 29.0938 63.6914C29.3069 63.7587 29.533 63.8236 29.7651 63.8874C29.7805 63.8921 29.7972 63.8956 29.8138 63.9004C30.1161 63.9818 30.4303 64.0609 30.7612 64.1329C30.7778 64.1365 30.7945 64.14 30.8111 64.1436C31.3895 64.2699 32.0036 64.3809 32.6451 64.4718C33.4638 64.5875 34.2505 64.6583 34.9788 64.6913C34.9955 64.6925 35.0121 64.6937 35.0288 64.6937C35.3561 64.7079 35.6703 64.7126 35.9702 64.7102C35.988 64.7102 36.0059 64.7102 36.0225 64.7102C36.4355 64.7055 36.8211 64.6878 37.171 64.6547C37.2364 64.6488 37.2983 64.6406 37.3614 64.6335C37.6803 64.5969 37.9659 64.5461 38.2135 64.4847C38.8347 64.3301 39.2179 64.0999 39.2607 63.8012L39.6582 61.0351V61.0339L39.6713 60.9465C39.663 60.9501 39.6499 60.9513 39.6416 60.9548C39.2929 61.0764 38.8121 61.1614 38.2456 61.2157C37.8267 61.2535 37.3554 61.2747 36.8377 61.2747Z" fill="#FF3B3B"/>
<path d="M58.6658 70.2538L58.3256 70.2812C57.5628 70.3426 56.9644 69.8901 56.5497 69.4218C56.1219 68.9388 55.7544 68.2915 55.4416 67.6263C54.853 66.3745 54.3776 64.8799 54.0496 63.8485C54.0275 63.7791 54.0061 63.7117 53.9853 63.6467L53.9851 63.6459C53.3375 61.6076 51.8214 56.0782 52.9756 48.2466L52.9756 48.2466C53.138 47.1452 53.8172 42.5652 56.3012 37.0352L56.3012 37.0351C56.9037 35.6946 57.57 34.3812 58.2926 33.0996M58.6658 70.2538L58.2926 33.0996M58.6658 70.2538L58.8711 70.2846C59.559 70.388 60.1555 70.0689 60.6001 69.7004C61.0531 69.325 61.4606 68.8084 61.8126 68.2789C62.5196 67.2151 63.1092 65.933 63.4599 65.1511L58.6658 70.2538ZM58.2926 33.0996C59.4939 30.9693 60.8526 28.9255 62.3372 26.9882L62.9913 26.1347L63.5806 27.0342C64.7612 28.8362 65.2812 30.9422 65.6699 32.9059L65.6701 32.9066C65.7513 33.3193 65.8251 33.732 65.8975 34.1385L65.8976 34.1392C67.337 42.2546 67.1901 50.6444 65.4543 58.7033M58.2926 33.0996L65.4543 58.7033M65.4543 58.7033C64.9865 60.8758 64.3935 63.0715 63.46 65.1509L65.4543 58.7033ZM53.7301 48.3578L53.7301 48.3579L53.7301 48.3578Z" fill="#597C5A" stroke="white" stroke-width="1.52543"/>
<path d="M64.4113 79.0071L63.7373 77.5769C63.4642 76.9974 63.406 76.2571 63.4053 75.6262C63.4045 74.9791 63.4668 74.3209 63.5126 73.8379L63.5144 73.8187L63.5146 73.8173C63.6285 72.6379 64.0574 69.5181 66.3284 65.8103L66.3291 65.8092L66.3311 65.8058C66.6559 65.2776 67.9834 63.1185 70.4187 60.8642L64.4113 79.0071ZM64.4113 79.0071L64.6525 78.5186M64.4113 79.0071L64.6525 78.5186M64.6525 78.5186C65.0108 78.7604 65.4269 78.7711 65.7614 78.6995C66.1568 78.6148 66.5404 78.4033 66.8578 78.1931C67.4581 77.7956 68.0559 77.2402 68.4125 76.909C68.4392 76.8842 68.4645 76.8607 68.4884 76.8386L68.4887 76.8383C69.4179 75.9768 70.1944 74.9887 70.8935 73.9991M64.6525 78.5186L70.8935 73.9991M70.8935 73.9991C73.6226 70.1367 75.5521 65.721 76.5292 61.1037C76.7539 60.0428 76.9558 58.831 76.7386 57.6167L76.5486 56.5547L75.6107 57.088C73.7519 58.1449 71.9924 59.4066 70.4189 60.864L70.8935 73.9991Z" fill="#597C5A" stroke="white" stroke-width="1.52543"/>
<path d="M54.2339 80.6237C54.675 80.4039 54.8853 80.0027 54.984 79.6666C55.0835 79.3276 55.1011 78.957 55.093 78.6317C55.0815 78.168 55.0067 77.6356 54.9539 77.2604C54.9353 77.1279 54.9194 77.0149 54.91 76.9316L54.91 76.931C54.7681 75.6754 54.4319 74.4669 54.0484 73.3195L54.2339 80.6237ZM54.2339 80.6237L53.8554 80.9761C53.3898 81.4096 52.8038 81.3318 52.4376 81.2156C52.054 81.0938 51.6665 80.8611 51.3267 80.6233C50.7201 80.1989 50.0944 79.6332 49.6654 79.2452C49.6085 79.1938 49.5551 79.1455 49.5056 79.1011C48.62 78.3066 46.3539 76.1031 44.711 72.084C44.4766 71.5131 43.5206 69.1661 43.1499 65.8747L43.1498 65.8743C42.9119 63.7514 42.9394 61.5977 43.1947 59.4856L43.324 58.4155L44.2901 58.8935C45.4005 59.443 46.2591 60.3277 46.982 61.1389L54.2339 80.6237ZM54.0483 73.3193C52.5528 68.8409 50.1332 64.6705 46.9822 61.1391L54.0483 73.3193Z" fill="#597C5A" stroke="white" stroke-width="1.52543"/>
<path d="M62.6186 91.7705C62.1271 89.9619 61.6594 88.0623 61.2297 86.0672C62.3175 83.4215 63.5623 80.6483 64.9666 77.7842C65.1415 77.4265 65.3105 77.0735 65.4914 76.7123C67.5205 72.6641 69.6151 68.9842 71.6751 65.6703C71.7798 65.5027 71.7263 65.2819 71.5573 65.1792C71.3883 65.0753 71.1669 65.1272 71.0622 65.2961C68.9915 68.6265 66.8862 72.3264 64.8464 76.3947C64.7012 76.6827 64.5679 76.9649 64.4275 77.2518C63.1422 79.8609 61.9961 82.3908 60.9739 84.8228C60.0301 80.1702 59.303 75.0583 58.9852 69.5273C58.8745 67.6065 58.8127 65.6361 58.8079 63.6196V63.6173C58.8079 63.5382 58.8079 63.4567 58.8079 63.3753C58.8079 54.1632 59.992 46.1353 61.4499 39.6515C61.4927 39.4591 61.3714 39.2678 61.1774 39.2253C60.9834 39.1828 60.7906 39.3032 60.7477 39.4957C59.2804 46.0207 58.0879 54.1018 58.0879 63.3741C58.0879 63.4544 58.0879 63.537 58.0891 63.6208V63.6185C58.0939 65.6325 58.1557 67.5994 58.2652 69.5178C58.608 75.5329 59.4339 81.0521 60.4966 86.027C60.4954 86.0813 60.5073 86.1333 60.53 86.1817C60.7727 87.3103 61.0238 88.4189 61.288 89.4897C58.6746 86.4048 56.0945 83.2763 53.8869 79.9411C52.5719 77.9554 51.3865 75.8977 50.4107 73.7313C49.7502 72.2674 49.1849 70.7562 48.6172 69.238C48.3435 68.5061 48.0698 67.7741 47.796 67.0421C47.727 66.8568 47.5199 66.7635 47.3331 66.832C47.1463 66.9005 47.0522 67.1059 47.1213 67.2912C47.395 68.0232 47.6687 68.7552 47.9424 69.4871C48.5101 71.0053 49.0801 72.5306 49.7525 74.0229C50.7617 76.2613 51.9851 78.3781 53.3383 80.4134C55.8339 84.1688 58.777 87.6444 61.6891 91.0705C61.7581 91.3349 61.8295 91.5958 61.8997 91.8567C62.9756 95.8306 64.1621 99.3581 65.3034 102.364C65.3736 102.548 65.5807 102.641 65.7675 102.572C65.9532 102.502 66.0472 102.297 65.9782 102.111C64.85 99.1539 63.6813 95.6806 62.6186 91.7705Z" fill="white"/>
</g>
<defs>
<clipPath id="clip0_2089_36266">
<rect x="0.399414" y="0.0615234" width="84.9618" height="84.9618" rx="42.4809" fill="white"/>
</clipPath>
</defs>
</svg>
