<svg width="32" height="32" viewBox="0 0 32 32" fill="none" xmlns="http://www.w3.org/2000/svg">
<path d="M26.7151 9.09358L19.0351 3.72024C16.9418 2.25358 13.7284 2.33358 11.7151 3.89358L5.0351 9.10691C3.70177 10.1469 2.64844 12.2802 2.64844 13.9602V23.1602C2.64844 26.5602 5.40844 29.3336 8.80844 29.3336H23.1818C26.5818 29.3336 29.3418 26.5736 29.3418 23.1736V14.1336C29.3418 12.3336 28.1818 10.1202 26.7151 9.09358ZM22.5018 17.8669C22.5018 18.3869 22.0884 18.8002 21.5684 18.8002C21.0484 18.8002 20.6351 18.3869 20.6351 17.8669V17.6269L17.0084 21.2536C16.8084 21.4536 16.5418 21.5469 16.2618 21.5202C15.9951 21.4936 15.7418 21.3336 15.5951 21.1069L14.2351 19.0802L11.0618 22.2536C10.8751 22.4402 10.6484 22.5202 10.4084 22.5202C10.1684 22.5202 9.92844 22.4269 9.7551 22.2536C9.3951 21.8936 9.3951 21.3069 9.7551 20.9336L13.7284 16.9602C13.9284 16.7602 14.1951 16.6669 14.4751 16.6936C14.7551 16.7202 15.0084 16.8669 15.1551 17.1069L16.5151 19.1336L19.3284 16.3202H19.0884C18.5684 16.3202 18.1551 15.9069 18.1551 15.3869C18.1551 14.8669 18.5684 14.4536 19.0884 14.4536H21.5684C21.6884 14.4536 21.8084 14.4802 21.9284 14.5202C22.1551 14.6136 22.3418 14.8002 22.4351 15.0269C22.4884 15.1469 22.5018 15.2669 22.5018 15.3869V17.8669Z" fill="#06C167"/>
</svg>
