<svg width="23" height="23" viewBox="0 0 23 23" fill="none" xmlns="http://www.w3.org/2000/svg">
<path d="M14.9606 2.3335H7.27896C3.94229 2.3335 1.95312 4.32266 1.95312 7.65933V15.3318C1.95312 18.6777 3.94229 20.6668 7.27896 20.6668H14.9515C18.2881 20.6668 20.2773 18.6777 20.2773 15.341V7.65933C20.2865 4.32266 18.2973 2.3335 14.9606 2.3335ZM15.5931 11.0693C15.5931 11.4268 15.309 11.711 14.9515 11.711C14.594 11.711 14.3098 11.4268 14.3098 11.0693V10.9043L11.8165 13.3977C11.679 13.5352 11.4956 13.5993 11.3031 13.581C11.1106 13.5627 10.9365 13.4618 10.8356 13.2968L9.90063 11.9035L7.71896 14.0852C7.59063 14.2135 7.43479 14.2685 7.26979 14.2685C7.10479 14.2685 6.93979 14.2043 6.82062 14.0852C6.57312 13.8377 6.57312 13.4343 6.82062 13.1777L9.55229 10.446C9.68979 10.3085 9.87313 10.2443 10.0656 10.2627C10.2581 10.281 10.4323 10.3818 10.5331 10.5468L11.4681 11.9402L13.4023 10.006H13.2373C12.8798 10.006 12.5956 9.72183 12.5956 9.36433C12.5956 9.00683 12.8798 8.72266 13.2373 8.72266H14.9423C15.0248 8.72266 15.1073 8.741 15.1898 8.7685C15.3456 8.83266 15.474 8.961 15.5381 9.11683C15.5748 9.19933 15.584 9.28183 15.584 9.36433V11.0693H15.5931Z" fill="black"/>
</svg>
