<svg width="112" height="112" viewBox="0 0 112 112" fill="none" xmlns="http://www.w3.org/2000/svg">
<g clip-path="url(#clip0_1881_23736)">
<rect x="0.224609" width="111.394" height="111.394" rx="55.6969" fill="#FFF7E7"/>
<path d="M89.046 69.8204C88.4461 60.7529 78.8369 51.2237 54.834 50.842V50.8384C54.7722 50.8384 54.714 50.8384 54.6558 50.8384C54.594 50.8384 54.5359 50.8347 54.4777 50.8347V50.8384C30.4748 50.6457 20.6402 59.9458 19.8222 68.9951C19.0005 78.088 26.8282 80.1858 26.8282 80.1858C26.8282 80.1858 24.4431 100.731 23.476 106.912C22.5089 113.089 25.472 119.135 34.0523 117.779C41.3746 116.626 52.369 116.561 53.8742 116.561C55.3757 116.601 66.3701 116.921 73.6597 118.252C82.2072 119.811 85.3121 113.841 84.4941 107.643C83.6761 101.444 81.7782 80.8438 81.7782 80.8438C81.7782 80.8438 89.6495 78.9278 89.046 69.8204Z" fill="white"/>
<path d="M85.96 70.2821C85.411 61.9999 76.7108 54.0996 54.7839 53.7542C54.7293 53.7542 54.6748 53.7542 54.6202 53.7542C54.5657 53.7542 54.5112 53.7505 54.4566 53.7505C32.5297 53.576 23.6695 61.1056 22.9242 69.3732C22.1716 77.6807 29.8211 78.7969 29.8211 78.7969C29.8211 78.7969 27.018 99.3314 26.1345 104.974C25.251 110.62 27.956 116.139 35.7946 114.907C42.4843 113.849 52.5297 113.794 53.904 113.791C55.2783 113.823 65.3165 114.121 71.9807 115.336C79.7902 116.757 82.6261 111.304 81.8771 105.639C81.1282 99.9749 78.336 79.375 78.336 79.375C78.336 79.375 86.5127 78.6042 85.96 70.2821Z" fill="#FFB74E"/>
<path d="M36.3496 65.6974C36.3387 66.8536 35.3862 67.7807 34.23 67.7661C33.0739 67.7516 32.1468 66.8027 32.1613 65.6465C32.1722 64.4904 33.1248 63.5633 34.2809 63.5778C35.4371 63.5887 36.3642 64.5413 36.3496 65.6974Z" fill="white"/>
<path d="M33.5329 71.4273C33.522 72.2235 32.8712 72.8562 32.075 72.8489C31.2788 72.838 30.6426 72.1872 30.6535 71.3946C30.6607 70.5984 31.3152 69.9621 32.1077 69.973C32.9076 69.9803 33.5402 70.6311 33.5329 71.4273Z" fill="white"/>
<path d="M44.0576 70.1112C44.0467 70.9037 43.3959 71.5436 42.6033 71.5327C41.8071 71.5254 41.1709 70.871 41.1818 70.0784C41.1927 69.2822 41.8435 68.646 42.6361 68.6569C43.4286 68.6641 44.0649 69.3149 44.0576 70.1112Z" fill="white"/>
<path d="M39.9857 84.0032C38.8295 83.9378 37.9497 82.9452 38.0151 81.7927C38.0806 80.6365 39.0731 79.7531 40.2293 79.8221C41.3855 79.8876 42.2653 80.8801 42.1998 82.0363C42.1308 83.1852 41.1382 84.0687 39.9857 84.0032Z" fill="white"/>
<path d="M35.2193 91.4965C34.4267 91.4492 33.8196 90.7694 33.8668 89.9768C33.9141 89.1842 34.594 88.5807 35.3866 88.6243C36.1791 88.6716 36.7863 89.3514 36.739 90.144C36.6954 90.9366 36.0155 91.5438 35.2193 91.4965Z" fill="white"/>
<path d="M35.9834 102.309C35.9689 103.465 35.02 104.392 33.8638 104.381C32.704 104.367 31.7805 103.418 31.7951 102.262C31.8096 101.106 32.7585 100.178 33.9147 100.193C35.0745 100.2 35.998 101.149 35.9834 102.309Z" fill="white"/>
<path d="M43.6902 106.723C43.6793 107.519 43.0285 108.151 42.2322 108.144C41.436 108.137 40.7998 107.483 40.8107 106.69C40.8216 105.897 41.4724 105.261 42.265 105.268C43.0612 105.276 43.6974 105.926 43.6902 106.723Z" fill="white"/>
<path d="M42.3268 100.287C42.3159 101.08 41.6651 101.716 40.8689 101.709C40.0763 101.698 39.4401 101.047 39.4473 100.255C39.4582 99.4585 40.109 98.8222 40.9016 98.8331C41.6978 98.8404 42.3377 99.4912 42.3268 100.287Z" fill="white"/>
<path d="M55.59 106.206C55.6046 105.05 56.5535 104.123 57.7096 104.134C58.8658 104.149 59.7929 105.098 59.7783 106.254C59.7638 107.41 58.8185 108.337 57.6587 108.322C56.5026 108.315 55.5755 107.363 55.59 106.206Z" fill="white"/>
<path d="M58.4113 100.48C58.4185 99.6841 59.073 99.0478 59.8692 99.0587C60.6654 99.066 61.298 99.7168 61.2908 100.513C61.2798 101.309 60.6291 101.945 59.8365 101.935C59.0366 101.924 58.4004 101.273 58.4113 100.48Z" fill="white"/>
<path d="M47.8859 101.793C47.8968 100.997 48.5476 100.36 49.3438 100.371C50.1364 100.382 50.7763 101.029 50.7654 101.826C50.7544 102.622 50.1037 103.258 49.3074 103.247C48.5112 103.24 47.875 102.589 47.8859 101.793Z" fill="white"/>
<path d="M51.9572 87.9006C53.1133 87.9661 53.9968 88.9586 53.9277 90.1111C53.8623 91.2673 52.8698 92.1471 51.7136 92.0817C50.5575 92.0126 49.674 91.0237 49.743 89.8676C49.8121 88.715 50.801 87.8352 51.9572 87.9006Z" fill="white"/>
<path d="M56.7205 80.4074C57.5131 80.4546 58.1203 81.1345 58.073 81.9271C58.0258 82.7197 57.3459 83.3268 56.5533 83.2796C55.7607 83.2323 55.1536 82.5524 55.2008 81.7598C55.2481 80.9673 55.928 80.3601 56.7205 80.4074Z" fill="white"/>
<path d="M55.9601 69.5984C55.971 68.4423 56.9236 67.5152 58.0797 67.5297C59.2359 67.5443 60.163 68.4932 60.1485 69.6493C60.1339 70.8055 59.185 71.7326 58.0288 71.718C56.8691 71.7035 55.9456 70.7546 55.9601 69.5984Z" fill="white"/>
<path d="M48.2531 65.1811C48.264 64.3886 48.9148 63.7523 49.7074 63.7596C50.5036 63.7705 51.1398 64.4213 51.1289 65.2139C51.118 66.0101 50.4672 66.6463 49.6746 66.6354C48.8784 66.6282 48.2422 65.9774 48.2531 65.1811Z" fill="white"/>
<path d="M49.6124 71.6164C49.6233 70.8202 50.2741 70.1876 51.0703 70.1949C51.8629 70.2058 52.4991 70.8566 52.4918 71.6492C52.4809 72.4418 51.8301 73.0816 51.0339 73.0707C50.2413 73.0635 49.6051 72.4127 49.6124 71.6164Z" fill="white"/>
<path d="M70.402 66.101C70.3875 67.2571 69.4386 68.1842 68.2824 68.1697C67.1226 68.1552 66.1991 67.2062 66.2101 66.0501C66.2246 64.8939 67.1735 63.9668 68.3297 63.9814C69.4895 63.9959 70.4166 64.9448 70.402 66.101Z" fill="white"/>
<path d="M67.5811 71.8309C67.5738 72.6234 66.9194 73.2633 66.1268 73.2524C65.3306 73.2415 64.6943 72.5907 64.7052 71.7945C64.7161 70.9983 65.3669 70.362 66.1595 70.3729C66.9557 70.3838 67.592 71.0346 67.5811 71.8309Z" fill="white"/>
<path d="M78.1062 70.5184C78.0953 71.311 77.4445 71.9472 76.6483 71.9399C75.852 71.929 75.2158 71.2782 75.2267 70.4857C75.234 69.6894 75.8884 69.0532 76.681 69.0641C77.4808 69.0714 78.1171 69.7222 78.1062 70.5184Z" fill="white"/>
<path d="M74.0335 84.4067C72.8774 84.3412 71.9976 83.3487 72.063 82.1961C72.1284 81.04 73.121 80.1602 74.2771 80.2256C75.4333 80.291 76.3131 81.2836 76.2477 82.4397C76.1786 83.5923 75.1897 84.4757 74.0335 84.4067Z" fill="white"/>
<path d="M69.2711 91.9036C68.4785 91.8563 67.8713 91.1765 67.9186 90.3839C67.9659 89.5913 68.6457 88.9841 69.4383 89.0314C70.2346 89.075 70.8381 89.7585 70.7908 90.5511C70.7436 91.3437 70.0637 91.9472 69.2711 91.9036Z" fill="white"/>
<path d="M70.0352 102.713C70.0206 103.869 69.0717 104.796 67.9156 104.781C66.7594 104.767 65.8323 103.818 65.8468 102.662C65.8614 101.506 66.8103 100.578 67.9665 100.593C69.1226 100.607 70.0461 101.556 70.0352 102.713Z" fill="white"/>
<path d="M77.7392 107.13C77.7319 107.923 77.0811 108.559 76.2849 108.552C75.4887 108.541 74.8561 107.89 74.8633 107.097C74.8743 106.301 75.525 105.665 76.3176 105.676C77.1138 105.683 77.7501 106.334 77.7392 107.13Z" fill="white"/>
<path d="M76.3756 100.691C76.3684 101.487 75.7139 102.124 74.9177 102.113C74.1251 102.105 73.4889 101.455 73.4962 100.658C73.5071 99.8622 74.1579 99.2296 74.9541 99.2369C75.7503 99.2478 76.3865 99.8986 76.3756 100.691Z" fill="white"/>
<path d="M80.2296 156.778C74.9069 156.778 70.3125 151.943 70.3125 145.742V37.7556C70.3125 31.5539 74.9069 26.7192 80.2296 26.7192C85.5523 26.7192 90.1466 31.5539 90.1466 37.7556V145.742C90.1466 151.943 85.5523 156.778 80.2296 156.778Z" fill="#FFB74E" stroke="white" stroke-width="3"/>
<path d="M87.5418 104.807C87.5418 104.807 75.3039 106.598 72.916 120.478C72.916 120.478 83.0914 118.687 87.5418 104.807Z" fill="#FCC172"/>
<path d="M72.916 120.478L87.5418 104.807C87.5418 104.807 75.3039 106.598 72.916 120.478Z" fill="#FCAA3D"/>
<path d="M87.5418 63.0195C87.5418 63.0195 75.3039 64.8104 72.916 78.69C72.916 78.69 83.0914 76.8991 87.5418 63.0195Z" fill="#FCC172"/>
<path d="M72.916 78.69L87.5418 63.0195C87.5418 63.0195 75.3039 64.8104 72.916 78.69Z" fill="#FCAA3D"/>
<path d="M87.5418 83.9133C87.5418 83.9133 75.3039 85.7042 72.916 99.5838C72.916 99.5838 83.0914 97.7929 87.5418 83.9133Z" fill="#FCC172"/>
<path d="M72.916 99.5838L87.5418 83.9133C87.5418 83.9133 75.3039 85.7042 72.916 99.5838Z" fill="#FCAA3D"/>
<path d="M87.5418 42.1255C87.5418 42.1255 75.3039 43.9164 72.916 57.796C72.916 57.796 83.0914 56.0051 87.5418 42.1255Z" fill="#FCC172"/>
<path d="M72.916 57.796L87.5418 42.1255C87.5418 42.1255 75.3039 43.9164 72.916 57.796Z" fill="#FCAA3D"/>
</g>
<defs>
<clipPath id="clip0_1881_23736">
<rect x="0.224609" width="111.394" height="111.394" rx="55.6969" fill="white"/>
</clipPath>
</defs>
</svg>
