<svg width="113" height="112" viewBox="0 0 113 112" fill="none" xmlns="http://www.w3.org/2000/svg">
<g clip-path="url(#clip0_1881_23603)">
<rect x="0.960938" width="111.394" height="111.394" rx="55.6969" fill="#F5E6C9"/>
<path d="M93.7794 55.4565H46.4189V120.468H93.7794V55.4565Z" fill="#CA9D8B" stroke="white" stroke-width="2"/>
<path d="M46.4189 83.7019C46.4189 83.7019 52.6833 86.8563 70.3002 86.723C88.988 86.5812 93.7783 83.7019 93.7783 83.7019V120.611L69.1505 124L46.4189 118.196V83.7019Z" fill="#794A37" stroke="white" stroke-width="2"/>
<path d="M46.8754 52.8214C46.8754 52.8214 44.3144 52.4919 44.3154 55.4565C44.3165 57.8751 49.1153 61.7983 70.1579 61.7983C94.0944 61.7983 95.9014 57.7066 95.9025 55.7039C95.9025 53.3152 93.853 53.3706 93.853 53.3706C93.853 53.3706 95.2409 58.7517 70.4397 57.9284C45.7385 57.1073 46.8754 52.8214 46.8754 52.8214Z" fill="#962121"/>
<path d="M45.3828 53.3151C44.7213 57.4879 57.5947 58.6684 71.505 58.6684C86.2906 58.6684 95.8978 56.9686 94.8906 53.8643C93.5016 49.5817 45.9338 49.8429 45.3828 53.3151Z" fill="#794A37"/>
<path d="M47.7059 53.3184C47.1028 55.9321 58.8424 56.6722 71.5265 56.6722C85.0103 56.6722 93.7709 55.6069 92.852 53.6628C91.5853 50.9798 48.2079 51.144 47.7059 53.3184Z" fill="#794A37"/>
<path d="M68.716 53.008C66.1805 51.8862 63.3865 52.3117 60.7074 52.6828C58.7068 52.959 56.7031 53.1968 54.6961 53.3962C54.2579 53.4399 52.5828 53.425 52.419 54.0851C52.2159 54.9051 53.4422 55.0576 53.807 55.0854C55.6629 55.2229 57.5241 55.1781 59.3811 55.1163C60.9818 55.063 62.5814 54.9958 64.181 54.9158C65.7327 54.8379 67.2972 54.7452 68.7979 54.261C68.9947 54.1981 69.2148 54.1 69.2882 53.8675C69.4094 53.4804 69.0329 53.1488 68.716 53.008ZM66.6027 53.5881C66.5804 53.6457 66.5304 53.6798 66.4836 53.7076C65.637 54.2002 62.5218 54.3239 61.9337 54.212C61.7975 54.1864 61.6582 54.1395 61.5593 54.0222C61.4615 53.9049 61.4221 53.699 61.5061 53.5657C61.5497 53.4964 61.6167 53.458 61.6816 53.4228C62.7484 52.8513 63.8438 52.8598 64.9829 52.8406C65.52 52.831 66.1156 52.8481 66.5102 53.2938C66.5793 53.3695 66.6431 53.4858 66.6027 53.5881Z" fill="white" stroke="white" stroke-width="1.21083"/>
<path d="M93.031 52.2668L70.1091 54.4998L47.3105 52.2668V38.2661H93.031V52.2668Z" fill="#64E0CA" stroke="white" stroke-width="1.21083"/>
<path d="M56.7624 45.9987C57.6005 45.9113 58.4471 45.891 59.2862 45.9742C60.9752 46.1406 62.6216 46.7335 64.0308 47.6826C64.6009 47.3722 65.1294 46.9883 65.6017 46.5426C65.7421 47.625 65.7835 48.7212 65.7261 49.8111C65.1497 49.5264 64.6019 49.1851 64.0904 48.7959C63.5203 49.6266 62.6088 50.1758 61.6463 50.4669C60.6838 50.758 59.667 50.8114 58.6619 50.8114C57.4441 50.8114 56.2104 50.7335 55.0565 50.3432C54.162 50.0404 51.7839 48.8972 52.573 47.6794C53.342 46.4914 55.4925 46.131 56.7624 45.9987Z" fill="#794A37"/>
<path d="M69.4691 44.35C70.0807 44.3735 70.6912 44.446 71.2846 44.591C72.4812 44.8843 73.6032 45.4793 74.52 46.3058C74.9614 46.1416 75.3804 45.9198 75.7654 45.6478C75.7559 46.4402 75.674 47.2314 75.5208 48.0099C75.1358 47.7454 74.7763 47.4447 74.4487 47.112C73.9542 47.6505 73.2427 47.9512 72.5216 48.0611C71.8005 48.1709 71.0634 48.1048 70.3413 48.0024C69.467 47.8776 68.5874 47.6942 67.7983 47.2954C67.1867 46.9861 65.5946 45.9208 66.2859 45.1264C66.9602 44.3522 68.5428 44.3148 69.4691 44.35Z" fill="#794A37"/>
<path d="M79.8227 46.6874C80.3895 46.4571 80.9756 46.2715 81.5775 46.1596C82.7889 45.9346 84.0556 46.0145 85.2287 46.392C85.5638 46.0604 85.8552 45.6861 86.0955 45.2798C86.4114 46.006 86.6603 46.7621 86.839 47.5341C86.3806 47.452 85.9286 47.3251 85.4946 47.1566C85.2638 47.8509 84.7384 48.4182 84.1258 48.8159C83.5132 49.2137 82.8144 49.4558 82.1136 49.6595C81.2648 49.9058 80.3885 50.1009 79.5057 50.0615C78.8208 50.0316 76.9329 49.7149 77.2382 48.7061C77.5371 47.7218 78.9644 47.0372 79.8227 46.6874Z" fill="#794A37"/>
<path d="M47.3229 49.8413C47.3229 49.8413 45.6903 50.159 45.584 51.5561C45.4776 52.9533 49.6851 55.7485 70.0161 55.7485C90.3472 55.7485 94.0527 53.0807 94.0527 51.9213C94.0527 50.4851 92.9785 50.1233 92.9785 50.1233C92.9785 50.1233 94.0644 52.7945 70.0895 52.7945C45.5819 52.7953 47.3229 49.8413 47.3229 49.8413Z" fill="white"/>
<path d="M47.6613 35.8306C47.6613 35.8306 45.1864 35.5918 45.1885 37.7448C45.1895 39.5011 49.8256 42.3506 70.1567 42.3506C93.2838 42.3506 95.0291 39.3785 95.0302 37.924C95.0302 36.1889 93.0498 36.2295 93.0498 36.2295C93.0498 36.2295 94.391 40.1378 70.4289 39.5395C46.5626 38.9434 47.6613 35.8306 47.6613 35.8306Z" fill="white"/>
<path d="M46.2209 36.1899C45.5817 39.2206 58.02 40.078 71.4592 40.078C85.745 40.078 95.0267 38.8431 94.0536 36.5888C92.7113 33.4781 46.7527 33.6679 46.2209 36.1899Z" fill="#962121" stroke="white" stroke-width="1.21083"/>
<path d="M48.4649 36.1921C47.8821 38.0903 59.2239 38.6278 71.4793 38.6278C84.5069 38.6278 92.9707 37.8546 92.0837 36.4417C90.8585 34.4934 48.9488 34.6117 48.4649 36.1921Z" fill="#962121"/>
<path opacity="0.2" d="M48.9912 43.1247C49.1901 44.2604 49.273 45.4164 49.2379 46.5681C49.222 47.0778 49.1848 47.595 49.2943 48.0919C49.4049 48.5899 49.6921 49.0783 50.1558 49.2874C50.6195 49.4964 51.2608 49.3258 51.4512 48.8533C51.5289 48.6603 51.5278 48.447 51.5246 48.2391C51.5055 46.7216 51.4863 45.2041 51.4672 43.6856C51.4565 42.8144 51.0854 41.5837 50.0728 41.3886C48.9923 41.1817 48.854 42.3398 48.9912 43.1247Z" fill="white" stroke="white" stroke-width="1.21083"/>
<path d="M66.3193 73.8997C65.3345 69.8751 60.6389 70.2974 59.6721 68.8514C58.9106 67.7114 59.1988 64.8108 59.1988 64.8108L42.6412 62.3848L24.382 64.8108C24.382 64.8108 24.2873 67.576 23.5258 68.717C22.5601 70.163 18.2474 69.8751 17.2625 73.8997C16.5116 76.9688 15.1609 120.917 16.9594 123.681C21.353 130.433 63.7296 130.328 66.6225 123.681C68.0104 120.491 67.0702 76.9688 66.3193 73.8997Z" fill="#B8836F" stroke="white" stroke-width="2"/>
<path d="M58.9579 87.5499C59.1467 86.6857 58.7936 85.7325 58.0461 85.0492C56.976 84.0705 55.2642 83.5985 53.5956 83.5535C52.8379 83.5332 51.8872 83.5043 51.5943 82.9704C51.4732 82.7505 51.5113 82.501 51.4995 82.2625C51.4554 81.3898 50.702 80.6072 49.7513 80.1217C48.8014 79.6361 47.6712 79.4027 46.5537 79.2185C44.9909 78.9605 43.4061 78.7839 41.812 78.6863V78.6719C41.7748 78.6736 41.7384 78.677 41.7011 78.6787C41.6639 78.6761 41.6275 78.6736 41.5902 78.6719V78.6863C39.9969 78.7839 38.4113 78.9605 36.8485 79.2185C35.731 79.4027 34.6008 79.6353 33.6509 80.1217C32.7011 80.6072 31.9468 81.3898 31.9027 82.2625C31.8909 82.501 31.929 82.7497 31.8079 82.9704C31.515 83.5043 30.5643 83.5323 29.8066 83.5535C28.138 83.5985 26.4262 84.0713 25.3561 85.0492C24.6086 85.7333 24.2556 86.6857 24.4443 87.5499H24.3936L27.7824 105.533H41.5902H41.812H55.6198L59.0087 87.5499H58.9579Z" fill="#794A37"/>
<path d="M21.8965 51.8359V64.9504H21.9858C22.9303 65.6681 31.3516 66.229 41.6022 66.229C51.8528 66.229 60.273 65.667 61.2185 64.9504H61.3079V51.8359H21.8965Z" fill="#794A37" stroke="white" stroke-width="2"/>
<path d="M41.6022 53.2596C52.4853 53.2596 61.3079 52.5664 61.3079 51.7112C61.3079 50.8561 52.4853 50.1628 41.6022 50.1628C30.719 50.1628 21.8965 50.8561 21.8965 51.7112C21.8965 52.5664 30.719 53.2596 41.6022 53.2596Z" fill="#160A00" stroke="white" stroke-width="1.21083"/>
</g>
<defs>
<clipPath id="clip0_1881_23603">
<rect x="0.960938" width="111.394" height="111.394" rx="55.6969" fill="white"/>
</clipPath>
</defs>
</svg>
