<svg width="112" height="112" viewBox="0 0 112 112" fill="none" xmlns="http://www.w3.org/2000/svg">
<g clip-path="url(#clip0_1881_23559)">
<rect x="0.480469" width="111.394" height="111.394" rx="55.6969" fill="#F7DBEF"/>
<path d="M73.4412 41.7535H74.4412V40.7535V40.7441C74.4412 40.5307 74.4412 40.3021 74.4298 40.0593C74.4185 35.8975 74.4071 31.7455 74.3845 27.5932C74.3845 27.5169 74.3845 26.904 74.3831 26.306C74.3824 26.0032 74.3813 25.7027 74.3797 25.4773C74.3789 25.3651 74.378 25.2686 74.3768 25.1989C74.3762 25.1651 74.3755 25.1319 74.3745 25.1047C74.3741 25.0931 74.3733 25.0709 74.3715 25.0466L74.3714 25.0462C74.3708 25.0375 74.3684 25.0054 74.3625 24.9662L74.3623 24.9654C74.3602 24.9509 74.3514 24.8932 74.3299 24.8226C74.3212 24.7941 74.2918 24.6992 74.2259 24.5917C74.2256 24.5911 74.2252 24.5905 74.2247 24.5897C74.1952 24.5412 73.9396 24.1219 73.3886 24.1142L66.0836 23.967L65.0635 23.9464V24.9668V24.9919V25.017V25.0421V25.0672V25.0923V25.1174V25.1425V25.1676V25.1927V25.2178V25.2429V25.268V25.2931V25.3182V25.3433V25.3684V25.3935V25.4186V25.4437V25.4688V25.4939V25.519V25.5441V25.5692V25.5943V25.6194V25.6445V25.6696V25.6947V25.7198V25.7449V25.77V25.7951V25.8202V25.8453V25.8704V25.8955V25.9206V25.9457V25.9708V25.9959V26.021V26.0461V26.0712V26.0963V26.1214V26.1465V26.1716V26.1967V26.2218V26.2469V26.272V26.2971V26.3222V26.3473V26.3724V26.3975V26.4226V26.4477V26.4728V26.4979V26.523V26.5481V26.5732V26.5983V26.6234V26.6485V26.6736V26.6987V26.7238V26.7489V26.774V26.7991V26.8242V26.8493V26.8744V26.8995V26.9246V26.9497V26.9748V26.9999V27.025V27.0501V27.0752V27.1003V27.1254V27.1505V27.1756V27.2007V27.2258V27.2509V27.276V27.3011V27.3262V27.3513V27.3765V27.4016V27.4267V27.4518V27.4769V27.502V27.5271V27.5522V27.5773V27.6024V27.6275V27.6526V27.6777V27.7028V27.7279V27.753V27.7781V27.8032V27.8283V27.8534V27.8785V27.9036V27.9287V27.9538V27.9789V28.004V28.0291V28.0542V28.0793V28.1044V28.1295V28.1546V28.1797V28.2048V28.2299V28.255V28.2801V28.3052V28.3303V28.3554V28.3805V28.4056V28.4307V28.4558V28.4809V28.506V28.5311V28.5562V28.5813V28.6064V28.6315V28.6566V28.6817V28.7068V28.7319V28.757V28.7821V28.8072V28.8323V28.8574V28.8825V28.9076V28.9327V28.9578V28.9829V29.008V29.0331V29.0582V29.0833V29.1084V29.1335V29.1586V29.1837V29.2088V29.2339V29.259V29.2841V29.3092V29.3343V29.3594V29.3845V29.4096V29.4347V29.4598V29.4849V29.51V29.5351V29.5602V29.5853V29.6104V29.6355V29.6606V29.6857V29.7108V29.7359V29.761V29.7861V29.8112V29.8363V29.8614V29.8865V29.9116V29.9367V29.9618V29.9869V30.012V30.0371V30.0622V30.0873V30.1124V30.1375V30.1626V30.1877V30.2128V30.2379V30.263V30.2881V30.3132V30.3383V30.3634V30.3885V30.4136V30.4387V30.4638V30.4889V30.514V30.5391V30.5642V30.5893V30.6144V30.6395V30.6646V30.6897V30.7148V30.7399V30.765V30.7901V30.8152V30.8403V30.8654V30.8905V30.9156V30.9407V30.9658V30.9909V31.016V31.0411V31.0662V31.0913V31.1164V31.1415V31.1666V31.1917V31.2168V31.2419V31.267V31.2921V31.3172V31.3423V31.3674V31.3925V31.4176V31.4427V31.4678V31.4929V31.518V31.5431V31.5682V31.5933V31.6184V31.6435V31.6686V31.6937V31.7188V31.7439V31.769V31.7941V31.8192V31.8443V31.8694V31.8945V31.9196V31.9448V31.9699V31.995V32.0201V32.0452V32.0703V32.0954V32.1205V32.1456V32.1707V32.1958V32.2209V32.246V32.2711V32.2962V32.3213V32.3464V32.3715V32.3966V32.4217V32.4468V32.4719V32.497V32.5221V32.5472V32.5723V32.5974V32.6225V32.6476V32.6727V32.6978V32.7229V32.748V32.7731V32.7982V32.8233V32.8484V32.8735V32.8986V32.9237V32.9488V32.9739V32.999V33.0241V33.0492V33.0743V33.0994V33.1245V33.1496V33.1747V33.1998V33.2249V33.25V33.2751V33.3002V33.3253V33.3504V33.3755V33.4006V33.4257V33.4508V33.4759V33.501V33.5261V33.5512V33.5763V33.6014V33.6265V33.6516V33.6767V33.7018V33.7269V33.752V33.7771V33.8022V33.8273V33.8524V33.8775V33.9026V33.9277V33.9528V33.9779V34.003V34.0281V34.0532V34.0783V34.1034V34.1285V34.1536V34.1787V34.2038V34.2289V34.254V34.2791V34.3042V34.3293V34.3544V34.3795V34.4046V34.4297V34.4548V34.4799V34.505V34.5301V34.5552V34.5803V34.6054V34.6305V34.6556V34.6807V34.7058V34.7309V34.756V34.7811V34.8062V34.8313V34.8564V34.8815V34.9066V34.9317V34.9568V34.9819V35.007V35.0321V35.0572V35.0823V35.1074V35.1325V35.1576V35.1827V35.2078V35.2329V35.258V35.2831V35.3082V35.3333V35.3584V35.3835V35.4086V35.4337V35.4588V35.4839V35.509V35.5341V35.5592V35.5843V35.6094V35.6345V35.6596V35.6847V35.7098V35.7349V35.76V35.7851V35.8102V35.8353V35.8604V35.8855V35.9106V35.9357V35.9608V35.9859V36.011V36.0361V36.0612V36.0863V36.1114V36.1365V36.1616V36.1867V36.2118V36.2369V36.262V36.2871V36.3122V36.3373V36.3624V36.3875V36.4126V36.4377V36.4628V36.4879V36.5131V36.5382V36.5633V36.5884V36.6135V36.6386V36.6637V36.6888V36.7139V36.739V36.7641V36.7892V36.8143V36.8394V36.8645V36.8896V36.9147V36.9398V36.9649V36.99V37.0151V37.0402V37.0653V37.0904V37.1155V37.1406V37.1657V37.1908V37.2159V37.241V37.2661V37.2912V37.3163V37.3414V37.3665V37.3916V37.4167V37.4418V37.4669V37.492V37.5171V37.5422V37.5673V37.5924V37.6175V37.6426V37.6677V37.6928V37.7179V37.743V37.7681V37.7932V37.8183C65.0635 38.3029 65.0691 38.7923 65.0747 39.2776L65.0749 39.2889C65.0806 39.78 65.0861 40.2672 65.0861 40.7535V41.7535H66.0861H73.4412Z" fill="#2C4D7F" stroke="white" stroke-width="2"/>
<path d="M85.5785 137.245H86.8285V135.995V66.0484C86.8285 61.629 85.4038 57.2724 82.8662 54.1435L82.8662 54.1435L82.8615 54.1377C82.1333 53.2506 81.3134 52.6077 80.5249 52.0581L80.5237 52.0573C80.1685 51.8103 79.8305 51.5878 79.5092 51.3763C78.3667 50.6242 77.4356 50.0113 76.6923 48.9302L76.6893 48.9259C75.2666 46.8752 74.769 43.7935 74.7021 40.7262L74.6754 39.5034H73.4524H66.0973H64.8473V40.7534C64.8473 42.8331 64.741 44.7507 64.1557 46.4561L64.1556 46.4565C63.3223 48.8869 61.5163 50.7019 59.6246 51.9039L59.5779 51.9335L59.5341 51.9671C55.5145 55.0505 53.0498 60.6 53.0498 66.785V135.995V137.245H54.2998H85.5785Z" fill="#E381C8" stroke="white" stroke-width="2.5"/>
<path d="M82.6204 69.1196H57.6768V117.273H82.6204V69.1196Z" fill="white"/>
<path d="M79.4369 72.7349H60.8623V113.658H79.4369V72.7349Z" fill="#2C4D7F"/>
<path d="M70.8235 86.2777C70.9368 86.6177 70.2568 87.1617 70.3135 87.479C70.3815 87.8417 71.2201 88.1136 71.2201 88.431C71.2201 88.8163 70.3815 89.0316 70.2795 89.3149C70.1435 89.7002 70.4495 90.4822 70.1435 90.5842C69.8489 90.6862 69.5882 89.8929 69.2482 89.6776C68.9989 89.5189 68.2056 89.8702 67.9676 89.5756C67.7636 89.3263 68.2509 88.5896 68.0809 88.2723C67.9223 87.9776 67.0496 87.989 66.925 87.649C66.8116 87.309 67.4916 86.765 67.435 86.4477C67.367 86.0851 66.5283 85.8131 66.5283 85.4957C66.5283 85.1104 67.367 84.8951 67.469 84.6118C67.6049 84.2265 67.3103 83.4445 67.6049 83.3425C67.8996 83.2405 68.1603 84.0338 68.5002 84.2491C68.7496 84.4078 69.5429 84.0565 69.7809 84.3511C69.9848 84.6004 69.4975 85.3371 69.6675 85.6544C69.8262 85.949 70.7102 85.9377 70.8235 86.2777Z" fill="#F4D75F"/>
<path d="M73.7246 89.2808C73.5093 89.4622 72.9313 89.0995 72.7046 89.2355C72.4553 89.3828 72.4893 90.0628 72.2513 90.1535C71.968 90.2555 71.5827 89.7002 71.356 89.7002C71.0387 89.7002 70.5514 90.1308 70.3927 89.9495C70.2341 89.7568 70.7441 89.3602 70.8121 89.0429C70.8574 88.8162 70.3927 88.3402 70.5401 88.0796C70.6647 87.8642 71.3334 88.0229 71.526 87.8076C71.696 87.6149 71.458 86.9803 71.6734 86.7989C71.8887 86.6176 72.4667 86.9803 72.6933 86.8443C72.9426 86.697 72.9086 86.017 73.1466 85.9263C73.4299 85.8243 73.8153 86.3796 74.0419 86.3796C74.3593 86.3683 74.8466 85.949 75.0052 86.1303C75.1639 86.323 74.6539 86.7196 74.5859 87.0369C74.5406 87.2636 75.0052 87.7396 74.8579 88.0002C74.7332 88.2156 74.0646 88.0569 73.8719 88.2722C73.7019 88.4649 73.9399 89.0995 73.7246 89.2808Z" fill="#F4D75F"/>
<path d="M66.2791 94.2107C67.5183 94.2107 68.523 93.2061 68.523 91.9668C68.523 90.7275 67.5183 89.7229 66.2791 89.7229C65.0398 89.7229 64.0352 90.7275 64.0352 91.9668C64.0352 93.2061 65.0398 94.2107 66.2791 94.2107Z" fill="#E381C8"/>
<path d="M66.2793 94.3467C64.9647 94.3467 63.8994 93.2814 63.8994 91.9668C63.8994 90.6522 64.9647 89.5869 66.2793 89.5869C67.5939 89.5869 68.6592 90.6522 68.6592 91.9668C68.6592 93.2814 67.5939 94.3467 66.2793 94.3467ZM66.2793 89.8476C65.112 89.8476 64.1714 90.7995 64.1714 91.9555C64.1714 93.1228 65.1234 94.0634 66.2793 94.0634C67.4466 94.0634 68.3872 93.1114 68.3872 91.9555C68.3872 90.7995 67.4466 89.8476 66.2793 89.8476Z" fill="#2C4D7F"/>
<path d="M72.6138 91.9668C72.6138 93.2134 71.6052 94.2107 70.3699 94.2107C69.1233 94.2107 68.126 93.2021 68.126 91.9668C68.126 90.7202 69.1346 89.7229 70.3699 89.7229C71.6052 89.7229 72.6138 90.7202 72.6138 91.9668Z" fill="#E381C8"/>
<path d="M70.3701 94.3467C69.0555 94.3467 67.9902 93.2814 67.9902 91.9668C67.9902 90.6522 69.0555 89.5869 70.3701 89.5869C71.6847 89.5869 72.75 90.6522 72.75 91.9668C72.75 93.2814 71.6847 94.3467 70.3701 94.3467ZM70.3701 89.8476C69.2028 89.8476 68.2622 90.7995 68.2622 91.9555C68.2622 93.1228 69.2142 94.0634 70.3701 94.0634C71.5374 94.0634 72.478 93.1114 72.478 91.9555C72.478 90.7995 71.5261 89.8476 70.3701 89.8476Z" fill="#2C4D7F"/>
<path d="M74.574 94.2107C75.8133 94.2107 76.8179 93.2061 76.8179 91.9668C76.8179 90.7275 75.8133 89.7229 74.574 89.7229C73.3347 89.7229 72.3301 90.7275 72.3301 91.9668C72.3301 93.2061 73.3347 94.2107 74.574 94.2107Z" fill="#E381C8"/>
<path d="M74.5742 94.3467C73.2596 94.3467 72.1943 93.2814 72.1943 91.9668C72.1943 90.6522 73.2596 89.5869 74.5742 89.5869C75.8889 89.5869 76.9541 90.6522 76.9541 91.9668C76.9541 93.2814 75.8889 94.3467 74.5742 94.3467ZM74.5742 89.8476C73.407 89.8476 72.4663 90.7995 72.4663 91.9555C72.4663 93.1228 73.4183 94.0634 74.5742 94.0634C75.7415 94.0634 76.6822 93.1114 76.6822 91.9555C76.6822 90.7995 75.7415 89.8476 74.5742 89.8476Z" fill="#2C4D7F"/>
<path d="M68.3298 97.2368C69.5691 97.2368 70.5738 96.2322 70.5738 94.9929C70.5738 93.7537 69.5691 92.749 68.3298 92.749C67.0906 92.749 66.0859 93.7537 66.0859 94.9929C66.0859 96.2322 67.0906 97.2368 68.3298 97.2368Z" fill="#E381C8"/>
<path d="M68.3301 97.3841C67.0155 97.3841 65.9502 96.3188 65.9502 95.0041C65.9502 93.6895 67.0155 92.6243 68.3301 92.6243C69.6447 92.6243 70.71 93.6895 70.71 95.0041C70.71 96.3074 69.6447 97.3841 68.3301 97.3841ZM68.3301 92.8849C67.1628 92.8849 66.2222 93.8369 66.2222 94.9928C66.2222 96.1601 67.1741 97.1007 68.3301 97.1007C69.4974 97.1007 70.438 96.1488 70.438 94.9928C70.438 93.8369 69.4974 92.8849 68.3301 92.8849Z" fill="#2C4D7F"/>
<path d="M72.5359 97.2368C73.7752 97.2368 74.7798 96.2322 74.7798 94.9929C74.7798 93.7537 73.7752 92.749 72.5359 92.749C71.2966 92.749 70.292 93.7537 70.292 94.9929C70.292 96.2322 71.2966 97.2368 72.5359 97.2368Z" fill="#E381C8"/>
<path d="M72.5352 97.3841C71.2206 97.3841 70.1553 96.3188 70.1553 95.0041C70.1553 93.6895 71.2206 92.6243 72.5352 92.6243C73.8498 92.6243 74.9151 93.6895 74.9151 95.0041C74.9151 96.3074 73.8498 97.3841 72.5352 97.3841ZM72.5352 92.8849C71.3679 92.8849 70.4273 93.8369 70.4273 94.9928C70.4273 96.1601 71.3792 97.1007 72.5352 97.1007C73.7025 97.1007 74.6431 96.1488 74.6431 94.9928C74.6431 93.8369 73.7025 92.8849 72.5352 92.8849Z" fill="#2C4D7F"/>
<path d="M70.6092 100.251C71.8484 100.251 72.8531 99.2466 72.8531 98.0074C72.8531 96.7681 71.8484 95.7634 70.6092 95.7634C69.3699 95.7634 68.3652 96.7681 68.3652 98.0074C68.3652 99.2466 69.3699 100.251 70.6092 100.251Z" fill="#E381C8"/>
<path d="M70.6084 100.387C69.2938 100.387 68.2285 99.322 68.2285 98.0074C68.2285 96.6927 69.2938 95.6274 70.6084 95.6274C71.923 95.6274 72.9883 96.6927 72.9883 98.0074C72.9883 99.322 71.923 100.387 70.6084 100.387ZM70.6084 95.8994C69.4411 95.8994 68.5005 96.8514 68.5005 98.0074C68.5005 99.1746 69.4525 100.115 70.6084 100.115C71.7757 100.115 72.7163 99.1633 72.7163 98.0074C72.7163 96.8401 71.7757 95.8994 70.6084 95.8994Z" fill="#2C4D7F"/>
<path d="M52.5479 60.79H36.5459V56.0755C36.5459 54.3983 37.8379 53.0383 39.4018 53.0383H49.6807C51.256 53.0383 52.5366 54.4096 52.5366 56.0755V60.62C52.5479 60.6767 52.5479 60.7334 52.5479 60.79Z" fill="white"/>
<path d="M62.1804 86.3228V132.822C62.1804 134.488 60.8885 135.859 59.3245 135.859H29.7797C28.2044 135.859 26.9238 134.488 26.9238 132.822V87.2748C26.9238 82.2657 28.7484 77.6985 31.729 74.2647C34.0409 71.6128 35.5708 68.3262 36.2168 64.8244C36.2225 64.8017 36.2253 64.7819 36.2281 64.762C36.231 64.7422 36.2338 64.7224 36.2395 64.6997H52.9668C52.9724 64.7224 52.9753 64.7422 52.9781 64.762C52.981 64.7819 52.9838 64.8017 52.9895 64.8244C53.7148 68.2016 55.3127 71.3294 57.5679 73.9133C60.4238 77.1772 62.1804 81.5404 62.1804 86.3228Z" fill="#962121"/>
<path d="M62.1804 86.3228V132.822C62.1804 134.488 60.8885 135.859 59.3245 135.859H29.7797C28.2044 135.859 26.9238 134.488 26.9238 132.822V87.2748C26.9238 82.2657 28.7484 77.6985 31.729 74.2647C34.0409 71.6128 35.5708 68.3262 36.2168 64.8244C36.2225 64.8017 36.2253 64.7819 36.2281 64.762C36.231 64.7422 36.2338 64.7224 36.2395 64.6997H52.9668C52.9724 64.7224 52.9753 64.7422 52.9781 64.762C52.981 64.7819 52.9838 64.8017 52.9895 64.8244C53.7148 68.2016 55.3127 71.3294 57.5679 73.9133C60.4238 77.1772 62.1804 81.5404 62.1804 86.3228Z" stroke="white"/>
<path d="M35.6035 64.5586L35.6244 64.4544L35.7048 64.0525H36.1147H53.08H53.4937L53.5712 64.4589L53.6154 64.6913C54.3118 67.9364 55.8471 70.974 58.0462 73.4936C61.12 76.9986 62.8049 81.5589 62.8049 86.3116V132.809C62.8169 134.816 61.2698 136.495 59.3131 136.495H29.7796C27.8218 136.495 26.2764 134.815 26.2764 132.81V87.2636C26.2764 82.2952 28.0408 77.5205 31.2377 73.8353M35.6035 64.5586L35.8526 64.8133C35.2181 68.2762 33.6988 71.4599 31.4617 74.0293L31.2378 73.8351C31.2378 73.8352 31.2377 73.8353 31.2377 73.8353M35.6035 64.5586C35.5937 64.6008 35.5887 64.6364 35.5861 64.6544L35.5857 64.6574C35.5845 64.6659 35.5838 64.6704 35.5835 64.6723L35.5804 64.6845L35.5776 64.7001C34.9472 68.1282 33.444 71.2869 31.2377 73.8353M35.6035 64.5586L62.533 132.822C62.533 134.665 61.1148 136.223 59.3131 136.223H29.7796C27.9778 136.223 26.5597 134.665 26.5597 132.822V132.81V87.2749C26.5597 87.2711 26.5597 87.2674 26.5597 87.2636C26.5624 82.3679 28.2922 77.6649 31.4539 74.0382C31.4565 74.0353 31.459 74.0324 31.4615 74.0295L31.2375 73.8355C31.2376 73.8354 31.2376 73.8354 31.2377 73.8353M32.2077 74.6953C34.494 72.0728 36.065 68.8488 36.7684 65.3472H52.4507C53.2301 68.6641 54.832 71.763 57.0894 74.3446L57.0896 74.3448C59.9543 77.6172 61.533 81.8738 61.533 86.3229V132.822C61.533 134.174 60.5032 135.223 59.3131 135.223H29.7796C28.5894 135.223 27.5597 134.174 27.5597 132.822V87.2749C27.5597 82.6097 29.2068 78.1376 32.2077 74.6953Z" fill="white" stroke="white"/>
<path d="M53.1257 65.8244H54.3828L54.1001 64.5995L54.0681 64.4608C53.8122 63.2529 53.6834 62.0208 53.6724 60.7856V60.6653V59.6653H52.6724H36.4097H35.4097V60.6653V61.1186C35.4097 62.2632 35.3125 63.3955 35.1186 64.5049L35.1169 64.515L35.1153 64.5251L35.0927 64.6724L34.9155 65.8244H36.0811H53.1257ZM37.5169 63.5751C37.58 63.0284 37.6227 62.4779 37.6438 61.9259H51.4691C51.5024 62.4784 51.5587 63.0288 51.6359 63.5751H37.5169Z" fill="#E381C8" stroke="white" stroke-width="2"/>
<path d="M34.5703 61.912V62.6927L35.3278 62.8821C35.5049 62.9264 35.6874 62.924 35.7323 62.9234C35.7359 62.9233 35.7386 62.9233 35.7403 62.9233C36.0457 62.9233 36.3137 62.8639 36.5544 62.7556C36.7641 62.6612 36.926 62.5393 37.0071 62.4782C37.0118 62.4747 37.0162 62.4714 37.0203 62.4683C37.0593 62.4391 37.0824 62.4225 37.0954 62.4134C37.0969 62.4134 37.0985 62.4133 37.1002 62.4133C37.102 62.4133 37.1036 62.4134 37.1051 62.4134C37.1181 62.4225 37.1412 62.4391 37.1802 62.4683C37.1843 62.4714 37.1887 62.4747 37.1934 62.4782C37.2745 62.5393 37.4364 62.6612 37.6461 62.7556C37.8868 62.8639 38.1548 62.9233 38.4602 62.9233C38.7654 62.9233 39.0337 62.8639 39.2747 62.7553C39.4862 62.66 39.6484 62.5369 39.7299 62.4751C39.7341 62.4719 39.7381 62.4688 39.742 62.4659C39.7772 62.4393 39.7994 62.423 39.813 62.4134C39.8132 62.4134 39.8134 62.4134 39.8136 62.4134C39.8267 62.4225 39.8498 62.4391 39.8888 62.4683C39.8929 62.4714 39.8973 62.4747 39.9019 62.4782C39.9831 62.5393 40.145 62.6612 40.3547 62.7556C40.5954 62.8639 40.8634 62.9233 41.1688 62.9233C41.4741 62.9233 41.7421 62.8639 41.9828 62.7556C42.1925 62.6612 42.3544 62.5393 42.4356 62.4782C42.4402 62.4747 42.4446 62.4714 42.4487 62.4683C42.4877 62.4391 42.5108 62.4225 42.5239 62.4134C42.5254 62.4134 42.527 62.4133 42.5287 62.4133C42.5301 62.4133 42.5315 62.4134 42.5328 62.4134C42.5457 62.4225 42.5678 62.4385 42.6041 62.4659C42.6084 62.4692 42.6131 62.4727 42.618 62.4765C42.6974 62.5368 42.8579 62.6588 43.0646 62.7532C43.3045 62.8628 43.5722 62.9233 43.8773 62.9233C44.1825 62.9233 44.4508 62.8639 44.6918 62.7553C44.9033 62.66 45.0655 62.5369 45.147 62.4751C45.1512 62.4719 45.1553 62.4688 45.1591 62.4659C45.1943 62.4393 45.2166 62.423 45.2301 62.4134C45.2303 62.4134 45.2305 62.4134 45.2307 62.4134C45.2438 62.4225 45.2669 62.4391 45.3059 62.4683C45.31 62.4714 45.3144 62.4747 45.319 62.4782C45.4002 62.5393 45.5621 62.6612 45.7718 62.7556C46.0125 62.8639 46.2805 62.9233 46.5859 62.9233C46.8911 62.9233 47.1594 62.8639 47.4004 62.7553C47.6118 62.66 47.7741 62.5369 47.8555 62.4751C47.8598 62.4719 47.8638 62.4688 47.8676 62.4659C47.9028 62.4393 47.9251 62.4231 47.9386 62.4134C47.9515 62.4225 47.9736 62.4385 48.0098 62.4659C48.0142 62.4692 48.0188 62.4727 48.0238 62.4765C48.1032 62.5368 48.2637 62.6588 48.4704 62.7532C48.7103 62.8628 48.978 62.9233 49.2831 62.9233C49.5883 62.9233 49.8566 62.8639 50.0976 62.7553C50.3091 62.66 50.4713 62.5369 50.5528 62.4751C50.557 62.4719 50.561 62.4688 50.5648 62.4659C50.5983 62.4406 50.6201 62.4247 50.6338 62.4149C50.6477 62.4245 50.6714 62.4415 50.7106 62.4707C50.7145 62.4736 50.7186 62.4766 50.7228 62.4798C50.8055 62.5415 50.9681 62.6628 51.1788 62.7568C51.4188 62.8639 51.6864 62.9233 51.9917 62.9233C52.2969 62.9233 52.5651 62.8639 52.8061 62.7553C53.0176 62.66 53.1798 62.5369 53.2613 62.4751C53.2656 62.4719 53.2696 62.4688 53.2734 62.4659C53.3081 62.4397 53.3302 62.4235 53.3438 62.4138L54.5103 62.7054V61.4247V60.2801V59.4981V55.9087C54.5239 53.6745 52.5239 52.0383 50.3144 52.0383H38.7775C36.5617 52.0383 34.5703 53.6791 34.5703 55.9169V59.9854V60.2914V61.912Z" fill="#DB4E12" stroke="white" stroke-width="2"/>
</g>
<defs>
<clipPath id="clip0_1881_23559">
<rect x="0.480469" width="111.394" height="111.394" rx="55.6969" fill="white"/>
</clipPath>
</defs>
</svg>
