<svg width="1512" height="143" viewBox="0 0 1512 143" fill="none" xmlns="http://www.w3.org/2000/svg">
<path opacity="0.1" d="M-1523.36 3.29101C-1504.56 3.29101 -1488.87 9.83971 -1476.29 22.9371C-1463.58 35.9048 -1457.23 52.0497 -1457.23 71.3716C-1457.23 90.6935 -1463.58 106.903 -1476.29 120.001C-1488.87 132.968 -1504.56 139.452 -1523.36 139.452H-1579.77V3.29101H-1523.36ZM-1523.36 101.716C-1515.45 101.716 -1508.97 98.928 -1503.91 93.3519C-1498.73 87.6461 -1496.13 80.3193 -1496.13 71.3716C-1496.13 62.4238 -1498.73 55.1619 -1503.91 49.5858C-1508.97 43.88 -1515.45 41.0271 -1523.36 41.0271H-1538.93V101.716H-1523.36ZM-1372.41 139.258L-1394 96.4641H-1403.72V139.258H-1442.63V3.0965H-1388.16C-1373.25 3.0965 -1360.93 7.50552 -1351.2 16.3236C-1341.48 25.012 -1336.61 36.5532 -1336.61 50.9474C-1336.61 58.9874 -1338.49 66.2493 -1342.26 72.7332C-1345.89 79.2171 -1351.01 84.469 -1357.62 88.489L-1330.78 139.258H-1372.41ZM-1403.72 38.8874V64.1745H-1388.94C-1384.79 64.3042 -1381.55 63.2668 -1379.21 61.0622C-1376.75 58.8577 -1375.52 55.7455 -1375.52 51.7255C-1375.52 47.7055 -1376.75 44.5932 -1379.21 42.3887C-1381.55 40.0545 -1384.79 38.8874 -1388.94 38.8874H-1403.72ZM-1204.49 122.14C-1218.37 135.756 -1235.42 142.564 -1255.65 142.564C-1275.88 142.564 -1293 135.756 -1307 122.14C-1320.88 108.394 -1327.82 91.4716 -1327.82 71.3716C-1327.82 51.2716 -1320.88 34.4136 -1307 20.7974C-1293 7.05166 -1275.88 0.17876 -1255.65 0.17876C-1235.42 0.17876 -1218.37 7.05166 -1204.49 20.7974C-1190.49 34.4136 -1183.48 51.2716 -1183.48 71.3716C-1183.48 91.4716 -1190.49 108.394 -1204.49 122.14ZM-1279.58 95.1025C-1273.22 101.327 -1265.25 104.439 -1255.65 104.439C-1246.05 104.439 -1238.14 101.327 -1231.92 95.1025C-1225.56 88.7483 -1222.39 80.838 -1222.39 71.3716C-1222.39 61.9051 -1225.56 54.0597 -1231.92 47.8352C-1238.14 41.481 -1246.05 38.3039 -1255.65 38.3039C-1265.25 38.3039 -1273.22 41.481 -1279.58 47.8352C-1285.8 54.0597 -1288.91 61.9051 -1288.91 71.3716C-1288.91 80.838 -1285.8 88.7483 -1279.58 95.1025ZM-1114.43 3.29101C-1100.3 3.29101 -1088.5 7.76488 -1079.03 16.7126C-1069.56 25.5307 -1064.83 37.3313 -1064.83 52.1145C-1064.83 66.8977 -1069.56 78.7632 -1079.03 87.7109C-1088.5 96.529 -1100.3 100.938 -1114.43 100.938H-1129.99V139.452H-1168.9V3.29101H-1114.43ZM-1114.43 63.2019C-1111.45 63.2019 -1108.92 62.2293 -1106.85 60.2842C-1104.77 58.2093 -1103.73 55.4861 -1103.73 52.1145C-1103.73 48.7429 -1104.77 46.0845 -1106.85 44.1394C-1108.92 42.0645 -1111.45 41.0271 -1114.43 41.0271H-1129.99V63.2019H-1114.43ZM-998.749 3.29101C-984.614 3.29101 -972.814 7.76488 -963.347 16.7126C-953.881 25.5307 -949.148 37.3313 -949.148 52.1145C-949.148 66.8977 -953.881 78.7632 -963.347 87.7109C-972.814 96.529 -984.614 100.938 -998.749 100.938H-1014.31V139.452H-1053.21V3.29101H-998.749ZM-998.749 63.2019C-995.767 63.2019 -993.238 62.2293 -991.163 60.2842C-989.088 58.2093 -988.051 55.4861 -988.051 52.1145C-988.051 48.7429 -989.088 46.0845 -991.163 44.1394C-993.238 42.0645 -995.767 41.0271 -998.749 41.0271H-1014.31V63.2019H-998.749ZM-921.698 135.951C-925.977 140.23 -931.229 142.37 -937.454 142.37C-943.678 142.37 -948.995 140.23 -953.404 135.951C-957.683 131.542 -959.823 126.225 -959.823 120.001C-959.823 113.776 -957.683 108.524 -953.404 104.245C-948.995 99.8357 -943.678 97.6312 -937.454 97.6312C-931.229 97.6312 -925.977 99.8357 -921.698 104.245C-917.289 108.524 -915.085 113.776 -915.085 120.001C-915.085 126.225 -917.289 131.542 -921.698 135.951ZM-803.238 3.29101C-784.435 3.29101 -768.744 9.83971 -756.165 22.9371C-743.457 35.9048 -737.102 52.0497 -737.102 71.3716C-737.102 90.6935 -743.457 106.903 -756.165 120.001C-768.744 132.968 -784.435 139.452 -803.238 139.452H-859.647V3.29101H-803.238ZM-803.238 101.716C-795.328 101.716 -788.844 98.928 -783.786 93.3519C-778.599 87.6461 -776.006 80.3193 -776.006 71.3716C-776.006 62.4238 -778.599 55.1619 -783.786 49.5858C-788.844 43.88 -795.328 41.0271 -803.238 41.0271H-818.799V101.716H-803.238ZM-652.278 139.258L-673.87 96.4641H-683.595V139.258H-722.499V3.0965H-668.034C-653.121 3.0965 -640.802 7.50552 -631.076 16.3236C-621.35 25.012 -616.487 36.5532 -616.487 50.9474C-616.487 58.9874 -618.368 66.2493 -622.128 72.7332C-625.759 79.2171 -630.882 84.469 -637.495 88.489L-610.652 139.258H-652.278ZM-683.595 38.8874V64.1745H-668.812C-664.663 64.3042 -661.421 63.2668 -659.086 61.0622C-656.623 58.8577 -655.391 55.7455 -655.391 51.7255C-655.391 47.7055 -656.623 44.5932 -659.086 42.3887C-661.421 40.0545 -664.663 38.8874 -668.812 38.8874H-683.595ZM-484.366 122.14C-498.241 135.756 -515.294 142.564 -535.523 142.564C-555.753 142.564 -572.87 135.756 -586.875 122.14C-600.751 108.394 -607.689 91.4716 -607.689 71.3716C-607.689 51.2716 -600.751 34.4136 -586.875 20.7974C-572.87 7.05166 -555.753 0.17876 -535.523 0.17876C-515.294 0.17876 -498.241 7.05166 -484.366 20.7974C-470.36 34.4136 -463.358 51.2716 -463.358 71.3716C-463.358 91.4716 -470.36 108.394 -484.366 122.14ZM-559.449 95.1025C-553.094 101.327 -545.119 104.439 -535.523 104.439C-525.927 104.439 -518.017 101.327 -511.792 95.1025C-505.438 88.7483 -502.261 80.838 -502.261 71.3716C-502.261 61.9051 -505.438 54.0597 -511.792 47.8352C-518.017 41.481 -525.927 38.3039 -535.523 38.3039C-545.119 38.3039 -553.094 41.481 -559.449 47.8352C-565.673 54.0597 -568.785 61.9051 -568.785 71.3716C-568.785 80.838 -565.673 88.7483 -559.449 95.1025ZM-394.306 3.29101C-380.171 3.29101 -368.371 7.76488 -358.904 16.7126C-349.438 25.5307 -344.705 37.3313 -344.705 52.1145C-344.705 66.8977 -349.438 78.7632 -358.904 87.7109C-368.371 96.529 -380.171 100.938 -394.306 100.938H-409.867V139.452H-448.771V3.29101H-394.306ZM-394.306 63.2019C-391.324 63.2019 -388.795 62.2293 -386.72 60.2842C-384.645 58.2093 -383.608 55.4861 -383.608 52.1145C-383.608 48.7429 -384.645 46.0845 -386.72 44.1394C-388.795 42.0645 -391.324 41.0271 -394.306 41.0271H-409.867V63.2019H-394.306ZM-278.622 3.29101C-264.488 3.29101 -252.687 7.76488 -243.22 16.7126C-233.754 25.5307 -229.021 37.3313 -229.021 52.1145C-229.021 66.8977 -233.754 78.7632 -243.22 87.7109C-252.687 96.529 -264.488 100.938 -278.622 100.938H-294.184V139.452H-333.087V3.29101H-278.622ZM-278.622 63.2019C-275.64 63.2019 -273.111 62.2293 -271.036 60.2842C-268.961 58.2093 -267.924 55.4861 -267.924 52.1145C-267.924 48.7429 -268.961 46.0845 -271.036 44.1394C-273.111 42.0645 -275.64 41.0271 -278.622 41.0271H-294.184V63.2019H-278.622ZM-201.571 135.951C-205.851 140.23 -211.103 142.37 -217.327 142.37C-223.552 142.37 -228.868 140.23 -233.277 135.951C-237.557 131.542 -239.696 126.225 -239.696 120.001C-239.696 113.776 -237.557 108.524 -233.277 104.245C-228.868 99.8357 -223.552 97.6312 -217.327 97.6312C-211.103 97.6312 -205.851 99.8357 -201.571 104.245C-197.162 108.524 -194.958 113.776 -194.958 120.001C-194.958 126.225 -197.162 131.542 -201.571 135.951ZM-83.1112 3.29101C-64.308 3.29101 -48.617 9.83971 -36.0383 22.9371C-23.33 35.9048 -16.9758 52.0497 -16.9758 71.3716C-16.9758 90.6935 -23.33 106.903 -36.0383 120.001C-48.617 132.968 -64.308 139.452 -83.1112 139.452H-139.521V3.29101H-83.1112ZM-83.1112 101.716C-75.2009 101.716 -68.717 98.928 -63.6596 93.3519C-58.4725 87.6461 -55.8789 80.3193 -55.8789 71.3716C-55.8789 62.4238 -58.4725 55.1619 -63.6596 49.5858C-68.717 43.88 -75.2009 41.0271 -83.1112 41.0271H-98.6724V101.716H-83.1112ZM67.8484 139.258L46.2571 96.4641H36.5313V139.258H-2.37186V3.0965H52.0926C67.0055 3.0965 79.3248 7.50552 89.0506 16.3236C98.7764 25.012 103.639 36.5532 103.639 50.9474C103.639 58.9874 101.759 66.2493 97.9984 72.7332C94.3674 79.2171 89.2451 84.469 82.6316 88.489L109.475 139.258H67.8484ZM36.5313 38.8874V64.1745H51.3145C55.4642 64.3042 58.7061 63.2668 61.0403 61.0622C63.5042 58.8577 64.7361 55.7455 64.7361 51.7255C64.7361 47.7055 63.5042 44.5932 61.0403 42.3887C58.7061 40.0545 55.4642 38.8874 51.3145 38.8874H36.5313ZM235.761 122.14C221.886 135.756 204.833 142.564 184.603 142.564C164.374 142.564 147.256 135.756 133.251 122.14C119.376 108.394 112.438 91.4716 112.438 71.3716C112.438 51.2716 119.376 34.4136 133.251 20.7974C147.256 7.05166 164.374 0.17876 184.603 0.17876C204.833 0.17876 221.886 7.05166 235.761 20.7974C249.766 34.4136 256.769 51.2716 256.769 71.3716C256.769 91.4716 249.766 108.394 235.761 122.14ZM160.678 95.1025C167.032 101.327 175.007 104.439 184.603 104.439C194.2 104.439 202.11 101.327 208.334 95.1025C214.689 88.7483 217.866 80.838 217.866 71.3716C217.866 61.9051 214.689 54.0597 208.334 47.8352C202.11 41.481 194.2 38.3039 184.603 38.3039C175.007 38.3039 167.032 41.481 160.678 47.8352C154.454 54.0597 151.341 61.9051 151.341 71.3716C151.341 80.838 154.454 88.7483 160.678 95.1025ZM325.821 3.29101C339.955 3.29101 351.756 7.76488 361.223 16.7126C370.689 25.5307 375.422 37.3313 375.422 52.1145C375.422 66.8977 370.689 78.7632 361.223 87.7109C351.756 96.529 339.955 100.938 325.821 100.938H310.259V139.452H271.356V3.29101H325.821ZM325.821 63.2019C328.803 63.2019 331.332 62.2293 333.407 60.2842C335.482 58.2093 336.519 55.4861 336.519 52.1145C336.519 48.7429 335.482 46.0845 333.407 44.1394C331.332 42.0645 328.803 41.0271 325.821 41.0271H310.259V63.2019H325.821ZM441.504 3.29101C455.639 3.29101 467.44 7.76488 476.906 16.7126C486.373 25.5307 491.106 37.3313 491.106 52.1145C491.106 66.8977 486.373 78.7632 476.906 87.7109C467.44 96.529 455.639 100.938 441.504 100.938H425.943V139.452H387.04V3.29101H441.504ZM441.504 63.2019C444.487 63.2019 447.016 62.2293 449.09 60.2842C451.165 58.2093 452.203 55.4861 452.203 52.1145C452.203 48.7429 451.165 46.0845 449.09 44.1394C447.016 42.0645 444.487 41.0271 441.504 41.0271H425.943V63.2019H441.504ZM518.555 135.951C514.276 140.23 509.024 142.37 502.8 142.37C496.575 142.37 491.258 140.23 486.849 135.951C482.57 131.542 480.43 126.225 480.43 120.001C480.43 113.776 482.57 108.524 486.849 104.245C491.258 99.8357 496.575 97.6312 502.8 97.6312C509.024 97.6312 514.276 99.8357 518.555 104.245C522.965 108.524 525.169 113.776 525.169 120.001C525.169 126.225 522.965 131.542 518.555 135.951ZM637.016 3.29101C655.819 3.29101 671.51 9.83971 684.088 22.9371C696.797 35.9048 703.151 52.0497 703.151 71.3716C703.151 90.6935 696.797 106.903 684.088 120.001C671.51 132.968 655.819 139.452 637.016 139.452H580.606V3.29101H637.016ZM637.016 101.716C644.926 101.716 651.41 98.928 656.467 93.3519C661.654 87.6461 664.248 80.3193 664.248 71.3716C664.248 62.4238 661.654 55.1619 656.467 49.5858C651.41 43.88 644.926 41.0271 637.016 41.0271H621.454V101.716H637.016ZM787.975 139.258L766.384 96.4641H756.658V139.258H717.755V3.0965H772.219C787.132 3.0965 799.452 7.50552 809.177 16.3236C818.903 25.012 823.766 36.5532 823.766 50.9474C823.766 58.9874 821.886 66.2493 818.125 72.7332C814.494 79.2171 809.372 84.469 802.758 88.489L829.601 139.258H787.975ZM756.658 38.8874V64.1745H771.441C775.591 64.3042 778.833 63.2668 781.167 61.0622C783.631 58.8577 784.863 55.7455 784.863 51.7255C784.863 47.7055 783.631 44.5932 781.167 42.3887C778.833 40.0545 775.591 38.8874 771.441 38.8874H756.658ZM955.888 122.14C942.012 135.756 924.96 142.564 904.73 142.564C884.501 142.564 867.383 135.756 853.378 122.14C839.503 108.394 832.565 91.4716 832.565 71.3716C832.565 51.2716 839.503 34.4136 853.378 20.7974C867.383 7.05166 884.501 0.17876 904.73 0.17876C924.96 0.17876 942.012 7.05166 955.888 20.7974C969.893 34.4136 976.896 51.2716 976.896 71.3716C976.896 91.4716 969.893 108.394 955.888 122.14ZM880.805 95.1025C887.159 101.327 895.134 104.439 904.73 104.439C914.326 104.439 922.237 101.327 928.461 95.1025C934.815 88.7483 937.992 80.838 937.992 71.3716C937.992 61.9051 934.815 54.0597 928.461 47.8352C922.237 41.481 914.326 38.3039 904.73 38.3039C895.134 38.3039 887.159 41.481 880.805 47.8352C874.58 54.0597 871.468 61.9051 871.468 71.3716C871.468 80.838 874.58 88.7483 880.805 95.1025ZM1045.95 3.29101C1060.08 3.29101 1071.88 7.76488 1081.35 16.7126C1090.82 25.5307 1095.55 37.3313 1095.55 52.1145C1095.55 66.8977 1090.82 78.7632 1081.35 87.7109C1071.88 96.529 1060.08 100.938 1045.95 100.938H1030.39V139.452H991.483V3.29101H1045.95ZM1045.95 63.2019C1048.93 63.2019 1051.46 62.2293 1053.53 60.2842C1055.61 58.2093 1056.65 55.4861 1056.65 52.1145C1056.65 48.7429 1055.61 46.0845 1053.53 44.1394C1051.46 42.0645 1048.93 41.0271 1045.95 41.0271H1030.39V63.2019H1045.95ZM1161.63 3.29101C1175.77 3.29101 1187.57 7.76488 1197.03 16.7126C1206.5 25.5307 1211.23 37.3313 1211.23 52.1145C1211.23 66.8977 1206.5 78.7632 1197.03 87.7109C1187.57 96.529 1175.77 100.938 1161.63 100.938H1146.07V139.452H1107.17V3.29101H1161.63ZM1161.63 63.2019C1164.61 63.2019 1167.14 62.2293 1169.22 60.2842C1171.29 58.2093 1172.33 55.4861 1172.33 52.1145C1172.33 48.7429 1171.29 46.0845 1169.22 44.1394C1167.14 42.0645 1164.61 41.0271 1161.63 41.0271H1146.07V63.2019H1161.63ZM1238.68 135.951C1234.4 140.23 1229.15 142.37 1222.93 142.37C1216.7 142.37 1211.39 140.23 1206.98 135.951C1202.7 131.542 1200.56 126.225 1200.56 120.001C1200.56 113.776 1202.7 108.524 1206.98 104.245C1211.39 99.8357 1216.7 97.6312 1222.93 97.6312C1229.15 97.6312 1234.4 99.8357 1238.68 104.245C1243.09 108.524 1245.3 113.776 1245.3 120.001C1245.3 126.225 1243.09 131.542 1238.68 135.951ZM1357.14 3.29101C1375.95 3.29101 1391.64 9.83971 1404.22 22.9371C1416.92 35.9048 1423.28 52.0497 1423.28 71.3716C1423.28 90.6935 1416.92 106.903 1404.22 120.001C1391.64 132.968 1375.95 139.452 1357.14 139.452H1300.73V3.29101H1357.14ZM1357.14 101.716C1365.05 101.716 1371.54 98.928 1376.59 93.3519C1381.78 87.6461 1384.37 80.3193 1384.37 71.3716C1384.37 62.4238 1381.78 55.1619 1376.59 49.5858C1371.54 43.88 1365.05 41.0271 1357.14 41.0271H1341.58V101.716H1357.14ZM1508.1 139.258L1486.51 96.4641H1476.78V139.258H1437.88V3.0965H1492.35C1507.26 3.0965 1519.58 7.50552 1529.3 16.3236C1539.03 25.012 1543.89 36.5532 1543.89 50.9474C1543.89 58.9874 1542.01 66.2493 1538.25 72.7332C1534.62 79.2171 1529.5 84.469 1522.89 88.489L1549.73 139.258H1508.1ZM1476.78 38.8874V64.1745H1491.57C1495.72 64.3042 1498.96 63.2668 1501.29 61.0622C1503.76 58.8577 1504.99 55.7455 1504.99 51.7255C1504.99 47.7055 1503.76 44.5932 1501.29 42.3887C1498.96 40.0545 1495.72 38.8874 1491.57 38.8874H1476.78ZM1676.01 122.14C1662.14 135.756 1645.09 142.564 1624.86 142.564C1604.63 142.564 1587.51 135.756 1573.5 122.14C1559.63 108.394 1552.69 91.4716 1552.69 71.3716C1552.69 51.2716 1559.63 34.4136 1573.5 20.7974C1587.51 7.05166 1604.63 0.17876 1624.86 0.17876C1645.09 0.17876 1662.14 7.05166 1676.01 20.7974C1690.02 34.4136 1697.02 51.2716 1697.02 71.3716C1697.02 91.4716 1690.02 108.394 1676.01 122.14ZM1600.93 95.1025C1607.29 101.327 1615.26 104.439 1624.86 104.439C1634.45 104.439 1642.36 101.327 1648.59 95.1025C1654.94 88.7483 1658.12 80.838 1658.12 71.3716C1658.12 61.9051 1654.94 54.0597 1648.59 47.8352C1642.36 41.481 1634.45 38.3039 1624.86 38.3039C1615.26 38.3039 1607.29 41.481 1600.93 47.8352C1594.71 54.0597 1591.59 61.9051 1591.59 71.3716C1591.59 80.838 1594.71 88.7483 1600.93 95.1025ZM1766.07 3.29101C1780.21 3.29101 1792.01 7.76488 1801.48 16.7126C1810.94 25.5307 1815.68 37.3313 1815.68 52.1145C1815.68 66.8977 1810.94 78.7632 1801.48 87.7109C1792.01 96.529 1780.21 100.938 1766.07 100.938H1750.51V139.452H1711.61V3.29101H1766.07ZM1766.07 63.2019C1769.06 63.2019 1771.59 62.2293 1773.66 60.2842C1775.73 58.2093 1776.77 55.4861 1776.77 52.1145C1776.77 48.7429 1775.73 46.0845 1773.66 44.1394C1771.59 42.0645 1769.06 41.0271 1766.07 41.0271H1750.51V63.2019H1766.07ZM1881.76 3.29101C1895.89 3.29101 1907.69 7.76488 1917.16 16.7126C1926.63 25.5307 1931.36 37.3313 1931.36 52.1145C1931.36 66.8977 1926.63 78.7632 1917.16 87.7109C1907.69 96.529 1895.89 100.938 1881.76 100.938H1866.2V139.452H1827.29V3.29101H1881.76ZM1881.76 63.2019C1884.74 63.2019 1887.27 62.2293 1889.34 60.2842C1891.42 58.2093 1892.46 55.4861 1892.46 52.1145C1892.46 48.7429 1891.42 46.0845 1889.34 44.1394C1887.27 42.0645 1884.74 41.0271 1881.76 41.0271H1866.2V63.2019H1881.76ZM1958.81 135.951C1954.53 140.23 1949.28 142.37 1943.05 142.37C1936.83 142.37 1931.51 140.23 1927.1 135.951C1922.82 131.542 1920.68 126.225 1920.68 120.001C1920.68 113.776 1922.82 108.524 1927.1 104.245C1931.51 99.8357 1936.83 97.6312 1943.05 97.6312C1949.28 97.6312 1954.53 99.8357 1958.81 104.245C1963.22 108.524 1965.42 113.776 1965.42 120.001C1965.42 126.225 1963.22 131.542 1958.81 135.951ZM2077.27 3.29101C2096.07 3.29101 2111.76 9.83971 2124.34 22.9371C2137.05 35.9048 2143.4 52.0497 2143.4 71.3716C2143.4 90.6935 2137.05 106.903 2124.34 120.001C2111.76 132.968 2096.07 139.452 2077.27 139.452H2020.86V3.29101H2077.27ZM2077.27 101.716C2085.18 101.716 2091.66 98.928 2096.72 93.3519C2101.91 87.6461 2104.5 80.3193 2104.5 71.3716C2104.5 62.4238 2101.91 55.1619 2096.72 49.5858C2091.66 43.88 2085.18 41.0271 2077.27 41.0271H2061.71V101.716H2077.27ZM2228.23 139.258L2206.64 96.4641H2196.91V139.258H2158.01V3.0965H2212.47C2227.39 3.0965 2239.7 7.50552 2249.43 16.3236C2259.16 25.012 2264.02 36.5532 2264.02 50.9474C2264.02 58.9874 2262.14 66.2493 2258.38 72.7332C2254.75 79.2171 2249.63 84.469 2243.01 88.489L2269.85 139.258H2228.23ZM2196.91 38.8874V64.1745H2211.69C2215.84 64.3042 2219.09 63.2668 2221.42 61.0622C2223.88 58.8577 2225.12 55.7455 2225.12 51.7255C2225.12 47.7055 2223.88 44.5932 2221.42 42.3887C2219.09 40.0545 2215.84 38.8874 2211.69 38.8874H2196.91ZM2396.14 122.14C2382.27 135.756 2365.21 142.564 2344.98 142.564C2324.75 142.564 2307.64 135.756 2293.63 122.14C2279.76 108.394 2272.82 91.4716 2272.82 71.3716C2272.82 51.2716 2279.76 34.4136 2293.63 20.7974C2307.64 7.05166 2324.75 0.17876 2344.98 0.17876C2365.21 0.17876 2382.27 7.05166 2396.14 20.7974C2410.15 34.4136 2417.15 51.2716 2417.15 71.3716C2417.15 91.4716 2410.15 108.394 2396.14 122.14ZM2321.06 95.1025C2327.41 101.327 2335.39 104.439 2344.98 104.439C2354.58 104.439 2362.49 101.327 2368.71 95.1025C2375.07 88.7483 2378.25 80.838 2378.25 71.3716C2378.25 61.9051 2375.07 54.0597 2368.71 47.8352C2362.49 41.481 2354.58 38.3039 2344.98 38.3039C2335.39 38.3039 2327.41 41.481 2321.06 47.8352C2314.83 54.0597 2311.72 61.9051 2311.72 71.3716C2311.72 80.838 2314.83 88.7483 2321.06 95.1025ZM2486.2 3.29101C2500.34 3.29101 2512.14 7.76488 2521.6 16.7126C2531.07 25.5307 2535.8 37.3313 2535.8 52.1145C2535.8 66.8977 2531.07 78.7632 2521.6 87.7109C2512.14 96.529 2500.34 100.938 2486.2 100.938H2470.64V139.452H2431.74V3.29101H2486.2ZM2486.2 63.2019C2489.18 63.2019 2491.71 62.2293 2493.79 60.2842C2495.86 58.2093 2496.9 55.4861 2496.9 52.1145C2496.9 48.7429 2495.86 46.0845 2493.79 44.1394C2491.71 42.0645 2489.18 41.0271 2486.2 41.0271H2470.64V63.2019H2486.2ZM2601.88 3.29101C2616.02 3.29101 2627.82 7.76488 2637.29 16.7126C2646.75 25.5307 2651.49 37.3313 2651.49 52.1145C2651.49 66.8977 2646.75 78.7632 2637.29 87.7109C2627.82 96.529 2616.02 100.938 2601.88 100.938H2586.32V139.452H2547.42V3.29101H2601.88ZM2601.88 63.2019C2604.87 63.2019 2607.4 62.2293 2609.47 60.2842C2611.55 58.2093 2612.58 55.4861 2612.58 52.1145C2612.58 48.7429 2611.55 46.0845 2609.47 44.1394C2607.4 42.0645 2604.87 41.0271 2601.88 41.0271H2586.32V63.2019H2601.88ZM2678.94 135.951C2674.66 140.23 2669.4 142.37 2663.18 142.37C2656.96 142.37 2651.64 140.23 2647.23 135.951C2642.95 131.542 2640.81 126.225 2640.81 120.001C2640.81 113.776 2642.95 108.524 2647.23 104.245C2651.64 99.8357 2656.96 97.6312 2663.18 97.6312C2669.4 97.6312 2674.66 99.8357 2678.94 104.245C2683.34 108.524 2685.55 113.776 2685.55 120.001C2685.55 126.225 2683.34 131.542 2678.94 135.951Z" fill="white"/>
</svg>
