<svg width="1512" height="144" viewBox="0 0 1512 144" fill="none" xmlns="http://www.w3.org/2000/svg">
<path d="M-1670.47 3.83886C-1651.67 3.83886 -1635.97 10.3876 -1623.4 23.485C-1610.69 36.4527 -1604.33 52.5975 -1604.33 71.9194C-1604.33 91.2413 -1610.69 107.451 -1623.4 120.548C-1635.97 133.516 -1651.67 140 -1670.47 140H-1726.88V3.83886H-1670.47ZM-1670.47 102.264C-1662.56 102.264 -1656.07 99.4759 -1651.02 93.8997C-1645.83 88.1939 -1643.24 80.8672 -1643.24 71.9194C-1643.24 62.9717 -1645.83 55.7098 -1651.02 50.1337C-1656.07 44.4278 -1662.56 41.5749 -1670.47 41.5749H-1686.03V102.264H-1670.47ZM-1519.51 139.805L-1541.1 97.012H-1550.83V139.805H-1589.73V3.64435H-1535.27C-1520.35 3.64435 -1508.03 8.05338 -1498.31 16.8714C-1488.58 25.5598 -1483.72 37.1011 -1483.72 51.4953C-1483.72 59.5353 -1485.6 66.7972 -1489.36 73.281C-1492.99 79.7649 -1498.11 85.0168 -1504.73 89.0368L-1477.88 139.805H-1519.51ZM-1550.83 39.4353V64.7223H-1536.04C-1531.89 64.852 -1528.65 63.8146 -1526.32 61.6101C-1523.85 59.4056 -1522.62 56.2933 -1522.62 52.2733C-1522.62 48.2533 -1523.85 45.1411 -1526.32 42.9366C-1528.65 40.6024 -1531.89 39.4353 -1536.04 39.4353H-1550.83ZM-1351.6 122.688C-1365.47 136.304 -1382.52 143.112 -1402.75 143.112C-1422.98 143.112 -1440.1 136.304 -1454.11 122.688C-1467.98 108.942 -1474.92 92.0194 -1474.92 71.9194C-1474.92 51.8195 -1467.98 34.9614 -1454.11 21.3453C-1440.1 7.59951 -1422.98 0.726612 -1402.75 0.726612C-1382.52 0.726612 -1365.47 7.59951 -1351.6 21.3453C-1337.59 34.9614 -1330.59 51.8195 -1330.59 71.9194C-1330.59 92.0194 -1337.59 108.942 -1351.6 122.688ZM-1426.68 95.6504C-1420.33 101.875 -1412.35 104.987 -1402.75 104.987C-1393.16 104.987 -1385.25 101.875 -1379.02 95.6504C-1372.67 89.2962 -1369.49 81.3859 -1369.49 71.9194C-1369.49 62.453 -1372.67 54.6075 -1379.02 48.383C-1385.25 42.0288 -1393.16 38.8517 -1402.75 38.8517C-1412.35 38.8517 -1420.33 42.0288 -1426.68 48.383C-1432.9 54.6075 -1436.02 62.453 -1436.02 71.9194C-1436.02 81.3859 -1432.9 89.2962 -1426.68 95.6504ZM-1261.54 3.83886C-1247.4 3.83886 -1235.6 8.31273 -1226.14 17.2605C-1216.67 26.0785 -1211.94 37.8791 -1211.94 52.6624C-1211.94 67.4456 -1216.67 79.311 -1226.14 88.2588C-1235.6 97.0768 -1247.4 101.486 -1261.54 101.486H-1277.1V140H-1316V3.83886H-1261.54ZM-1261.54 63.7498C-1258.55 63.7498 -1256.03 62.7772 -1253.95 60.832C-1251.88 58.7572 -1250.84 56.034 -1250.84 52.6624C-1250.84 49.2907 -1251.88 46.6324 -1253.95 44.6872C-1256.03 42.6124 -1258.55 41.5749 -1261.54 41.5749H-1277.1V63.7498H-1261.54ZM-1145.85 3.83886C-1131.72 3.83886 -1119.92 8.31273 -1110.45 17.2605C-1100.99 26.0785 -1096.25 37.8791 -1096.25 52.6624C-1096.25 67.4456 -1100.99 79.311 -1110.45 88.2588C-1119.92 97.0768 -1131.72 101.486 -1145.85 101.486H-1161.41V140H-1200.32V3.83886H-1145.85ZM-1145.85 63.7498C-1142.87 63.7498 -1140.34 62.7772 -1138.27 60.832C-1136.19 58.7572 -1135.16 56.034 -1135.16 52.6624C-1135.16 49.2907 -1136.19 46.6324 -1138.27 44.6872C-1140.34 42.6124 -1142.87 41.5749 -1145.85 41.5749H-1161.41V63.7498H-1145.85ZM-1068.8 136.499C-1073.08 140.778 -1078.33 142.918 -1084.56 142.918C-1090.78 142.918 -1096.1 140.778 -1100.51 136.499C-1104.79 132.09 -1106.93 126.773 -1106.93 120.548C-1106.93 114.324 -1104.79 109.072 -1100.51 104.793C-1096.1 100.384 -1090.78 98.1791 -1084.56 98.1791C-1078.33 98.1791 -1073.08 100.384 -1068.8 104.793C-1064.39 109.072 -1062.19 114.324 -1062.19 120.548C-1062.19 126.773 -1064.39 132.09 -1068.8 136.499ZM-950.342 3.83886C-931.539 3.83886 -915.848 10.3876 -903.27 23.485C-890.561 36.4527 -884.207 52.5975 -884.207 71.9194C-884.207 91.2413 -890.561 107.451 -903.27 120.548C-915.848 133.516 -931.539 140 -950.342 140H-1006.75V3.83886H-950.342ZM-950.342 102.264C-942.432 102.264 -935.948 99.4759 -930.891 93.8997C-925.704 88.1939 -923.11 80.8672 -923.11 71.9194C-923.11 62.9717 -925.704 55.7098 -930.891 50.1337C-935.948 44.4278 -942.432 41.5749 -950.342 41.5749H-965.904V102.264H-950.342ZM-799.383 139.805L-820.974 97.012H-830.7V139.805H-869.603V3.64435H-815.139C-800.226 3.64435 -787.906 8.05338 -778.181 16.8714C-768.455 25.5598 -763.592 37.1011 -763.592 51.4953C-763.592 59.5353 -765.472 66.7972 -769.233 73.281C-772.864 79.7649 -777.986 85.0168 -784.6 89.0368L-757.756 139.805H-799.383ZM-830.7 39.4353V64.7223H-815.917C-811.767 64.852 -808.525 63.8146 -806.191 61.6101C-803.727 59.4056 -802.495 56.2933 -802.495 52.2733C-802.495 48.2533 -803.727 45.1411 -806.191 42.9366C-808.525 40.6024 -811.767 39.4353 -815.917 39.4353H-830.7ZM-631.47 122.688C-645.345 136.304 -662.398 143.112 -682.628 143.112C-702.857 143.112 -719.975 136.304 -733.98 122.688C-747.855 108.942 -754.793 92.0194 -754.793 71.9194C-754.793 51.8195 -747.855 34.9614 -733.98 21.3453C-719.975 7.59951 -702.857 0.726612 -682.628 0.726612C-662.398 0.726612 -645.345 7.59951 -631.47 21.3453C-617.465 34.9614 -610.462 51.8195 -610.462 71.9194C-610.462 92.0194 -617.465 108.942 -631.47 122.688ZM-706.553 95.6504C-700.199 101.875 -692.224 104.987 -682.628 104.987C-673.032 104.987 -665.121 101.875 -658.897 95.6504C-652.543 89.2962 -649.365 81.3859 -649.365 71.9194C-649.365 62.453 -652.543 54.6075 -658.897 48.383C-665.121 42.0288 -673.032 38.8517 -682.628 38.8517C-692.224 38.8517 -700.199 42.0288 -706.553 48.383C-712.778 54.6075 -715.89 62.453 -715.89 71.9194C-715.89 81.3859 -712.778 89.2962 -706.553 95.6504ZM-541.411 3.83886C-527.276 3.83886 -515.475 8.31273 -506.009 17.2605C-496.542 26.0785 -491.809 37.8791 -491.809 52.6624C-491.809 67.4456 -496.542 79.311 -506.009 88.2588C-515.475 97.0768 -527.276 101.486 -541.411 101.486H-556.972V140H-595.875V3.83886H-541.411ZM-541.411 63.7498C-538.428 63.7498 -535.899 62.7772 -533.825 60.832C-531.75 58.7572 -530.712 56.034 -530.712 52.6624C-530.712 49.2907 -531.75 46.6324 -533.825 44.6872C-535.899 42.6124 -538.428 41.5749 -541.411 41.5749H-556.972V63.7498H-541.411ZM-425.727 3.83886C-411.592 3.83886 -399.791 8.31273 -390.325 17.2605C-380.859 26.0785 -376.125 37.8791 -376.125 52.6624C-376.125 67.4456 -380.859 79.311 -390.325 88.2588C-399.791 97.0768 -411.592 101.486 -425.727 101.486H-441.288V140H-480.191V3.83886H-425.727ZM-425.727 63.7498C-422.744 63.7498 -420.216 62.7772 -418.141 60.832C-416.066 58.7572 -415.028 56.034 -415.028 52.6624C-415.028 49.2907 -416.066 46.6324 -418.141 44.6872C-420.216 42.6124 -422.744 41.5749 -425.727 41.5749H-441.288V63.7498H-425.727ZM-348.676 136.499C-352.955 140.778 -358.207 142.918 -364.432 142.918C-370.656 142.918 -375.973 140.778 -380.382 136.499C-384.661 132.09 -386.801 126.773 -386.801 120.548C-386.801 114.324 -384.661 109.072 -380.382 104.793C-375.973 100.384 -370.656 98.1791 -364.432 98.1791C-358.207 98.1791 -352.955 100.384 -348.676 104.793C-344.267 109.072 -342.062 114.324 -342.062 120.548C-342.062 126.773 -344.267 132.09 -348.676 136.499ZM-230.216 3.83886C-211.412 3.83886 -195.722 10.3876 -183.143 23.485C-170.434 36.4527 -164.08 52.5975 -164.08 71.9194C-164.08 91.2413 -170.434 107.451 -183.143 120.548C-195.722 133.516 -211.412 140 -230.216 140H-286.625V3.83886H-230.216ZM-230.216 102.264C-222.305 102.264 -215.821 99.4759 -210.764 93.8997C-205.577 88.1939 -202.983 80.8672 -202.983 71.9194C-202.983 62.9717 -205.577 55.7098 -210.764 50.1337C-215.821 44.4278 -222.305 41.5749 -230.216 41.5749H-245.777V102.264H-230.216ZM-79.2561 139.805L-100.847 97.012H-110.573V139.805H-149.476V3.64435H-95.0119C-80.099 3.64435 -67.7797 8.05338 -58.0539 16.8714C-48.3281 25.5598 -43.4652 37.1011 -43.4652 51.4953C-43.4652 59.5353 -45.3455 66.7972 -49.1061 73.281C-52.7371 79.7649 -57.8594 85.0168 -64.4729 89.0368L-37.6297 139.805H-79.2561ZM-110.573 39.4353V64.7223H-95.79C-91.6403 64.852 -88.3984 63.8146 -86.0642 61.6101C-83.6003 59.4056 -82.3684 56.2933 -82.3684 52.2733C-82.3684 48.2533 -83.6003 45.1411 -86.0642 42.9366C-88.3984 40.6024 -91.6403 39.4353 -95.79 39.4353H-110.573ZM88.6567 122.688C74.7812 136.304 57.7287 143.112 37.499 143.112C17.2693 143.112 0.151948 136.304 -13.8532 122.688C-27.7287 108.942 -34.6664 92.0194 -34.6664 71.9194C-34.6664 51.8195 -27.7287 34.9614 -13.8532 21.3453C0.151948 7.59951 17.2693 0.726612 37.499 0.726612C57.7287 0.726612 74.7812 7.59951 88.6567 21.3453C102.662 34.9614 109.664 51.8195 109.664 71.9194C109.664 92.0194 102.662 108.942 88.6567 122.688ZM13.5735 95.6504C19.9277 101.875 27.9029 104.987 37.499 104.987C47.0951 104.987 55.0054 101.875 61.2299 95.6504C67.5841 89.2962 70.7612 81.3859 70.7612 71.9194C70.7612 62.453 67.5841 54.6075 61.2299 48.383C55.0054 42.0288 47.0951 38.8517 37.499 38.8517C27.9029 38.8517 19.9277 42.0288 13.5735 48.383C7.34904 54.6075 4.23678 62.453 4.23678 71.9194C4.23678 81.3859 7.34904 89.2962 13.5735 95.6504ZM178.716 3.83886C192.851 3.83886 204.652 8.31273 214.118 17.2605C223.584 26.0785 228.318 37.8791 228.318 52.6624C228.318 67.4456 223.584 79.311 214.118 88.2588C204.652 97.0768 192.851 101.486 178.716 101.486H163.155V140H124.252V3.83886H178.716ZM178.716 63.7498C181.699 63.7498 184.227 62.7772 186.302 60.832C188.377 58.7572 189.415 56.034 189.415 52.6624C189.415 49.2907 188.377 46.6324 186.302 44.6872C184.227 42.6124 181.699 41.5749 178.716 41.5749H163.155V63.7498H178.716ZM294.4 3.83886C308.535 3.83886 320.335 8.31273 329.802 17.2605C339.268 26.0785 344.001 37.8791 344.001 52.6624C344.001 67.4456 339.268 79.311 329.802 88.2588C320.335 97.0768 308.535 101.486 294.4 101.486H278.839V140H239.935V3.83886H294.4ZM294.4 63.7498C297.382 63.7498 299.911 62.7772 301.986 60.832C304.061 58.7572 305.098 56.034 305.098 52.6624C305.098 49.2907 304.061 46.6324 301.986 44.6872C299.911 42.6124 297.382 41.5749 294.4 41.5749H278.839V63.7498H294.4ZM371.451 136.499C367.172 140.778 361.92 142.918 355.695 142.918C349.471 142.918 344.154 140.778 339.745 136.499C335.466 132.09 333.326 126.773 333.326 120.548C333.326 114.324 335.466 109.072 339.745 104.793C344.154 100.384 349.471 98.1791 355.695 98.1791C361.92 98.1791 367.172 100.384 371.451 104.793C375.86 109.072 378.065 114.324 378.065 120.548C378.065 126.773 375.86 132.09 371.451 136.499ZM489.911 3.83886C508.714 3.83886 524.405 10.3876 536.984 23.485C549.692 36.4527 556.046 52.5975 556.046 71.9194C556.046 91.2413 549.692 107.451 536.984 120.548C524.405 133.516 508.714 140 489.911 140H433.501V3.83886H489.911ZM489.911 102.264C497.821 102.264 504.305 99.4759 509.363 93.8997C514.55 88.1939 517.143 80.8672 517.143 71.9194C517.143 62.9717 514.55 55.7098 509.363 50.1337C504.305 44.4278 497.821 41.5749 489.911 41.5749H474.35V102.264H489.911ZM640.871 139.805L619.279 97.012H609.554V139.805H570.65V3.64435H625.115C640.028 3.64435 652.347 8.05338 662.073 16.8714C671.799 25.5598 676.662 37.1011 676.662 51.4953C676.662 59.5353 674.781 66.7972 671.021 73.281C667.39 79.7649 662.267 85.0168 655.654 89.0368L682.497 139.805H640.871ZM609.554 39.4353V64.7223H624.337C628.486 64.852 631.728 63.8146 634.063 61.6101C636.526 59.4056 637.758 56.2933 637.758 52.2733C637.758 48.2533 636.526 45.1411 634.063 42.9366C631.728 40.6024 628.486 39.4353 624.337 39.4353H609.554ZM808.783 122.688C794.908 136.304 777.855 143.112 757.626 143.112C737.396 143.112 720.279 136.304 706.274 122.688C692.398 108.942 685.46 92.0194 685.46 71.9194C685.46 51.8195 692.398 34.9614 706.274 21.3453C720.279 7.59951 737.396 0.726612 757.626 0.726612C777.855 0.726612 794.908 7.59951 808.783 21.3453C822.789 34.9614 829.791 51.8195 829.791 71.9194C829.791 92.0194 822.789 108.942 808.783 122.688ZM733.7 95.6504C740.054 101.875 748.03 104.987 757.626 104.987C767.222 104.987 775.132 101.875 781.357 95.6504C787.711 89.2962 790.888 81.3859 790.888 71.9194C790.888 62.453 787.711 54.6075 781.357 48.383C775.132 42.0288 767.222 38.8517 757.626 38.8517C748.03 38.8517 740.054 42.0288 733.7 48.383C727.476 54.6075 724.363 62.453 724.363 71.9194C724.363 81.3859 727.476 89.2962 733.7 95.6504ZM898.843 3.83886C912.978 3.83886 924.778 8.31273 934.245 17.2605C943.711 26.0785 948.444 37.8791 948.444 52.6624C948.444 67.4456 943.711 79.311 934.245 88.2588C924.778 97.0768 912.978 101.486 898.843 101.486H883.282V140H844.378V3.83886H898.843ZM898.843 63.7498C901.825 63.7498 904.354 62.7772 906.429 60.832C908.504 58.7572 909.541 56.034 909.541 52.6624C909.541 49.2907 908.504 46.6324 906.429 44.6872C904.354 42.6124 901.825 41.5749 898.843 41.5749H883.282V63.7498H898.843ZM1014.53 3.83886C1028.66 3.83886 1040.46 8.31273 1049.93 17.2605C1059.4 26.0785 1064.13 37.8791 1064.13 52.6624C1064.13 67.4456 1059.4 79.311 1049.93 88.2588C1040.46 97.0768 1028.66 101.486 1014.53 101.486H998.965V140H960.062V3.83886H1014.53ZM1014.53 63.7498C1017.51 63.7498 1020.04 62.7772 1022.11 60.832C1024.19 58.7572 1025.23 56.034 1025.23 52.6624C1025.23 49.2907 1024.19 46.6324 1022.11 44.6872C1020.04 42.6124 1017.51 41.5749 1014.53 41.5749H998.965V63.7498H1014.53ZM1091.58 136.499C1087.3 140.778 1082.05 142.918 1075.82 142.918C1069.6 142.918 1064.28 140.778 1059.87 136.499C1055.59 132.09 1053.45 126.773 1053.45 120.548C1053.45 114.324 1055.59 109.072 1059.87 104.793C1064.28 100.384 1069.6 98.1791 1075.82 98.1791C1082.05 98.1791 1087.3 100.384 1091.58 104.793C1095.99 109.072 1098.19 114.324 1098.19 120.548C1098.19 126.773 1095.99 132.09 1091.58 136.499ZM1210.04 3.83886C1228.84 3.83886 1244.53 10.3876 1257.11 23.485C1269.82 36.4527 1276.17 52.5975 1276.17 71.9194C1276.17 91.2413 1269.82 107.451 1257.11 120.548C1244.53 133.516 1228.84 140 1210.04 140H1153.63V3.83886H1210.04ZM1210.04 102.264C1217.95 102.264 1224.43 99.4759 1229.49 93.8997C1234.68 88.1939 1237.27 80.8672 1237.27 71.9194C1237.27 62.9717 1234.68 55.7098 1229.49 50.1337C1224.43 44.4278 1217.95 41.5749 1210.04 41.5749H1194.48V102.264H1210.04ZM1361 139.805L1339.41 97.012H1329.68V139.805H1290.78V3.64435H1345.24C1360.15 3.64435 1372.47 8.05338 1382.2 16.8714C1391.93 25.5598 1396.79 37.1011 1396.79 51.4953C1396.79 59.5353 1394.91 66.7972 1391.15 73.281C1387.52 79.7649 1382.39 85.0168 1375.78 89.0368L1402.62 139.805H1361ZM1329.68 39.4353V64.7223H1344.46C1348.61 64.852 1351.86 63.8146 1354.19 61.6101C1356.65 59.4056 1357.89 56.2933 1357.89 52.2733C1357.89 48.2533 1356.65 45.1411 1354.19 42.9366C1351.86 40.6024 1348.61 39.4353 1344.46 39.4353H1329.68ZM1528.91 122.688C1515.03 136.304 1497.98 143.112 1477.75 143.112C1457.52 143.112 1440.41 136.304 1426.4 122.688C1412.52 108.942 1405.59 92.0194 1405.59 71.9194C1405.59 51.8195 1412.52 34.9614 1426.4 21.3453C1440.41 7.59951 1457.52 0.726612 1477.75 0.726612C1497.98 0.726612 1515.03 7.59951 1528.91 21.3453C1542.92 34.9614 1549.92 51.8195 1549.92 71.9194C1549.92 92.0194 1542.92 108.942 1528.91 122.688ZM1453.83 95.6504C1460.18 101.875 1468.16 104.987 1477.75 104.987C1487.35 104.987 1495.26 101.875 1501.48 95.6504C1507.84 89.2962 1511.01 81.3859 1511.01 71.9194C1511.01 62.453 1507.84 54.6075 1501.48 48.383C1495.26 42.0288 1487.35 38.8517 1477.75 38.8517C1468.16 38.8517 1460.18 42.0288 1453.83 48.383C1447.6 54.6075 1444.49 62.453 1444.49 71.9194C1444.49 81.3859 1447.6 89.2962 1453.83 95.6504ZM1618.97 3.83886C1633.1 3.83886 1644.9 8.31273 1654.37 17.2605C1663.84 26.0785 1668.57 37.8791 1668.57 52.6624C1668.57 67.4456 1663.84 79.311 1654.37 88.2588C1644.9 97.0768 1633.1 101.486 1618.97 101.486H1603.41V140H1564.51V3.83886H1618.97ZM1618.97 63.7498C1621.95 63.7498 1624.48 62.7772 1626.56 60.832C1628.63 58.7572 1629.67 56.034 1629.67 52.6624C1629.67 49.2907 1628.63 46.6324 1626.56 44.6872C1624.48 42.6124 1621.95 41.5749 1618.97 41.5749H1603.41V63.7498H1618.97ZM1734.65 3.83886C1748.79 3.83886 1760.59 8.31273 1770.06 17.2605C1779.52 26.0785 1784.25 37.8791 1784.25 52.6624C1784.25 67.4456 1779.52 79.311 1770.06 88.2588C1760.59 97.0768 1748.79 101.486 1734.65 101.486H1719.09V140H1680.19V3.83886H1734.65ZM1734.65 63.7498C1737.64 63.7498 1740.16 62.7772 1742.24 60.832C1744.31 58.7572 1745.35 56.034 1745.35 52.6624C1745.35 49.2907 1744.31 46.6324 1742.24 44.6872C1740.16 42.6124 1737.64 41.5749 1734.65 41.5749H1719.09V63.7498H1734.65ZM1811.7 136.499C1807.43 140.778 1802.17 142.918 1795.95 142.918C1789.72 142.918 1784.41 140.778 1780 136.499C1775.72 132.09 1773.58 126.773 1773.58 120.548C1773.58 114.324 1775.72 109.072 1780 104.793C1784.41 100.384 1789.72 98.1791 1795.95 98.1791C1802.17 98.1791 1807.43 100.384 1811.7 104.793C1816.11 109.072 1818.32 114.324 1818.32 120.548C1818.32 126.773 1816.11 132.09 1811.7 136.499ZM1930.16 3.83886C1948.97 3.83886 1964.66 10.3876 1977.24 23.485C1989.95 36.4527 1996.3 52.5975 1996.3 71.9194C1996.3 91.2413 1989.95 107.451 1977.24 120.548C1964.66 133.516 1948.97 140 1930.16 140H1873.75V3.83886H1930.16ZM1930.16 102.264C1938.07 102.264 1944.56 99.4759 1949.62 93.8997C1954.8 88.1939 1957.4 80.8672 1957.4 71.9194C1957.4 62.9717 1954.8 55.7098 1949.62 50.1337C1944.56 44.4278 1938.07 41.5749 1930.16 41.5749H1914.6V102.264H1930.16ZM2081.12 139.805L2059.53 97.012H2049.81V139.805H2010.9V3.64435H2065.37C2080.28 3.64435 2092.6 8.05338 2102.33 16.8714C2112.05 25.5598 2116.91 37.1011 2116.91 51.4953C2116.91 59.5353 2115.03 66.7972 2111.27 73.281C2107.64 79.7649 2102.52 85.0168 2095.91 89.0368L2122.75 139.805H2081.12ZM2049.81 39.4353V64.7223H2064.59C2068.74 64.852 2071.98 63.8146 2074.32 61.6101C2076.78 59.4056 2078.01 56.2933 2078.01 52.2733C2078.01 48.2533 2076.78 45.1411 2074.32 42.9366C2071.98 40.6024 2068.74 39.4353 2064.59 39.4353H2049.81ZM2249.04 122.688C2235.16 136.304 2218.11 143.112 2197.88 143.112C2177.65 143.112 2160.53 136.304 2146.53 122.688C2132.65 108.942 2125.71 92.0194 2125.71 71.9194C2125.71 51.8195 2132.65 34.9614 2146.53 21.3453C2160.53 7.59951 2177.65 0.726612 2197.88 0.726612C2218.11 0.726612 2235.16 7.59951 2249.04 21.3453C2263.04 34.9614 2270.04 51.8195 2270.04 71.9194C2270.04 92.0194 2263.04 108.942 2249.04 122.688ZM2173.95 95.6504C2180.31 101.875 2188.28 104.987 2197.88 104.987C2207.48 104.987 2215.39 101.875 2221.61 95.6504C2227.96 89.2962 2231.14 81.3859 2231.14 71.9194C2231.14 62.453 2227.96 54.6075 2221.61 48.383C2215.39 42.0288 2207.48 38.8517 2197.88 38.8517C2188.28 38.8517 2180.31 42.0288 2173.95 48.383C2167.73 54.6075 2164.62 62.453 2164.62 71.9194C2164.62 81.3859 2167.73 89.2962 2173.95 95.6504ZM2339.1 3.83886C2353.23 3.83886 2365.03 8.31273 2374.5 17.2605C2383.96 26.0785 2388.7 37.8791 2388.7 52.6624C2388.7 67.4456 2383.96 79.311 2374.5 88.2588C2365.03 97.0768 2353.23 101.486 2339.1 101.486H2323.53V140H2284.63V3.83886H2339.1ZM2339.1 63.7498C2342.08 63.7498 2344.61 62.7772 2346.68 60.832C2348.76 58.7572 2349.79 56.034 2349.79 52.6624C2349.79 49.2907 2348.76 46.6324 2346.68 44.6872C2344.61 42.6124 2342.08 41.5749 2339.1 41.5749H2323.53V63.7498H2339.1ZM2454.78 3.83886C2468.91 3.83886 2480.72 8.31273 2490.18 17.2605C2499.65 26.0785 2504.38 37.8791 2504.38 52.6624C2504.38 67.4456 2499.65 79.311 2490.18 88.2588C2480.72 97.0768 2468.91 101.486 2454.78 101.486H2439.22V140H2400.32V3.83886H2454.78ZM2454.78 63.7498C2457.76 63.7498 2460.29 62.7772 2462.37 60.832C2464.44 58.7572 2465.48 56.034 2465.48 52.6624C2465.48 49.2907 2464.44 46.6324 2462.37 44.6872C2460.29 42.6124 2457.76 41.5749 2454.78 41.5749H2439.22V63.7498H2454.78ZM2531.83 136.499C2527.55 140.778 2522.3 142.918 2516.08 142.918C2509.85 142.918 2504.53 140.778 2500.13 136.499C2495.85 132.09 2493.71 126.773 2493.71 120.548C2493.71 114.324 2495.85 109.072 2500.13 104.793C2504.53 100.384 2509.85 98.1791 2516.08 98.1791C2522.3 98.1791 2527.55 100.384 2531.83 104.793C2536.24 109.072 2538.44 114.324 2538.44 120.548C2538.44 126.773 2536.24 132.09 2531.83 136.499Z" fill="#FFE6B4"/>
</svg>
