<svg width="223" height="46" viewBox="0 0 223 46" fill="none" xmlns="http://www.w3.org/2000/svg">
<path fill-rule="evenodd" clip-rule="evenodd" d="M64.7807 7.0743C68.2803 10.9764 70.2791 15.6631 70.2791 20.8341C70.2791 28.7133 65.6334 35.4738 58.1225 40.0377C52.0578 43.7215 43.9125 46 35.1396 46C26.3666 46 18.2213 43.7215 12.1566 40.0377C4.64571 35.4738 0 28.7133 0 20.8341C0 12.9548 4.64571 6.19428 12.1566 1.63043C12.6341 1.34391 13.1185 1.06421 13.6165 0.791331C9.85763 3.5542 7.6405 7.05384 7.6405 10.9423C7.6405 15.8336 11.1402 20.1041 16.8023 23.0648C21.9256 25.7458 28.9248 27.4035 36.5926 27.4035C44.2604 27.4035 51.2665 25.7458 56.3829 23.0648C62.0451 20.1041 65.5447 15.8268 65.5447 10.9423C65.5447 9.5984 65.2855 8.30224 64.7807 7.0743ZM20.9091 19.0126C22.7169 15.9018 28.4677 12.8797 35.5966 11.6245C44.622 10.0282 52.4399 11.8633 53.0538 15.7244C53.2244 16.8023 52.8151 17.9143 51.9487 19.0058C52.8014 18.6783 53.4768 18.3918 53.852 18.194C57.6723 16.1952 60.0395 13.6165 60.0395 10.9423C60.0395 8.26131 57.6791 5.68945 53.852 3.69063C49.4928 1.41212 43.4009 0 36.6063 0C29.8117 0 23.7129 1.41212 19.3605 3.69063C15.5403 5.68945 13.1799 8.26814 13.1799 10.9423C13.1799 13.6233 15.5403 16.1952 19.3605 18.194C19.5857 18.3168 20.1996 18.6374 20.9091 19.0126Z" fill="#06C167"/>
<path fill-rule="evenodd" clip-rule="evenodd" d="M96.6591 36.5039C98.7739 36.5039 101.544 35.9786 103.263 33.9048V35.9309H110.569V2.48315H103.085V13.5278C101.325 11.8087 98.6852 11.1538 96.3521 11.1538C89.7076 11.1538 85.2188 16.1269 85.2188 23.8698C85.2188 31.5308 89.6666 36.5039 96.6591 36.5039ZM98.5965 29.8594C95.1173 29.8594 93.0503 27.5741 93.0503 23.8288C93.0503 19.9131 95.2947 17.8461 98.4191 17.8461C100.445 17.8461 102.383 18.767 103.263 20.3974V27.1716C102.294 29.0681 100.534 29.8594 98.5965 29.8594ZM114.253 35.9309H121.825V24.8385C121.825 20.7454 124.158 19.1149 127.323 19.1149C128.115 19.1149 128.954 19.2445 129.875 19.4219V11.2834C129.568 11.2425 129.213 11.1947 128.817 11.1947C125.782 11.1947 123.319 12.5182 121.511 14.6261V11.8087H114.253V35.9309ZM143.771 36.5039C151.828 36.5039 157.108 31.6604 157.108 23.8698C157.108 16.1269 151.828 11.1947 143.771 11.1947C135.673 11.1947 130.393 16.1269 130.393 23.8698C130.386 31.6604 135.673 36.5039 143.771 36.5039ZM143.771 29.682C140.428 29.682 138.225 27.4376 138.225 23.8698C138.225 20.3497 140.428 18.0166 143.771 18.0166C147.073 18.0166 149.269 20.3497 149.269 23.8698C149.269 27.4376 147.066 29.682 143.771 29.682ZM159.775 43.7215H167.211V33.9048C168.882 35.9718 171.57 36.5039 173.678 36.5039C180.63 36.5039 185.078 31.5308 185.078 23.8698C185.078 16.1269 180.589 11.1538 173.985 11.1538C171.652 11.1538 169.012 11.8155 167.204 13.5278V11.8087H159.768V43.7215H159.775ZM171.741 29.8594C169.762 29.8594 168.043 29.0681 167.075 27.1716V20.3974C167.955 18.767 169.892 17.8461 171.87 17.8461C175.036 17.8461 177.239 19.9131 177.239 23.8288C177.246 27.5741 175.179 29.8594 171.741 29.8594ZM187.752 43.7215H195.188V33.9048C196.859 35.9718 199.547 36.5039 201.655 36.5039C208.606 36.5039 213.054 31.5308 213.054 23.8698C213.054 16.1269 208.565 11.1538 201.962 11.1538C199.629 11.1538 196.989 11.8155 195.181 13.5278V11.8087H187.745V43.7215H187.752ZM199.717 29.8594C197.739 29.8594 196.02 29.0681 195.051 27.1716V20.3974C195.931 18.767 197.869 17.8461 199.847 17.8461C203.019 17.8461 205.216 19.9131 205.216 23.8288C205.223 27.5741 203.156 29.8594 199.717 29.8594ZM218.368 36.5926C220.742 36.5926 222.68 34.6552 222.68 32.2334C222.68 29.8594 220.742 27.8742 218.368 27.8742C215.994 27.8742 214.009 29.8526 214.009 32.2334C214.009 34.6552 215.988 36.5926 218.368 36.5926Z" fill="#142428"/>
</svg>
