<svg width="5084" height="257" viewBox="0 0 5084 257" fill="none" xmlns="http://www.w3.org/2000/svg">
<path d="M102 5.99998C135.833 5.99998 164.067 17.7833 186.7 41.35C209.567 64.6833 221 93.7333 221 128.5C221 163.267 209.567 192.433 186.7 216C164.067 239.333 135.833 251 102 251H0.5V5.99998H102ZM102 183.1C116.233 183.1 127.9 178.083 137 168.05C146.333 157.783 151 144.6 151 128.5C151 112.4 146.333 99.3333 137 89.3C127.9 79.0333 116.233 73.9 102 73.9H74V183.1H102ZM373.627 250.65L334.777 173.65H317.277V250.65H247.277V5.64999H345.277C372.111 5.64999 394.277 13.5833 411.777 29.45C429.277 45.0833 438.027 65.85 438.027 91.75C438.027 106.217 434.644 119.283 427.877 130.95C421.344 142.617 412.127 152.067 400.227 159.3L448.527 250.65H373.627ZM317.277 70.05V115.55H343.877C351.344 115.783 357.177 113.917 361.377 109.95C365.811 105.983 368.027 100.383 368.027 93.15C368.027 85.9167 365.811 80.3167 361.377 76.35C357.177 72.15 351.344 70.05 343.877 70.05H317.277ZM675.759 219.85C650.793 244.35 620.109 256.6 583.709 256.6C547.309 256.6 516.509 244.35 491.309 219.85C466.343 195.117 453.859 164.667 453.859 128.5C453.859 92.3333 466.343 62 491.309 37.5C516.509 12.7667 547.309 0.399993 583.709 0.399993C620.109 0.399993 650.793 12.7667 675.759 37.5C700.959 62 713.559 92.3333 713.559 128.5C713.559 164.667 700.959 195.117 675.759 219.85ZM540.659 171.2C552.093 182.4 566.443 188 583.709 188C600.976 188 615.209 182.4 626.409 171.2C637.843 159.767 643.559 145.533 643.559 128.5C643.559 111.467 637.843 97.35 626.409 86.15C615.209 74.7167 600.976 69 583.709 69C566.443 69 552.093 74.7167 540.659 86.15C529.459 97.35 523.859 111.467 523.859 128.5C523.859 145.533 529.459 159.767 540.659 171.2ZM837.807 5.99998C863.24 5.99998 884.473 14.05 901.507 30.15C918.54 46.0167 927.057 67.25 927.057 93.85C927.057 120.45 918.54 141.8 901.507 157.9C884.473 173.767 863.24 181.7 837.807 181.7H809.807V251H739.807V5.99998H837.807ZM837.807 113.8C843.173 113.8 847.723 112.05 851.457 108.55C855.19 104.817 857.057 99.9167 857.057 93.85C857.057 87.7833 855.19 83 851.457 79.5C847.723 75.7667 843.173 73.9 837.807 73.9H809.807V113.8H837.807ZM1045.96 5.99998C1071.39 5.99998 1092.63 14.05 1109.66 30.15C1126.69 46.0167 1135.21 67.25 1135.21 93.85C1135.21 120.45 1126.69 141.8 1109.66 157.9C1092.63 173.767 1071.39 181.7 1045.96 181.7H1017.96V251H947.961V5.99998H1045.96ZM1045.96 113.8C1051.33 113.8 1055.88 112.05 1059.61 108.55C1063.34 104.817 1065.21 99.9167 1065.21 93.85C1065.21 87.7833 1063.34 83 1059.61 79.5C1055.88 75.7667 1051.33 73.9 1045.96 73.9H1017.96V113.8H1045.96ZM1184.6 244.7C1176.9 252.4 1167.45 256.25 1156.25 256.25C1145.05 256.25 1135.49 252.4 1127.55 244.7C1119.85 236.767 1116 227.2 1116 216C1116 204.8 1119.85 195.35 1127.55 187.65C1135.49 179.717 1145.05 175.75 1156.25 175.75C1167.45 175.75 1176.9 179.717 1184.6 187.65C1192.54 195.35 1196.5 204.8 1196.5 216C1196.5 227.2 1192.54 236.767 1184.6 244.7ZM1397.75 5.99998C1431.59 5.99998 1459.82 17.7833 1482.45 41.35C1505.32 64.6833 1516.75 93.7333 1516.75 128.5C1516.75 163.267 1505.32 192.433 1482.45 216C1459.82 239.333 1431.59 251 1397.75 251H1296.25V5.99998H1397.75ZM1397.75 183.1C1411.99 183.1 1423.65 178.083 1432.75 168.05C1442.09 157.783 1446.75 144.6 1446.75 128.5C1446.75 112.4 1442.09 99.3333 1432.75 89.3C1423.65 79.0333 1411.99 73.9 1397.75 73.9H1369.75V183.1H1397.75ZM1669.38 250.65L1630.53 173.65H1613.03V250.65H1543.03V5.64999H1641.03C1667.86 5.64999 1690.03 13.5833 1707.53 29.45C1725.03 45.0833 1733.78 65.85 1733.78 91.75C1733.78 106.217 1730.4 119.283 1723.63 130.95C1717.1 142.617 1707.88 152.067 1695.98 159.3L1744.28 250.65H1669.38ZM1613.03 70.05V115.55H1639.63C1647.1 115.783 1652.93 113.917 1657.13 109.95C1661.56 105.983 1663.78 100.383 1663.78 93.15C1663.78 85.9167 1661.56 80.3167 1657.13 76.35C1652.93 72.15 1647.1 70.05 1639.63 70.05H1613.03ZM1971.51 219.85C1946.54 244.35 1915.86 256.6 1879.46 256.6C1843.06 256.6 1812.26 244.35 1787.06 219.85C1762.09 195.117 1749.61 164.667 1749.61 128.5C1749.61 92.3333 1762.09 62 1787.06 37.5C1812.26 12.7667 1843.06 0.399993 1879.46 0.399993C1915.86 0.399993 1946.54 12.7667 1971.51 37.5C1996.71 62 2009.31 92.3333 2009.31 128.5C2009.31 164.667 1996.71 195.117 1971.51 219.85ZM1836.41 171.2C1847.84 182.4 1862.19 188 1879.46 188C1896.73 188 1910.96 182.4 1922.16 171.2C1933.59 159.767 1939.31 145.533 1939.31 128.5C1939.31 111.467 1933.59 97.35 1922.16 86.15C1910.96 74.7167 1896.73 69 1879.46 69C1862.19 69 1847.84 74.7167 1836.41 86.15C1825.21 97.35 1819.61 111.467 1819.61 128.5C1819.61 145.533 1825.21 159.767 1836.41 171.2ZM2133.56 5.99998C2158.99 5.99998 2180.23 14.05 2197.26 30.15C2214.29 46.0167 2222.81 67.25 2222.81 93.85C2222.81 120.45 2214.29 141.8 2197.26 157.9C2180.23 173.767 2158.99 181.7 2133.56 181.7H2105.56V251H2035.56V5.99998H2133.56ZM2133.56 113.8C2138.93 113.8 2143.48 112.05 2147.21 108.55C2150.94 104.817 2152.81 99.9167 2152.81 93.85C2152.81 87.7833 2150.94 83 2147.21 79.5C2143.48 75.7667 2138.93 73.9 2133.56 73.9H2105.56V113.8H2133.56ZM2341.71 5.99998C2367.15 5.99998 2388.38 14.05 2405.41 30.15C2422.45 46.0167 2430.96 67.25 2430.96 93.85C2430.96 120.45 2422.45 141.8 2405.41 157.9C2388.38 173.767 2367.15 181.7 2341.71 181.7H2313.71V251H2243.71V5.99998H2341.71ZM2341.71 113.8C2347.08 113.8 2351.63 112.05 2355.36 108.55C2359.1 104.817 2360.96 99.9167 2360.96 93.85C2360.96 87.7833 2359.1 83 2355.36 79.5C2351.63 75.7667 2347.08 73.9 2341.71 73.9H2313.71V113.8H2341.71ZM2480.35 244.7C2472.65 252.4 2463.2 256.25 2452 256.25C2440.8 256.25 2431.24 252.4 2423.3 244.7C2415.6 236.767 2411.75 227.2 2411.75 216C2411.75 204.8 2415.6 195.35 2423.3 187.65C2431.24 179.717 2440.8 175.75 2452 175.75C2463.2 175.75 2472.65 179.717 2480.35 187.65C2488.29 195.35 2492.25 204.8 2492.25 216C2492.25 227.2 2488.29 236.767 2480.35 244.7ZM2693.5 5.99998C2727.34 5.99998 2755.57 17.7833 2778.2 41.35C2801.07 64.6833 2812.5 93.7333 2812.5 128.5C2812.5 163.267 2801.07 192.433 2778.2 216C2755.57 239.333 2727.34 251 2693.5 251H2592V5.99998H2693.5ZM2693.5 183.1C2707.74 183.1 2719.4 178.083 2728.5 168.05C2737.84 157.783 2742.5 144.6 2742.5 128.5C2742.5 112.4 2737.84 99.3333 2728.5 89.3C2719.4 79.0333 2707.74 73.9 2693.5 73.9H2665.5V183.1H2693.5ZM2965.13 250.65L2926.28 173.65H2908.78V250.65H2838.78V5.64999H2936.78C2963.61 5.64999 2985.78 13.5833 3003.28 29.45C3020.78 45.0833 3029.53 65.85 3029.53 91.75C3029.53 106.217 3026.15 119.283 3019.38 130.95C3012.85 142.617 3003.63 152.067 2991.73 159.3L3040.03 250.65H2965.13ZM2908.78 70.05V115.55H2935.38C2942.85 115.783 2948.68 113.917 2952.88 109.95C2957.31 105.983 2959.53 100.383 2959.53 93.15C2959.53 85.9167 2957.31 80.3167 2952.88 76.35C2948.68 72.15 2942.85 70.05 2935.38 70.05H2908.78ZM3267.26 219.85C3242.3 244.35 3211.61 256.6 3175.21 256.6C3138.81 256.6 3108.01 244.35 3082.81 219.85C3057.85 195.117 3045.36 164.667 3045.36 128.5C3045.36 92.3333 3057.85 62 3082.81 37.5C3108.01 12.7667 3138.81 0.399993 3175.21 0.399993C3211.61 0.399993 3242.3 12.7667 3267.26 37.5C3292.46 62 3305.06 92.3333 3305.06 128.5C3305.06 164.667 3292.46 195.117 3267.26 219.85ZM3132.16 171.2C3143.6 182.4 3157.95 188 3175.21 188C3192.48 188 3206.71 182.4 3217.91 171.2C3229.35 159.767 3235.06 145.533 3235.06 128.5C3235.06 111.467 3229.35 97.35 3217.91 86.15C3206.71 74.7167 3192.48 69 3175.21 69C3157.95 69 3143.6 74.7167 3132.16 86.15C3120.96 97.35 3115.36 111.467 3115.36 128.5C3115.36 145.533 3120.96 159.767 3132.16 171.2ZM3429.31 5.99998C3454.74 5.99998 3475.98 14.05 3493.01 30.15C3510.04 46.0167 3518.56 67.25 3518.56 93.85C3518.56 120.45 3510.04 141.8 3493.01 157.9C3475.98 173.767 3454.74 181.7 3429.31 181.7H3401.31V251H3331.31V5.99998H3429.31ZM3429.31 113.8C3434.68 113.8 3439.23 112.05 3442.96 108.55C3446.69 104.817 3448.56 99.9167 3448.56 93.85C3448.56 87.7833 3446.69 83 3442.96 79.5C3439.23 75.7667 3434.68 73.9 3429.31 73.9H3401.31V113.8H3429.31ZM3637.46 5.99998C3662.9 5.99998 3684.13 14.05 3701.16 30.15C3718.2 46.0167 3726.71 67.25 3726.71 93.85C3726.71 120.45 3718.2 141.8 3701.16 157.9C3684.13 173.767 3662.9 181.7 3637.46 181.7H3609.46V251H3539.46V5.99998H3637.46ZM3637.46 113.8C3642.83 113.8 3647.38 112.05 3651.11 108.55C3654.85 104.817 3656.71 99.9167 3656.71 93.85C3656.71 87.7833 3654.85 83 3651.11 79.5C3647.38 75.7667 3642.83 73.9 3637.46 73.9H3609.46V113.8H3637.46ZM3776.11 244.7C3768.41 252.4 3758.96 256.25 3747.76 256.25C3736.56 256.25 3726.99 252.4 3719.06 244.7C3711.36 236.767 3707.51 227.2 3707.51 216C3707.51 204.8 3711.36 195.35 3719.06 187.65C3726.99 179.717 3736.56 175.75 3747.76 175.75C3758.96 175.75 3768.41 179.717 3776.11 187.65C3784.04 195.35 3788.01 204.8 3788.01 216C3788.01 227.2 3784.04 236.767 3776.11 244.7ZM3989.26 5.99998C4023.09 5.99998 4051.32 17.7833 4073.96 41.35C4096.82 64.6833 4108.26 93.7333 4108.26 128.5C4108.26 163.267 4096.82 192.433 4073.96 216C4051.32 239.333 4023.09 251 3989.26 251H3887.76V5.99998H3989.26ZM3989.26 183.1C4003.49 183.1 4015.16 178.083 4024.26 168.05C4033.59 157.783 4038.26 144.6 4038.26 128.5C4038.26 112.4 4033.59 99.3333 4024.26 89.3C4015.16 79.0333 4003.49 73.9 3989.26 73.9H3961.26V183.1H3989.26ZM4260.88 250.65L4222.03 173.65H4204.53V250.65H4134.53V5.64999H4232.53C4259.37 5.64999 4281.53 13.5833 4299.03 29.45C4316.53 45.0833 4325.28 65.85 4325.28 91.75C4325.28 106.217 4321.9 119.283 4315.13 130.95C4308.6 142.617 4299.38 152.067 4287.48 159.3L4335.78 250.65H4260.88ZM4204.53 70.05V115.55H4231.13C4238.6 115.783 4244.43 113.917 4248.63 109.95C4253.07 105.983 4255.28 100.383 4255.28 93.15C4255.28 85.9167 4253.07 80.3167 4248.63 76.35C4244.43 72.15 4238.6 70.05 4231.13 70.05H4204.53ZM4563.02 219.85C4538.05 244.35 4507.37 256.6 4470.97 256.6C4434.57 256.6 4403.77 244.35 4378.57 219.85C4353.6 195.117 4341.12 164.667 4341.12 128.5C4341.12 92.3333 4353.6 62 4378.57 37.5C4403.77 12.7667 4434.57 0.399993 4470.97 0.399993C4507.37 0.399993 4538.05 12.7667 4563.02 37.5C4588.22 62 4600.82 92.3333 4600.82 128.5C4600.82 164.667 4588.22 195.117 4563.02 219.85ZM4427.92 171.2C4439.35 182.4 4453.7 188 4470.97 188C4488.23 188 4502.47 182.4 4513.67 171.2C4525.1 159.767 4530.82 145.533 4530.82 128.5C4530.82 111.467 4525.1 97.35 4513.67 86.15C4502.47 74.7167 4488.23 69 4470.97 69C4453.7 69 4439.35 74.7167 4427.92 86.15C4416.72 97.35 4411.12 111.467 4411.12 128.5C4411.12 145.533 4416.72 159.767 4427.92 171.2ZM4725.06 5.99998C4750.5 5.99998 4771.73 14.05 4788.76 30.15C4805.8 46.0167 4814.31 67.25 4814.31 93.85C4814.31 120.45 4805.8 141.8 4788.76 157.9C4771.73 173.767 4750.5 181.7 4725.06 181.7H4697.06V251H4627.06V5.99998H4725.06ZM4725.06 113.8C4730.43 113.8 4734.98 112.05 4738.71 108.55C4742.45 104.817 4744.31 99.9167 4744.31 93.85C4744.31 87.7833 4742.45 83 4738.71 79.5C4734.98 75.7667 4730.43 73.9 4725.06 73.9H4697.06V113.8H4725.06ZM4933.22 5.99998C4958.65 5.99998 4979.88 14.05 4996.92 30.15C5013.95 46.0167 5022.47 67.25 5022.47 93.85C5022.47 120.45 5013.95 141.8 4996.92 157.9C4979.88 173.767 4958.65 181.7 4933.22 181.7H4905.22V251H4835.22V5.99998H4933.22ZM4933.22 113.8C4938.58 113.8 4943.13 112.05 4946.87 108.55C4950.6 104.817 4952.47 99.9167 4952.47 93.85C4952.47 87.7833 4950.6 83 4946.87 79.5C4943.13 75.7667 4938.58 73.9 4933.22 73.9H4905.22V113.8H4933.22ZM5071.86 244.7C5064.16 252.4 5054.71 256.25 5043.51 256.25C5032.31 256.25 5022.74 252.4 5014.81 244.7C5007.11 236.767 5003.26 227.2 5003.26 216C5003.26 204.8 5007.11 195.35 5014.81 187.65C5022.74 179.717 5032.31 175.75 5043.51 175.75C5054.71 175.75 5064.16 179.717 5071.86 187.65C5079.79 195.35 5083.76 204.8 5083.76 216C5083.76 227.2 5079.79 236.767 5071.86 244.7Z" fill="#FFE6B4"/>
</svg>
