<svg width="73" height="12" viewBox="0 0 73 12" fill="none" xmlns="http://www.w3.org/2000/svg">
<path d="M27.99 4.80515C28.0549 4.49072 27.7951 4.1134 27.4704 4.1134L23.7682 3.6103L22.0795 0.340189C22.0146 0.214415 21.9496 0.151528 21.8197 0.0886414C21.495 -0.100019 21.1053 0.0257547 20.9104 0.340189L19.2867 3.6103L15.5845 4.1134C15.3897 4.1134 15.2598 4.17628 15.1948 4.30206C14.9351 4.5536 14.9351 4.93092 15.1948 5.18247L17.8578 7.69794L17.2083 11.2825C17.2083 11.4083 17.2083 11.534 17.2732 11.6598C17.4681 11.9742 17.8578 12.1 18.1825 11.9114L21.495 10.2134L24.8074 11.9114C24.8724 11.9742 25.0023 11.9742 25.1322 11.9742C25.1971 11.9742 25.1971 11.9742 25.2621 11.9742C25.5868 11.9114 25.8466 11.5969 25.7817 11.2196L25.1322 7.63506L27.7951 5.11959C27.925 5.0567 27.99 4.93093 27.99 4.80515Z" fill="#E85666"/>
<path d="M12.99 4.80515C13.0549 4.49072 12.7951 4.1134 12.4704 4.1134L8.76824 3.6103L7.07954 0.340189C7.01459 0.214415 6.94964 0.151528 6.81974 0.0886414C6.49499 -0.100019 6.10529 0.0257547 5.91044 0.340189L4.28669 3.6103L0.584549 4.1134C0.389699 4.1134 0.2598 4.17628 0.19485 4.30206C-0.0649499 4.5536 -0.0649499 4.93092 0.19485 5.18247L2.8578 7.69794L2.2083 11.2825C2.2083 11.4083 2.2083 11.534 2.27325 11.6598C2.4681 11.9742 2.8578 12.1 3.18255 11.9114L6.49499 10.2134L9.80744 11.9114C9.87239 11.9742 10.0023 11.9742 10.1322 11.9742C10.1971 11.9742 10.1971 11.9742 10.2621 11.9742C10.5868 11.9114 10.8466 11.5969 10.7817 11.2196L10.1322 7.63506L12.7951 5.11959C12.925 5.0567 12.99 4.93093 12.99 4.80515Z" fill="#E85666"/>
<path d="M42.99 4.80515C43.0549 4.49072 42.7951 4.1134 42.4704 4.1134L38.7682 3.6103L37.0795 0.340189C37.0146 0.214415 36.9496 0.151528 36.8197 0.0886414C36.495 -0.100019 36.1053 0.0257547 35.9104 0.340189L34.2867 3.6103L30.5845 4.1134C30.3897 4.1134 30.2598 4.17628 30.1948 4.30206C29.9351 4.5536 29.9351 4.93092 30.1948 5.18247L32.8578 7.69794L32.2083 11.2825C32.2083 11.4083 32.2083 11.534 32.2732 11.6598C32.4681 11.9742 32.8578 12.1 33.1825 11.9114L36.495 10.2134L39.8074 11.9114C39.8724 11.9742 40.0023 11.9742 40.1322 11.9742C40.1971 11.9742 40.1971 11.9742 40.2621 11.9742C40.5868 11.9114 40.8466 11.5969 40.7817 11.2196L40.1322 7.63506L42.7951 5.11959C42.925 5.0567 42.99 4.93093 42.99 4.80515Z" fill="#E85666"/>
<path d="M57.99 4.80515C58.0549 4.49072 57.7951 4.1134 57.4704 4.1134L53.7682 3.6103L52.0795 0.340189C52.0146 0.214415 51.9496 0.151528 51.8197 0.0886414C51.495 -0.100019 51.1053 0.0257547 50.9104 0.340189L49.2867 3.6103L45.5845 4.1134C45.3897 4.1134 45.2598 4.17628 45.1948 4.30206C44.9351 4.5536 44.9351 4.93092 45.1948 5.18247L47.8578 7.69794L47.2083 11.2825C47.2083 11.4083 47.2083 11.534 47.2732 11.6598C47.4681 11.9742 47.8578 12.1 48.1825 11.9114L51.495 10.2134L54.8074 11.9114C54.8724 11.9742 55.0023 11.9742 55.1322 11.9742C55.1971 11.9742 55.1971 11.9742 55.2621 11.9742C55.5868 11.9114 55.8466 11.5969 55.7817 11.2196L55.1322 7.63506L57.7951 5.11959C57.925 5.0567 57.99 4.93092 57.99 4.80515Z" fill="#E85666"/>
<path d="M72.99 4.80515C73.0549 4.49072 72.7951 4.1134 72.4704 4.1134L68.7682 3.6103L67.0795 0.340189C67.0146 0.214415 66.9496 0.151528 66.8197 0.0886414C66.495 -0.100019 66.1053 0.0257547 65.9104 0.340189L64.2867 3.6103L60.5845 4.1134C60.3897 4.1134 60.2598 4.17628 60.1948 4.30206C59.9351 4.5536 59.9351 4.93092 60.1948 5.18247L62.8578 7.69794L62.2083 11.2825C62.2083 11.4083 62.2083 11.534 62.2732 11.6598C62.4681 11.9742 62.8578 12.1 63.1825 11.9114L66.495 10.2134L69.8074 11.9114C69.8724 11.9742 70.0023 11.9742 70.1322 11.9742C70.1971 11.9742 70.1971 11.9742 70.2621 11.9742C70.5868 11.9114 70.8466 11.5969 70.7817 11.2196L70.1322 7.63506L72.7951 5.11959C72.925 5.0567 72.99 4.93093 72.99 4.80515Z" fill="#E85666"/>
</svg>
