<svg width="714" height="275" viewBox="0 0 714 275" fill="none" xmlns="http://www.w3.org/2000/svg">
<g clip-path="url(#clip0_8802_35852)">
<rect width="714" height="275" rx="20" fill="#E85666"/>
<g clip-path="url(#clip1_8802_35852)">
<path d="M-160.339 166.587C-127.367 198.501 -161.839 234.115 -128.862 266.035C-95.8843 297.954 -61.4126 262.34 -28.4411 294.254C4.53036 326.168 -29.9354 361.788 3.04198 393.708C36.0194 425.627 70.4852 390.008 103.463 421.927C136.44 453.847 101.968 489.461 134.94 521.375C167.911 553.289 202.389 517.681 235.366 549.601C268.344 581.52 233.872 617.134 266.849 649.054C299.827 680.974 334.298 645.36 367.276 677.28M-263.703 273.376C-230.732 305.29 -265.203 340.904 -232.226 372.824C-199.249 404.744 -164.777 369.13 -131.805 401.044C-98.8339 432.958 -133.3 468.577 -100.322 500.497C-67.3448 532.417 -32.879 496.797 0.0983648 528.717C33.0758 560.636 -1.39597 596.25 31.5755 628.164C64.5469 660.078 99.0246 624.47 132.002 656.39C164.979 688.31 130.508 723.924 163.485 755.843C196.463 787.763 230.934 752.149 263.912 784.069M-56.9747 59.7978C-24.0033 91.7118 -58.475 127.326 -25.4976 159.245C7.47979 191.165 41.9515 155.551 74.923 187.465C107.894 219.379 73.4287 254.999 106.406 286.919C139.383 318.838 173.849 283.219 206.827 315.138C239.804 347.058 205.332 382.672 238.304 414.586C271.275 446.5 305.753 410.892 338.73 442.812C371.708 474.731 337.236 510.345 370.213 542.265C403.191 574.185 437.663 538.571 470.64 570.49M98.0716 -100.386C131.043 -68.4721 96.5713 -32.8581 129.549 -0.938403C162.526 30.9813 196.998 -4.63269 229.969 27.2813C262.941 59.1953 228.475 94.815 261.452 126.735C294.43 158.654 328.896 123.035 361.873 154.954C394.85 186.874 360.379 222.488 393.35 254.402C426.322 286.316 460.799 250.708 493.777 282.628C526.754 314.547 492.282 350.161 525.26 382.081C558.237 414.001 592.709 378.387 625.686 410.307M-315.385 326.771C-282.414 358.685 -316.885 394.299 -283.908 426.219C-250.931 458.138 -216.459 422.524 -183.487 454.438C-150.516 486.352 -184.982 521.972 -152.004 553.892C-119.027 585.811 -84.5612 550.192 -51.5838 582.111C-18.6064 614.031 -53.0781 649.645 -20.1067 681.559C12.8648 713.473 47.3425 677.865 80.3199 709.785C113.297 741.704 78.8255 777.318 111.803 809.238C144.78 841.158 179.252 805.544 212.229 837.463M-108.657 113.192C-75.6853 145.106 -110.157 180.72 -77.1796 212.64C-44.2022 244.56 -9.73048 208.946 23.241 240.86C56.2124 272.774 21.7467 308.393 54.7241 340.313C87.7015 372.233 122.167 336.613 155.145 368.533C188.122 400.453 153.65 436.067 186.622 467.981C219.593 499.895 254.071 464.286 287.048 496.206C320.026 528.126 285.554 563.74 318.531 595.659C351.509 627.579 385.981 591.965 418.958 623.885M46.3895 -46.9914C79.3609 -15.0775 44.8892 20.5365 77.8666 52.4563C110.844 84.376 145.316 48.762 178.287 80.6759C211.259 112.59 176.793 148.21 209.77 180.129C242.748 212.049 277.213 176.429 310.191 208.349C343.168 240.269 308.697 275.883 341.668 307.797C374.639 339.711 409.117 304.103 442.095 336.022C475.072 367.942 440.6 403.556 473.578 435.476C506.555 467.395 541.027 431.781 574.004 463.701M-212.021 219.982C-179.049 251.896 -213.521 287.51 -180.544 319.429C-147.566 351.349 -113.095 315.735 -80.1232 347.649C-47.1518 379.563 -81.6176 415.183 -48.6402 447.102C-15.6628 479.022 18.803 443.402 51.7804 475.322C84.7578 507.242 50.2861 542.856 83.2576 574.77C116.229 606.684 150.707 571.076 183.684 602.995C216.662 634.915 182.19 670.529 215.167 702.449C248.145 734.368 282.616 698.754 315.594 730.674M-5.29268 6.40325C27.6788 38.3172 -6.79296 73.9312 26.1844 105.851C59.1618 137.771 93.6336 102.157 126.605 134.071C159.576 165.985 125.111 201.604 158.088 233.524C191.066 265.444 225.531 229.824 258.509 261.744C291.486 293.664 257.014 329.278 289.986 361.191C322.957 393.105 357.435 357.497 390.412 389.417C423.39 421.337 388.918 456.951 421.895 488.87C454.873 520.79 489.345 485.176 522.322 517.096M149.754 -153.781C182.725 -121.867 148.253 -86.2526 181.231 -54.3329C214.208 -22.4132 248.68 -58.0272 281.651 -26.1132C314.623 5.80074 280.157 41.4205 313.134 73.3402C346.112 105.26 380.578 69.6402 413.555 101.56C446.532 133.48 412.061 169.094 445.032 201.008C478.004 232.922 512.481 197.313 545.459 229.233C578.436 261.153 543.964 296.767 576.942 328.687C609.919 360.606 644.391 324.992 677.368 356.912M-143.129 148.806C-110.157 180.72 -144.629 216.334 -111.651 248.254C-78.674 280.174 -44.2022 244.56 -11.2308 276.474C21.7407 308.388 -12.7251 344.007 20.2523 375.927C53.2297 407.847 87.6955 372.227 120.673 404.147C153.65 436.067 119.179 471.681 152.15 503.595C185.121 535.509 219.599 499.9 252.577 531.82C285.554 563.74 251.082 599.354 284.06 631.273C317.037 663.193 351.509 627.579 384.486 659.499M-246.493 255.596C-213.521 287.51 -247.993 323.124 -215.016 355.043C-182.038 386.963 -147.566 351.349 -114.595 383.263C-81.6235 415.177 -116.089 450.797 -83.1119 482.716C-50.1345 514.636 -15.6687 479.016 17.3087 510.936C50.2861 542.856 15.8143 578.47 48.7858 610.384C81.7573 642.298 116.235 606.69 149.212 638.609C182.19 670.529 147.718 706.143 180.695 738.063C213.673 769.982 248.145 734.368 281.122 766.288M-39.7644 42.0172C-6.79294 73.9312 -41.2647 109.545 -8.28727 141.465C24.6901 173.385 59.1619 137.771 92.1333 169.685C125.105 201.599 90.639 237.218 123.616 269.138C156.594 301.058 191.06 265.438 224.037 297.358C257.014 329.277 222.543 364.891 255.514 396.805C288.486 428.719 322.963 393.111 355.941 425.031C388.918 456.951 354.446 492.565 387.424 524.484C420.401 556.404 454.873 520.79 487.85 552.71M115.282 -118.167C148.253 -86.2526 113.782 -50.6386 146.759 -18.7189C179.736 13.2008 214.208 -22.4132 247.18 9.50077C280.151 41.4147 245.685 77.0345 278.663 108.954C311.64 140.874 346.106 105.254 379.083 137.174C412.061 169.094 377.589 204.708 410.56 236.622C443.532 268.536 478.01 232.927 510.987 264.847C543.964 296.767 509.493 332.381 542.47 364.301C575.447 396.22 609.919 360.606 642.897 392.526M-298.175 308.99C-265.203 340.904 -299.675 376.518 -266.698 408.438C-233.72 440.358 -199.249 404.744 -166.277 436.658C-133.306 468.572 -167.771 504.191 -134.794 536.111C-101.817 568.031 -67.3509 532.411 -34.3735 564.331C-1.39607 596.251 -35.8678 631.865 -2.89635 663.778C30.0751 695.692 64.5528 660.084 97.5302 692.004C130.508 723.924 96.0359 759.538 129.013 791.457C161.991 823.377 196.462 787.763 229.44 819.683M-91.4465 95.4119C-58.4751 127.326 -92.9468 162.94 -59.9694 194.86C-26.992 226.779 7.47971 191.165 40.4512 223.079C73.4226 254.993 38.9568 290.613 71.9342 322.533C104.912 354.452 139.377 318.833 172.355 350.752C205.332 382.672 170.861 418.286 203.832 450.2C236.803 482.114 271.281 446.506 304.259 478.426C337.236 510.345 302.764 545.959 335.742 577.879C368.719 609.799 403.191 574.185 436.168 606.104M63.5997 -64.772C96.5712 -32.858 62.0994 2.75602 95.0768 34.6758C128.054 66.5955 162.526 30.9815 195.497 62.8954C228.469 94.8094 194.003 130.429 226.981 162.349C259.958 194.269 294.424 158.649 327.401 190.569C360.379 222.488 325.907 258.102 358.878 290.016C391.85 321.93 426.327 286.322 459.305 318.242C492.282 350.161 457.81 385.775 490.788 417.695C523.765 449.615 558.237 414.001 591.214 445.921M-194.811 202.201C-161.839 234.115 -196.311 269.729 -163.334 301.649C-130.356 333.568 -95.8844 297.954 -62.9129 329.868C-29.9415 361.782 -64.4073 397.402 -31.4299 429.322C1.54755 461.242 36.0133 425.622 68.9907 457.542C101.968 489.461 67.4964 525.075 100.468 556.989C133.439 588.903 167.917 553.295 200.894 585.215C233.872 617.134 199.4 652.748 232.377 684.668C265.355 716.588 299.827 680.974 332.804 712.894M11.9178 -11.3775C44.8892 20.5365 10.4175 56.1505 43.3949 88.0702C76.3723 119.99 110.844 84.3759 143.815 116.29C176.787 148.204 142.321 183.824 175.299 215.743C208.276 247.663 242.742 212.043 275.719 243.963C308.697 275.883 274.225 311.497 307.196 343.411C340.168 375.325 374.645 339.717 407.623 371.636C440.6 403.556 406.128 439.17 439.106 471.09C472.083 503.009 506.555 467.395 539.532 499.315M166.964 -171.561C199.935 -139.647 165.464 -104.033 198.441 -72.1136C231.419 -40.1938 265.89 -75.8079 298.862 -43.8939C331.833 -11.9799 297.367 23.6399 330.345 55.5596C363.322 87.4793 397.788 51.8595 430.765 83.7793C463.743 115.699 429.271 151.313 462.243 183.227C495.214 215.141 529.692 179.533 562.669 211.452C595.647 243.372 561.175 278.986 594.152 310.906C627.13 342.826 661.601 307.212 694.579 339.131M-349.857 362.385C-316.885 394.299 -351.357 429.913 -318.38 461.832C-285.402 493.752 -250.931 458.138 -217.959 490.052C-184.988 521.966 -219.454 557.586 -186.476 589.506C-153.499 621.425 -119.033 585.806 -86.0555 617.725C-53.0781 649.645 -87.5498 685.259 -54.5784 717.173C-21.6069 749.087 12.8708 713.479 45.8482 745.398C78.8256 777.318 44.3538 812.932 77.3312 844.852C110.309 876.772 144.78 841.158 177.758 873.077M-332.647 344.604C-299.675 376.518 -334.147 412.132 -301.169 444.052C-268.192 475.972 -233.72 440.358 -200.749 472.272C-167.777 504.186 -202.243 539.805 -169.266 571.725C-136.288 603.645 -101.823 568.025 -68.8452 599.945C-35.8678 631.864 -70.3395 667.478 -37.368 699.392C-4.39659 731.306 30.0811 695.698 63.0585 727.618C96.0359 759.538 61.5642 795.152 94.5416 827.071C127.519 858.991 161.991 823.377 194.968 855.297M-125.918 131.026C-92.9467 162.94 -127.418 198.554 -94.441 230.473C-61.4636 262.393 -26.9919 226.779 5.97955 258.693C38.951 290.607 4.48523 326.227 37.4626 358.147C70.44 390.066 104.906 354.447 137.883 386.366C170.861 418.286 136.389 453.9 169.36 485.814C202.332 517.728 236.81 482.12 269.787 514.039C302.764 545.959 268.293 581.573 301.27 613.493C334.247 645.413 368.719 609.799 401.697 641.718M-229.282 237.815C-196.311 269.729 -230.783 305.343 -197.805 337.263C-164.828 369.182 -130.356 333.568 -97.3847 365.482C-64.4132 397.396 -98.879 433.016 -65.9016 464.936C-32.9242 496.856 1.54159 461.236 34.519 493.156C67.4964 525.075 33.0247 560.689 65.9961 592.603C98.9676 624.517 133.445 588.909 166.423 620.829C199.4 652.748 164.928 688.362 197.906 720.282C230.883 752.202 265.355 716.588 298.332 748.508M-22.5541 24.2366C10.4174 56.1506 -24.0543 91.7645 8.92306 123.684C41.9005 155.604 76.3722 119.99 109.344 151.904C142.315 183.818 107.849 219.438 140.827 251.357C173.804 283.277 208.27 247.657 241.247 279.577C274.225 311.497 239.753 347.111 272.724 379.025C305.696 410.939 340.174 375.331 373.151 407.25C406.128 439.17 371.657 474.784 404.634 506.704C437.611 538.623 472.083 503.009 505.061 534.929M132.492 -135.947C165.464 -104.033 130.992 -68.4192 163.969 -36.4995C196.947 -4.57975 231.418 -40.1938 264.39 -8.27979C297.361 23.6342 262.896 59.254 295.873 91.1737C328.85 123.093 363.316 87.4737 396.294 119.393C429.271 151.313 394.799 186.927 427.771 218.841C460.742 250.755 495.22 215.147 528.197 247.067C561.175 278.986 526.703 314.6 559.68 346.52C592.658 378.44 627.129 342.826 660.107 374.745M-280.965 291.21C-247.993 323.124 -282.465 358.738 -249.487 390.657C-216.51 422.577 -182.038 386.963 -149.067 418.877C-116.095 450.791 -150.561 486.411 -117.584 518.33C-84.6063 550.25 -50.1405 514.63 -17.1631 546.55C15.8143 578.47 -18.6575 614.084 14.314 645.998C47.2854 677.912 81.7631 642.304 114.741 674.223C147.718 706.143 113.246 741.757 146.224 773.677C179.201 805.597 213.673 769.983 246.65 801.902M-74.2361 77.6312C-41.2647 109.545 -75.7364 145.159 -42.759 177.079C-9.78159 208.999 24.6901 173.385 57.6616 205.299C90.6331 237.213 56.1673 272.832 89.1447 304.752C122.122 336.672 156.588 301.052 189.565 332.972C222.543 364.891 188.071 400.505 221.042 432.419C254.014 464.333 288.492 428.725 321.469 460.645C354.446 492.565 319.975 528.179 352.952 560.098C385.929 592.018 420.401 556.404 453.379 588.324M80.8102 -82.5527C113.782 -50.6387 79.3099 -15.0247 112.287 16.895C145.265 48.8148 179.736 13.2008 212.708 45.1147C245.679 77.0287 211.214 112.648 244.191 144.568C277.168 176.488 311.634 140.868 344.612 172.788C377.589 204.708 343.117 240.322 376.089 272.236C409.06 304.15 443.538 268.541 476.515 300.461C509.493 332.381 475.021 367.995 507.998 399.915C540.976 431.834 575.447 396.22 608.425 428.14M-177.6 184.42C-144.629 216.334 -179.101 251.948 -146.123 283.868C-113.146 315.788 -78.6741 280.174 -45.7026 312.088C-12.7311 344.002 -47.1969 379.621 -14.2195 411.541C18.7579 443.461 53.2237 407.841 86.2011 439.761C119.178 471.681 84.7068 507.295 117.678 539.209C150.65 571.123 185.127 535.514 218.105 567.434C251.082 599.354 216.61 634.968 249.588 666.888C282.565 698.807 317.037 663.193 350.014 695.113M29.128 -29.158C62.0995 2.75597 27.6277 38.37 60.6051 70.2897C93.5825 102.209 128.054 66.5954 161.026 98.5094C193.997 130.423 159.531 166.043 192.509 197.963C225.486 229.883 259.952 194.263 292.929 226.183C325.907 258.102 291.435 293.716 324.407 325.63C357.378 357.544 391.856 321.936 424.833 353.856C457.81 385.775 423.339 421.389 456.316 453.309C489.294 485.229 523.765 449.615 556.743 481.535M184.174 -189.342C217.146 -157.428 182.674 -121.814 215.651 -89.8941C248.629 -57.9744 283.101 -93.5884 316.072 -61.6745C349.043 -29.7605 314.578 5.85929 347.555 37.779C380.532 69.6987 414.998 34.079 447.976 65.9987C480.953 97.9184 446.481 133.532 479.453 165.446C512.424 197.36 546.902 161.752 579.879 193.672C612.857 225.592 578.385 261.206 611.362 293.125C644.34 325.045 678.812 289.431 711.789 321.351M203.325 -209.128C236.297 -177.214 201.825 -141.6 234.802 -109.68C267.78 -77.7601 302.252 -113.374 335.223 -81.4601C368.194 -49.5462 333.729 -13.9264 366.706 17.9933C399.683 49.9131 434.149 14.2933 467.127 46.213C500.104 78.1328 465.632 113.747 498.604 145.661C531.575 177.575 566.053 141.966 599.03 173.886C632.008 205.806 597.536 241.42 630.513 273.34C663.491 305.259 697.963 269.645 730.94 301.565M222.476 -228.913C255.448 -196.999 220.976 -161.385 253.953 -129.465C286.931 -97.5456 321.403 -133.16 354.374 -101.246C387.345 -69.3317 352.88 -33.7119 385.857 -1.79221C418.834 30.1275 453.3 -5.49224 486.278 26.4275C519.255 58.3472 484.783 93.9612 517.755 125.875C550.726 157.789 585.204 122.181 618.181 154.101C651.159 186.02 616.687 221.634 649.664 253.554C682.642 285.474 717.114 249.86 750.091 281.78M241.627 -248.699C274.599 -216.785 240.127 -181.171 273.104 -149.251C306.082 -117.331 340.553 -152.945 373.525 -121.031C406.496 -89.1173 372.031 -53.4975 405.008 -21.5778C437.985 10.342 472.451 -25.2778 505.429 6.64193C538.406 38.5617 503.934 74.1757 536.906 106.09C569.877 138.004 604.355 102.395 637.332 134.315C670.31 166.235 635.838 201.849 668.815 233.769C701.793 265.688 736.265 230.074 769.242 261.994M260.778 -268.484C293.75 -236.57 259.278 -200.956 292.255 -169.036C325.233 -137.117 359.704 -172.731 392.676 -140.817C425.647 -108.903 391.182 -73.283 424.159 -41.3633C457.136 -9.44358 491.602 -45.0633 524.58 -13.1436C557.557 18.7761 523.085 54.3901 556.057 86.3041C589.028 118.218 623.506 82.6098 656.483 114.53C689.461 146.449 654.989 182.063 687.966 213.983C720.944 245.903 755.416 210.289 788.393 242.208M279.929 -288.27C312.901 -256.356 278.429 -220.742 311.406 -188.822C344.384 -156.902 378.855 -192.516 411.827 -160.602C444.798 -128.688 410.333 -93.0686 443.31 -61.1489C476.287 -29.2291 510.753 -64.8489 543.731 -32.9292C576.708 -1.00944 542.236 34.6046 575.208 66.5185C608.179 98.4325 642.657 62.8243 675.634 94.744C708.612 126.664 674.14 162.278 707.117 194.197C740.095 226.117 774.566 190.503 807.544 222.423M299.08 -308.055C332.052 -276.141 297.58 -240.527 330.557 -208.608C363.535 -176.688 398.006 -212.302 430.978 -180.388C463.949 -148.474 429.484 -112.854 462.461 -80.9344C495.438 -49.0147 529.904 -84.6344 562.882 -52.7147C595.859 -20.795 561.387 14.819 594.359 46.733C627.33 78.647 661.808 43.0387 694.785 74.9584C727.763 106.878 693.291 142.492 726.268 174.412C759.246 206.332 793.717 170.718 826.695 202.637M318.231 -327.841C351.203 -295.927 316.731 -260.313 349.708 -228.393C382.686 -196.473 417.157 -232.087 450.129 -200.173C483.1 -168.259 448.634 -132.64 481.612 -100.72C514.589 -68.8002 549.055 -104.42 582.033 -72.5003C615.01 -40.5805 580.538 -4.96653 613.51 26.9474C646.481 58.8614 680.959 23.2532 713.936 55.1729C746.914 87.0926 712.442 122.707 745.419 154.626C778.397 186.546 812.868 150.932 845.846 182.852M337.382 -347.626C370.354 -315.712 335.882 -280.098 368.859 -248.179C401.837 -216.259 436.308 -251.873 469.28 -219.959C502.251 -188.045 467.785 -152.425 500.763 -120.506C533.74 -88.5858 568.206 -124.206 601.183 -92.2858C634.161 -60.3661 599.689 -24.7521 632.661 7.16189C665.632 39.0759 700.11 3.46761 733.087 35.3873C766.065 67.3071 731.593 102.921 764.57 134.841C797.548 166.761 832.019 131.147 864.997 163.066M356.533 -367.412C389.505 -335.498 355.033 -299.884 388.01 -267.964C420.988 -236.045 455.459 -271.659 488.431 -239.745C521.402 -207.831 486.936 -172.211 519.914 -140.291C552.891 -108.371 587.357 -143.991 620.334 -112.071C653.312 -80.1516 618.84 -44.5376 651.812 -12.6237C684.783 19.2903 719.261 -16.3179 752.238 15.6018C785.216 47.5215 750.744 83.1355 783.721 115.055C816.699 146.975 851.17 111.361 884.148 143.281M375.684 -387.197C408.655 -355.284 374.184 -319.67 407.161 -287.75C440.139 -255.83 474.61 -291.444 507.582 -259.53C540.553 -227.616 506.087 -191.996 539.065 -160.077C572.042 -128.157 606.508 -163.777 639.485 -131.857C672.463 -99.9372 637.991 -64.3232 670.963 -32.4092C703.934 -0.495245 738.412 -36.1035 771.389 -4.18376C804.367 27.736 769.895 63.35 802.872 95.2697C835.85 127.189 870.321 91.5754 903.299 123.495M394.835 -406.983C427.806 -375.069 393.335 -339.455 426.312 -307.535C459.29 -275.616 493.761 -311.23 526.733 -279.316C559.704 -247.402 525.238 -211.782 558.216 -179.862C591.193 -147.942 625.659 -183.562 658.636 -151.642C691.614 -119.723 657.142 -84.1087 690.114 -52.1948C723.085 -20.2808 757.563 -55.889 790.54 -23.9693C823.517 7.95041 789.046 43.5644 822.023 75.4842C855.001 107.404 889.472 71.7899 922.45 103.71M413.986 -426.769C446.957 -394.855 412.486 -359.241 445.463 -327.321C478.44 -295.401 512.912 -331.015 545.884 -299.101C578.855 -267.187 544.389 -231.567 577.367 -199.648C610.344 -167.728 644.81 -203.348 677.787 -171.428C710.765 -139.508 676.293 -103.894 709.264 -71.9803C742.236 -40.0663 776.714 -75.6746 809.691 -43.7549C842.668 -11.8351 808.197 23.7789 841.174 55.6986C874.152 87.6183 908.623 52.0043 941.601 83.9241M433.137 -446.554C466.108 -414.64 431.637 -379.026 464.614 -347.106C497.591 -315.187 532.063 -350.801 565.035 -318.887C598.006 -286.973 563.54 -251.353 596.518 -219.433C629.495 -187.514 663.961 -223.133 696.938 -191.214C729.916 -159.294 695.444 -123.68 728.415 -91.7659C761.387 -59.8519 795.865 -95.4601 828.842 -63.5404C861.819 -31.6206 827.348 3.99334 860.325 35.9131C893.303 67.8328 927.774 32.2188 960.752 64.1386M452.288 -466.34C485.259 -434.426 450.788 -398.812 483.765 -366.892C516.742 -334.972 551.214 -370.586 584.186 -338.672C617.157 -306.758 582.691 -271.139 615.669 -239.219C648.646 -207.299 683.112 -242.919 716.089 -210.999C749.067 -179.079 714.595 -143.465 747.566 -111.551C780.538 -79.6375 815.016 -115.246 847.993 -83.3259C880.97 -51.4062 846.499 -15.7922 879.476 16.1275C912.453 48.0472 946.925 12.4333 979.903 44.353M471.439 -486.125C504.41 -454.211 469.939 -418.597 502.916 -386.678C535.893 -354.758 570.365 -390.372 603.337 -358.458C636.308 -326.544 601.842 -290.924 634.82 -259.004C667.797 -227.085 702.263 -262.704 735.24 -230.785C768.218 -198.865 733.746 -163.251 766.717 -131.337C799.689 -99.423 834.167 -135.031 867.144 -103.111C900.121 -71.1917 865.65 -35.5778 898.627 -3.65804C931.604 28.2617 966.076 -7.35227 999.054 24.5675M490.59 -505.911C523.561 -473.997 489.09 -438.383 522.067 -406.463C555.044 -374.543 589.516 -410.157 622.488 -378.243C655.459 -346.329 620.993 -310.71 653.971 -278.79C686.948 -246.87 721.414 -282.49 754.391 -250.57C787.369 -218.65 752.897 -183.037 785.868 -151.123C818.84 -119.209 853.318 -154.817 886.295 -122.897C919.272 -90.9773 884.801 -55.3633 917.778 -23.4436C950.755 8.47614 985.227 -27.1378 1018.2 4.78191M509.741 -525.696C542.712 -493.782 508.241 -458.168 541.218 -426.249C574.195 -394.329 608.667 -429.943 641.639 -398.029C674.61 -366.115 640.144 -330.495 673.122 -298.575C706.099 -266.656 740.565 -302.275 773.542 -270.356C806.52 -238.436 772.048 -202.822 805.019 -170.908C837.991 -138.994 872.468 -174.602 905.446 -142.683C938.423 -110.763 903.952 -75.1489 936.929 -43.2291C969.906 -11.3094 1004.38 -46.9234 1037.36 -15.0036M528.892 -545.482C561.863 -513.568 527.392 -477.954 560.369 -446.034C593.346 -414.114 627.818 -449.728 660.79 -417.814C693.761 -385.9 659.295 -350.281 692.273 -318.361C725.25 -286.441 759.716 -322.061 792.693 -290.141C825.671 -258.222 791.199 -222.608 824.17 -190.694C857.142 -158.78 891.619 -194.388 924.597 -162.468C957.574 -130.548 923.103 -94.9344 956.08 -63.0147C989.057 -31.095 1023.53 -66.7089 1056.51 -34.7892M548.043 -565.267C581.014 -533.353 546.543 -497.739 579.52 -465.82C612.497 -433.9 646.969 -469.514 679.94 -437.6C712.912 -405.686 678.446 -370.066 711.424 -338.147C744.401 -306.227 778.867 -341.847 811.844 -309.927C844.822 -278.007 810.35 -242.393 843.321 -210.479C876.293 -178.565 910.77 -214.173 943.748 -182.254C976.725 -150.334 942.254 -114.72 975.231 -82.8002C1008.21 -50.8805 1042.68 -86.4945 1075.66 -54.5747M567.194 -585.053C600.165 -553.139 565.693 -517.525 598.671 -485.605C631.648 -453.686 666.12 -489.3 699.091 -457.386C732.063 -425.472 697.597 -389.852 730.575 -357.932C763.552 -326.012 798.018 -361.632 830.995 -329.712C863.973 -297.793 829.501 -262.179 862.472 -230.265C895.444 -198.351 929.921 -233.959 962.899 -202.039C995.876 -170.12 961.405 -134.506 994.382 -102.586C1027.36 -70.6661 1061.83 -106.28 1094.81 -74.3603M586.345 -604.839C619.316 -572.925 584.844 -537.311 617.822 -505.391C650.799 -473.471 685.271 -509.085 718.242 -477.171C751.214 -445.257 716.748 -409.637 749.726 -377.718C782.703 -345.798 817.169 -381.418 850.146 -349.498C883.124 -317.578 848.652 -281.964 881.623 -250.05C914.595 -218.136 949.072 -253.745 982.05 -221.825C1015.03 -189.905 980.556 -154.291 1013.53 -122.371C1046.51 -90.4516 1080.98 -126.066 1113.96 -94.1458M-367.067 380.165C-334.096 412.079 -368.568 447.693 -335.59 479.613C-302.613 511.533 -268.141 475.919 -235.17 507.833C-202.198 539.747 -236.664 575.366 -203.687 607.286C-170.709 639.206 -136.243 603.586 -103.266 635.506C-70.2885 667.426 -104.76 703.04 -71.7888 734.954C-38.8173 766.868 -4.33964 731.259 28.6378 763.179C61.6152 795.099 27.1434 830.713 60.1208 862.632C93.0983 894.552 127.57 858.938 160.547 890.858" stroke="#D02F41" stroke-width="5.48798" stroke-miterlimit="10"/>
</g>
</g>
<defs>
<clipPath id="clip0_8802_35852">
<rect width="714" height="275" rx="20" fill="white"/>
</clipPath>
<clipPath id="clip1_8802_35852">
<rect width="1147.33" height="734.292" fill="white" transform="translate(-305.785 316.852) rotate(-45.9337)"/>
</clipPath>
</defs>
</svg>
