<svg width="347" height="891" viewBox="0 0 347 891" fill="none" xmlns="http://www.w3.org/2000/svg">
<g clip-path="url(#clip0_9519_5828)">
<rect width="347" height="891" rx="20" fill="#E85666"/>
<g opacity="0.5" clip-path="url(#clip1_9519_5828)">
<path d="M-208.45 445.309C-194.877 483.277 -235.888 497.939 -222.312 535.914C-208.736 573.888 -167.724 559.227 -154.151 597.195C-140.577 635.163 -181.586 649.831 -168.01 687.806C-154.433 725.781 -113.425 711.113 -99.8487 749.088C-86.2726 787.063 -127.284 801.724 -113.71 839.692C-100.136 877.66 -59.1227 863.005 -45.5466 900.98C-31.9705 938.955 -72.9815 953.617 -59.4053 991.592C-45.8292 1029.57 -4.81818 1014.91 8.75796 1052.88M-331.423 489.272C-317.849 527.24 -358.86 541.902 -345.284 579.877C-331.708 617.851 -290.697 603.19 -277.123 641.158C-263.549 679.126 -304.558 693.794 -290.982 731.769C-277.406 769.744 -236.397 755.076 -222.821 793.051C-209.245 831.025 -250.256 845.687 -236.682 883.655C-223.109 921.623 -182.095 906.968 -168.519 944.943C-154.943 982.918 -195.954 997.58 -182.378 1035.55C-168.802 1073.53 -127.791 1058.87 -114.214 1096.84M-85.4782 401.346C-71.9045 439.314 -112.916 453.976 -99.3394 491.951C-85.7633 529.925 -44.7523 515.264 -31.1786 553.232C-17.6049 591.2 -58.6135 605.868 -45.0373 643.843C-31.4612 681.818 9.54739 667.15 23.1235 705.125C36.6997 743.1 -4.31135 757.761 9.26234 795.729C22.836 833.697 63.8495 819.043 77.4256 857.017C91.0018 894.992 49.9907 909.654 63.5669 947.629C77.143 985.604 118.154 970.942 131.73 1008.92M98.9804 335.402C112.554 373.37 71.543 388.031 85.1192 426.006C98.6953 463.981 139.706 449.319 153.28 487.287C166.854 525.255 125.845 539.924 139.421 577.899C152.997 615.874 194.006 601.205 207.582 639.18C221.158 677.155 180.147 691.817 193.721 729.785C207.295 767.753 248.308 753.098 261.884 791.073C275.46 829.048 234.449 843.709 248.025 881.684C261.602 919.659 302.613 904.998 316.189 942.972M-392.909 511.254C-379.335 549.222 -420.346 563.883 -406.77 601.858C-393.194 639.833 -352.183 625.171 -338.609 663.139C-325.036 701.107 -366.044 715.776 -352.468 753.751C-338.892 791.726 -297.883 777.057 -284.307 815.032C-270.731 853.007 -311.742 867.669 -298.169 905.637C-284.595 943.605 -243.581 928.95 -230.005 966.925C-216.429 1004.9 -257.44 1019.56 -243.864 1057.54C-230.288 1095.51 -189.277 1080.85 -175.701 1118.82M-146.964 423.328C-133.391 461.296 -174.402 475.957 -160.825 513.932C-147.249 551.907 -106.238 537.245 -92.6646 575.213C-79.091 613.181 -120.1 627.85 -106.523 665.825C-92.9472 703.8 -51.9387 689.131 -38.3625 727.106C-24.7864 765.081 -65.7974 779.743 -52.2237 817.711C-38.65 855.679 2.36343 841.024 15.9396 878.999C29.5157 916.974 -11.4953 931.635 2.08082 969.61C15.657 1007.59 56.668 992.924 70.2441 1030.9M37.4942 357.383C51.0679 395.351 10.0568 410.013 23.6329 447.988C37.2091 485.962 78.2201 471.301 91.7938 509.269C105.368 547.237 64.3589 561.905 77.935 599.88C91.5112 637.855 132.52 623.187 146.096 661.162C159.672 699.137 118.661 713.798 132.235 751.766C145.808 789.734 186.822 775.08 200.398 813.054C213.974 851.029 172.963 865.691 186.539 903.666C200.115 941.641 241.126 926.979 254.703 964.954M-269.937 467.291C-256.363 505.259 -297.374 519.92 -283.798 557.895C-270.222 595.87 -229.211 581.208 -215.637 619.176C-202.063 657.144 -243.072 671.813 -229.496 709.788C-215.92 747.763 -174.911 733.094 -161.335 771.069C-147.759 809.044 -188.77 823.706 -175.196 861.674C-161.622 899.642 -120.609 884.987 -107.033 922.962C-93.4567 960.937 -134.468 975.598 -120.892 1013.57C-107.315 1051.55 -66.3044 1036.89 -52.7283 1074.86M-23.9921 379.365C-10.4184 417.333 -51.4294 431.994 -37.8533 469.969C-24.2772 507.944 16.7339 493.282 30.3075 531.25C43.8812 569.219 2.87267 583.887 16.4488 621.862C30.0249 659.837 71.0335 645.168 84.6096 683.143C98.1858 721.118 57.1748 735.78 70.7485 773.748C84.3221 811.716 125.336 797.061 138.912 835.036C152.488 873.011 111.477 887.672 125.053 925.647C138.629 963.622 179.64 948.961 193.216 986.935M160.466 313.42C174.04 351.388 133.029 366.05 146.605 404.025C160.181 442 201.192 427.338 214.766 465.306C228.34 503.274 187.331 517.942 200.907 555.917C214.483 593.892 255.492 579.224 269.068 617.199C282.644 655.174 241.633 669.835 255.207 707.803C268.781 745.771 309.794 731.117 323.37 769.091C336.946 807.066 295.935 821.728 309.512 859.703C323.088 897.678 364.099 883.016 377.675 920.991M-187.975 437.989C-174.402 475.957 -215.413 490.619 -201.837 528.594C-188.26 566.569 -147.249 551.907 -133.676 589.875C-120.102 627.843 -161.111 642.511 -147.534 680.486C-133.958 718.461 -92.9497 703.793 -79.3736 741.768C-65.7975 779.743 -106.808 794.404 -93.2348 832.372C-79.6611 870.34 -38.6476 855.686 -25.0715 893.66C-11.4953 931.635 -52.5064 946.297 -38.9302 984.272C-25.3541 1022.25 15.6569 1007.59 29.2331 1045.56M-310.948 481.952C-297.374 519.92 -338.385 534.582 -324.809 572.557C-311.233 610.532 -270.222 595.87 -256.648 633.838C-243.074 671.806 -284.083 686.474 -270.507 724.449C-256.931 762.424 -215.922 747.756 -202.346 785.731C-188.77 823.706 -229.781 838.367 -216.207 876.335C-202.633 914.303 -161.62 899.649 -148.044 937.623C-134.468 975.598 -175.479 990.26 -161.903 1028.23C-148.326 1066.21 -107.315 1051.55 -93.7393 1089.52M-65.0031 394.026C-51.4294 431.994 -92.4404 446.656 -78.8643 484.631C-65.2882 522.606 -24.2771 507.944 -10.7034 545.912C2.87024 583.88 -38.1383 598.548 -24.5622 636.523C-10.986 674.498 30.0225 659.83 43.5987 697.805C57.1748 735.78 16.1638 750.441 29.7375 788.409C43.3112 826.377 84.3246 811.723 97.9008 849.697C111.477 887.672 70.4659 902.334 84.042 940.309C97.6182 978.284 138.629 963.622 152.205 1001.6M119.455 328.082C133.029 366.05 92.0181 380.711 105.594 418.686C119.17 456.661 160.181 442 173.755 479.968C187.329 517.936 146.32 532.604 159.896 570.579C173.472 608.554 214.481 593.885 228.057 631.86C241.633 669.835 200.622 684.497 214.196 722.465C227.77 760.433 268.783 745.778 282.359 783.753C295.935 821.728 254.924 836.389 268.501 874.364C282.077 912.339 323.088 897.678 336.664 935.653M-372.434 503.934C-358.86 541.902 -399.871 556.563 -386.295 594.538C-372.719 632.513 -331.708 617.851 -318.134 655.819C-304.561 693.788 -345.569 708.456 -331.993 746.431C-318.417 784.406 -277.408 769.737 -263.832 807.712C-250.256 845.687 -291.267 860.349 -277.693 898.317C-264.12 936.285 -223.106 921.63 -209.53 959.605C-195.954 997.58 -236.965 1012.24 -223.389 1050.22C-209.813 1088.19 -168.802 1073.53 -155.226 1111.5M-126.489 416.008C-112.916 453.976 -153.927 468.637 -140.351 506.612C-126.774 544.587 -85.7634 529.926 -72.1897 567.894C-58.616 605.862 -99.6246 620.53 -86.0484 658.505C-72.4723 696.48 -31.4637 681.811 -17.8876 719.786C-4.31144 757.761 -45.3225 772.423 -31.7488 810.391C-18.1751 848.359 22.8384 833.704 36.4145 871.679C49.9907 909.654 8.97964 924.315 22.5558 962.29C36.1319 1000.27 77.1429 985.604 90.7191 1023.58M57.9692 350.063C71.5429 388.031 30.5318 402.693 44.108 440.668C57.6841 478.643 98.6951 463.981 112.269 501.949C125.843 539.917 84.8339 554.586 98.4101 592.56C111.986 630.535 152.995 615.867 166.571 653.842C180.147 691.817 139.136 706.478 152.71 744.446C166.283 782.414 207.297 767.76 220.873 805.735C234.449 843.709 193.438 858.371 207.014 896.346C220.59 934.321 261.601 919.659 275.178 957.634M-249.462 459.971C-235.888 497.939 -276.899 512.6 -263.323 550.575C-249.747 588.55 -208.736 573.888 -195.162 611.856C-181.588 649.825 -222.597 664.493 -209.021 702.468C-195.445 740.443 -154.436 725.774 -140.86 763.749C-127.284 801.724 -168.295 816.386 -154.721 854.354C-141.147 892.322 -100.134 877.667 -86.5577 915.642C-72.9816 953.617 -113.993 968.278 -100.416 1006.25C-86.8403 1044.23 -45.8293 1029.57 -32.2532 1067.54M-3.51683 372.045C10.0569 410.013 -30.9542 424.674 -17.378 462.649C-3.80191 500.624 37.2091 485.962 50.7828 523.931C64.3565 561.899 23.3479 576.567 36.9241 614.542C50.5002 652.517 91.5088 637.848 105.085 675.823C118.661 713.798 77.65 728.46 91.2237 766.428C104.797 804.396 145.811 789.741 159.387 827.716C172.963 865.691 131.952 880.352 145.528 918.327C159.104 956.302 200.115 941.641 213.692 979.616M180.942 306.1C194.515 344.068 153.504 358.73 167.08 396.705C180.657 434.68 221.668 420.018 235.241 457.986C248.815 495.954 207.806 510.623 221.383 548.597C234.959 586.572 275.967 571.904 289.543 609.879C303.12 647.854 262.109 662.515 275.682 700.483C289.256 738.451 330.269 723.797 343.846 761.772C357.422 799.746 316.411 814.408 329.987 852.383C343.563 890.358 384.574 875.696 398.15 913.671M-433.92 525.915C-420.346 563.883 -461.357 578.545 -447.781 616.52C-434.205 654.494 -393.194 639.833 -379.62 677.801C-366.047 715.769 -407.055 730.437 -393.479 768.412C-379.903 806.387 -338.894 791.719 -325.318 829.694C-311.742 867.669 -352.753 882.33 -339.18 920.298C-325.606 958.266 -284.592 943.612 -271.016 981.586C-257.44 1019.56 -298.451 1034.22 -284.875 1072.2C-271.299 1110.17 -230.288 1095.51 -216.712 1133.49M-413.445 518.595C-399.871 556.563 -440.882 571.225 -427.306 609.2C-413.73 647.175 -372.719 632.513 -359.145 670.481C-345.572 708.449 -386.58 723.117 -373.004 761.092C-359.428 799.067 -318.419 784.399 -304.843 822.374C-291.267 860.349 -332.278 875.01 -318.704 912.978C-305.131 950.946 -264.117 936.292 -250.541 974.266C-236.965 1012.24 -277.976 1026.9 -264.4 1064.88C-250.824 1102.85 -209.813 1088.19 -196.237 1126.17M-167.5 430.669C-153.927 468.637 -194.938 483.299 -181.361 521.274C-167.785 559.249 -126.774 544.587 -113.201 582.555C-99.6269 620.523 -140.635 635.192 -127.059 673.166C-113.483 711.141 -72.4746 696.473 -58.8985 734.448C-45.3223 772.423 -86.3333 787.084 -72.7596 825.052C-59.186 863.02 -18.1725 848.366 -4.59635 886.341C8.97979 924.315 -32.0312 938.977 -18.4551 976.952C-4.87896 1014.93 36.1321 1000.27 49.7082 1038.24M-290.473 474.632C-276.899 512.6 -317.91 527.262 -304.334 565.237C-290.758 603.212 -249.747 588.55 -236.173 626.518C-222.599 664.486 -263.608 679.155 -250.032 717.129C-236.456 755.104 -195.447 740.436 -181.871 778.411C-168.295 816.386 -209.306 831.047 -195.732 869.015C-182.158 906.983 -141.145 892.329 -127.569 930.304C-113.993 968.278 -155.004 982.94 -141.428 1020.91C-127.851 1058.89 -86.8403 1044.23 -73.2642 1082.2M-44.528 386.706C-30.9543 424.674 -71.9653 439.336 -58.3892 477.311C-44.813 515.286 -3.802 500.624 9.77169 538.592C23.3454 576.56 -17.6632 591.229 -4.08705 629.203C9.48908 667.178 50.4977 652.51 64.0738 690.485C77.6499 728.46 36.6389 743.121 50.2126 781.089C63.7863 819.057 104.8 804.403 118.376 842.378C131.952 880.352 90.941 895.014 104.517 932.989C118.093 970.964 159.104 956.302 172.68 994.277M139.93 320.762C153.504 358.73 112.493 373.391 126.069 411.366C139.645 449.341 180.656 434.68 194.23 472.648C207.804 510.616 166.795 525.284 180.371 563.259C193.948 601.234 234.956 586.565 248.532 624.54C262.108 662.515 221.097 677.177 234.671 715.145C248.245 753.113 289.258 738.458 302.834 776.433C316.41 814.408 275.399 829.07 288.976 867.044C302.552 905.019 343.563 890.358 357.139 928.333M-351.959 496.614C-338.385 534.582 -379.396 549.243 -365.82 587.218C-352.244 625.193 -311.233 610.532 -297.659 648.5C-284.085 686.468 -325.094 701.136 -311.518 739.111C-297.942 777.086 -256.933 762.417 -243.357 800.392C-229.781 838.367 -270.792 853.029 -257.218 890.997C-243.645 928.965 -202.631 914.31 -189.055 952.285C-175.479 990.26 -216.49 1004.92 -202.914 1042.9C-189.338 1080.87 -148.327 1066.21 -134.75 1104.18M-106.014 408.688C-92.4404 446.656 -133.451 461.317 -119.875 499.292C-106.299 537.267 -65.2881 522.606 -51.7144 560.574C-38.1407 598.542 -79.1493 613.21 -65.5732 651.185C-51.997 689.16 -10.9885 674.491 2.58767 712.466C16.1638 750.441 -24.8472 765.103 -11.2735 803.071C2.30017 841.039 43.3136 826.384 56.8898 864.359C70.4659 902.334 29.4549 916.995 43.031 954.97C56.6072 992.945 97.6182 978.284 111.194 1016.26M78.4444 342.743C92.0181 380.711 51.0071 395.373 64.5832 433.348C78.1593 471.323 119.17 456.661 132.744 494.629C146.318 532.597 105.309 547.266 118.885 585.24C132.461 623.215 173.47 608.547 187.046 646.522C200.622 684.497 159.611 699.158 173.185 737.126C186.759 775.094 227.772 760.44 241.348 798.415C254.924 836.389 213.913 851.051 227.49 889.026C241.066 927.001 282.077 912.339 295.653 950.314M-228.986 452.651C-215.413 490.619 -256.424 505.28 -242.848 543.255C-229.272 581.23 -188.26 566.569 -174.687 604.537C-161.113 642.505 -202.122 657.173 -188.546 695.148C-174.969 733.123 -133.961 718.454 -120.385 756.429C-106.809 794.404 -147.82 809.066 -134.246 847.034C-120.672 885.002 -79.6587 870.347 -66.0826 908.322C-52.5065 946.297 -93.5175 960.958 -79.9413 998.933C-66.3652 1036.91 -25.3542 1022.25 -11.778 1060.22M16.9582 364.725C30.5319 402.693 -10.4792 417.354 3.09697 455.329C16.6731 493.304 57.6842 478.643 71.2578 516.611C84.8315 554.579 43.8229 569.247 57.3991 607.222C70.9752 645.197 111.984 630.528 125.56 668.503C139.136 706.478 98.125 721.14 111.699 759.108C125.272 797.076 166.286 782.421 179.862 820.396C193.438 858.371 152.427 873.033 166.003 911.007C179.579 948.982 220.59 934.321 234.167 972.296M201.417 298.78C214.99 336.748 173.979 351.41 187.556 389.385C201.132 427.36 242.143 412.698 255.716 450.666C269.29 488.634 228.281 503.303 241.858 541.278C255.434 579.252 296.442 564.584 310.018 602.559C323.595 640.534 282.584 655.195 296.157 693.163C309.731 731.131 350.744 716.477 364.321 754.452C377.897 792.426 336.886 807.088 350.462 845.063C364.038 883.038 405.049 868.376 418.625 906.351M224.201 290.635C237.774 328.603 196.763 343.264 210.339 381.239C223.916 419.214 264.927 404.553 278.5 442.521C292.074 480.489 251.065 495.157 264.642 533.132C278.218 571.107 319.226 556.439 332.802 594.413C346.379 632.388 305.368 647.05 318.941 685.018C332.515 722.986 373.528 708.331 387.105 746.306C400.681 784.281 359.67 798.943 373.246 836.918C386.822 874.892 427.833 860.231 441.409 898.206M246.985 282.49C260.558 320.458 219.547 335.119 233.123 373.094C246.699 411.069 287.711 396.407 301.284 434.375C314.858 472.343 273.849 487.012 287.425 524.987C301.002 562.962 342.01 548.293 355.586 586.268C369.162 624.243 328.151 638.905 341.725 676.873C355.299 714.841 396.312 700.186 409.888 738.161C423.465 776.136 382.454 790.797 396.03 828.772C409.606 866.747 450.617 852.086 464.193 890.06M269.768 274.344C283.342 312.312 242.331 326.974 255.907 364.949C269.483 402.924 310.494 388.262 324.068 426.23C337.642 464.198 296.633 478.867 310.209 516.841C323.786 554.816 364.794 540.148 378.37 578.123C391.946 616.098 350.935 630.759 364.509 668.727C378.083 706.695 419.096 692.041 432.672 730.016C446.248 767.99 405.237 782.652 418.814 820.627C432.39 858.602 473.401 843.94 486.977 881.915M292.552 266.199C306.126 304.167 265.115 318.829 278.691 356.803C292.267 394.778 333.278 380.117 346.852 418.085C360.426 456.053 319.417 470.721 332.993 508.696C346.569 546.671 387.578 532.003 401.154 569.978C414.73 607.952 373.719 622.614 387.293 660.582C400.867 698.55 441.88 683.895 455.456 721.87C469.032 759.845 428.021 774.507 441.597 812.482C455.174 850.457 496.185 835.795 509.761 873.77M315.336 258.054C328.91 296.022 287.899 310.683 301.475 348.658C315.051 386.633 356.062 371.971 369.636 409.939C383.21 447.908 342.201 462.576 355.777 500.551C369.353 538.526 410.362 523.857 423.938 561.832C437.514 599.807 396.503 614.469 410.077 652.437C423.651 690.405 464.664 675.75 478.24 713.725C491.816 751.7 450.805 766.361 464.381 804.336C477.958 842.311 518.969 827.65 532.545 865.625M338.12 249.908C351.694 287.876 310.683 302.538 324.259 340.513C337.835 378.488 378.846 363.826 392.42 401.794C405.994 439.762 364.985 454.431 378.561 492.406C392.137 530.38 433.146 515.712 446.722 553.687C460.298 591.662 419.287 606.323 432.861 644.291C446.434 682.259 487.448 667.605 501.024 705.58C514.6 743.554 473.589 758.216 487.165 796.191C500.741 834.166 541.752 819.504 555.329 857.479M360.904 241.763C374.478 279.731 333.467 294.393 347.043 332.367C360.619 370.342 401.63 355.681 415.204 393.649C428.777 431.617 387.769 446.285 401.345 484.26C414.921 522.235 455.93 507.567 469.506 545.542C483.082 583.516 442.071 598.178 455.645 636.146C469.218 674.114 510.232 659.459 523.808 697.434C537.384 735.409 496.373 750.071 509.949 788.046C523.525 826.021 564.536 811.359 578.113 849.334M383.688 233.618C397.262 271.586 356.251 286.247 369.827 324.222C383.403 362.197 424.414 347.535 437.988 385.504C451.561 423.472 410.553 438.14 424.129 476.115C437.705 514.09 478.714 499.421 492.29 537.396C505.866 575.371 464.855 590.033 478.429 628.001C492.002 665.969 533.016 651.314 546.592 689.289C560.168 727.264 519.157 741.925 532.733 779.9C546.309 817.875 587.32 803.214 600.896 841.189M406.472 225.472C420.046 263.44 379.035 278.102 392.611 316.077C406.187 354.052 447.198 339.39 460.772 377.358C474.345 415.326 433.337 429.995 446.913 467.97C460.489 505.944 501.498 491.276 515.074 529.251C528.65 567.226 487.639 581.887 501.212 619.855C514.786 657.823 555.8 643.169 569.376 681.144C582.952 719.119 541.941 733.78 555.517 771.755C569.093 809.73 610.104 795.068 623.68 833.043M429.256 217.327C442.83 255.295 401.818 269.957 415.395 307.932C428.971 345.906 469.982 331.245 483.556 369.213C497.129 407.181 456.121 421.849 469.697 459.824C483.273 497.799 524.281 483.131 537.858 521.106C551.434 559.08 510.423 573.742 523.996 611.71C537.57 649.678 578.584 635.023 592.16 672.998C605.736 710.973 564.725 725.635 578.301 763.61C591.877 801.585 632.888 786.923 646.464 824.898M452.04 209.182C465.613 247.15 424.602 261.811 438.179 299.786C451.755 337.761 492.766 323.1 506.339 361.068C519.913 399.036 478.905 413.704 492.481 451.679C506.057 489.654 547.065 474.985 560.642 512.96C574.218 550.935 533.207 565.597 546.78 603.565C560.354 641.533 601.367 626.878 614.944 664.853C628.52 702.828 587.509 717.49 601.085 755.464C614.661 793.439 655.672 778.778 669.248 816.753M474.824 201.036C488.397 239.004 447.386 253.666 460.962 291.641C474.539 329.616 515.55 314.954 529.123 352.922C542.697 390.89 501.688 405.559 515.265 443.534C528.841 481.509 569.849 466.84 583.425 504.815C597.002 542.79 555.991 557.451 569.564 595.419C583.138 633.388 624.151 618.733 637.728 656.708C651.304 694.683 610.293 709.344 623.869 747.319C637.445 785.294 678.456 770.632 692.032 808.607M497.608 192.891C511.181 230.859 470.17 245.521 483.746 283.496C497.322 321.47 538.333 306.809 551.907 344.777C565.481 382.745 524.472 397.413 538.048 435.388C551.625 473.363 592.633 458.695 606.209 496.67C619.785 534.645 578.774 549.306 592.348 587.274C605.922 625.242 646.935 610.588 660.511 648.562C674.088 686.537 633.077 701.199 646.653 739.174C660.229 777.149 701.24 762.487 714.816 800.462M520.391 184.746C533.965 222.714 492.954 237.375 506.53 275.35C520.106 313.325 561.117 298.664 574.691 336.632C588.265 374.6 547.256 389.268 560.832 427.243C574.409 465.218 615.417 450.549 628.993 488.524C642.569 526.499 601.558 541.161 615.132 579.129C628.706 617.097 669.719 602.442 683.295 640.417C696.871 678.392 655.86 693.054 669.437 731.028C683.013 769.003 724.024 754.342 737.6 792.317M543.175 176.6C556.749 214.569 515.738 229.23 529.314 267.205C542.89 305.18 583.901 290.518 597.475 328.486C611.049 366.454 570.04 381.123 583.616 419.098C597.192 457.073 638.201 442.404 651.777 480.379C665.353 518.354 624.342 533.016 637.916 570.984C651.49 608.952 692.503 594.297 706.079 632.272C719.655 670.247 678.644 684.908 692.22 722.883C705.797 760.858 746.808 746.196 760.384 784.171M565.959 168.455C579.533 206.423 538.522 221.085 552.098 259.06C565.674 297.035 606.685 282.373 620.259 320.341C633.833 358.309 592.824 372.977 606.4 410.952C619.976 448.927 660.985 434.259 674.561 472.234C688.137 510.209 647.126 524.87 660.7 562.838C674.274 600.806 715.287 586.152 728.863 624.126C742.439 662.101 701.428 676.763 715.004 714.738C728.581 752.713 769.592 738.051 783.168 776.026M588.743 160.31C602.317 198.278 561.306 212.939 574.882 250.914C588.458 288.889 629.469 274.228 643.043 312.196C656.616 350.164 615.608 364.832 629.184 402.807C642.76 440.782 683.769 426.114 697.345 464.088C710.921 502.063 669.91 516.725 683.484 554.693C697.057 592.661 738.071 578.006 751.647 615.981C765.223 653.956 724.212 668.618 737.788 706.593C751.364 744.567 792.375 729.906 805.952 767.881M611.527 152.165C625.101 190.133 584.09 204.794 597.666 242.769C611.242 280.744 652.253 266.082 665.827 304.05C679.4 342.018 638.392 356.687 651.968 394.662C665.544 432.637 706.553 417.968 720.129 455.943C733.705 493.918 692.694 508.58 706.268 546.548C719.841 584.516 760.855 569.861 774.431 607.836C788.007 645.811 746.996 660.472 760.572 698.447C774.148 736.422 815.159 721.761 828.735 759.735M634.311 144.019C647.885 181.987 606.874 196.649 620.45 234.624C634.026 272.599 675.037 257.937 688.611 295.905C702.184 333.873 661.176 348.542 674.752 386.516C688.328 424.491 729.337 409.823 742.913 447.798C756.489 485.773 715.478 500.434 729.052 538.402C742.625 576.37 783.639 561.716 797.215 599.691C810.791 637.665 769.78 652.327 783.356 690.302C796.932 728.277 837.943 713.615 851.519 751.59M657.095 135.874C670.669 173.842 629.658 188.503 643.234 226.478C656.81 264.453 697.821 249.792 711.395 287.76C724.968 325.728 683.96 340.396 697.536 378.371C711.112 416.346 752.121 401.678 765.697 439.652C779.273 477.627 738.262 492.289 751.835 530.257C765.409 568.225 806.423 553.57 819.999 591.545C833.575 629.52 792.564 644.182 806.14 682.157C819.716 720.131 860.727 705.47 874.303 743.445M679.879 127.729C693.452 165.697 652.441 180.358 666.018 218.333C679.594 256.308 720.605 241.646 734.178 279.614C747.752 317.582 706.744 332.251 720.32 370.226C733.896 408.201 774.904 393.532 788.481 431.507C802.057 469.482 761.046 484.144 774.619 522.112C788.193 560.08 829.207 545.425 842.783 583.4C856.359 621.375 815.348 636.036 828.924 674.011C842.5 711.986 883.511 697.325 897.087 735.299M-454.395 533.235C-440.822 571.203 -481.833 585.865 -468.256 623.839C-454.68 661.814 -413.669 647.153 -400.096 685.121C-386.522 723.089 -427.53 737.757 -413.954 775.732C-400.378 813.707 -359.37 799.039 -345.793 837.014C-332.217 874.988 -373.228 889.65 -359.655 927.618C-346.081 965.586 -305.067 950.931 -291.491 988.906C-277.915 1026.88 -318.926 1041.54 -305.35 1079.52C-291.774 1117.49 -250.763 1102.83 -237.187 1140.81" stroke="#D02F41" stroke-width="4.82235" stroke-miterlimit="10"/>
</g>
<rect x="378.316" y="949.693" width="410.625" height="739.963" transform="rotate(180 378.316 949.693)" fill="url(#paint0_linear_9519_5828)"/>
</g>
<rect x="0.5" y="0.5" width="346" height="890" rx="19.5" stroke="#F3F5F9"/>
<defs>
<linearGradient id="paint0_linear_9519_5828" x1="589.828" y1="863.113" x2="583.629" y2="1689.66" gradientUnits="userSpaceOnUse">
<stop stop-color="white"/>
<stop offset="1" stop-color="white" stop-opacity="0"/>
</linearGradient>
<clipPath id="clip0_9519_5828">
<rect width="347" height="891" rx="20" fill="white"/>
</clipPath>
<clipPath id="clip1_9519_5828">
<rect width="1008.17" height="645.23" fill="white" transform="translate(-381.484 507.172) rotate(-19.6721)"/>
</clipPath>
</defs>
</svg>
