<svg width="34" height="34" viewBox="0 0 34 34" fill="none" xmlns="http://www.w3.org/2000/svg">
<path d="M11.4719 19.1924L15.4811 15.3011L6.71191 6.80361C6.03191 6.14361 4.85608 6.32236 4.43108 7.17486C3.42524 9.22361 3.79358 11.7399 5.53608 13.4449L11.4719 19.1924ZM21.0769 16.7036C23.2444 17.6799 26.2902 16.9924 28.5427 14.8061C31.2486 12.1799 31.7727 8.41236 29.6902 6.39111C27.6219 4.38361 23.7402 4.87861 21.0202 7.50486C18.7677 9.69111 18.0594 12.6474 19.0652 14.7511L6.23024 27.2086C5.67774 27.7449 5.67774 28.6111 6.23024 29.1474C6.78274 29.6836 7.67524 29.6836 8.22774 29.1474L16.9969 20.6636L25.7519 29.1611C26.3044 29.6974 27.1969 29.6974 27.7494 29.1611C28.3019 28.6249 28.3019 27.7586 27.7494 27.2224L18.9944 18.7249L21.0769 16.7036Z" fill="#E85666"/>
</svg>
