<svg width="99" height="118" viewBox="0 0 99 118" fill="none" xmlns="http://www.w3.org/2000/svg">
<circle cx="49.5" cy="49.5" r="49.5" fill="#E85666"/>
<path d="M85 49.5C85 54.1619 84.0818 58.7782 82.2977 63.0853C80.5137 67.3923 77.8988 71.3058 74.6023 74.6023C71.3058 77.8988 67.3923 80.5137 63.0853 82.2977C58.7782 84.0818 54.1619 85 49.5 85C44.8381 85 40.2218 84.0818 35.9147 82.2977C31.6077 80.5137 27.6942 77.8988 24.3977 74.6023C21.1012 71.3058 18.4863 67.3923 16.7023 63.0853C14.9182 58.7782 14 54.1619 14 49.5L49.5 49.5H85Z" fill="white"/>
<path d="M75.5 113L23.9985 113" stroke="#FACED8" stroke-width="10" stroke-linecap="round"/>
</svg>
