<svg width="99" height="118" viewBox="0 0 99 118" fill="none" xmlns="http://www.w3.org/2000/svg">
<circle cx="49.5" cy="49.5" r="49.5" fill="#06c167"/>
<path d="M85 50.5C85 55.1619 84.0818 59.7782 82.2977 64.0853C80.5137 68.3923 77.8988 72.3058 74.6023 75.6023C71.3058 78.8988 67.3923 81.5137 63.0853 83.2977C58.7782 85.0818 54.1619 86 49.5 86C44.8381 86 40.2218 85.0818 35.9147 83.2977C31.6077 81.5137 27.6942 78.8988 24.3977 75.6023C21.1012 72.3058 18.4863 68.3923 16.7023 64.0853C14.9182 59.7782 14 55.1619 14 50.5L31.0215 50.5C31.0215 52.9266 31.4995 55.3295 32.4281 57.5714C33.3567 59.8133 34.7178 61.8504 36.4337 63.5663C38.1496 65.2822 40.1867 66.6433 42.4286 67.5719C44.6705 68.5005 47.0734 68.9785 49.5 68.9785C51.9266 68.9785 54.3295 68.5005 56.5714 67.5719C58.8133 66.6433 60.8504 65.2822 62.5663 63.5663C64.2822 61.8504 65.6433 59.8133 66.5719 57.5714C67.5005 55.3295 67.9785 52.9266 67.9785 50.5H85Z" fill="white"/>
<path d="M75.5 113L23.9985 113" stroke="#FACED8" stroke-width="10" stroke-linecap="round"/>
</svg>
